<svg width="801" height="801" fill="none" xmlns="http://www.w3.org/2000/svg"><path d="M123 649.22l5.428-4.866 1.118 1.246c.22.246.383.482.49.709.111.231.164.457.161.678a1.36 1.36 0 01-.189.653 2.54 2.54 0 01-.525.628c-.224.2-.444.345-.661.435-.209.091-.413.12-.611.088a1.156 1.156 0 01-.571-.274c.147.263.22.516.22.758.004.238-.06.473-.192.703a2.602 2.602 0 01-.573.696 3.171 3.171 0 01-.709.49c-.24.119-.479.18-.717.184a1.537 1.537 0 01-.706-.153 2.208 2.208 0 01-.665-.528L123 649.22zm1.222.271l.456.509c.305.339.585.495.841.466.265-.028.574-.2.927-.516.228-.204.39-.406.486-.605a.862.862 0 00.09-.6c-.036-.202-.154-.414-.354-.638l-.402-.449-2.044 1.833zm2.62-2.349l.402.449c.193.214.372.356.538.424a.697.697 0 00.523-.009c.178-.071.375-.203.589-.395.25-.225.397-.425.441-.601.043-.176.007-.356-.111-.541a4.539 4.539 0 00-.518-.672l-.162-.181-1.702 1.526zm.128 6.4l5.353-4.949.69.747-2.227 2.059.196.211c.358.388.607.75.747 1.087.144.332.161.664.05.995-.107.336-.365.693-.774 1.072a3.095 3.095 0 01-.806.56 1.537 1.537 0 01-.769.136 1.731 1.731 0 01-.767-.26 3.839 3.839 0 01-.777-.667l-.916-.991zm1.226.252l.226.244c.207.225.401.385.58.481a.762.762 0 00.603.043c.215-.068.468-.236.759-.505.365-.338.56-.649.584-.933.024-.283-.14-.614-.49-.993l-.214-.231-2.048 1.894zm1.756 2.973l5.352-4.949.691.746-5.353 4.949-.69-.746zm2.176 2.246l5.256-5.051 2.782 2.894-5.257 5.052-.704-.734 4.73-4.546-1.372-1.428-4.73 4.547-.705-.734zm5.931 6.052c-.348-.348-.558-.694-.63-1.038a1.578 1.578 0 01.134-1.024c.166-.344.419-.685.758-1.024l1.955-1.953c.34-.339.675-.585 1.006-.738.34-.152.675-.19 1.006-.114.339.077.682.289 1.03.637.348.348.558.69.63 1.025a1.55 1.55 0 01-.122.999c-.149.335-.393.673-.732 1.012l-1.962 1.959c-.335.335-.674.581-1.018.737-.34.161-.681.21-1.025.146-.339-.068-.683-.276-1.03-.624zm.566-.566c.191.191.373.297.547.318a.845.845 0 00.529-.133c.178-.11.363-.261.554-.452l2.26-2.257c.191-.191.338-.371.44-.541a.76.76 0 00.121-.515c-.021-.174-.127-.357-.318-.548-.191-.191-.375-.299-.554-.325a.76.76 0 00-.515.121 2.85 2.85 0 00-.541.439l-2.261 2.257a3.122 3.122 0 00-.452.554.844.844 0 00-.134.528c.025.178.133.363.324.554zm1.89 2.865l.527-.542c.09.096.182.173.277.231a.55.55 0 00.332.085c.127-.002.281-.049.462-.141.181-.092.404-.239.668-.443.265-.203.585-.473.962-.81l2.876-2.614 2.299 2.232-5.077 5.231-.73-.709 4.551-4.688-.943-.915-2.298 2.122c-.347.315-.67.591-.968.829a5.058 5.058 0 01-.838.553 2.05 2.05 0 01-.747.24 1.242 1.242 0 01-.683-.123c-.222-.107-.446-.286-.67-.538zm4.726 4.518l4.976-5.328.743.694-2.15 2.303 1.368 1.277 2.151-2.302.743.694-4.976 5.328-.744-.694 2.329-2.493-1.368-1.278-2.329 2.493-.743-.694zm4.48 4.063l4.893-5.404 2.095 1.897-.508.56-1.341-1.214-1.619 1.788 1.088.985-.484.533-1.087-.984-1.794 1.981 1.354 1.226-.489.541-2.108-1.909zm2.955 2.646l4.831-5.46.761.674-2.087 2.359 1.402 1.241 2.087-2.359.762.673-4.831 5.46-.762-.674 2.261-2.554-1.402-1.241-2.26 2.555-.762-.674zm4.586 3.995l4.746-5.534.683.586-3.287 3.833 4.906-2.444.554.475-4.747 5.533-.676-.58 3.34-3.894-4.945 2.517-.574-.492zm4.746 3.992l4.639-5.624 2.18 1.799-.481.583-1.395-1.151-1.535 1.86 1.131.934-.458.555-1.131-.933-1.701 2.062 1.409 1.162-.464.563-2.194-1.81zm7.517 6.068l4.509-5.729 3.154 2.483-4.509 5.728-.799-.629 4.058-5.155-1.556-1.225-4.058 5.156-.799-.629zm5.269 4.061l.456-.602c.102.084.203.149.304.195.105.05.218.064.34.043.126-.017.273-.083.441-.196.169-.113.372-.287.609-.521.238-.235.523-.542.855-.922l2.535-2.947 2.555 1.933-4.399 5.814-.811-.614 3.943-5.21-1.048-.793-2.021 2.387c-.306.355-.593.669-.859.942a5.115 5.115 0 01-.764.652 2.089 2.089 0 01-.712.33c-.229.053-.46.04-.693-.039-.234-.079-.478-.23-.731-.452zm5.262 4.023l5.539-4.986.793.577-3.027 6.812-.779-.566.81-1.681-1.201-.873-1.363 1.278-.772-.561zm2.673-1.227l.983.714 1.437-3.017-2.42 2.303zm2.152 4.673l4.196-5.961.832.585-1.813 2.576 1.531 1.078 1.813-2.576.831.585-4.196 5.962-.831-.586 1.963-2.789-1.531-1.078-1.963 2.79-.832-.586zm5.278 3.557l5.384-5.152.811.552-2.818 6.901-.796-.542.759-1.705-1.228-.836-1.323 1.32-.789-.538zm2.635-1.308l1.004.684 1.344-3.06-2.348 2.376zm5.105 6.427l3.944-6.131 3.376 2.171-3.944 6.132-.855-.55 3.549-5.519-1.665-1.071-3.549 5.518-.856-.55zm8.069 5.151c-.419-.258-.703-.546-.852-.864a1.578 1.578 0 01-.107-1.028c.082-.372.249-.763.501-1.171l1.45-2.352c.252-.409.522-.725.808-.95.295-.227.613-.342.952-.344.348-.004.731.123 1.15.382.419.258.702.542.85.851.147.31.185.643.112 1-.067.361-.226.745-.478 1.154l-1.455 2.359a3.547 3.547 0 01-.821.953 1.633 1.633 0 01-.963.379c-.346.012-.728-.111-1.147-.369zm.42-.682c.23.142.432.203.606.184a.844.844 0 00.483-.252c.148-.149.293-.338.435-.568l1.677-2.719c.142-.23.243-.439.303-.628a.756.756 0 00-.002-.529c-.06-.164-.206-.318-.436-.459-.229-.142-.434-.205-.613-.188a.758.758 0 00-.474.236 2.916 2.916 0 00-.425.552l-1.677 2.72a3.078 3.078 0 00-.312.643.84.84 0 00-.008.544c.066.168.214.323.443.464zm5.8 4.275l3.662-6.304.879.511-1.582 2.724 1.619.94 1.582-2.724.879.511-3.661 6.304-.88-.511 1.714-2.95-1.619-.94-1.713 2.95-.88-.511zm5.884 3.303l3.542-6.372.786.437-2.453 4.413 4.318-3.376.637.354-3.542 6.372-.779-.433 2.493-4.484-4.341 3.456-.661-.367zm6.338 3.497l3.446-6.425 1.594.855c.386.207.654.443.805.708.159.262.22.554.184.875-.036.321-.154.669-.356 1.045a2.241 2.241 0 01-.654.782c-.25.186-.528.286-.834.299-.304.007-.63-.083-.979-.27l-.706-.379-1.604 2.99-.896-.48zm2.845-3.152l.412.221c.259.139.478.219.657.24a.626.626 0 00.479-.131c.143-.114.286-.303.427-.567.165-.307.267-.555.308-.745a.549.549 0 00-.095-.49c-.109-.14-.314-.29-.615-.452l-.421-.226-1.152 2.15zm-116.783-70.407l5.488-4.798.593.678-3.802 3.322 5.205-1.716.48.548-5.489 4.798-.586-.671 3.862-3.376-5.254 1.784-.497-.569zm4.737 5.272l5.377-4.923.686.75-2.323 2.127 1.265 1.381 2.323-2.128.687.75-5.377 4.924-.686-.75 2.515-2.304-1.264-1.381-2.516 2.304-.687-.75zm4.178 4.491l6.363-3.88.673.713-4.23 6.138-.662-.701 1.107-1.502-1.02-1.08-1.576 1.006-.655-.694zm2.853-.714l.835.883 1.968-2.701-2.803 1.818zm.398 5.821l.56-.547c.197.245.364.417.503.516.143.104.272.146.386.126a.573.573 0 00.34-.18c.116-.113.241-.26.375-.441l3.637-5.553.672.69-1.797 2.605-1.4 1.878 1.87-1.369 2.62-1.786.679.696-5.565 3.6a53.92 53.92 0 00-.662.43 2.19 2.19 0 01-.519.28.809.809 0 01-.478.038c-.16-.036-.339-.134-.537-.293a5.63 5.63 0 01-.684-.69zm6.546 5.088l2.374-2.386a4.905 4.905 0 01-.854-.66c-.294-.292-.496-.578-.607-.858a1.31 1.31 0 01-.034-.833c.084-.272.26-.542.527-.81l1.669-1.677.728.723-1.67 1.678a1.478 1.478 0 00-.336.478.692.692 0 00-.012.471c.056.157.17.322.345.496.089.088.191.177.306.266.119.093.249.184.389.273l2.317-2.328.727.723-5.142 5.167-.727-.723zm2.536 2.255l5.062-5.246.732.707-2.187 2.266 1.347 1.3 2.187-2.266.732.706-5.062 5.245-.732-.706 2.369-2.454-1.347-1.3-2.369 2.454-.732-.706zm5.784 5.579c-.359-.337-.581-.675-.664-1.016a1.575 1.575 0 01.1-1.029c.154-.349.394-.698.722-1.049l1.888-2.017c.328-.351.655-.608.981-.771a1.543 1.543 0 011.001-.148c.342.065.692.265 1.051.602.36.336.581.67.664 1.003.083.332.054.667-.088 1.002-.137.34-.37.685-.697 1.036l-1.895 2.024c-.323.346-.654.603-.993.771a1.638 1.638 0 01-1.019.181c-.341-.057-.692-.253-1.051-.589zm.547-.585c.197.184.383.284.558.3a.847.847 0 00.523-.151 3.17 3.17 0 00.539-.47l2.183-2.333c.184-.197.325-.382.421-.555a.762.762 0 00.104-.52c-.027-.173-.14-.352-.337-.536-.197-.185-.385-.287-.564-.306a.755.755 0 00-.511.138 2.838 2.838 0 00-.526.457l-2.183 2.332a3.109 3.109 0 00-.433.569.837.837 0 00-.116.532c.031.177.145.358.342.543zm3.7 1.165l.49-.54 1.487 1.348-.49.54-1.487-1.348zm1.885 4.837l4.335-4.89-.923-.818.502-.565 2.579 2.286-.502.566-.895-.794-4.335 4.889-.761-.674zm3.443 2.92l4.752-5.528 2.143 1.842-.493.573-1.372-1.179-1.572 1.829 1.113.956-.47.546-1.112-.956-1.743 2.027 1.386 1.191-.475.553-2.157-1.854zm3.291 2.788l3.619-1.945 1.09-3.621.723.608-.807 2.683 2.427-1.323.724.608-3.458 1.738-1.175 3.891-.724-.608.856-2.866-2.551 1.442-.724-.607zm4.746 4.026l4.602-5.654.789.642-1.989 2.443 1.452 1.182 1.989-2.443.788.642-4.601 5.654-.789-.642 2.153-2.646-1.452-1.181-2.153 2.645-.789-.642zm4.67 3.739l4.514-5.724.707.557-3.127 3.965 4.802-2.644.572.452-4.515 5.724-.699-.552 3.177-4.028-4.838 2.718-.593-.468zm7.169 5.627l2.034-2.683a4.875 4.875 0 01-.935-.539c-.33-.25-.568-.507-.716-.769a1.308 1.308 0 01-.145-.821c.047-.281.185-.572.413-.873l1.43-1.886.818.62-1.43 1.886a1.453 1.453 0 00-.269.519.692.692 0 00.051.468c.076.148.212.296.408.445.101.076.214.15.339.223.131.076.271.149.422.218l1.985-2.618.817.62-4.404 5.809-.818-.619zm2.918 2.038l4.316-5.875 2.277 1.673-.447.609-1.458-1.071-1.428 1.944 1.182.869-.426.58-1.182-.868-1.582 2.154 1.472 1.081-.431.588-2.293-1.684zm5.479 4.13c-.419-.301-.683-.623-.791-.966a1.707 1.707 0 01.026-1.056c.125-.36.319-.723.581-1.089l1.5-2.092c.287-.399.581-.717.882-.951a1.56 1.56 0 01.976-.341c.353.002.739.153 1.158.454.371.265.614.543.731.834.121.294.138.6.048.92-.084.324-.254.664-.509 1.02l-.335.468-.783-.561.299-.417c.157-.22.283-.421.378-.604.102-.185.138-.359.107-.521-.031-.163-.161-.326-.39-.491-.234-.167-.442-.239-.622-.213-.177.021-.35.111-.517.272-.158.16-.325.361-.5.605l-1.683 2.348c-.213.297-.359.551-.436.762-.073.205-.08.385-.021.539.06.153.185.298.375.434.225.161.42.228.588.2a.902.902 0 00.482-.286c.15-.158.309-.354.477-.588l.314-.439.783.562-.315.438a3.897 3.897 0 01-.818.864c-.284.21-.589.316-.915.319-.323-.003-.68-.144-1.07-.424zm3.484 2.227l4.134-6.004.838.576-1.838 2.669.312.214 2.912-1.928.838.577-3.151 2.037-.835 4.069-.838-.577.8-3.765-.318-.219-2.016 2.928-.838-.577zm4.25 2.855l4.042-6.067.749.5-2.8 4.201 4.575-3.019.607.405-4.043 6.066-.741-.494 2.845-4.269-4.605 3.096-.629-.419zm4.909 3.271l4.064-6.054.84.541-2.123 5.667 4.294-4.267.832.536-3.837 6.2-.689-.443 2.8-4.492-3.904 3.78-.484-.313 1.839-5.11-2.936 4.403-.696-.448zm9.445 7.191l.404-.67c.252.186.457.31.617.371.164.064.299.072.405.024a.567.567 0 00.283-.26c.084-.139.168-.312.252-.521l2.111-6.293.825.497-1.079 2.975-.878 2.171 1.463-1.798 2.082-2.391.832.502-4.472 4.891c-.203.221-.38.416-.53.584a2.166 2.166 0 01-.432.402.8.8 0 01-.452.158c-.165.006-.363-.043-.594-.148a5.603 5.603 0 01-.837-.494zm6.695 2.889c-.446-.259-.739-.555-.879-.886a1.705 1.705 0 01-.074-1.054c.09-.37.249-.75.476-1.139l1.295-2.224c.248-.425.51-.769.788-1.031a1.56 1.56 0 01.939-.432c.351-.031.75.083 1.196.342.394.23.663.484.806.762.149.281.194.585.136.912-.054.33-.19.684-.411 1.063l-.29.497-.832-.484.258-.444c.136-.233.242-.445.319-.637.085-.193.104-.369.058-.528-.046-.159-.191-.31-.435-.452-.249-.145-.462-.196-.64-.153-.174.037-.337.144-.488.319a4.988 4.988 0 00-.44.65l-1.454 2.496c-.185.317-.305.583-.362.8-.054.212-.044.391.03.538.074.148.212.28.415.398.238.139.439.187.603.143a.894.894 0 00.453-.33c.135-.171.274-.382.419-.631l.272-.466.832.484-.271.467a3.906 3.906 0 01-.734.937 1.524 1.524 0 01-.881.404c-.321.028-.69-.079-1.104-.321zm3.231 1.605l.371-.659c.112.07.221.121.327.153a.548.548 0 00.342-.004c.123-.034.26-.119.412-.254.151-.135.329-.334.533-.598.203-.265.444-.607.723-1.029l2.113-3.262 2.792 1.571-3.573 6.354-.886-.499 3.202-5.695-1.145-.644-1.68 2.638c-.255.393-.497.743-.724 1.049-.224.301-.447.55-.669.749a2.04 2.04 0 01-.661.423c-.219.084-.45.102-.692.055-.242-.047-.504-.163-.785-.348zm5.743 4.448l.371-.689c.26.174.472.288.634.341.167.056.303.057.406.004a.569.569 0 00.27-.274c.077-.142.152-.32.226-.533l1.801-6.389.848.457-.932 3.024-.77 2.212 1.372-1.868 1.963-2.49.856.46-4.227 5.105c-.193.23-.36.433-.502.609a2.248 2.248 0 01-.411.423.805.805 0 01-.444.18c-.165.014-.365-.026-.601-.119a5.579 5.579 0 01-.86-.453zm5.619 1.881l3.381-6.459 2.456 1.286-.351.669-1.555-.813-3.03 5.788-.901-.471zm3.123 1.557l4.666-5.811.875.442-1.893 7.209-.86-.433.53-1.789-1.326-.669-1.141 1.481-.851-.43zm2.441-1.641l1.084.547.934-3.209-2.018 2.662zm2.721 4.213l3.308-6.498.898.437-1.426 5.881 3.75-4.752.89.433-3.065 6.615-.736-.358 2.24-4.795-3.422 4.221-.518-.252 1.212-5.294-2.386 4.724-.745-.362z" fill="#627DAE"/><mask id="a" fill="#fff"><path d="M260.531 775.745A400.496 400.496 0 0175.526 634.577l39.805-28.671a351.449 351.449 0 00162.344 123.877l-17.144 45.962z"/></mask><path d="M260.531 775.745A400.496 400.496 0 0175.526 634.577l39.805-28.671a351.449 351.449 0 00162.344 123.877l-17.144 45.962z" stroke="#FB9B2B" stroke-width="7" mask="url(#a)"/></svg>