<svg width="127" height="138" fill="none" xmlns="http://www.w3.org/2000/svg"><path d="M13 20.22l5.428-4.866 1.118 1.247c.22.245.383.482.49.708.11.232.164.457.16.678a1.35 1.35 0 01-.188.653c-.118.21-.293.42-.525.627-.224.2-.444.346-.661.436-.21.09-.413.12-.61.088a1.156 1.156 0 01-.572-.274c.147.263.22.516.22.758a1.36 1.36 0 01-.191.703 2.602 2.602 0 01-.574.696 3.178 3.178 0 01-.709.49 1.68 1.68 0 01-.717.184 1.519 1.519 0 01-.706-.153 2.202 2.202 0 01-.665-.528L13 20.22zm1.222.27l.456.51c.304.34.585.495.841.466.265-.027.574-.2.927-.516.228-.204.39-.406.486-.604a.861.861 0 00.09-.601c-.036-.202-.154-.414-.354-.638l-.402-.449-2.044 1.832zm2.62-2.348l.402.449c.193.214.372.356.538.424a.7.7 0 00.523-.01c.178-.07.375-.202.59-.394.25-.224.396-.425.44-.6.043-.177.007-.357-.11-.542a4.598 4.598 0 00-.519-.672l-.162-.181-1.702 1.526zm.128 6.4l5.353-4.95.69.748-2.227 2.059.196.211c.358.388.607.75.747 1.087.144.332.16.664.05.995-.107.335-.365.693-.774 1.072a3.09 3.09 0 01-.806.56 1.538 1.538 0 01-.77.136 1.731 1.731 0 01-.766-.26 3.855 3.855 0 01-.776-.667l-.917-.991zm1.226.252l.226.244c.207.225.4.385.58.481a.762.762 0 00.603.043c.215-.068.468-.236.758-.505.366-.338.56-.649.585-.932.024-.284-.14-.615-.49-.994l-.214-.231-2.048 1.894zm1.756 2.973l5.352-4.95.69.747-5.352 4.95-.69-.747zm2.176 2.246l5.256-5.051 2.782 2.894-5.256 5.051-.705-.733 4.73-4.546-1.372-1.428-4.73 4.547-.705-.734zm5.93 6.052c-.347-.348-.557-.694-.629-1.038a1.578 1.578 0 01.134-1.024c.166-.344.419-.685.758-1.025l1.955-1.952c.34-.34.675-.585 1.006-.738.34-.152.675-.19 1.006-.114.339.077.683.29 1.03.637.348.348.558.69.63 1.025a1.55 1.55 0 01-.122 1c-.148.334-.393.672-.732 1.01l-1.962 1.96c-.335.335-.674.58-1.018.737-.34.161-.681.21-1.025.146-.34-.068-.683-.276-1.03-.624zm.567-.566c.191.19.373.297.547.318a.843.843 0 00.529-.133c.178-.11.363-.26.554-.451l2.26-2.258a2.89 2.89 0 00.44-.541.757.757 0 00.12-.515c-.02-.175-.126-.357-.317-.548-.191-.191-.376-.3-.554-.325a.758.758 0 00-.515.12c-.17.102-.35.249-.541.44l-2.26 2.258a3.13 3.13 0 00-.453.553.844.844 0 00-.134.528c.025.178.133.363.324.554zm1.89 2.865l.526-.542c.091.096.183.173.278.231.098.063.209.09.332.085.127-.002.281-.05.462-.141.181-.092.404-.24.669-.443.264-.203.584-.473.961-.81l2.877-2.614 2.298 2.232-5.077 5.23-.73-.707 4.551-4.689-.943-.915-2.298 2.122c-.347.315-.67.59-.968.829a5.07 5.07 0 01-.838.553 2.058 2.058 0 01-.747.24 1.245 1.245 0 01-.683-.123c-.222-.107-.446-.286-.67-.538zm4.726 4.518l4.976-5.328.744.694-2.15 2.303 1.367 1.277 2.15-2.302.744.694-4.976 5.328-.743-.694 2.328-2.493-1.368-1.278-2.329 2.493-.743-.694zm4.479 4.062l4.894-5.403 2.095 1.897-.508.56-1.34-1.214-1.62 1.788 1.088.985-.484.533-1.087-.985-1.794 1.982 1.354 1.226-.49.54-2.107-1.909zm2.956 2.646l4.83-5.459.762.674-2.087 2.36 1.402 1.24 2.087-2.36.762.674-4.83 5.46-.762-.674 2.26-2.554-1.402-1.24-2.26 2.554-.762-.674zm4.586 3.996l4.746-5.534.683.586-3.287 3.833 4.906-2.444.554.475-4.747 5.533-.676-.58 3.34-3.894-4.945 2.517-.574-.492zm4.746 3.992l4.64-5.624 2.18 1.799-.482.583-1.395-1.151-1.535 1.86 1.131.934-.458.555-1.131-.933-1.701 2.062 1.409 1.162-.464.563-2.194-1.81zm7.517 6.067l4.509-5.728 3.154 2.483-4.509 5.728-.799-.629 4.058-5.155-1.556-1.225-4.058 5.156-.799-.63zm5.269 4.062l.456-.602c.102.084.203.15.303.195.106.05.22.064.34.043.127-.017.274-.083.442-.196.169-.113.372-.287.61-.521.237-.235.522-.542.854-.922l2.535-2.947 2.555 1.933-4.399 5.814-.81-.614 3.942-5.21-1.048-.793-2.021 2.387c-.306.355-.593.67-.859.942a5.08 5.08 0 01-.764.652 2.057 2.057 0 01-.713.33c-.228.053-.459.04-.692-.04-.234-.078-.478-.229-.731-.45zm5.262 4.023l5.539-4.986.793.577-3.027 6.812-.779-.566.81-1.681-1.2-.873-1.364 1.278-.772-.56zm2.673-1.228l.983.715 1.437-3.017-2.42 2.302zm2.152 4.674l4.197-5.961.831.585-1.813 2.576 1.53 1.078 1.814-2.576.832.585-4.197 5.962-.832-.586 1.964-2.79-1.53-1.077-1.964 2.79-.832-.586zm5.279 3.557l5.383-5.152.811.552-2.818 6.901-.796-.542.759-1.705-1.227-.836-1.325 1.32-.788-.538zm2.633-1.309l1.005.685 1.344-3.06-2.349 2.375zm5.107 6.428l3.943-6.131 3.376 2.171-3.944 6.132-.855-.55 3.55-5.519-1.666-1.07-3.55 5.517-.855-.55zm8.068 5.151c-.419-.258-.703-.546-.852-.864a1.577 1.577 0 01-.107-1.028c.082-.372.249-.763.5-1.171l1.451-2.352c.252-.409.522-.725.808-.95.295-.227.613-.342.952-.344.348-.004.731.123 1.15.382.419.258.702.542.85.851.147.31.185.643.112 1-.067.36-.226.745-.478 1.154l-1.455 2.36c-.25.403-.523.72-.82.952a1.64 1.64 0 01-.964.38c-.346.011-.728-.112-1.147-.37zm.42-.682c.23.142.432.203.606.184a.844.844 0 00.484-.252c.147-.149.292-.338.434-.568l1.677-2.719c.142-.23.243-.439.303-.628a.758.758 0 00-.002-.53c-.06-.164-.206-.317-.436-.458-.23-.142-.434-.205-.613-.188a.757.757 0 00-.474.236 2.897 2.897 0 00-.425.552l-1.677 2.72c-.142.23-.246.444-.312.643a.843.843 0 00-.008.544c.066.168.214.323.443.464zm5.8 4.275l3.662-6.304.879.511-1.582 2.724 1.619.94 1.582-2.724.879.511-3.661 6.304-.88-.51 1.714-2.95-1.619-.94-1.713 2.949-.88-.51zm5.884 3.303l3.542-6.372.786.437-2.453 4.413 4.318-3.376.637.354-3.542 6.371-.779-.432 2.493-4.484-4.341 3.456-.661-.367zm6.338 3.497l3.446-6.425 1.594.855c.386.207.654.443.805.708.159.262.22.554.184.875-.036.321-.154.67-.356 1.045a2.241 2.241 0 01-.654.782 1.47 1.47 0 01-.834.298c-.304.008-.63-.082-.979-.27l-.706-.378-1.604 2.99-.896-.48zm2.845-3.152l.412.221c.259.139.478.22.657.24a.63.63 0 00.479-.13c.143-.115.286-.304.427-.569.165-.306.267-.554.308-.744a.549.549 0 00-.095-.49c-.109-.14-.314-.29-.615-.452l-.421-.225-1.152 2.149zM.472 25.837l5.488-4.798.593.678-3.802 3.322 5.205-1.716.48.548-5.489 4.798-.586-.67 3.862-3.377L.97 26.406l-.497-.57zM5.21 31.11l5.376-4.924.687.75-2.324 2.127 1.265 1.38 2.323-2.127.687.75-5.377 4.924-.686-.75 2.515-2.304-1.264-1.38-2.516 2.303-.687-.75zm4.177 4.49l6.362-3.88.674.713-4.23 6.138-.662-.7 1.106-1.503-1.02-1.08-1.575 1.006-.655-.694zm2.854-.714l.834.883 1.968-2.7-2.802 1.817zm.396 5.821l.561-.547c.197.245.364.417.503.516.143.104.272.146.386.126a.575.575 0 00.34-.18c.116-.113.241-.26.375-.44l3.637-5.554.672.69-1.797 2.605-1.4 1.878 1.87-1.37 2.62-1.785.679.696-5.565 3.6a53.92 53.92 0 00-.662.43c-.184.13-.357.223-.519.28a.804.804 0 01-.478.038c-.16-.036-.34-.134-.537-.293a5.621 5.621 0 01-.684-.69zm6.546 5.087l2.375-2.385a4.882 4.882 0 01-.854-.66c-.294-.292-.496-.578-.607-.858a1.307 1.307 0 01-.034-.833c.085-.272.26-.542.527-.81l1.67-1.677.727.723-1.67 1.678a1.48 1.48 0 00-.336.478.69.69 0 00-.012.471c.055.157.17.322.345.496a3.5 3.5 0 00.306.266c.119.093.249.184.389.273l2.317-2.328.727.723-5.142 5.167-.728-.724zm2.537 2.256l5.062-5.246.732.706-2.187 2.267 1.347 1.3 2.187-2.267.732.707-5.062 5.245-.732-.706 2.369-2.454-1.348-1.3-2.368 2.454-.732-.706zm5.784 5.579c-.36-.337-.58-.675-.664-1.016a1.578 1.578 0 01.1-1.029c.153-.349.394-.698.723-1.049l1.887-2.017c.328-.35.655-.608.98-.771a1.548 1.548 0 011.002-.148c.342.065.692.265 1.052.602.359.336.58.67.663 1.003a1.55 1.55 0 01-.088 1.002c-.137.34-.37.685-.697 1.036l-1.895 2.024a3.543 3.543 0 01-.993.772 1.641 1.641 0 01-1.019.18c-.341-.057-.692-.253-1.051-.59zm.547-.585c.198.184.383.284.558.3a.844.844 0 00.523-.151 3.17 3.17 0 00.539-.47l2.183-2.333c.184-.197.325-.383.42-.556a.754.754 0 00.105-.519c-.027-.173-.14-.352-.337-.536-.197-.185-.385-.287-.564-.306a.757.757 0 00-.511.138c-.166.107-.342.26-.526.457L28.258 51.4a3.13 3.13 0 00-.433.568.844.844 0 00-.116.532c.03.177.145.358.342.543zm3.7 1.165l.49-.54 1.487 1.348-.49.54-1.487-1.349zm1.885 4.837l4.335-4.89-.923-.817.502-.566 2.579 2.286-.502.566-.895-.794-4.335 4.89-.76-.675zm3.443 2.92l4.752-5.528 2.143 1.842-.493.573-1.372-1.18-1.572 1.83 1.113.956-.47.546-1.112-.956-1.742 2.027 1.385 1.191-.475.553-2.157-1.854zm3.291 2.788l3.619-1.945 1.09-3.62.723.607-.807 2.683 2.427-1.323.724.608-3.458 1.738-1.175 3.89-.724-.607.856-2.866-2.551 1.443-.724-.608zm4.746 4.026l4.602-5.654.789.642-1.989 2.443 1.452 1.182 1.989-2.443.788.642-4.601 5.654-.789-.642 2.153-2.646-1.452-1.181-2.153 2.645-.789-.642zm4.67 3.739l4.514-5.724.707.557-3.127 3.965 4.802-2.644.572.452-4.515 5.724-.7-.552 3.178-4.028-4.838 2.718-.593-.468zm7.17 5.626l2.033-2.682a4.875 4.875 0 01-.935-.54c-.33-.25-.568-.505-.716-.768a1.307 1.307 0 01-.145-.822c.047-.28.185-.571.413-.872l1.43-1.886.818.62-1.43 1.886a1.479 1.479 0 00-.27.519.69.69 0 00.052.468c.076.148.212.296.408.445.1.076.214.15.34.223.13.076.27.149.421.218l1.985-2.617.818.62-4.405 5.808-.818-.62zm2.917 2.039l4.316-5.875 2.277 1.673-.447.609-1.458-1.07-1.428 1.943 1.182.869-.426.58-1.182-.868-1.582 2.154 1.472 1.081-.431.588-2.293-1.684zm5.479 4.13c-.42-.3-.683-.623-.791-.966a1.706 1.706 0 01.026-1.056c.125-.36.32-.723.581-1.089l1.5-2.091c.287-.4.58-.718.882-.952a1.56 1.56 0 01.976-.341c.353.001.739.153 1.158.454.37.265.614.543.73.834.122.293.139.6.05.92-.085.324-.255.664-.51 1.02l-.335.468-.783-.561.299-.417c.157-.22.283-.421.378-.604.102-.185.138-.359.107-.521-.03-.163-.161-.326-.39-.49-.234-.168-.442-.24-.622-.214-.178.02-.35.111-.517.272-.158.16-.325.361-.5.605l-1.683 2.348c-.213.297-.359.551-.436.762-.073.205-.08.385-.02.539.06.153.184.298.374.434.225.161.42.228.588.2a.9.9 0 00.482-.286c.15-.158.309-.354.477-.588l.314-.439.783.561-.315.44c-.258.36-.531.648-.818.863-.284.21-.589.316-.915.319-.323-.003-.68-.144-1.07-.424zm3.484 2.226l4.134-6.003.838.576-1.838 2.669.312.214 2.912-1.928.838.577-3.151 2.037-.835 4.069-.838-.577.8-3.765-.318-.22-2.016 2.929-.838-.577zm4.25 2.856l4.043-6.067.748.5-2.8 4.201 4.575-3.019.607.405-4.043 6.066-.741-.494 2.845-4.269-4.605 3.096-.63-.42zm4.909 3.271l4.064-6.054.84.541-2.123 5.667 4.294-4.267.832.536-3.837 6.2-.689-.443 2.8-4.492-3.904 3.78-.484-.313 1.839-5.11-2.936 4.403-.696-.448zm9.445 7.191l.404-.67c.252.186.457.31.617.371.164.064.3.072.405.024a.575.575 0 00.283-.26 3.67 3.67 0 00.251-.521l2.112-6.293.825.497-1.079 2.975-.878 2.171 1.463-1.798 2.082-2.391.832.502-4.472 4.891c-.203.221-.38.416-.53.584-.146.172-.29.306-.432.402a.8.8 0 01-.452.158c-.165.006-.363-.043-.594-.148a5.606 5.606 0 01-.837-.494zm6.695 2.889c-.446-.259-.74-.555-.88-.886a1.708 1.708 0 01-.073-1.054c.09-.37.25-.75.476-1.139l1.295-2.224a4.57 4.57 0 01.788-1.03c.282-.26.595-.404.939-.433.351-.031.75.083 1.196.343.394.229.663.483.806.76.149.282.194.586.136.913-.054.33-.19.684-.41 1.063l-.29.497-.833-.484.258-.444c.136-.233.242-.445.32-.637.084-.193.103-.37.057-.528-.046-.16-.191-.31-.435-.452-.249-.144-.462-.196-.64-.153-.174.037-.337.144-.488.32-.143.173-.29.39-.44.649l-1.454 2.496c-.184.317-.305.583-.362.8-.054.212-.044.391.03.538.074.148.212.28.415.398.238.139.44.187.603.143a.895.895 0 00.453-.33 5.51 5.51 0 00.42-.631l.271-.466.832.484-.272.467a3.902 3.902 0 01-.733.937 1.526 1.526 0 01-.88.404c-.322.028-.69-.079-1.105-.321zm3.231 1.605l.37-.659c.113.07.222.121.328.153a.55.55 0 00.342-.004c.123-.034.26-.119.412-.254a4.49 4.49 0 00.533-.598c.203-.265.444-.607.723-1.029l2.113-3.262 2.792 1.571-3.573 6.354-.886-.499 3.202-5.695-1.145-.644-1.68 2.638c-.255.393-.497.743-.724 1.049-.224.301-.447.55-.669.749a2.037 2.037 0 01-.661.423c-.22.084-.45.102-.692.055-.242-.047-.504-.163-.785-.348zm5.743 4.448l.371-.689c.26.174.472.288.634.341.167.056.303.057.406.004a.569.569 0 00.27-.274c.077-.142.152-.32.226-.533l1.801-6.389.848.457-.932 3.024-.77 2.212 1.372-1.868 1.963-2.49.856.46-4.227 5.105c-.193.23-.36.433-.502.609a2.248 2.248 0 01-.411.423.805.805 0 01-.444.18c-.165.014-.365-.026-.601-.119a5.579 5.579 0 01-.86-.453zm5.619 1.881l3.381-6.459 2.456 1.286-.351.669-1.555-.813-3.03 5.788-.901-.471zm3.123 1.557l4.666-5.811.875.442-1.893 7.209-.86-.433.53-1.789-1.326-.669-1.141 1.481-.851-.43zm2.441-1.641l1.084.547.934-3.209-2.018 2.662zm2.721 4.213l3.308-6.498.898.437-1.426 5.881 3.75-4.752.89.433-3.065 6.615-.736-.358 2.24-4.795-3.422 4.221-.518-.252 1.212-5.294-2.386 4.724-.745-.362z" fill="#627DAE"/></svg>