<svg width="50" height="125" fill="none" xmlns="http://www.w3.org/2000/svg"><path d="M0 1.717L7.2.582l.26 1.653c.052.326.06.613.027.862-.033.254-.11.473-.234.656a1.35 1.35 0 01-.512.445 2.509 2.509 0 01-.782.242c-.297.047-.56.049-.792.006a1.079 1.079 0 01-.56-.258 1.156 1.156 0 01-.331-.54c-.02.301-.095.553-.227.756a1.358 1.358 0 01-.543.486 2.602 2.602 0 01-.86.272 3.176 3.176 0 01-.86.027 1.68 1.68 0 01-.703-.236 1.52 1.52 0 01-.509-.512 2.2 2.2 0 01-.272-.804L0 1.717zm.878.89l.107.676c.07.45.222.734.453.85.237.12.59.143 1.058.07.303-.048.548-.13.736-.244a.861.861 0 00.402-.455c.08-.19.096-.432.05-.728L3.59 2.18l-2.712.428zm3.476-.547l.094.596c.045.284.119.5.221.648a.7.7 0 00.444.276c.188.037.425.034.71-.011.331-.053.563-.14.696-.265.132-.124.199-.296.2-.515a4.592 4.592 0 00-.069-.845l-.037-.24-2.259.356zM.984 7.502l7.183-1.246.174 1.002-2.989.519.05.283c.09.52.102.96.036 1.318a1.35 1.35 0 01-.498.864c-.272.223-.683.383-1.233.478a3.06 3.06 0 01-.98.033 1.539 1.539 0 01-.72-.304 1.73 1.73 0 01-.503-.635 3.854 3.854 0 01-.29-.982l-.23-1.33zm.892.878l.057.328c.052.301.128.541.225.719a.765.765 0 00.484.364c.217.06.52.055.911-.012.49-.085.823-.24.997-.466.174-.225.217-.591.129-1.1l-.054-.31-2.749.477zm-.141 3.45l7.183-1.246.173 1.002-7.182 1.246-.174-1.002zm.606 3.068l7.157-1.384.763 3.94-7.158 1.385-.193-.998 6.442-1.246-.376-1.944-6.442 1.246-.193-.999zm1.69 8.303c-.102-.481-.09-.886.036-1.213.126-.328.35-.59.67-.787a3.813 3.813 0 011.192-.448l2.702-.577c.47-.1.885-.125 1.245-.073.368.057.67.207.906.451.244.249.417.614.52 1.095.102.48.093.882-.03 1.202a1.55 1.55 0 01-.644.773c-.307.2-.695.35-1.164.451l-2.711.579c-.464.099-.883.12-1.256.066a1.641 1.641 0 01-.94-.435c-.248-.241-.423-.603-.526-1.084zm.784-.167c.056.264.151.452.286.564a.84.84 0 00.516.176c.21.004.446-.022.71-.079l3.125-.667c.264-.056.485-.128.662-.215a.757.757 0 00.382-.367c.077-.157.087-.368.03-.632-.055-.264-.152-.455-.287-.573a.758.758 0 00-.498-.18 2.894 2.894 0 00-.693.075l-3.125.667a3.12 3.12 0 00-.68.22.844.844 0 00-.4.37c-.075.163-.085.377-.028.64zm.029 3.432l.737-.169c.023.13.06.245.107.345.049.105.126.19.233.251.108.067.263.112.464.133.202.022.47.019.802-.008.332-.027.748-.08 1.247-.158l3.835-.631.717 3.123-7.104 1.632-.228-.992 6.368-1.462-.294-1.281-3.082.533c-.463.075-.884.132-1.263.17a5.15 5.15 0 01-1.005.009 2.057 2.057 0 01-.758-.205 1.245 1.245 0 01-.506-.475c-.128-.21-.218-.482-.27-.815zm1.513 6.361l7.072-1.769.247.987-3.056.764.454 1.816 3.056-.764.247.986-7.073 1.769-.246-.987 3.309-.827-.454-1.816-3.31.827-.246-.986zm1.553 5.844l7.044-1.877.727 2.73-.73.195-.466-1.748-2.33.622.377 1.417-.695.186-.378-1.418-2.583.688.47 1.766-.704.187-.732-2.748zm1.043 3.828l7.022-1.959.273.98-3.034.846.502 1.803 3.035-.846.273.98-7.022 1.958-.273-.98 3.285-.916-.503-1.803-3.285.916-.273-.98zm1.679 5.845l6.99-2.066.256.863-4.842 1.431 5.446.615.207.699-6.991 2.066-.253-.855 4.92-1.453-5.519-.575-.214-.725zm1.815 5.931l6.95-2.2.853 2.694-.72.228-.547-1.724-2.3.727.443 1.399-.686.217-.443-1.398-2.548.806.551 1.742-.695.22-.858-2.711zm3.013 9.178l6.898-2.359 1.299 3.798-6.898 2.359-.33-.962 6.209-2.123-.64-1.874-6.209 2.123-.329-.962zm2.216 6.273l.71-.258c.04.126.09.236.149.329a.556.556 0 00.262.22c.116.054.275.08.478.076a4.49 4.49 0 00.794-.107c.326-.068.733-.17 1.219-.309l3.728-1.097 1.095 3.012-6.852 2.49-.347-.956 6.141-2.232-.449-1.235-2.993.906c-.45.132-.861.24-1.233.324a5.07 5.07 0 01-.996.132c-.29.01-.55-.027-.777-.11a1.245 1.245 0 01-.56-.41c-.154-.193-.277-.451-.369-.775zm2.232 6.237l7.359-1.177.352.916-6.242 4.073-.347-.898 1.594-.971-.534-1.386-1.84.333-.342-.89zm2.91.421l.438 1.134 2.845-1.752-3.282.618zm-.732 5.093l6.762-2.724.38.943-2.922 1.177.7 1.737 2.921-1.177.38.943-6.762 2.724-.38-.943 3.164-1.275-.7-1.736-3.163 1.274-.38-.943zm2.498 5.854l7.32-1.4.38.905-6.116 4.261-.373-.887 1.563-1.019-.576-1.369-1.829.388-.37-.879zm2.922.333l.471 1.12 2.791-1.838-3.262.718zm.794 8.17l6.642-3.004 1.654 3.657-6.642 3.005-.419-.927 5.978-2.704-.816-1.804-5.978 2.704-.42-.927zm3.974 8.709c-.21-.445-.293-.841-.246-1.189.048-.348.204-.655.47-.92a3.8 3.8 0 011.056-.712l2.496-1.186c.434-.206.832-.326 1.195-.359.37-.03.7.046.985.229.295.186.547.501.759.945.21.445.294.837.25 1.177-.044.34-.194.64-.449.901-.252.266-.595.502-1.029.708l-2.503 1.19c-.428.203-.83.321-1.207.354a1.643 1.643 0 01-1.014-.205c-.297-.178-.551-.489-.763-.933zm.724-.344c.116.244.252.405.409.483a.84.84 0 00.542.051 3.11 3.11 0 00.673-.24l2.886-1.372c.244-.116.442-.236.595-.362a.76.76 0 00.287-.445c.038-.171 0-.379-.117-.623-.116-.244-.253-.407-.413-.491a.76.76 0 00-.526-.059 2.89 2.89 0 00-.657.233l-2.885 1.371c-.244.116-.448.24-.611.371a.843.843 0 00-.303.452c-.036.177.004.387.12.631zm2.546 6.74l6.499-3.303.46.907-2.808 1.427.848 1.669 2.809-1.427.46.907-6.499 3.302-.46-.906 3.04-1.546-.848-1.669-3.04 1.546-.461-.907zm3.144 5.969l6.436-3.424.423.795-4.457 2.371 5.459-.488.342.643-6.435 3.425-.419-.787 4.529-2.41-5.523.543-.355-.668zm3.422 6.38l6.383-3.521.873 1.584c.212.384.309.728.292 1.032-.01.306-.116.585-.321.835-.205.25-.494.478-.867.683a2.237 2.237 0 01-.974.301 1.463 1.463 0 01-.863-.202c-.259-.159-.484-.412-.675-.759l-.387-.701-2.97 1.639-.492-.891zm4.1-1.1l.226.41c.142.257.282.444.421.559a.633.633 0 00.473.15c.182-.018.404-.1.667-.245.305-.168.526-.32.663-.457a.547.547 0 00.186-.463c-.015-.177-.105-.415-.27-.714l-.23-.418-2.136 1.178z" fill="#627DAE"/></svg>