<svg width="3834" height="1791" viewBox="0 0 3834 1791" fill="none" xmlns="http://www.w3.org/2000/svg">
<path d="M2590 67.4152V1361.31V1362.9L2626.26 1389H2828.45L2847.13 1375.55H2893.29L2906.47 1385.84H2988.89L3014.16 1366.85H3557L3582.27 1385.84H3799.85L3832.81 1361.31V967.5L3799.85 900.5V777.5L3832.81 751V292L3683.93 175.5V52.5L3652.21 31.0291H3135.03L3114.16 16H2698.79L2677.91 31.0291H2640.55L2590 67.4152Z" fill="#112054" fill-opacity="0.68" stroke="#217AFF" stroke-opacity="0.4"/>
<path d="M1 81.474V1746.67V1749.14L37.4138 1790H240.448L259.207 1768.95H305.552L318.793 1785.05H401.552L426.931 1755.33H972.034L997.414 1785.05H1215.9L1249 1746.67V70.3315L1208.17 24.5232H548.31L527.345 1H110.241L89.2759 24.5232H51.7586L1 81.474Z" fill="#112054" fill-opacity="0.68" stroke="#217AFF" stroke-opacity="0.4"/>
<path d="M1298 81.474V1746.67V1749.14L1334.27 1790H1536.49L1555.17 1768.95H1601.33L1614.52 1785.05H1696.95L1722.22 1755.33H2265.14L2290.42 1785.05H2508.03L2541 1746.67V70.3315L2500.34 24.5232H1843.12L1822.24 1H1406.8L1385.92 24.5232H1348.56L1298 81.474Z" fill="#112054" fill-opacity="0.68" stroke="#217AFF" stroke-opacity="0.4"/>
</svg>
