<svg width="2529" height="389" viewBox="0 0 2529 389" fill="none" xmlns="http://www.w3.org/2000/svg">
<rect y="250" width="2529" height="2" fill="#B2CEF6"/>
<path d="M66.2905 329.342C64.1118 329.342 62.4145 328.886 61.1985 327.974C60.0078 327.062 59.1718 325.833 58.6905 324.288C58.2345 322.743 58.0065 321.02 58.0065 319.12V308.252C58.0065 306.175 58.2345 304.363 58.6905 302.818C59.1718 301.273 60.0078 300.082 61.1985 299.246C62.4145 298.385 64.1118 297.954 66.2905 297.954C68.2158 297.954 69.7358 298.309 70.8505 299.018C71.9905 299.727 72.8012 300.741 73.2825 302.058C73.7892 303.375 74.0425 304.959 74.0425 306.808V309.24H69.9765V307.074C69.9765 305.934 69.9132 304.933 69.7865 304.072C69.6852 303.185 69.3812 302.501 68.8745 302.02C68.3678 301.539 67.5192 301.298 66.3285 301.298C65.1125 301.298 64.2258 301.564 63.6685 302.096C63.1112 302.603 62.7438 303.337 62.5665 304.3C62.4145 305.237 62.3385 306.339 62.3385 307.606V319.804C62.3385 321.349 62.4652 322.578 62.7185 323.49C62.9718 324.377 63.3898 325.01 63.9725 325.39C64.5552 325.77 65.3405 325.96 66.3285 325.96C67.4938 325.96 68.3298 325.707 68.8365 325.2C69.3432 324.668 69.6598 323.946 69.7865 323.034C69.9132 322.122 69.9765 321.058 69.9765 319.842V317.562H74.0425V319.842C74.0425 321.717 73.8145 323.376 73.3585 324.82C72.9025 326.239 72.1172 327.353 71.0025 328.164C69.8878 328.949 68.3172 329.342 66.2905 329.342ZM78.8171 329L79.0451 307.036H82.0471L86.9111 320.526L91.8131 307.036H94.8151L95.0431 329H91.6231V315.89L87.5571 326.834H86.3031L82.2371 315.966V329H78.8171ZM106.226 329.304C104.605 329.304 103.326 328.975 102.388 328.316C101.451 327.657 100.78 326.72 100.374 325.504C99.9944 324.288 99.8044 322.857 99.8044 321.21V314.826C99.8044 313.179 99.9944 311.748 100.374 310.532C100.78 309.316 101.451 308.379 102.388 307.72C103.326 307.061 104.605 306.732 106.226 306.732C107.848 306.732 109.114 307.061 110.026 307.72C110.964 308.379 111.622 309.316 112.002 310.532C112.408 311.748 112.61 313.179 112.61 314.826V321.21C112.61 322.857 112.408 324.288 112.002 325.504C111.622 326.72 110.964 327.657 110.026 328.316C109.114 328.975 107.848 329.304 106.226 329.304ZM106.226 326.302C107.012 326.302 107.556 326.074 107.86 325.618C108.19 325.162 108.38 324.567 108.43 323.832C108.506 323.072 108.544 322.287 108.544 321.476V314.598C108.544 313.762 108.506 312.977 108.43 312.242C108.38 311.507 108.19 310.912 107.86 310.456C107.556 309.975 107.012 309.734 106.226 309.734C105.441 309.734 104.884 309.975 104.554 310.456C104.225 310.912 104.022 311.507 103.946 312.242C103.896 312.977 103.87 313.762 103.87 314.598V321.476C103.87 322.287 103.896 323.072 103.946 323.832C104.022 324.567 104.225 325.162 104.554 325.618C104.884 326.074 105.441 326.302 106.226 326.302ZM115.616 329.19V326.112C116.376 326.112 116.971 325.96 117.402 325.656C117.858 325.352 118.2 324.845 118.428 324.136C118.681 323.401 118.871 322.426 118.998 321.21C119.124 319.969 119.238 318.423 119.34 316.574L119.834 307.036H131.348V329H127.282V310.114H123.406L123.064 316.574C122.937 319.082 122.747 321.159 122.494 322.806C122.266 324.453 121.898 325.745 121.392 326.682C120.885 327.594 120.201 328.24 119.34 328.62C118.504 329 117.414 329.19 116.072 329.19H115.616ZM142.685 329.304C140.962 329.304 139.632 328.975 138.695 328.316C137.758 327.632 137.099 326.644 136.719 325.352C136.364 324.035 136.187 322.426 136.187 320.526V315.51C136.187 313.559 136.377 311.938 136.757 310.646C137.137 309.354 137.796 308.379 138.733 307.72C139.696 307.061 141.013 306.732 142.685 306.732C144.534 306.732 145.89 307.112 146.751 307.872C147.638 308.632 148.22 309.734 148.499 311.178C148.778 312.597 148.917 314.307 148.917 316.308V318.094H140.253V322.502C140.253 323.389 140.329 324.111 140.481 324.668C140.658 325.225 140.924 325.643 141.279 325.922C141.659 326.175 142.14 326.302 142.723 326.302C143.331 326.302 143.787 326.163 144.091 325.884C144.42 325.58 144.636 325.162 144.737 324.63C144.864 324.073 144.927 323.427 144.927 322.692V321.362H148.879V322.198C148.879 324.402 148.41 326.137 147.473 327.404C146.536 328.671 144.94 329.304 142.685 329.304ZM140.253 315.89H144.927V313.914C144.927 313.002 144.876 312.242 144.775 311.634C144.674 311.001 144.458 310.532 144.129 310.228C143.825 309.899 143.331 309.734 142.647 309.734C141.988 309.734 141.482 309.886 141.127 310.19C140.798 310.494 140.57 311.013 140.443 311.748C140.316 312.457 140.253 313.445 140.253 314.712V315.89ZM153.739 329V307.036H157.805V316.27H163.011V307.036H167.077V329H163.011V319.234H157.805V329H153.739ZM178.325 329.304C176.526 329.304 175.158 328.949 174.221 328.24C173.309 327.505 172.688 326.479 172.359 325.162C172.055 323.845 171.903 322.312 171.903 320.564V315.51C171.903 313.661 172.067 312.09 172.397 310.798C172.726 309.481 173.347 308.48 174.259 307.796C175.196 307.087 176.551 306.732 178.325 306.732C179.921 306.732 181.149 306.998 182.011 307.53C182.897 308.037 183.505 308.809 183.835 309.848C184.164 310.861 184.329 312.128 184.329 313.648V314.94H180.643V313.61C180.643 312.647 180.579 311.887 180.453 311.33C180.326 310.773 180.098 310.367 179.769 310.114C179.439 309.861 178.971 309.734 178.363 309.734C177.704 309.734 177.197 309.886 176.843 310.19C176.488 310.494 176.247 311.013 176.121 311.748C176.019 312.457 175.969 313.433 175.969 314.674V321.59C175.969 323.465 176.146 324.719 176.501 325.352C176.855 325.985 177.489 326.302 178.401 326.302C179.085 326.302 179.579 326.15 179.883 325.846C180.212 325.517 180.415 325.061 180.491 324.478C180.592 323.895 180.643 323.237 180.643 322.502V320.716H184.329V322.236C184.329 323.705 184.151 324.972 183.797 326.036C183.467 327.1 182.859 327.911 181.973 328.468C181.111 329.025 179.895 329.304 178.325 329.304ZM189.084 329V307.036H193.15V316.308H194.29L198.432 307.036H202.612L198.014 317.676L202.688 329H198.432L194.29 318.74H193.15V329H189.084ZM205.995 329V307.036H209.415V321.818L216.027 307.036H219.219V329H215.875V314.104L209.301 329H205.995ZM224.502 329V307.036H227.922V321.818L234.534 307.036H237.726V329H234.382V314.104L227.808 329H224.502ZM231.228 304.642C229.404 304.642 228.112 304.148 227.352 303.16C226.618 302.172 226.25 300.943 226.25 299.474H228.606C228.632 300.386 228.834 301.095 229.214 301.602C229.62 302.083 230.291 302.324 231.228 302.324C232.191 302.324 232.862 302.071 233.242 301.564C233.648 301.057 233.85 300.361 233.85 299.474H236.244C236.244 300.943 235.864 302.172 235.104 303.16C234.37 304.148 233.078 304.642 231.228 304.642ZM94.4294 385.22V376.784H94.0494C93.2134 376.784 92.352 376.683 91.4654 376.48C90.5787 376.252 89.7554 375.847 88.9954 375.264C88.2354 374.681 87.6147 373.833 87.1334 372.718C86.6774 371.603 86.4494 370.159 86.4494 368.386V364.434C86.4494 363.015 86.6394 361.799 87.0194 360.786C87.4247 359.773 87.9694 358.949 88.6534 358.316C89.3627 357.657 90.1607 357.176 91.0474 356.872C91.9594 356.568 92.922 356.416 93.9354 356.416H94.4294V347.22H98.1914V356.416H98.8374C100.18 356.416 101.409 356.695 102.523 357.252C103.638 357.784 104.525 358.645 105.183 359.836C105.867 361.001 106.209 362.534 106.209 364.434V368.386C106.209 370.159 105.981 371.603 105.525 372.718C105.069 373.833 104.461 374.681 103.701 375.264C102.967 375.847 102.156 376.252 101.269 376.48C100.408 376.683 99.5594 376.784 98.7234 376.784H98.1914V385.22H94.4294ZM94.1634 373.896H94.4294V359.076H94.0494C93.264 359.076 92.58 359.203 91.9974 359.456C91.4147 359.709 90.9587 360.178 90.6294 360.862C90.3 361.546 90.1354 362.534 90.1354 363.826V368.348C90.1354 369.817 90.2874 370.957 90.5914 371.768C90.8954 372.553 91.3514 373.111 91.9594 373.44C92.5674 373.744 93.302 373.896 94.1634 373.896ZM98.1914 373.896H98.4194C99.306 373.896 100.053 373.744 100.661 373.44C101.269 373.111 101.725 372.553 102.029 371.768C102.359 370.957 102.523 369.817 102.523 368.348V363.826C102.523 362.534 102.359 361.546 102.029 360.862C101.7 360.178 101.231 359.709 100.623 359.456C100.041 359.203 99.344 359.076 98.5334 359.076H98.1914V373.896ZM111.052 378V356.036H114.472V370.818L121.084 356.036H124.276V378H120.932V363.104L114.358 378H111.052ZM128.153 378.19V375.112C128.913 375.112 129.509 374.96 129.939 374.656C130.395 374.352 130.737 373.845 130.965 373.136C131.219 372.401 131.409 371.426 131.535 370.21C131.662 368.969 131.776 367.423 131.877 365.574L132.371 356.036H143.885V378H139.819V359.114H135.943L135.601 365.574C135.475 368.082 135.285 370.159 135.031 371.806C134.803 373.453 134.436 374.745 133.929 375.682C133.423 376.594 132.739 377.24 131.877 377.62C131.041 378 129.952 378.19 128.609 378.19H128.153ZM149.143 378V356.036H152.563V370.818L159.175 356.036H162.367V378H159.023V363.104L152.449 378H149.143ZM171.602 378.304C170.741 378.304 169.981 378.063 169.322 377.582C168.663 377.075 168.144 376.442 167.764 375.682C167.384 374.897 167.194 374.073 167.194 373.212C167.194 371.844 167.422 370.691 167.878 369.754C168.334 368.817 168.955 368.031 169.74 367.398C170.551 366.739 171.475 366.169 172.514 365.688C173.578 365.207 174.693 364.738 175.858 364.282V362.724C175.858 361.837 175.807 361.103 175.706 360.52C175.605 359.937 175.389 359.507 175.06 359.228C174.756 358.924 174.287 358.772 173.654 358.772C173.097 358.772 172.641 358.899 172.286 359.152C171.957 359.405 171.716 359.773 171.564 360.254C171.412 360.71 171.336 361.255 171.336 361.888V362.99L167.308 362.838C167.359 360.406 167.916 358.62 168.98 357.48C170.044 356.315 171.691 355.732 173.92 355.732C176.099 355.732 177.644 356.327 178.556 357.518C179.468 358.709 179.924 360.431 179.924 362.686V372.718C179.924 373.402 179.937 374.061 179.962 374.694C180.013 375.327 180.063 375.923 180.114 376.48C180.19 377.012 180.253 377.519 180.304 378H176.58C176.504 377.595 176.403 377.088 176.276 376.48C176.175 375.847 176.099 375.277 176.048 374.77C175.795 375.631 175.301 376.442 174.566 377.202C173.857 377.937 172.869 378.304 171.602 378.304ZM173.198 374.808C173.603 374.808 173.983 374.694 174.338 374.466C174.693 374.238 175.009 373.985 175.288 373.706C175.567 373.402 175.757 373.161 175.858 372.984V366.752C175.225 367.107 174.629 367.461 174.072 367.816C173.515 368.171 173.021 368.551 172.59 368.956C172.185 369.336 171.855 369.779 171.602 370.286C171.374 370.767 171.26 371.325 171.26 371.958C171.26 372.845 171.425 373.541 171.754 374.048C172.083 374.555 172.565 374.808 173.198 374.808ZM183.564 378.19V375.112C184.324 375.112 184.919 374.96 185.35 374.656C185.806 374.352 186.148 373.845 186.376 373.136C186.629 372.401 186.819 371.426 186.946 370.21C187.072 368.969 187.186 367.423 187.288 365.574L187.782 356.036H199.296V378H195.23V359.114H191.354L191.012 365.574C190.885 368.082 190.695 370.159 190.442 371.806C190.214 373.453 189.846 374.745 189.34 375.682C188.833 376.594 188.149 377.24 187.288 377.62C186.452 378 185.362 378.19 184.02 378.19H183.564Z" fill="white"/>
<path d="M118.867 193V214H114.967V196.27H110.527V193H118.867Z" fill="white"/>
<rect width="64" height="16" transform="matrix(-1 0 0 1 149 235)" fill="#FFDD85"/>
<path d="M173.32 214V211.39L181.66 203.47C182.36 202.81 182.88 202.23 183.22 201.73C183.56 201.23 183.78 200.77 183.88 200.35C184 199.91 184.06 199.5 184.06 199.12C184.06 198.16 183.73 197.42 183.07 196.9C182.41 196.36 181.44 196.09 180.16 196.09C179.14 196.09 178.21 196.27 177.37 196.63C176.55 196.99 175.84 197.54 175.24 198.28L172.51 196.18C173.33 195.08 174.43 194.23 175.81 193.63C177.21 193.01 178.77 192.7 180.49 192.7C182.01 192.7 183.33 192.95 184.45 193.45C185.59 193.93 186.46 194.62 187.06 195.52C187.68 196.42 187.99 197.49 187.99 198.73C187.99 199.41 187.9 200.09 187.72 200.77C187.54 201.43 187.2 202.13 186.7 202.87C186.2 203.61 185.47 204.44 184.51 205.36L177.34 212.17L176.53 210.7H188.8V214H173.32Z" fill="white"/>
<rect width="64" height="32" transform="matrix(-1 0 0 1 213 219)" fill="#FB9B2B"/>
<rect x="137.266" y="251.344" width="14.9333" height="14.9333" transform="rotate(-45 137.266 251.344)" fill="white"/>
<path d="M403.752 329V301.412H398.546V298.22H413.1V301.412H408.046V329H403.752ZM416.523 334.51V331.394C417.511 331.394 418.296 331.343 418.879 331.242C419.462 331.166 419.88 331.001 420.133 330.748C420.386 330.52 420.513 330.191 420.513 329.76C420.513 329.532 420.424 329.025 420.247 328.24C420.07 327.455 419.88 326.619 419.677 325.732L415.269 307.036H419.373L422.337 323.452L425.187 307.036H429.291L424.047 330.216C423.819 331.28 423.401 332.116 422.793 332.724C422.185 333.357 421.4 333.813 420.437 334.092C419.5 334.371 418.36 334.51 417.017 334.51H416.523ZM430.626 329.19V326.112C431.386 326.112 431.982 325.96 432.412 325.656C432.868 325.352 433.21 324.845 433.438 324.136C433.692 323.401 433.882 322.426 434.008 321.21C434.135 319.969 434.249 318.423 434.35 316.574L434.844 307.036H446.358V329H442.292V310.114H438.416L438.074 316.574C437.948 319.082 437.758 321.159 437.504 322.806C437.276 324.453 436.909 325.745 436.402 326.682C435.896 327.594 435.212 328.24 434.35 328.62C433.514 329 432.425 329.19 431.082 329.19H430.626ZM451.616 329V307.036H455.682V316.118C455.732 316.118 455.796 316.118 455.872 316.118C455.973 316.118 456.062 316.118 456.138 316.118C456.214 316.118 456.277 316.118 456.328 316.118C457.822 316.143 459.089 316.257 460.128 316.46C461.192 316.637 462.053 316.967 462.712 317.448C463.37 317.904 463.852 318.55 464.156 319.386C464.46 320.197 464.612 321.248 464.612 322.54C464.612 323.731 464.46 324.744 464.156 325.58C463.852 326.391 463.358 327.049 462.674 327.556C461.99 328.063 461.09 328.43 459.976 328.658C458.861 328.886 457.506 329 455.91 329H451.616ZM455.682 326.606H455.91C457.202 326.606 458.215 326.492 458.95 326.264C459.684 326.036 460.204 325.631 460.508 325.048C460.812 324.44 460.964 323.591 460.964 322.502C460.964 321.514 460.824 320.741 460.546 320.184C460.292 319.601 459.811 319.183 459.102 318.93C458.418 318.651 457.417 318.512 456.1 318.512C456.074 318.512 456.011 318.512 455.91 318.512C455.808 318.512 455.732 318.512 455.682 318.512V326.606ZM474.531 329.304C472.733 329.304 471.365 328.949 470.427 328.24C469.515 327.505 468.895 326.479 468.565 325.162C468.261 323.845 468.109 322.312 468.109 320.564V315.51C468.109 313.661 468.274 312.09 468.603 310.798C468.933 309.481 469.553 308.48 470.465 307.796C471.403 307.087 472.758 306.732 474.531 306.732C476.127 306.732 477.356 306.998 478.217 307.53C479.104 308.037 479.712 308.809 480.041 309.848C480.371 310.861 480.535 312.128 480.535 313.648V314.94H476.849V313.61C476.849 312.647 476.786 311.887 476.659 311.33C476.533 310.773 476.305 310.367 475.975 310.114C475.646 309.861 475.177 309.734 474.569 309.734C473.911 309.734 473.404 309.886 473.049 310.19C472.695 310.494 472.454 311.013 472.327 311.748C472.226 312.457 472.175 313.433 472.175 314.674V321.59C472.175 323.465 472.353 324.719 472.707 325.352C473.062 325.985 473.695 326.302 474.607 326.302C475.291 326.302 475.785 326.15 476.089 325.846C476.419 325.517 476.621 325.061 476.697 324.478C476.799 323.895 476.849 323.237 476.849 322.502V320.716H480.535V322.236C480.535 323.705 480.358 324.972 480.003 326.036C479.674 327.1 479.066 327.911 478.179 328.468C477.318 329.025 476.102 329.304 474.531 329.304ZM485.29 329V307.036H489.356V316.308H490.496L494.638 307.036H498.818L494.22 317.676L498.894 329H494.638L490.496 318.74H489.356V329H485.29ZM502.202 329V307.036H505.622V321.818L512.234 307.036H515.426V329H512.082V314.104L505.508 329H502.202ZM520.709 329V307.036H524.129V321.818L530.741 307.036H533.933V329H530.589V314.104L524.015 329H520.709ZM527.435 304.642C525.611 304.642 524.319 304.148 523.559 303.16C522.824 302.172 522.457 300.943 522.457 299.474H524.813C524.838 300.386 525.041 301.095 525.421 301.602C525.826 302.083 526.498 302.324 527.435 302.324C528.398 302.324 529.069 302.071 529.449 301.564C529.854 301.057 530.057 300.361 530.057 299.474H532.451C532.451 300.943 532.071 302.172 531.311 303.16C530.576 304.148 529.284 304.642 527.435 304.642ZM418.341 385.22V376.784H417.961C417.125 376.784 416.264 376.683 415.377 376.48C414.49 376.252 413.667 375.847 412.907 375.264C412.147 374.681 411.526 373.833 411.045 372.718C410.589 371.603 410.361 370.159 410.361 368.386V364.434C410.361 363.015 410.551 361.799 410.931 360.786C411.336 359.773 411.881 358.949 412.565 358.316C413.274 357.657 414.072 357.176 414.959 356.872C415.871 356.568 416.834 356.416 417.847 356.416H418.341V347.22H422.103V356.416H422.749C424.092 356.416 425.32 356.695 426.435 357.252C427.55 357.784 428.436 358.645 429.095 359.836C429.779 361.001 430.121 362.534 430.121 364.434V368.386C430.121 370.159 429.893 371.603 429.437 372.718C428.981 373.833 428.373 374.681 427.613 375.264C426.878 375.847 426.068 376.252 425.181 376.48C424.32 376.683 423.471 376.784 422.635 376.784H422.103V385.22H418.341ZM418.075 373.896H418.341V359.076H417.961C417.176 359.076 416.492 359.203 415.909 359.456C415.326 359.709 414.87 360.178 414.541 360.862C414.212 361.546 414.047 362.534 414.047 363.826V368.348C414.047 369.817 414.199 370.957 414.503 371.768C414.807 372.553 415.263 373.111 415.871 373.44C416.479 373.744 417.214 373.896 418.075 373.896ZM422.103 373.896H422.331C423.218 373.896 423.965 373.744 424.573 373.44C425.181 373.111 425.637 372.553 425.941 371.768C426.27 370.957 426.435 369.817 426.435 368.348V363.826C426.435 362.534 426.27 361.546 425.941 360.862C425.612 360.178 425.143 359.709 424.535 359.456C423.952 359.203 423.256 359.076 422.445 359.076H422.103V373.896ZM434.964 378V356.036H438.384V370.818L444.996 356.036H448.188V378H444.844V363.104L438.27 378H434.964ZM452.065 378.19V375.112C452.825 375.112 453.421 374.96 453.851 374.656C454.307 374.352 454.649 373.845 454.877 373.136C455.131 372.401 455.321 371.426 455.447 370.21C455.574 368.969 455.688 367.423 455.789 365.574L456.283 356.036H467.797V378H463.731V359.114H459.855L459.513 365.574C459.387 368.082 459.197 370.159 458.943 371.806C458.715 373.453 458.348 374.745 457.841 375.682C457.335 376.594 456.651 377.24 455.789 377.62C454.953 378 453.864 378.19 452.521 378.19H452.065ZM473.055 378V356.036H476.475V370.818L483.087 356.036H486.279V378H482.935V363.104L476.361 378H473.055ZM495.514 378.304C494.652 378.304 493.892 378.063 493.234 377.582C492.575 377.075 492.056 376.442 491.676 375.682C491.296 374.897 491.106 374.073 491.106 373.212C491.106 371.844 491.334 370.691 491.79 369.754C492.246 368.817 492.866 368.031 493.652 367.398C494.462 366.739 495.387 366.169 496.426 365.688C497.49 365.207 498.604 364.738 499.77 364.282V362.724C499.77 361.837 499.719 361.103 499.618 360.52C499.516 359.937 499.301 359.507 498.972 359.228C498.668 358.924 498.199 358.772 497.566 358.772C497.008 358.772 496.552 358.899 496.198 359.152C495.868 359.405 495.628 359.773 495.476 360.254C495.324 360.71 495.248 361.255 495.248 361.888V362.99L491.22 362.838C491.27 360.406 491.828 358.62 492.892 357.48C493.956 356.315 495.602 355.732 497.832 355.732C500.01 355.732 501.556 356.327 502.468 357.518C503.38 358.709 503.836 360.431 503.836 362.686V372.718C503.836 373.402 503.848 374.061 503.874 374.694C503.924 375.327 503.975 375.923 504.026 376.48C504.102 377.012 504.165 377.519 504.216 378H500.492C500.416 377.595 500.314 377.088 500.188 376.48C500.086 375.847 500.01 375.277 499.96 374.77C499.706 375.631 499.212 376.442 498.478 377.202C497.768 377.937 496.78 378.304 495.514 378.304ZM497.11 374.808C497.515 374.808 497.895 374.694 498.25 374.466C498.604 374.238 498.921 373.985 499.2 373.706C499.478 373.402 499.668 373.161 499.77 372.984V366.752C499.136 367.107 498.541 367.461 497.984 367.816C497.426 368.171 496.932 368.551 496.502 368.956C496.096 369.336 495.767 369.779 495.514 370.286C495.286 370.767 495.172 371.325 495.172 371.958C495.172 372.845 495.336 373.541 495.666 374.048C495.995 374.555 496.476 374.808 497.11 374.808ZM507.475 378.19V375.112C508.235 375.112 508.831 374.96 509.261 374.656C509.717 374.352 510.059 373.845 510.287 373.136C510.541 372.401 510.731 371.426 510.857 370.21C510.984 368.969 511.098 367.423 511.199 365.574L511.693 356.036H523.207V378H519.141V359.114H515.265L514.923 365.574C514.797 368.082 514.607 370.159 514.353 371.806C514.125 373.453 513.758 374.745 513.251 375.682C512.745 376.594 512.061 377.24 511.199 377.62C510.363 378 509.274 378.19 507.931 378.19H507.475Z" fill="white"/>
<path d="M429.137 -1.43051e-06V21H425.237V3.27H420.797V-1.43051e-06H429.137ZM442.242 8.67C444.182 8.91 445.662 9.57 446.682 10.65C447.702 11.73 448.212 13.08 448.212 14.7C448.212 15.92 447.902 17.03 447.282 18.03C446.662 19.03 445.722 19.83 444.462 20.43C443.222 21.01 441.702 21.3 439.902 21.3C438.402 21.3 436.952 21.09 435.552 20.67C434.172 20.23 432.992 19.63 432.012 18.87L433.692 15.84C434.452 16.48 435.372 16.99 436.452 17.37C437.552 17.73 438.682 17.91 439.842 17.91C441.222 17.91 442.302 17.63 443.082 17.07C443.882 16.49 444.282 15.71 444.282 14.73C444.282 13.75 443.902 12.99 443.142 12.45C442.402 11.89 441.262 11.61 439.722 11.61H437.802V8.94L442.572 3.27H433.032V-1.43051e-06H447.342V2.61L442.242 8.67Z" fill="white"/>
<rect width="64" height="208" transform="matrix(-1 0 0 1 467 42)" fill="#FFDD85"/>
<path d="M498.987 225.3C497.327 225.3 495.827 224.88 494.487 224.04C493.167 223.2 492.127 221.98 491.367 220.38C490.607 218.76 490.227 216.8 490.227 214.5C490.227 212.2 490.607 210.25 491.367 208.65C492.127 207.03 493.167 205.8 494.487 204.96C495.827 204.12 497.327 203.7 498.987 203.7C500.667 203.7 502.167 204.12 503.487 204.96C504.807 205.8 505.847 207.03 506.607 208.65C507.387 210.25 507.777 212.2 507.777 214.5C507.777 216.8 507.387 218.76 506.607 220.38C505.847 221.98 504.807 223.2 503.487 224.04C502.167 224.88 500.667 225.3 498.987 225.3ZM498.987 221.91C499.967 221.91 500.817 221.65 501.537 221.13C502.257 220.59 502.817 219.77 503.217 218.67C503.637 217.57 503.847 216.18 503.847 214.5C503.847 212.8 503.637 211.41 503.217 210.33C502.817 209.23 502.257 208.42 501.537 207.9C500.817 207.36 499.967 207.09 498.987 207.09C498.047 207.09 497.207 207.36 496.467 207.9C495.747 208.42 495.177 209.23 494.757 210.33C494.357 211.41 494.157 212.8 494.157 214.5C494.157 216.18 494.357 217.57 494.757 218.67C495.177 219.77 495.747 220.59 496.467 221.13C497.207 221.65 498.047 221.91 498.987 221.91Z" fill="white"/>
<rect width="64" height="4" transform="matrix(-1 0 0 1 531 246)" fill="#FB9B2B"/>
<rect x="456.266" y="251.344" width="14.9333" height="14.9333" transform="rotate(-45 456.266 251.344)" fill="white"/>
<path d="M693.279 329V298.22H710.227V329H705.933V301.298H697.573V329H693.279ZM714.151 329L718.293 319.69C717.584 319.411 717.001 318.993 716.545 318.436C716.114 317.879 715.798 317.195 715.595 316.384C715.392 315.573 715.291 314.661 715.291 313.648C715.291 312.483 715.443 311.482 715.747 310.646C716.051 309.81 716.532 309.126 717.191 308.594C717.85 308.062 718.724 307.669 719.813 307.416C720.902 307.163 722.245 307.036 723.841 307.036H728.097V329H724.069V320.336C723.664 320.336 723.322 320.336 723.043 320.336C722.764 320.311 722.46 320.285 722.131 320.26L718.521 329H714.151ZM723.613 317.98C723.664 317.98 723.74 317.98 723.841 317.98C723.968 317.98 724.044 317.98 724.069 317.98V309.354C724.044 309.354 723.968 309.354 723.841 309.354C723.74 309.354 723.676 309.354 723.651 309.354C722.46 309.354 721.51 309.506 720.801 309.81C720.117 310.089 719.636 310.545 719.357 311.178C719.078 311.786 718.939 312.609 718.939 313.648C718.939 315.092 719.256 316.169 719.889 316.878C720.548 317.587 721.789 317.955 723.613 317.98ZM735.835 329V310.076H731.731V307.036H744.043V310.076H739.901V329H735.835ZM747.642 329V307.036H751.062V321.818L757.674 307.036H760.866V329H757.522V314.104L750.948 329H747.642ZM766.149 329V307.036H775.003V309.962H770.215V329H766.149ZM784.279 329.304C782.657 329.304 781.378 328.975 780.441 328.316C779.503 327.657 778.832 326.72 778.427 325.504C778.047 324.288 777.857 322.857 777.857 321.21V314.826C777.857 313.179 778.047 311.748 778.427 310.532C778.832 309.316 779.503 308.379 780.441 307.72C781.378 307.061 782.657 306.732 784.279 306.732C785.9 306.732 787.167 307.061 788.079 307.72C789.016 308.379 789.675 309.316 790.055 310.532C790.46 311.748 790.663 313.179 790.663 314.826V321.21C790.663 322.857 790.46 324.288 790.055 325.504C789.675 326.72 789.016 327.657 788.079 328.316C787.167 328.975 785.9 329.304 784.279 329.304ZM784.279 326.302C785.064 326.302 785.609 326.074 785.913 325.618C786.242 325.162 786.432 324.567 786.483 323.832C786.559 323.072 786.597 322.287 786.597 321.476V314.598C786.597 313.762 786.559 312.977 786.483 312.242C786.432 311.507 786.242 310.912 785.913 310.456C785.609 309.975 785.064 309.734 784.279 309.734C783.493 309.734 782.936 309.975 782.607 310.456C782.277 310.912 782.075 311.507 781.999 312.242C781.948 312.977 781.923 313.762 781.923 314.598V321.476C781.923 322.287 781.948 323.072 781.999 323.832C782.075 324.567 782.277 325.162 782.607 325.618C782.936 326.074 783.493 326.302 784.279 326.302ZM795.519 336.22V307.036H799.585V308.784C800.066 308.227 800.649 307.745 801.333 307.34C802.017 306.935 802.828 306.732 803.765 306.732C804.905 306.732 805.804 307.036 806.463 307.644C807.147 308.227 807.654 308.974 807.983 309.886C808.312 310.773 808.528 311.685 808.629 312.622C808.73 313.534 808.781 314.319 808.781 314.978V320.298C808.781 321.843 808.629 323.313 808.325 324.706C808.021 326.074 807.464 327.189 806.653 328.05C805.868 328.886 804.753 329.304 803.309 329.304C802.524 329.304 801.827 329.114 801.219 328.734C800.611 328.329 800.066 327.873 799.585 327.366V336.22H795.519ZM802.511 326.112C803.22 326.112 803.727 325.859 804.031 325.352C804.335 324.82 804.525 324.111 804.601 323.224C804.677 322.337 804.715 321.362 804.715 320.298V314.978C804.715 314.066 804.664 313.23 804.563 312.47C804.462 311.685 804.246 311.064 803.917 310.608C803.588 310.152 803.068 309.924 802.359 309.924C801.827 309.924 801.32 310.038 800.839 310.266C800.358 310.494 799.94 310.76 799.585 311.064V325.124C799.965 325.403 800.396 325.643 800.877 325.846C801.358 326.023 801.903 326.112 802.511 326.112ZM819.622 329.304C817.823 329.304 816.455 328.949 815.518 328.24C814.606 327.505 813.985 326.479 813.656 325.162C813.352 323.845 813.2 322.312 813.2 320.564V315.51C813.2 313.661 813.365 312.09 813.694 310.798C814.023 309.481 814.644 308.48 815.556 307.796C816.493 307.087 817.849 306.732 819.622 306.732C821.218 306.732 822.447 306.998 823.308 307.53C824.195 308.037 824.803 308.809 825.132 309.848C825.461 310.861 825.626 312.128 825.626 313.648V314.94H821.94V313.61C821.94 312.647 821.877 311.887 821.75 311.33C821.623 310.773 821.395 310.367 821.066 310.114C820.737 309.861 820.268 309.734 819.66 309.734C819.001 309.734 818.495 309.886 818.14 310.19C817.785 310.494 817.545 311.013 817.418 311.748C817.317 312.457 817.266 313.433 817.266 314.674V321.59C817.266 323.465 817.443 324.719 817.798 325.352C818.153 325.985 818.786 326.302 819.698 326.302C820.382 326.302 820.876 326.15 821.18 325.846C821.509 325.517 821.712 325.061 821.788 324.478C821.889 323.895 821.94 323.237 821.94 322.502V320.716H825.626V322.236C825.626 323.705 825.449 324.972 825.094 326.036C824.765 327.1 824.157 327.911 823.27 328.468C822.409 329.025 821.193 329.304 819.622 329.304ZM830.381 329V307.036H834.447V316.308H835.587L839.729 307.036H843.909L839.311 317.676L843.985 329H839.729L835.587 318.74H834.447V329H830.381ZM847.293 329V307.036H850.713V321.818L857.325 307.036H860.517V329H857.173V314.104L850.599 329H847.293ZM865.8 329V307.036H869.22V321.818L875.832 307.036H879.024V329H875.68V314.104L869.106 329H865.8ZM872.526 304.642C870.702 304.642 869.41 304.148 868.65 303.16C867.915 302.172 867.548 300.943 867.548 299.474H869.904C869.929 300.386 870.132 301.095 870.512 301.602C870.917 302.083 871.589 302.324 872.526 302.324C873.489 302.324 874.16 302.071 874.54 301.564C874.945 301.057 875.148 300.361 875.148 299.474H877.542C877.542 300.943 877.162 302.172 876.402 303.16C875.667 304.148 874.375 304.642 872.526 304.642ZM737.341 385.22V376.784H736.961C736.125 376.784 735.264 376.683 734.377 376.48C733.49 376.252 732.667 375.847 731.907 375.264C731.147 374.681 730.526 373.833 730.045 372.718C729.589 371.603 729.361 370.159 729.361 368.386V364.434C729.361 363.015 729.551 361.799 729.931 360.786C730.336 359.773 730.881 358.949 731.565 358.316C732.274 357.657 733.072 357.176 733.959 356.872C734.871 356.568 735.834 356.416 736.847 356.416H737.341V347.22H741.103V356.416H741.749C743.092 356.416 744.32 356.695 745.435 357.252C746.55 357.784 747.436 358.645 748.095 359.836C748.779 361.001 749.121 362.534 749.121 364.434V368.386C749.121 370.159 748.893 371.603 748.437 372.718C747.981 373.833 747.373 374.681 746.613 375.264C745.878 375.847 745.068 376.252 744.181 376.48C743.32 376.683 742.471 376.784 741.635 376.784H741.103V385.22H737.341ZM737.075 373.896H737.341V359.076H736.961C736.176 359.076 735.492 359.203 734.909 359.456C734.326 359.709 733.87 360.178 733.541 360.862C733.212 361.546 733.047 362.534 733.047 363.826V368.348C733.047 369.817 733.199 370.957 733.503 371.768C733.807 372.553 734.263 373.111 734.871 373.44C735.479 373.744 736.214 373.896 737.075 373.896ZM741.103 373.896H741.331C742.218 373.896 742.965 373.744 743.573 373.44C744.181 373.111 744.637 372.553 744.941 371.768C745.27 370.957 745.435 369.817 745.435 368.348V363.826C745.435 362.534 745.27 361.546 744.941 360.862C744.612 360.178 744.143 359.709 743.535 359.456C742.952 359.203 742.256 359.076 741.445 359.076H741.103V373.896ZM753.964 378V356.036H757.384V370.818L763.996 356.036H767.188V378H763.844V363.104L757.27 378H753.964ZM771.065 378.19V375.112C771.825 375.112 772.421 374.96 772.851 374.656C773.307 374.352 773.649 373.845 773.877 373.136C774.131 372.401 774.321 371.426 774.447 370.21C774.574 368.969 774.688 367.423 774.789 365.574L775.283 356.036H786.797V378H782.731V359.114H778.855L778.513 365.574C778.387 368.082 778.197 370.159 777.943 371.806C777.715 373.453 777.348 374.745 776.841 375.682C776.335 376.594 775.651 377.24 774.789 377.62C773.953 378 772.864 378.19 771.521 378.19H771.065ZM792.055 378V356.036H795.475V370.818L802.087 356.036H805.279V378H801.935V363.104L795.361 378H792.055ZM814.514 378.304C813.652 378.304 812.892 378.063 812.234 377.582C811.575 377.075 811.056 376.442 810.676 375.682C810.296 374.897 810.106 374.073 810.106 373.212C810.106 371.844 810.334 370.691 810.79 369.754C811.246 368.817 811.866 368.031 812.652 367.398C813.462 366.739 814.387 366.169 815.426 365.688C816.49 365.207 817.604 364.738 818.77 364.282V362.724C818.77 361.837 818.719 361.103 818.618 360.52C818.516 359.937 818.301 359.507 817.972 359.228C817.668 358.924 817.199 358.772 816.566 358.772C816.008 358.772 815.552 358.899 815.198 359.152C814.868 359.405 814.628 359.773 814.476 360.254C814.324 360.71 814.248 361.255 814.248 361.888V362.99L810.22 362.838C810.27 360.406 810.828 358.62 811.892 357.48C812.956 356.315 814.602 355.732 816.832 355.732C819.01 355.732 820.556 356.327 821.468 357.518C822.38 358.709 822.836 360.431 822.836 362.686V372.718C822.836 373.402 822.848 374.061 822.874 374.694C822.924 375.327 822.975 375.923 823.026 376.48C823.102 377.012 823.165 377.519 823.216 378H819.492C819.416 377.595 819.314 377.088 819.188 376.48C819.086 375.847 819.01 375.277 818.96 374.77C818.706 375.631 818.212 376.442 817.478 377.202C816.768 377.937 815.78 378.304 814.514 378.304ZM816.11 374.808C816.515 374.808 816.895 374.694 817.25 374.466C817.604 374.238 817.921 373.985 818.2 373.706C818.478 373.402 818.668 373.161 818.77 372.984V366.752C818.136 367.107 817.541 367.461 816.984 367.816C816.426 368.171 815.932 368.551 815.502 368.956C815.096 369.336 814.767 369.779 814.514 370.286C814.286 370.767 814.172 371.325 814.172 371.958C814.172 372.845 814.336 373.541 814.666 374.048C814.995 374.555 815.476 374.808 816.11 374.808ZM826.475 378.19V375.112C827.235 375.112 827.831 374.96 828.261 374.656C828.717 374.352 829.059 373.845 829.287 373.136C829.541 372.401 829.731 371.426 829.857 370.21C829.984 368.969 830.098 367.423 830.199 365.574L830.693 356.036H842.207V378H838.141V359.114H834.265L833.923 365.574C833.797 368.082 833.607 370.159 833.353 371.806C833.125 373.453 832.758 374.745 832.251 375.682C831.745 376.594 831.061 377.24 830.199 377.62C829.363 378 828.274 378.19 826.931 378.19H826.475Z" fill="white"/>
<path d="M753.987 225.3C752.307 225.3 750.807 224.88 749.487 224.04C748.167 223.18 747.127 221.94 746.367 220.32C745.607 218.68 745.227 216.74 745.227 214.5C745.227 212.26 745.607 210.33 746.367 208.71C747.127 207.07 748.167 205.83 749.487 204.99C750.807 204.13 752.307 203.7 753.987 203.7C755.667 203.7 757.167 204.13 758.487 204.99C759.827 205.83 760.877 207.07 761.637 208.71C762.397 210.33 762.777 212.26 762.777 214.5C762.777 216.74 762.397 218.68 761.637 220.32C760.877 221.94 759.827 223.18 758.487 224.04C757.167 224.88 755.667 225.3 753.987 225.3ZM753.987 221.91C755.487 221.91 756.667 221.29 757.527 220.05C758.407 218.81 758.847 216.96 758.847 214.5C758.847 212.04 758.407 210.19 757.527 208.95C756.667 207.71 755.487 207.09 753.987 207.09C752.507 207.09 751.327 207.71 750.447 208.95C749.587 210.19 749.157 212.04 749.157 214.5C749.157 216.96 749.587 218.81 750.447 220.05C751.327 221.29 752.507 221.91 753.987 221.91Z" fill="white"/>
<rect width="64" height="4" transform="matrix(-1 0 0 1 786 246)" fill="#FFDD85"/>
<path d="M817.987 225.3C816.327 225.3 814.827 224.88 813.487 224.04C812.167 223.2 811.127 221.98 810.367 220.38C809.607 218.76 809.227 216.8 809.227 214.5C809.227 212.2 809.607 210.25 810.367 208.65C811.127 207.03 812.167 205.8 813.487 204.96C814.827 204.12 816.327 203.7 817.987 203.7C819.667 203.7 821.167 204.12 822.487 204.96C823.807 205.8 824.847 207.03 825.607 208.65C826.387 210.25 826.777 212.2 826.777 214.5C826.777 216.8 826.387 218.76 825.607 220.38C824.847 221.98 823.807 223.2 822.487 224.04C821.167 224.88 819.667 225.3 817.987 225.3ZM817.987 221.91C818.967 221.91 819.817 221.65 820.537 221.13C821.257 220.59 821.817 219.77 822.217 218.67C822.637 217.57 822.847 216.18 822.847 214.5C822.847 212.8 822.637 211.41 822.217 210.33C821.817 209.23 821.257 208.42 820.537 207.9C819.817 207.36 818.967 207.09 817.987 207.09C817.047 207.09 816.207 207.36 815.467 207.9C814.747 208.42 814.177 209.23 813.757 210.33C813.357 211.41 813.157 212.8 813.157 214.5C813.157 216.18 813.357 217.57 813.757 218.67C814.177 219.77 814.747 220.59 815.467 221.13C816.207 221.65 817.047 221.91 817.987 221.91Z" fill="white"/>
<rect width="64" height="4" transform="matrix(-1 0 0 1 850 246)" fill="#FB9B2B"/>
<path d="M1455.99 227.3C1454.31 227.3 1452.81 226.88 1451.49 226.04C1450.17 225.18 1449.13 223.94 1448.37 222.32C1447.61 220.68 1447.23 218.74 1447.23 216.5C1447.23 214.26 1447.61 212.33 1448.37 210.71C1449.13 209.07 1450.17 207.83 1451.49 206.99C1452.81 206.13 1454.31 205.7 1455.99 205.7C1457.67 205.7 1459.17 206.13 1460.49 206.99C1461.83 207.83 1462.88 209.07 1463.64 210.71C1464.4 212.33 1464.78 214.26 1464.78 216.5C1464.78 218.74 1464.4 220.68 1463.64 222.32C1462.88 223.94 1461.83 225.18 1460.49 226.04C1459.17 226.88 1457.67 227.3 1455.99 227.3ZM1455.99 223.91C1457.49 223.91 1458.67 223.29 1459.53 222.05C1460.41 220.81 1460.85 218.96 1460.85 216.5C1460.85 214.04 1460.41 212.19 1459.53 210.95C1458.67 209.71 1457.49 209.09 1455.99 209.09C1454.51 209.09 1453.33 209.71 1452.45 210.95C1451.59 212.19 1451.16 214.04 1451.16 216.5C1451.16 218.96 1451.59 220.81 1452.45 222.05C1453.33 223.29 1454.51 223.91 1455.99 223.91Z" fill="white"/>
<rect width="64" height="4" transform="matrix(-1 0 0 1 1488 248)" fill="#FB9B2B"/>
<path d="M1774.99 225.3C1773.31 225.3 1771.81 224.88 1770.49 224.04C1769.17 223.18 1768.13 221.94 1767.37 220.32C1766.61 218.68 1766.23 216.74 1766.23 214.5C1766.23 212.26 1766.61 210.33 1767.37 208.71C1768.13 207.07 1769.17 205.83 1770.49 204.99C1771.81 204.13 1773.31 203.7 1774.99 203.7C1776.67 203.7 1778.17 204.13 1779.49 204.99C1780.83 205.83 1781.88 207.07 1782.64 208.71C1783.4 210.33 1783.78 212.26 1783.78 214.5C1783.78 216.74 1783.4 218.68 1782.64 220.32C1781.88 221.94 1780.83 223.18 1779.49 224.04C1778.17 224.88 1776.67 225.3 1774.99 225.3ZM1774.99 221.91C1776.49 221.91 1777.67 221.29 1778.53 220.05C1779.41 218.81 1779.85 216.96 1779.85 214.5C1779.85 212.04 1779.41 210.19 1778.53 208.95C1777.67 207.71 1776.49 207.09 1774.99 207.09C1773.51 207.09 1772.33 207.71 1771.45 208.95C1770.59 210.19 1770.16 212.04 1770.16 214.5C1770.16 216.96 1770.59 218.81 1771.45 220.05C1772.33 221.29 1773.51 221.91 1774.99 221.91Z" fill="white"/>
<rect width="64" height="4" transform="matrix(-1 0 0 1 1807 246)" fill="#FB9B2B"/>
<path d="M2092.97 215V195.5L2094.68 197.27H2088.53V194H2096.87V215H2092.97Z" fill="white"/>
<rect width="64" height="16" transform="matrix(-1 0 0 1 2126 236)" fill="#FB9B2B"/>
<path d="M2412.99 226.3C2411.31 226.3 2409.81 225.88 2408.49 225.04C2407.17 224.18 2406.13 222.94 2405.37 221.32C2404.61 219.68 2404.23 217.74 2404.23 215.5C2404.23 213.26 2404.61 211.33 2405.37 209.71C2406.13 208.07 2407.17 206.83 2408.49 205.99C2409.81 205.13 2411.31 204.7 2412.99 204.7C2414.67 204.7 2416.17 205.13 2417.49 205.99C2418.83 206.83 2419.88 208.07 2420.64 209.71C2421.4 211.33 2421.78 213.26 2421.78 215.5C2421.78 217.74 2421.4 219.68 2420.64 221.32C2419.88 222.94 2418.83 224.18 2417.49 225.04C2416.17 225.88 2414.67 226.3 2412.99 226.3ZM2412.99 222.91C2414.49 222.91 2415.67 222.29 2416.53 221.05C2417.41 219.81 2417.85 217.96 2417.85 215.5C2417.85 213.04 2417.41 211.19 2416.53 209.95C2415.67 208.71 2414.49 208.09 2412.99 208.09C2411.51 208.09 2410.33 208.71 2409.45 209.95C2408.59 211.19 2408.16 213.04 2408.16 215.5C2408.16 217.96 2408.59 219.81 2409.45 221.05C2410.33 222.29 2411.51 222.91 2412.99 222.91Z" fill="white"/>
<rect width="64" height="4" transform="matrix(-1 0 0 1 2445 247)" fill="#FB9B2B"/>
<rect x="775.266" y="251.344" width="14.9333" height="14.9333" transform="rotate(-45 775.266 251.344)" fill="white"/>
<path d="M1019.72 329V298.22H1031.65V301.412H1024.01V311.596H1030.21V314.636H1024.01V325.922H1031.73V329H1019.72ZM1035.99 336.22V307.036H1040.06V308.784C1040.54 308.227 1041.12 307.745 1041.81 307.34C1042.49 306.935 1043.3 306.732 1044.24 306.732C1045.38 306.732 1046.28 307.036 1046.94 307.644C1047.62 308.227 1048.13 308.974 1048.46 309.886C1048.79 310.773 1049 311.685 1049.1 312.622C1049.2 313.534 1049.25 314.319 1049.25 314.978V320.298C1049.25 321.843 1049.1 323.313 1048.8 324.706C1048.49 326.074 1047.94 327.189 1047.13 328.05C1046.34 328.886 1045.23 329.304 1043.78 329.304C1043 329.304 1042.3 329.114 1041.69 328.734C1041.08 328.329 1040.54 327.873 1040.06 327.366V336.22H1035.99ZM1042.98 326.112C1043.69 326.112 1044.2 325.859 1044.5 325.352C1044.81 324.82 1045 324.111 1045.07 323.224C1045.15 322.337 1045.19 321.362 1045.19 320.298V314.978C1045.19 314.066 1045.14 313.23 1045.04 312.47C1044.93 311.685 1044.72 311.064 1044.39 310.608C1044.06 310.152 1043.54 309.924 1042.83 309.924C1042.3 309.924 1041.79 310.038 1041.31 310.266C1040.83 310.494 1040.41 310.76 1040.06 311.064V325.124C1040.44 325.403 1040.87 325.643 1041.35 325.846C1041.83 326.023 1042.38 326.112 1042.98 326.112ZM1060.17 329.304C1058.45 329.304 1057.12 328.975 1056.18 328.316C1055.24 327.632 1054.58 326.644 1054.2 325.352C1053.85 324.035 1053.67 322.426 1053.67 320.526V315.51C1053.67 313.559 1053.86 311.938 1054.24 310.646C1054.62 309.354 1055.28 308.379 1056.22 307.72C1057.18 307.061 1058.5 306.732 1060.17 306.732C1062.02 306.732 1063.38 307.112 1064.24 307.872C1065.12 308.632 1065.71 309.734 1065.98 311.178C1066.26 312.597 1066.4 314.307 1066.4 316.308V318.094H1057.74V322.502C1057.74 323.389 1057.81 324.111 1057.97 324.668C1058.14 325.225 1058.41 325.643 1058.76 325.922C1059.14 326.175 1059.63 326.302 1060.21 326.302C1060.82 326.302 1061.27 326.163 1061.58 325.884C1061.91 325.58 1062.12 325.162 1062.22 324.63C1062.35 324.073 1062.41 323.427 1062.41 322.692V321.362H1066.36V322.198C1066.36 324.402 1065.9 326.137 1064.96 327.404C1064.02 328.671 1062.43 329.304 1060.17 329.304ZM1057.74 315.89H1062.41V313.914C1062.41 313.002 1062.36 312.242 1062.26 311.634C1062.16 311.001 1061.94 310.532 1061.61 310.228C1061.31 309.899 1060.82 309.734 1060.13 309.734C1059.47 309.734 1058.97 309.886 1058.61 310.19C1058.28 310.494 1058.06 311.013 1057.93 311.748C1057.8 312.457 1057.74 313.445 1057.74 314.712V315.89ZM1071.23 329V307.036H1077.38C1078.88 307.036 1080.04 307.289 1080.88 307.796C1081.74 308.277 1082.35 308.923 1082.7 309.734C1083.08 310.519 1083.28 311.368 1083.31 312.28C1083.33 313.369 1083.16 314.345 1082.78 315.206C1082.4 316.067 1081.61 316.675 1080.42 317.03C1081.33 317.207 1082.03 317.587 1082.51 318.17C1083.02 318.727 1083.36 319.399 1083.54 320.184C1083.74 320.969 1083.84 321.78 1083.84 322.616C1083.84 323.883 1083.65 324.997 1083.27 325.96C1082.92 326.923 1082.28 327.67 1081.37 328.202C1080.48 328.734 1079.22 329 1077.57 329H1071.23ZM1075.22 325.922H1076.66C1077.24 325.922 1077.77 325.846 1078.26 325.694C1078.74 325.517 1079.12 325.175 1079.4 324.668C1079.7 324.161 1079.85 323.427 1079.85 322.464C1079.85 321.324 1079.71 320.501 1079.43 319.994C1079.18 319.462 1078.83 319.133 1078.37 319.006C1077.94 318.879 1077.43 318.816 1076.85 318.816H1075.22V325.922ZM1075.22 315.89H1077.19C1077.98 315.89 1078.6 315.662 1079.05 315.206C1079.51 314.75 1079.74 313.939 1079.74 312.774C1079.74 311.735 1079.47 311.013 1078.94 310.608C1078.41 310.203 1077.69 310 1076.77 310H1075.22V315.89ZM1092.09 329.304C1091.23 329.304 1090.47 329.063 1089.81 328.582C1089.15 328.075 1088.63 327.442 1088.25 326.682C1087.87 325.897 1087.68 325.073 1087.68 324.212C1087.68 322.844 1087.91 321.691 1088.36 320.754C1088.82 319.817 1089.44 319.031 1090.23 318.398C1091.04 317.739 1091.96 317.169 1093 316.688C1094.06 316.207 1095.18 315.738 1096.34 315.282V313.724C1096.34 312.837 1096.29 312.103 1096.19 311.52C1096.09 310.937 1095.88 310.507 1095.55 310.228C1095.24 309.924 1094.77 309.772 1094.14 309.772C1093.58 309.772 1093.13 309.899 1092.77 310.152C1092.44 310.405 1092.2 310.773 1092.05 311.254C1091.9 311.71 1091.82 312.255 1091.82 312.888V313.99L1087.79 313.838C1087.85 311.406 1088.4 309.62 1089.47 308.48C1090.53 307.315 1092.18 306.732 1094.41 306.732C1096.59 306.732 1098.13 307.327 1099.04 308.518C1099.95 309.709 1100.41 311.431 1100.41 313.686V323.718C1100.41 324.402 1100.42 325.061 1100.45 325.694C1100.5 326.327 1100.55 326.923 1100.6 327.48C1100.68 328.012 1100.74 328.519 1100.79 329H1097.07C1096.99 328.595 1096.89 328.088 1096.76 327.48C1096.66 326.847 1096.59 326.277 1096.53 325.77C1096.28 326.631 1095.79 327.442 1095.05 328.202C1094.34 328.937 1093.36 329.304 1092.09 329.304ZM1093.68 325.808C1094.09 325.808 1094.47 325.694 1094.82 325.466C1095.18 325.238 1095.5 324.985 1095.77 324.706C1096.05 324.402 1096.24 324.161 1096.34 323.984V317.752C1095.71 318.107 1095.12 318.461 1094.56 318.816C1094 319.171 1093.51 319.551 1093.08 319.956C1092.67 320.336 1092.34 320.779 1092.09 321.286C1091.86 321.767 1091.75 322.325 1091.75 322.958C1091.75 323.845 1091.91 324.541 1092.24 325.048C1092.57 325.555 1093.05 325.808 1093.68 325.808ZM1105.46 329V307.036H1109.52V316.27H1114.73V307.036H1118.79V329H1114.73V319.234H1109.52V329H1105.46ZM1130.04 329.304C1128.24 329.304 1126.88 328.949 1125.94 328.24C1125.03 327.505 1124.41 326.479 1124.08 325.162C1123.77 323.845 1123.62 322.312 1123.62 320.564V315.51C1123.62 313.661 1123.78 312.09 1124.11 310.798C1124.44 309.481 1125.06 308.48 1125.98 307.796C1126.91 307.087 1128.27 306.732 1130.04 306.732C1131.64 306.732 1132.87 306.998 1133.73 307.53C1134.61 308.037 1135.22 308.809 1135.55 309.848C1135.88 310.861 1136.05 312.128 1136.05 313.648V314.94H1132.36V313.61C1132.36 312.647 1132.3 311.887 1132.17 311.33C1132.04 310.773 1131.82 310.367 1131.49 310.114C1131.16 309.861 1130.69 309.734 1130.08 309.734C1129.42 309.734 1128.91 309.886 1128.56 310.19C1128.21 310.494 1127.96 311.013 1127.84 311.748C1127.74 312.457 1127.69 313.433 1127.69 314.674V321.59C1127.69 323.465 1127.86 324.719 1128.22 325.352C1128.57 325.985 1129.21 326.302 1130.12 326.302C1130.8 326.302 1131.3 326.15 1131.6 325.846C1131.93 325.517 1132.13 325.061 1132.21 324.478C1132.31 323.895 1132.36 323.237 1132.36 322.502V320.716H1136.05V322.236C1136.05 323.705 1135.87 324.972 1135.51 326.036C1135.18 327.1 1134.58 327.911 1133.69 328.468C1132.83 329.025 1131.61 329.304 1130.04 329.304ZM1140.8 329V307.036H1144.87V316.308H1146.01L1150.15 307.036H1154.33L1149.73 317.676L1154.4 329H1150.15L1146.01 318.74H1144.87V329H1140.8ZM1157.71 329V307.036H1161.13V321.818L1167.74 307.036H1170.94V329H1167.59V314.104L1161.02 329H1157.71ZM1176.22 329V307.036H1179.64V321.818L1186.25 307.036H1189.44V329H1186.1V314.104L1179.53 329H1176.22ZM1182.95 304.642C1181.12 304.642 1179.83 304.148 1179.07 303.16C1178.33 302.172 1177.97 300.943 1177.97 299.474H1180.32C1180.35 300.386 1180.55 301.095 1180.93 301.602C1181.34 302.083 1182.01 302.324 1182.95 302.324C1183.91 302.324 1184.58 302.071 1184.96 301.564C1185.36 301.057 1185.57 300.361 1185.57 299.474H1187.96C1187.96 300.943 1187.58 302.172 1186.82 303.16C1186.09 304.148 1184.79 304.642 1182.95 304.642ZM1056.34 385.22V376.784H1055.96C1055.13 376.784 1054.26 376.683 1053.38 376.48C1052.49 376.252 1051.67 375.847 1050.91 375.264C1050.15 374.681 1049.53 373.833 1049.05 372.718C1048.59 371.603 1048.36 370.159 1048.36 368.386V364.434C1048.36 363.015 1048.55 361.799 1048.93 360.786C1049.34 359.773 1049.88 358.949 1050.57 358.316C1051.27 357.657 1052.07 357.176 1052.96 356.872C1053.87 356.568 1054.83 356.416 1055.85 356.416H1056.34V347.22H1060.1V356.416H1060.75C1062.09 356.416 1063.32 356.695 1064.44 357.252C1065.55 357.784 1066.44 358.645 1067.1 359.836C1067.78 361.001 1068.12 362.534 1068.12 364.434V368.386C1068.12 370.159 1067.89 371.603 1067.44 372.718C1066.98 373.833 1066.37 374.681 1065.61 375.264C1064.88 375.847 1064.07 376.252 1063.18 376.48C1062.32 376.683 1061.47 376.784 1060.64 376.784H1060.1V385.22H1056.34ZM1056.08 373.896H1056.34V359.076H1055.96C1055.18 359.076 1054.49 359.203 1053.91 359.456C1053.33 359.709 1052.87 360.178 1052.54 360.862C1052.21 361.546 1052.05 362.534 1052.05 363.826V368.348C1052.05 369.817 1052.2 370.957 1052.5 371.768C1052.81 372.553 1053.26 373.111 1053.87 373.44C1054.48 373.744 1055.21 373.896 1056.08 373.896ZM1060.1 373.896H1060.33C1061.22 373.896 1061.97 373.744 1062.57 373.44C1063.18 373.111 1063.64 372.553 1063.94 371.768C1064.27 370.957 1064.44 369.817 1064.44 368.348V363.826C1064.44 362.534 1064.27 361.546 1063.94 360.862C1063.61 360.178 1063.14 359.709 1062.54 359.456C1061.95 359.203 1061.26 359.076 1060.45 359.076H1060.1V373.896ZM1072.96 378V356.036H1076.38V370.818L1083 356.036H1086.19V378H1082.84V363.104L1076.27 378H1072.96ZM1090.07 378.19V375.112C1090.83 375.112 1091.42 374.96 1091.85 374.656C1092.31 374.352 1092.65 373.845 1092.88 373.136C1093.13 372.401 1093.32 371.426 1093.45 370.21C1093.57 368.969 1093.69 367.423 1093.79 365.574L1094.28 356.036H1105.8V378H1101.73V359.114H1097.86L1097.51 365.574C1097.39 368.082 1097.2 370.159 1096.94 371.806C1096.72 373.453 1096.35 374.745 1095.84 375.682C1095.33 376.594 1094.65 377.24 1093.79 377.62C1092.95 378 1091.86 378.19 1090.52 378.19H1090.07ZM1111.05 378V356.036H1114.47V370.818L1121.09 356.036H1124.28V378H1120.93V363.104L1114.36 378H1111.05ZM1133.51 378.304C1132.65 378.304 1131.89 378.063 1131.23 377.582C1130.58 377.075 1130.06 376.442 1129.68 375.682C1129.3 374.897 1129.11 374.073 1129.11 373.212C1129.11 371.844 1129.33 370.691 1129.79 369.754C1130.25 368.817 1130.87 368.031 1131.65 367.398C1132.46 366.739 1133.39 366.169 1134.43 365.688C1135.49 365.207 1136.6 364.738 1137.77 364.282V362.724C1137.77 361.837 1137.72 361.103 1137.62 360.52C1137.52 359.937 1137.3 359.507 1136.97 359.228C1136.67 358.924 1136.2 358.772 1135.57 358.772C1135.01 358.772 1134.55 358.899 1134.2 359.152C1133.87 359.405 1133.63 359.773 1133.48 360.254C1133.32 360.71 1133.25 361.255 1133.25 361.888V362.99L1129.22 362.838C1129.27 360.406 1129.83 358.62 1130.89 357.48C1131.96 356.315 1133.6 355.732 1135.83 355.732C1138.01 355.732 1139.56 356.327 1140.47 357.518C1141.38 358.709 1141.84 360.431 1141.84 362.686V372.718C1141.84 373.402 1141.85 374.061 1141.87 374.694C1141.92 375.327 1141.98 375.923 1142.03 376.48C1142.1 377.012 1142.17 377.519 1142.22 378H1138.49C1138.42 377.595 1138.31 377.088 1138.19 376.48C1138.09 375.847 1138.01 375.277 1137.96 374.77C1137.71 375.631 1137.21 376.442 1136.48 377.202C1135.77 377.937 1134.78 378.304 1133.51 378.304ZM1135.11 374.808C1135.52 374.808 1135.9 374.694 1136.25 374.466C1136.6 374.238 1136.92 373.985 1137.2 373.706C1137.48 373.402 1137.67 373.161 1137.77 372.984V366.752C1137.14 367.107 1136.54 367.461 1135.98 367.816C1135.43 368.171 1134.93 368.551 1134.5 368.956C1134.1 369.336 1133.77 369.779 1133.51 370.286C1133.29 370.767 1133.17 371.325 1133.17 371.958C1133.17 372.845 1133.34 373.541 1133.67 374.048C1134 374.555 1134.48 374.808 1135.11 374.808ZM1145.48 378.19V375.112C1146.24 375.112 1146.83 374.96 1147.26 374.656C1147.72 374.352 1148.06 373.845 1148.29 373.136C1148.54 372.401 1148.73 371.426 1148.86 370.21C1148.98 368.969 1149.1 367.423 1149.2 365.574L1149.69 356.036H1161.21V378H1157.14V359.114H1153.27L1152.92 365.574C1152.8 368.082 1152.61 370.159 1152.35 371.806C1152.13 373.453 1151.76 374.745 1151.25 375.682C1150.74 376.594 1150.06 377.24 1149.2 377.62C1148.36 378 1147.27 378.19 1145.93 378.19H1145.48Z" fill="white"/>
<path d="M1081.8 194.7V198H1066.32V195.39L1074.66 187.47C1075.6 186.57 1076.23 185.79 1076.55 185.13C1076.89 184.45 1077.06 183.78 1077.06 183.12C1077.06 182.14 1076.73 181.39 1076.07 180.87C1075.41 180.35 1074.44 180.09 1073.16 180.09C1071.02 180.09 1069.38 180.82 1068.24 182.28L1065.51 180.18C1066.33 179.08 1067.43 178.23 1068.81 177.63C1070.21 177.01 1071.77 176.7 1073.49 176.7C1075.77 176.7 1077.59 177.24 1078.95 178.32C1080.31 179.4 1080.99 180.87 1080.99 182.73C1080.99 183.87 1080.75 184.94 1080.27 185.94C1079.79 186.94 1078.87 188.08 1077.51 189.36L1071.9 194.7H1081.8Z" fill="white"/>
<rect width="64" height="32" transform="matrix(-1 0 0 1 1105 219)" fill="#FFDD85"/>
<path d="M1137.99 226.3C1136.31 226.3 1134.81 225.88 1133.49 225.04C1132.17 224.18 1131.13 222.94 1130.37 221.32C1129.61 219.68 1129.23 217.74 1129.23 215.5C1129.23 213.26 1129.61 211.33 1130.37 209.71C1131.13 208.07 1132.17 206.83 1133.49 205.99C1134.81 205.13 1136.31 204.7 1137.99 204.7C1139.67 204.7 1141.17 205.13 1142.49 205.99C1143.83 206.83 1144.88 208.07 1145.64 209.71C1146.4 211.33 1146.78 213.26 1146.78 215.5C1146.78 217.74 1146.4 219.68 1145.64 221.32C1144.88 222.94 1143.83 224.18 1142.49 225.04C1141.17 225.88 1139.67 226.3 1137.99 226.3ZM1137.99 222.91C1139.49 222.91 1140.67 222.29 1141.53 221.05C1142.41 219.81 1142.85 217.96 1142.85 215.5C1142.85 213.04 1142.41 211.19 1141.53 209.95C1140.67 208.71 1139.49 208.09 1137.99 208.09C1136.51 208.09 1135.33 208.71 1134.45 209.95C1133.59 211.19 1133.16 213.04 1133.16 215.5C1133.16 217.96 1133.59 219.81 1134.45 221.05C1135.33 222.29 1136.51 222.91 1137.99 222.91Z" fill="white"/>
<rect width="64" height="4" transform="matrix(-1 0 0 1 1170 247)" fill="#FB9B2B"/>
<rect x="1094.27" y="251.344" width="14.9333" height="14.9333" transform="rotate(-45 1094.27 251.344)" fill="white"/>
<path d="M1359.89 329L1360.46 298.22H1364.67L1370.11 323.186L1375.58 298.22H1379.76L1380.33 329H1376.87L1376.53 306.656L1371.32 329H1368.89L1363.72 306.656L1363.38 329H1359.89ZM1385.85 329V307.036H1389.27V321.818L1395.88 307.036H1399.07V329H1395.73V314.104L1389.15 329H1385.85ZM1404.35 329V307.036H1408.42V316.27H1413.63V307.036H1417.69V329H1413.63V319.234H1408.42V329H1404.35ZM1428.94 329.304C1427.14 329.304 1425.77 328.949 1424.83 328.24C1423.92 327.505 1423.3 326.479 1422.97 325.162C1422.67 323.845 1422.52 322.312 1422.52 320.564V315.51C1422.52 313.661 1422.68 312.09 1423.01 310.798C1423.34 309.481 1423.96 308.48 1424.87 307.796C1425.81 307.087 1427.17 306.732 1428.94 306.732C1430.53 306.732 1431.76 306.998 1432.62 307.53C1433.51 308.037 1434.12 308.809 1434.45 309.848C1434.78 310.861 1434.94 312.128 1434.94 313.648V314.94H1431.26V313.61C1431.26 312.647 1431.19 311.887 1431.07 311.33C1430.94 310.773 1430.71 310.367 1430.38 310.114C1430.05 309.861 1429.58 309.734 1428.98 309.734C1428.32 309.734 1427.81 309.886 1427.46 310.19C1427.1 310.494 1426.86 311.013 1426.73 311.748C1426.63 312.457 1426.58 313.433 1426.58 314.674V321.59C1426.58 323.465 1426.76 324.719 1427.11 325.352C1427.47 325.985 1428.1 326.302 1429.01 326.302C1429.7 326.302 1430.19 326.15 1430.5 325.846C1430.83 325.517 1431.03 325.061 1431.1 324.478C1431.21 323.895 1431.26 323.237 1431.26 322.502V320.716H1434.94V322.236C1434.94 323.705 1434.77 324.972 1434.41 326.036C1434.08 327.1 1433.47 327.911 1432.59 328.468C1431.73 329.025 1430.51 329.304 1428.94 329.304ZM1439.7 329V307.036H1443.76V316.308H1444.9L1449.05 307.036H1453.23L1448.63 317.676L1453.3 329H1449.05L1444.9 318.74H1443.76V329H1439.7ZM1456.61 329V307.036H1460.03V321.818L1466.64 307.036H1469.83V329H1466.49V314.104L1459.92 329H1456.61ZM1475.12 329V307.036H1478.54V321.818L1485.15 307.036H1488.34V329H1485V314.104L1478.42 329H1475.12ZM1481.84 304.642C1480.02 304.642 1478.73 304.148 1477.97 303.16C1477.23 302.172 1476.86 300.943 1476.86 299.474H1479.22C1479.25 300.386 1479.45 301.095 1479.83 301.602C1480.23 302.083 1480.91 302.324 1481.84 302.324C1482.81 302.324 1483.48 302.071 1483.86 301.564C1484.26 301.057 1484.46 300.361 1484.46 299.474H1486.86C1486.86 300.943 1486.48 302.172 1485.72 303.16C1484.98 304.148 1483.69 304.642 1481.84 304.642ZM1375.34 385.22V376.784H1374.96C1374.13 376.784 1373.26 376.683 1372.38 376.48C1371.49 376.252 1370.67 375.847 1369.91 375.264C1369.15 374.681 1368.53 373.833 1368.05 372.718C1367.59 371.603 1367.36 370.159 1367.36 368.386V364.434C1367.36 363.015 1367.55 361.799 1367.93 360.786C1368.34 359.773 1368.88 358.949 1369.57 358.316C1370.27 357.657 1371.07 357.176 1371.96 356.872C1372.87 356.568 1373.83 356.416 1374.85 356.416H1375.34V347.22H1379.1V356.416H1379.75C1381.09 356.416 1382.32 356.695 1383.44 357.252C1384.55 357.784 1385.44 358.645 1386.1 359.836C1386.78 361.001 1387.12 362.534 1387.12 364.434V368.386C1387.12 370.159 1386.89 371.603 1386.44 372.718C1385.98 373.833 1385.37 374.681 1384.61 375.264C1383.88 375.847 1383.07 376.252 1382.18 376.48C1381.32 376.683 1380.47 376.784 1379.64 376.784H1379.1V385.22H1375.34ZM1375.08 373.896H1375.34V359.076H1374.96C1374.18 359.076 1373.49 359.203 1372.91 359.456C1372.33 359.709 1371.87 360.178 1371.54 360.862C1371.21 361.546 1371.05 362.534 1371.05 363.826V368.348C1371.05 369.817 1371.2 370.957 1371.5 371.768C1371.81 372.553 1372.26 373.111 1372.87 373.44C1373.48 373.744 1374.21 373.896 1375.08 373.896ZM1379.1 373.896H1379.33C1380.22 373.896 1380.97 373.744 1381.57 373.44C1382.18 373.111 1382.64 372.553 1382.94 371.768C1383.27 370.957 1383.44 369.817 1383.44 368.348V363.826C1383.44 362.534 1383.27 361.546 1382.94 360.862C1382.61 360.178 1382.14 359.709 1381.54 359.456C1380.95 359.203 1380.26 359.076 1379.45 359.076H1379.1V373.896ZM1391.96 378V356.036H1395.38V370.818L1402 356.036H1405.19V378H1401.84V363.104L1395.27 378H1391.96ZM1409.07 378.19V375.112C1409.83 375.112 1410.42 374.96 1410.85 374.656C1411.31 374.352 1411.65 373.845 1411.88 373.136C1412.13 372.401 1412.32 371.426 1412.45 370.21C1412.57 368.969 1412.69 367.423 1412.79 365.574L1413.28 356.036H1424.8V378H1420.73V359.114H1416.86L1416.51 365.574C1416.39 368.082 1416.2 370.159 1415.94 371.806C1415.72 373.453 1415.35 374.745 1414.84 375.682C1414.33 376.594 1413.65 377.24 1412.79 377.62C1411.95 378 1410.86 378.19 1409.52 378.19H1409.07ZM1430.05 378V356.036H1433.47V370.818L1440.09 356.036H1443.28V378H1439.93V363.104L1433.36 378H1430.05ZM1452.51 378.304C1451.65 378.304 1450.89 378.063 1450.23 377.582C1449.58 377.075 1449.06 376.442 1448.68 375.682C1448.3 374.897 1448.11 374.073 1448.11 373.212C1448.11 371.844 1448.33 370.691 1448.79 369.754C1449.25 368.817 1449.87 368.031 1450.65 367.398C1451.46 366.739 1452.39 366.169 1453.43 365.688C1454.49 365.207 1455.6 364.738 1456.77 364.282V362.724C1456.77 361.837 1456.72 361.103 1456.62 360.52C1456.52 359.937 1456.3 359.507 1455.97 359.228C1455.67 358.924 1455.2 358.772 1454.57 358.772C1454.01 358.772 1453.55 358.899 1453.2 359.152C1452.87 359.405 1452.63 359.773 1452.48 360.254C1452.32 360.71 1452.25 361.255 1452.25 361.888V362.99L1448.22 362.838C1448.27 360.406 1448.83 358.62 1449.89 357.48C1450.96 356.315 1452.6 355.732 1454.83 355.732C1457.01 355.732 1458.56 356.327 1459.47 357.518C1460.38 358.709 1460.84 360.431 1460.84 362.686V372.718C1460.84 373.402 1460.85 374.061 1460.87 374.694C1460.92 375.327 1460.98 375.923 1461.03 376.48C1461.1 377.012 1461.17 377.519 1461.22 378H1457.49C1457.42 377.595 1457.31 377.088 1457.19 376.48C1457.09 375.847 1457.01 375.277 1456.96 374.77C1456.71 375.631 1456.21 376.442 1455.48 377.202C1454.77 377.937 1453.78 378.304 1452.51 378.304ZM1454.11 374.808C1454.52 374.808 1454.9 374.694 1455.25 374.466C1455.6 374.238 1455.92 373.985 1456.2 373.706C1456.48 373.402 1456.67 373.161 1456.77 372.984V366.752C1456.14 367.107 1455.54 367.461 1454.98 367.816C1454.43 368.171 1453.93 368.551 1453.5 368.956C1453.1 369.336 1452.77 369.779 1452.51 370.286C1452.29 370.767 1452.17 371.325 1452.17 371.958C1452.17 372.845 1452.34 373.541 1452.67 374.048C1453 374.555 1453.48 374.808 1454.11 374.808ZM1464.48 378.19V375.112C1465.24 375.112 1465.83 374.96 1466.26 374.656C1466.72 374.352 1467.06 373.845 1467.29 373.136C1467.54 372.401 1467.73 371.426 1467.86 370.21C1467.98 368.969 1468.1 367.423 1468.2 365.574L1468.69 356.036H1480.21V378H1476.14V359.114H1472.27L1471.92 365.574C1471.8 368.082 1471.61 370.159 1471.35 371.806C1471.13 373.453 1470.76 374.745 1470.25 375.682C1469.74 376.594 1469.06 377.24 1468.2 377.62C1467.36 378 1466.27 378.19 1464.93 378.19H1464.48Z" fill="white"/>
<path d="M1391.99 226.3C1390.31 226.3 1388.81 225.88 1387.49 225.04C1386.17 224.18 1385.13 222.94 1384.37 221.32C1383.61 219.68 1383.23 217.74 1383.23 215.5C1383.23 213.26 1383.61 211.33 1384.37 209.71C1385.13 208.07 1386.17 206.83 1387.49 205.99C1388.81 205.13 1390.31 204.7 1391.99 204.7C1393.67 204.7 1395.17 205.13 1396.49 205.99C1397.83 206.83 1398.88 208.07 1399.64 209.71C1400.4 211.33 1400.78 213.26 1400.78 215.5C1400.78 217.74 1400.4 219.68 1399.64 221.32C1398.88 222.94 1397.83 224.18 1396.49 225.04C1395.17 225.88 1393.67 226.3 1391.99 226.3ZM1391.99 222.91C1393.49 222.91 1394.67 222.29 1395.53 221.05C1396.41 219.81 1396.85 217.96 1396.85 215.5C1396.85 213.04 1396.41 211.19 1395.53 209.95C1394.67 208.71 1393.49 208.09 1391.99 208.09C1390.51 208.09 1389.33 208.71 1388.45 209.95C1387.59 211.19 1387.16 213.04 1387.16 215.5C1387.16 217.96 1387.59 219.81 1388.45 221.05C1389.33 222.29 1390.51 222.91 1391.99 222.91Z" fill="white"/>
<rect width="64" height="4" transform="matrix(-1 0 0 1 1424 247)" fill="#FFDD85"/>
<rect x="1413.27" y="251.344" width="14.9333" height="14.9333" transform="rotate(-45 1413.27 251.344)" fill="white"/>
<path d="M1650.46 329V301.412H1645.25V298.22H1659.8V301.412H1654.75V329H1650.46ZM1667.52 329.304C1666.66 329.304 1665.9 329.063 1665.24 328.582C1664.58 328.075 1664.06 327.442 1663.68 326.682C1663.3 325.897 1663.11 325.073 1663.11 324.212C1663.11 322.844 1663.34 321.691 1663.8 320.754C1664.25 319.817 1664.87 319.031 1665.66 318.398C1666.47 317.739 1667.39 317.169 1668.43 316.688C1669.5 316.207 1670.61 315.738 1671.78 315.282V313.724C1671.78 312.837 1671.73 312.103 1671.63 311.52C1671.52 310.937 1671.31 310.507 1670.98 310.228C1670.68 309.924 1670.21 309.772 1669.57 309.772C1669.02 309.772 1668.56 309.899 1668.21 310.152C1667.88 310.405 1667.64 310.773 1667.48 311.254C1667.33 311.71 1667.26 312.255 1667.26 312.888V313.99L1663.23 313.838C1663.28 311.406 1663.84 309.62 1664.9 308.48C1665.96 307.315 1667.61 306.732 1669.84 306.732C1672.02 306.732 1673.56 307.327 1674.48 308.518C1675.39 309.709 1675.84 311.431 1675.84 313.686V323.718C1675.84 324.402 1675.86 325.061 1675.88 325.694C1675.93 326.327 1675.98 326.923 1676.03 327.48C1676.11 328.012 1676.17 328.519 1676.22 329H1672.5C1672.42 328.595 1672.32 328.088 1672.2 327.48C1672.09 326.847 1672.02 326.277 1671.97 325.77C1671.71 326.631 1671.22 327.442 1670.49 328.202C1669.78 328.937 1668.79 329.304 1667.52 329.304ZM1669.12 325.808C1669.52 325.808 1669.9 325.694 1670.26 325.466C1670.61 325.238 1670.93 324.985 1671.21 324.706C1671.49 324.402 1671.68 324.161 1671.78 323.984V317.752C1671.14 318.107 1670.55 318.461 1669.99 318.816C1669.43 319.171 1668.94 319.551 1668.51 319.956C1668.1 320.336 1667.77 320.779 1667.52 321.286C1667.29 321.767 1667.18 322.325 1667.18 322.958C1667.18 323.845 1667.34 324.541 1667.67 325.048C1668 325.555 1668.48 325.808 1669.12 325.808ZM1680.89 329V307.036H1684.8V326.112H1688.68V307.036H1692.59V326.112H1696.47V307.036H1700.38V329H1680.89ZM1705.78 329V307.036H1709.85V316.308H1710.99L1715.13 307.036H1719.31L1714.71 317.676L1719.38 329H1715.13L1710.99 318.74H1709.85V329H1705.78ZM1728.77 329.304C1727.05 329.304 1725.72 328.975 1724.78 328.316C1723.84 327.632 1723.18 326.644 1722.8 325.352C1722.45 324.035 1722.27 322.426 1722.27 320.526V315.51C1722.27 313.559 1722.46 311.938 1722.84 310.646C1723.22 309.354 1723.88 308.379 1724.82 307.72C1725.78 307.061 1727.1 306.732 1728.77 306.732C1730.62 306.732 1731.98 307.112 1732.84 307.872C1733.72 308.632 1734.31 309.734 1734.58 311.178C1734.86 312.597 1735 314.307 1735 316.308V318.094H1726.34V322.502C1726.34 323.389 1726.41 324.111 1726.57 324.668C1726.74 325.225 1727.01 325.643 1727.36 325.922C1727.74 326.175 1728.23 326.302 1728.81 326.302C1729.42 326.302 1729.87 326.163 1730.18 325.884C1730.51 325.58 1730.72 325.162 1730.82 324.63C1730.95 324.073 1731.01 323.427 1731.01 322.692V321.362H1734.96V322.198C1734.96 324.402 1734.5 326.137 1733.56 327.404C1732.62 328.671 1731.03 329.304 1728.77 329.304ZM1726.34 315.89H1731.01V313.914C1731.01 313.002 1730.96 312.242 1730.86 311.634C1730.76 311.001 1730.54 310.532 1730.21 310.228C1729.91 309.899 1729.42 309.734 1728.73 309.734C1728.07 309.734 1727.57 309.886 1727.21 310.19C1726.88 310.494 1726.66 311.013 1726.53 311.748C1726.4 312.457 1726.34 313.445 1726.34 314.712V315.89ZM1739.82 329V307.036H1743.89V316.27H1749.1V307.036H1753.16V329H1749.1V319.234H1743.89V329H1739.82ZM1760.88 329V310.076H1756.77V307.036H1769.08V310.076H1764.94V329H1760.88ZM1778.69 329.304C1776.89 329.304 1775.52 328.949 1774.58 328.24C1773.67 327.505 1773.05 326.479 1772.72 325.162C1772.42 323.845 1772.26 322.312 1772.26 320.564V315.51C1772.26 313.661 1772.43 312.09 1772.76 310.798C1773.09 309.481 1773.71 308.48 1774.62 307.796C1775.56 307.087 1776.91 306.732 1778.69 306.732C1780.28 306.732 1781.51 306.998 1782.37 307.53C1783.26 308.037 1783.87 308.809 1784.2 309.848C1784.53 310.861 1784.69 312.128 1784.69 313.648V314.94H1781V313.61C1781 312.647 1780.94 311.887 1780.81 311.33C1780.69 310.773 1780.46 310.367 1780.13 310.114C1779.8 309.861 1779.33 309.734 1778.72 309.734C1778.07 309.734 1777.56 309.886 1777.2 310.19C1776.85 310.494 1776.61 311.013 1776.48 311.748C1776.38 312.457 1776.33 313.433 1776.33 314.674V321.59C1776.33 323.465 1776.51 324.719 1776.86 325.352C1777.22 325.985 1777.85 326.302 1778.76 326.302C1779.45 326.302 1779.94 326.15 1780.24 325.846C1780.57 325.517 1780.78 325.061 1780.85 324.478C1780.95 323.895 1781 323.237 1781 322.502V320.716H1784.69V322.236C1784.69 323.705 1784.51 324.972 1784.16 326.036C1783.83 327.1 1783.22 327.911 1782.33 328.468C1781.47 329.025 1780.26 329.304 1778.69 329.304ZM1789.45 329V307.036H1793.51V316.308H1794.65L1798.79 307.036H1802.97L1798.38 317.676L1803.05 329H1798.79L1794.65 318.74H1793.51V329H1789.45ZM1806.36 329V307.036H1809.78V321.818L1816.39 307.036H1819.58V329H1816.24V314.104L1809.66 329H1806.36ZM1824.86 329V307.036H1828.28V321.818L1834.9 307.036H1838.09V329H1834.74V314.104L1828.17 329H1824.86ZM1831.59 304.642C1829.77 304.642 1828.47 304.148 1827.71 303.16C1826.98 302.172 1826.61 300.943 1826.61 299.474H1828.97C1828.99 300.386 1829.2 301.095 1829.58 301.602C1829.98 302.083 1830.65 302.324 1831.59 302.324C1832.55 302.324 1833.22 302.071 1833.6 301.564C1834.01 301.057 1834.21 300.361 1834.21 299.474H1836.61C1836.61 300.943 1836.23 302.172 1835.47 303.16C1834.73 304.148 1833.44 304.642 1831.59 304.642ZM1694.34 385.22V376.784H1693.96C1693.13 376.784 1692.26 376.683 1691.38 376.48C1690.49 376.252 1689.67 375.847 1688.91 375.264C1688.15 374.681 1687.53 373.833 1687.05 372.718C1686.59 371.603 1686.36 370.159 1686.36 368.386V364.434C1686.36 363.015 1686.55 361.799 1686.93 360.786C1687.34 359.773 1687.88 358.949 1688.57 358.316C1689.27 357.657 1690.07 357.176 1690.96 356.872C1691.87 356.568 1692.83 356.416 1693.85 356.416H1694.34V347.22H1698.1V356.416H1698.75C1700.09 356.416 1701.32 356.695 1702.44 357.252C1703.55 357.784 1704.44 358.645 1705.1 359.836C1705.78 361.001 1706.12 362.534 1706.12 364.434V368.386C1706.12 370.159 1705.89 371.603 1705.44 372.718C1704.98 373.833 1704.37 374.681 1703.61 375.264C1702.88 375.847 1702.07 376.252 1701.18 376.48C1700.32 376.683 1699.47 376.784 1698.64 376.784H1698.1V385.22H1694.34ZM1694.08 373.896H1694.34V359.076H1693.96C1693.18 359.076 1692.49 359.203 1691.91 359.456C1691.33 359.709 1690.87 360.178 1690.54 360.862C1690.21 361.546 1690.05 362.534 1690.05 363.826V368.348C1690.05 369.817 1690.2 370.957 1690.5 371.768C1690.81 372.553 1691.26 373.111 1691.87 373.44C1692.48 373.744 1693.21 373.896 1694.08 373.896ZM1698.1 373.896H1698.33C1699.22 373.896 1699.97 373.744 1700.57 373.44C1701.18 373.111 1701.64 372.553 1701.94 371.768C1702.27 370.957 1702.44 369.817 1702.44 368.348V363.826C1702.44 362.534 1702.27 361.546 1701.94 360.862C1701.61 360.178 1701.14 359.709 1700.54 359.456C1699.95 359.203 1699.26 359.076 1698.45 359.076H1698.1V373.896ZM1710.96 378V356.036H1714.38V370.818L1721 356.036H1724.19V378H1720.84V363.104L1714.27 378H1710.96ZM1728.07 378.19V375.112C1728.83 375.112 1729.42 374.96 1729.85 374.656C1730.31 374.352 1730.65 373.845 1730.88 373.136C1731.13 372.401 1731.32 371.426 1731.45 370.21C1731.57 368.969 1731.69 367.423 1731.79 365.574L1732.28 356.036H1743.8V378H1739.73V359.114H1735.86L1735.51 365.574C1735.39 368.082 1735.2 370.159 1734.94 371.806C1734.72 373.453 1734.35 374.745 1733.84 375.682C1733.33 376.594 1732.65 377.24 1731.79 377.62C1730.95 378 1729.86 378.19 1728.52 378.19H1728.07ZM1749.05 378V356.036H1752.47V370.818L1759.09 356.036H1762.28V378H1758.93V363.104L1752.36 378H1749.05ZM1771.51 378.304C1770.65 378.304 1769.89 378.063 1769.23 377.582C1768.58 377.075 1768.06 376.442 1767.68 375.682C1767.3 374.897 1767.11 374.073 1767.11 373.212C1767.11 371.844 1767.33 370.691 1767.79 369.754C1768.25 368.817 1768.87 368.031 1769.65 367.398C1770.46 366.739 1771.39 366.169 1772.43 365.688C1773.49 365.207 1774.6 364.738 1775.77 364.282V362.724C1775.77 361.837 1775.72 361.103 1775.62 360.52C1775.52 359.937 1775.3 359.507 1774.97 359.228C1774.67 358.924 1774.2 358.772 1773.57 358.772C1773.01 358.772 1772.55 358.899 1772.2 359.152C1771.87 359.405 1771.63 359.773 1771.48 360.254C1771.32 360.71 1771.25 361.255 1771.25 361.888V362.99L1767.22 362.838C1767.27 360.406 1767.83 358.62 1768.89 357.48C1769.96 356.315 1771.6 355.732 1773.83 355.732C1776.01 355.732 1777.56 356.327 1778.47 357.518C1779.38 358.709 1779.84 360.431 1779.84 362.686V372.718C1779.84 373.402 1779.85 374.061 1779.87 374.694C1779.92 375.327 1779.98 375.923 1780.03 376.48C1780.1 377.012 1780.17 377.519 1780.22 378H1776.49C1776.42 377.595 1776.31 377.088 1776.19 376.48C1776.09 375.847 1776.01 375.277 1775.96 374.77C1775.71 375.631 1775.21 376.442 1774.48 377.202C1773.77 377.937 1772.78 378.304 1771.51 378.304ZM1773.11 374.808C1773.52 374.808 1773.9 374.694 1774.25 374.466C1774.6 374.238 1774.92 373.985 1775.2 373.706C1775.48 373.402 1775.67 373.161 1775.77 372.984V366.752C1775.14 367.107 1774.54 367.461 1773.98 367.816C1773.43 368.171 1772.93 368.551 1772.5 368.956C1772.1 369.336 1771.77 369.779 1771.51 370.286C1771.29 370.767 1771.17 371.325 1771.17 371.958C1771.17 372.845 1771.34 373.541 1771.67 374.048C1772 374.555 1772.48 374.808 1773.11 374.808ZM1783.48 378.19V375.112C1784.24 375.112 1784.83 374.96 1785.26 374.656C1785.72 374.352 1786.06 373.845 1786.29 373.136C1786.54 372.401 1786.73 371.426 1786.86 370.21C1786.98 368.969 1787.1 367.423 1787.2 365.574L1787.69 356.036H1799.21V378H1795.14V359.114H1791.27L1790.92 365.574C1790.8 368.082 1790.61 370.159 1790.35 371.806C1790.13 373.453 1789.76 374.745 1789.25 375.682C1788.74 376.594 1788.06 377.24 1787.2 377.62C1786.36 378 1785.27 378.19 1783.93 378.19H1783.48Z" fill="white"/>
<path d="M1710.99 226.3C1709.31 226.3 1707.81 225.88 1706.49 225.04C1705.17 224.18 1704.13 222.94 1703.37 221.32C1702.61 219.68 1702.23 217.74 1702.23 215.5C1702.23 213.26 1702.61 211.33 1703.37 209.71C1704.13 208.07 1705.17 206.83 1706.49 205.99C1707.81 205.13 1709.31 204.7 1710.99 204.7C1712.67 204.7 1714.17 205.13 1715.49 205.99C1716.83 206.83 1717.88 208.07 1718.64 209.71C1719.4 211.33 1719.78 213.26 1719.78 215.5C1719.78 217.74 1719.4 219.68 1718.64 221.32C1717.88 222.94 1716.83 224.18 1715.49 225.04C1714.17 225.88 1712.67 226.3 1710.99 226.3ZM1710.99 222.91C1712.49 222.91 1713.67 222.29 1714.53 221.05C1715.41 219.81 1715.85 217.96 1715.85 215.5C1715.85 213.04 1715.41 211.19 1714.53 209.95C1713.67 208.71 1712.49 208.09 1710.99 208.09C1709.51 208.09 1708.33 208.71 1707.45 209.95C1706.59 211.19 1706.16 213.04 1706.16 215.5C1706.16 217.96 1706.59 219.81 1707.45 221.05C1708.33 222.29 1709.51 222.91 1710.99 222.91Z" fill="white"/>
<rect width="64" height="4" transform="matrix(-1 0 0 1 1743 247)" fill="#FFDD85"/>
<rect x="1732.27" y="251.344" width="14.9333" height="14.9333" transform="rotate(-45 1732.27 251.344)" fill="white"/>
<path d="M1941.76 333.674V330.368C1943.07 330.495 1944.09 330.495 1944.8 330.368C1945.53 330.241 1946.04 329.975 1946.32 329.57C1946.62 329.19 1946.77 328.671 1946.77 328.012C1946.77 327.328 1946.7 326.517 1946.54 325.58L1940.46 298.22H1944.53L1947.11 311.33L1948.67 321.096L1950.04 311.406L1952.36 298.22H1956.46L1950.95 325.656C1950.7 326.897 1950.48 327.987 1950.31 328.924C1950.15 329.861 1949.93 330.659 1949.62 331.318C1949.34 331.977 1948.91 332.496 1948.33 332.876C1947.75 333.256 1946.92 333.509 1945.86 333.636C1944.82 333.763 1943.45 333.775 1941.76 333.674ZM1958.71 329.19V326.112C1959.47 326.112 1960.06 325.96 1960.5 325.656C1960.95 325.352 1961.29 324.845 1961.52 324.136C1961.77 323.401 1961.96 322.426 1962.09 321.21C1962.22 319.969 1962.33 318.423 1962.43 316.574L1962.93 307.036H1974.44V329H1970.38V310.114H1966.5L1966.16 316.574C1966.03 319.082 1965.84 321.159 1965.59 322.806C1965.36 324.453 1964.99 325.745 1964.49 326.682C1963.98 327.594 1963.29 328.24 1962.43 328.62C1961.6 329 1960.51 329.19 1959.17 329.19H1958.71ZM1983.65 329.304C1982.79 329.304 1982.03 329.063 1981.37 328.582C1980.71 328.075 1980.19 327.442 1979.81 326.682C1979.43 325.897 1979.24 325.073 1979.24 324.212C1979.24 322.844 1979.47 321.691 1979.93 320.754C1980.38 319.817 1981 319.031 1981.79 318.398C1982.6 317.739 1983.52 317.169 1984.56 316.688C1985.63 316.207 1986.74 315.738 1987.91 315.282V313.724C1987.91 312.837 1987.86 312.103 1987.75 311.52C1987.65 310.937 1987.44 310.507 1987.11 310.228C1986.8 309.924 1986.34 309.772 1985.7 309.772C1985.15 309.772 1984.69 309.899 1984.33 310.152C1984.01 310.405 1983.76 310.773 1983.61 311.254C1983.46 311.71 1983.38 312.255 1983.38 312.888V313.99L1979.36 313.838C1979.41 311.406 1979.96 309.62 1981.03 308.48C1982.09 307.315 1983.74 306.732 1985.97 306.732C1988.15 306.732 1989.69 307.327 1990.6 308.518C1991.52 309.709 1991.97 311.431 1991.97 313.686V323.718C1991.97 324.402 1991.99 325.061 1992.01 325.694C1992.06 326.327 1992.11 326.923 1992.16 327.48C1992.24 328.012 1992.3 328.519 1992.35 329H1988.63C1988.55 328.595 1988.45 328.088 1988.32 327.48C1988.22 326.847 1988.15 326.277 1988.1 325.77C1987.84 326.631 1987.35 327.442 1986.61 328.202C1985.91 328.937 1984.92 329.304 1983.65 329.304ZM1985.25 325.808C1985.65 325.808 1986.03 325.694 1986.39 325.466C1986.74 325.238 1987.06 324.985 1987.34 324.706C1987.62 324.402 1987.81 324.161 1987.91 323.984V317.752C1987.27 318.107 1986.68 318.461 1986.12 318.816C1985.56 319.171 1985.07 319.551 1984.64 319.956C1984.23 320.336 1983.9 320.779 1983.65 321.286C1983.42 321.767 1983.31 322.325 1983.31 322.958C1983.31 323.845 1983.47 324.541 1983.8 325.048C1984.13 325.555 1984.61 325.808 1985.25 325.808ZM1997.02 329V307.036H2001.08V316.27H2006.29V307.036H2010.36V329H2006.29V319.234H2001.08V329H1997.02ZM2015.41 319.082V316.004H2023.88V319.082H2015.41ZM2029.29 329V298.22H2042.51V301.336H2033.58V311.026H2034.53C2036.76 311.026 2038.6 311.292 2040.04 311.824C2041.51 312.331 2042.6 313.23 2043.31 314.522C2044.05 315.814 2044.41 317.638 2044.41 319.994C2044.41 321.59 2044.22 322.958 2043.84 324.098C2043.46 325.213 2042.87 326.137 2042.06 326.872C2041.27 327.607 2040.27 328.151 2039.06 328.506C2037.87 328.835 2036.43 329 2034.76 329H2029.29ZM2033.58 325.922H2034.8C2036.07 325.922 2037.11 325.783 2037.92 325.504C2038.75 325.2 2039.36 324.617 2039.74 323.756C2040.15 322.895 2040.35 321.628 2040.35 319.956C2040.35 317.853 2039.94 316.359 2039.13 315.472C2038.35 314.585 2036.87 314.142 2034.69 314.142H2033.58V325.922ZM2052.82 329.304C2051.96 329.304 2051.2 329.063 2050.54 328.582C2049.88 328.075 2049.36 327.442 2048.98 326.682C2048.6 325.897 2048.41 325.073 2048.41 324.212C2048.41 322.844 2048.64 321.691 2049.09 320.754C2049.55 319.817 2050.17 319.031 2050.96 318.398C2051.77 317.739 2052.69 317.169 2053.73 316.688C2054.79 316.207 2055.91 315.738 2057.07 315.282V313.724C2057.07 312.837 2057.02 312.103 2056.92 311.52C2056.82 310.937 2056.61 310.507 2056.28 310.228C2055.97 309.924 2055.5 309.772 2054.87 309.772C2054.31 309.772 2053.86 309.899 2053.5 310.152C2053.17 310.405 2052.93 310.773 2052.78 311.254C2052.63 311.71 2052.55 312.255 2052.55 312.888V313.99L2048.52 313.838C2048.57 311.406 2049.13 309.62 2050.2 308.48C2051.26 307.315 2052.91 306.732 2055.14 306.732C2057.31 306.732 2058.86 307.327 2059.77 308.518C2060.68 309.709 2061.14 311.431 2061.14 313.686V323.718C2061.14 324.402 2061.15 325.061 2061.18 325.694C2061.23 326.327 2061.28 326.923 2061.33 327.48C2061.41 328.012 2061.47 328.519 2061.52 329H2057.8C2057.72 328.595 2057.62 328.088 2057.49 327.48C2057.39 326.847 2057.31 326.277 2057.26 325.77C2057.01 326.631 2056.52 327.442 2055.78 328.202C2055.07 328.937 2054.08 329.304 2052.82 329.304ZM2054.41 325.808C2054.82 325.808 2055.2 325.694 2055.55 325.466C2055.91 325.238 2056.23 324.985 2056.5 324.706C2056.78 324.402 2056.97 324.161 2057.07 323.984V317.752C2056.44 318.107 2055.85 318.461 2055.29 318.816C2054.73 319.171 2054.24 319.551 2053.81 319.956C2053.4 320.336 2053.07 320.779 2052.82 321.286C2052.59 321.767 2052.48 322.325 2052.48 322.958C2052.48 323.845 2052.64 324.541 2052.97 325.048C2053.3 325.555 2053.78 325.808 2054.41 325.808ZM2068.66 329V310.076H2064.55V307.036H2076.86V310.076H2072.72V329H2068.66ZM2086.28 329.304C2084.66 329.304 2083.38 328.975 2082.44 328.316C2081.51 327.657 2080.84 326.72 2080.43 325.504C2080.05 324.288 2079.86 322.857 2079.86 321.21V314.826C2079.86 313.179 2080.05 311.748 2080.43 310.532C2080.84 309.316 2081.51 308.379 2082.44 307.72C2083.38 307.061 2084.66 306.732 2086.28 306.732C2087.9 306.732 2089.17 307.061 2090.08 307.72C2091.02 308.379 2091.68 309.316 2092.06 310.532C2092.46 311.748 2092.67 313.179 2092.67 314.826V321.21C2092.67 322.857 2092.46 324.288 2092.06 325.504C2091.68 326.72 2091.02 327.657 2090.08 328.316C2089.17 328.975 2087.9 329.304 2086.28 329.304ZM2086.28 326.302C2087.07 326.302 2087.61 326.074 2087.92 325.618C2088.25 325.162 2088.44 324.567 2088.49 323.832C2088.56 323.072 2088.6 322.287 2088.6 321.476V314.598C2088.6 313.762 2088.56 312.977 2088.49 312.242C2088.44 311.507 2088.25 310.912 2087.92 310.456C2087.61 309.975 2087.07 309.734 2086.28 309.734C2085.5 309.734 2084.94 309.975 2084.61 310.456C2084.28 310.912 2084.08 311.507 2084 312.242C2083.95 312.977 2083.93 313.762 2083.93 314.598V321.476C2083.93 322.287 2083.95 323.072 2084 323.832C2084.08 324.567 2084.28 325.162 2084.61 325.618C2084.94 326.074 2085.5 326.302 2086.28 326.302ZM2097.52 336.22V307.036H2101.59V308.784C2102.07 308.227 2102.65 307.745 2103.34 307.34C2104.02 306.935 2104.83 306.732 2105.77 306.732C2106.91 306.732 2107.81 307.036 2108.47 307.644C2109.15 308.227 2109.66 308.974 2109.99 309.886C2110.32 310.773 2110.53 311.685 2110.63 312.622C2110.73 313.534 2110.78 314.319 2110.78 314.978V320.298C2110.78 321.843 2110.63 323.313 2110.33 324.706C2110.02 326.074 2109.47 327.189 2108.66 328.05C2107.87 328.886 2106.76 329.304 2105.31 329.304C2104.53 329.304 2103.83 329.114 2103.22 328.734C2102.61 328.329 2102.07 327.873 2101.59 327.366V336.22H2097.52ZM2104.51 326.112C2105.22 326.112 2105.73 325.859 2106.03 325.352C2106.34 324.82 2106.53 324.111 2106.6 323.224C2106.68 322.337 2106.72 321.362 2106.72 320.298V314.978C2106.72 314.066 2106.67 313.23 2106.57 312.47C2106.47 311.685 2106.25 311.064 2105.92 310.608C2105.59 310.152 2105.07 309.924 2104.36 309.924C2103.83 309.924 2103.32 310.038 2102.84 310.266C2102.36 310.494 2101.94 310.76 2101.59 311.064V325.124C2101.97 325.403 2102.4 325.643 2102.88 325.846C2103.36 326.023 2103.91 326.112 2104.51 326.112ZM2121.63 329.304C2119.83 329.304 2118.46 328.949 2117.52 328.24C2116.61 327.505 2115.99 326.479 2115.66 325.162C2115.36 323.845 2115.2 322.312 2115.2 320.564V315.51C2115.2 313.661 2115.37 312.09 2115.7 310.798C2116.03 309.481 2116.65 308.48 2117.56 307.796C2118.5 307.087 2119.85 306.732 2121.63 306.732C2123.22 306.732 2124.45 306.998 2125.31 307.53C2126.2 308.037 2126.81 308.809 2127.14 309.848C2127.46 310.861 2127.63 312.128 2127.63 313.648V314.94H2123.94V313.61C2123.94 312.647 2123.88 311.887 2123.75 311.33C2123.63 310.773 2123.4 310.367 2123.07 310.114C2122.74 309.861 2122.27 309.734 2121.66 309.734C2121 309.734 2120.5 309.886 2120.14 310.19C2119.79 310.494 2119.55 311.013 2119.42 311.748C2119.32 312.457 2119.27 313.433 2119.27 314.674V321.59C2119.27 323.465 2119.45 324.719 2119.8 325.352C2120.16 325.985 2120.79 326.302 2121.7 326.302C2122.39 326.302 2122.88 326.15 2123.18 325.846C2123.51 325.517 2123.72 325.061 2123.79 324.478C2123.89 323.895 2123.94 323.237 2123.94 322.502V320.716H2127.63V322.236C2127.63 323.705 2127.45 324.972 2127.1 326.036C2126.77 327.1 2126.16 327.911 2125.27 328.468C2124.41 329.025 2123.2 329.304 2121.63 329.304ZM2132.38 329V307.036H2136.45V316.308H2137.59L2141.73 307.036H2145.91L2141.31 317.676L2145.99 329H2141.73L2137.59 318.74H2136.45V329H2132.38ZM2149.3 329V307.036H2152.72V321.818L2159.33 307.036H2162.52V329H2159.18V314.104L2152.6 329H2149.3ZM2167.8 329V307.036H2171.22V321.818L2177.84 307.036H2181.03V329H2177.68V314.104L2171.11 329H2167.8ZM2174.53 304.642C2172.71 304.642 2171.41 304.148 2170.65 303.16C2169.92 302.172 2169.55 300.943 2169.55 299.474H2171.91C2171.93 300.386 2172.14 301.095 2172.52 301.602C2172.92 302.083 2173.59 302.324 2174.53 302.324C2175.49 302.324 2176.16 302.071 2176.54 301.564C2176.95 301.057 2177.15 300.361 2177.15 299.474H2179.55C2179.55 300.943 2179.17 302.172 2178.41 303.16C2177.67 304.148 2176.38 304.642 2174.53 304.642ZM2013.34 385.22V376.784H2012.96C2012.13 376.784 2011.26 376.683 2010.38 376.48C2009.49 376.252 2008.67 375.847 2007.91 375.264C2007.15 374.681 2006.53 373.833 2006.05 372.718C2005.59 371.603 2005.36 370.159 2005.36 368.386V364.434C2005.36 363.015 2005.55 361.799 2005.93 360.786C2006.34 359.773 2006.88 358.949 2007.57 358.316C2008.27 357.657 2009.07 357.176 2009.96 356.872C2010.87 356.568 2011.83 356.416 2012.85 356.416H2013.34V347.22H2017.1V356.416H2017.75C2019.09 356.416 2020.32 356.695 2021.44 357.252C2022.55 357.784 2023.44 358.645 2024.1 359.836C2024.78 361.001 2025.12 362.534 2025.12 364.434V368.386C2025.12 370.159 2024.89 371.603 2024.44 372.718C2023.98 373.833 2023.37 374.681 2022.61 375.264C2021.88 375.847 2021.07 376.252 2020.18 376.48C2019.32 376.683 2018.47 376.784 2017.64 376.784H2017.1V385.22H2013.34ZM2013.08 373.896H2013.34V359.076H2012.96C2012.18 359.076 2011.49 359.203 2010.91 359.456C2010.33 359.709 2009.87 360.178 2009.54 360.862C2009.21 361.546 2009.05 362.534 2009.05 363.826V368.348C2009.05 369.817 2009.2 370.957 2009.5 371.768C2009.81 372.553 2010.26 373.111 2010.87 373.44C2011.48 373.744 2012.21 373.896 2013.08 373.896ZM2017.1 373.896H2017.33C2018.22 373.896 2018.97 373.744 2019.57 373.44C2020.18 373.111 2020.64 372.553 2020.94 371.768C2021.27 370.957 2021.44 369.817 2021.44 368.348V363.826C2021.44 362.534 2021.27 361.546 2020.94 360.862C2020.61 360.178 2020.14 359.709 2019.54 359.456C2018.95 359.203 2018.26 359.076 2017.45 359.076H2017.1V373.896ZM2029.96 378V356.036H2033.38V370.818L2040 356.036H2043.19V378H2039.84V363.104L2033.27 378H2029.96ZM2047.07 378.19V375.112C2047.83 375.112 2048.42 374.96 2048.85 374.656C2049.31 374.352 2049.65 373.845 2049.88 373.136C2050.13 372.401 2050.32 371.426 2050.45 370.21C2050.57 368.969 2050.69 367.423 2050.79 365.574L2051.28 356.036H2062.8V378H2058.73V359.114H2054.86L2054.51 365.574C2054.39 368.082 2054.2 370.159 2053.94 371.806C2053.72 373.453 2053.35 374.745 2052.84 375.682C2052.33 376.594 2051.65 377.24 2050.79 377.62C2049.95 378 2048.86 378.19 2047.52 378.19H2047.07ZM2068.05 378V356.036H2071.47V370.818L2078.09 356.036H2081.28V378H2077.93V363.104L2071.36 378H2068.05ZM2090.51 378.304C2089.65 378.304 2088.89 378.063 2088.23 377.582C2087.58 377.075 2087.06 376.442 2086.68 375.682C2086.3 374.897 2086.11 374.073 2086.11 373.212C2086.11 371.844 2086.33 370.691 2086.79 369.754C2087.25 368.817 2087.87 368.031 2088.65 367.398C2089.46 366.739 2090.39 366.169 2091.43 365.688C2092.49 365.207 2093.6 364.738 2094.77 364.282V362.724C2094.77 361.837 2094.72 361.103 2094.62 360.52C2094.52 359.937 2094.3 359.507 2093.97 359.228C2093.67 358.924 2093.2 358.772 2092.57 358.772C2092.01 358.772 2091.55 358.899 2091.2 359.152C2090.87 359.405 2090.63 359.773 2090.48 360.254C2090.32 360.71 2090.25 361.255 2090.25 361.888V362.99L2086.22 362.838C2086.27 360.406 2086.83 358.62 2087.89 357.48C2088.96 356.315 2090.6 355.732 2092.83 355.732C2095.01 355.732 2096.56 356.327 2097.47 357.518C2098.38 358.709 2098.84 360.431 2098.84 362.686V372.718C2098.84 373.402 2098.85 374.061 2098.87 374.694C2098.92 375.327 2098.98 375.923 2099.03 376.48C2099.1 377.012 2099.17 377.519 2099.22 378H2095.49C2095.42 377.595 2095.31 377.088 2095.19 376.48C2095.09 375.847 2095.01 375.277 2094.96 374.77C2094.71 375.631 2094.21 376.442 2093.48 377.202C2092.77 377.937 2091.78 378.304 2090.51 378.304ZM2092.11 374.808C2092.52 374.808 2092.9 374.694 2093.25 374.466C2093.6 374.238 2093.92 373.985 2094.2 373.706C2094.48 373.402 2094.67 373.161 2094.77 372.984V366.752C2094.14 367.107 2093.54 367.461 2092.98 367.816C2092.43 368.171 2091.93 368.551 2091.5 368.956C2091.1 369.336 2090.77 369.779 2090.51 370.286C2090.29 370.767 2090.17 371.325 2090.17 371.958C2090.17 372.845 2090.34 373.541 2090.67 374.048C2091 374.555 2091.48 374.808 2092.11 374.808ZM2102.48 378.19V375.112C2103.24 375.112 2103.83 374.96 2104.26 374.656C2104.72 374.352 2105.06 373.845 2105.29 373.136C2105.54 372.401 2105.73 371.426 2105.86 370.21C2105.98 368.969 2106.1 367.423 2106.2 365.574L2106.69 356.036H2118.21V378H2114.14V359.114H2110.27L2109.92 365.574C2109.8 368.082 2109.61 370.159 2109.35 371.806C2109.13 373.453 2108.76 374.745 2108.25 375.682C2107.74 376.594 2107.06 377.24 2106.2 377.62C2105.36 378 2104.27 378.19 2102.93 378.19H2102.48Z" fill="white"/>
<path d="M2029.99 226.3C2028.31 226.3 2026.81 225.88 2025.49 225.04C2024.17 224.18 2023.13 222.94 2022.37 221.32C2021.61 219.68 2021.23 217.74 2021.23 215.5C2021.23 213.26 2021.61 211.33 2022.37 209.71C2023.13 208.07 2024.17 206.83 2025.49 205.99C2026.81 205.13 2028.31 204.7 2029.99 204.7C2031.67 204.7 2033.17 205.13 2034.49 205.99C2035.83 206.83 2036.88 208.07 2037.64 209.71C2038.4 211.33 2038.78 213.26 2038.78 215.5C2038.78 217.74 2038.4 219.68 2037.64 221.32C2036.88 222.94 2035.83 224.18 2034.49 225.04C2033.17 225.88 2031.67 226.3 2029.99 226.3ZM2029.99 222.91C2031.49 222.91 2032.67 222.29 2033.53 221.05C2034.41 219.81 2034.85 217.96 2034.85 215.5C2034.85 213.04 2034.41 211.19 2033.53 209.95C2032.67 208.71 2031.49 208.09 2029.99 208.09C2028.51 208.09 2027.33 208.71 2026.45 209.95C2025.59 211.19 2025.16 213.04 2025.16 215.5C2025.16 217.96 2025.59 219.81 2026.45 221.05C2027.33 222.29 2028.51 222.91 2029.99 222.91Z" fill="white"/>
<rect width="64" height="4" transform="matrix(-1 0 0 1 2062 247)" fill="#FFDD85"/>
<rect x="2051.27" y="251.344" width="14.9333" height="14.9333" transform="rotate(-45 2051.27 251.344)" fill="white"/>
<path d="M2298.77 334.586V325.922H2300.17C2300.6 325.567 2301.02 325.137 2301.43 324.63C2301.86 324.123 2302.25 323.465 2302.6 322.654C2302.98 321.818 2303.33 320.754 2303.63 319.462C2303.93 318.145 2304.2 316.498 2304.43 314.522C2304.68 312.546 2304.87 310.152 2305 307.34L2305.49 298.22H2318.37V325.922H2321.34V334.586H2318.03L2317.69 329H2302.41L2302.07 334.586H2298.77ZM2304.16 325.922H2314.12V301.412H2309.14L2308.84 308.366C2308.74 311.102 2308.57 313.407 2308.34 315.282C2308.14 317.131 2307.89 318.664 2307.58 319.88C2307.3 321.071 2306.97 322.046 2306.59 322.806C2306.24 323.541 2305.85 324.136 2305.42 324.592C2305.01 325.048 2304.59 325.491 2304.16 325.922ZM2325.02 334.51V331.394C2326.01 331.394 2326.8 331.343 2327.38 331.242C2327.96 331.166 2328.38 331.001 2328.63 330.748C2328.89 330.52 2329.01 330.191 2329.01 329.76C2329.01 329.532 2328.92 329.025 2328.75 328.24C2328.57 327.455 2328.38 326.619 2328.18 325.732L2323.77 307.036H2327.87L2330.84 323.452L2333.69 307.036H2337.79L2332.55 330.216C2332.32 331.28 2331.9 332.116 2331.29 332.724C2330.68 333.357 2329.9 333.813 2328.94 334.092C2328 334.371 2326.86 334.51 2325.52 334.51H2325.02ZM2347.5 329.304C2346.24 329.304 2345.13 329.025 2344.2 328.468C2343.26 327.885 2342.54 327.037 2342.03 325.922C2341.55 324.782 2341.31 323.376 2341.31 321.704V308.784C2341.31 306.859 2341.45 305.288 2341.73 304.072C2342.03 302.856 2342.5 301.893 2343.13 301.184C2343.77 300.475 2344.59 299.917 2345.6 299.512C2346.67 299.081 2347.62 298.777 2348.45 298.6C2349.29 298.423 2350.09 298.233 2350.85 298.03C2351.63 297.802 2352.43 297.447 2353.24 296.966L2354.08 300.348C2353.37 300.804 2352.58 301.146 2351.72 301.374C2350.89 301.577 2350.05 301.767 2349.21 301.944C2348.38 302.096 2347.59 302.349 2346.86 302.704C2346.12 303.059 2345.55 303.603 2345.15 304.338C2344.74 305.047 2344.54 306.035 2344.54 307.302V310.836C2344.87 310.507 2345.3 310.203 2345.83 309.924C2346.36 309.62 2346.93 309.367 2347.54 309.164C2348.17 308.961 2348.77 308.86 2349.33 308.86C2350.24 308.86 2351.08 309.101 2351.84 309.582C2352.6 310.063 2353.2 310.887 2353.66 312.052C2354.12 313.192 2354.34 314.75 2354.34 316.726V320.906C2354.34 323.211 2354.05 324.972 2353.47 326.188C2352.89 327.379 2352.08 328.202 2351.04 328.658C2350.02 329.089 2348.85 329.304 2347.5 329.304ZM2347.88 326.302C2348.44 326.302 2348.88 326.175 2349.21 325.922C2349.57 325.643 2349.82 325.2 2349.97 324.592C2350.15 323.984 2350.24 323.173 2350.24 322.16V315.51C2350.24 314.573 2350.18 313.825 2350.05 313.268C2349.92 312.711 2349.72 312.305 2349.44 312.052C2349.16 311.773 2348.78 311.634 2348.3 311.634C2348.05 311.634 2347.76 311.685 2347.43 311.786C2347.12 311.862 2346.79 311.989 2346.44 312.166C2346.11 312.318 2345.76 312.521 2345.38 312.774V321.818C2345.38 322.882 2345.45 323.743 2345.6 324.402C2345.78 325.061 2346.05 325.542 2346.4 325.846C2346.78 326.15 2347.28 326.302 2347.88 326.302ZM2363.14 329.304C2362.28 329.304 2361.52 329.063 2360.86 328.582C2360.2 328.075 2359.68 327.442 2359.3 326.682C2358.92 325.897 2358.73 325.073 2358.73 324.212C2358.73 322.844 2358.96 321.691 2359.42 320.754C2359.87 319.817 2360.49 319.031 2361.28 318.398C2362.09 317.739 2363.01 317.169 2364.05 316.688C2365.12 316.207 2366.23 315.738 2367.4 315.282V313.724C2367.4 312.837 2367.35 312.103 2367.24 311.52C2367.14 310.937 2366.93 310.507 2366.6 310.228C2366.29 309.924 2365.83 309.772 2365.19 309.772C2364.63 309.772 2364.18 309.899 2363.82 310.152C2363.49 310.405 2363.25 310.773 2363.1 311.254C2362.95 311.71 2362.87 312.255 2362.87 312.888V313.99L2358.85 313.838C2358.9 311.406 2359.45 309.62 2360.52 308.48C2361.58 307.315 2363.23 306.732 2365.46 306.732C2367.64 306.732 2369.18 307.327 2370.09 308.518C2371.01 309.709 2371.46 311.431 2371.46 313.686V323.718C2371.46 324.402 2371.47 325.061 2371.5 325.694C2371.55 326.327 2371.6 326.923 2371.65 327.48C2371.73 328.012 2371.79 328.519 2371.84 329H2368.12C2368.04 328.595 2367.94 328.088 2367.81 327.48C2367.71 326.847 2367.64 326.277 2367.59 325.77C2367.33 326.631 2366.84 327.442 2366.1 328.202C2365.39 328.937 2364.41 329.304 2363.14 329.304ZM2364.74 325.808C2365.14 325.808 2365.52 325.694 2365.88 325.466C2366.23 325.238 2366.55 324.985 2366.83 324.706C2367.1 324.402 2367.29 324.161 2367.4 323.984V317.752C2366.76 318.107 2366.17 318.461 2365.61 318.816C2365.05 319.171 2364.56 319.551 2364.13 319.956C2363.72 320.336 2363.39 320.779 2363.14 321.286C2362.91 321.767 2362.8 322.325 2362.8 322.958C2362.8 323.845 2362.96 324.541 2363.29 325.048C2363.62 325.555 2364.1 325.808 2364.74 325.808ZM2376.51 329V307.036H2379.93V321.818L2386.54 307.036H2389.73V329H2386.39V314.104L2379.81 329H2376.51ZM2383.23 304.642C2381.41 304.642 2380.12 304.148 2379.36 303.16C2378.62 302.172 2378.26 300.943 2378.26 299.474H2380.61C2380.64 300.386 2380.84 301.095 2381.22 301.602C2381.62 302.083 2382.3 302.324 2383.23 302.324C2384.2 302.324 2384.87 302.071 2385.25 301.564C2385.65 301.057 2385.86 300.361 2385.86 299.474H2388.25C2388.25 300.943 2387.87 302.172 2387.11 303.16C2386.37 304.148 2385.08 304.642 2383.23 304.642ZM2401.02 329.304C2399.22 329.304 2397.85 328.949 2396.91 328.24C2396 327.505 2395.38 326.479 2395.05 325.162C2394.75 323.845 2394.6 322.312 2394.6 320.564V315.51C2394.6 313.661 2394.76 312.09 2395.09 310.798C2395.42 309.481 2396.04 308.48 2396.95 307.796C2397.89 307.087 2399.25 306.732 2401.02 306.732C2402.61 306.732 2403.84 306.998 2404.7 307.53C2405.59 308.037 2406.2 308.809 2406.53 309.848C2406.86 310.861 2407.02 312.128 2407.02 313.648V314.94H2403.34V313.61C2403.34 312.647 2403.27 311.887 2403.15 311.33C2403.02 310.773 2402.79 310.367 2402.46 310.114C2402.13 309.861 2401.66 309.734 2401.06 309.734C2400.4 309.734 2399.89 309.886 2399.54 310.19C2399.18 310.494 2398.94 311.013 2398.81 311.748C2398.71 312.457 2398.66 313.433 2398.66 314.674V321.59C2398.66 323.465 2398.84 324.719 2399.19 325.352C2399.55 325.985 2400.18 326.302 2401.09 326.302C2401.78 326.302 2402.27 326.15 2402.58 325.846C2402.91 325.517 2403.11 325.061 2403.18 324.478C2403.29 323.895 2403.34 323.237 2403.34 322.502V320.716H2407.02V322.236C2407.02 323.705 2406.85 324.972 2406.49 326.036C2406.16 327.1 2405.55 327.911 2404.67 328.468C2403.81 329.025 2402.59 329.304 2401.02 329.304ZM2411.78 329V307.036H2415.84V316.308H2416.98L2421.13 307.036H2425.31L2420.71 317.676L2425.38 329H2421.13L2416.98 318.74H2415.84V329H2411.78ZM2428.69 329V307.036H2432.11V321.818L2438.72 307.036H2441.91V329H2438.57V314.104L2432 329H2428.69ZM2447.2 329V307.036H2450.62V321.818L2457.23 307.036H2460.42V329H2457.08V314.104L2450.5 329H2447.2ZM2453.92 304.642C2452.1 304.642 2450.81 304.148 2450.05 303.16C2449.31 302.172 2448.94 300.943 2448.94 299.474H2451.3C2451.33 300.386 2451.53 301.095 2451.91 301.602C2452.31 302.083 2452.98 302.324 2453.92 302.324C2454.88 302.324 2455.56 302.071 2455.94 301.564C2456.34 301.057 2456.54 300.361 2456.54 299.474H2458.94C2458.94 300.943 2458.56 302.172 2457.8 303.16C2457.06 304.148 2455.77 304.642 2453.92 304.642ZM2332.34 385.22V376.784H2331.96C2331.13 376.784 2330.26 376.683 2329.38 376.48C2328.49 376.252 2327.67 375.847 2326.91 375.264C2326.15 374.681 2325.53 373.833 2325.05 372.718C2324.59 371.603 2324.36 370.159 2324.36 368.386V364.434C2324.36 363.015 2324.55 361.799 2324.93 360.786C2325.34 359.773 2325.88 358.949 2326.57 358.316C2327.27 357.657 2328.07 357.176 2328.96 356.872C2329.87 356.568 2330.83 356.416 2331.85 356.416H2332.34V347.22H2336.1V356.416H2336.75C2338.09 356.416 2339.32 356.695 2340.44 357.252C2341.55 357.784 2342.44 358.645 2343.1 359.836C2343.78 361.001 2344.12 362.534 2344.12 364.434V368.386C2344.12 370.159 2343.89 371.603 2343.44 372.718C2342.98 373.833 2342.37 374.681 2341.61 375.264C2340.88 375.847 2340.07 376.252 2339.18 376.48C2338.32 376.683 2337.47 376.784 2336.64 376.784H2336.1V385.22H2332.34ZM2332.08 373.896H2332.34V359.076H2331.96C2331.18 359.076 2330.49 359.203 2329.91 359.456C2329.33 359.709 2328.87 360.178 2328.54 360.862C2328.21 361.546 2328.05 362.534 2328.05 363.826V368.348C2328.05 369.817 2328.2 370.957 2328.5 371.768C2328.81 372.553 2329.26 373.111 2329.87 373.44C2330.48 373.744 2331.21 373.896 2332.08 373.896ZM2336.1 373.896H2336.33C2337.22 373.896 2337.97 373.744 2338.57 373.44C2339.18 373.111 2339.64 372.553 2339.94 371.768C2340.27 370.957 2340.44 369.817 2340.44 368.348V363.826C2340.44 362.534 2340.27 361.546 2339.94 360.862C2339.61 360.178 2339.14 359.709 2338.54 359.456C2337.95 359.203 2337.26 359.076 2336.45 359.076H2336.1V373.896ZM2348.96 378V356.036H2352.38V370.818L2359 356.036H2362.19V378H2358.84V363.104L2352.27 378H2348.96ZM2366.07 378.19V375.112C2366.83 375.112 2367.42 374.96 2367.85 374.656C2368.31 374.352 2368.65 373.845 2368.88 373.136C2369.13 372.401 2369.32 371.426 2369.45 370.21C2369.57 368.969 2369.69 367.423 2369.79 365.574L2370.28 356.036H2381.8V378H2377.73V359.114H2373.86L2373.51 365.574C2373.39 368.082 2373.2 370.159 2372.94 371.806C2372.72 373.453 2372.35 374.745 2371.84 375.682C2371.33 376.594 2370.65 377.24 2369.79 377.62C2368.95 378 2367.86 378.19 2366.52 378.19H2366.07ZM2387.05 378V356.036H2390.47V370.818L2397.09 356.036H2400.28V378H2396.93V363.104L2390.36 378H2387.05ZM2409.51 378.304C2408.65 378.304 2407.89 378.063 2407.23 377.582C2406.58 377.075 2406.06 376.442 2405.68 375.682C2405.3 374.897 2405.11 374.073 2405.11 373.212C2405.11 371.844 2405.33 370.691 2405.79 369.754C2406.25 368.817 2406.87 368.031 2407.65 367.398C2408.46 366.739 2409.39 366.169 2410.43 365.688C2411.49 365.207 2412.6 364.738 2413.77 364.282V362.724C2413.77 361.837 2413.72 361.103 2413.62 360.52C2413.52 359.937 2413.3 359.507 2412.97 359.228C2412.67 358.924 2412.2 358.772 2411.57 358.772C2411.01 358.772 2410.55 358.899 2410.2 359.152C2409.87 359.405 2409.63 359.773 2409.48 360.254C2409.32 360.71 2409.25 361.255 2409.25 361.888V362.99L2405.22 362.838C2405.27 360.406 2405.83 358.62 2406.89 357.48C2407.96 356.315 2409.6 355.732 2411.83 355.732C2414.01 355.732 2415.56 356.327 2416.47 357.518C2417.38 358.709 2417.84 360.431 2417.84 362.686V372.718C2417.84 373.402 2417.85 374.061 2417.87 374.694C2417.92 375.327 2417.98 375.923 2418.03 376.48C2418.1 377.012 2418.17 377.519 2418.22 378H2414.49C2414.42 377.595 2414.31 377.088 2414.19 376.48C2414.09 375.847 2414.01 375.277 2413.96 374.77C2413.71 375.631 2413.21 376.442 2412.48 377.202C2411.77 377.937 2410.78 378.304 2409.51 378.304ZM2411.11 374.808C2411.52 374.808 2411.9 374.694 2412.25 374.466C2412.6 374.238 2412.92 373.985 2413.2 373.706C2413.48 373.402 2413.67 373.161 2413.77 372.984V366.752C2413.14 367.107 2412.54 367.461 2411.98 367.816C2411.43 368.171 2410.93 368.551 2410.5 368.956C2410.1 369.336 2409.77 369.779 2409.51 370.286C2409.29 370.767 2409.17 371.325 2409.17 371.958C2409.17 372.845 2409.34 373.541 2409.67 374.048C2410 374.555 2410.48 374.808 2411.11 374.808ZM2421.48 378.19V375.112C2422.24 375.112 2422.83 374.96 2423.26 374.656C2423.72 374.352 2424.06 373.845 2424.29 373.136C2424.54 372.401 2424.73 371.426 2424.86 370.21C2424.98 368.969 2425.1 367.423 2425.2 365.574L2425.69 356.036H2437.21V378H2433.14V359.114H2429.27L2428.92 365.574C2428.8 368.082 2428.61 370.159 2428.35 371.806C2428.13 373.453 2427.76 374.745 2427.25 375.682C2426.74 376.594 2426.06 377.24 2425.2 377.62C2424.36 378 2423.27 378.19 2421.93 378.19H2421.48Z" fill="white"/>
<path d="M2348.99 226.3C2347.31 226.3 2345.81 225.88 2344.49 225.04C2343.17 224.18 2342.13 222.94 2341.37 221.32C2340.61 219.68 2340.23 217.74 2340.23 215.5C2340.23 213.26 2340.61 211.33 2341.37 209.71C2342.13 208.07 2343.17 206.83 2344.49 205.99C2345.81 205.13 2347.31 204.7 2348.99 204.7C2350.67 204.7 2352.17 205.13 2353.49 205.99C2354.83 206.83 2355.88 208.07 2356.64 209.71C2357.4 211.33 2357.78 213.26 2357.78 215.5C2357.78 217.74 2357.4 219.68 2356.64 221.32C2355.88 222.94 2354.83 224.18 2353.49 225.04C2352.17 225.88 2350.67 226.3 2348.99 226.3ZM2348.99 222.91C2350.49 222.91 2351.67 222.29 2352.53 221.05C2353.41 219.81 2353.85 217.96 2353.85 215.5C2353.85 213.04 2353.41 211.19 2352.53 209.95C2351.67 208.71 2350.49 208.09 2348.99 208.09C2347.51 208.09 2346.33 208.71 2345.45 209.95C2344.59 211.19 2344.16 213.04 2344.16 215.5C2344.16 217.96 2344.59 219.81 2345.45 221.05C2346.33 222.29 2347.51 222.91 2348.99 222.91Z" fill="white"/>
<rect width="64" height="4" transform="matrix(-1 0 0 1 2381 247)" fill="#FFDD85"/>
<rect x="2370.27" y="251.344" width="14.9333" height="14.9333" transform="rotate(-45 2370.27 251.344)" fill="white"/>
</svg>
