<svg xmlns="http://www.w3.org/2000/svg" width="21" height="21" fill="none">
  <path fill-rule="evenodd" clip-rule="evenodd" d="M1.37789.711031C1.87911.192003 2.68521.198213 3.17838.724903L10.6196 8.67203 18.1824.840503c.5013-.519027 1.3074-.512817 1.8005.013873.4932.526684.4867 1.374414-.0146 1.893434l-7.5628 7.83149 7.4413 7.9472c.4931.5266.4866 1.3744-.0146 1.8934-.5012.519-1.3073.5128-1.8005-.0139l-7.4413-7.9471-7.56277 7.8315c-.50122.5191-1.30732.5128-1.80049-.0138-.493159-.5267-.486627-1.3745.01459-1.8935l7.56282-7.8315L1.3633 2.60447C.870138 2.07778.87667 1.23006 1.37789.711031Z" fill="#217AFF"/>
</svg>