<svg width="93" height="94" viewBox="0 0 93 94" fill="none" xmlns="http://www.w3.org/2000/svg">
<g filter="url(#filter0_d_159_841)">
<ellipse cx="46.5002" cy="44.8476" rx="36.5" ry="36.8476" fill="white"/>
</g>
<path d="M39.9314 27.9027C37.9379 29.5643 35.6319 33.3213 35.6319 33.3213L24.7463 54.918C24.2245 55.9525 23.969 57.1007 24.003 58.2588C24.037 59.4169 24.3594 60.5483 24.941 61.5503C25.5226 62.5523 26.345 63.3934 27.3337 63.9974C28.3225 64.6014 29.4463 64.9491 30.6033 65.0091C34.0792 65.1811 37.2306 63.0713 38.8147 59.9829L51.2772 35.6321C51.2772 35.6321 41.9249 26.2386 39.9314 27.9027Z" fill="url(#paint0_linear_159_841)"/>
<path d="M35.627 33.3218C37.0803 30.4805 40.1372 31.0715 41.0915 32.9802L46.8395 44.1904L48.9081 48.2234L52.1467 54.5431C52.7344 55.6698 53.0195 56.9299 52.9741 58.2C52.9286 59.47 52.5542 60.7065 51.8874 61.7883C51.2206 62.8702 50.2843 63.7604 49.1702 64.3718C48.056 64.9831 46.8022 65.2947 45.5315 65.2761H62.5527C63.8234 65.2947 65.0772 64.9831 66.1913 64.3718C67.3054 63.7604 68.2417 62.8702 68.9085 61.7883C69.5753 60.7065 69.9498 59.47 69.9952 58.2C70.0407 56.9299 69.7556 55.6698 69.1678 54.5431L53.4935 23.9549C50.7612 18.6817 43.2183 18.6817 40.486 23.9549L35.627 33.3218Z" fill="url(#paint1_linear_159_841)"/>
<path d="M48.9132 48.2227H35.4309C35.1325 48.2221 34.839 48.298 34.5782 48.4429C34.3173 48.5879 34.098 48.7972 33.9409 49.0509C33.7838 49.3046 33.6943 49.5943 33.6807 49.8924C33.6672 50.1905 33.7302 50.487 33.8637 50.7539L39.137 61.3198C39.5708 62.1941 40.1746 62.9732 40.9132 63.6114C41.6518 64.2495 42.5103 64.7339 43.4383 65.0363C44.3664 65.3386 45.3455 65.4528 46.3182 65.3721C47.291 65.2914 48.2379 65.0176 49.1035 64.5665C49.9691 64.1154 50.736 63.4962 51.3594 62.7451C51.9827 61.994 52.45 61.1261 52.7339 60.1922C53.0177 59.2582 53.1124 58.2771 53.0125 57.3062C52.9125 56.3352 52.6199 55.3939 52.1517 54.5375L48.9132 48.2227Z" fill="url(#paint2_linear_159_841)"/>
<defs>
<filter id="filter0_d_159_841" x="0.000244141" y="0" width="93" height="93.6953" filterUnits="userSpaceOnUse" color-interpolation-filters="sRGB">
<feFlood flood-opacity="0" result="BackgroundImageFix"/>
<feColorMatrix in="SourceAlpha" type="matrix" values="0 0 0 0 0 0 0 0 0 0 0 0 0 0 0 0 0 0 127 0" result="hardAlpha"/>
<feOffset dy="2"/>
<feGaussianBlur stdDeviation="5"/>
<feColorMatrix type="matrix" values="0 0 0 0 0 0 0 0 0 0 0 0 0 0 0 0 0 0 0.1 0"/>
<feBlend mode="normal" in2="BackgroundImageFix" result="effect1_dropShadow_159_841"/>
<feBlend mode="normal" in="SourceGraphic" in2="effect1_dropShadow_159_841" result="shape"/>
</filter>
<linearGradient id="paint0_linear_159_841" x1="26.6986" y1="60.8501" x2="45.3306" y2="35.7387" gradientUnits="userSpaceOnUse">
<stop stop-color="#00A2FF"/>
<stop offset="0.14" stop-color="#009BF6"/>
<stop offset="0.38" stop-color="#0089DD"/>
<stop offset="0.67" stop-color="#006CB5"/>
<stop offset="1" stop-color="#004680"/>
</linearGradient>
<linearGradient id="paint1_linear_159_841" x1="52.8201" y1="65.3923" x2="52.8201" y2="20.2101" gradientUnits="userSpaceOnUse">
<stop stop-color="#00DBFF"/>
<stop offset="0.35" stop-color="#00A2FF"/>
</linearGradient>
<linearGradient id="paint2_linear_159_841" x1="36.0219" y1="50.9404" x2="51.4832" y2="59.6678" gradientUnits="userSpaceOnUse">
<stop stop-color="#006DBA"/>
<stop offset="1" stop-color="#003873"/>
</linearGradient>
</defs>
</svg>
