<svg width="1805" height="1981" fill="none" xmlns="http://www.w3.org/2000/svg"><path d="M1220.64 425.037a696.119 696.119 0 00-409.356-130.25l1.28 227.734a468.347 468.347 0 01275.426 87.636l132.65-185.12z" fill="#6C38FF"/><path d="M809.464 227.086a763.572 763.572 0 00-354.219 90.042l115.945 217.06a517.469 517.469 0 01240.058-61.023l-1.784-246.079z" fill="#4CD382"/><path d="M139.765 877.206a684.19 684.19 0 0061.577 416.904 684.233 684.233 0 00294.206 301.73l102.853-195.2a463.528 463.528 0 01-199.33-204.43 463.53 463.53 0 01-41.72-282.454l-217.586-36.55z" fill="#2BD6FB"/><path d="M475.876 353.589a721.354 721.354 0 00-246.845 215.516 721.35 721.35 0 00-126.035 302.481l224.191 37.484a494.076 494.076 0 01255.386-354.776L475.876 353.589z" fill="#627DAE"/><path d="M844.549 1606.58a616.958 616.958 0 00351.311-131.26 616.994 616.994 0 00210.4-310.46 616.988 616.988 0 00-8.26-374.944 616.948 616.948 0 00-223.85-300.899l-117.04 163.119a416.27 416.27 0 01151.02 202.99 416.246 416.246 0 015.56 252.944 416.202 416.202 0 01-378.931 297.99l9.79 200.52z" fill="#217AFF"/><path d="M511.882 1564.87a649.034 649.034 0 00334.111 74.55l-9.881-208.74a440.255 440.255 0 01-226.545-50.55l-97.685 184.74z" fill="#EF8E8E"/></svg>