<svg width="1078" height="50" fill="none" xmlns="http://www.w3.org/2000/svg"><path d="M14.4 0H0l39.6 50H54L14.4 0zm125 0H125l39.6 50H179L139.4 0zm-63 0H62l39.6 50H116L76.4 0zm126 0H188l39.6 50H242L202.4 0zm105 0H293l39.6 50H347L307.4 0zm208 0H501l39.6 50H555L515.4 0zm210 0H711l39.6 50H765L725.4 0z" fill="#FB9B2B"/><path d="M971.932 49L933.916 1h-11.848l38.016 48h11.848z" stroke="#FB9B2B" stroke-width="2"/><path d="M411.4 0H397l39.6 50H451L411.4 0zm209 0H606l39.6 50H660L620.4 0z" fill="#FB9B2B"/><path d="M866.932 49L828.916 1h-11.848l38.016 48h11.848z" fill="#FB9B2B" stroke="#FB9B2B" stroke-width="2"/><path d="M1075.93 49l-38.01-48h-11.85l38.01 48h11.85z" stroke="#FB9B2B" stroke-width="2"/><path d="M34.4 0H20l39.6 50H74L34.4 0zm126 0H146l39.6 50H200L160.4 0zm105 0H251l39.6 50H305L265.4 0zm209 0H460l39.6 50H514L474.4 0zm209 0H669l39.6 50H723L683.4 0z" fill="#FB9B2B"/><path d="M929.932 49L891.916 1h-11.848l38.016 48h11.848z" stroke="#FB9B2B" stroke-width="2"/><path d="M369.4 0H355l39.6 50H409L369.4 0zm209 0H564l39.6 50H618L578.4 0z" fill="#FB9B2B"/><path d="M824.932 49L786.916 1h-11.848l38.016 48h11.848z" fill="#FB9B2B" stroke="#FB9B2B" stroke-width="2"/><path d="M1033.93 49L995.916 1h-11.848l38.012 48h11.85z" stroke="#FB9B2B" stroke-width="2"/><path d="M97.4 0H83l39.6 50H137L97.4 0zm126 0H209l39.6 50H263L223.4 0zm209 0H418l39.6 50H472L432.4 0zm209 0H627l39.6 50H681L641.4 0zm-314 0H313l39.6 50H367L327.4 0zm209 0H522l39.6 50H576L536.4 0z" fill="#FB9B2B"/><path d="M782.932 49L744.916 1h-11.848l38.016 48h11.848z" fill="#FB9B2B" stroke="#FB9B2B" stroke-width="2"/><path d="M991.932 49L953.916 1h-11.848l38.016 48h11.848z" stroke="#FB9B2B" stroke-width="2"/><path d="M55.4 0H41l39.6 50H95L55.4 0zm126 0H167l39.6 50H221L181.4 0zm105 0H272l39.6 50H326L286.4 0zm208 0H480l39.6 50H534L494.4 0zm210 0H690l39.6 50H744L704.4 0z" fill="#FB9B2B"/><path d="M950.932 49L912.916 1h-11.848l38.016 48h11.848z" stroke="#FB9B2B" stroke-width="2"/><path d="M390.4 0H376l39.6 50H430L390.4 0zm209 0H585l39.6 50H639L599.4 0z" fill="#FB9B2B"/><path d="M845.932 49L807.916 1h-11.848l38.016 48h11.848z" fill="#FB9B2B" stroke="#FB9B2B" stroke-width="2"/><path d="M1054.93 49l-38.01-48h-11.85l38.01 48h11.85z" stroke="#FB9B2B" stroke-width="2"/><path d="M118.4 0H104l39.6 50H158L118.4 0zm126 0H230l39.6 50H284L244.4 0zm209 0H439l39.6 50H493L453.4 0zm209 0H648l39.6 50H702L662.4 0z" fill="#FB9B2B"/><path d="M908.932 49L870.916 1h-11.848l38.016 48h11.848zm-21 0L849.916 1h-11.848l38.016 48h11.848z" stroke="#FB9B2B" stroke-width="2"/><path d="M348.4 0H334l39.6 50H388L348.4 0zm209 0H543l39.6 50H597L557.4 0z" fill="#FB9B2B"/><path d="M803.932 49L765.916 1h-11.848l38.016 48h11.848z" fill="#FB9B2B" stroke="#FB9B2B" stroke-width="2"/><path d="M1012.93 49L974.916 1h-11.848l38.012 48h11.85z" stroke="#FB9B2B" stroke-width="2"/></svg>