					<svg xmlns="http://www.w3.org/2000/svg" fill="none" class="science__logo"
									viewBox="0 0 1158 1179">
									<g filter="url(#a)">
										<path stroke="#44BCFF"
											d="M766.054 605.042c0 150.471-20.433 286.675-53.455 385.245-16.512 49.283-36.162 89.133-57.958 116.653-21.8 27.53-45.689 42.64-70.683 42.64-24.993 0-48.882-15.11-70.682-42.64-21.796-27.52-41.447-67.37-57.958-116.653-33.022-98.57-53.456-234.774-53.456-385.245 0-150.47 20.434-286.674 53.456-385.244 16.511-49.287 36.162-89.137 57.958-116.655 21.8-27.5238 45.689-42.643 70.682-42.643 24.994 0 48.883 15.1192 70.683 42.643 21.796 27.518 41.446 67.368 57.958 116.655 33.022 98.57 53.455 234.774 53.455 385.244Z" />
									</g>
									<g filter="url(#b)" opacity=".5">
										<circle cx="840" cy="32" r="1" fill="#44BCFF" />
									</g>
									<g filter="url(#c)">
										<path stroke="#44BCFF"
											d="M583.958 787.138c-150.471 0-286.675-20.433-385.245-53.455-49.287-16.512-89.137-36.162-116.6551-57.958-27.5235-21.8-42.6426-45.689-42.6426-70.683 0-24.993 15.1191-48.882 42.6426-70.682 27.5181-21.796 67.3681-41.447 116.6551-57.959 98.57-33.022 234.774-53.455 385.245-53.455 150.47 0 286.674 20.433 385.244 53.456 49.288 16.511 89.138 36.162 116.658 57.958 27.52 21.8 42.64 45.689 42.64 70.682 0 24.994-15.12 48.883-42.64 70.683-27.52 21.796-67.37 41.446-116.658 57.958-98.57 33.022-234.774 53.455-385.244 53.455Z" />
									</g>
									<g filter="url(#d)">
										<path stroke="#44BCFF"
											d="M455.196 733.803c-106.398-106.398-188.261-217.158-234.61-310.207-23.176-46.527-37.459-88.601-41.505-123.471-4.047-34.877 2.154-62.46 19.827-80.133 17.673-17.673 45.256-23.874 80.133-19.827 34.87 4.046 76.943 18.329 123.47 41.505 93.05 46.349 203.809 128.212 310.208 234.61 106.398 106.399 188.261 217.159 234.61 310.208 23.176 46.527 37.459 88.6 41.505 123.47 4.047 34.877-2.154 62.46-19.827 80.133-17.673 17.669-45.256 23.879-80.133 19.829-34.87-4.05-76.943-18.331-123.47-41.507-93.05-46.349-203.809-128.211-310.208-234.61Z" />
									</g>
									<g filter="url(#e)">
										<path stroke="#44BCFF"
											d="M712.719 733.804c-106.398 106.398-217.158 188.261-310.207 234.61-46.527 23.176-88.6 37.456-123.471 41.506-34.877 4.05-62.46-2.15-80.133-19.828-17.673-17.673-23.874-45.256-19.827-80.133 4.046-34.87 18.329-76.943 41.505-123.47 46.349-93.05 128.212-203.809 234.611-310.208 106.398-106.398 217.158-188.261 310.207-234.61 46.527-23.176 88.6-37.459 123.47-41.505 34.877-4.047 62.46 2.154 80.133 19.827 17.673 17.673 23.875 45.256 19.828 80.133-4.046 34.87-18.33 76.943-41.505 123.47-46.35 93.05-128.212 203.809-234.611 310.208Z" />
									</g>
									<g filter="url(#f)">
										<circle cx="581.67" cy="610.993" r="27.3305" fill="url(#g)" />
									</g>
									<g filter="url(#h)">
										<circle cx="194.511" cy="224.748" r="13.489" fill="#44BCFF" />
									</g>
									<g filter="url(#i)">
										<circle cx="993.54" cy="273.259" r="22.4597" fill="#44BCFF" />
									</g>
									<g filter="url(#j)">
										<circle cx="53.5598" cy="646.688" r="5.44044" fill="#44BCFF" />
									</g>
									<g filter="url(#k)" opacity=".5">
										<circle cx="193" cy="1115" r="1" fill="#44BCFF" />
									</g>
									<g filter="url(#l)">
										<circle cx="729.373" cy="947.374" r="12.6267" fill="#44BCFF" />
									</g>
									<defs>
										<filter id="a" width="421.939" height="1146.83" x="372.989" y="31.6267"
											color-interpolation-filters="sRGB" filterUnits="userSpaceOnUse">
											<feFlood flood-opacity="0" result="BackgroundImageFix" />
											<feColorMatrix in="SourceAlpha" result="hardAlpha"
												values="0 0 0 0 0 0 0 0 0 0 0 0 0 0 0 0 0 0 127 0" />
											<feMorphology in="SourceAlpha" operator="dilate" radius=".915268"
												result="effect1_dropShadow_1627:1287" />
											<feOffset />
											<feGaussianBlur stdDeviation="13.729" />
											<feColorMatrix
												values="0 0 0 0 0.4875 0 0 0 0 0.90775 0 0 0 0 1 0 0 0 1 0" />
											<feBlend in2="BackgroundImageFix" result="effect1_dropShadow_1627:1287" />
											<feBlend in="SourceGraphic" in2="effect1_dropShadow_1627:1287"
												result="shape" />
										</filter>
										<filter id="b" width="64" height="64" x="808" y="0"
											color-interpolation-filters="sRGB" filterUnits="userSpaceOnUse">
											<feFlood flood-opacity="0" result="BackgroundImageFix" />
											<feColorMatrix in="SourceAlpha" result="hardAlpha"
												values="0 0 0 0 0 0 0 0 0 0 0 0 0 0 0 0 0 0 127 0" />
											<feMorphology in="SourceAlpha" operator="dilate" radius="10"
												result="effect1_dropShadow_1627:1287" />
											<feOffset />
											<feGaussianBlur stdDeviation="10.5" />
											<feColorMatrix
												values="0 0 0 0 0.168627 0 0 0 0 0.83749 0 0 0 0 0.984314 0 0 0 0.84 0" />
											<feBlend in2="BackgroundImageFix" result="effect1_dropShadow_1627:1287" />
											<feBlend in="SourceGraphic" in2="effect1_dropShadow_1627:1287"
												result="shape" />
										</filter>
										<filter id="c" width="1146.83" height="421.939" x="10.542" y="394.073"
											color-interpolation-filters="sRGB" filterUnits="userSpaceOnUse">
											<feFlood flood-opacity="0" result="BackgroundImageFix" />
											<feColorMatrix in="SourceAlpha" result="hardAlpha"
												values="0 0 0 0 0 0 0 0 0 0 0 0 0 0 0 0 0 0 127 0" />
											<feMorphology in="SourceAlpha" operator="dilate" radius=".915268"
												result="effect1_dropShadow_1627:1287" />
											<feOffset />
											<feGaussianBlur stdDeviation="13.729" />
											<feColorMatrix
												values="0 0 0 0 0.4875 0 0 0 0 0.90775 0 0 0 0 1 0 0 0 1 0" />
											<feBlend in2="BackgroundImageFix" result="effect1_dropShadow_1627:1287" />
											<feBlend in="SourceGraphic" in2="effect1_dropShadow_1627:1287"
												result="shape" />
										</filter>
										<filter id="d" width="869.879" height="869.878" x="149.018" y="170.102"
											color-interpolation-filters="sRGB" filterUnits="userSpaceOnUse">
											<feFlood flood-opacity="0" result="BackgroundImageFix" />
											<feColorMatrix in="SourceAlpha" result="hardAlpha"
												values="0 0 0 0 0 0 0 0 0 0 0 0 0 0 0 0 0 0 127 0" />
											<feMorphology in="SourceAlpha" operator="dilate" radius=".915268"
												result="effect1_dropShadow_1627:1287" />
											<feOffset />
											<feGaussianBlur stdDeviation="13.729" />
											<feColorMatrix
												values="0 0 0 0 0.4875 0 0 0 0 0.90775 0 0 0 0 1 0 0 0 1 0" />
											<feBlend in2="BackgroundImageFix" result="effect1_dropShadow_1627:1287" />
											<feBlend in="SourceGraphic" in2="effect1_dropShadow_1627:1287"
												result="shape" />
										</filter>
										<filter id="e" width="869.879" height="869.878" x="149.019" y="170.103"
											color-interpolation-filters="sRGB" filterUnits="userSpaceOnUse">
											<feFlood flood-opacity="0" result="BackgroundImageFix" />
											<feColorMatrix in="SourceAlpha" result="hardAlpha"
												values="0 0 0 0 0 0 0 0 0 0 0 0 0 0 0 0 0 0 127 0" />
											<feMorphology in="SourceAlpha" operator="dilate" radius=".915268"
												result="effect1_dropShadow_1627:1287" />
											<feOffset />
											<feGaussianBlur stdDeviation="13.729" />
											<feColorMatrix
												values="0 0 0 0 0.4875 0 0 0 0 0.90775 0 0 0 0 1 0 0 0 1 0" />
											<feBlend in2="BackgroundImageFix" result="effect1_dropShadow_1627:1287" />
											<feBlend in="SourceGraphic" in2="effect1_dropShadow_1627:1287"
												result="shape" />
										</filter>
										<filter id="f" width="245.339" height="245.339" x="459" y="488.323"
											color-interpolation-filters="sRGB" filterUnits="userSpaceOnUse">
											<feFlood flood-opacity="0" result="BackgroundImageFix" />
											<feColorMatrix in="SourceAlpha" result="hardAlpha"
												values="0 0 0 0 0 0 0 0 0 0 0 0 0 0 0 0 0 0 127 0" />
											<feMorphology in="SourceAlpha" operator="dilate" radius="31.7796"
												result="effect1_dropShadow_1627:1287" />
											<feOffset />
											<feGaussianBlur stdDeviation="31.7796" />
											<feColorMatrix
												values="0 0 0 0 0.168627 0 0 0 0 0.83749 0 0 0 0 0.984314 0 0 0 0.84 0" />
											<feBlend in2="BackgroundImageFix" result="effect1_dropShadow_1627:1287" />
											<feBlend in="SourceGraphic" in2="effect1_dropShadow_1627:1287"
												result="shape" />
										</filter>
										<filter id="h" width="182.621" height="182.621" x="103.201" y="133.437"
											color-interpolation-filters="sRGB" filterUnits="userSpaceOnUse">
											<feFlood flood-opacity="0" result="BackgroundImageFix" />
											<feColorMatrix in="SourceAlpha" result="hardAlpha"
												values="0 0 0 0 0 0 0 0 0 0 0 0 0 0 0 0 0 0 127 0" />
											<feMorphology in="SourceAlpha" operator="dilate" radius="25.9404"
												result="effect1_dropShadow_1627:1287" />
											<feOffset />
											<feGaussianBlur stdDeviation="25.9404" />
											<feColorMatrix
												values="0 0 0 0 0.168627 0 0 0 0 0.83749 0 0 0 0 0.984314 0 0 0 0.84 0" />
											<feBlend in2="BackgroundImageFix" result="effect1_dropShadow_1627:1287" />
											<feBlend in="SourceGraphic" in2="effect1_dropShadow_1627:1287"
												result="shape" />
										</filter>
										<filter id="i" width="262.271" height="262.271" x="862.405" y="142.123"
											color-interpolation-filters="sRGB" filterUnits="userSpaceOnUse">
											<feFlood flood-opacity="0" result="BackgroundImageFix" />
											<feColorMatrix in="SourceAlpha" result="hardAlpha"
												values="0 0 0 0 0 0 0 0 0 0 0 0 0 0 0 0 0 0 127 0" />
											<feMorphology in="SourceAlpha" operator="dilate" radius="36.2253"
												result="effect1_dropShadow_1627:1287" />
											<feOffset />
											<feGaussianBlur stdDeviation="36.2253" />
											<feColorMatrix
												values="0 0 0 0 0.168627 0 0 0 0 0.83749 0 0 0 0 0.984314 0 0 0 0.84 0" />
											<feBlend in2="BackgroundImageFix" result="effect1_dropShadow_1627:1287" />
											<feBlend in="SourceGraphic" in2="effect1_dropShadow_1627:1287"
												result="shape" />
										</filter>
										<filter id="j" width="106.889" height="106.889" x=".115522" y="593.243"
											color-interpolation-filters="sRGB" filterUnits="userSpaceOnUse">
											<feFlood flood-opacity="0" result="BackgroundImageFix" />
											<feColorMatrix in="SourceAlpha" result="hardAlpha"
												values="0 0 0 0 0 0 0 0 0 0 0 0 0 0 0 0 0 0 127 0" />
											<feMorphology in="SourceAlpha" operator="dilate" radius="16.0013"
												result="effect1_dropShadow_1627:1287" />
											<feOffset />
											<feGaussianBlur stdDeviation="16.0013" />
											<feColorMatrix
												values="0 0 0 0 0.168627 0 0 0 0 0.83749 0 0 0 0 0.984314 0 0 0 0.84 0" />
											<feBlend in2="BackgroundImageFix" result="effect1_dropShadow_1627:1287" />
											<feBlend in="SourceGraphic" in2="effect1_dropShadow_1627:1287"
												result="shape" />
										</filter>
										<filter id="k" width="64" height="64" x="161" y="1083"
											color-interpolation-filters="sRGB" filterUnits="userSpaceOnUse">
											<feFlood flood-opacity="0" result="BackgroundImageFix" />
											<feColorMatrix in="SourceAlpha" result="hardAlpha"
												values="0 0 0 0 0 0 0 0 0 0 0 0 0 0 0 0 0 0 127 0" />
											<feMorphology in="SourceAlpha" operator="dilate" radius="10"
												result="effect1_dropShadow_1627:1287" />
											<feOffset />
											<feGaussianBlur stdDeviation="10.5" />
											<feColorMatrix
												values="0 0 0 0 0.168627 0 0 0 0 0.83749 0 0 0 0 0.984314 0 0 0 0.84 0" />
											<feBlend in2="BackgroundImageFix" result="effect1_dropShadow_1627:1287" />
											<feBlend in="SourceGraphic" in2="effect1_dropShadow_1627:1287"
												result="shape" />
										</filter>
										<filter id="l" width="147.448" height="147.448" x="655.649" y="873.65"
											color-interpolation-filters="sRGB" filterUnits="userSpaceOnUse">
											<feFlood flood-opacity="0" result="BackgroundImageFix" />
											<feColorMatrix in="SourceAlpha" result="hardAlpha"
												values="0 0 0 0 0 0 0 0 0 0 0 0 0 0 0 0 0 0 127 0" />
											<feMorphology in="SourceAlpha" operator="dilate" radius="20.3657"
												result="effect1_dropShadow_1627:1287" />
											<feOffset />
											<feGaussianBlur stdDeviation="20.3657" />
											<feColorMatrix
												values="0 0 0 0 0.168627 0 0 0 0 0.83749 0 0 0 0 0.984314 0 0 0 0.84 0" />
											<feBlend in2="BackgroundImageFix" result="effect1_dropShadow_1627:1287" />
											<feBlend in="SourceGraphic" in2="effect1_dropShadow_1627:1287"
												result="shape" />
										</filter>
										<radialGradient id="g" cx="0" cy="0" r="1"
											gradientTransform="rotate(90 -14.6615 596.3315) scale(27.3305)"
											gradientUnits="userSpaceOnUse">
											<stop stop-color="#44BCFF" />
											<stop offset="1" stop-color="#44BCFF" stop-opacity="0" />
										</radialGradient>
									</defs>
								</svg>