<svg version="1.0" xmlns="http://www.w3.org/2000/svg" width="89.333" height="89.333" viewBox="0 0 67 67"><path d="M25 2.3C18.9 4 14 7.1 9.5 12.1c-6.1 6.7-8 12.1-8 21.9 0 7.9.3 9 3.6 15 4.1 7.5 10.7 13.1 18.3 15.6 7.5 2.5 18.7 1.6 25.5-2.1C68.1 52 71.8 26.3 56.3 10.6 48.8 2.9 35.3-.6 25 2.3zm9.4 13.3c.9.3 1.6 1.3 1.6 2.2 0 .8 1.4 2.7 3 4.1 2.6 2.2 3.3 4 4.7 10.6.8 4.4 2.2 8.4 2.9 8.8 1.9 1.1 1.8 4.3-.2 5.1-.9.3-6.9.6-13.4.6-9.6 0-12.2-.3-13.5-1.6-1.5-1.5-1.5-1.8.4-3.8 1.2-1.3 2.4-4.8 3.2-9.1 1-5.9 1.7-7.5 4.6-10.3 1.9-1.7 3.2-3.2 2.8-3.2-.3 0-.1-.9.5-2 1.2-2.2 1.2-2.2 3.4-1.4zM38 48.9c0 3.2-7.1 3.8-8.4.6-.4-1.2.4-1.5 3.9-1.5 2.5 0 4.5.4 4.5.9z" fill="#FD6A6A"/></svg>