<svg xmlns="http://www.w3.org/2000/svg" fill="none" viewBox="0 0 156 22"><g clip-path="url(#a)"><path fill="#0A132D" d="M122.56 14.644V4.302h-4.099v-3.17h12.072v3.17h-4.1v10.342h-3.873Zm-11.523.251c-1.308 0-2.481-.243-3.52-.73-1.04-.503-1.87-1.266-2.491-2.289-.603-1.023-.905-2.306-.905-3.849v-.503c0-1.476.293-2.7.88-3.673a5.581 5.581 0 0 1 2.39-2.188c1.022-.503 2.154-.755 3.395-.755 2.196 0 3.856.57 4.979 1.71 1.124 1.124 1.685 2.76 1.685 4.906v1.409h-9.355c.034.654.184 1.199.453 1.635a2.56 2.56 0 0 0 1.081.956c.436.184.905.277 1.408.277.738 0 1.317-.11 1.736-.328.435-.234.72-.545.854-.93h3.571c-.268 1.459-.93 2.549-1.986 3.27-1.056.721-2.448 1.082-4.175 1.082Zm-.126-10.893a3.9 3.9 0 0 0-1.332.227 2.21 2.21 0 0 0-1.031.754c-.252.336-.394.797-.428 1.384h5.533c0-.62-.126-1.099-.377-1.434a1.929 1.929 0 0 0-1.007-.73 4.274 4.274 0 0 0-1.358-.2Zm-15.76 10.642V4.302h-4.098v-3.17h12.071v3.17h-4.1v10.342h-3.873Zm-18.694 0V1.133h3.772v8.05l5.659-8.05h3.394v13.511H85.51V6.415l-5.658 8.229h-3.395Zm-15.475 4.954V1.122h3.572v1.811c.352-.537.871-1.023 1.559-1.459.704-.453 1.568-.68 2.59-.68 1.878 0 3.303.554 4.275 1.661.973 1.107 1.46 2.759 1.46 4.956v.503c0 1.51-.236 2.775-.705 3.798-.47 1.007-1.132 1.77-1.987 2.29-.855.52-1.87.78-3.043.78a4.873 4.873 0 0 1-2.163-.504 4.679 4.679 0 0 1-1.685-1.51v6.83h-3.873Zm6.79-8.011c.772 0 1.41-.31 1.912-.931.52-.637.78-1.551.78-2.742V7.41c0-1.157-.252-2.013-.755-2.566-.486-.57-1.131-.855-1.936-.855-.537 0-1.031.117-1.484.352a2.535 2.535 0 0 0-1.056 1.006c-.252.453-.378 1.015-.378 1.686V8.29c0 .688.126 1.283.378 1.786.268.487.62.864 1.056 1.132a3 3 0 0 0 1.484.378Zm-15.585 3.308c-1.241 0-2.381-.243-3.42-.73-1.023-.486-1.845-1.24-2.465-2.264-.604-1.04-.905-2.33-.905-3.874v-.503c0-1.442.301-2.65.905-3.622a5.978 5.978 0 0 1 2.464-2.24c1.04-.502 2.18-.754 3.42-.754 1.258 0 2.398.252 3.42.755a5.815 5.815 0 0 1 2.44 2.239c.62.972.93 2.18.93 3.622v.503c0 1.526-.31 2.8-.93 3.824a5.935 5.935 0 0 1-2.44 2.289c-1.022.503-2.162.755-3.42.755Zm0-3.22c.603 0 1.115-.143 1.534-.428.419-.302.738-.73.955-1.283.218-.553.327-1.199.327-1.937v-.503c0-.67-.109-1.258-.327-1.76a2.678 2.678 0 0 0-.955-1.183c-.42-.302-.93-.453-1.534-.453s-1.115.151-1.534.453a2.68 2.68 0 0 0-.956 1.182c-.218.503-.327 1.09-.327 1.761v.503c0 .772.109 1.434.327 1.988.218.536.536.947.956 1.232.419.285.93.428 1.534.428ZM30.55 14.644V1.133h3.773v8.152l5.659-8.152h3.395v13.511h-3.773V6.517l-5.658 8.127H30.55Zm-15.472 4.954V1.122h3.571v1.811c.352-.537.872-1.023 1.56-1.459.704-.453 1.567-.68 2.59-.68 1.878 0 3.303.554 4.275 1.661.973 1.107 1.459 2.759 1.459 4.956v.503c0 1.51-.235 2.775-.704 3.798-.47 1.007-1.132 1.77-1.987 2.29-.855.52-1.87.78-3.043.78a4.871 4.871 0 0 1-2.163-.504 4.676 4.676 0 0 1-1.685-1.51v6.83h-3.873Zm6.79-8.011c.772 0 1.409-.31 1.912-.931.52-.637.78-1.551.78-2.742V7.41c0-1.157-.252-2.013-.755-2.566-.486-.57-1.132-.855-1.937-.855a3.17 3.17 0 0 0-1.483.352 2.537 2.537 0 0 0-1.057 1.006c-.251.453-.377 1.015-.377 1.686V8.29c0 .688.126 1.283.377 1.786.268.487.62.864 1.056 1.132.453.252.948.378 1.484.378ZM0 14.644V1.133h12.574v13.511H8.702V4.302h-4.83v10.342H0Z"/><mask id="b" width="22" height="16" x="134" y="0" maskUnits="userSpaceOnUse" style="mask-type:luminance"><path fill="#fff" d="M155.29.002h-20.534V15.28h20.534V.002Z"/></mask><g mask="url(#b)"><path fill="#0E1D4D" fill-opacity=".96" d="m155.292 10.187-5.133 5.093-10.268-10.186 5.134-5.092 10.268 10.185h-.001Z"/><path fill="#2947A0" d="M150.157 5.094 139.889 15.28l-5.133-5.093L145.024.002l5.133 5.092Z"/></g></g><defs><clipPath id="a"><path fill="#fff" d="M0 0h155.428v21.377H0z"/></clipPath></defs></svg>