<svg width="144" height="53" viewBox="0 0 144 53" fill="none" xmlns="http://www.w3.org/2000/svg">
<path d="M0.265625 0.762695H16.2868C18.957 0.762695 20.8961 1.36667 22.1041 2.57462C23.312 3.78257 23.916 5.72164 23.916 8.39185V12.2064C23.916 14.8766 23.312 16.8157 22.1041 18.0237C20.8961 19.2316 18.957 19.8356 16.2868 19.8356H7.13186V27.4647H0.265625V0.762695ZM17.0366 8.39185C17.0366 6.85725 16.2693 6.08995 14.7347 6.08995H7.13186V14.4952H14.761C16.2956 14.4952 17.0629 13.7279 17.0629 12.1933L17.0366 8.39185Z" fill="white"/>
<path d="M25.8232 21.9336C32.0295 22.315 36.2256 22.5058 38.4113 22.5058C38.6668 22.5255 38.9235 22.4897 39.1639 22.4009C39.4043 22.312 39.6225 22.1722 39.8037 21.9909C39.9849 21.8097 40.1248 21.5915 40.2137 21.3511C40.3025 21.1107 40.3383 20.854 40.3186 20.5985V16.9812H30.1738V11.6342H40.3186V8.39185C40.3186 6.85725 39.5513 6.08995 38.0167 6.08995H26.1783V0.762695H39.5293C42.1995 0.762695 44.1386 1.36667 45.3466 2.57462C46.5545 3.78257 47.1585 5.72164 47.1585 8.39185V20.5985C47.1585 23.0911 46.5743 24.9217 45.4058 26.0902C44.2373 27.2586 42.4056 27.844 39.9108 27.8462C36.0962 27.8462 31.3916 27.5919 25.7969 27.0833L25.8232 21.9336Z" fill="white"/>
<path d="M57.4069 27.8462C56.0826 27.8422 54.7614 27.7145 53.4608 27.4647V22.315H56.8939C57.2075 22.3423 57.522 22.2728 57.7948 22.1158C58.0676 21.9588 58.2858 21.7219 58.4198 21.437C58.5476 21.1832 58.613 20.9024 58.6105 20.6182C58.6158 20.3452 58.5501 20.0755 58.4198 19.8356L47.9297 0.762695H55.5588L62.4251 14.3044L68.1634 0.762695H75.7925L66.0654 21.7429C65.1753 23.7598 64.1055 25.2604 62.8559 26.2447C61.4857 27.3146 59.6694 27.8484 57.4069 27.8462Z" fill="white"/>
<path d="M76.1758 21.7432H83.042V27.465H76.1758V21.7432Z" fill="white"/>
<path d="M86.4727 0.762695H102.494C105.164 0.762695 107.103 1.36667 108.311 2.57462C109.519 3.78257 110.123 5.72164 110.123 8.39185V12.2064C110.123 14.8766 109.519 16.8157 108.311 18.0237C107.103 19.2316 105.164 19.8356 102.494 19.8356H93.3389V27.4647H86.4727V0.762695ZM103.244 8.39185C103.244 6.85725 102.476 6.08995 100.942 6.08995H93.3389V14.4952H100.968C102.503 14.4952 103.27 13.7279 103.27 12.1933L103.244 8.39185Z" fill="white"/>
<path d="M143.69 17.9285C143.69 20.5987 143.086 22.5378 141.878 23.7457C140.67 24.9537 138.731 25.5577 136.061 25.5577H131.483V28.2279H124.617V25.5577H120.039C117.369 25.5577 115.43 24.9537 114.222 23.7457C113.014 22.5378 112.41 20.5987 112.41 17.9285V10.2994C112.41 7.62915 113.014 5.69008 114.222 4.48213C115.43 3.27418 117.369 2.6702 120.039 2.6702H124.617V0H131.483V2.6702H136.061C138.731 2.6702 140.67 3.27418 141.878 4.48213C143.086 5.69008 143.69 7.62915 143.69 10.2994V17.9285ZM119.276 17.9285C119.276 19.4631 120.044 20.2304 121.578 20.2304H125.005V7.99746H121.565C120.031 7.99746 119.263 8.76475 119.263 10.2994L119.276 17.9285ZM136.823 10.2994C136.823 8.76475 136.056 7.99746 134.522 7.99746H131.102V20.2173H134.541C136.076 20.2173 136.843 19.45 136.843 17.9154L136.823 10.2994Z" fill="white"/>
<path d="M143.751 31.0166H0.046875V32.332H143.751V31.0166Z" fill="white"/>
<path d="M0.0195312 38.2513H2.50558C2.83194 38.223 3.15644 38.3233 3.4099 38.5308C3.61901 38.7834 3.71951 39.1086 3.68942 39.4351V40.027C3.7046 40.1882 3.68772 40.3508 3.63975 40.5055C3.59177 40.6601 3.51365 40.8038 3.4099 40.9281C3.15762 41.138 2.83254 41.2397 2.50558 41.2109H1.08498V42.3947H0.0195312V38.2513ZM2.62397 39.4351C2.62796 39.3875 2.62151 39.3395 2.60508 39.2946C2.58864 39.2497 2.56261 39.2089 2.5288 39.1751C2.49499 39.1413 2.45421 39.1153 2.40931 39.0989C2.36441 39.0824 2.31646 39.076 2.26881 39.08H1.08498V40.3953H2.26881C2.31646 40.3993 2.36441 40.3929 2.40931 40.3764C2.45421 40.36 2.49499 40.334 2.5288 40.3002C2.56261 40.2664 2.58864 40.2256 2.60508 40.1807C2.62151 40.1358 2.62796 40.0878 2.62397 40.0402V39.4351Z" fill="white"/>
<path d="M7.96984 41.2697C7.99897 41.4316 7.9885 41.5981 7.93931 41.7551C7.89012 41.912 7.80369 42.0547 7.68738 42.1711C7.57107 42.2874 7.42834 42.3738 7.27138 42.423C7.11442 42.4722 6.94789 42.4826 6.78601 42.4535H5.30622C5.1442 42.4835 4.97734 42.4735 4.82 42.4246C4.66267 42.3757 4.51959 42.2893 4.40308 42.1728C4.28658 42.0563 4.20016 41.9132 4.15126 41.7559C4.10236 41.5986 4.09245 41.4317 4.12238 41.2697V39.3755C4.09301 39.0491 4.19343 38.7242 4.4019 38.4712C4.65536 38.2637 4.97986 38.1634 5.30622 38.1917H6.78601C6.94802 38.1618 7.11489 38.1717 7.27222 38.2206C7.42955 38.2695 7.57264 38.3559 7.68914 38.4724C7.80564 38.5889 7.89207 38.732 7.94097 38.8893C7.98987 39.0467 7.99978 39.2135 7.96984 39.3755V41.2697ZM6.90439 39.3755C6.90838 39.3279 6.90194 39.28 6.8855 39.2351C6.86906 39.1902 6.84303 39.1494 6.80922 39.1156C6.77541 39.0818 6.73464 39.0557 6.68974 39.0393C6.64483 39.0229 6.59689 39.0164 6.54924 39.0204H5.54298C5.49533 39.0164 5.44739 39.0229 5.40249 39.0393C5.35759 39.0557 5.31681 39.0818 5.283 39.1156C5.24919 39.1494 5.22316 39.1902 5.20672 39.2351C5.19029 39.28 5.18384 39.3279 5.18783 39.3755V41.2697C5.18384 41.3173 5.19029 41.3653 5.20672 41.4102C5.22316 41.4551 5.24919 41.4959 5.283 41.5297C5.31681 41.5635 5.35759 41.5895 5.40249 41.6059C5.44739 41.6224 5.49533 41.6288 5.54298 41.6248H6.54924C6.59689 41.6288 6.64483 41.6224 6.68974 41.6059C6.73464 41.5895 6.77541 41.5635 6.80922 41.5297C6.84303 41.4959 6.86906 41.4551 6.8855 41.4102C6.90194 41.3653 6.90838 41.3173 6.90439 41.2697V39.3755Z" fill="white"/>
<path d="M11.777 42.3355C10.9 42.4144 10.17 42.4539 9.58687 42.4539C9.4338 42.4774 9.27735 42.4645 9.13019 42.4163C8.98303 42.368 8.84928 42.2858 8.73978 42.1763C8.63028 42.0668 8.54809 41.9331 8.49987 41.7859C8.45165 41.6388 8.43876 41.4823 8.46223 41.3293V39.4351C8.43229 39.2731 8.4422 39.1062 8.4911 38.9489C8.54 38.7916 8.62643 38.6485 8.74293 38.532C8.85943 38.4155 9.00251 38.3291 9.15985 38.2802C9.31718 38.2313 9.48404 38.2214 9.64606 38.2513H11.777V39.08H9.88283C9.83518 39.076 9.78723 39.0824 9.74233 39.0989C9.69743 39.1153 9.65665 39.1413 9.62284 39.1751C9.58903 39.2089 9.563 39.2497 9.54657 39.2946C9.53013 39.3395 9.52368 39.3875 9.52768 39.4351V41.3293C9.5258 41.3689 9.53181 41.4084 9.54536 41.4457C9.5589 41.483 9.57972 41.5171 9.6066 41.5463C9.63342 41.5726 9.66534 41.5932 9.7004 41.6068C9.73546 41.6204 9.77291 41.6266 9.81048 41.6252H10.0834H10.3925H10.7214L11.1423 41.6022L11.8 41.5594L11.777 42.3355Z" fill="white"/>
<path d="M15.4606 42.3355C14.5836 42.4144 13.8536 42.4539 13.2705 42.4539C13.1174 42.4774 12.9609 42.4645 12.8138 42.4163C12.6666 42.368 12.5329 42.2858 12.4234 42.1763C12.3139 42.0668 12.2317 41.9331 12.1835 41.7859C12.1352 41.6388 12.1224 41.4823 12.1458 41.3293V39.4351C12.1159 39.2731 12.1258 39.1062 12.1747 38.9489C12.2236 38.7916 12.31 38.6485 12.4265 38.532C12.543 38.4155 12.6861 38.3291 12.8434 38.2802C13.0008 38.2313 13.1676 38.2214 13.3297 38.2513H15.4606V39.08H13.5664C13.5177 39.0739 13.4683 39.0788 13.4218 39.0943C13.3752 39.1098 13.3327 39.1355 13.2974 39.1696C13.2621 39.2036 13.2349 39.2451 13.2177 39.2911C13.2005 39.337 13.1938 39.3863 13.1981 39.4351V41.3293C13.1959 41.3692 13.2021 41.4091 13.2162 41.4465C13.2304 41.4839 13.2522 41.5179 13.2803 41.5463C13.3072 41.5726 13.3391 41.5932 13.3741 41.6068C13.4092 41.6204 13.4466 41.6266 13.4842 41.6252H13.7571H14.063H14.3918L14.8127 41.6022L15.454 41.5594L15.4606 42.3355Z" fill="white"/>
<path d="M19.5638 42.3944H18.4984V39.8492L17.0778 42.3944H15.9531V38.251H17.0186V40.7962L18.4392 38.251H19.5638V42.3944Z" fill="white"/>
<path d="M22.8382 42.3947V39.8495L21.4209 42.3947H20.293V38.2513H21.3584V40.7966L22.779 38.2513H23.9037V42.3947H22.8382ZM21.7728 37.9554C21.6683 37.9702 21.5617 37.9605 21.4616 37.9271C21.3615 37.8936 21.2705 37.8374 21.1959 37.7627C21.1213 37.6881 21.065 37.5971 21.0316 37.497C20.9982 37.3969 20.9885 37.2904 21.0033 37.1859V37.0083H21.7728V37.1563C21.7723 37.1836 21.7774 37.2107 21.7876 37.2361C21.7979 37.2614 21.8131 37.2844 21.8324 37.3038C21.8518 37.3231 21.8748 37.3383 21.9001 37.3486C21.9255 37.3588 21.9526 37.3639 21.9799 37.3635H22.1575C22.1848 37.3639 22.212 37.3588 22.2373 37.3486C22.2626 37.3383 22.2857 37.3231 22.305 37.3038C22.3243 37.2844 22.3396 37.2614 22.3498 37.2361C22.3601 37.2107 22.3651 37.1836 22.3647 37.1563V37.0083H23.1342V37.1859C23.149 37.2904 23.1393 37.3969 23.1059 37.497C23.0724 37.5971 23.0162 37.6881 22.9415 37.7627C22.8669 37.8374 22.7759 37.8936 22.6758 37.9271C22.5757 37.9605 22.4692 37.9702 22.3647 37.9554H21.7728Z" fill="white"/>
<path d="M27.8317 42.3353C26.9548 42.4142 26.2247 42.4536 25.6416 42.4536C25.3317 42.4795 25.0242 42.3813 24.7866 42.1807C24.6876 42.0636 24.6128 41.928 24.5666 41.7818C24.5203 41.6356 24.5034 41.4817 24.517 41.329V39.4349C24.4869 39.1083 24.5874 38.7832 24.7965 38.5305C25.0491 38.3239 25.3722 38.2236 25.6975 38.251H27.8284V39.0797H25.9343C25.8866 39.0757 25.8387 39.0822 25.7938 39.0986C25.7489 39.115 25.7081 39.1411 25.6743 39.1749C25.6405 39.2087 25.6144 39.2495 25.598 39.2944C25.5816 39.3393 25.5751 39.3872 25.5791 39.4349V41.329C25.5772 41.3686 25.5832 41.4082 25.5968 41.4454C25.6103 41.4827 25.6312 41.5169 25.658 41.546C25.6849 41.5724 25.7168 41.593 25.7518 41.6065C25.7869 41.6201 25.8244 41.6264 25.8619 41.625H26.1349H26.4407H26.7695L27.1872 41.6019L27.8448 41.5592L27.8317 42.3353Z" fill="white"/>
<path d="M31.3403 38.1919C31.519 38.2002 31.6969 38.22 31.873 38.2511V39.0502H31.6363C31.5779 39.0507 31.5213 39.0703 31.4751 39.1061C31.4322 39.1391 31.3964 39.1805 31.3699 39.2278L30.8076 40.2932L31.9618 42.3945H30.8372L29.9197 40.7076H29.387V42.3945H28.3281V38.2511H29.3936V39.8953H29.9263L30.5182 38.7707C30.5989 38.6147 30.7108 38.477 30.8471 38.3662C30.9861 38.2523 31.1606 38.1906 31.3403 38.1919Z" fill="white"/>
<path d="M35.9427 42.3944H34.8773V39.8492L33.4567 42.3944H32.332V38.251H33.3975V40.7962L34.8181 38.251H35.9427V42.3944Z" fill="white"/>
<path d="M39.221 42.3947V39.8495L37.8004 42.3947H36.6758V38.2513H37.7412V40.7966L39.1618 38.2513H40.2865V42.3947H39.221ZM38.1556 37.9554C38.0511 37.9702 37.9445 37.9605 37.8444 37.9271C37.7443 37.8936 37.6534 37.8374 37.5787 37.7627C37.5041 37.6881 37.4478 37.5971 37.4144 37.497C37.381 37.3969 37.3713 37.2904 37.3861 37.1859V37.0083H38.1556V37.1563C38.1551 37.1836 38.1602 37.2107 38.1704 37.2361C38.1807 37.2614 38.1959 37.2844 38.2153 37.3038C38.2346 37.3231 38.2576 37.3383 38.2829 37.3486C38.3083 37.3588 38.3354 37.3639 38.3627 37.3635H38.5403C38.5676 37.3639 38.5948 37.3588 38.6201 37.3486C38.6455 37.3383 38.6685 37.3231 38.6878 37.3038C38.7071 37.2844 38.7224 37.2614 38.7326 37.2361C38.7429 37.2107 38.7479 37.1836 38.7475 37.1563V37.0083H39.5104V37.1859C39.5252 37.2904 39.5155 37.3969 39.4821 37.497C39.4487 37.5971 39.3924 37.6881 39.3178 37.7627C39.2431 37.8374 39.1522 37.8936 39.052 37.9271C38.9519 37.9605 38.8454 37.9702 38.7409 37.9554H38.1556Z" fill="white"/>
<path d="M42.5664 41.5397C43.5288 41.5989 44.1799 41.6285 44.5197 41.6285C44.5594 41.6308 44.5991 41.6249 44.6364 41.6113C44.6737 41.5978 44.7078 41.5768 44.7368 41.5496C44.7636 41.5204 44.7845 41.4862 44.798 41.449C44.8116 41.4117 44.8176 41.3721 44.8157 41.3325V40.7702H43.2438V39.9415H44.8157V39.4351C44.8197 39.3875 44.8132 39.3395 44.7968 39.2946C44.7804 39.2497 44.7543 39.2089 44.7205 39.1751C44.6867 39.1413 44.6459 39.1153 44.601 39.0989C44.5561 39.0824 44.5082 39.076 44.4605 39.08H42.6256V38.2513H44.6973C45.0237 38.223 45.3482 38.3233 45.6016 38.5308C45.8107 38.7834 45.9112 39.1086 45.8811 39.4351V41.3293C45.8947 41.482 45.8778 41.6359 45.8315 41.7821C45.7852 41.9283 45.7105 42.0638 45.6115 42.181C45.3739 42.3816 45.0664 42.4797 44.7565 42.4539C44.1646 42.4539 43.4346 42.4144 42.5664 42.3355V41.5397Z" fill="white"/>
<path d="M49.5124 38.1918C49.6867 38.2007 49.8602 38.2204 50.032 38.251V39.0501H49.7952C49.7368 39.0506 49.6802 39.0702 49.6341 39.106C49.5911 39.139 49.5553 39.1804 49.5288 39.2277L48.9665 40.2931L50.1208 42.3944H48.9961L48.0786 40.7075H47.5459V42.3944H46.4805V38.251H47.5459V39.8952H48.0786L48.6706 38.7706C48.7513 38.6146 48.8632 38.4769 48.9994 38.3661C49.1436 38.2477 49.3259 38.1858 49.5124 38.1918Z" fill="white"/>
<path d="M54.2316 41.27C54.2615 41.432 54.2516 41.5989 54.2027 41.7562C54.1538 41.9136 54.0674 42.0567 53.9509 42.1732C53.8344 42.2897 53.6913 42.3761 53.5339 42.425C53.3766 42.4739 53.2097 42.4838 53.0477 42.4539H51.5679C51.406 42.483 51.2395 42.4725 51.0826 42.4233C50.9256 42.3741 50.7829 42.2877 50.6666 42.1714C50.5503 42.0551 50.4638 41.9124 50.4146 41.7554C50.3654 41.5984 50.355 41.4319 50.3841 41.27V39.3759C50.3542 39.2139 50.3641 39.047 50.413 38.8897C50.4619 38.7323 50.5483 38.5893 50.6648 38.4728C50.7813 38.3563 50.9244 38.2698 51.0817 38.2209C51.2391 38.172 51.4059 38.1621 51.5679 38.1921H53.0477C53.2099 38.1613 53.3771 38.1706 53.5348 38.2192C53.6925 38.2679 53.836 38.3543 53.9526 38.471C54.0693 38.5877 54.1558 38.7311 54.2044 38.8888C54.253 39.0465 54.2623 39.2137 54.2316 39.3759V41.27ZM53.1661 39.3759C53.1701 39.3282 53.1637 39.2803 53.1472 39.2354C53.1308 39.1905 53.1048 39.1497 53.0709 39.1159C53.0371 39.0821 52.9964 39.0561 52.9515 39.0396C52.9066 39.0232 52.8586 39.0167 52.811 39.0207H51.8047C51.7571 39.0167 51.7091 39.0232 51.6642 39.0396C51.6193 39.0561 51.5785 39.0821 51.5447 39.1159C51.5109 39.1497 51.4849 39.1905 51.4684 39.2354C51.452 39.2803 51.4456 39.3282 51.4496 39.3759V41.27C51.4456 41.3177 51.452 41.3656 51.4684 41.4105C51.4849 41.4554 51.5109 41.4962 51.5447 41.53C51.5785 41.5638 51.6193 41.5898 51.6642 41.6063C51.7091 41.6227 51.7571 41.6292 51.8047 41.6252H52.811C52.8586 41.6292 52.9066 41.6227 52.9515 41.6063C52.9964 41.5898 53.0371 41.5638 53.0709 41.53C53.1048 41.4962 53.1308 41.4554 53.1472 41.4105C53.1637 41.3656 53.1701 41.3177 53.1661 41.27V39.3759Z" fill="white"/>
<path d="M58.4538 42.3944H57.3884V40.7074H55.9086V42.3944H54.8398V38.251H55.9086V39.8952H57.3884V38.251H58.4538V42.3944Z" fill="white"/>
<path d="M62.9121 41.27C62.9412 41.4319 62.9307 41.5984 62.8815 41.7554C62.8324 41.9124 62.7459 42.0551 62.6296 42.1714C62.5133 42.2877 62.3706 42.3741 62.2136 42.4233C62.0567 42.4725 61.8901 42.483 61.7282 42.4539H60.2485C60.0864 42.4838 59.9196 42.4739 59.7622 42.425C59.6049 42.3761 59.4618 42.2897 59.3453 42.1732C59.2288 42.0567 59.1424 41.9136 59.0935 41.7562C59.0446 41.5989 59.0347 41.432 59.0646 41.27V39.3759C59.0339 39.2137 59.0432 39.0465 59.0918 38.8888C59.1404 38.7311 59.2268 38.5877 59.3435 38.471C59.4602 38.3543 59.6037 38.2679 59.7614 38.2192C59.9191 38.1706 60.0863 38.1613 60.2485 38.1921H61.7282C61.8903 38.1621 62.0571 38.172 62.2145 38.2209C62.3718 38.2698 62.5149 38.3563 62.6314 38.4728C62.7479 38.5893 62.8343 38.7323 62.8832 38.8897C62.9321 39.047 62.942 39.2139 62.9121 39.3759V41.27ZM61.8466 39.3759C61.8506 39.3282 61.8442 39.2803 61.8277 39.2354C61.8113 39.1905 61.7853 39.1497 61.7515 39.1159C61.7176 39.0821 61.6769 39.0561 61.632 39.0396C61.5871 39.0232 61.5391 39.0167 61.4915 39.0207H60.4852C60.4376 39.0167 60.3896 39.0232 60.3447 39.0396C60.2998 39.0561 60.259 39.0821 60.2252 39.1159C60.1914 39.1497 60.1654 39.1905 60.149 39.2354C60.1325 39.2803 60.1261 39.3282 60.1301 39.3759V41.27C60.1261 41.3177 60.1325 41.3656 60.149 41.4105C60.1654 41.4554 60.1914 41.4962 60.2252 41.53C60.259 41.5638 60.2998 41.5898 60.3447 41.6063C60.3896 41.6227 60.4376 41.6292 60.4852 41.6252H61.4915C61.5391 41.6292 61.5871 41.6227 61.632 41.6063C61.6769 41.5898 61.7176 41.5638 61.7515 41.53C61.7853 41.4962 61.8113 41.4554 61.8277 41.4105C61.8442 41.3656 61.8506 41.3177 61.8466 41.27V39.3759Z" fill="white"/>
<path d="M67.0698 40.0859L66.2411 41.5657H65.4124L64.5837 40.0859V42.3878H63.5117V38.251H64.6364L65.8202 40.4411L67.004 38.251H68.1287V42.3944H67.0632L67.0698 40.0859Z" fill="white"/>
<path d="M72.4766 42.3944H71.4046V39.8492L69.984 42.3944H68.8594V38.251H69.9248V40.7962L71.3454 38.251H72.4701L72.4766 42.3944Z" fill="white"/>
<path d="M75.6019 41.033C75.1284 41.0724 74.6811 41.0922 74.2602 41.0922C73.9357 41.1232 73.612 41.0252 73.3592 40.8192C73.2596 40.7024 73.1843 40.5669 73.1374 40.4207C73.0906 40.2745 73.0732 40.1205 73.0863 39.9675V38.251H74.1517V39.9675C74.1482 40.0073 74.1534 40.0473 74.1671 40.0848C74.1807 40.1223 74.2024 40.1564 74.2306 40.1846C74.2588 40.2128 74.2929 40.2345 74.3304 40.2481C74.3679 40.2618 74.4079 40.267 74.4477 40.2635C74.7699 40.2635 75.1547 40.2438 75.6019 40.2043V38.251H76.6674V42.3944H75.6019V41.033Z" fill="white"/>
<path d="M80.6791 42.3944H77.3906V38.251H80.6791V39.0797H78.4594V39.8952H80.2022V40.7239H78.4594V41.5822H80.6791V42.3944Z" fill="white"/>
<path d="M84.3669 42.3355C83.4899 42.4144 82.7599 42.4539 82.1768 42.4539C82.0238 42.467 81.8698 42.4496 81.7236 42.4027C81.5774 42.3559 81.4419 42.2805 81.3251 42.181C81.2249 42.0645 81.1491 41.9291 81.1022 41.7828C81.0553 41.6365 81.0383 41.4823 81.0521 41.3293V39.4351C81.022 39.1086 81.1225 38.7834 81.3316 38.5308C81.5851 38.3233 81.9096 38.223 82.2359 38.2513H84.3669V39.08H82.4727C82.4251 39.076 82.3771 39.0824 82.3322 39.0989C82.2873 39.1153 82.2465 39.1413 82.2127 39.1751C82.1789 39.2089 82.1529 39.2497 82.1365 39.2946C82.12 39.3395 82.1136 39.3875 82.1176 39.4351V41.3293C82.1157 41.3689 82.1217 41.4084 82.1352 41.4457C82.1488 41.4829 82.1696 41.5171 82.1965 41.5463C82.2233 41.5726 82.2552 41.5932 82.2903 41.6068C82.3253 41.6203 82.3628 41.6266 82.4004 41.6252H82.6733H82.9824H83.3113L83.7289 41.6022L84.3866 41.5594L84.3669 42.3355Z" fill="white"/>
<path d="M87.8755 38.1919C88.0541 38.2002 88.2321 38.22 88.4082 38.2511V39.0502H88.1747C88.1173 39.0501 88.0615 39.0699 88.0169 39.1061C87.9721 39.1381 87.9351 39.1797 87.9084 39.2278L87.3461 40.2932L88.5036 42.3945H87.3789L86.4615 40.7075H85.9287V42.3945H84.8633V38.2511H85.9287V39.8953H86.4615L87.0534 38.7707C87.1349 38.6152 87.2467 38.4777 87.3822 38.3662C87.5215 38.2528 87.6958 38.1912 87.8755 38.1919Z" fill="white"/>
<path d="M92.4818 42.3944H91.4163V39.8492L89.9957 42.3944H88.8711V38.251H89.9365V40.7962L91.3571 38.251H92.4818V42.3944Z" fill="white"/>
<path d="M95.7562 42.3947V39.8495L94.3356 42.3947H93.2109V38.2513H94.2764V40.7966L95.697 38.2513H96.8216V42.3947H95.7562ZM94.6907 37.9554C94.5862 37.9702 94.4797 37.9605 94.3796 37.9271C94.2795 37.8936 94.1885 37.8374 94.1139 37.7627C94.0392 37.6881 93.983 37.5971 93.9495 37.497C93.9161 37.3969 93.9064 37.2904 93.9212 37.1859V37.0083H94.6907V37.1563C94.6903 37.1836 94.6953 37.2107 94.7056 37.2361C94.7158 37.2614 94.7311 37.2844 94.7504 37.3038C94.7697 37.3231 94.7928 37.3383 94.8181 37.3486C94.8434 37.3588 94.8706 37.3639 94.8979 37.3635H95.0821C95.1094 37.3639 95.1365 37.3588 95.1619 37.3486C95.1872 37.3383 95.2102 37.3231 95.2295 37.3038C95.2489 37.2844 95.2641 37.2614 95.2744 37.2361C95.2846 37.2107 95.2897 37.1836 95.2892 37.1563V37.0083H96.0686V37.1859C96.0834 37.2904 96.0737 37.3969 96.0403 37.497C96.0068 37.5971 95.9506 37.6881 95.8759 37.7627C95.8013 37.8374 95.7103 37.8936 95.6102 37.9271C95.5101 37.9605 95.4036 37.9702 95.2991 37.9554H94.6907Z" fill="white"/>
<path d="M100.342 42.4536C100.136 42.4528 99.9316 42.433 99.73 42.3944V41.5953H100.266C100.314 41.5993 100.362 41.5885 100.404 41.5644C100.446 41.5403 100.479 41.504 100.499 41.4605C100.521 41.4212 100.531 41.3769 100.529 41.3322C100.531 41.2896 100.521 41.2473 100.499 41.2106L98.875 38.251H100.059L101.124 40.3523L102.009 38.251H103.196L101.687 41.5065C101.578 41.7756 101.407 42.0147 101.187 42.2037C100.942 42.3817 100.644 42.4699 100.342 42.4536Z" fill="white"/>
<path d="M107.056 42.3944H105.991V40.7074H104.511V42.3944H103.445V38.251H104.511V39.8952H105.991V38.251H107.056V42.3944Z" fill="white"/>
<path d="M111.393 42.3944H110.328V39.8492L108.894 42.3944H107.77V38.251H108.835V40.7962L110.256 38.251H111.38L111.393 42.3944Z" fill="white"/>
<path d="M112.125 38.2512H114.486C114.793 38.2256 115.099 38.3199 115.338 38.5143C115.435 38.6224 115.51 38.7494 115.557 38.8873C115.604 39.0253 115.622 39.1714 115.611 39.3166C115.624 39.5191 115.576 39.7207 115.473 39.8954C115.38 40.0341 115.249 40.1418 115.094 40.2045C115.25 40.2439 115.393 40.3235 115.509 40.4355C115.624 40.5475 115.708 40.6878 115.752 40.8425C115.794 40.9811 115.814 41.1253 115.811 41.27C115.835 41.423 115.822 41.5795 115.774 41.7266C115.725 41.8738 115.643 42.0075 115.534 42.1171C115.424 42.2266 115.291 42.3087 115.143 42.357C114.996 42.4052 114.84 42.4181 114.687 42.3946H112.141L112.125 38.2512ZM114.552 39.435C114.556 39.3874 114.549 39.3394 114.533 39.2945C114.517 39.2496 114.49 39.2089 114.457 39.175C114.423 39.1412 114.382 39.1152 114.337 39.0988C114.292 39.0823 114.244 39.0759 114.197 39.0799H113.19V39.8954H114.197C114.242 39.899 114.288 39.8932 114.331 39.8783C114.374 39.8635 114.413 39.8398 114.446 39.8089C114.48 39.778 114.506 39.7405 114.525 39.6988C114.543 39.6571 114.552 39.612 114.552 39.5666V39.435ZM114.729 41.0792C114.733 41.0316 114.727 40.9836 114.711 40.9387C114.694 40.8938 114.668 40.8531 114.634 40.8193C114.6 40.7854 114.56 40.7594 114.515 40.743C114.47 40.7265 114.422 40.7201 114.374 40.7241H113.19V41.5528H114.374C114.422 41.5568 114.47 41.5503 114.515 41.5339C114.56 41.5174 114.6 41.4914 114.634 41.4576C114.668 41.4238 114.694 41.383 114.711 41.3381C114.727 41.2932 114.733 41.2453 114.729 41.1976V41.0792Z" fill="white"/>
<path d="M119.624 42.3944H116.336V38.251H119.624V39.0797H117.405V39.8952H119.151V40.7239H117.405V41.5822H119.624V42.3944Z" fill="white"/>
<path d="M120.117 38.251H122.607C122.768 38.2209 122.935 38.2307 123.093 38.2795C123.25 38.3284 123.393 38.4149 123.509 38.5315C123.625 38.6481 123.711 38.7914 123.76 38.9488C123.808 39.1062 123.818 39.273 123.787 39.4348V40.0267C123.817 40.1884 123.807 40.3549 123.758 40.512C123.709 40.669 123.623 40.8118 123.507 40.9282C123.391 41.0447 123.249 41.1312 123.092 41.1804C122.935 41.2295 122.768 41.2399 122.607 41.2106H121.186V42.3944H120.117V38.251ZM122.722 39.4348C122.726 39.3872 122.719 39.3392 122.703 39.2943C122.686 39.2494 122.66 39.2086 122.626 39.1748C122.593 39.141 122.552 39.115 122.507 39.0986C122.462 39.0821 122.414 39.0757 122.366 39.0797H121.186V40.395H122.376C122.424 40.399 122.472 40.3926 122.517 40.3762C122.562 40.3597 122.603 40.3337 122.636 40.2999C122.67 40.2661 122.696 40.2253 122.713 40.1804C122.729 40.1355 122.735 40.0875 122.731 40.0399L122.722 39.4348Z" fill="white"/>
<path d="M127.535 42.3355C126.658 42.4144 125.928 42.4539 125.345 42.4539C125.192 42.467 125.038 42.4496 124.892 42.4027C124.745 42.3559 124.61 42.2805 124.493 42.181C124.393 42.0645 124.317 41.9291 124.27 41.7828C124.223 41.6365 124.206 41.4823 124.22 41.3293V39.4351C124.19 39.1086 124.29 38.7834 124.5 38.5308C124.753 38.3233 125.078 38.223 125.404 38.2513H127.535V39.08H125.641C125.593 39.076 125.545 39.0824 125.5 39.0989C125.455 39.1153 125.415 39.1413 125.381 39.1751C125.347 39.2089 125.321 39.2497 125.304 39.2946C125.288 39.3395 125.282 39.3875 125.286 39.4351V41.3293C125.284 41.3689 125.29 41.4084 125.303 41.4457C125.317 41.4829 125.338 41.5171 125.364 41.5463C125.391 41.5726 125.423 41.5932 125.458 41.6068C125.493 41.6203 125.531 41.6266 125.568 41.6252H125.841H126.15H126.479L126.9 41.6022L127.541 41.5594L127.535 42.3355Z" fill="white"/>
<path d="M131.634 42.3944H130.569V39.8492L129.148 42.3944H128.023V38.251H129.089V40.7962L130.509 38.251H131.634V42.3944Z" fill="white"/>
<path d="M134.379 42.3944H133.313V39.0797H132.07V38.251H135.622V39.0797H134.379V42.3944Z" fill="white"/>
<path d="M139.335 42.3944H136.047V38.251H139.335V39.0797H137.116V39.8952H138.862V40.7239H137.116V41.5822H139.335V42.3944Z" fill="white"/>
<path d="M141.842 42.3944H140.789V39.0797H139.543V38.251H143.091V39.0797H141.842V42.3944Z" fill="white"/>
<path d="M7.02079 52.8848H4.94908V47.9357L2.1868 52.8848H0V44.8281H2.07171V49.7772L4.83399 44.8281H7.02079V52.8848Z" fill="white"/>
<path d="M15.3315 48.3961L13.7201 51.2734H12.1088L10.4975 48.3961V52.8848H8.42578V44.8281H10.6126L12.9145 49.0866L15.2164 44.8281H17.4032V52.8848H15.3315V48.3961Z" fill="white"/>
<path d="M25.198 52.8848H18.8086V44.8281H25.198V46.4395H20.8803V47.9949H24.2772V49.6029H20.8803V51.2734H25.198V52.8848Z" fill="white"/>
<path d="M33.1575 52.8848H31.0858V49.5963H28.2084V52.8848H26.1367V44.8281H28.2084V47.9949H31.0858V44.8281H33.1575V52.8848Z" fill="white"/>
<path d="M41.5851 52.8848H39.5069V47.9357L36.7446 52.8848H34.5742V44.8281H36.6459V49.7772L39.4082 44.8281H41.595L41.5851 52.8848Z" fill="white"/>
<path d="M48.5366 52.8848H46.4648V44.8281H52.7359V46.4395H48.5366V52.8848Z" fill="white"/>
<path d="M53.2188 51.1582H55.2905V52.8846H53.2188V51.1582Z" fill="white"/>
<path d="M56.3516 44.8281H60.9554C61.7073 44.8281 62.2554 44.9991 62.5996 45.3411C62.789 45.5514 62.9336 45.798 63.0246 46.066C63.1157 46.334 63.1512 46.6177 63.129 46.8998C63.1477 47.2956 63.0432 47.6874 62.8298 48.0212C62.6512 48.2928 62.3943 48.5038 62.0932 48.6263C62.3944 48.7049 62.6697 48.861 62.8918 49.079C63.114 49.2971 63.2751 49.5696 63.3592 49.8693C63.44 50.1379 63.4788 50.4175 63.4743 50.698C63.4743 51.4499 63.2978 51.998 62.9449 52.3422C62.5919 52.6864 62.0438 52.8629 61.3006 52.8716H56.3516V44.8281ZM61.0705 47.13C61.0836 47.0363 61.0748 46.9407 61.0447 46.851C61.0147 46.7612 60.9642 46.6796 60.8972 46.6127C60.8303 46.5457 60.7487 46.4953 60.6589 46.4652C60.5692 46.4351 60.4736 46.4263 60.3799 46.4395H58.4233V48.0508H60.3799C60.4736 48.0639 60.5692 48.0551 60.6589 48.025C60.7487 47.995 60.8303 47.9445 60.8972 47.8775C60.9642 47.8106 61.0147 47.729 61.0447 47.6393C61.0748 47.5495 61.0836 47.454 61.0705 47.3602V47.13ZM61.4157 50.3527C61.4289 50.2589 61.4201 50.1634 61.39 50.0736C61.3599 49.9839 61.3094 49.9023 61.2425 49.8353C61.1756 49.7684 61.094 49.7179 61.0042 49.6879C60.9145 49.6578 60.8189 49.649 60.7252 49.6621H58.4233V51.2734H60.7252C60.8189 51.2866 60.9145 51.2778 61.0042 51.2477C61.094 51.2176 61.1756 51.1671 61.2425 51.1002C61.3094 51.0333 61.3599 50.9517 61.39 50.8619C61.4201 50.7722 61.4289 50.6766 61.4157 50.5829V50.3527Z" fill="white"/>
<path d="M64.1992 51.1582H66.2709V52.8846H64.1992V51.1582Z" fill="white"/>
<path d="M77.8255 52.8848H75.7538V46.4395H72.8764V52.8848H70.8047V44.8281H77.8255V52.8848Z" fill="white"/>
<path d="M81.1193 52.523C80.9685 52.6784 80.7873 52.8009 80.587 52.883C80.3867 52.965 80.1716 53.0048 79.9552 52.9999C79.5196 53.0015 79.0848 52.9629 78.6562 52.8848V51.3293H79.1725C79.2403 51.3313 79.3077 51.3191 79.3706 51.2936C79.4334 51.2682 79.4903 51.2299 79.5376 51.1814C79.6332 51.0822 79.6883 50.9508 79.6921 50.8131L80.0374 44.8281H86.4235V52.8848H84.3518V46.4395H81.9282L81.6421 51.2143C81.6331 51.6996 81.4472 52.165 81.1193 52.523Z" fill="white"/>
<path d="M94.2175 52.8848H87.8281V44.8281H94.2175V46.4395H89.8998V47.9949H93.2968V49.6029H89.8998V51.2734H94.2175V52.8848Z" fill="white"/>
<path d="M99.8217 44.8281H102.124L99.5356 48.8564L102.166 52.8848H99.8644L98.2531 50.3527L96.6417 52.8848H94.3398L96.9706 48.8564L94.4253 44.8281H96.7272L98.2925 47.3602L99.8217 44.8281Z" fill="white"/>
<path d="M104.218 52.8848H101.988L105.037 44.8281H107.339L110.39 52.8848H108.144L107.628 51.4477H104.751L104.218 52.8848ZM105.254 49.9515H107.095L106.174 47.2451L105.254 49.9515Z" fill="white"/>
<path d="M117.993 52.8848H115.922V49.5963H113.044V52.8848H110.973V44.8281H113.044V47.9949H115.922V44.8281H117.993V52.8848Z" fill="white"/>
<path d="M126.653 50.6978C126.653 51.5035 126.469 52.0888 126.107 52.4539C125.745 52.8189 125.157 52.9997 124.351 52.9997H121.474C120.669 52.9997 120.084 52.8178 119.718 52.4539C119.352 52.0899 119.17 51.5046 119.172 50.6978V47.0148C119.172 46.208 119.354 45.6227 119.718 45.2588C120.082 44.8949 120.667 44.7129 121.474 44.7129H124.351C125.156 44.7129 125.741 44.8949 126.107 45.2588C126.469 45.6238 126.653 46.2091 126.653 47.0148V50.6978ZM124.581 47.0148C124.594 46.921 124.586 46.8255 124.556 46.7357C124.526 46.646 124.475 46.5644 124.408 46.4975C124.341 46.4305 124.26 46.38 124.17 46.35C124.08 46.3199 123.985 46.3111 123.891 46.3242H121.918C121.824 46.3111 121.728 46.3199 121.639 46.35C121.549 46.38 121.467 46.4305 121.4 46.4975C121.333 46.5644 121.283 46.646 121.253 46.7357C121.223 46.8255 121.214 46.921 121.227 47.0148V50.6978C121.214 50.7916 121.223 50.8871 121.253 50.9769C121.283 51.0667 121.333 51.1482 121.4 51.2152C121.467 51.2821 121.549 51.3326 121.639 51.3627C121.728 51.3927 121.824 51.4015 121.918 51.3884H123.891C123.985 51.4015 124.08 51.3927 124.17 51.3627C124.26 51.3326 124.341 51.2821 124.408 51.2152C124.475 51.1482 124.526 51.0667 124.556 50.9769C124.586 50.8871 124.594 50.7916 124.581 50.6978V47.0148Z" fill="white"/>
<path d="M127.824 44.8281H132.428C133.178 44.8281 133.726 44.9991 134.072 45.3411C134.262 45.5514 134.406 45.798 134.497 46.066C134.588 46.334 134.624 46.6177 134.602 46.8998C134.619 47.2954 134.514 47.6867 134.302 48.0212C134.123 48.2921 133.866 48.5029 133.566 48.6263C133.867 48.7049 134.142 48.861 134.364 49.079C134.587 49.2971 134.748 49.5696 134.832 49.8693C134.913 50.1379 134.951 50.4175 134.947 50.698C134.947 51.4499 134.77 51.998 134.418 52.3422C134.065 52.6864 133.516 52.8629 132.773 52.8716H127.824V44.8281ZM132.543 47.13C132.556 47.0363 132.547 46.9407 132.517 46.851C132.487 46.7612 132.437 46.6796 132.37 46.6127C132.303 46.5457 132.221 46.4953 132.132 46.4652C132.042 46.4351 131.946 46.4263 131.853 46.4395H129.896V48.0508H131.853C131.946 48.0639 132.042 48.0551 132.132 48.025C132.221 47.995 132.303 47.9445 132.37 47.8775C132.437 47.8106 132.487 47.729 132.517 47.6393C132.547 47.5495 132.556 47.454 132.543 47.3602V47.13ZM132.888 50.3527C132.902 50.2589 132.893 50.1634 132.863 50.0736C132.833 49.9839 132.782 49.9023 132.715 49.8353C132.648 49.7684 132.567 49.7179 132.477 49.6879C132.387 49.6578 132.292 49.649 132.198 49.6621H129.896V51.2734H132.198C132.292 51.2866 132.387 51.2778 132.477 51.2477C132.567 51.2176 132.648 51.1671 132.715 51.1002C132.782 51.0333 132.833 50.9517 132.863 50.8619C132.893 50.7722 132.902 50.6766 132.888 50.5829V50.3527Z" fill="white"/>
<path d="M137.459 52.8848H135.203L138.251 44.8281H140.553L143.605 52.8848H141.359L140.843 51.4477H137.965L137.459 52.8848ZM138.495 49.9515H140.336L139.416 47.2451L138.495 49.9515Z" fill="white"/>
<path d="M143.751 33.647H0.046875V34.9623H143.751V33.647Z" fill="white"/>
</svg>
