<svg width="1078" height="50" fill="none" xmlns="http://www.w3.org/2000/svg"><path d="M14.334 0H0l39.417 50h14.334L14.334 0zm125.418 0h-14.334l39.417 50h14.334L139.752 0zM77.043 0H62.709l39.417 50h14.334L77.043 0zm125.418 0h-14.334l39.417 50h14.334L202.461 0zm104.515 0h-14.333l39.417 50h14.334L306.976 0zm209.031 0h-14.334l39.417 50h14.334L516.007 0z" fill="#217AFF"/><path d="M762.255 48.934L724.52 1.067h-11.617l37.735 47.867h11.617zm209.03 0L933.55 1.067h-11.617l37.735 47.867h11.617z" stroke="#217AFF" stroke-width="2.133"/><path d="M411.491 0h-14.333l39.417 50h14.333L411.491 0z" fill="#217AFF"/><path d="M657.74 48.934L620.005 1.067h-11.617l37.735 47.867h11.617zm-42.188 0L577.816 1.067h-11.617l37.736 47.867h11.617zm21 0L598.816 1.067h-11.617l37.736 47.867h11.617zm230.219 0L829.035 1.067h-11.617l37.736 47.867h11.617zm209.029 0l-37.73-47.867h-11.62l37.73 47.867h11.62z" stroke="#217AFF" stroke-width="2.133"/><path d="M35.237 0H20.904L60.32 50h14.333L35.237 0zm125.418 0h-14.333l39.417 50h14.333L160.655 0zM265.17 0h-14.334l39.417 50h14.334L265.17 0zM474.2 0h-14.334l39.418 50h14.333L474.2 0z" fill="#217AFF"/><path d="M720.449 48.934L682.714 1.067h-11.617l37.735 47.867h11.617zm209.031 0L891.744 1.067h-11.617l37.736 47.867h11.617z" stroke="#217AFF" stroke-width="2.133"/><path d="M369.685 0h-14.333l39.417 50h14.334L369.685 0z" fill="#217AFF"/><path d="M824.965 48.934L787.23 1.067h-11.617l37.735 47.867h11.617zm209.025 0L996.259 1.067h-11.617l37.738 47.867h11.61z" stroke="#217AFF" stroke-width="2.133"/><path d="M97.946 0H83.613l39.417 50h14.333L97.946 0zm125.418 0h-14.333l39.417 50h14.333L223.364 0zm209.03 0h-14.333l39.417 50h14.334L432.394 0z" fill="#217AFF"/><path d="M678.643 48.934L640.907 1.067H629.29l37.736 47.867h11.617zm209.031 0L849.939 1.067h-11.617l37.735 47.867h11.617z" stroke="#217AFF" stroke-width="2.133"/><path d="M327.88 0h-14.334l39.417 50h14.334L327.88 0zm209.03 0h-14.334l39.418 50h14.333L536.91 0z" fill="#217AFF"/><path d="M783.158 48.934L745.423 1.067h-11.617l37.735 47.867h11.617zm209.031 0L954.453 1.067h-11.617l37.736 47.867h11.617z" stroke="#217AFF" stroke-width="2.133"/><path d="M56.14 0H41.805l39.417 50h14.334L56.139 0zm125.417 0h-14.333l39.417 50h14.334L181.557 0zm104.516 0H271.74l39.417 50h14.333L286.073 0zm209.03 0H480.77l39.417 50h14.334L495.103 0z" fill="#217AFF"/><path d="M741.352 48.934L703.616 1.067h-11.617l37.736 47.867h11.617zm209.031 0L912.647 1.067h-11.616l37.735 47.867h11.617z" stroke="#217AFF" stroke-width="2.133"/><path d="M390.589 0h-14.334l39.417 50h14.334L390.589 0z" fill="#217AFF"/><path d="M845.867 48.934L808.132 1.067h-11.617l37.735 47.867h11.617zm209.033 0l-37.74-47.867h-11.61l37.73 47.867h11.62z" stroke="#217AFF" stroke-width="2.133"/><path d="M118.848 0h-14.333l39.417 50h14.334L118.848 0zm125.418 0h-14.333l39.417 50h14.334L244.266 0zm209.032 0h-14.334l39.417 50h14.334L453.298 0z" fill="#217AFF"/><path d="M699.546 48.934L661.811 1.067h-11.617l37.735 47.867h11.617zm209.03 0L870.841 1.067h-11.617l37.735 47.867h11.617z" stroke="#217AFF" stroke-width="2.133"/><path d="M348.782 0h-14.333l39.417 50h14.333L348.782 0zm209.031 0H543.48l39.417 50h14.333L557.813 0z" fill="#217AFF"/><path d="M804.061 48.934L766.325 1.067h-11.617l37.736 47.867h11.617zm209.029 0L975.356 1.067h-11.617l37.731 47.867h11.62z" stroke="#217AFF" stroke-width="2.133"/></svg>