<svg width="272" height="92" viewBox="0 0 272 92" fill="none" xmlns="http://www.w3.org/2000/svg">
<path d="M3.58594 1.43722H33.7678C38.7983 1.43722 42.4392 2.58701 44.6908 4.88657C46.9906 7.13825 48.1398 10.7792 48.1398 15.8095V22.9957C48.1398 28.026 46.9906 31.6909 44.6908 33.9904C42.4392 36.2423 38.7983 37.3681 33.7678 37.3681H16.521V51.7404H3.58594V1.43722ZM35.205 15.8095C35.205 12.9351 33.7678 11.4978 30.8934 11.4978H16.521V27.3074H30.8934C33.7678 27.3074 35.205 25.8701 35.205 22.9957V15.8095ZM51.7305 41.3204C63.4198 42.039 71.3249 42.3983 75.4446 42.3983C76.5465 42.3983 77.4088 42.0869 78.0319 41.4641C78.7026 40.7935 79.0379 39.9072 79.0379 38.8053V31.9783H59.9226V21.9177H79.0379V15.8095C79.0379 12.9351 77.6007 11.4978 74.7263 11.4978H52.4488V1.43722H77.6007C82.6309 1.43722 86.2721 2.58701 88.5235 4.88657C90.823 7.13825 91.9727 10.7792 91.9727 15.8095V38.8053C91.9727 43.5002 90.8709 46.9495 88.6675 49.1535C86.4635 51.3572 83.0142 52.459 78.3196 52.459C71.133 52.459 62.2703 51.98 51.7305 51.0218V41.3204ZM111.24 52.459C108.845 52.459 106.378 52.2195 103.839 51.7404V42.039H110.306C111.695 42.039 112.653 41.4881 113.18 40.3862C113.42 39.9072 113.54 39.4042 113.54 38.8772C113.54 38.3023 113.42 37.7993 113.18 37.3681L93.4183 1.43722H107.791L120.726 26.9481L131.505 1.43722H145.877L127.553 40.9611C125.876 44.7458 123.864 47.5723 121.517 49.4409C118.93 51.453 115.504 52.459 111.24 52.459ZM139.469 40.9611H152.404V51.7404H139.469V40.9611ZM158.889 1.43722H189.07C194.1 1.43722 197.742 2.58701 199.993 4.88657C202.293 7.13825 203.443 10.7792 203.443 15.8095V22.9957C203.443 28.026 202.293 31.6909 199.993 33.9904C197.742 36.2423 194.1 37.3681 189.07 37.3681H171.823V51.7404H158.889V1.43722ZM190.508 15.8095C190.508 12.9351 189.07 11.4978 186.196 11.4978H171.823V27.3074H186.196C189.07 27.3074 190.508 25.8701 190.508 22.9957V15.8095ZM266.678 33.7748C266.678 38.8053 265.528 42.4702 263.228 44.7697C260.977 47.0213 257.336 48.1471 252.306 48.1471H243.683V53.1776H230.748V48.1471H222.124C217.094 48.1471 213.429 47.0213 211.129 44.7697C208.878 42.4702 207.752 38.8053 207.752 33.7748V19.4026C207.752 14.3723 208.878 10.7313 211.129 8.47967C213.429 6.18008 217.094 5.03029 222.124 5.03029H230.748V0H243.683V5.03029H252.306C257.336 5.03029 260.977 6.18008 263.228 8.47967C265.528 10.7313 266.678 14.3723 266.678 19.4026V33.7748ZM253.743 19.4026C253.743 16.5281 252.306 15.0909 249.431 15.0909H242.964V38.0867H249.431C252.306 38.0867 253.743 36.6495 253.743 33.7748V19.4026ZM220.687 33.7748C220.687 36.6495 222.124 38.0867 224.998 38.0867H231.466V15.0909H224.998C222.124 15.0909 220.687 16.5281 220.687 19.4026V33.7748Z" fill="white"/>
<path d="M0 64.2734H271.186" stroke="white" stroke-width="4.33648" stroke-miterlimit="10"/>
<path d="M16.738 91.3483H12.8352V82.025L7.63135 91.3483H3.51172V76.1708H7.41453V85.4942L12.6184 76.1708H16.738V91.3483ZM32.3594 82.8922L29.324 88.3129H26.2884L23.2529 82.8922V91.3483H19.35V76.1708H23.4697L27.8061 84.1932L32.1427 76.1708H36.2624V91.3483H32.3594V82.8922ZM50.9063 91.3483H38.8727V76.1708H50.9063V79.2063H42.7754V82.1332H49.1718V85.1686H42.7754V88.3129H50.9063V91.3483ZM65.8624 91.3483H61.9597V85.1686H56.5385V91.3483H52.6358V76.1708H56.5385V82.1332H61.9597V76.1708H65.8624V91.3483ZM81.7005 91.3483H77.7978V82.025L72.5942 91.3483H68.4745V76.1708H72.3771V85.4942L77.5808 76.1708H81.7005V91.3483ZM94.7155 91.3483H90.8129V76.1708H102.63V79.2063H94.7155V91.3483ZM101.342 88.0959H105.245V91.3483H101.342V88.0959ZM107.202 76.1708H115.875C117.291 76.1708 118.332 76.4958 118.997 77.1463C119.662 77.7826 119.995 78.7581 119.995 80.0735C119.995 80.941 119.807 81.6489 119.43 82.1984C119.055 82.7329 118.592 83.1089 118.043 83.326C119.214 83.6437 120.009 84.4241 120.428 85.6673C120.573 86.1158 120.645 86.6359 120.645 87.2286C120.645 88.6454 120.312 89.686 119.647 90.3512C118.983 91.0156 117.942 91.3483 116.526 91.3483H107.202V76.1708ZM116.742 86.5781C116.742 85.7109 116.309 85.2772 115.441 85.2772H111.105V88.3129H115.441C116.309 88.3129 116.742 87.8791 116.742 87.0119V86.5781ZM116.092 80.5073C116.092 79.64 115.658 79.2063 114.791 79.2063H111.105V82.2417H114.791C115.658 82.2417 116.092 81.8082 116.092 80.941V80.5073ZM121.945 88.0959H125.848V91.3483H121.945V88.0959ZM147.531 91.3483H143.628V79.2063H138.208V91.3483H134.305V76.1708H147.531V91.3483ZM154.696 88.2041C154.624 89.2453 154.292 90.069 153.699 90.6762C153.106 91.269 152.376 91.5651 151.509 91.5651C150.642 91.5651 149.825 91.4929 149.059 91.3483V88.4208H150.035C150.309 88.4208 150.534 88.3276 150.707 88.1394C150.895 87.9513 150.996 87.7198 151.01 87.4454L151.66 76.1708H163.695V91.3483H159.792V79.2063H155.238L154.696 88.2041ZM178.333 91.3483H166.299V76.1708H178.333V79.2063H170.202V82.1332H176.598V85.1686H170.202V88.3129H178.333V91.3483ZM188.844 76.1708H193.18L188.301 83.7594L193.288 91.3483H188.952L185.916 86.5781L182.881 91.3483H178.545L183.531 83.7594L178.653 76.1708H182.968L185.916 80.941L188.844 76.1708ZM197.086 91.3483H192.859L198.604 76.1708H202.94L208.686 91.3483H204.458L203.483 88.6376H198.062L197.086 91.3483ZM199.038 85.8191H202.507L200.772 80.724L199.038 85.8191ZM222.996 91.3483H219.093V85.1686H213.673V91.3483H209.77V76.1708H213.673V82.1332H219.093V76.1708H222.996V91.3483ZM235.365 80.2905C235.365 79.423 234.931 78.9895 234.064 78.9895H230.378C229.511 78.9895 229.077 79.423 229.077 80.2905V87.2286C229.077 88.0959 229.511 88.5296 230.378 88.5296H234.064C234.931 88.5296 235.365 88.0959 235.365 87.2286V80.2905ZM239.267 87.2286C239.267 88.7464 238.921 89.8523 238.227 90.5463C237.548 91.2254 236.449 91.5651 234.931 91.5651H229.511C227.993 91.5651 226.887 91.2254 226.193 90.5463C225.514 89.8523 225.174 88.7464 225.174 87.2286V80.2905C225.174 78.7728 225.514 77.6738 226.193 76.9945C226.887 76.3007 227.993 75.9541 229.511 75.9541H234.931C236.449 75.9541 237.548 76.3007 238.227 76.9945C238.921 77.6738 239.267 78.7728 239.267 80.2905V87.2286ZM241.446 76.1708H250.119C251.536 76.1708 252.577 76.4958 253.241 77.1463C253.906 77.7826 254.239 78.7581 254.239 80.0735C254.239 80.941 254.051 81.6489 253.675 82.1984C253.3 82.7329 252.837 83.1089 252.288 83.326C253.458 83.6437 254.253 84.4241 254.673 85.6673C254.817 86.1158 254.89 86.6359 254.89 87.2286C254.89 88.6454 254.557 89.686 253.892 90.3512C253.227 91.0156 252.186 91.3483 250.77 91.3483H241.446V76.1708ZM250.987 86.5781C250.987 85.7109 250.553 85.2772 249.686 85.2772H245.349V88.3129H249.686C250.553 88.3129 250.987 87.8791 250.987 87.0119V86.5781ZM250.336 80.5073C250.336 79.64 249.903 79.2063 249.036 79.2063H245.349V82.2417H249.036C249.903 82.2417 250.336 81.8082 250.336 80.941V80.5073ZM259.55 91.3483H255.322L261.068 76.1708H265.404L271.151 91.3483H266.922L265.947 88.6376H260.526L259.55 91.3483ZM261.502 85.8191H264.971L263.236 80.724L261.502 85.8191Z" fill="white"/>
</svg>
