<svg width="3216" height="139" viewBox="0 0 3216 139" fill="none" xmlns="http://www.w3.org/2000/svg">
<path d="M26.6 110.9C20.8667 110.9 16.4 109.7 13.2 107.3C10.0667 104.9 7.86667 101.667 6.6 97.6C5.4 93.5333 4.8 89 4.8 84V55.4C4.8 49.9333 5.4 45.1667 6.6 41.1C7.86667 37.0333 10.0667 33.9 13.2 31.7C16.4 29.4333 20.8667 28.3 26.6 28.3C31.6667 28.3 35.6667 29.2333 38.6 31.1C41.6 32.9667 43.7333 35.6333 45 39.1C46.3333 42.5667 47 46.7333 47 51.6V58H36.3V52.3C36.3 49.3 36.1333 46.6667 35.8 44.4C35.5333 42.0667 34.7333 40.2667 33.4 39C32.0667 37.7333 29.8333 37.1 26.7 37.1C23.5 37.1 21.1667 37.8 19.7 39.2C18.2333 40.5333 17.2667 42.4667 16.8 45C16.4 47.4667 16.2 50.3667 16.2 53.7V85.8C16.2 89.8667 16.5333 93.1 17.2 95.5C17.8667 97.8333 18.9667 99.5 20.5 100.5C22.0333 101.5 24.1 102 26.7 102C29.7667 102 31.9667 101.333 33.3 100C34.6333 98.6 35.4667 96.7 35.8 94.3C36.1333 91.9 36.3 89.1 36.3 85.9V79.9H47V85.9C47 90.8333 46.4 95.2 45.2 99C44 102.733 41.9333 105.667 39 107.8C36.0667 109.867 31.9333 110.9 26.6 110.9ZM68.3648 110V60.2H57.5648V52.2H89.9648V60.2H79.0648V110H68.3648ZM101.435 129V52.2H112.135V56.8C113.402 55.3333 114.935 54.0667 116.735 53C118.535 51.9333 120.668 51.4 123.135 51.4C126.135 51.4 128.502 52.2 130.235 53.8C132.035 55.3333 133.368 57.3 134.235 59.7C135.102 62.0333 135.668 64.4333 135.935 66.9C136.202 69.3 136.335 71.3667 136.335 73.1V87.1C136.335 91.1667 135.935 95.0333 135.135 98.7C134.335 102.3 132.868 105.233 130.735 107.5C128.668 109.7 125.735 110.8 121.935 110.8C119.868 110.8 118.035 110.3 116.435 109.3C114.835 108.233 113.402 107.033 112.135 105.7V129H101.435ZM119.835 102.4C121.702 102.4 123.035 101.733 123.835 100.4C124.635 99 125.135 97.1333 125.335 94.8C125.535 92.4667 125.635 89.9 125.635 87.1V73.1C125.635 70.7 125.502 68.5 125.235 66.5C124.968 64.4333 124.402 62.8 123.535 61.6C122.668 60.4 121.302 59.8 119.435 59.8C118.035 59.8 116.702 60.1 115.435 60.7C114.168 61.3 113.068 62 112.135 62.8V99.8C113.135 100.533 114.268 101.167 115.535 101.7C116.802 102.167 118.235 102.4 119.835 102.4ZM150.164 124.5V116.3C152.764 116.3 154.831 116.167 156.364 115.9C157.897 115.7 158.997 115.267 159.664 114.6C160.331 114 160.664 113.133 160.664 112C160.664 111.4 160.431 110.067 159.964 108C159.497 105.933 158.997 103.733 158.464 101.4L146.864 52.2H157.664L165.464 95.4L172.964 52.2H183.764L169.964 113.2C169.364 116 168.264 118.2 166.664 119.8C165.064 121.467 162.997 122.667 160.464 123.4C157.997 124.133 154.997 124.5 151.464 124.5H150.164ZM195.224 110V52.2H205.924V76.6H208.924L219.824 52.2H230.824L218.724 80.2L231.024 110H219.824L208.924 83H205.924V110H195.224ZM248.228 110V60.2H237.428V52.2H269.828V60.2H258.928V110H248.228ZM280.398 124.5V116.3C282.998 116.3 285.065 116.167 286.598 115.9C288.132 115.7 289.232 115.267 289.898 114.6C290.565 114 290.898 113.133 290.898 112C290.898 111.4 290.665 110.067 290.198 108C289.732 105.933 289.232 103.733 288.698 101.4L277.098 52.2H287.898L295.698 95.4L303.198 52.2H313.998L300.198 113.2C299.598 116 298.498 118.2 296.898 119.8C295.298 121.467 293.232 122.667 290.698 123.4C288.232 124.133 285.232 124.5 281.698 124.5H280.398ZM325.459 129V52.2H336.159V56.8C337.425 55.3333 338.959 54.0667 340.759 53C342.559 51.9333 344.692 51.4 347.159 51.4C350.159 51.4 352.525 52.2 354.259 53.8C356.059 55.3333 357.392 57.3 358.259 59.7C359.125 62.0333 359.692 64.4333 359.959 66.9C360.225 69.3 360.359 71.3667 360.359 73.1V87.1C360.359 91.1667 359.959 95.0333 359.159 98.7C358.359 102.3 356.892 105.233 354.759 107.5C352.692 109.7 349.759 110.8 345.959 110.8C343.892 110.8 342.059 110.3 340.459 109.3C338.859 108.233 337.425 107.033 336.159 105.7V129H325.459ZM343.859 102.4C345.725 102.4 347.059 101.733 347.859 100.4C348.659 99 349.159 97.1333 349.359 94.8C349.559 92.4667 349.659 89.9 349.659 87.1V73.1C349.659 70.7 349.525 68.5 349.259 66.5C348.992 64.4333 348.425 62.8 347.559 61.6C346.692 60.4 345.325 59.8 343.459 59.8C342.059 59.8 340.725 60.1 339.459 60.7C338.192 61.3 337.092 62 336.159 62.8V99.8C337.159 100.533 338.292 101.167 339.559 101.7C340.825 102.167 342.259 102.4 343.859 102.4ZM385.488 110.8C383.221 110.8 381.221 110.167 379.488 108.9C377.754 107.567 376.388 105.9 375.388 103.9C374.388 101.833 373.888 99.6667 373.888 97.4C373.888 93.8 374.488 90.7667 375.688 88.3C376.888 85.8333 378.521 83.7667 380.588 82.1C382.721 80.3667 385.154 78.8667 387.888 77.6C390.688 76.3333 393.621 75.1 396.688 73.9V69.8C396.688 67.4667 396.554 65.5333 396.288 64C396.021 62.4667 395.454 61.3333 394.588 60.6C393.788 59.8 392.554 59.4 390.888 59.4C389.421 59.4 388.221 59.7333 387.288 60.4C386.421 61.0667 385.788 62.0333 385.388 63.3C384.988 64.5 384.788 65.9333 384.788 67.6V70.5L374.188 70.1C374.321 63.7 375.788 59 378.588 56C381.388 52.9333 385.721 51.4 391.588 51.4C397.321 51.4 401.388 52.9667 403.788 56.1C406.188 59.2333 407.388 63.7667 407.388 69.7V96.1C407.388 97.9 407.421 99.6333 407.488 101.3C407.621 102.967 407.754 104.533 407.888 106C408.088 107.4 408.254 108.733 408.388 110H398.588C398.388 108.933 398.121 107.6 397.788 106C397.521 104.333 397.321 102.833 397.188 101.5C396.521 103.767 395.221 105.9 393.288 107.9C391.421 109.833 388.821 110.8 385.488 110.8ZM389.688 101.6C390.754 101.6 391.754 101.3 392.688 100.7C393.621 100.1 394.454 99.4333 395.188 98.7C395.921 97.9 396.421 97.2667 396.688 96.8V80.4C395.021 81.3333 393.454 82.2667 391.988 83.2C390.521 84.1333 389.221 85.1333 388.088 86.2C387.021 87.2 386.154 88.3667 385.488 89.7C384.888 90.9667 384.588 92.4333 384.588 94.1C384.588 96.4333 385.021 98.2667 385.888 99.6C386.754 100.933 388.021 101.6 389.688 101.6Z" fill="white"/>
<path d="M631.2 107.88V99.36C630.88 99.4 630.44 99.44 629.88 99.48C629.32 99.52 628.9 99.54 628.62 99.54C626.34 99.54 624.42 99.12 622.86 98.28C621.34 97.44 620.18 96.12 619.38 94.32C618.62 92.48 618.24 90.06 618.24 87.06V73.68C618.24 70.68 618.64 68.24 619.44 66.36C620.24 64.48 621.4 63.1 622.92 62.22C624.48 61.3 626.38 60.84 628.62 60.84C628.98 60.84 629.42 60.86 629.94 60.9C630.46 60.9 630.88 60.92 631.2 60.96V52.02L635.82 52.02V60.9C636.18 60.86 636.66 60.84 637.26 60.84C637.9 60.8 638.38 60.78 638.7 60.78C640.9 60.78 642.76 61.24 644.28 62.16C645.8 63.08 646.94 64.5 647.7 66.42C648.5 68.3 648.9 70.72 648.9 73.68V87.06C648.9 90.06 648.52 92.48 647.76 94.32C647 96.12 645.88 97.44 644.4 98.28C642.96 99.12 641.2 99.54 639.12 99.54C638.56 99.54 638 99.52 637.44 99.48C636.92 99.44 636.38 99.4 635.82 99.36V107.88L631.2 107.88ZM629.04 96.6C629.32 96.6 629.66 96.6 630.06 96.6C630.5 96.56 630.88 96.52 631.2 96.48L631.2 63.9C630.84 63.82 630.44 63.78 630 63.78C629.6 63.78 629.28 63.78 629.04 63.78C627.4 63.78 626.1 64.12 625.14 64.8C624.22 65.48 623.54 66.56 623.1 68.04C622.7 69.52 622.5 71.4 622.5 73.68V87.06C622.5 89.34 622.68 91.18 623.04 92.58C623.44 93.98 624.1 95 625.02 95.64C625.98 96.28 627.32 96.6 629.04 96.6ZM638.22 96.6C639.86 96.6 641.14 96.28 642.06 95.64C643.02 95 643.68 93.98 644.04 92.58C644.44 91.18 644.64 89.34 644.64 87.06V73.68C644.64 71.4 644.44 69.52 644.04 68.04C643.68 66.56 643.02 65.48 642.06 64.8C641.1 64.12 639.76 63.78 638.04 63.78C637.76 63.78 637.4 63.8 636.96 63.84C636.52 63.84 636.14 63.86 635.82 63.9L635.82 96.48C636.18 96.52 636.58 96.56 637.02 96.6C637.5 96.6 637.9 96.6 638.22 96.6ZM664.208 105.54C662.048 105.54 660.268 105.12 658.868 104.28C657.508 103.4 656.488 101.96 655.808 99.96C655.168 97.96 654.848 95.3 654.848 91.98V83.22C654.848 79.78 655.188 77.1 655.868 75.18C656.548 73.22 657.588 71.84 658.988 71.04C660.388 70.2 662.148 69.78 664.268 69.78C666.708 69.78 668.568 70.3 669.848 71.34C671.128 72.38 672.008 73.96 672.488 76.08C673.008 78.16 673.268 80.84 673.268 84.12V87.24L659.228 87.24V93.3C659.228 95.54 659.388 97.32 659.708 98.64C660.068 99.92 660.608 100.84 661.328 101.4C662.088 101.96 663.048 102.24 664.208 102.24C665.088 102.24 665.888 102.08 666.608 101.76C667.328 101.4 667.888 100.74 668.288 99.78C668.728 98.78 668.948 97.38 668.948 95.58V93.18L673.208 93.18V95.1C673.208 98.26 672.548 100.8 671.228 102.72C669.948 104.6 667.608 105.54 664.208 105.54ZM659.228 84.72H668.948V81.84C668.948 80 668.848 78.44 668.648 77.16C668.448 75.84 668.008 74.84 667.328 74.16C666.688 73.44 665.648 73.08 664.208 73.08C663.008 73.08 662.028 73.34 661.268 73.86C660.548 74.38 660.028 75.32 659.708 76.68C659.388 78 659.228 79.9 659.228 82.38V84.72ZM676.42 113.34V102C677.46 101.32 678.38 100.46 679.18 99.42C679.98 98.34 680.68 96.92 681.28 95.16C681.88 93.4 682.38 91.16 682.78 88.44C683.18 85.72 683.48 82.38 683.68 78.42L684.22 70.32L698.68 70.32V101.82L702.16 101.82V113.34L698.86 113.34L698.5 105L680.14 105L679.72 113.34L676.42 113.34ZM680.98 101.82L694.42 101.82V73.56L687.76 73.56L687.22 79.32C686.98 83.12 686.7 86.32 686.38 88.92C686.06 91.52 685.66 93.66 685.18 95.34C684.7 97.02 684.1 98.38 683.38 99.42C682.7 100.42 681.9 101.22 680.98 101.82ZM716.064 105.54C713.904 105.54 712.124 105.12 710.724 104.28C709.364 103.4 708.344 101.96 707.664 99.96C707.024 97.96 706.704 95.3 706.704 91.98V83.22C706.704 79.78 707.044 77.1 707.724 75.18C708.404 73.22 709.444 71.84 710.844 71.04C712.244 70.2 714.004 69.78 716.124 69.78C718.564 69.78 720.424 70.3 721.704 71.34C722.984 72.38 723.864 73.96 724.344 76.08C724.864 78.16 725.124 80.84 725.124 84.12V87.24L711.084 87.24V93.3C711.084 95.54 711.244 97.32 711.564 98.64C711.924 99.92 712.464 100.84 713.184 101.4C713.944 101.96 714.904 102.24 716.064 102.24C716.944 102.24 717.744 102.08 718.464 101.76C719.184 101.4 719.744 100.74 720.144 99.78C720.584 98.78 720.804 97.38 720.804 95.58V93.18L725.064 93.18V95.1C725.064 98.26 724.404 100.8 723.084 102.72C721.804 104.6 719.464 105.54 716.064 105.54ZM711.084 84.72L720.804 84.72V81.84C720.804 80 720.704 78.44 720.504 77.16C720.304 75.84 719.864 74.84 719.184 74.16C718.544 73.44 717.504 73.08 716.064 73.08C714.864 73.08 713.884 73.34 713.124 73.86C712.404 74.38 711.884 75.32 711.564 76.68C711.244 78 711.084 79.9 711.084 82.38V84.72ZM731.036 116.4V70.32H735.416V73.2C736.136 72.32 737.036 71.54 738.116 70.86C739.196 70.14 740.516 69.78 742.076 69.78C743.756 69.78 745.096 70.18 746.096 70.98C747.136 71.74 747.936 72.78 748.496 74.1C749.056 75.42 749.436 76.9 749.636 78.54C749.836 80.18 749.936 81.86 749.936 83.58V90.9C749.936 93.86 749.696 96.44 749.216 98.64C748.736 100.8 747.876 102.5 746.636 103.74C745.436 104.94 743.756 105.54 741.596 105.54C740.196 105.54 738.976 105.18 737.936 104.46C736.936 103.74 736.096 103 735.416 102.24V116.4L731.036 116.4ZM740.936 102.06C742.256 102.06 743.236 101.64 743.876 100.8C744.556 99.96 744.996 98.72 745.196 97.08C745.436 95.4 745.556 93.38 745.556 91.02V83.58C745.556 81.34 745.436 79.46 745.196 77.94C744.996 76.38 744.556 75.2 743.876 74.4C743.196 73.6 742.176 73.2 740.816 73.2C739.696 73.2 738.656 73.5 737.696 74.1C736.776 74.7 736.016 75.3 735.416 75.9V99.54C736.056 100.22 736.836 100.82 737.756 101.34C738.716 101.82 739.776 102.06 740.936 102.06ZM762.055 105.54C760.655 105.54 759.435 105.2 758.395 104.52C757.355 103.8 756.535 102.86 755.935 101.7C755.375 100.5 755.095 99.2 755.095 97.8C755.095 96.04 755.335 94.54 755.815 93.3C756.335 92.06 757.135 90.96 758.215 90C759.335 89 760.775 88.04 762.535 87.12C764.335 86.16 766.515 85.1 769.075 83.94V81.48C769.075 79.36 768.935 77.7 768.655 76.5C768.415 75.26 767.975 74.38 767.335 73.86C766.735 73.34 765.875 73.08 764.755 73.08C763.835 73.08 763.015 73.26 762.295 73.62C761.575 73.98 760.995 74.6 760.555 75.48C760.115 76.32 759.895 77.5 759.895 79.02V80.22L755.575 80.16C755.615 76.64 756.355 74.04 757.795 72.36C759.275 70.64 761.675 69.78 764.995 69.78C768.115 69.78 770.295 70.72 771.535 72.6C772.815 74.44 773.455 77.32 773.455 81.24V98.1C773.455 98.7 773.475 99.48 773.515 100.44C773.555 101.36 773.595 102.24 773.635 103.08C773.675 103.92 773.715 104.56 773.755 105H769.855C769.775 104.24 769.655 103.4 769.495 102.48C769.335 101.52 769.235 100.76 769.195 100.2C768.715 101.6 767.855 102.84 766.615 103.92C765.415 105 763.895 105.54 762.055 105.54ZM763.435 101.82C764.315 101.82 765.115 101.6 765.835 101.16C766.555 100.72 767.195 100.2 767.755 99.6C768.315 98.96 768.755 98.32 769.075 97.68V86.88C767.355 87.76 765.875 88.56 764.635 89.28C763.435 90 762.455 90.7 761.695 91.38C760.935 92.06 760.375 92.84 760.015 93.72C759.655 94.56 759.475 95.56 759.475 96.72C759.475 98.56 759.875 99.88 760.675 100.68C761.475 101.44 762.395 101.82 763.435 101.82ZM777.203 105.3V101.94C778.363 101.9 779.303 101.66 780.023 101.22C780.783 100.78 781.383 100 781.823 98.88C782.303 97.72 782.683 96.08 782.963 93.96C783.283 91.84 783.563 89.12 783.803 85.8L784.883 70.32L800.723 70.32L800.723 105H796.343L796.343 73.68L788.723 73.68L787.883 85.8C787.603 89.72 787.263 92.94 786.863 95.46C786.463 97.98 785.883 99.96 785.123 101.4C784.403 102.84 783.443 103.86 782.243 104.46C781.083 105.02 779.623 105.3 777.863 105.3H777.203ZM807.383 105L807.383 70.32L811.763 70.32L811.763 84.42C811.843 84.42 812.043 84.42 812.363 84.42C812.683 84.42 813.003 84.42 813.323 84.42C813.683 84.42 813.863 84.42 813.863 84.42C816.223 84.42 818.163 84.68 819.683 85.2C821.203 85.68 822.403 86.38 823.283 87.3C824.163 88.18 824.783 89.26 825.143 90.54C825.503 91.78 825.683 93.18 825.683 94.74C825.683 96.22 825.503 97.6 825.143 98.88C824.783 100.12 824.143 101.2 823.223 102.12C822.343 103 821.103 103.7 819.503 104.22C817.943 104.74 815.943 105 813.503 105L807.383 105ZM811.763 102.24H813.503C815.743 102.24 817.443 101.94 818.603 101.34C819.763 100.7 820.563 99.84 821.003 98.76C821.443 97.64 821.663 96.3 821.663 94.74C821.663 93.26 821.463 91.96 821.063 90.84C820.663 89.72 819.903 88.84 818.783 88.2C817.663 87.52 815.963 87.18 813.683 87.18C813.643 87.18 813.403 87.18 812.963 87.18C812.563 87.18 812.163 87.18 811.763 87.18V102.24ZM830.704 105L830.704 70.32H835.084L835.084 85.44L845.884 85.44L845.884 70.32H850.324L850.324 105H845.884V88.74L835.084 88.74V105L830.704 105ZM865.592 105.54C863.232 105.54 861.372 105.04 860.012 104.04C858.692 103 857.752 101.52 857.192 99.6C856.632 97.64 856.352 95.26 856.352 92.46V82.86C856.352 80.06 856.632 77.7 857.192 75.78C857.752 73.82 858.692 72.34 860.012 71.34C861.372 70.3 863.232 69.78 865.592 69.78C868.032 69.78 869.912 70.3 871.232 71.34C872.552 72.34 873.492 73.82 874.052 75.78C874.612 77.7 874.892 80.06 874.892 82.86V92.46C874.892 95.26 874.612 97.64 874.052 99.6C873.492 101.52 872.552 103 871.232 104.04C869.912 105.04 868.032 105.54 865.592 105.54ZM865.592 102.24C867.112 102.24 868.212 101.84 868.892 101.04C869.612 100.24 870.052 99.12 870.212 97.68C870.372 96.2 870.452 94.54 870.452 92.7V82.62C870.452 80.74 870.372 79.1 870.212 77.7C870.052 76.26 869.612 75.14 868.892 74.34C868.212 73.5 867.112 73.08 865.592 73.08C864.072 73.08 862.972 73.5 862.292 74.34C861.612 75.14 861.192 76.26 861.032 77.7C860.872 79.1 860.792 80.74 860.792 82.62V92.7C860.792 94.54 860.872 96.2 861.032 97.68C861.192 99.12 861.612 100.24 862.292 101.04C862.972 101.84 864.072 102.24 865.592 102.24ZM889.677 105.54C887.517 105.54 885.737 105.12 884.337 104.28C882.977 103.4 881.957 101.96 881.277 99.96C880.637 97.96 880.317 95.3 880.317 91.98V83.22C880.317 79.78 880.657 77.1 881.337 75.18C882.017 73.22 883.057 71.84 884.457 71.04C885.857 70.2 887.617 69.78 889.737 69.78C892.177 69.78 894.037 70.3 895.317 71.34C896.597 72.38 897.477 73.96 897.957 76.08C898.477 78.16 898.737 80.84 898.737 84.12V87.24L884.697 87.24V93.3C884.697 95.54 884.857 97.32 885.177 98.64C885.537 99.92 886.077 100.84 886.797 101.4C887.557 101.96 888.517 102.24 889.677 102.24C890.557 102.24 891.357 102.08 892.077 101.76C892.797 101.4 893.357 100.74 893.757 99.78C894.197 98.78 894.417 97.38 894.417 95.58V93.18H898.677V95.1C898.677 98.26 898.017 100.8 896.697 102.72C895.417 104.6 893.077 105.54 889.677 105.54ZM884.697 84.72L894.417 84.72L894.417 81.84C894.417 80 894.317 78.44 894.117 77.16C893.917 75.84 893.477 74.84 892.797 74.16C892.157 73.44 891.117 73.08 889.677 73.08C888.477 73.08 887.497 73.34 886.737 73.86C886.017 74.38 885.497 75.32 885.177 76.68C884.857 78 884.697 79.9 884.697 82.38L884.697 84.72ZM916.895 105L916.895 70.32L929.675 70.32V73.62L921.275 73.62L921.275 105L916.895 105ZM941.999 105.54C939.639 105.54 937.779 105.04 936.419 104.04C935.099 103 934.159 101.52 933.599 99.6C933.039 97.64 932.759 95.26 932.759 92.46V82.86C932.759 80.06 933.039 77.7 933.599 75.78C934.159 73.82 935.099 72.34 936.419 71.34C937.779 70.3 939.639 69.78 941.999 69.78C944.439 69.78 946.319 70.3 947.639 71.34C948.959 72.34 949.899 73.82 950.459 75.78C951.019 77.7 951.299 80.06 951.299 82.86V92.46C951.299 95.26 951.019 97.64 950.459 99.6C949.899 101.52 948.959 103 947.639 104.04C946.319 105.04 944.439 105.54 941.999 105.54ZM941.999 102.24C943.519 102.24 944.619 101.84 945.299 101.04C946.019 100.24 946.459 99.12 946.619 97.68C946.779 96.2 946.859 94.54 946.859 92.7L946.859 82.62C946.859 80.74 946.779 79.1 946.619 77.7C946.459 76.26 946.019 75.14 945.299 74.34C944.619 73.5 943.519 73.08 941.999 73.08C940.479 73.08 939.379 73.5 938.699 74.34C938.019 75.14 937.599 76.26 937.439 77.7C937.279 79.1 937.199 80.74 937.199 82.62L937.199 92.7C937.199 94.54 937.279 96.2 937.439 97.68C937.599 99.12 938.019 100.24 938.699 101.04C939.379 101.84 940.479 102.24 941.999 102.24ZM966.023 105.54C963.303 105.54 961.283 104.94 959.963 103.74C958.643 102.54 957.763 100.92 957.323 98.88C956.923 96.8 956.723 94.46 956.723 91.86V83.76C956.723 80.56 956.983 77.94 957.503 75.9C958.023 73.82 958.943 72.28 960.263 71.28C961.623 70.28 963.543 69.78 966.023 69.78C968.463 69.78 970.323 70.24 971.603 71.16C972.883 72.08 973.743 73.38 974.183 75.06C974.623 76.74 974.843 78.68 974.843 80.88V82.56L970.763 82.56V80.88C970.763 78.84 970.603 77.26 970.283 76.14C970.003 75.02 969.503 74.24 968.783 73.8C968.103 73.32 967.183 73.08 966.023 73.08C964.663 73.08 963.623 73.4 962.903 74.04C962.183 74.68 961.703 75.74 961.463 77.22C961.223 78.66 961.103 80.6 961.103 83.04V92.76C961.103 96.24 961.443 98.7 962.123 100.14C962.803 101.54 964.123 102.24 966.083 102.24C967.443 102.24 968.463 101.94 969.143 101.34C969.823 100.7 970.263 99.76 970.463 98.52C970.663 97.28 970.763 95.74 970.763 93.9V91.98L974.843 91.98V93.66C974.843 95.98 974.623 98.04 974.183 99.84C973.783 101.6 972.943 103 971.663 104.04C970.383 105.04 968.503 105.54 966.023 105.54ZM979.744 113.64V110.22C981.744 110.22 983.244 110.06 984.244 109.74C985.284 109.46 985.964 109.04 986.284 108.48C986.644 107.96 986.824 107.34 986.824 106.62C986.824 105.98 986.704 105.14 986.464 104.1C986.224 103.06 985.964 101.98 985.684 100.86L978.544 70.32H982.924L988.924 99.84L994.744 70.32H999.184L990.784 107.46C990.464 108.94 989.884 110.12 989.044 111C988.244 111.92 987.164 112.58 985.804 112.98C984.484 113.42 982.844 113.64 980.884 113.64H979.744ZM999.506 113.34V102C1000.55 101.32 1001.47 100.46 1002.27 99.42C1003.07 98.34 1003.77 96.92 1004.37 95.16C1004.97 93.4 1005.47 91.16 1005.87 88.44C1006.27 85.72 1006.57 82.38 1006.77 78.42L1007.31 70.32L1021.77 70.32L1021.77 101.82L1025.25 101.82V113.34L1021.95 113.34L1021.59 105L1003.23 105L1002.81 113.34L999.506 113.34ZM1004.07 101.82L1017.51 101.82L1017.51 73.56H1010.85L1010.31 79.32C1010.07 83.12 1009.79 86.32 1009.47 88.92C1009.15 91.52 1008.75 93.66 1008.27 95.34C1007.79 97.02 1007.19 98.38 1006.47 99.42C1005.79 100.42 1004.99 101.22 1004.07 101.82ZM1036.45 105.54C1035.05 105.54 1033.83 105.2 1032.79 104.52C1031.75 103.8 1030.93 102.86 1030.33 101.7C1029.77 100.5 1029.49 99.2 1029.49 97.8C1029.49 96.04 1029.73 94.54 1030.21 93.3C1030.73 92.06 1031.53 90.96 1032.61 90C1033.73 89 1035.17 88.04 1036.93 87.12C1038.73 86.16 1040.91 85.1 1043.47 83.94V81.48C1043.47 79.36 1043.33 77.7 1043.05 76.5C1042.81 75.26 1042.37 74.38 1041.73 73.86C1041.13 73.34 1040.27 73.08 1039.15 73.08C1038.23 73.08 1037.41 73.26 1036.69 73.62C1035.97 73.98 1035.39 74.6 1034.95 75.48C1034.51 76.32 1034.29 77.5 1034.29 79.02V80.22L1029.97 80.16C1030.01 76.64 1030.75 74.04 1032.19 72.36C1033.67 70.64 1036.07 69.78 1039.39 69.78C1042.51 69.78 1044.69 70.72 1045.93 72.6C1047.21 74.44 1047.85 77.32 1047.85 81.24V98.1C1047.85 98.7 1047.87 99.48 1047.91 100.44C1047.95 101.36 1047.99 102.24 1048.03 103.08C1048.07 103.92 1048.11 104.56 1048.15 105H1044.25C1044.17 104.24 1044.05 103.4 1043.89 102.48C1043.73 101.52 1043.63 100.76 1043.59 100.2C1043.11 101.6 1042.25 102.84 1041.01 103.92C1039.81 105 1038.29 105.54 1036.45 105.54ZM1037.83 101.82C1038.71 101.82 1039.51 101.6 1040.23 101.16C1040.95 100.72 1041.59 100.2 1042.15 99.6C1042.71 98.96 1043.15 98.32 1043.47 97.68V86.88C1041.75 87.76 1040.27 88.56 1039.03 89.28C1037.83 90 1036.85 90.7 1036.09 91.38C1035.33 92.06 1034.77 92.84 1034.41 93.72C1034.05 94.56 1033.87 95.56 1033.87 96.72C1033.87 98.56 1034.27 99.88 1035.07 100.68C1035.87 101.44 1036.79 101.82 1037.83 101.82ZM1054.3 116.4L1054.3 70.32L1058.68 70.32V73.2C1059.4 72.32 1060.3 71.54 1061.38 70.86C1062.46 70.14 1063.78 69.78 1065.34 69.78C1067.02 69.78 1068.36 70.18 1069.36 70.98C1070.4 71.74 1071.2 72.78 1071.76 74.1C1072.32 75.42 1072.7 76.9 1072.9 78.54C1073.1 80.18 1073.2 81.86 1073.2 83.58V90.9C1073.2 93.86 1072.96 96.44 1072.48 98.64C1072 100.8 1071.14 102.5 1069.9 103.74C1068.7 104.94 1067.02 105.54 1064.86 105.54C1063.46 105.54 1062.24 105.18 1061.2 104.46C1060.2 103.74 1059.36 103 1058.68 102.24L1058.68 116.4L1054.3 116.4ZM1064.2 102.06C1065.52 102.06 1066.5 101.64 1067.14 100.8C1067.82 99.96 1068.26 98.72 1068.46 97.08C1068.7 95.4 1068.82 93.38 1068.82 91.02V83.58C1068.82 81.34 1068.7 79.46 1068.46 77.94C1068.26 76.38 1067.82 75.2 1067.14 74.4C1066.46 73.6 1065.44 73.2 1064.08 73.2C1062.96 73.2 1061.92 73.5 1060.96 74.1C1060.04 74.7 1059.28 75.3 1058.68 75.9V99.54C1059.32 100.22 1060.1 100.82 1061.02 101.34C1061.98 101.82 1063.04 102.06 1064.2 102.06ZM1087.96 105.54C1085.24 105.54 1083.22 104.94 1081.9 103.74C1080.58 102.54 1079.7 100.92 1079.26 98.88C1078.86 96.8 1078.66 94.46 1078.66 91.86V83.76C1078.66 80.56 1078.92 77.94 1079.44 75.9C1079.96 73.82 1080.88 72.28 1082.2 71.28C1083.56 70.28 1085.48 69.78 1087.96 69.78C1090.4 69.78 1092.26 70.24 1093.54 71.16C1094.82 72.08 1095.68 73.38 1096.12 75.06C1096.56 76.74 1096.78 78.68 1096.78 80.88V82.56H1092.7V80.88C1092.7 78.84 1092.54 77.26 1092.22 76.14C1091.94 75.02 1091.44 74.24 1090.72 73.8C1090.04 73.32 1089.12 73.08 1087.96 73.08C1086.6 73.08 1085.56 73.4 1084.84 74.04C1084.12 74.68 1083.64 75.74 1083.4 77.22C1083.16 78.66 1083.04 80.6 1083.04 83.04V92.76C1083.04 96.24 1083.38 98.7 1084.06 100.14C1084.74 101.54 1086.06 102.24 1088.02 102.24C1089.38 102.24 1090.4 101.94 1091.08 101.34C1091.76 100.7 1092.2 99.76 1092.4 98.52C1092.6 97.28 1092.7 95.74 1092.7 93.9V91.98H1096.78V93.66C1096.78 95.98 1096.56 98.04 1096.12 99.84C1095.72 101.6 1094.88 103 1093.6 104.04C1092.32 105.04 1090.44 105.54 1087.96 105.54ZM1107.2 105V73.68L1099.7 73.68V70.32L1118.96 70.32V73.68L1111.58 73.68V105L1107.2 105ZM1122.74 105V70.32H1131.14C1133.42 70.32 1135.18 70.72 1136.42 71.52C1137.7 72.32 1138.62 73.36 1139.18 74.64C1139.74 75.88 1140.02 77.22 1140.02 78.66C1140.02 80.22 1139.72 81.72 1139.12 83.16C1138.52 84.56 1137.34 85.56 1135.58 86.16C1136.94 86.52 1137.98 87.16 1138.7 88.08C1139.46 88.96 1140 90 1140.32 91.2C1140.64 92.4 1140.8 93.66 1140.8 94.98C1140.8 96.94 1140.54 98.68 1140.02 100.2C1139.5 101.72 1138.58 102.9 1137.26 103.74C1135.94 104.58 1134.06 105 1131.62 105L1122.74 105ZM1127.06 101.64H1130.84C1132.2 101.64 1133.28 101.38 1134.08 100.86C1134.92 100.34 1135.52 99.58 1135.88 98.58C1136.28 97.54 1136.48 96.28 1136.48 94.8C1136.48 92.96 1136.24 91.58 1135.76 90.66C1135.32 89.7 1134.7 89.04 1133.9 88.68C1133.14 88.32 1132.22 88.14 1131.14 88.14H1127.06V101.64ZM1127.06 84.96H1131.44C1132.8 84.96 1133.9 84.46 1134.74 83.46C1135.58 82.46 1136 81 1136 79.08C1136 77.28 1135.54 75.94 1134.62 75.06C1133.74 74.14 1132.42 73.68 1130.66 73.68H1127.06V84.96ZM1154.81 105.54C1152.65 105.54 1150.87 105.12 1149.47 104.28C1148.11 103.4 1147.09 101.96 1146.41 99.96C1145.77 97.96 1145.45 95.3 1145.45 91.98V83.22C1145.45 79.78 1145.79 77.1 1146.47 75.18C1147.15 73.22 1148.19 71.84 1149.59 71.04C1150.99 70.2 1152.75 69.78 1154.87 69.78C1157.31 69.78 1159.17 70.3 1160.45 71.34C1161.73 72.38 1162.61 73.96 1163.09 76.08C1163.61 78.16 1163.87 80.84 1163.87 84.12V87.24L1149.83 87.24V93.3C1149.83 95.54 1149.99 97.32 1150.31 98.64C1150.67 99.92 1151.21 100.84 1151.93 101.4C1152.69 101.96 1153.65 102.24 1154.81 102.24C1155.69 102.24 1156.49 102.08 1157.21 101.76C1157.93 101.4 1158.49 100.74 1158.89 99.78C1159.33 98.78 1159.55 97.38 1159.55 95.58V93.18H1163.81V95.1C1163.81 98.26 1163.15 100.8 1161.83 102.72C1160.55 104.6 1158.21 105.54 1154.81 105.54ZM1149.83 84.72L1159.55 84.72V81.84C1159.55 80 1159.45 78.44 1159.25 77.16C1159.05 75.84 1158.61 74.84 1157.93 74.16C1157.29 73.44 1156.25 73.08 1154.81 73.08C1153.61 73.08 1152.63 73.34 1151.87 73.86C1151.15 74.38 1150.63 75.32 1150.31 76.68C1149.99 78 1149.83 79.9 1149.83 82.38V84.72ZM1169.79 105V70.32L1174.17 70.32V85.44L1184.97 85.44V70.32L1189.41 70.32V105H1184.97V88.74L1174.17 88.74V105H1169.79ZM1196.09 105V70.32H1200.47V85.44L1211.27 85.44V70.32H1215.71V105L1211.27 105V88.74L1200.47 88.74V105L1196.09 105ZM1230.98 105.54C1228.62 105.54 1226.76 105.04 1225.4 104.04C1224.08 103 1223.14 101.52 1222.58 99.6C1222.02 97.64 1221.74 95.26 1221.74 92.46V82.86C1221.74 80.06 1222.02 77.7 1222.58 75.78C1223.14 73.82 1224.08 72.34 1225.4 71.34C1226.76 70.3 1228.62 69.78 1230.98 69.78C1233.42 69.78 1235.3 70.3 1236.62 71.34C1237.94 72.34 1238.88 73.82 1239.44 75.78C1240 77.7 1240.28 80.06 1240.28 82.86V92.46C1240.28 95.26 1240 97.64 1239.44 99.6C1238.88 101.52 1237.94 103 1236.62 104.04C1235.3 105.04 1233.42 105.54 1230.98 105.54ZM1230.98 102.24C1232.5 102.24 1233.6 101.84 1234.28 101.04C1235 100.24 1235.44 99.12 1235.6 97.68C1235.76 96.2 1235.84 94.54 1235.84 92.7V82.62C1235.84 80.74 1235.76 79.1 1235.6 77.7C1235.44 76.26 1235 75.14 1234.28 74.34C1233.6 73.5 1232.5 73.08 1230.98 73.08C1229.46 73.08 1228.36 73.5 1227.68 74.34C1227 75.14 1226.58 76.26 1226.42 77.7C1226.26 79.1 1226.18 80.74 1226.18 82.62V92.7C1226.18 94.54 1226.26 96.2 1226.42 97.68C1226.58 99.12 1227 100.24 1227.68 101.04C1228.36 101.84 1229.46 102.24 1230.98 102.24ZM1255.07 105.54C1252.91 105.54 1251.13 105.12 1249.73 104.28C1248.37 103.4 1247.35 101.96 1246.67 99.96C1246.03 97.96 1245.71 95.3 1245.71 91.98V83.22C1245.71 79.78 1246.05 77.1 1246.73 75.18C1247.41 73.22 1248.45 71.84 1249.85 71.04C1251.25 70.2 1253.01 69.78 1255.13 69.78C1257.57 69.78 1259.43 70.3 1260.71 71.34C1261.99 72.38 1262.87 73.96 1263.35 76.08C1263.87 78.16 1264.13 80.84 1264.13 84.12V87.24L1250.09 87.24V93.3C1250.09 95.54 1250.25 97.32 1250.57 98.64C1250.93 99.92 1251.47 100.84 1252.19 101.4C1252.95 101.96 1253.91 102.24 1255.07 102.24C1255.95 102.24 1256.75 102.08 1257.47 101.76C1258.19 101.4 1258.75 100.74 1259.15 99.78C1259.59 98.78 1259.81 97.38 1259.81 95.58V93.18H1264.07V95.1C1264.07 98.26 1263.41 100.8 1262.09 102.72C1260.81 104.6 1258.47 105.54 1255.07 105.54ZM1250.09 84.72L1259.81 84.72V81.84C1259.81 80 1259.71 78.44 1259.51 77.16C1259.31 75.84 1258.87 74.84 1258.19 74.16C1257.55 73.44 1256.51 73.08 1255.07 73.08C1253.87 73.08 1252.89 73.34 1252.13 73.86C1251.41 74.38 1250.89 75.32 1250.57 76.68C1250.25 78 1250.09 79.9 1250.09 82.38V84.72ZM1292.19 105.54C1290.47 105.54 1288.85 105.14 1287.33 104.34C1285.81 103.54 1284.61 102.3 1283.73 100.62C1282.85 98.9 1282.41 96.7 1282.41 94.02V72.66C1282.41 69.66 1282.61 67.24 1283.01 65.4C1283.41 63.52 1284.03 62.06 1284.87 61.02C1285.75 59.98 1286.81 59.2 1288.05 58.68C1289.33 58.08 1290.63 57.66 1291.95 57.42C1293.31 57.18 1294.71 56.9 1296.15 56.58C1297.63 56.26 1299.17 55.72 1300.77 54.96L1301.55 58.62C1300.07 59.34 1298.59 59.86 1297.11 60.18C1295.63 60.46 1294.25 60.72 1292.97 60.96C1291.73 61.2 1290.59 61.6 1289.55 62.16C1288.47 62.76 1287.65 63.74 1287.09 65.1C1286.57 66.42 1286.31 68.38 1286.31 70.98V75.9C1286.79 75.38 1287.47 74.88 1288.35 74.4C1289.27 73.92 1290.25 73.52 1291.29 73.2C1292.33 72.88 1293.33 72.72 1294.29 72.72C1295.97 72.72 1297.43 73.14 1298.67 73.98C1299.91 74.82 1300.85 76.2 1301.49 78.12C1302.17 80.04 1302.51 82.66 1302.51 85.98V92.04C1302.51 95.64 1302.07 98.4 1301.19 100.32C1300.35 102.24 1299.17 103.58 1297.65 104.34C1296.13 105.1 1294.31 105.5 1292.19 105.54ZM1292.55 102.24C1293.79 102.2 1294.81 101.92 1295.61 101.4C1296.41 100.88 1297.01 99.98 1297.41 98.7C1297.85 97.38 1298.07 95.54 1298.07 93.18V84.84C1298.07 82.56 1297.91 80.78 1297.59 79.5C1297.31 78.18 1296.83 77.24 1296.15 76.68C1295.47 76.12 1294.55 75.84 1293.39 75.84C1292.71 75.84 1291.95 75.98 1291.11 76.26C1290.31 76.5 1289.51 76.82 1288.71 77.22C1287.95 77.62 1287.31 78.06 1286.79 78.54V94.14C1286.79 96.1 1287.03 97.68 1287.51 98.88C1288.03 100.04 1288.71 100.9 1289.55 101.46C1290.43 102.02 1291.43 102.28 1292.55 102.24ZM1326.05 105.54C1323.77 105.54 1322.01 105.04 1320.77 104.04C1319.53 103 1318.65 101.52 1318.13 99.6C1317.65 97.64 1317.41 95.26 1317.41 92.46V89.28L1312.61 89.28V105H1308.65V70.32H1312.61V86.34L1317.41 86.34V82.86C1317.41 80.06 1317.65 77.7 1318.13 75.78C1318.65 73.82 1319.53 72.34 1320.77 71.34C1322.01 70.3 1323.77 69.78 1326.05 69.78C1328.33 69.78 1330.09 70.3 1331.33 71.34C1332.57 72.34 1333.43 73.82 1333.91 75.78C1334.43 77.7 1334.69 80.06 1334.69 82.86V92.46C1334.69 95.26 1334.43 97.64 1333.91 99.6C1333.43 101.52 1332.57 103 1331.33 104.04C1330.09 105.04 1328.33 105.54 1326.05 105.54ZM1326.05 102.24C1327.49 102.24 1328.53 101.84 1329.17 101.04C1329.85 100.24 1330.27 99.12 1330.43 97.68C1330.63 96.2 1330.73 94.54 1330.73 92.7V82.62C1330.73 80.74 1330.63 79.1 1330.43 77.7C1330.27 76.26 1329.85 75.14 1329.17 74.34C1328.53 73.5 1327.49 73.08 1326.05 73.08C1324.61 73.08 1323.55 73.5 1322.87 74.34C1322.23 75.14 1321.81 76.26 1321.61 77.7C1321.45 79.1 1321.37 80.74 1321.37 82.62V92.7C1321.37 94.54 1321.45 96.2 1321.61 97.68C1321.81 99.12 1322.23 100.24 1322.87 101.04C1323.55 101.84 1324.61 102.24 1326.05 102.24ZM1338.06 113.34V102C1339.1 101.32 1340.02 100.46 1340.82 99.42C1341.62 98.34 1342.32 96.92 1342.92 95.16C1343.52 93.4 1344.02 91.16 1344.42 88.44C1344.82 85.72 1345.12 82.38 1345.32 78.42L1345.86 70.32L1360.32 70.32V101.82H1363.8V113.34H1360.5L1360.14 105L1341.78 105L1341.36 113.34L1338.06 113.34ZM1342.62 101.82L1356.06 101.82V73.56L1349.4 73.56L1348.86 79.32C1348.62 83.12 1348.34 86.32 1348.02 88.92C1347.7 91.52 1347.3 93.66 1346.82 95.34C1346.34 97.02 1345.74 98.38 1345.02 99.42C1344.34 100.42 1343.54 101.22 1342.62 101.82ZM1365.88 105L1375.66 87.24L1366.36 70.32L1370.62 70.32L1379.32 86.94H1379.86V70.32L1383.52 70.32V86.94H1384.06L1392.7 70.32H1396.9L1387.66 87.24L1397.38 105H1393.3L1384.06 87.78H1383.52V105L1379.86 105V87.78H1379.26L1370.02 105H1365.88ZM1409.7 105.54C1407.54 105.54 1405.76 105.12 1404.36 104.28C1403 103.4 1401.98 101.96 1401.3 99.96C1400.66 97.96 1400.34 95.3 1400.34 91.98V83.22C1400.34 79.78 1400.68 77.1 1401.36 75.18C1402.04 73.22 1403.08 71.84 1404.48 71.04C1405.88 70.2 1407.64 69.78 1409.76 69.78C1412.2 69.78 1414.06 70.3 1415.34 71.34C1416.62 72.38 1417.5 73.96 1417.98 76.08C1418.5 78.16 1418.76 80.84 1418.76 84.12V87.24L1404.72 87.24V93.3C1404.72 95.54 1404.88 97.32 1405.2 98.64C1405.56 99.92 1406.1 100.84 1406.82 101.4C1407.58 101.96 1408.54 102.24 1409.7 102.24C1410.58 102.24 1411.38 102.08 1412.1 101.76C1412.82 101.4 1413.38 100.74 1413.78 99.78C1414.22 98.78 1414.44 97.38 1414.44 95.58V93.18L1418.7 93.18V95.1C1418.7 98.26 1418.04 100.8 1416.72 102.72C1415.44 104.6 1413.1 105.54 1409.7 105.54ZM1404.72 84.72H1414.44V81.84C1414.44 80 1414.34 78.44 1414.14 77.16C1413.94 75.84 1413.5 74.84 1412.82 74.16C1412.18 73.44 1411.14 73.08 1409.7 73.08C1408.5 73.08 1407.52 73.34 1406.76 73.86C1406.04 74.38 1405.52 75.32 1405.2 76.68C1404.88 78 1404.72 79.9 1404.72 82.38V84.72ZM1428.94 105V73.68H1421.44V70.32L1440.7 70.32V73.68L1433.32 73.68V105L1428.94 105ZM1444.47 105V70.32H1448.85V85.44L1459.65 85.44V70.32H1464.09V105H1459.65V88.74L1448.85 88.74V105L1444.47 105ZM1479.36 105.54C1477 105.54 1475.14 105.04 1473.78 104.04C1472.46 103 1471.52 101.52 1470.96 99.6C1470.4 97.64 1470.12 95.26 1470.12 92.46V82.86C1470.12 80.06 1470.4 77.7 1470.96 75.78C1471.52 73.82 1472.46 72.34 1473.78 71.34C1475.14 70.3 1477 69.78 1479.36 69.78C1481.8 69.78 1483.68 70.3 1485 71.34C1486.32 72.34 1487.26 73.82 1487.82 75.78C1488.38 77.7 1488.66 80.06 1488.66 82.86V92.46C1488.66 95.26 1488.38 97.64 1487.82 99.6C1487.26 101.52 1486.32 103 1485 104.04C1483.68 105.04 1481.8 105.54 1479.36 105.54ZM1479.36 102.24C1480.88 102.24 1481.98 101.84 1482.66 101.04C1483.38 100.24 1483.82 99.12 1483.98 97.68C1484.14 96.2 1484.22 94.54 1484.22 92.7V82.62C1484.22 80.74 1484.14 79.1 1483.98 77.7C1483.82 76.26 1483.38 75.14 1482.66 74.34C1481.98 73.5 1480.88 73.08 1479.36 73.08C1477.84 73.08 1476.74 73.5 1476.06 74.34C1475.38 75.14 1474.96 76.26 1474.8 77.7C1474.64 79.1 1474.56 80.74 1474.56 82.62V92.7C1474.56 94.54 1474.64 96.2 1474.8 97.68C1474.96 99.12 1475.38 100.24 1476.06 101.04C1476.74 101.84 1477.84 102.24 1479.36 102.24ZM1503.45 105.54C1501.29 105.54 1499.51 105.12 1498.11 104.28C1496.75 103.4 1495.73 101.96 1495.05 99.96C1494.41 97.96 1494.09 95.3 1494.09 91.98V83.22C1494.09 79.78 1494.43 77.1 1495.11 75.18C1495.79 73.22 1496.83 71.84 1498.23 71.04C1499.63 70.2 1501.39 69.78 1503.51 69.78C1505.95 69.78 1507.81 70.3 1509.09 71.34C1510.37 72.38 1511.25 73.96 1511.73 76.08C1512.25 78.16 1512.51 80.84 1512.51 84.12V87.24L1498.47 87.24V93.3C1498.47 95.54 1498.63 97.32 1498.95 98.64C1499.31 99.92 1499.85 100.84 1500.57 101.4C1501.33 101.96 1502.29 102.24 1503.45 102.24C1504.33 102.24 1505.13 102.08 1505.85 101.76C1506.57 101.4 1507.13 100.74 1507.53 99.78C1507.97 98.78 1508.19 97.38 1508.19 95.58V93.18H1512.45V95.1C1512.45 98.26 1511.79 100.8 1510.47 102.72C1509.19 104.6 1506.85 105.54 1503.45 105.54ZM1498.47 84.72L1508.19 84.72V81.84C1508.19 80 1508.09 78.44 1507.89 77.16C1507.69 75.84 1507.25 74.84 1506.57 74.16C1505.93 73.44 1504.89 73.08 1503.45 73.08C1502.25 73.08 1501.27 73.34 1500.51 73.86C1499.79 74.38 1499.27 75.32 1498.95 76.68C1498.63 78 1498.47 79.9 1498.47 82.38V84.72ZM1539.24 105.54C1536.88 105.54 1535.02 105.04 1533.66 104.04C1532.34 103 1531.4 101.52 1530.84 99.6C1530.28 97.64 1530 95.26 1530 92.46V82.86C1530 80.06 1530.28 77.7 1530.84 75.78C1531.4 73.82 1532.34 72.34 1533.66 71.34C1535.02 70.3 1536.88 69.78 1539.24 69.78C1541.68 69.78 1543.56 70.3 1544.88 71.34C1546.2 72.34 1547.14 73.82 1547.7 75.78C1548.26 77.7 1548.54 80.06 1548.54 82.86V92.46C1548.54 95.26 1548.26 97.64 1547.7 99.6C1547.14 101.52 1546.2 103 1544.88 104.04C1543.56 105.04 1541.68 105.54 1539.24 105.54ZM1539.24 102.24C1540.76 102.24 1541.86 101.84 1542.54 101.04C1543.26 100.24 1543.7 99.12 1543.86 97.68C1544.02 96.2 1544.1 94.54 1544.1 92.7V82.62C1544.1 80.74 1544.02 79.1 1543.86 77.7C1543.7 76.26 1543.26 75.14 1542.54 74.34C1541.86 73.5 1540.76 73.08 1539.24 73.08C1537.72 73.08 1536.62 73.5 1535.94 74.34C1535.26 75.14 1534.84 76.26 1534.68 77.7C1534.52 79.1 1534.44 80.74 1534.44 82.62V92.7C1534.44 94.54 1534.52 96.2 1534.68 97.68C1534.84 99.12 1535.26 100.24 1535.94 101.04C1536.62 101.84 1537.72 102.24 1539.24 102.24ZM1564.53 105.54C1562.81 105.54 1561.19 105.14 1559.67 104.34C1558.15 103.54 1556.95 102.3 1556.07 100.62C1555.19 98.9 1554.75 96.7 1554.75 94.02V72.66C1554.75 69.66 1554.95 67.24 1555.35 65.4C1555.75 63.52 1556.37 62.06 1557.21 61.02C1558.09 59.98 1559.15 59.2 1560.39 58.68C1561.67 58.08 1562.97 57.66 1564.29 57.42C1565.65 57.18 1567.05 56.9 1568.49 56.58C1569.97 56.26 1571.51 55.72 1573.11 54.96L1573.89 58.62C1572.41 59.34 1570.93 59.86 1569.45 60.18C1567.97 60.46 1566.59 60.72 1565.31 60.96C1564.07 61.2 1562.93 61.6 1561.89 62.16C1560.81 62.76 1559.99 63.74 1559.43 65.1C1558.91 66.42 1558.65 68.38 1558.65 70.98V75.9C1559.13 75.38 1559.81 74.88 1560.69 74.4C1561.61 73.92 1562.59 73.52 1563.63 73.2C1564.67 72.88 1565.67 72.72 1566.63 72.72C1568.31 72.72 1569.77 73.14 1571.01 73.98C1572.25 74.82 1573.19 76.2 1573.83 78.12C1574.51 80.04 1574.85 82.66 1574.85 85.98V92.04C1574.85 95.64 1574.41 98.4 1573.53 100.32C1572.69 102.24 1571.51 103.58 1569.99 104.34C1568.47 105.1 1566.65 105.5 1564.53 105.54ZM1564.89 102.24C1566.13 102.2 1567.15 101.92 1567.95 101.4C1568.75 100.88 1569.35 99.98 1569.75 98.7C1570.19 97.38 1570.41 95.54 1570.41 93.18V84.84C1570.41 82.56 1570.25 80.78 1569.93 79.5C1569.65 78.18 1569.17 77.24 1568.49 76.68C1567.81 76.12 1566.89 75.84 1565.73 75.84C1565.05 75.84 1564.29 75.98 1563.45 76.26C1562.65 76.5 1561.85 76.82 1561.05 77.22C1560.29 77.62 1559.65 78.06 1559.13 78.54V94.14C1559.13 96.1 1559.37 97.68 1559.85 98.88C1560.37 100.04 1561.05 100.9 1561.89 101.46C1562.77 102.02 1563.77 102.28 1564.89 102.24ZM1581 116.4V70.32L1585.38 70.32V73.2C1586.1 72.32 1587 71.54 1588.08 70.86C1589.16 70.14 1590.48 69.78 1592.04 69.78C1593.72 69.78 1595.06 70.18 1596.06 70.98C1597.1 71.74 1597.9 72.78 1598.46 74.1C1599.02 75.42 1599.4 76.9 1599.6 78.54C1599.8 80.18 1599.9 81.86 1599.9 83.58V90.9C1599.9 93.86 1599.66 96.44 1599.18 98.64C1598.7 100.8 1597.84 102.5 1596.6 103.74C1595.4 104.94 1593.72 105.54 1591.56 105.54C1590.16 105.54 1588.94 105.18 1587.9 104.46C1586.9 103.74 1586.06 103 1585.38 102.24V116.4H1581ZM1590.9 102.06C1592.22 102.06 1593.2 101.64 1593.84 100.8C1594.52 99.96 1594.96 98.72 1595.16 97.08C1595.4 95.4 1595.52 93.38 1595.52 91.02V83.58C1595.52 81.34 1595.4 79.46 1595.16 77.94C1594.96 76.38 1594.52 75.2 1593.84 74.4C1593.16 73.6 1592.14 73.2 1590.78 73.2C1589.66 73.2 1588.62 73.5 1587.66 74.1C1586.74 74.7 1585.98 75.3 1585.38 75.9V99.54C1586.02 100.22 1586.8 100.82 1587.72 101.34C1588.68 101.82 1589.74 102.06 1590.9 102.06ZM1612.02 105.54C1610.62 105.54 1609.4 105.2 1608.36 104.52C1607.32 103.8 1606.5 102.86 1605.9 101.7C1605.34 100.5 1605.06 99.2 1605.06 97.8C1605.06 96.04 1605.3 94.54 1605.78 93.3C1606.3 92.06 1607.1 90.96 1608.18 90C1609.3 89 1610.74 88.04 1612.5 87.12C1614.3 86.16 1616.48 85.1 1619.04 83.94V81.48C1619.04 79.36 1618.9 77.7 1618.62 76.5C1618.38 75.26 1617.94 74.38 1617.3 73.86C1616.7 73.34 1615.84 73.08 1614.72 73.08C1613.8 73.08 1612.98 73.26 1612.26 73.62C1611.54 73.98 1610.96 74.6 1610.52 75.48C1610.08 76.32 1609.86 77.5 1609.86 79.02V80.22L1605.54 80.16C1605.58 76.64 1606.32 74.04 1607.76 72.36C1609.24 70.64 1611.64 69.78 1614.96 69.78C1618.08 69.78 1620.26 70.72 1621.5 72.6C1622.78 74.44 1623.42 77.32 1623.42 81.24V98.1C1623.42 98.7 1623.44 99.48 1623.48 100.44C1623.52 101.36 1623.56 102.24 1623.6 103.08C1623.64 103.92 1623.68 104.56 1623.72 105L1619.82 105C1619.74 104.24 1619.62 103.4 1619.46 102.48C1619.3 101.52 1619.2 100.76 1619.16 100.2C1618.68 101.6 1617.82 102.84 1616.58 103.92C1615.38 105 1613.86 105.54 1612.02 105.54ZM1613.4 101.82C1614.28 101.82 1615.08 101.6 1615.8 101.16C1616.52 100.72 1617.16 100.2 1617.72 99.6C1618.28 98.96 1618.72 98.32 1619.04 97.68V86.88C1617.32 87.76 1615.84 88.56 1614.6 89.28C1613.4 90 1612.42 90.7 1611.66 91.38C1610.9 92.06 1610.34 92.84 1609.98 93.72C1609.62 94.56 1609.44 95.56 1609.44 96.72C1609.44 98.56 1609.84 99.88 1610.64 100.68C1611.44 101.44 1612.36 101.82 1613.4 101.82ZM1637.48 105.6C1636.04 105.6 1634.78 105.4 1633.7 105C1632.62 104.56 1631.72 103.9 1631 103.02C1630.28 102.14 1629.74 101.06 1629.38 99.78C1629.02 98.46 1628.84 96.96 1628.84 95.28L1632.74 95.28C1632.74 97.6 1633.12 99.38 1633.88 100.62C1634.68 101.82 1635.92 102.42 1637.6 102.42C1638.76 102.42 1639.68 102.14 1640.36 101.58C1641.04 100.98 1641.52 100.14 1641.8 99.06C1642.12 97.94 1642.28 96.64 1642.28 95.16C1642.28 93.64 1642.06 92.42 1641.62 91.5C1641.18 90.54 1640.42 89.82 1639.34 89.34C1638.26 88.86 1636.82 88.62 1635.02 88.62V85.38C1637.86 85.38 1639.78 84.88 1640.78 83.88C1641.78 82.84 1642.28 81.36 1642.28 79.44C1642.28 77.56 1641.88 76.04 1641.08 74.88C1640.28 73.68 1639.1 73.08 1637.54 73.08C1635.98 73.08 1634.74 73.58 1633.82 74.58C1632.9 75.54 1632.44 77.14 1632.44 79.38L1628.6 79.38C1628.6 77.14 1628.96 75.32 1629.68 73.92C1630.4 72.48 1631.44 71.44 1632.8 70.8C1634.16 70.12 1635.78 69.78 1637.66 69.78C1639.7 69.78 1641.34 70.22 1642.58 71.1C1643.82 71.98 1644.72 73.14 1645.28 74.58C1645.88 76.02 1646.18 77.56 1646.18 79.2C1646.18 80.88 1645.9 82.28 1645.34 83.4C1644.78 84.48 1644.04 85.3 1643.12 85.86C1642.24 86.42 1641.32 86.78 1640.36 86.94C1641.36 87.18 1642.3 87.6 1643.18 88.2C1644.1 88.76 1644.84 89.62 1645.4 90.78C1646 91.94 1646.3 93.56 1646.3 95.64C1646.3 98.8 1645.54 101.26 1644.02 103.02C1642.54 104.74 1640.36 105.6 1637.48 105.6ZM1660.3 105.54C1657.94 105.54 1656.08 105.04 1654.72 104.04C1653.4 103 1652.46 101.52 1651.9 99.6C1651.34 97.64 1651.06 95.26 1651.06 92.46V82.86C1651.06 80.06 1651.34 77.7 1651.9 75.78C1652.46 73.82 1653.4 72.34 1654.72 71.34C1656.08 70.3 1657.94 69.78 1660.3 69.78C1662.74 69.78 1664.62 70.3 1665.94 71.34C1667.26 72.34 1668.2 73.82 1668.76 75.78C1669.32 77.7 1669.6 80.06 1669.6 82.86V92.46C1669.6 95.26 1669.32 97.64 1668.76 99.6C1668.2 101.52 1667.26 103 1665.94 104.04C1664.62 105.04 1662.74 105.54 1660.3 105.54ZM1660.3 102.24C1661.82 102.24 1662.92 101.84 1663.6 101.04C1664.32 100.24 1664.76 99.12 1664.92 97.68C1665.08 96.2 1665.16 94.54 1665.16 92.7V82.62C1665.16 80.74 1665.08 79.1 1664.92 77.7C1664.76 76.26 1664.32 75.14 1663.6 74.34C1662.92 73.5 1661.82 73.08 1660.3 73.08C1658.78 73.08 1657.68 73.5 1657 74.34C1656.32 75.14 1655.9 76.26 1655.74 77.7C1655.58 79.1 1655.5 80.74 1655.5 82.62V92.7C1655.5 94.54 1655.58 96.2 1655.74 97.68C1655.9 99.12 1656.32 100.24 1657 101.04C1657.68 101.84 1658.78 102.24 1660.3 102.24ZM1675.68 105L1675.68 70.32L1684.08 70.32C1686.36 70.32 1688.12 70.72 1689.36 71.52C1690.64 72.32 1691.56 73.36 1692.12 74.64C1692.68 75.88 1692.96 77.22 1692.96 78.66C1692.96 80.22 1692.66 81.72 1692.06 83.16C1691.46 84.56 1690.28 85.56 1688.52 86.16C1689.88 86.52 1690.92 87.16 1691.64 88.08C1692.4 88.96 1692.94 90 1693.26 91.2C1693.58 92.4 1693.74 93.66 1693.74 94.98C1693.74 96.94 1693.48 98.68 1692.96 100.2C1692.44 101.72 1691.52 102.9 1690.2 103.74C1688.88 104.58 1687 105 1684.56 105L1675.68 105ZM1680 101.64H1683.78C1685.14 101.64 1686.22 101.38 1687.02 100.86C1687.86 100.34 1688.46 99.58 1688.82 98.58C1689.22 97.54 1689.42 96.28 1689.42 94.8C1689.42 92.96 1689.18 91.58 1688.7 90.66C1688.26 89.7 1687.64 89.04 1686.84 88.68C1686.08 88.32 1685.16 88.14 1684.08 88.14L1680 88.14L1680 101.64ZM1680 84.96L1684.38 84.96C1685.74 84.96 1686.84 84.46 1687.68 83.46C1688.52 82.46 1688.94 81 1688.94 79.08C1688.94 77.28 1688.48 75.94 1687.56 75.06C1686.68 74.14 1685.36 73.68 1683.6 73.68L1680 73.68V84.96ZM1705.06 105.54C1703.66 105.54 1702.44 105.2 1701.4 104.52C1700.36 103.8 1699.54 102.86 1698.94 101.7C1698.38 100.5 1698.1 99.2 1698.1 97.8C1698.1 96.04 1698.34 94.54 1698.82 93.3C1699.34 92.06 1700.14 90.96 1701.22 90C1702.34 89 1703.78 88.04 1705.54 87.12C1707.34 86.16 1709.52 85.1 1712.08 83.94V81.48C1712.08 79.36 1711.94 77.7 1711.66 76.5C1711.42 75.26 1710.98 74.38 1710.34 73.86C1709.74 73.34 1708.88 73.08 1707.76 73.08C1706.84 73.08 1706.02 73.26 1705.3 73.62C1704.58 73.98 1704 74.6 1703.56 75.48C1703.12 76.32 1702.9 77.5 1702.9 79.02V80.22L1698.58 80.16C1698.62 76.64 1699.36 74.04 1700.8 72.36C1702.28 70.64 1704.68 69.78 1708 69.78C1711.12 69.78 1713.3 70.72 1714.54 72.6C1715.82 74.44 1716.46 77.32 1716.46 81.24V98.1C1716.46 98.7 1716.48 99.48 1716.52 100.44C1716.56 101.36 1716.6 102.24 1716.64 103.08C1716.68 103.92 1716.72 104.56 1716.76 105H1712.86C1712.78 104.24 1712.66 103.4 1712.5 102.48C1712.34 101.52 1712.24 100.76 1712.2 100.2C1711.72 101.6 1710.86 102.84 1709.62 103.92C1708.42 105 1706.9 105.54 1705.06 105.54ZM1706.44 101.82C1707.32 101.82 1708.12 101.6 1708.84 101.16C1709.56 100.72 1710.2 100.2 1710.76 99.6C1711.32 98.96 1711.76 98.32 1712.08 97.68V86.88C1710.36 87.76 1708.88 88.56 1707.64 89.28C1706.44 90 1705.46 90.7 1704.7 91.38C1703.94 92.06 1703.38 92.84 1703.02 93.72C1702.66 94.56 1702.48 95.56 1702.48 96.72C1702.48 98.56 1702.88 99.88 1703.68 100.68C1704.48 101.44 1705.4 101.82 1706.44 101.82ZM1727.47 105L1727.47 73.68H1719.97V70.32L1739.23 70.32V73.68L1731.85 73.68L1731.85 105L1727.47 105ZM1751.36 105.54C1749.2 105.54 1747.42 105.12 1746.02 104.28C1744.66 103.4 1743.64 101.96 1742.96 99.96C1742.32 97.96 1742 95.3 1742 91.98V83.22C1742 79.78 1742.34 77.1 1743.02 75.18C1743.7 73.22 1744.74 71.84 1746.14 71.04C1747.54 70.2 1749.3 69.78 1751.42 69.78C1753.86 69.78 1755.72 70.3 1757 71.34C1758.28 72.38 1759.16 73.96 1759.64 76.08C1760.16 78.16 1760.42 80.84 1760.42 84.12V87.24L1746.38 87.24V93.3C1746.38 95.54 1746.54 97.32 1746.86 98.64C1747.22 99.92 1747.76 100.84 1748.48 101.4C1749.24 101.96 1750.2 102.24 1751.36 102.24C1752.24 102.24 1753.04 102.08 1753.76 101.76C1754.48 101.4 1755.04 100.74 1755.44 99.78C1755.88 98.78 1756.1 97.38 1756.1 95.58V93.18H1760.36V95.1C1760.36 98.26 1759.7 100.8 1758.38 102.72C1757.1 104.6 1754.76 105.54 1751.36 105.54ZM1746.38 84.72L1756.1 84.72V81.84C1756.1 80 1756 78.44 1755.8 77.16C1755.6 75.84 1755.16 74.84 1754.48 74.16C1753.84 73.44 1752.8 73.08 1751.36 73.08C1750.16 73.08 1749.18 73.34 1748.42 73.86C1747.7 74.38 1747.18 75.32 1746.86 76.68C1746.54 78 1746.38 79.9 1746.38 82.38V84.72ZM1763.63 105.3V101.94C1764.79 101.9 1765.73 101.66 1766.45 101.22C1767.21 100.78 1767.81 100 1768.25 98.88C1768.73 97.72 1769.11 96.08 1769.39 93.96C1769.71 91.84 1769.99 89.12 1770.23 85.8L1771.31 70.32L1787.15 70.32L1787.15 105H1782.77L1782.77 73.68L1775.15 73.68L1774.31 85.8C1774.03 89.72 1773.69 92.94 1773.29 95.46C1772.89 97.98 1772.31 99.96 1771.55 101.4C1770.83 102.84 1769.87 103.86 1768.67 104.46C1767.51 105.02 1766.05 105.3 1764.29 105.3H1763.63ZM1793.81 105L1793.81 70.32L1798.19 70.32V84.42C1798.27 84.42 1798.47 84.42 1798.79 84.42C1799.11 84.42 1799.43 84.42 1799.75 84.42C1800.11 84.42 1800.29 84.42 1800.29 84.42C1802.65 84.42 1804.59 84.68 1806.11 85.2C1807.63 85.68 1808.83 86.38 1809.71 87.3C1810.59 88.18 1811.21 89.26 1811.57 90.54C1811.93 91.78 1812.11 93.18 1812.11 94.74C1812.11 96.22 1811.93 97.6 1811.57 98.88C1811.21 100.12 1810.57 101.2 1809.65 102.12C1808.77 103 1807.53 103.7 1805.93 104.22C1804.37 104.74 1802.37 105 1799.93 105L1793.81 105ZM1798.19 102.24H1799.93C1802.17 102.24 1803.87 101.94 1805.03 101.34C1806.19 100.7 1806.99 99.84 1807.43 98.76C1807.87 97.64 1808.09 96.3 1808.09 94.74C1808.09 93.26 1807.89 91.96 1807.49 90.84C1807.09 89.72 1806.33 88.84 1805.21 88.2C1804.09 87.52 1802.39 87.18 1800.11 87.18C1800.07 87.18 1799.83 87.18 1799.39 87.18C1798.99 87.18 1798.59 87.18 1798.19 87.18L1798.19 102.24ZM1817.13 105L1817.13 70.32L1821.51 70.32V85.44L1832.31 85.44V70.32L1836.75 70.32L1836.75 105H1832.31L1832.31 88.74L1821.51 88.74L1821.51 105L1817.13 105ZM1852.02 105.54C1849.66 105.54 1847.8 105.04 1846.44 104.04C1845.12 103 1844.18 101.52 1843.62 99.6C1843.06 97.64 1842.78 95.26 1842.78 92.46V82.86C1842.78 80.06 1843.06 77.7 1843.62 75.78C1844.18 73.82 1845.12 72.34 1846.44 71.34C1847.8 70.3 1849.66 69.78 1852.02 69.78C1854.46 69.78 1856.34 70.3 1857.66 71.34C1858.98 72.34 1859.92 73.82 1860.48 75.78C1861.04 77.7 1861.32 80.06 1861.32 82.86V92.46C1861.32 95.26 1861.04 97.64 1860.48 99.6C1859.92 101.52 1858.98 103 1857.66 104.04C1856.34 105.04 1854.46 105.54 1852.02 105.54ZM1852.02 102.24C1853.54 102.24 1854.64 101.84 1855.32 101.04C1856.04 100.24 1856.48 99.12 1856.64 97.68C1856.8 96.2 1856.88 94.54 1856.88 92.7V82.62C1856.88 80.74 1856.8 79.1 1856.64 77.7C1856.48 76.26 1856.04 75.14 1855.32 74.34C1854.64 73.5 1853.54 73.08 1852.02 73.08C1850.5 73.08 1849.4 73.5 1848.72 74.34C1848.04 75.14 1847.62 76.26 1847.46 77.7C1847.3 79.1 1847.22 80.74 1847.22 82.62V92.7C1847.22 94.54 1847.3 96.2 1847.46 97.68C1847.62 99.12 1848.04 100.24 1848.72 101.04C1849.4 101.84 1850.5 102.24 1852.02 102.24ZM1876.1 105.54C1873.94 105.54 1872.16 105.12 1870.76 104.28C1869.4 103.4 1868.38 101.96 1867.7 99.96C1867.06 97.96 1866.74 95.3 1866.74 91.98V83.22C1866.74 79.78 1867.08 77.1 1867.76 75.18C1868.44 73.22 1869.48 71.84 1870.88 71.04C1872.28 70.2 1874.04 69.78 1876.16 69.78C1878.6 69.78 1880.46 70.3 1881.74 71.34C1883.02 72.38 1883.9 73.96 1884.38 76.08C1884.9 78.16 1885.16 80.84 1885.16 84.12V87.24L1871.12 87.24V93.3C1871.12 95.54 1871.28 97.32 1871.6 98.64C1871.96 99.92 1872.5 100.84 1873.22 101.4C1873.98 101.96 1874.94 102.24 1876.1 102.24C1876.98 102.24 1877.78 102.08 1878.5 101.76C1879.22 101.4 1879.78 100.74 1880.18 99.78C1880.62 98.78 1880.84 97.38 1880.84 95.58V93.18L1885.1 93.18V95.1C1885.1 98.26 1884.44 100.8 1883.12 102.72C1881.84 104.6 1879.5 105.54 1876.1 105.54ZM1871.12 84.72L1880.84 84.72V81.84C1880.84 80 1880.74 78.44 1880.54 77.16C1880.34 75.84 1879.9 74.84 1879.22 74.16C1878.58 73.44 1877.54 73.08 1876.1 73.08C1874.9 73.08 1873.92 73.34 1873.16 73.86C1872.44 74.38 1871.92 75.32 1871.6 76.68C1871.28 78 1871.12 79.9 1871.12 82.38V84.72ZM1902.36 113.64V110.22C1904.36 110.22 1905.86 110.06 1906.86 109.74C1907.9 109.46 1908.58 109.04 1908.9 108.48C1909.26 107.96 1909.44 107.34 1909.44 106.62C1909.44 105.98 1909.32 105.14 1909.08 104.1C1908.84 103.06 1908.58 101.98 1908.3 100.86L1901.16 70.32L1905.54 70.32L1911.54 99.84L1917.36 70.32L1921.8 70.32L1913.4 107.46C1913.08 108.94 1912.5 110.12 1911.66 111C1910.86 111.92 1909.78 112.58 1908.42 112.98C1907.1 113.42 1905.46 113.64 1903.5 113.64L1902.36 113.64ZM1938.83 105L1938.83 90.54C1938.07 90.66 1937.27 90.8 1936.43 90.96C1935.63 91.08 1934.75 91.14 1933.79 91.14C1932.15 91.14 1930.67 90.9 1929.35 90.42C1928.07 89.9 1927.05 89.06 1926.29 87.9C1925.57 86.74 1925.21 85.16 1925.21 83.16V70.32H1929.59V83.28C1929.59 84.8 1929.99 85.96 1930.79 86.76C1931.63 87.56 1932.93 87.96 1934.69 87.96C1935.53 87.96 1936.25 87.9 1936.85 87.78C1937.49 87.66 1938.15 87.54 1938.83 87.42V70.32H1943.27L1943.27 105H1938.83ZM1950.02 116.4L1950.02 70.32L1954.4 70.32V73.2C1955.12 72.32 1956.02 71.54 1957.1 70.86C1958.18 70.14 1959.5 69.78 1961.06 69.78C1962.74 69.78 1964.08 70.18 1965.08 70.98C1966.12 71.74 1966.92 72.78 1967.48 74.1C1968.04 75.42 1968.42 76.9 1968.62 78.54C1968.82 80.18 1968.92 81.86 1968.92 83.58V90.9C1968.92 93.86 1968.68 96.44 1968.2 98.64C1967.72 100.8 1966.86 102.5 1965.62 103.74C1964.42 104.94 1962.74 105.54 1960.58 105.54C1959.18 105.54 1957.96 105.18 1956.92 104.46C1955.92 103.74 1955.08 103 1954.4 102.24V116.4L1950.02 116.4ZM1959.92 102.06C1961.24 102.06 1962.22 101.64 1962.86 100.8C1963.54 99.96 1963.98 98.72 1964.18 97.08C1964.42 95.4 1964.54 93.38 1964.54 91.02V83.58C1964.54 81.34 1964.42 79.46 1964.18 77.94C1963.98 76.38 1963.54 75.2 1962.86 74.4C1962.18 73.6 1961.16 73.2 1959.8 73.2C1958.68 73.2 1957.64 73.5 1956.68 74.1C1955.76 74.7 1955 75.3 1954.4 75.9L1954.4 99.54C1955.04 100.22 1955.82 100.82 1956.74 101.34C1957.7 101.82 1958.76 102.06 1959.92 102.06ZM1983.74 105.54C1981.58 105.54 1979.8 105.12 1978.4 104.28C1977.04 103.4 1976.02 101.96 1975.34 99.96C1974.7 97.96 1974.38 95.3 1974.38 91.98V83.22C1974.38 79.78 1974.72 77.1 1975.4 75.18C1976.08 73.22 1977.12 71.84 1978.52 71.04C1979.92 70.2 1981.68 69.78 1983.8 69.78C1986.24 69.78 1988.1 70.3 1989.38 71.34C1990.66 72.38 1991.54 73.96 1992.02 76.08C1992.54 78.16 1992.8 80.84 1992.8 84.12V87.24L1978.76 87.24V93.3C1978.76 95.54 1978.92 97.32 1979.24 98.64C1979.6 99.92 1980.14 100.84 1980.86 101.4C1981.62 101.96 1982.58 102.24 1983.74 102.24C1984.62 102.24 1985.42 102.08 1986.14 101.76C1986.86 101.4 1987.42 100.74 1987.82 99.78C1988.26 98.78 1988.48 97.38 1988.48 95.58V93.18H1992.74V95.1C1992.74 98.26 1992.08 100.8 1990.76 102.72C1989.48 104.6 1987.14 105.54 1983.74 105.54ZM1978.76 84.72L1988.48 84.72V81.84C1988.48 80 1988.38 78.44 1988.18 77.16C1987.98 75.84 1987.54 74.84 1986.86 74.16C1986.22 73.44 1985.18 73.08 1983.74 73.08C1982.54 73.08 1981.56 73.34 1980.8 73.86C1980.08 74.38 1979.56 75.32 1979.24 76.68C1978.92 78 1978.76 79.9 1978.76 82.38V84.72ZM1995.59 105L2005.37 87.24L1996.07 70.32L2000.33 70.32L2009.03 86.94H2009.57V70.32L2013.23 70.32V86.94H2013.77L2022.41 70.32H2026.61L2017.37 87.24L2027.09 105H2023.01L2013.77 87.78H2013.23L2013.23 105L2009.57 105L2009.57 87.78H2008.97L1999.73 105H1995.59ZM2027.94 113.34V102C2028.98 101.32 2029.9 100.46 2030.7 99.42C2031.5 98.34 2032.2 96.92 2032.8 95.16C2033.4 93.4 2033.9 91.16 2034.3 88.44C2034.7 85.72 2035 82.38 2035.2 78.42L2035.74 70.32L2050.2 70.32V101.82L2053.68 101.82V113.34L2050.38 113.34L2050.02 105L2031.66 105L2031.24 113.34H2027.94ZM2032.5 101.82L2045.94 101.82L2045.94 73.56H2039.28L2038.74 79.32C2038.5 83.12 2038.22 86.32 2037.9 88.92C2037.58 91.52 2037.18 93.66 2036.7 95.34C2036.22 97.02 2035.62 98.38 2034.9 99.42C2034.22 100.42 2033.42 101.22 2032.5 101.82ZM2067.59 105.54C2065.43 105.54 2063.65 105.12 2062.25 104.28C2060.89 103.4 2059.87 101.96 2059.19 99.96C2058.55 97.96 2058.23 95.3 2058.23 91.98V83.22C2058.23 79.78 2058.57 77.1 2059.25 75.18C2059.93 73.22 2060.97 71.84 2062.37 71.04C2063.77 70.2 2065.53 69.78 2067.65 69.78C2070.09 69.78 2071.95 70.3 2073.23 71.34C2074.51 72.38 2075.39 73.96 2075.87 76.08C2076.39 78.16 2076.65 80.84 2076.65 84.12V87.24L2062.61 87.24V93.3C2062.61 95.54 2062.77 97.32 2063.09 98.64C2063.45 99.92 2063.99 100.84 2064.71 101.4C2065.47 101.96 2066.43 102.24 2067.59 102.24C2068.47 102.24 2069.27 102.08 2069.99 101.76C2070.71 101.4 2071.27 100.74 2071.67 99.78C2072.11 98.78 2072.33 97.38 2072.33 95.58V93.18H2076.59V95.1C2076.59 98.26 2075.93 100.8 2074.61 102.72C2073.33 104.6 2070.99 105.54 2067.59 105.54ZM2062.61 84.72L2072.33 84.72V81.84C2072.33 80 2072.23 78.44 2072.03 77.16C2071.83 75.84 2071.39 74.84 2070.71 74.16C2070.07 73.44 2069.03 73.08 2067.59 73.08C2066.39 73.08 2065.41 73.34 2064.65 73.86C2063.93 74.38 2063.41 75.32 2063.09 76.68C2062.77 78 2062.61 79.9 2062.61 82.38V84.72ZM2082.56 105V70.32L2086.94 70.32V85.44L2097.74 85.44V70.32L2102.18 70.32V105H2097.74V88.74L2086.94 88.74V105L2082.56 105ZM2108.87 105V70.32H2112.59V97.02L2124.17 70.32H2127.71V105L2123.99 105V78.36L2112.53 105L2108.87 105ZM2143.11 105.54C2140.95 105.54 2139.17 105.12 2137.77 104.28C2136.41 103.4 2135.39 101.96 2134.71 99.96C2134.07 97.96 2133.75 95.3 2133.75 91.98V83.22C2133.75 79.78 2134.09 77.1 2134.77 75.18C2135.45 73.22 2136.49 71.84 2137.89 71.04C2139.29 70.2 2141.05 69.78 2143.17 69.78C2145.61 69.78 2147.47 70.3 2148.75 71.34C2150.03 72.38 2150.91 73.96 2151.39 76.08C2151.91 78.16 2152.17 80.84 2152.17 84.12V87.24L2138.13 87.24V93.3C2138.13 95.54 2138.29 97.32 2138.61 98.64C2138.97 99.92 2139.51 100.84 2140.23 101.4C2140.99 101.96 2141.95 102.24 2143.11 102.24C2143.99 102.24 2144.79 102.08 2145.51 101.76C2146.23 101.4 2146.79 100.74 2147.19 99.78C2147.63 98.78 2147.85 97.38 2147.85 95.58V93.18L2152.11 93.18V95.1C2152.11 98.26 2151.45 100.8 2150.13 102.72C2148.85 104.6 2146.51 105.54 2143.11 105.54ZM2138.13 84.72L2147.85 84.72V81.84C2147.85 80 2147.75 78.44 2147.55 77.16C2147.35 75.84 2146.91 74.84 2146.23 74.16C2145.59 73.44 2144.55 73.08 2143.11 73.08C2141.91 73.08 2140.93 73.34 2140.17 73.86C2139.45 74.38 2138.93 75.32 2138.61 76.68C2138.29 78 2138.13 79.9 2138.13 82.38V84.72ZM2170.33 105V70.32H2178.73C2181.01 70.32 2182.77 70.72 2184.01 71.52C2185.29 72.32 2186.21 73.36 2186.77 74.64C2187.33 75.88 2187.61 77.22 2187.61 78.66C2187.61 80.22 2187.31 81.72 2186.71 83.16C2186.11 84.56 2184.93 85.56 2183.17 86.16C2184.53 86.52 2185.57 87.16 2186.29 88.08C2187.05 88.96 2187.59 90 2187.91 91.2C2188.23 92.4 2188.39 93.66 2188.39 94.98C2188.39 96.94 2188.13 98.68 2187.61 100.2C2187.09 101.72 2186.17 102.9 2184.85 103.74C2183.53 104.58 2181.65 105 2179.21 105L2170.33 105ZM2174.65 101.64L2178.43 101.64C2179.79 101.64 2180.87 101.38 2181.67 100.86C2182.51 100.34 2183.11 99.58 2183.47 98.58C2183.87 97.54 2184.07 96.28 2184.07 94.8C2184.07 92.96 2183.83 91.58 2183.35 90.66C2182.91 89.7 2182.29 89.04 2181.49 88.68C2180.73 88.32 2179.81 88.14 2178.73 88.14H2174.65V101.64ZM2174.65 84.96L2179.03 84.96C2180.39 84.96 2181.49 84.46 2182.33 83.46C2183.17 82.46 2183.59 81 2183.59 79.08C2183.59 77.28 2183.13 75.94 2182.21 75.06C2181.33 74.14 2180.01 73.68 2178.25 73.68H2174.65V84.96ZM2193.71 105V70.32L2198.09 70.32V84.42C2198.17 84.42 2198.37 84.42 2198.69 84.42C2199.01 84.42 2199.33 84.42 2199.65 84.42C2200.01 84.42 2200.19 84.42 2200.19 84.42C2202.55 84.42 2204.49 84.68 2206.01 85.2C2207.53 85.68 2208.73 86.38 2209.61 87.3C2210.49 88.22 2211.11 89.32 2211.47 90.6C2211.83 91.84 2212.01 93.26 2212.01 94.86C2212.01 96.34 2211.83 97.7 2211.47 98.94C2211.11 100.14 2210.47 101.2 2209.55 102.12C2208.67 103.04 2207.43 103.76 2205.83 104.28C2204.27 104.76 2202.27 105 2199.83 105H2193.71ZM2198.09 102.24H2199.83C2202.07 102.24 2203.77 101.94 2204.93 101.34C2206.09 100.74 2206.89 99.88 2207.33 98.76C2207.77 97.64 2207.99 96.32 2207.99 94.8C2207.99 93.32 2207.79 92.02 2207.39 90.9C2206.99 89.78 2206.23 88.88 2205.11 88.2C2203.99 87.52 2202.29 87.18 2200.01 87.18C2199.97 87.18 2199.73 87.18 2199.29 87.18C2198.89 87.18 2198.49 87.18 2198.09 87.18V102.24ZM2216.39 105V70.32H2220.77V105L2216.39 105ZM2236.16 105.54C2233.44 105.54 2231.42 104.94 2230.1 103.74C2228.78 102.54 2227.9 100.92 2227.46 98.88C2227.06 96.8 2226.86 94.46 2226.86 91.86V83.76C2226.86 80.56 2227.12 77.94 2227.64 75.9C2228.16 73.82 2229.08 72.28 2230.4 71.28C2231.76 70.28 2233.68 69.78 2236.16 69.78C2238.6 69.78 2240.46 70.24 2241.74 71.16C2243.02 72.08 2243.88 73.38 2244.32 75.06C2244.76 76.74 2244.98 78.68 2244.98 80.88V82.56H2240.9V80.88C2240.9 78.84 2240.74 77.26 2240.42 76.14C2240.14 75.02 2239.64 74.24 2238.92 73.8C2238.24 73.32 2237.32 73.08 2236.16 73.08C2234.8 73.08 2233.76 73.4 2233.04 74.04C2232.32 74.68 2231.84 75.74 2231.6 77.22C2231.36 78.66 2231.24 80.6 2231.24 83.04V92.76C2231.24 96.24 2231.58 98.7 2232.26 100.14C2232.94 101.54 2234.26 102.24 2236.22 102.24C2237.58 102.24 2238.6 101.94 2239.28 101.34C2239.96 100.7 2240.4 99.76 2240.6 98.52C2240.8 97.28 2240.9 95.74 2240.9 93.9V91.98H2244.98V93.66C2244.98 95.98 2244.76 98.04 2244.32 99.84C2243.92 101.6 2243.08 103 2241.8 104.04C2240.52 105.04 2238.64 105.54 2236.16 105.54ZM2250.84 105V70.32H2255.1V101.88L2262.72 101.88V70.32L2266.98 70.32V101.88L2274.6 101.88V70.32L2278.86 70.32V105L2250.84 105ZM2294.29 105.54C2292.13 105.54 2290.35 105.12 2288.95 104.28C2287.59 103.4 2286.57 101.96 2285.89 99.96C2285.25 97.96 2284.93 95.3 2284.93 91.98V83.22C2284.93 79.78 2285.27 77.1 2285.95 75.18C2286.63 73.22 2287.67 71.84 2289.07 71.04C2290.47 70.2 2292.23 69.78 2294.35 69.78C2296.79 69.78 2298.65 70.3 2299.93 71.34C2301.21 72.38 2302.09 73.96 2302.57 76.08C2303.09 78.16 2303.35 80.84 2303.35 84.12V87.24L2289.31 87.24V93.3C2289.31 95.54 2289.47 97.32 2289.79 98.64C2290.15 99.92 2290.69 100.84 2291.41 101.4C2292.17 101.96 2293.13 102.24 2294.29 102.24C2295.17 102.24 2295.97 102.08 2296.69 101.76C2297.41 101.4 2297.97 100.74 2298.37 99.78C2298.81 98.78 2299.03 97.38 2299.03 95.58V93.18L2303.29 93.18V95.1C2303.29 98.26 2302.63 100.8 2301.31 102.72C2300.03 104.6 2297.69 105.54 2294.29 105.54ZM2289.31 84.72L2299.03 84.72V81.84C2299.03 80 2298.93 78.44 2298.73 77.16C2298.53 75.84 2298.09 74.84 2297.41 74.16C2296.77 73.44 2295.73 73.08 2294.29 73.08C2293.09 73.08 2292.11 73.34 2291.35 73.86C2290.63 74.38 2290.11 75.32 2289.79 76.68C2289.47 78 2289.31 79.9 2289.31 82.38V84.72ZM2309.26 105V70.32L2322.04 70.32V73.62L2313.64 73.62V105L2309.26 105ZM2334.36 105.54C2332 105.54 2330.14 105.04 2328.78 104.04C2327.46 103 2326.52 101.52 2325.96 99.6C2325.4 97.64 2325.12 95.26 2325.12 92.46V82.86C2325.12 80.06 2325.4 77.7 2325.96 75.78C2326.52 73.82 2327.46 72.34 2328.78 71.34C2330.14 70.3 2332 69.78 2334.36 69.78C2336.8 69.78 2338.68 70.3 2340 71.34C2341.32 72.34 2342.26 73.82 2342.82 75.78C2343.38 77.7 2343.66 80.06 2343.66 82.86V92.46C2343.66 95.26 2343.38 97.64 2342.82 99.6C2342.26 101.52 2341.32 103 2340 104.04C2338.68 105.04 2336.8 105.54 2334.36 105.54ZM2334.36 102.24C2335.88 102.24 2336.98 101.84 2337.66 101.04C2338.38 100.24 2338.82 99.12 2338.98 97.68C2339.14 96.2 2339.22 94.54 2339.22 92.7V82.62C2339.22 80.74 2339.14 79.1 2338.98 77.7C2338.82 76.26 2338.38 75.14 2337.66 74.34C2336.98 73.5 2335.88 73.08 2334.36 73.08C2332.84 73.08 2331.74 73.5 2331.06 74.34C2330.38 75.14 2329.96 76.26 2329.8 77.7C2329.64 79.1 2329.56 80.74 2329.56 82.62V92.7C2329.56 94.54 2329.64 96.2 2329.8 97.68C2329.96 99.12 2330.38 100.24 2331.06 101.04C2331.74 101.84 2332.84 102.24 2334.36 102.24ZM2370.57 105.54C2368.21 105.54 2366.35 105.04 2364.99 104.04C2363.67 103 2362.73 101.52 2362.17 99.6C2361.61 97.64 2361.33 95.26 2361.33 92.46V82.86C2361.33 80.06 2361.61 77.7 2362.17 75.78C2362.73 73.82 2363.67 72.34 2364.99 71.34C2366.35 70.3 2368.21 69.78 2370.57 69.78C2373.01 69.78 2374.89 70.3 2376.21 71.34C2377.53 72.34 2378.47 73.82 2379.03 75.78C2379.59 77.7 2379.87 80.06 2379.87 82.86V92.46C2379.87 95.26 2379.59 97.64 2379.03 99.6C2378.47 101.52 2377.53 103 2376.21 104.04C2374.89 105.04 2373.01 105.54 2370.57 105.54ZM2370.57 102.24C2372.09 102.24 2373.19 101.84 2373.87 101.04C2374.59 100.24 2375.03 99.12 2375.19 97.68C2375.35 96.2 2375.43 94.54 2375.43 92.7V82.62C2375.43 80.74 2375.35 79.1 2375.19 77.7C2375.03 76.26 2374.59 75.14 2373.87 74.34C2373.19 73.5 2372.09 73.08 2370.57 73.08C2369.05 73.08 2367.95 73.5 2367.27 74.34C2366.59 75.14 2366.17 76.26 2366.01 77.7C2365.85 79.1 2365.77 80.74 2365.77 82.62V92.7C2365.77 94.54 2365.85 96.2 2366.01 97.68C2366.17 99.12 2366.59 100.24 2367.27 101.04C2367.95 101.84 2369.05 102.24 2370.57 102.24ZM2395.86 105.54C2394.14 105.54 2392.52 105.14 2391 104.34C2389.48 103.54 2388.28 102.3 2387.4 100.62C2386.52 98.9 2386.08 96.7 2386.08 94.02V72.66C2386.08 69.66 2386.28 67.24 2386.68 65.4C2387.08 63.52 2387.7 62.06 2388.54 61.02C2389.42 59.98 2390.48 59.2 2391.72 58.68C2393 58.08 2394.3 57.66 2395.62 57.42C2396.98 57.18 2398.38 56.9 2399.82 56.58C2401.3 56.26 2402.84 55.72 2404.44 54.96L2405.22 58.62C2403.74 59.34 2402.26 59.86 2400.78 60.18C2399.3 60.46 2397.92 60.72 2396.64 60.96C2395.4 61.2 2394.26 61.6 2393.22 62.16C2392.14 62.76 2391.32 63.74 2390.76 65.1C2390.24 66.42 2389.98 68.38 2389.98 70.98V75.9C2390.46 75.38 2391.14 74.88 2392.02 74.4C2392.94 73.92 2393.92 73.52 2394.96 73.2C2396 72.88 2397 72.72 2397.96 72.72C2399.64 72.72 2401.1 73.14 2402.34 73.98C2403.58 74.82 2404.52 76.2 2405.16 78.12C2405.84 80.04 2406.18 82.66 2406.18 85.98V92.04C2406.18 95.64 2405.74 98.4 2404.86 100.32C2404.02 102.24 2402.84 103.58 2401.32 104.34C2399.8 105.1 2397.98 105.5 2395.86 105.54ZM2396.22 102.24C2397.46 102.2 2398.48 101.92 2399.28 101.4C2400.08 100.88 2400.68 99.98 2401.08 98.7C2401.52 97.38 2401.74 95.54 2401.74 93.18V84.84C2401.74 82.56 2401.58 80.78 2401.26 79.5C2400.98 78.18 2400.5 77.24 2399.82 76.68C2399.14 76.12 2398.22 75.84 2397.06 75.84C2396.38 75.84 2395.62 75.98 2394.78 76.26C2393.98 76.5 2393.18 76.82 2392.38 77.22C2391.62 77.62 2390.98 78.06 2390.46 78.54V94.14C2390.46 96.1 2390.7 97.68 2391.18 98.88C2391.7 100.04 2392.38 100.9 2393.22 101.46C2394.1 102.02 2395.1 102.28 2396.22 102.24ZM2412.32 116.4V70.32L2416.7 70.32V73.2C2417.42 72.32 2418.32 71.54 2419.4 70.86C2420.48 70.14 2421.8 69.78 2423.36 69.78C2425.04 69.78 2426.38 70.18 2427.38 70.98C2428.42 71.74 2429.22 72.78 2429.78 74.1C2430.34 75.42 2430.72 76.9 2430.92 78.54C2431.12 80.18 2431.22 81.86 2431.22 83.58V90.9C2431.22 93.86 2430.98 96.44 2430.5 98.64C2430.02 100.8 2429.16 102.5 2427.92 103.74C2426.72 104.94 2425.04 105.54 2422.88 105.54C2421.48 105.54 2420.26 105.18 2419.22 104.46C2418.22 103.74 2417.38 103 2416.7 102.24V116.4H2412.32ZM2422.22 102.06C2423.54 102.06 2424.52 101.64 2425.16 100.8C2425.84 99.96 2426.28 98.72 2426.48 97.08C2426.72 95.4 2426.84 93.38 2426.84 91.02V83.58C2426.84 81.34 2426.72 79.46 2426.48 77.94C2426.28 76.38 2425.84 75.2 2425.16 74.4C2424.48 73.6 2423.46 73.2 2422.1 73.2C2420.98 73.2 2419.94 73.5 2418.98 74.1C2418.06 74.7 2417.3 75.3 2416.7 75.9V99.54C2417.34 100.22 2418.12 100.82 2419.04 101.34C2420 101.82 2421.06 102.06 2422.22 102.06ZM2443.34 105.54C2441.94 105.54 2440.72 105.2 2439.68 104.52C2438.64 103.8 2437.82 102.86 2437.22 101.7C2436.66 100.5 2436.38 99.2 2436.38 97.8C2436.38 96.04 2436.62 94.54 2437.1 93.3C2437.62 92.06 2438.42 90.96 2439.5 90C2440.62 89 2442.06 88.04 2443.82 87.12C2445.62 86.16 2447.8 85.1 2450.36 83.94V81.48C2450.36 79.36 2450.22 77.7 2449.94 76.5C2449.7 75.26 2449.26 74.38 2448.62 73.86C2448.02 73.34 2447.16 73.08 2446.04 73.08C2445.12 73.08 2444.3 73.26 2443.58 73.62C2442.86 73.98 2442.28 74.6 2441.84 75.48C2441.4 76.32 2441.18 77.5 2441.18 79.02V80.22L2436.86 80.16C2436.9 76.64 2437.64 74.04 2439.08 72.36C2440.56 70.64 2442.96 69.78 2446.28 69.78C2449.4 69.78 2451.58 70.72 2452.82 72.6C2454.1 74.44 2454.74 77.32 2454.74 81.24V98.1C2454.74 98.7 2454.76 99.48 2454.8 100.44C2454.84 101.36 2454.88 102.24 2454.92 103.08C2454.96 103.92 2455 104.56 2455.04 105H2451.14C2451.06 104.24 2450.94 103.4 2450.78 102.48C2450.62 101.52 2450.52 100.76 2450.48 100.2C2450 101.6 2449.14 102.84 2447.9 103.92C2446.7 105 2445.18 105.54 2443.34 105.54ZM2444.72 101.82C2445.6 101.82 2446.4 101.6 2447.12 101.16C2447.84 100.72 2448.48 100.2 2449.04 99.6C2449.6 98.96 2450.04 98.32 2450.36 97.68V86.88C2448.64 87.76 2447.16 88.56 2445.92 89.28C2444.72 90 2443.74 90.7 2442.98 91.38C2442.22 92.06 2441.66 92.84 2441.3 93.72C2440.94 94.56 2440.76 95.56 2440.76 96.72C2440.76 98.56 2441.16 99.88 2441.96 100.68C2442.76 101.44 2443.68 101.82 2444.72 101.82ZM2468.81 105.6C2467.37 105.6 2466.11 105.4 2465.03 105C2463.95 104.56 2463.05 103.9 2462.33 103.02C2461.61 102.14 2461.07 101.06 2460.71 99.78C2460.35 98.46 2460.17 96.96 2460.17 95.28L2464.07 95.28C2464.07 97.6 2464.45 99.38 2465.21 100.62C2466.01 101.82 2467.25 102.42 2468.93 102.42C2470.09 102.42 2471.01 102.14 2471.69 101.58C2472.37 100.98 2472.85 100.14 2473.13 99.06C2473.45 97.94 2473.61 96.64 2473.61 95.16C2473.61 93.64 2473.39 92.42 2472.95 91.5C2472.51 90.54 2471.75 89.82 2470.67 89.34C2469.59 88.86 2468.15 88.62 2466.35 88.62V85.38C2469.19 85.38 2471.11 84.88 2472.11 83.88C2473.11 82.84 2473.61 81.36 2473.61 79.44C2473.61 77.56 2473.21 76.04 2472.41 74.88C2471.61 73.68 2470.43 73.08 2468.87 73.08C2467.31 73.08 2466.07 73.58 2465.15 74.58C2464.23 75.54 2463.77 77.14 2463.77 79.38L2459.93 79.38C2459.93 77.14 2460.29 75.32 2461.01 73.92C2461.73 72.48 2462.77 71.44 2464.13 70.8C2465.49 70.12 2467.11 69.78 2468.99 69.78C2471.03 69.78 2472.67 70.22 2473.91 71.1C2475.15 71.98 2476.05 73.14 2476.61 74.58C2477.21 76.02 2477.51 77.56 2477.51 79.2C2477.51 80.88 2477.23 82.28 2476.67 83.4C2476.11 84.48 2475.37 85.3 2474.45 85.86C2473.57 86.42 2472.65 86.78 2471.69 86.94C2472.69 87.18 2473.63 87.6 2474.51 88.2C2475.43 88.76 2476.17 89.62 2476.73 90.78C2477.33 91.94 2477.63 93.56 2477.63 95.64C2477.63 98.8 2476.87 101.26 2475.35 103.02C2473.87 104.74 2471.69 105.6 2468.81 105.6ZM2491.63 105.54C2489.27 105.54 2487.41 105.04 2486.05 104.04C2484.73 103 2483.79 101.52 2483.23 99.6C2482.67 97.64 2482.39 95.26 2482.39 92.46V82.86C2482.39 80.06 2482.67 77.7 2483.23 75.78C2483.79 73.82 2484.73 72.34 2486.05 71.34C2487.41 70.3 2489.27 69.78 2491.63 69.78C2494.07 69.78 2495.95 70.3 2497.27 71.34C2498.59 72.34 2499.53 73.82 2500.09 75.78C2500.65 77.7 2500.93 80.06 2500.93 82.86V92.46C2500.93 95.26 2500.65 97.64 2500.09 99.6C2499.53 101.52 2498.59 103 2497.27 104.04C2495.95 105.04 2494.07 105.54 2491.63 105.54ZM2491.63 102.24C2493.15 102.24 2494.25 101.84 2494.93 101.04C2495.65 100.24 2496.09 99.12 2496.25 97.68C2496.41 96.2 2496.49 94.54 2496.49 92.7V82.62C2496.49 80.74 2496.41 79.1 2496.25 77.7C2496.09 76.26 2495.65 75.14 2494.93 74.34C2494.25 73.5 2493.15 73.08 2491.63 73.08C2490.11 73.08 2489.01 73.5 2488.33 74.34C2487.65 75.14 2487.23 76.26 2487.07 77.7C2486.91 79.1 2486.83 80.74 2486.83 82.62V92.7C2486.83 94.54 2486.91 96.2 2487.07 97.68C2487.23 99.12 2487.65 100.24 2488.33 101.04C2489.01 101.84 2490.11 102.24 2491.63 102.24ZM2507.01 105V70.32L2515.41 70.32C2517.69 70.32 2519.45 70.72 2520.69 71.52C2521.97 72.32 2522.89 73.36 2523.45 74.64C2524.01 75.88 2524.29 77.22 2524.29 78.66C2524.29 80.22 2523.99 81.72 2523.39 83.16C2522.79 84.56 2521.61 85.56 2519.85 86.16C2521.21 86.52 2522.25 87.16 2522.97 88.08C2523.73 88.96 2524.27 90 2524.59 91.2C2524.91 92.4 2525.07 93.66 2525.07 94.98C2525.07 96.94 2524.81 98.68 2524.29 100.2C2523.77 101.72 2522.85 102.9 2521.53 103.74C2520.21 104.58 2518.33 105 2515.89 105L2507.01 105ZM2511.33 101.64H2515.11C2516.47 101.64 2517.55 101.38 2518.35 100.86C2519.19 100.34 2519.79 99.58 2520.15 98.58C2520.55 97.54 2520.75 96.28 2520.75 94.8C2520.75 92.96 2520.51 91.58 2520.03 90.66C2519.59 89.7 2518.97 89.04 2518.17 88.68C2517.41 88.32 2516.49 88.14 2515.41 88.14L2511.33 88.14V101.64ZM2511.33 84.96L2515.71 84.96C2517.07 84.96 2518.17 84.46 2519.01 83.46C2519.85 82.46 2520.27 81 2520.27 79.08C2520.27 77.28 2519.81 75.94 2518.89 75.06C2518.01 74.14 2516.69 73.68 2514.93 73.68L2511.33 73.68V84.96ZM2536.39 105.54C2534.99 105.54 2533.77 105.2 2532.73 104.52C2531.69 103.8 2530.87 102.86 2530.27 101.7C2529.71 100.5 2529.43 99.2 2529.43 97.8C2529.43 96.04 2529.67 94.54 2530.15 93.3C2530.67 92.06 2531.47 90.96 2532.55 90C2533.67 89 2535.11 88.04 2536.87 87.12C2538.67 86.16 2540.85 85.1 2543.41 83.94V81.48C2543.41 79.36 2543.27 77.7 2542.99 76.5C2542.75 75.26 2542.31 74.38 2541.67 73.86C2541.07 73.34 2540.21 73.08 2539.09 73.08C2538.17 73.08 2537.35 73.26 2536.63 73.62C2535.91 73.98 2535.33 74.6 2534.89 75.48C2534.45 76.32 2534.23 77.5 2534.23 79.02V80.22L2529.91 80.16C2529.95 76.64 2530.69 74.04 2532.13 72.36C2533.61 70.64 2536.01 69.78 2539.33 69.78C2542.45 69.78 2544.63 70.72 2545.87 72.6C2547.15 74.44 2547.79 77.32 2547.79 81.24V98.1C2547.79 98.7 2547.81 99.48 2547.85 100.44C2547.89 101.36 2547.93 102.24 2547.97 103.08C2548.01 103.92 2548.05 104.56 2548.09 105H2544.19C2544.11 104.24 2543.99 103.4 2543.83 102.48C2543.67 101.52 2543.57 100.76 2543.53 100.2C2543.05 101.6 2542.19 102.84 2540.95 103.92C2539.75 105 2538.23 105.54 2536.39 105.54ZM2537.77 101.82C2538.65 101.82 2539.45 101.6 2540.17 101.16C2540.89 100.72 2541.53 100.2 2542.09 99.6C2542.65 98.96 2543.09 98.32 2543.41 97.68V86.88C2541.69 87.76 2540.21 88.56 2538.97 89.28C2537.77 90 2536.79 90.7 2536.03 91.38C2535.27 92.06 2534.71 92.84 2534.35 93.72C2533.99 94.56 2533.81 95.56 2533.81 96.72C2533.81 98.56 2534.21 99.88 2535.01 100.68C2535.81 101.44 2536.73 101.82 2537.77 101.82ZM2554.24 105V70.32H2558.62V85.44L2569.42 85.44V70.32H2573.86V105H2569.42V88.74L2558.62 88.74V105L2554.24 105ZM2580.55 105V70.32L2584.27 70.32V97.02L2595.85 70.32L2599.39 70.32V105H2595.67V78.36L2584.21 105L2580.55 105ZM2603.69 105L2610.53 90C2609.29 89.48 2608.31 88.74 2607.59 87.78C2606.87 86.78 2606.35 85.66 2606.03 84.42C2605.75 83.14 2605.61 81.84 2605.61 80.52C2605.61 79.08 2605.77 77.74 2606.09 76.5C2606.45 75.22 2607.05 74.14 2607.89 73.26C2608.73 72.34 2609.91 71.62 2611.43 71.1C2612.99 70.58 2614.97 70.32 2617.37 70.32H2623.55V105H2619.17V90.96C2618.25 90.96 2617.41 90.96 2616.65 90.96C2615.93 90.92 2615.25 90.86 2614.61 90.78L2608.43 105L2603.69 105ZM2617.61 88.26C2617.65 88.26 2617.85 88.26 2618.21 88.26C2618.57 88.26 2618.89 88.26 2619.17 88.26V73.02C2618.77 73.02 2618.35 73.02 2617.91 73.02C2617.47 73.02 2617.23 73.02 2617.19 73.02C2615.07 73.02 2613.47 73.34 2612.39 73.98C2611.31 74.62 2610.57 75.5 2610.17 76.62C2609.81 77.7 2609.63 79 2609.63 80.52C2609.63 83.12 2610.21 85.06 2611.37 86.34C2612.57 87.58 2614.65 88.22 2617.61 88.26ZM2661.2 99.84L2651.18 86.88V84.96L2661.2 72V77.64L2654.84 85.92L2661.2 94.26V99.84ZM2651.36 99.84L2641.4 86.88V84.96L2651.36 72V77.64L2645.06 85.86L2651.36 94.26V99.84ZM2668.99 105V56.4L2680.63 56.4C2683.55 56.4 2685.85 56.94 2687.53 58.02C2689.21 59.1 2690.39 60.6 2691.07 62.52C2691.79 64.44 2692.15 66.7 2692.15 69.3C2692.15 71.58 2691.77 73.7 2691.01 75.66C2690.29 77.58 2689.07 79.12 2687.35 80.28C2685.67 81.44 2683.45 82.02 2680.69 82.02L2673.55 82.02V105H2668.99ZM2673.55 78.6L2679.37 78.6C2681.33 78.6 2682.91 78.32 2684.11 77.76C2685.35 77.16 2686.25 76.18 2686.81 74.82C2687.37 73.46 2687.65 71.62 2687.65 69.3C2687.65 66.82 2687.41 64.9 2686.93 63.54C2686.45 62.14 2685.61 61.18 2684.41 60.66C2683.25 60.1 2681.59 59.82 2679.43 59.82L2673.55 59.82V78.6ZM2708.55 105.24C2705.67 105.24 2703.39 104.68 2701.71 103.56C2700.03 102.44 2698.83 100.84 2698.11 98.76C2697.39 96.68 2697.03 94.24 2697.03 91.44V89.28H2701.35V91.26C2701.35 93.34 2701.51 95.16 2701.83 96.72C2702.19 98.28 2702.89 99.48 2703.93 100.32C2704.97 101.16 2706.51 101.58 2708.55 101.58C2710.75 101.58 2712.39 101.12 2713.47 100.2C2714.55 99.28 2715.27 98 2715.63 96.36C2716.03 94.72 2716.23 92.82 2716.23 90.66V81.36L2705.85 81.36V78.24L2716.23 78.24V70.02C2716.23 67.62 2715.99 65.62 2715.51 64.02C2715.07 62.38 2714.29 61.18 2713.17 60.42C2712.05 59.62 2710.51 59.22 2708.55 59.22C2706.51 59.22 2704.97 59.66 2703.93 60.54C2702.93 61.42 2702.25 62.64 2701.89 64.2C2701.53 65.76 2701.35 67.6 2701.35 69.72V72.06H2697.03V70.02C2697.03 67.18 2697.35 64.68 2697.99 62.52C2698.67 60.32 2699.85 58.6 2701.53 57.36C2703.21 56.12 2705.55 55.5 2708.55 55.5C2711.83 55.5 2714.35 56.2 2716.11 57.6C2717.91 58.96 2719.15 60.78 2719.83 63.06C2720.51 65.34 2720.85 67.9 2720.85 70.74V90C2720.85 93 2720.49 95.66 2719.77 97.98C2719.09 100.26 2717.85 102.04 2716.05 103.32C2714.29 104.6 2711.79 105.24 2708.55 105.24ZM2727.56 111.24L2727.62 107.7C2729.62 107.78 2731.18 107.7 2732.3 107.46C2733.46 107.22 2734.3 106.76 2734.82 106.08C2735.34 105.44 2735.68 104.54 2735.84 103.38C2736 102.18 2736.1 100.68 2736.14 98.88L2725.76 56.4H2730.2L2735.18 78.18L2738.42 93.84L2741.24 78.18L2745.68 56.4L2750.12 56.4L2740.82 99.12C2740.42 101.04 2740.06 102.72 2739.74 104.16C2739.42 105.56 2739.02 106.72 2738.54 107.64C2738.1 108.6 2737.44 109.36 2736.56 109.92C2735.72 110.48 2734.58 110.86 2733.14 111.06C2731.7 111.26 2729.84 111.32 2727.56 111.24ZM2766.82 105V70.32H2770.54V97.02L2782.12 70.32H2785.66V105H2781.94V78.36L2770.48 105H2766.82ZM2792.12 105L2792.42 70.32H2795.72L2803.82 94.14L2811.92 70.32L2815.34 70.32L2815.64 105L2811.86 105L2811.8 80.64L2804.54 101.4H2803.16L2795.96 80.76L2795.9 105H2792.12ZM2822.31 105V98.4L2826.93 98.4V105L2822.31 105ZM2846.06 105V56.4L2863.28 56.4V59.94L2850.62 59.94V105L2846.06 105ZM2867.9 105V98.4H2872.52V105H2867.9ZM2891.64 105V56.4L2902.08 56.4C2904.28 56.4 2906.14 56.68 2907.66 57.24C2909.18 57.8 2910.4 58.62 2911.32 59.7C2912.24 60.78 2912.9 62.08 2913.3 63.6C2913.74 65.08 2913.96 66.72 2913.96 68.52C2913.96 70.08 2913.76 71.6 2913.36 73.08C2913 74.52 2912.38 75.76 2911.5 76.8C2910.62 77.8 2909.38 78.46 2907.78 78.78C2909.66 79.3 2911.14 80.2 2912.22 81.48C2913.3 82.72 2914.04 84.18 2914.44 85.86C2914.88 87.5 2915.1 89.2 2915.1 90.96C2915.1 92.88 2914.92 94.7 2914.56 96.42C2914.24 98.1 2913.64 99.58 2912.76 100.86C2911.92 102.14 2910.76 103.16 2909.28 103.92C2907.8 104.64 2905.92 105 2903.64 105L2891.64 105ZM2896.2 101.58L2902.74 101.58C2905.9 101.58 2908 100.72 2909.04 99C2910.12 97.28 2910.66 94.6 2910.66 90.96C2910.66 89 2910.42 87.26 2909.94 85.74C2909.46 84.22 2908.64 83.04 2907.48 82.2C2906.36 81.32 2904.82 80.88 2902.86 80.88H2896.2V101.58ZM2896.2 77.34H2902.8C2904.68 77.34 2906.12 76.98 2907.12 76.26C2908.12 75.5 2908.82 74.48 2909.22 73.2C2909.62 71.88 2909.82 70.32 2909.82 68.52C2909.82 66.56 2909.54 64.94 2908.98 63.66C2908.46 62.38 2907.54 61.44 2906.22 60.84C2904.9 60.24 2903 59.94 2900.52 59.94L2896.2 59.94V77.34ZM2921.1 105V98.4L2925.72 98.4V105L2921.1 105ZM2944.85 105V56.4L2969.69 56.4V105H2965.13V59.82L2949.41 59.82V105L2944.85 105ZM2974.53 105.3V101.94C2975.69 101.9 2976.63 101.66 2977.35 101.22C2978.11 100.78 2978.71 100 2979.15 98.88C2979.63 97.72 2980.01 96.08 2980.29 93.96C2980.61 91.84 2980.89 89.12 2981.13 85.8L2982.21 70.32L2998.05 70.32V105L2993.67 105V73.68L2986.05 73.68L2985.21 85.8C2984.93 89.72 2984.59 92.94 2984.19 95.46C2983.79 97.98 2983.21 99.96 2982.45 101.4C2981.73 102.84 2980.77 103.86 2979.57 104.46C2978.41 105.02 2976.95 105.3 2975.19 105.3H2974.53ZM3013.41 105.54C3011.25 105.54 3009.47 105.12 3008.07 104.28C3006.71 103.4 3005.69 101.96 3005.01 99.96C3004.37 97.96 3004.05 95.3 3004.05 91.98V83.22C3004.05 79.78 3004.39 77.1 3005.07 75.18C3005.75 73.22 3006.79 71.84 3008.19 71.04C3009.59 70.2 3011.35 69.78 3013.47 69.78C3015.91 69.78 3017.77 70.3 3019.05 71.34C3020.33 72.38 3021.21 73.96 3021.69 76.08C3022.21 78.16 3022.47 80.84 3022.47 84.12V87.24L3008.43 87.24V93.3C3008.43 95.54 3008.59 97.32 3008.91 98.64C3009.27 99.92 3009.81 100.84 3010.53 101.4C3011.29 101.96 3012.25 102.24 3013.41 102.24C3014.29 102.24 3015.09 102.08 3015.81 101.76C3016.53 101.4 3017.09 100.74 3017.49 99.78C3017.93 98.78 3018.15 97.38 3018.15 95.58V93.18H3022.41V95.1C3022.41 98.26 3021.75 100.8 3020.43 102.72C3019.15 104.6 3016.81 105.54 3013.41 105.54ZM3008.43 84.72L3018.15 84.72V81.84C3018.15 80 3018.05 78.44 3017.85 77.16C3017.65 75.84 3017.21 74.84 3016.53 74.16C3015.89 73.44 3014.85 73.08 3013.41 73.08C3012.21 73.08 3011.23 73.34 3010.47 73.86C3009.75 74.38 3009.23 75.32 3008.91 76.68C3008.59 78 3008.43 79.9 3008.43 82.38V84.72ZM3025.98 105L3034.2 86.88L3026.4 70.32L3030.72 70.32L3036.66 83.04L3042.36 70.32L3046.8 70.32L3038.7 87.36L3046.92 105L3042.72 105L3036.24 91.38L3030.18 105H3025.98ZM3057.17 105.54C3055.77 105.54 3054.55 105.2 3053.51 104.52C3052.47 103.8 3051.65 102.86 3051.05 101.7C3050.49 100.5 3050.21 99.2 3050.21 97.8C3050.21 96.04 3050.45 94.54 3050.93 93.3C3051.45 92.06 3052.25 90.96 3053.33 90C3054.45 89 3055.89 88.04 3057.65 87.12C3059.45 86.16 3061.63 85.1 3064.19 83.94V81.48C3064.19 79.36 3064.05 77.7 3063.77 76.5C3063.53 75.26 3063.09 74.38 3062.45 73.86C3061.85 73.34 3060.99 73.08 3059.87 73.08C3058.95 73.08 3058.13 73.26 3057.41 73.62C3056.69 73.98 3056.11 74.6 3055.67 75.48C3055.23 76.32 3055.01 77.5 3055.01 79.02V80.22L3050.69 80.16C3050.73 76.64 3051.47 74.04 3052.91 72.36C3054.39 70.64 3056.79 69.78 3060.11 69.78C3063.23 69.78 3065.41 70.72 3066.65 72.6C3067.93 74.44 3068.57 77.32 3068.57 81.24V98.1C3068.57 98.7 3068.59 99.48 3068.63 100.44C3068.67 101.36 3068.71 102.24 3068.75 103.08C3068.79 103.92 3068.83 104.56 3068.87 105H3064.97C3064.89 104.24 3064.77 103.4 3064.61 102.48C3064.45 101.52 3064.35 100.76 3064.31 100.2C3063.83 101.6 3062.97 102.84 3061.73 103.92C3060.53 105 3059.01 105.54 3057.17 105.54ZM3058.55 101.82C3059.43 101.82 3060.23 101.6 3060.95 101.16C3061.67 100.72 3062.31 100.2 3062.87 99.6C3063.43 98.96 3063.87 98.32 3064.19 97.68V86.88C3062.47 87.76 3060.99 88.56 3059.75 89.28C3058.55 90 3057.57 90.7 3056.81 91.38C3056.05 92.06 3055.49 92.84 3055.13 93.72C3054.77 94.56 3054.59 95.56 3054.59 96.72C3054.59 98.56 3054.99 99.88 3055.79 100.68C3056.59 101.44 3057.51 101.82 3058.55 101.82ZM3075.02 105V70.32L3079.4 70.32V85.44H3090.2V70.32L3094.64 70.32V105H3090.2V88.74H3079.4V105H3075.02ZM3109.91 105.54C3107.55 105.54 3105.69 105.04 3104.33 104.04C3103.01 103 3102.07 101.52 3101.51 99.6C3100.95 97.64 3100.67 95.26 3100.67 92.46V82.86C3100.67 80.06 3100.95 77.7 3101.51 75.78C3102.07 73.82 3103.01 72.34 3104.33 71.34C3105.69 70.3 3107.55 69.78 3109.91 69.78C3112.35 69.78 3114.23 70.3 3115.55 71.34C3116.87 72.34 3117.81 73.82 3118.37 75.78C3118.93 77.7 3119.21 80.06 3119.21 82.86V92.46C3119.21 95.26 3118.93 97.64 3118.37 99.6C3117.81 101.52 3116.87 103 3115.55 104.04C3114.23 105.04 3112.35 105.54 3109.91 105.54ZM3109.91 102.24C3111.43 102.24 3112.53 101.84 3113.21 101.04C3113.93 100.24 3114.37 99.12 3114.53 97.68C3114.69 96.2 3114.77 94.54 3114.77 92.7V82.62C3114.77 80.74 3114.69 79.1 3114.53 77.7C3114.37 76.26 3113.93 75.14 3113.21 74.34C3112.53 73.5 3111.43 73.08 3109.91 73.08C3108.39 73.08 3107.29 73.5 3106.61 74.34C3105.93 75.14 3105.51 76.26 3105.35 77.7C3105.19 79.1 3105.11 80.74 3105.11 82.62V92.7C3105.11 94.54 3105.19 96.2 3105.35 97.68C3105.51 99.12 3105.93 100.24 3106.61 101.04C3107.29 101.84 3108.39 102.24 3109.91 102.24ZM3125.29 105V70.32L3133.69 70.32C3135.97 70.32 3137.73 70.72 3138.97 71.52C3140.25 72.32 3141.17 73.36 3141.73 74.64C3142.29 75.88 3142.57 77.22 3142.57 78.66C3142.57 80.22 3142.27 81.72 3141.67 83.16C3141.07 84.56 3139.89 85.56 3138.13 86.16C3139.49 86.52 3140.53 87.16 3141.25 88.08C3142.01 88.96 3142.55 90 3142.87 91.2C3143.19 92.4 3143.35 93.66 3143.35 94.98C3143.35 96.94 3143.09 98.68 3142.57 100.2C3142.05 101.72 3141.13 102.9 3139.81 103.74C3138.49 104.58 3136.61 105 3134.17 105L3125.29 105ZM3129.61 101.64L3133.39 101.64C3134.75 101.64 3135.83 101.38 3136.63 100.86C3137.47 100.34 3138.07 99.58 3138.43 98.58C3138.83 97.54 3139.03 96.28 3139.03 94.8C3139.03 92.96 3138.79 91.58 3138.31 90.66C3137.87 89.7 3137.25 89.04 3136.45 88.68C3135.69 88.32 3134.77 88.14 3133.69 88.14H3129.61V101.64ZM3129.61 84.96H3133.99C3135.35 84.96 3136.45 84.46 3137.29 83.46C3138.13 82.46 3138.55 81 3138.55 79.08C3138.55 77.28 3138.09 75.94 3137.17 75.06C3136.29 74.14 3134.97 73.68 3133.21 73.68H3129.61V84.96ZM3154.67 105.54C3153.27 105.54 3152.05 105.2 3151.01 104.52C3149.97 103.8 3149.15 102.86 3148.55 101.7C3147.99 100.5 3147.71 99.2 3147.71 97.8C3147.71 96.04 3147.95 94.54 3148.43 93.3C3148.95 92.06 3149.75 90.96 3150.83 90C3151.95 89 3153.39 88.04 3155.15 87.12C3156.95 86.16 3159.13 85.1 3161.69 83.94V81.48C3161.69 79.36 3161.55 77.7 3161.27 76.5C3161.03 75.26 3160.59 74.38 3159.95 73.86C3159.35 73.34 3158.49 73.08 3157.37 73.08C3156.45 73.08 3155.63 73.26 3154.91 73.62C3154.19 73.98 3153.61 74.6 3153.17 75.48C3152.73 76.32 3152.51 77.5 3152.51 79.02V80.22L3148.19 80.16C3148.23 76.64 3148.97 74.04 3150.41 72.36C3151.89 70.64 3154.29 69.78 3157.61 69.78C3160.73 69.78 3162.91 70.72 3164.15 72.6C3165.43 74.44 3166.07 77.32 3166.07 81.24V98.1C3166.07 98.7 3166.09 99.48 3166.13 100.44C3166.17 101.36 3166.21 102.24 3166.25 103.08C3166.29 103.92 3166.33 104.56 3166.37 105L3162.47 105C3162.39 104.24 3162.27 103.4 3162.11 102.48C3161.95 101.52 3161.85 100.76 3161.81 100.2C3161.33 101.6 3160.47 102.84 3159.23 103.92C3158.03 105 3156.51 105.54 3154.67 105.54ZM3156.05 101.82C3156.93 101.82 3157.73 101.6 3158.45 101.16C3159.17 100.72 3159.81 100.2 3160.37 99.6C3160.93 98.96 3161.37 98.32 3161.69 97.68V86.88C3159.97 87.76 3158.49 88.56 3157.25 89.28C3156.05 90 3155.07 90.7 3154.31 91.38C3153.55 92.06 3152.99 92.84 3152.63 93.72C3152.27 94.56 3152.09 95.56 3152.09 96.72C3152.09 98.56 3152.49 99.88 3153.29 100.68C3154.09 101.44 3155.01 101.82 3156.05 101.82ZM3172.4 99.84V94.26L3179 85.92L3172.4 77.64V72L3182.72 84.96V86.88L3172.4 99.84ZM3182.24 99.84V94.26L3188.84 85.98L3182.24 77.64V72L3192.5 84.96V86.88L3182.24 99.84Z" fill="white"/>
</svg>
