<svg width="132" height="43" viewBox="0 0 132 43" fill="none" xmlns="http://www.w3.org/2000/svg">
<path d="M8.60938 0.612793H21.4761C23.6205 0.612793 25.1787 1.09873 26.1479 2.06795C27.1171 3.03718 27.6031 4.59534 27.6031 6.73979V9.80328C27.6031 11.9477 27.1171 13.5059 26.1479 14.4751C25.1787 15.4443 23.6205 15.9303 21.4761 15.9303H14.1237V22.0573H8.60938V0.612793ZM22.0888 6.73979C22.0888 5.51439 21.4761 4.90169 20.2507 4.90169H14.1237V11.6414H20.2507C21.4761 11.6414 22.0888 11.0287 22.0888 9.80328V6.73979Z" fill="#217AFF"/>
<path d="M29.1367 17.6152C34.1202 17.9215 37.49 18.0747 39.2463 18.0747C39.7163 18.0747 40.0887 17.9374 40.3634 17.6601C40.638 17.3828 40.778 17.0131 40.778 16.543V13.6327H32.628V9.34376H40.778V6.73979C40.778 5.51439 40.1653 4.90169 38.9399 4.90169H29.4431V0.612793H40.1653C42.3098 0.612793 43.8679 1.09873 44.8371 2.06795C45.8064 3.03718 46.2923 4.59534 46.2923 6.73979V16.543C46.2923 18.5448 45.8222 20.0158 44.882 20.9534C43.9419 21.8935 42.4709 22.3636 40.4717 22.3636C37.4082 22.3636 33.629 22.1603 29.1367 21.7509V17.6152V17.6152Z" fill="#217AFF"/>
<path d="M54.5042 22.3636C53.4822 22.3636 52.4311 22.2606 51.3483 22.0573V17.9215H54.1055C54.697 17.9215 55.1064 17.6865 55.3309 17.2164C55.4339 17.0131 55.484 16.7939 55.484 16.5588C55.484 16.3238 55.4339 16.1151 55.3309 15.9303L46.9062 0.612793H53.0332L58.5475 11.4882L63.1428 0.612793H69.2698L61.4579 17.462C60.7422 19.0756 59.8839 20.2799 58.8856 21.0775C57.7817 21.9358 56.3212 22.3636 54.5042 22.3636Z" fill="#217AFF"/>
<path d="M69.5742 17.4619H75.0885V22.0572H69.5742V17.4619Z" fill="#217AFF"/>
<path d="M77.8477 0.612793H90.7143C92.8588 0.612793 94.4169 1.09873 95.3862 2.06795C96.3554 3.03718 96.8413 4.59534 96.8413 6.73979V9.80328C96.8413 11.9477 96.3554 13.5059 95.3862 14.4751C94.4169 15.4443 92.8588 15.9303 90.7143 15.9303H83.362V22.0573H77.8477V0.612793ZM91.327 6.73979C91.327 5.51439 90.7143 4.90169 89.4889 4.90169H83.362V11.6414H89.4889C90.7143 11.6414 91.327 11.0287 91.327 9.80328V6.73979Z" fill="#217AFF"/>
<path d="M123.8 14.3984C123.8 16.5429 123.314 18.101 122.345 19.0703C121.376 20.0395 119.818 20.5254 117.673 20.5254H113.997V22.6699H108.483V20.5254H104.807C102.662 20.5254 101.104 20.0395 100.135 19.0703C99.1656 18.101 98.6797 16.5429 98.6797 14.3984V8.27144C98.6797 6.12699 99.1656 4.56884 100.135 3.59961C101.104 2.63038 102.662 2.14445 104.807 2.14445H108.483V0H113.997V2.14445H117.673C119.818 2.14445 121.376 2.63038 122.345 3.59961C123.314 4.56884 123.8 6.12699 123.8 8.27144V14.3984ZM104.194 14.3984C104.194 15.6238 104.807 16.2365 106.032 16.2365H108.789V6.43334H106.032C104.807 6.43334 104.194 7.04604 104.194 8.27144V14.3984ZM118.286 8.27144C118.286 7.04604 117.673 6.43334 116.448 6.43334H113.691V16.2365H116.448C117.673 16.2365 118.286 15.6238 118.286 14.3984V8.27144Z" fill="#217AFF"/>
<path d="M7.11719 26.4937H125.432" stroke="#217AFF" stroke-width="1.84866" stroke-miterlimit="10"/>
<path d="M8.66797 30.9834H10.6645C10.9973 30.9834 11.2376 31.06 11.3881 31.2079C11.5387 31.3584 11.6153 31.6014 11.6153 31.9341V32.4095C11.6153 32.7423 11.5387 32.9852 11.3881 33.1358C11.2376 33.2863 10.9973 33.3629 10.6645 33.3629H9.52364V34.3136H8.66797V30.9834ZM10.7596 31.9341C10.7596 31.744 10.6645 31.6489 10.4744 31.6489H9.52364V32.6947H10.4744C10.6645 32.6947 10.7596 32.5997 10.7596 32.4095V31.9341Z" fill="#217AFF"/>
<path d="M15.0404 33.408C15.0404 33.7407 14.9638 33.9837 14.8159 34.1342C14.6654 34.2847 14.425 34.3613 14.0896 34.3613H12.9012C12.5685 34.3613 12.3281 34.2847 12.1776 34.1342C12.0271 33.9837 11.9531 33.7407 11.9531 33.408V31.8868C11.9531 31.554 12.0271 31.3137 12.1776 31.1605C12.3281 31.01 12.5685 30.936 12.9012 30.936H14.0896C14.4224 30.936 14.6654 31.0126 14.8159 31.1605C14.9664 31.311 15.0404 31.554 15.0404 31.8868V33.408ZM14.1847 31.8868C14.1847 31.6966 14.0896 31.6016 13.8995 31.6016H13.0914C12.9012 31.6016 12.8062 31.6966 12.8062 31.8868V33.408C12.8062 33.5981 12.9012 33.6932 13.0914 33.6932H13.8995C14.0896 33.6932 14.1847 33.5981 14.1847 33.408V31.8868Z" fill="#217AFF"/>
<path d="M18.08 34.2635C17.3723 34.3268 16.786 34.3585 16.3212 34.3585C16.0095 34.3585 15.7824 34.2846 15.6372 34.1393C15.4919 33.9941 15.418 33.7643 15.418 33.4553V31.9341C15.418 31.6014 15.4919 31.3611 15.6424 31.2079C15.793 31.0573 16.0333 30.9834 16.3661 30.9834H18.0774V31.6489H16.5562C16.3661 31.6489 16.271 31.744 16.271 31.9341V33.4553C16.271 33.5293 16.2921 33.5874 16.3344 33.6296C16.3766 33.6719 16.4321 33.693 16.4981 33.693C16.5641 33.693 16.6381 33.693 16.7173 33.6904C16.7965 33.6877 16.8784 33.6877 16.9656 33.6824C17.0501 33.6798 17.1372 33.6772 17.2244 33.6719C17.3115 33.6692 17.4251 33.6613 17.5624 33.6534C17.6997 33.6428 17.8714 33.6323 18.0774 33.6191V34.2635H18.08Z" fill="#217AFF"/>
<path d="M21.0254 34.2635C20.3176 34.3268 19.7313 34.3585 19.2665 34.3585C18.9549 34.3585 18.7277 34.2846 18.5825 34.1393C18.4372 33.9941 18.3633 33.7643 18.3633 33.4553V31.9341C18.3633 31.6014 18.4372 31.3611 18.5878 31.2079C18.7383 31.0573 18.9786 30.9834 19.3114 30.9834H21.0227V31.6489H19.5015C19.3114 31.6489 19.2163 31.744 19.2163 31.9341V33.4553C19.2163 33.5293 19.2374 33.5874 19.2797 33.6296C19.3219 33.6719 19.3774 33.693 19.4434 33.693C19.5095 33.693 19.5834 33.693 19.6626 33.6904C19.7419 33.6877 19.8237 33.6877 19.9109 33.6824C19.9954 33.6798 20.0825 33.6772 20.1697 33.6719C20.2568 33.6692 20.3704 33.6613 20.5077 33.6534C20.6451 33.6428 20.8167 33.6323 21.0227 33.6191V34.2635H21.0254Z" fill="#217AFF"/>
<path d="M24.3099 34.311H23.4542V32.2669L22.3134 34.311H21.4102V30.9834H22.2658V33.0275L23.4067 30.9834H24.3099V34.311V34.311Z" fill="#217AFF"/>
<path d="M26.923 34.3112V32.2671L25.7821 34.3112H24.8789V30.9836H25.7346V33.0277L26.8755 30.9836H27.7787V34.3112H26.923ZM26.0673 30.7459C25.6553 30.7459 25.4494 30.5399 25.4494 30.128V29.9854H26.0673V30.1042C26.0673 30.1517 26.0832 30.1913 26.1149 30.223C26.1466 30.2547 26.1862 30.2706 26.2337 30.2706H26.3763C26.4239 30.2706 26.4635 30.2547 26.4952 30.223C26.5269 30.1913 26.5427 30.1517 26.5427 30.1042V29.9854H27.1607V30.128C27.1607 30.5399 26.9547 30.7459 26.5427 30.7459H26.0673Z" fill="#217AFF"/>
<path d="M30.9121 34.2635C30.2043 34.3268 29.618 34.3585 29.1532 34.3585C28.8416 34.3585 28.6145 34.2846 28.4692 34.1393C28.3239 33.9941 28.25 33.7643 28.25 33.4553V31.9341C28.25 31.6014 28.3239 31.3611 28.4745 31.2079C28.625 31.0573 28.8653 30.9834 29.1981 30.9834H30.9094V31.6489H29.3882C29.1981 31.6489 29.103 31.744 29.103 31.9341V33.4553C29.103 33.5293 29.1242 33.5874 29.1664 33.6296C29.2087 33.6719 29.2641 33.693 29.3301 33.693C29.3962 33.693 29.4701 33.693 29.5493 33.6904C29.6286 33.6877 29.7104 33.6877 29.7976 33.6824C29.8821 33.6798 29.9693 33.6772 30.0564 33.6719C30.1436 33.6692 30.2571 33.6613 30.3944 33.6534C30.5318 33.6428 30.7034 33.6323 30.9094 33.6191V34.2635H30.9121Z" fill="#217AFF"/>
<path d="M33.7213 30.936C33.8005 30.936 33.9431 30.9519 34.1491 30.9836V31.6253H33.9589C33.9114 31.6253 33.8692 31.6412 33.8295 31.6702C33.7926 31.6993 33.7635 31.7336 33.745 31.7679L33.2934 32.6236L34.2204 34.3112H33.3172L32.5804 32.9564H32.1525V34.3112H31.2969V30.9836H32.1525V32.2908H32.5804L33.0557 31.3876C33.1244 31.2556 33.2116 31.1447 33.3146 31.0628C33.4176 30.9783 33.5522 30.936 33.7213 30.936Z" fill="#217AFF"/>
<path d="M37.4037 34.311H36.548V32.2669L35.4071 34.311H34.5039V30.9834H35.3596V33.0275L36.5005 30.9834H37.4037V34.311Z" fill="#217AFF"/>
<path d="M40.0167 34.3112V32.2671L38.8759 34.3112H37.9727V30.9836H38.8283V33.0277L39.9692 30.9836H40.8724V34.3112H40.0167ZM39.1611 30.7459C38.7491 30.7459 38.5431 30.5399 38.5431 30.128V29.9854H39.1611V30.1042C39.1611 30.1517 39.1769 30.1913 39.2086 30.223C39.2403 30.2547 39.2799 30.2706 39.3275 30.2706H39.4701C39.5176 30.2706 39.5572 30.2547 39.5889 30.223C39.6206 30.1913 39.6365 30.1517 39.6365 30.1042V29.9854H40.2544V30.128C40.2544 30.5399 40.0484 30.7459 39.6365 30.7459H39.1611Z" fill="#217AFF"/>
<path d="M42.6797 33.6217C43.4535 33.6692 43.9764 33.693 44.2484 33.693C44.3224 33.693 44.3805 33.6719 44.4227 33.6296C44.465 33.5874 44.4861 33.5293 44.4861 33.4553V33.0037H43.2211V32.3382H44.4861V31.9341C44.4861 31.744 44.391 31.6489 44.2009 31.6489H42.7272V30.9834H44.391C44.7238 30.9834 44.9641 31.06 45.1173 31.2079C45.2678 31.3584 45.3444 31.6014 45.3444 31.9341V33.4553C45.3444 33.767 45.2705 33.9941 45.1252 34.1393C44.9799 34.2846 44.7502 34.3585 44.4412 34.3585C43.9658 34.3585 43.3795 34.3268 42.6823 34.2635V33.6217H42.6797Z" fill="#217AFF"/>
<path d="M48.2408 30.936C48.32 30.936 48.4626 30.9519 48.6686 30.9836V31.6253H48.4785C48.4309 31.6253 48.3887 31.6412 48.3491 31.6702C48.3121 31.6993 48.2831 31.7336 48.2646 31.7679L47.813 32.6236L48.7399 34.3112H47.8367L47.0999 32.9564H46.6721V34.3112H45.8164V30.9836H46.6721V32.2908H47.0999L47.5753 31.3876C47.6439 31.2556 47.7311 31.1447 47.8341 31.0628C47.9371 30.9783 48.0718 30.936 48.2408 30.936Z" fill="#217AFF"/>
<path d="M52.0183 33.408C52.0183 33.7407 51.9417 33.9837 51.7938 34.1342C51.6433 34.2847 51.4003 34.3613 51.0676 34.3613H49.8792C49.5464 34.3613 49.3034 34.2847 49.1529 34.1342C49.0024 33.9837 48.9258 33.7407 48.9258 33.408V31.8868C48.9258 31.554 49.0024 31.3137 49.1529 31.1605C49.3034 31.01 49.5438 30.936 49.8792 30.936H51.0676C51.4003 30.936 51.6407 31.0126 51.7938 31.1605C51.9444 31.311 52.0183 31.554 52.0183 31.8868V33.408ZM51.1627 31.8868C51.1627 31.6966 51.0676 31.6016 50.8774 31.6016H50.0693C49.8792 31.6016 49.7841 31.6966 49.7841 31.8868V33.408C49.7841 33.5981 49.8792 33.6932 50.0693 33.6932H50.8774C51.0676 33.6932 51.1627 33.5981 51.1627 33.408V31.8868Z" fill="#217AFF"/>
<path d="M55.3959 34.311H54.5402V32.9562H53.3518V34.311H52.4961V30.9834H53.3518V32.2907H54.5402V30.9834H55.3959V34.311Z" fill="#217AFF"/>
<path d="M58.9597 33.408C58.9597 33.7407 58.8831 33.9837 58.7353 34.1342C58.5847 34.2847 58.3418 34.3613 58.009 34.3613H56.8206C56.4878 34.3613 56.2448 34.2847 56.0943 34.1342C55.9438 33.9837 55.8672 33.7407 55.8672 33.408V31.8868C55.8672 31.554 55.9438 31.3137 56.0943 31.1605C56.2448 31.01 56.4852 30.936 56.8206 30.936H58.009C58.3418 30.936 58.5821 31.0126 58.7353 31.1605C58.8858 31.311 58.9597 31.554 58.9597 31.8868V33.408ZM58.1041 31.8868C58.1041 31.6966 58.009 31.6016 57.8188 31.6016H57.0107C56.8206 31.6016 56.7255 31.6966 56.7255 31.8868V33.408C56.7255 33.5981 56.8206 33.6932 57.0107 33.6932H57.8188C58.009 33.6932 58.1041 33.5981 58.1041 33.408V31.8868Z" fill="#217AFF"/>
<path d="M62.2897 32.457L61.6242 33.6455H60.9587L60.2932 32.457V34.311H59.4375V30.9834H60.3407L61.2914 32.7423L62.2422 30.9834H63.1454V34.311H62.2897V32.457V32.457Z" fill="#217AFF"/>
<path d="M66.6146 34.311H65.7589V32.2669L64.618 34.311H63.7148V30.9834H64.5705V33.0275L65.7114 30.9834H66.6146V34.311Z" fill="#217AFF"/>
<path d="M69.1089 33.2176C68.7286 33.2493 68.3694 33.2652 68.0314 33.2652C67.6934 33.2652 67.453 33.1912 67.3051 33.046C67.1599 32.9007 67.0859 32.671 67.0859 32.362V30.9834H67.9416V32.362C67.9416 32.4359 67.9627 32.494 68.005 32.5363C68.0472 32.5785 68.1053 32.5997 68.1793 32.5997C68.4381 32.5997 68.7471 32.5838 69.1063 32.5521V30.9834H69.9619V34.311H69.1063V33.2176H69.1089Z" fill="#217AFF"/>
<path d="M73.1735 34.311H70.5352V30.9834H73.1735V31.6489H71.3908V32.2907H72.7932V32.9562H71.3908V33.6455H73.1735V34.311Z" fill="#217AFF"/>
<path d="M76.1191 34.2635C75.4113 34.3268 74.825 34.3585 74.3602 34.3585C74.0486 34.3585 73.8215 34.2846 73.6762 34.1393C73.531 33.9941 73.457 33.7643 73.457 33.4553V31.9341C73.457 31.6014 73.5336 31.3611 73.6841 31.2079C73.8347 31.0573 74.075 30.9834 74.4104 30.9834H76.1217V31.6489H74.6006C74.4104 31.6489 74.3153 31.744 74.3153 31.9341V33.4553C74.3153 33.5293 74.3365 33.5874 74.3787 33.6296C74.421 33.6719 74.4764 33.693 74.5425 33.693C74.6085 33.693 74.6824 33.693 74.7617 33.6904C74.8409 33.6877 74.9227 33.6877 75.0099 33.6824C75.0944 33.6798 75.1816 33.6772 75.2687 33.6719C75.3559 33.6692 75.4694 33.6613 75.6068 33.6534C75.7441 33.6428 75.9158 33.6323 76.1217 33.6191V34.2635H76.1191Z" fill="#217AFF"/>
<path d="M78.9283 30.936C79.0075 30.936 79.1501 30.9519 79.3561 30.9836V31.6253H79.166C79.1184 31.6253 79.0762 31.6412 79.0366 31.6702C78.9996 31.6993 78.9705 31.7336 78.9521 31.7679L78.5005 32.6236L79.4274 34.3112H78.5242L77.7874 32.9564H77.3596V34.3112H76.5039V30.9836H77.3596V32.2908H77.7874L78.2628 31.3876C78.3314 31.2556 78.4186 31.1447 78.5216 31.0628C78.6246 30.9783 78.7619 30.936 78.9283 30.936Z" fill="#217AFF"/>
<path d="M82.6107 34.311H81.755V32.2669L80.6141 34.311H79.7109V30.9834H80.5666V33.0275L81.7075 30.9834H82.6107V34.311Z" fill="#217AFF"/>
<path d="M85.2238 34.3112V32.2671L84.0829 34.3112H83.1797V30.9836H84.0354V33.0277L85.1762 30.9836H86.0794V34.3112H85.2238ZM84.3681 30.7459C83.9561 30.7459 83.7501 30.5399 83.7501 30.128V29.9854H84.3681V30.1042C84.3681 30.1517 84.384 30.1913 84.4156 30.223C84.4473 30.2547 84.487 30.2706 84.5345 30.2706H84.6771C84.7246 30.2706 84.7643 30.2547 84.7959 30.223C84.8276 30.1913 84.8435 30.1517 84.8435 30.1042V29.9854H85.4615V30.128C85.4615 30.5399 85.2555 30.7459 84.8435 30.7459H84.3681Z" fill="#217AFF"/>
<path d="M88.8771 34.3585C88.7186 34.3585 88.5549 34.3427 88.3885 34.311V33.6692H88.8163C88.9088 33.6692 88.9722 33.6323 89.0065 33.561C89.0223 33.5293 89.0303 33.4949 89.0303 33.458C89.0303 33.421 89.0223 33.3893 89.0065 33.3602L87.6992 30.9834H88.65L89.5056 32.671L90.2187 30.9834H91.1694L89.9572 33.5979C89.8463 33.8488 89.7143 34.0363 89.5584 34.1578C89.3841 34.2925 89.157 34.3585 88.8771 34.3585Z" fill="#217AFF"/>
<path d="M94.2552 34.311H93.3996V32.9562H92.2111V34.311H91.3555V30.9834H92.2111V32.2907H93.3996V30.9834H94.2552V34.311Z" fill="#217AFF"/>
<path d="M97.724 34.311H96.8683V32.2669L95.7274 34.311H94.8242V30.9834H95.6799V33.0275L96.8208 30.9834H97.724V34.311Z" fill="#217AFF"/>
<path d="M98.293 30.9834H100.194C100.506 30.9834 100.733 31.0547 100.878 31.1947C101.024 31.3346 101.098 31.5512 101.098 31.8391C101.098 32.0292 101.055 32.1824 100.974 32.3012C100.892 32.4201 100.789 32.5019 100.67 32.5495C100.926 32.6181 101.1 32.7898 101.193 33.0618C101.224 33.1595 101.24 33.2731 101.24 33.4051C101.24 33.7168 101.166 33.9439 101.021 34.0891C100.876 34.2344 100.646 34.3083 100.337 34.3083H98.293V30.9834ZM100.242 31.9341C100.242 31.744 100.147 31.6489 99.9568 31.6489H99.1486V32.3144H99.9568C100.147 32.3144 100.242 32.2194 100.242 32.0292V31.9341ZM100.385 33.2652C100.385 33.075 100.29 32.98 100.099 32.98H99.1486V33.6455H100.099C100.29 33.6455 100.385 33.5504 100.385 33.3602V33.2652Z" fill="#217AFF"/>
<path d="M104.31 34.311H101.672V30.9834H104.31V31.6489H102.528V32.2907H103.93V32.9562H102.528V33.6455H104.31V34.311Z" fill="#217AFF"/>
<path d="M104.688 30.9834H106.684C107.017 30.9834 107.257 31.06 107.41 31.2079C107.561 31.3584 107.637 31.6014 107.637 31.9341V32.4095C107.637 32.7423 107.561 32.9852 107.41 33.1358C107.26 33.2863 107.019 33.3629 106.684 33.3629H105.543V34.3136H104.688V30.9834ZM106.779 31.9341C106.779 31.744 106.684 31.6489 106.494 31.6489H105.543V32.6947H106.494C106.684 32.6947 106.779 32.5997 106.779 32.4095V31.9341Z" fill="#217AFF"/>
<path d="M110.631 34.2635C109.923 34.3268 109.337 34.3585 108.872 34.3585C108.56 34.3585 108.333 34.2846 108.188 34.1393C108.043 33.9941 107.969 33.7643 107.969 33.4553V31.9341C107.969 31.6014 108.045 31.3611 108.196 31.2079C108.346 31.0573 108.587 30.9834 108.922 30.9834H110.633V31.6489H109.112C108.922 31.6489 108.827 31.744 108.827 31.9341V33.4553C108.827 33.5293 108.848 33.5874 108.89 33.6296C108.933 33.6719 108.988 33.693 109.054 33.693C109.12 33.693 109.194 33.693 109.273 33.6904C109.353 33.6877 109.434 33.6877 109.522 33.6824C109.606 33.6798 109.693 33.6772 109.78 33.6719C109.868 33.6692 109.981 33.6613 110.118 33.6534C110.256 33.6428 110.427 33.6323 110.633 33.6191V34.2635H110.631Z" fill="#217AFF"/>
<path d="M113.911 34.311H113.056V32.2669L111.915 34.311H111.012V30.9834H111.867V33.0275L113.008 30.9834H113.911V34.311Z" fill="#217AFF"/>
<path d="M116.1 34.311H115.244V31.6489H114.246V30.9834H117.098V31.6489H116.1V34.311V34.311Z" fill="#217AFF"/>
<path d="M120.068 34.311H117.43V30.9834H120.068V31.6489H118.285V32.2907H119.688V32.9562H118.285V33.6455H120.068V34.311Z" fill="#217AFF"/>
<path d="M122.065 34.311H121.209V31.6489H120.211V30.9834H123.063V31.6489H122.065V34.311V34.311Z" fill="#217AFF"/>
<path d="M14.2165 42.7355H12.5527V38.7608L10.3344 42.7355H8.57812V36.2651H10.2419V40.2398L12.4603 36.2651H14.2165V42.7355V42.7355Z" fill="#217AFF"/>
<path d="M20.8702 39.1306L19.5761 41.4414H18.2821L16.988 39.1306V42.7355H15.3242V36.2651H17.0804L18.9291 39.6852L20.7778 36.2651H22.534V42.7355H20.8702V39.1306Z" fill="#217AFF"/>
<path d="M28.7732 42.7355H23.6445V36.2651H28.7732V37.5592H25.3083V38.8084H28.0364V40.1024H25.3083V41.444H28.7732V42.7355Z" fill="#217AFF"/>
<path d="M35.154 42.7355H33.4902V40.0998H31.1794V42.7355H29.5156V36.2651H31.1794V38.8057H33.4902V36.2651H35.154V42.7355Z" fill="#217AFF"/>
<path d="M41.9001 42.7355H40.2363V38.7608L38.0179 42.7355H36.2617V36.2651H37.9255V40.2398L40.1439 36.2651H41.9001V42.7355V42.7355Z" fill="#217AFF"/>
<path d="M47.445 42.7355H45.7812V36.2651H50.8202V37.5592H47.445V42.7355Z" fill="#217AFF"/>
<path d="M51.1875 41.3491H52.8513V42.7356H51.1875V41.3491Z" fill="#217AFF"/>
<path d="M53.6836 36.2651H57.3809C57.9857 36.2651 58.4294 36.4025 58.712 36.6771C58.9945 36.9518 59.1371 37.3691 59.1371 37.9289C59.1371 38.2987 59.0579 38.5997 58.8968 38.8295C58.7357 39.0593 58.5403 39.223 58.3052 39.3154C58.8044 39.4501 59.1424 39.7829 59.322 40.3137C59.3828 40.5039 59.4144 40.7257 59.4144 40.9792C59.4144 41.584 59.2718 42.0277 58.9893 42.3103C58.7067 42.5928 58.263 42.7355 57.6582 42.7355H53.6836V36.2651V36.2651ZM57.476 38.1138C57.476 37.7441 57.2911 37.5592 56.9214 37.5592H55.35V38.8533H56.9214C57.2911 38.8533 57.476 38.6684 57.476 38.2987V38.1138ZM57.7533 40.7019C57.7533 40.3322 57.5684 40.1473 57.1987 40.1473H55.35V41.4414H57.1987C57.5684 41.4414 57.7533 41.2565 57.7533 40.8868V40.7019Z" fill="#217AFF"/>
<path d="M59.9688 41.3491H61.6325V42.7356H59.9688V41.3491Z" fill="#217AFF"/>
<path d="M70.8728 42.7355H69.209V37.5592H66.8982V42.7355H65.2344V36.2651H70.8728V42.7355Z" fill="#217AFF"/>
<path d="M73.5002 42.4451C73.2467 42.7013 72.9377 42.8281 72.5654 42.8281C72.1956 42.8281 71.847 42.7964 71.5195 42.7357V41.4865H71.9368C72.053 41.4865 72.1507 41.4469 72.2273 41.365C72.3039 41.2858 72.3462 41.1854 72.3514 41.0692L72.6287 36.2627H77.7575V42.7357H76.0936V37.5594H74.1526L73.9202 41.3967C73.8964 41.8377 73.7538 42.189 73.5002 42.4451Z" fill="#217AFF"/>
<path d="M83.9998 42.7355H78.8711V36.2651H84.0024V37.5592H80.5349V38.8084H83.2603V40.1024H80.5349V41.444H83.9998V42.7355Z" fill="#217AFF"/>
<path d="M88.4856 36.2651H90.3343L88.2532 39.5003L90.3792 42.7355H88.5305L87.2365 40.7019L85.9424 42.7355H84.0938L86.2197 39.5003L84.1386 36.2651H85.9767L87.2338 38.2987L88.4856 36.2651Z" fill="#217AFF"/>
<path d="M92.0003 42.7355H90.1992L92.6474 36.2651H94.496L96.9468 42.7355H95.1431L94.7258 41.5787H92.415L92.0003 42.7355ZM92.8322 40.3797H94.3112L93.5717 38.2062L92.8322 40.3797Z" fill="#217AFF"/>
<path d="M103.041 42.7355H101.377V40.0998H99.0661V42.7355H97.4023V36.2651H99.0661V38.8057H101.377V36.2651H103.041V42.7355Z" fill="#217AFF"/>
<path d="M109.977 40.9794C109.977 41.6264 109.832 42.0965 109.539 42.3896C109.245 42.6828 108.775 42.828 108.128 42.828H105.817C105.17 42.828 104.7 42.6828 104.407 42.3896C104.114 42.0965 103.969 41.6264 103.969 40.9794V38.0215C103.969 37.3745 104.114 36.9044 104.407 36.6112C104.7 36.3181 105.17 36.1729 105.817 36.1729H108.128C108.775 36.1729 109.245 36.3181 109.539 36.6112C109.832 36.9044 109.977 37.3745 109.977 38.0215V40.9794ZM108.313 38.0215C108.313 37.6518 108.128 37.4669 107.759 37.4669H106.187C105.817 37.4669 105.633 37.6518 105.633 38.0215V40.9794C105.633 41.3491 105.817 41.534 106.187 41.534H107.759C108.128 41.534 108.313 41.3491 108.313 40.9794V38.0215Z" fill="#217AFF"/>
<path d="M110.898 36.2651H114.596C115.201 36.2651 115.644 36.4025 115.927 36.6771C116.209 36.9518 116.352 37.3691 116.352 37.9289C116.352 38.2987 116.273 38.5997 116.112 38.8295C115.951 39.0593 115.755 39.223 115.52 39.3154C116.019 39.4501 116.357 39.7829 116.537 40.3137C116.598 40.5039 116.629 40.7257 116.629 40.9792C116.629 41.584 116.487 42.0277 116.204 42.3103C115.922 42.5928 115.478 42.7355 114.873 42.7355H110.898V36.2651ZM114.688 38.1138C114.688 37.7441 114.503 37.5592 114.134 37.5592H112.562V38.8533H114.134C114.503 38.8533 114.688 38.6684 114.688 38.2987V38.1138ZM114.965 40.7019C114.965 40.3322 114.781 40.1473 114.411 40.1473H112.562V41.4414H114.411C114.781 41.4414 114.965 41.2565 114.965 40.8868V40.7019Z" fill="#217AFF"/>
<path d="M118.618 42.7355H116.816L119.265 36.2651H121.113L123.564 42.7355H121.76L121.343 41.5787H119.032L118.618 42.7355ZM119.449 40.3797H120.928L120.189 38.2062L119.449 40.3797Z" fill="#217AFF"/>
</svg>
