<svg width="1078" height="50" fill="none" xmlns="http://www.w3.org/2000/svg"><path d="M14.334 0H0l39.417 50h14.334L14.334 0zm125.418 0h-14.334l39.417 50h14.334L139.752 0zM77.043 0H62.709l39.417 50h14.334L77.043 0zm125.418 0h-14.334l39.418 50h14.333L202.461 0zm104.515 0h-14.333l39.417 50h14.333L306.976 0z" fill="#217AFF"/><path d="M516.007 0h-14.334l39.417 50h14.334L516.007 0zm209.03 0h-14.333l39.417 50h14.333L725.037 0zm209.031 0h-14.334l39.417 50h14.334L934.068 0z" fill="#2BD6FB"/><path d="M411.492 0h-14.334l39.417 50h14.334L411.492 0z" fill="#217AFF"/><path d="M620.522 0h-14.334l39.417 50h14.334L620.522 0zm209.03 0h-14.333l39.417 50h14.333L829.552 0zm209.028 0h-14.33l39.42 50H1078l-39.42-50z" fill="#2BD6FB"/><path d="M35.236 0H20.904L60.32 50h14.334L35.237 0zm125.419 0h-14.334l39.418 50h14.333L160.655 0zM265.17 0h-14.334l39.418 50h14.333L265.17 0z" fill="#217AFF"/><path d="M474.2 0h-14.333l39.417 50h14.334L474.2 0zm209.031 0h-14.334l39.418 50h14.333L683.231 0zm209.031 0h-14.334l39.417 50h14.334L892.262 0z" fill="#2BD6FB"/><path d="M369.685 0h-14.333l39.417 50h14.334L369.685 0z" fill="#217AFF"/><path d="M578.716 0h-14.334l39.417 50h14.334L578.716 0zm209.03 0h-14.333l39.417 50h14.334L787.746 0zm209.031 0h-14.334l39.417 50h14.33L996.777 0z" fill="#2BD6FB"/><path d="M97.946 0H83.612l39.417 50h14.334L97.946 0zm125.418 0h-14.333l39.417 50h14.333L223.364 0zm209.03 0h-14.333l39.417 50h14.334L432.394 0z" fill="#217AFF"/><path d="M641.425 0h-14.334l39.418 50h14.333L641.425 0zm209.03 0h-14.333l39.417 50h14.334L850.455 0z" fill="#2BD6FB"/><path d="M327.879 0h-14.333l39.417 50h14.333L327.879 0z" fill="#217AFF"/><path d="M536.91 0h-14.334l39.417 50h14.334L536.91 0zm209.03 0h-14.333l39.417 50h14.333L745.94 0zm209.031 0h-14.334l39.417 50h14.334L954.971 0z" fill="#2BD6FB"/><path d="M56.14 0H41.806l39.417 50h14.334L56.14 0zm125.418 0h-14.334l39.418 50h14.333L181.558 0zm104.515 0H271.74l39.417 50h14.333L286.073 0z" fill="#217AFF"/><path d="M495.104 0H480.77l39.417 50h14.334L495.104 0zm209.03 0h-14.333l39.417 50h14.333L704.134 0zm209.031 0h-14.334l39.417 50h14.334L913.165 0z" fill="#2BD6FB"/><path d="M390.588 0h-14.333l39.417 50h14.334L390.588 0z" fill="#217AFF"/><path d="M599.619 0h-14.334l39.418 50h14.333L599.619 0zm209.03 0h-14.333l39.417 50h14.333L808.649 0zm209.031 0h-14.33l39.41 50h14.34l-39.42-50z" fill="#2BD6FB"/><path d="M118.849 0h-14.334l39.417 50h14.334L118.849 0zm125.418 0h-14.334l39.418 50h14.333L244.267 0z" fill="#217AFF"/><path d="M453.297 0h-14.333l39.417 50h14.334L453.297 0zm209.031 0h-14.334l39.418 50h14.333L662.328 0zm209.03 0h-14.333l39.417 50h14.334L871.358 0z" fill="#2BD6FB"/><path d="M348.782 0h-14.333l39.417 50h14.333L348.782 0z" fill="#217AFF"/><path d="M557.813 0h-14.334l39.417 50h14.334L557.813 0zm209.03 0H752.51l39.417 50h14.333L766.843 0zm209.031 0H961.54l39.42 50h14.33L975.874 0z" fill="#2BD6FB"/></svg>