<svg xmlns="http://www.w3.org/2000/svg" width="1023" height="204" fill="none"><path d="M506.113 125.84c0 4.437.555 7.696 1.664 9.776 1.11 1.941 3.259 3.328 6.448 4.16 3.19.832 8.251 1.248 15.184 1.248.278 0 .416.416.416 1.248 0 .832-.138 1.248-.416 1.248-5.824 0-10.33-.07-13.52-.208l-17.888-.208-14.56.208c-2.634.138-6.17.208-10.608.208-.416 0-.624-.416-.624-1.248 0-.832.208-1.248.624-1.248 4.992 0 8.598-.347 10.816-1.04 2.358-.694 3.952-2.011 4.784-3.952.832-2.08 1.248-5.2 1.248-9.36V30.368c0-4.16-.416-7.211-1.248-9.152-.832-1.942-2.426-3.26-4.784-3.953-2.218-.832-5.824-1.248-10.816-1.248-.416 0-.624-.415-.624-1.248 0-.832.208-1.247.624-1.247l10.4.207c6.102.278 10.955.416 14.56.416 3.19 0 6.934-.208 11.232-.623 1.803-.14 4.507-.278 8.112-.416 3.606-.14 6.726-.208 9.36-.208 13.035 0 23.504 2.842 31.408 8.527 7.904 5.686 11.856 14.422 11.856 26.209 0 9.013-2.288 16.64-6.864 22.88-4.437 6.24-10.192 10.885-17.264 13.936-6.933 3.05-14.144 4.576-21.632 4.576-4.021 0-7.349-.347-9.984-1.04-.416 0-.624-.347-.624-1.04 0-.416.07-.832.208-1.249.278-.415.555-.554.832-.415 2.219.554 4.715.832 7.488.832 8.182 0 15.115-2.982 20.8-8.944 5.686-5.963 8.528-14.56 8.528-25.793 0-10.954-2.773-19.482-8.32-25.584-5.546-6.24-12.896-9.36-22.048-9.36-4.298 0-7.418.347-9.36 1.04-1.941.555-3.328 1.872-4.16 3.953-.832 1.94-1.248 5.06-1.248 9.36v95.056z" fill="#fff"/><path d="M611.132 11.232c15.254 0 27.803 2.98 37.648 8.944 9.846 5.824 16.987 13.589 21.424 23.296 4.576 9.567 6.864 20.037 6.864 31.407 0 14.283-3.258 26.833-9.776 37.649-6.517 10.677-15.253 18.928-26.208 24.752-10.816 5.824-22.533 8.736-35.152 8.736-6.101 0-12.688-.624-19.76-1.872-7.072-1.248-12.549-2.912-16.432-4.992-1.248-.555-2.01-1.11-2.288-1.664-.277-.555-.485-1.595-.624-3.12l-2.704-25.168c0-.416.347-.694 1.04-.832.832-.139 1.318.069 1.456.624 3.467 10.4 9.43 18.304 17.888 23.712 8.459 5.408 17.888 8.112 28.288 8.112 15.115 0 26.416-5.2 33.904-15.6 7.627-10.539 11.44-25.03 11.44-43.472v-3.329h-28.288c-8.736 0-15.253 1.595-19.552 4.784-4.298 3.19-6.448 8.182-6.448 14.977 0 .415-.416.623-1.248.623-.693 0-1.04-.208-1.04-.624l.208-21.007-.208-9.985c-.277-4.714-.416-8.389-.416-11.024 0-.416.416-.623 1.248-.623.832 0 1.248.207 1.248.623.139 5.547 2.427 9.846 6.864 12.896 4.438 3.051 11.024 4.576 19.76 4.576h27.664c-.832-11.925-3.328-22.325-7.488-31.2-4.16-9.013-9.637-15.877-16.432-20.591-6.794-4.854-14.49-7.28-23.088-7.28-9.152 0-17.541 2.773-25.168 8.32-7.488 5.546-13.728 13.936-18.72 25.168-.138.416-.554.623-1.248.623-.693-.138-1.04-.416-1.04-.831l2.912-24.96c.278-1.665.555-2.774.832-3.328.416-.555 1.179-1.11 2.288-1.665 13.174-4.437 26.624-6.655 40.352-6.655z" fill="#fff"/><path d="M784.256 13.52c.416 0 .624.415.624 1.248 0 .832-.208 1.247-.624 1.247-3.605 0-7.21 1.456-10.816 4.369-3.466 2.912-6.517 7.002-9.151 12.272l-39.521 81.328a366.64 366.64 0 00-8.528 19.344c-1.802 4.437-3.189 7.28-4.159 8.528-.832 1.109-2.288 1.664-4.368 1.664h-34.112c-.278 0-.416-.416-.416-1.248 0-.832.138-1.248.416-1.248 9.845 0 18.65-2.288 26.415-6.864 7.904-4.576 14.283-11.371 19.136-20.384L675.68 30.784c-2.634-5.547-5.2-9.36-7.696-11.44-2.496-2.22-5.824-3.329-9.984-3.329-.416 0-.624-.415-.624-1.248 0-.832.208-1.247.624-1.247l7.281.207c4.16.278 8.389.416 12.688.416 6.517 0 12.826-.138 18.927-.416 2.08-.138 4.646-.207 7.696-.207.278 0 .416.415.416 1.248 0 .832-.138 1.247-.416 1.247-4.298 0-7.557.486-9.776 1.456-2.08.971-3.12 2.635-3.12 4.992 0 1.665.624 3.744 1.872 6.24l34.737 66.56 30.784-63.232c1.248-2.773 1.872-5.06 1.872-6.863 0-6.102-5.27-9.152-15.809-9.152-.416 0-.623-.416-.623-1.248 0-.833.207-1.248.623-1.248l8.736.207c4.992.278 9.43.416 13.313.416 2.496 0 5.546-.138 9.151-.416l7.904-.207zm-10.183 132.288c-3.19 0-5.686-.902-7.488-2.704-1.803-1.803-2.704-4.299-2.704-7.488 0-3.051.901-5.408 2.704-7.072 1.802-1.803 4.298-2.704 7.488-2.704 3.189 0 5.616.901 7.28 2.704 1.802 1.664 2.704 4.021 2.704 7.072 0 3.189-.902 5.685-2.704 7.488-1.664 1.802-4.091 2.704-7.28 2.704zm52.035-19.968c0 4.437.555 7.696 1.664 9.776 1.11 1.941 3.259 3.328 6.448 4.16 3.19.832 8.251 1.248 15.184 1.248.278 0 .416.416.416 1.248 0 .832-.138 1.248-.416 1.248-5.824 0-10.33-.07-13.52-.208l-17.888-.208-14.56.208c-2.634.138-6.17.208-10.608.208-.416 0-.624-.416-.624-1.248 0-.832.208-1.248.624-1.248 4.992 0 8.598-.347 10.816-1.04 2.358-.694 3.952-2.011 4.784-3.952.832-2.08 1.248-5.2 1.248-9.36V30.368c0-4.16-.416-7.211-1.248-9.152-.832-1.942-2.426-3.26-4.784-3.953-2.218-.832-5.824-1.248-10.816-1.248-.416 0-.624-.415-.624-1.248 0-.832.208-1.247.624-1.247l10.4.207c6.102.278 10.955.416 14.56.416 3.19 0 6.934-.208 11.232-.623 1.803-.14 4.507-.278 8.112-.416 3.606-.14 6.726-.208 9.36-.208 13.035 0 23.504 2.842 31.408 8.527 7.904 5.686 11.856 14.422 11.856 26.209 0 9.013-2.288 16.64-6.864 22.88-4.437 6.24-10.192 10.885-17.264 13.936-6.933 3.05-14.144 4.576-21.632 4.576-4.021 0-7.349-.347-9.984-1.04-.416 0-.624-.347-.624-1.04 0-.416.07-.832.208-1.249.278-.415.555-.554.832-.415 2.219.554 4.715.832 7.488.832 8.182 0 15.115-2.982 20.8-8.944 5.686-5.963 8.528-14.56 8.528-25.793 0-10.954-2.773-19.482-8.32-25.584-5.546-6.24-12.896-9.36-22.048-9.36-4.298 0-7.418.347-9.36 1.04-1.941.555-3.328 1.872-4.16 3.953-.832 1.94-1.248 5.06-1.248 9.36v95.056z" fill="#fff"/><path d="M1022.44 77.376c0 8.874-2.64 17.125-7.9 24.752-5.27 7.488-12.69 13.728-22.261 18.72-9.429 4.853-20.245 7.834-32.448 8.944v2.288c0 3.189.486 5.685 1.456 7.488 1.11 1.664 3.19 2.981 6.24 3.952 3.19.832 7.835 1.248 13.936 1.248.416 0 .624.416.624 1.248 0 .832-.208 1.248-.624 1.248l-12.064-.208c-7.21-.278-13.312-.416-18.304-.416-4.437 0-10.261.138-17.472.416l-12.48.208c-.416 0-.624-.416-.624-1.248 0-.832.208-1.248.624-1.248 6.102 0 10.678-.416 13.728-1.248 3.19-.971 5.339-2.288 6.448-3.952 1.11-1.803 1.664-4.299 1.664-7.488v-1.872c-12.757-.555-23.85-3.19-33.28-7.904-9.29-4.715-16.362-10.886-21.216-18.512-4.853-7.627-7.28-16.017-7.28-25.168 0-10.123 2.774-18.928 8.32-26.416 5.686-7.489 13.174-13.382 22.464-17.68 9.43-4.3 19.76-7.003 30.992-8.112v-.832c0-3.883-.554-6.726-1.664-8.529-1.109-1.94-3.189-3.258-6.24-3.951-2.912-.694-7.557-1.04-13.936-1.04-.416 0-.624-.347-.624-1.04 0-.832.208-1.248.624-1.248 5.27 0 9.43.069 12.48.208l17.472.207 18.512-.207c2.912-.14 6.864-.208 11.856-.208.416 0 .624.415.624 1.248 0 .693-.208 1.04-.624 1.04-6.24 0-10.885.415-13.936 1.248-3.05.693-5.13 2.01-6.24 3.952-.97 1.94-1.456 4.853-1.456 8.736 13.174.554 24.475 3.328 33.904 8.32 9.425 4.853 16.575 11.093 21.425 18.72 4.85 7.626 7.28 15.738 7.28 24.336zm-18.93 1.04c0-14.144-3.743-25.584-11.231-34.32-7.349-8.875-18.165-14.006-32.448-15.392v98.384c13.59-1.526 24.267-6.448 32.032-14.768 7.766-8.459 11.647-19.76 11.647-33.904zM900.135 76.96c0 13.866 3.675 25.306 11.024 34.32 7.35 8.874 17.958 14.144 31.824 15.808V28.703c-13.866 1.526-24.474 6.518-31.824 14.976-7.349 8.32-11.024 19.414-11.024 33.28zM486.892 193.44c0 1.024.112 1.776.336 2.256.256.448.72.768 1.392.96.704.192 1.792.288 3.264.288.064 0 .096.096.096.288 0 .192-.032.288-.096.288-1.312 0-2.336-.016-3.072-.048l-4.176-.048-3.456.048c-.608.032-1.44.048-2.496.048-.096 0-.144-.096-.144-.288 0-.192.048-.288.144-.288 1.088 0 1.872-.08 2.352-.24.512-.16.848-.464 1.008-.912.192-.48.288-1.2.288-2.16v-22.224c0-.96-.096-1.664-.288-2.112-.16-.448-.496-.752-1.008-.912-.512-.192-1.296-.288-2.352-.288-.096 0-.144-.096-.144-.288 0-.192.048-.288.144-.288l2.496.048c1.408.064 2.544.096 3.408.096.736 0 1.632-.048 2.688-.144.384-.032.896-.064 1.536-.096a50.204 50.204 0 012.352-.048c3.168 0 5.664.672 7.488 2.016 1.856 1.344 2.784 3.408 2.784 6.192 0 2.016-.528 3.728-1.584 5.136-1.024 1.408-2.352 2.464-3.984 3.168a12.156 12.156 0 01-4.944 1.056c-.896 0-1.648-.08-2.256-.24-.096 0-.144-.08-.144-.24 0-.096.016-.192.048-.288.064-.096.128-.128.192-.096a6.92 6.92 0 001.68.192c1.664 0 3.072-.688 4.224-2.064 1.152-1.376 1.728-3.344 1.728-5.904 0-2.528-.592-4.48-1.776-5.856-1.184-1.408-2.816-2.112-4.896-2.112-.768 0-1.36.08-1.776.24-.384.16-.656.464-.816.912-.16.416-.24 1.088-.24 2.016v21.936zm27.398-26.448c3.584 0 6.528.688 8.832 2.064 2.336 1.344 4.032 3.136 5.088 5.376 1.088 2.208 1.632 4.624 1.632 7.248 0 3.264-.768 6.144-2.304 8.64a16.104 16.104 0 01-6.144 5.76c-2.528 1.344-5.264 2.016-8.208 2.016-1.376 0-2.896-.144-4.56-.432-1.664-.256-2.944-.592-3.84-1.008-.288-.128-.48-.256-.576-.384-.064-.128-.112-.368-.144-.72l-.624-6.288c0-.064.08-.112.24-.144.192-.032.304 0 .336.096.896 2.4 2.336 4.272 4.32 5.616 1.984 1.344 4.144 2.016 6.48 2.016 3.232 0 5.664-1.216 7.296-3.648 1.664-2.464 2.496-5.808 2.496-10.032v-.576h-6.096c-1.824 0-3.264.416-4.32 1.248-1.024.832-1.536 1.984-1.536 3.456 0 .064-.096.096-.288.096-.16 0-.24-.032-.24-.096l.048-4.896-.048-2.448a51.71 51.71 0 01-.096-2.688c0-.096.096-.144.288-.144.192 0 .288.048.288.144.032 1.248.576 2.24 1.632 2.976 1.088.736 2.544 1.104 4.368 1.104h5.952c-.16-2.72-.704-5.088-1.632-7.104-.896-2.048-2.096-3.616-3.6-4.704-1.472-1.12-3.152-1.68-5.04-1.68-2.048 0-3.952.672-5.712 2.016-1.728 1.312-3.216 3.312-4.464 6-.032.096-.128.144-.288.144-.16-.032-.24-.096-.24-.192l.72-6.144c.064-.384.128-.64.192-.768s.24-.256.528-.384c2.944-1.024 6.032-1.536 9.264-1.536zm44.84.528c.096 0 .144.096.144.288 0 .192-.048.288-.144.288-.896 0-1.792.384-2.688 1.152-.864.736-1.616 1.744-2.256 3.024l-8.928 18.432a44.027 44.027 0 00-1.968 4.704c-.32.864-.576 1.44-.768 1.728-.192.256-.48.384-.864.384h-8.496c-.096 0-.144-.096-.144-.288 0-.192.048-.288.144-.288 2.144 0 4.192-.576 6.144-1.728 1.984-1.152 3.52-2.688 4.608-4.608l-10.032-19.104c-.608-1.28-1.2-2.16-1.776-2.64-.576-.512-1.328-.768-2.256-.768-.096 0-.144-.096-.144-.288 0-.192.048-.288.144-.288l1.584.048c.96.064 2.064.096 3.312.096 1.888 0 3.568-.032 5.04-.096.416-.032.944-.048 1.584-.048.096 0 .144.096.144.288 0 .192-.048.288-.144.288-1.984 0-2.976.496-2.976 1.488 0 .384.144.864.432 1.44l7.488 14.592 6.528-13.392c.32-.608.48-1.184.48-1.728 0-.768-.304-1.36-.912-1.776-.608-.416-1.488-.624-2.64-.624-.064 0-.096-.096-.096-.288 0-.192.032-.288.096-.288l2.16.048c1.152.064 2.192.096 3.12.096.64 0 1.344-.032 2.112-.096l1.968-.048zm41.592 29.424c.096 0 .144.096.144.288 0 .192-.048.288-.144.288a57.94 57.94 0 01-2.64-.048l-3.504-.048-4.08.048c-.576.032-1.344.048-2.304.048-.096 0-.144-.096-.144-.288 0-.192.048-.288.144-.288 1.216 0 2.096-.08 2.64-.24.576-.16.944-.464 1.104-.912.192-.448.288-1.168.288-2.16v-18.72l-15.888 16.992v1.728c0 .96.096 1.68.288 2.16.192.448.56.752 1.104.912.576.16 1.472.24 2.688.24.064 0 .096.096.096.288 0 .192-.032.288-.096.288-1.088 0-1.936-.016-2.544-.048l-3.984-.048-3.504.048c-.608.032-1.456.048-2.544.048-.096 0-.144-.096-.144-.288 0-.192.048-.288.144-.288 1.152 0 1.984-.08 2.496-.24.544-.16.912-.464 1.104-.912.192-.48.288-1.2.288-2.16v-22.224c0-.96-.096-1.664-.288-2.112-.192-.448-.56-.752-1.104-.912-.512-.192-1.328-.288-2.448-.288-.064 0-.096-.096-.096-.288 0-.192.032-.288.096-.288l2.544.048a79.09 79.09 0 003.456.096c1.12 0 2.448-.032 3.984-.096l2.544-.048c.064 0 .096.096.096.288 0 .192-.032.288-.096.288-1.184 0-2.064.096-2.64.288-.544.192-.928.528-1.152 1.008-.192.448-.288 1.152-.288 2.112v18.576l15.888-16.944v-1.632c0-.96-.096-1.664-.288-2.112-.192-.48-.56-.816-1.104-1.008-.544-.192-1.424-.288-2.64-.288-.096 0-.144-.096-.144-.288 0-.192.048-.288.144-.288l2.304.048a99.26 99.26 0 004.08.096c.864 0 2.032-.032 3.504-.096l2.64-.048c.096 0 .144.096.144.288 0 .192-.048.288-.144.288-1.152 0-2 .096-2.544.288-.512.16-.864.464-1.056.912-.192.448-.288 1.152-.288 2.112v22.224c0 .96.096 1.68.288 2.16.192.448.544.752 1.056.912.544.16 1.392.24 2.544.24zm39.312 0c.064 0 .096.096.096.288 0 .192-.032.288-.096.288-1.088 0-1.936-.016-2.544-.048l-3.408-.048-3.456.048c-.576.032-1.376.048-2.4.048-.064 0-.096-.096-.096-.288 0-.192.032-.288.096-.288 1.056 0 1.824-.08 2.304-.24.512-.16.848-.464 1.008-.912.192-.48.256-1.2.192-2.16l-.96-20.256-10.224 23.808c-.064.128-.192.192-.384.192a.597.597 0 01-.432-.192l-12-23.712-.432 18.24c-.032 1.696.288 2.992.96 3.888.704.896 1.744 1.344 3.12 1.344.096 0 .144.096.144.288 0 .192-.048.288-.144.288-.864 0-1.536-.016-2.016-.048l-2.64-.048-2.832.048c-.48.032-1.152.048-2.016.048-.096 0-.144-.096-.144-.288 0-.192.048-.288.144-.288 1.312 0 2.32-.448 3.024-1.344.736-.928 1.12-2.224 1.152-3.888l.432-20.688c-1.056-1.952-2.48-2.928-4.272-2.928-.096 0-.144-.096-.144-.288 0-.192.048-.288.144-.288l2.064.048c.416.032.96.048 1.632.048l2.256-.048a7.96 7.96 0 01.96-.048c.416 0 .752.16 1.008.48.256.288.656.96 1.2 2.016l10.56 20.592 9.552-21.888c.192-.448.4-.752.624-.912.224-.192.512-.288.864-.288.224 0 .512.016.864.048s.768.048 1.248.048l2.64-.048a25.72 25.72 0 011.824-.048c.064 0 .096.096.096.288 0 .192-.032.288-.096.288-1.536 0-2.656.288-3.36.864-.672.544-.976 1.456-.912 2.736l1.104 21.936c.064.992.176 1.712.336 2.16.192.448.528.752 1.008.912.48.16 1.264.24 2.352.24zm4.157 1.104c-.8 0-1.44-.24-1.92-.72s-.72-1.12-.72-1.92c0-.768.24-1.376.72-1.824.48-.448 1.12-.672 1.92-.672.8 0 1.424.224 1.872.672.48.448.72 1.056.72 1.824 0 .832-.24 1.488-.72 1.968-.448.448-1.072.672-1.872.672zm14.039-.528c-.096 0-.144-.096-.144-.288 0-.192.048-.288.144-.288 1.152 0 1.984-.08 2.496-.24.544-.16.912-.464 1.104-.912.192-.48.288-1.2.288-2.16v-22.224c0-.96-.096-1.664-.288-2.112-.16-.448-.496-.752-1.008-.912-.512-.192-1.296-.288-2.352-.288-.096 0-.144-.096-.144-.288 0-.192.048-.288.144-.288h20.688c.32 0 .48.144.48.432l.096 7.488c0 .064-.096.112-.288.144-.16 0-.256-.048-.288-.144-.8-4.448-3.168-6.672-7.104-6.672h-2.208c-1.152 0-1.968.208-2.448.624-.48.416-.72 1.104-.72 2.064v21.984c0 1.024.128 1.776.384 2.256.256.448.752.768 1.488.96.768.192 1.936.288 3.504.288.064 0 .096.096.096.288 0 .192-.032.288-.096.288-1.28 0-2.288-.016-3.024-.048l-4.752-.048-3.504.048c-.608.032-1.456.048-2.544.048zm22.951.528c-.8 0-1.44-.24-1.92-.72s-.72-1.12-.72-1.92c0-.768.24-1.376.72-1.824.48-.448 1.12-.672 1.92-.672.8 0 1.424.224 1.872.672.48.448.72 1.056.72 1.824 0 .832-.24 1.488-.72 1.968-.448.448-1.072.672-1.872.672zm29.111-17.376c2.624.288 4.72 1.168 6.288 2.64 1.568 1.472 2.352 3.296 2.352 5.472a7.98 7.98 0 01-1.392 4.56c-.896 1.344-2.16 2.416-3.792 3.216-1.6.768-3.392 1.152-5.376 1.152-.928 0-2-.048-3.216-.144a61.257 61.257 0 00-1.584-.096c-.64-.032-1.36-.048-2.16-.048l-3.408.048c-.608.032-1.456.048-2.544.048-.096 0-.144-.096-.144-.288 0-.192.048-.288.144-.288 1.024 0 1.792-.08 2.304-.24.512-.192.864-.512 1.056-.96.224-.448.336-1.152.336-2.112v-22.224c0-.928-.112-1.616-.336-2.064-.192-.48-.544-.8-1.056-.96-.48-.192-1.232-.288-2.256-.288-.064 0-.096-.096-.096-.288 0-.192.032-.288.096-.288l2.496.048c1.408.064 2.544.096 3.408.096.896 0 1.84-.048 2.832-.144.352-.032.768-.064 1.248-.096a27.948 27.948 0 011.728-.048c2.816 0 4.976.56 6.48 1.68 1.536 1.088 2.304 2.608 2.304 4.56 0 1.536-.496 2.928-1.488 4.176-.992 1.216-2.4 2.176-4.224 2.88zm-3.888-12.336c-1.024 0-1.728.208-2.112.624-.352.416-.528 1.264-.528 2.544v9.12l2.016.048c1.888 0 3.312-.608 4.272-1.824.96-1.248 1.44-2.848 1.44-4.8 0-1.824-.432-3.232-1.296-4.224-.864-.992-2.128-1.488-3.792-1.488zm1.152 28.272c4.352 0 6.528-2.224 6.528-6.672 0-2.432-.64-4.384-1.92-5.856-1.248-1.472-3.088-2.208-5.52-2.208-1.152 0-2.112.032-2.88.096v11.664c0 .736.08 1.312.24 1.728.192.416.56.736 1.104.96.544.192 1.36.288 2.448.288zm16.896 1.44c-.8 0-1.44-.24-1.92-.72s-.72-1.12-.72-1.92c0-.768.24-1.376.72-1.824.48-.448 1.12-.672 1.92-.672.8 0 1.424.224 1.872.672.48.448.72 1.056.72 1.824 0 .832-.24 1.488-.72 1.968-.448.448-1.072.672-1.872.672zm46.583-1.104c.064 0 .096.096.096.288 0 .192-.032.288-.096.288-1.088 0-1.936-.016-2.544-.048l-3.456-.048-3.792.048c-.608.032-1.472.048-2.592.048-.064 0-.096-.096-.096-.288 0-.192.032-.288.096-.288 1.152 0 1.984-.08 2.496-.24.544-.16.912-.464 1.104-.912.192-.48.288-1.2.288-2.16V171.84c0-1.088-.048-1.808-.144-2.16a.9.9 0 00-.672-.672c-.352-.096-1.04-.144-2.064-.144h-9.84c-1.088 0-1.824.048-2.208.144a.925.925 0 00-.72.72c-.096.352-.144 1.056-.144 2.112v21.792c0 .96.096 1.68.288 2.16.192.448.544.752 1.056.912.512.16 1.344.24 2.496.24.096 0 .144.096.144.288 0 .192-.048.288-.144.288a54.68 54.68 0 01-2.592-.048l-3.792-.048-3.408.048c-.608.032-1.456.048-2.544.048-.096 0-.144-.096-.144-.288 0-.192.048-.288.144-.288 1.152 0 1.984-.08 2.496-.24.544-.16.912-.464 1.104-.912.192-.48.288-1.2.288-2.16v-21.648c0-1.44-.256-2.448-.768-3.024-.48-.576-1.504-.864-3.072-.864-.064 0-.096-.096-.096-.288 0-.192.032-.288.096-.288 1.088 0 2.144.016 3.168.048a895 895 0 0013.344.096c4.128 0 8.976-.048 14.544-.144h1.68c.064 0 .096.096.096.288 0 .192-.032.288-.096.288-1.12 0-1.968.128-2.544.384-.544.256-.912.656-1.104 1.2-.192.544-.288 1.312-.288 2.304v21.648c0 .96.096 1.68.288 2.16.192.448.56.752 1.104.912.544.16 1.392.24 2.544.24zm2.883 1.152c-.832 0-1.504-.192-2.016-.576-.48-.352-.72-.896-.72-1.632 0-.704.208-1.216.624-1.536.448-.32 1.008-.48 1.68-.48h1.008c2.496 0 4.256-1.84 5.28-5.52 1.024-3.712 1.536-7.888 1.536-12.528 0-2.016-.144-3.552-.432-4.608-.256-1.088-.768-1.872-1.536-2.352-.768-.512-1.904-.768-3.408-.768-.096 0-.144-.096-.144-.288 0-.192.048-.288.144-.288h25.488c.064 0 .096.096.096.288 0 .192-.032.288-.096.288-1.152 0-2 .096-2.544.288-.544.16-.912.464-1.104.912-.192.448-.288 1.152-.288 2.112v22.224c0 .96.096 1.68.288 2.16.192.448.56.752 1.104.912.544.16 1.392.24 2.544.24.064 0 .096.096.096.288 0 .192-.032.288-.096.288-1.088 0-1.936-.016-2.544-.048l-3.456-.048-3.792.048c-.608.032-1.472.048-2.592.048-.064 0-.096-.096-.096-.288 0-.192.032-.288.096-.288 1.152 0 1.984-.08 2.496-.24.544-.16.912-.464 1.104-.912.192-.48.288-1.2.288-2.16V171.84c0-1.088-.048-1.808-.144-2.16a.9.9 0 00-.672-.672c-.352-.096-1.04-.144-2.064-.144h-4.56c-.896 0-1.552.08-1.968.24-.384.128-.64.384-.768.768-.096.352-.144.976-.144 1.872 0 4.608-.16 8.752-.48 12.432-.32 3.648-1.12 6.88-2.4 9.696-1.28 2.816-3.216 4.224-5.808 4.224zm50.632-8.064c0-.032.064-.048.192-.048.256 0 .384.048.384.144-.32 2.432-.48 4.656-.48 6.672 0 .256-.048.448-.144.576-.096.096-.288.144-.576.144h-20.832c-.096 0-.144-.096-.144-.288 0-.192.048-.288.144-.288 1.088 0 1.872-.08 2.352-.24.512-.16.848-.464 1.008-.912.192-.48.288-1.2.288-2.16v-22.224c0-.96-.096-1.664-.288-2.112-.16-.448-.496-.752-1.008-.912-.512-.192-1.296-.288-2.352-.288-.096 0-.144-.096-.144-.288 0-.192.048-.288.144-.288h20.016c.288 0 .432.144.432.432l.096 6.24c0 .064-.096.112-.288.144-.16 0-.24-.032-.24-.096-.8-3.648-3.04-5.472-6.72-5.472h-1.92c-1.184 0-2.016.208-2.496.624-.448.416-.672 1.136-.672 2.16v9.744h4.656c3.488 0 5.232-1.184 5.232-3.552 0-.096.096-.144.288-.144.192 0 .288.048.288.144l-.048 2.64c-.032.352-.048.864-.048 1.536l.048 2.256c.064 1.024.096 1.84.096 2.448 0 .096-.096.144-.288.144-.192 0-.288-.048-.288-.144 0-1.344-.448-2.352-1.344-3.024-.896-.704-2.24-1.056-4.032-1.056h-4.56v10.896c0 1.056.192 1.792.576 2.208.416.416 1.136.624 2.16.624h2.352c4.288 0 7.008-2.08 8.16-6.24zm31.626 6.912c.096 0 .144.096.144.288 0 .192-.048.288-.144.288-.896 0-1.584-.016-2.064-.048l-2.832-.048-3.888.048c-.576.032-1.392.048-2.448.048-.096 0-.144-.096-.144-.288 0-.192.048-.288.144-.288 1.248 0 1.872-.272 1.872-.816 0-.288-.144-.64-.432-1.056l-6.816-10.464-4.8 6.768c-1.088 1.504-1.632 2.752-1.632 3.744 0 1.216.864 1.824 2.592 1.824.096 0 .144.096.144.288 0 .192-.048.288-.144.288-1.024 0-1.792-.016-2.304-.048l-3.456-.048-2.208.048c-.416.032-1.056.048-1.92.048-.096 0-.144-.096-.144-.288 0-.192.048-.288.144-.288 1.024 0 2.192-.464 3.504-1.392 1.344-.96 2.72-2.416 4.128-4.368l5.52-7.488-7.728-11.904c-.896-1.344-1.744-2.288-2.544-2.832a4.212 4.212 0 00-2.592-.864c-.096 0-.144-.096-.144-.288 0-.192.048-.288.144-.288l1.968.048c.896.064 1.552.096 1.968.096 1.056 0 2.416-.032 4.08-.096l2.688-.048c.064 0 .096.096.096.288 0 .192-.032.288-.096.288-.64 0-1.12.064-1.44.192-.32.096-.48.304-.48.624 0 .256.144.624.432 1.104l6.576 10.08 4.464-6.336c1.12-1.6 1.68-2.88 1.68-3.84 0-.576-.224-1.024-.672-1.344-.416-.32-1.056-.48-1.92-.48-.064 0-.096-.096-.096-.288 0-.192.032-.288.096-.288l2.304.048c1.28.064 2.448.096 3.504.096.608 0 1.328-.032 2.16-.096l1.968-.048c.064 0 .096.096.096.288 0 .192-.032.288-.096.288-1.024 0-2.208.496-3.552 1.488-1.344.96-2.736 2.432-4.176 4.416l-5.184 7.008 8.16 12.528c.8 1.216 1.632 2.096 2.496 2.64.864.512 1.872.768 3.024.768z" fill="#fff"/><path d="M888.741 196.944c.16 0 .24.096.24.288 0 .192-.08.288-.24.288-.608 0-1.584-.032-2.928-.096a69.241 69.241 0 00-2.928-.096c-.8 0-1.744.032-2.832.096a46.173 46.173 0 01-2.544.096c-.128 0-.192-.096-.192-.288 0-.192.064-.288.192-.288.928 0 1.6-.096 2.016-.288.448-.224.672-.576.672-1.056 0-.48-.272-1.296-.816-2.448l-5.184-10.512h-8.688l-3.696 8.304c-.416.96-.624 1.824-.624 2.592 0 1.12.4 1.968 1.2 2.544.8.576 1.92.864 3.36.864.16 0 .24.096.24.288 0 .192-.08.288-.24.288a40.95 40.95 0 01-2.4-.096 62.758 62.758 0 00-3.264-.096c-.864 0-1.872.032-3.024.096a42.173 42.173 0 01-2.544.096c-.16 0-.24-.096-.24-.288 0-.192.08-.288.24-.288.896 0 1.648-.176 2.256-.528.608-.352 1.2-.976 1.776-1.872.608-.928 1.312-2.288 2.112-4.08l10.272-23.232c.064-.096.208-.144.432-.144s.352.048.384.144l11.712 23.712c1.152 2.304 2.096 3.888 2.832 4.752.768.832 1.584 1.248 2.448 1.248zm-15.168-15.552l-3.936-8.016-3.6 8.016h7.536z" fill="#fff"/><path d="M921.81 196.944c.096 0 .144.096.144.288 0 .192-.048.288-.144.288a54.68 54.68 0 01-2.592-.048l-3.6-.048-3.984.048a47.73 47.73 0 01-2.4.048c-.064 0-.096-.096-.096-.288 0-.192.032-.288.096-.288 1.216 0 2.096-.08 2.64-.24.576-.16.96-.464 1.152-.912.192-.448.288-1.168.288-2.16v-11.088H896.85v11.088c0 .96.096 1.68.288 2.16.192.448.56.752 1.104.912.576.16 1.472.24 2.688.24.064 0 .096.096.096.288 0 .192-.032.288-.096.288-1.088 0-1.936-.016-2.544-.048l-3.984-.048-3.504.048c-.608.032-1.456.048-2.544.048-.096 0-.144-.096-.144-.288 0-.192.048-.288.144-.288 1.152 0 1.984-.08 2.496-.24.544-.16.912-.464 1.104-.912.192-.48.288-1.2.288-2.16v-22.224c0-.96-.096-1.664-.288-2.112-.192-.448-.56-.752-1.104-.912-.512-.192-1.328-.288-2.448-.288-.064 0-.096-.096-.096-.288 0-.192.032-.288.096-.288l2.544.048a79.09 79.09 0 003.456.096c1.12 0 2.448-.032 3.984-.096l2.544-.048c.064 0 .096.096.096.288 0 .192-.032.288-.096.288-1.184 0-2.064.096-2.64.288-.544.192-.928.528-1.152 1.008-.192.448-.288 1.152-.288 2.112v9.792h16.464v-9.792c0-.96-.096-1.664-.288-2.112-.192-.48-.576-.816-1.152-1.008-.544-.192-1.424-.288-2.64-.288-.064 0-.096-.096-.096-.288 0-.192.032-.288.096-.288l2.4.048c1.472.064 2.8.096 3.984.096.864 0 2.064-.032 3.6-.096l2.592-.048c.096 0 .144.096.144.288 0 .192-.048.288-.144.288-1.152 0-2 .096-2.544.288-.512.16-.864.464-1.056.912-.192.448-.288 1.152-.288 2.112v22.224c0 .96.096 1.68.288 2.16.192.448.544.752 1.056.912.544.16 1.392.24 2.544.24zm17.219 1.152c-2.976 0-5.632-.688-7.968-2.064a14.745 14.745 0 01-5.376-5.664c-1.248-2.4-1.872-5.008-1.872-7.824 0-3.296.832-6.112 2.496-8.448 1.664-2.368 3.792-4.144 6.384-5.328 2.624-1.184 5.296-1.776 8.016-1.776 3.04 0 5.712.72 8.016 2.16 2.304 1.408 4.064 3.28 5.28 5.616a15.561 15.561 0 011.872 7.44c0 2.912-.768 5.584-2.304 8.016-1.536 2.432-3.6 4.352-6.192 5.76-2.56 1.408-5.344 2.112-8.352 2.112zm1.632-1.152c1.92 0 3.632-.512 5.136-1.536 1.536-1.056 2.736-2.592 3.6-4.608.896-2.016 1.344-4.416 1.344-7.2 0-2.944-.496-5.584-1.488-7.92-.96-2.336-2.352-4.16-4.176-5.472-1.792-1.344-3.888-2.016-6.288-2.016-3.136 0-5.568 1.12-7.296 3.36-1.696 2.24-2.544 5.328-2.544 9.264 0 3.04.496 5.792 1.488 8.256 1.024 2.464 2.416 4.4 4.176 5.808 1.792 1.376 3.808 2.064 6.048 2.064zm32.478-16.272c2.624.288 4.72 1.168 6.288 2.64 1.568 1.472 2.352 3.296 2.352 5.472a7.98 7.98 0 01-1.392 4.56c-.896 1.344-2.16 2.416-3.792 3.216-1.6.768-3.392 1.152-5.376 1.152-.928 0-2-.048-3.216-.144a61.257 61.257 0 00-1.584-.096c-.64-.032-1.36-.048-2.16-.048l-3.408.048c-.608.032-1.456.048-2.544.048-.096 0-.144-.096-.144-.288 0-.192.048-.288.144-.288 1.024 0 1.792-.08 2.304-.24.512-.192.864-.512 1.056-.96.224-.448.336-1.152.336-2.112v-22.224c0-.928-.112-1.616-.336-2.064-.192-.48-.544-.8-1.056-.96-.48-.192-1.232-.288-2.256-.288-.064 0-.096-.096-.096-.288 0-.192.032-.288.096-.288l2.496.048c1.408.064 2.544.096 3.408.096.896 0 1.84-.048 2.832-.144.352-.032.768-.064 1.248-.096a27.948 27.948 0 011.728-.048c2.816 0 4.976.56 6.48 1.68 1.536 1.088 2.304 2.608 2.304 4.56 0 1.536-.496 2.928-1.488 4.176-.992 1.216-2.4 2.176-4.224 2.88zm-3.888-12.336c-1.024 0-1.728.208-2.112.624-.352.416-.528 1.264-.528 2.544v9.12l2.016.048c1.888 0 3.312-.608 4.272-1.824.96-1.248 1.44-2.848 1.44-4.8 0-1.824-.432-3.232-1.296-4.224-.864-.992-2.128-1.488-3.792-1.488zm1.152 28.272c4.352 0 6.528-2.224 6.528-6.672 0-2.432-.64-4.384-1.92-5.856-1.248-1.472-3.088-2.208-5.52-2.208-1.152 0-2.112.032-2.88.096v11.664c0 .736.08 1.312.24 1.728.192.416.56.736 1.104.96.544.192 1.36.288 2.448.288zm46.077.336c.16 0 .24.096.24.288 0 .192-.08.288-.24.288-.6 0-1.58-.032-2.92-.096a69.511 69.511 0 00-2.93-.096c-.8 0-1.75.032-2.83.096-1.09.064-1.94.096-2.55.096-.13 0-.19-.096-.19-.288 0-.192.06-.288.19-.288.93 0 1.6-.096 2.02-.288.45-.224.67-.576.67-1.056 0-.48-.27-1.296-.82-2.448l-5.18-10.512h-8.689l-3.696 8.304c-.416.96-.624 1.824-.624 2.592 0 1.12.4 1.968 1.2 2.544.8.576 1.92.864 3.36.864.16 0 .24.096.24.288 0 .192-.08.288-.24.288a40.95 40.95 0 01-2.4-.096 62.758 62.758 0 00-3.264-.096c-.864 0-1.872.032-3.024.096a42.173 42.173 0 01-2.544.096c-.16 0-.24-.096-.24-.288 0-.192.08-.288.24-.288.896 0 1.648-.176 2.256-.528.608-.352 1.2-.976 1.776-1.872.608-.928 1.312-2.288 2.112-4.08l10.272-23.232c.064-.096.208-.144.432-.144s.352.048.384.144l11.709 23.712c1.16 2.304 2.1 3.888 2.84 4.752.76.832 1.58 1.248 2.44 1.248zm-15.16-15.552l-3.941-8.016-3.6 8.016h7.541z" fill="#fff"/><path fill-rule="evenodd" clip-rule="evenodd" d="M333.004 82.08c3.312 0 5.904.864 7.776 2.544 1.872 1.68 2.783 4.032 2.784 6.96 0 .768-.096 1.297-.24 1.633-.144.336-.48.48-.912.48l-23.808.095a28.43 28.43 0 00-.48 5.28c0 5.616 1.344 10.225 4.08 13.729 2.736 3.504 6.432 5.279 11.184 5.279 3.792 0 7.104-1.104 9.984-3.264h.144s.384.096.528.336c.144.24.192.432 0 .624-4.224 3.6-8.784 5.376-13.728 5.376-3.696 0-6.912-.863-9.6-2.591-2.688-1.728-4.704-3.985-6.048-6.769-1.344-2.784-2.016-5.808-2.016-9.071 0-3.84.912-7.344 2.688-10.464 1.776-3.12 4.224-5.617 7.344-7.44 3.12-1.825 6.528-2.737 10.32-2.737zM329.788 84c-2.832 0-5.136.769-6.96 2.257-1.824 1.488-3.12 3.647-3.888 6.48l18.912-.48c0-2.64-.72-4.657-2.208-6.097-1.488-1.44-3.408-2.16-5.856-2.16z" fill="#fff"/><path d="M297.244 82.944h18.528s.192.192.192.576c0 .385-.048.577-.192.577-1.872 0-3.216.192-4.08.576-.864.384-1.44 1.056-1.776 1.968-.336.912-.48 2.351-.48 4.271v21.313c0 1.919.144 3.359.48 4.271.336.912.912 1.536 1.776 1.872.864.336 2.208.481 4.08.481.144 0 .192.192.192.576 0 .384-.048.575-.192.575-1.584 0-2.832 0-3.744-.096l-4.704-.095-5.088.095c-.912.048-2.112.096-3.648.096-.192 0-.288-.191-.288-.575 0-.384.096-.576.288-.576 1.872 0 3.216-.145 4.08-.481.864-.336 1.44-.96 1.776-1.872.336-.912.48-2.352.48-4.271V90.721c0-2.16-.096-3.6-.24-4.32-.144-.72-.528-1.152-1.104-1.344-.576-.192-1.776-.288-3.648-.288h-3.84c-1.872 0-3.168.143-3.936.383-.768.24-1.248.769-1.488 1.537-.24.768-.336 2.016-.336 3.744 0 5.76-.192 10.704-.624 14.832-.432 4.127-1.44 7.775-3.12 10.895-1.68 3.12-4.272 4.704-7.776 4.704-.912 0-1.632-.24-2.256-.672-.624-.432-.912-1.152-.912-2.112 0-1.008.337-1.68 1.008-2.016.672-.335 1.584-.48 2.736-.48 2.496 0 4.368-1.055 5.664-3.119 1.296-2.064 2.112-4.753 2.448-7.969.336-3.216.528-7.296.528-12.143 0-2.352-.192-4.129-.576-5.329-.384-1.2-1.104-2.016-2.16-2.496s-2.592-.72-4.656-.72c-.192 0-.288-.192-.288-.528 0-.335.096-.527.288-.527l16.608.191zm82.176-.095c.384 0 .624 0 .672.143.048.096.096.337.096.72 0 1.105-.048 2.929-.192 5.473l-.192 6.24c-.008.008-.201.191-.576.191-.384 0-.575-.047-.576-.191 0-4.176-.624-7.056-1.824-8.736-1.2-1.68-3.408-2.497-6.528-2.497-2.112 0-3.504.432-4.128 1.296-.624.864-.96 2.688-.96 5.424v21.313c0 1.919.144 3.359.432 4.271.288.912.864 1.536 1.728 1.872.864.336 2.208.481 4.08.481.192 0 .288.192.288.576 0 .383-.096.575-.288.575-1.536 0-2.736 0-3.648-.096l-4.8-.095-4.8.095c-.96.048-2.256.096-3.936.096-.144 0-.192-.192-.192-.575 0-.384.048-.576.192-.576 1.92 0 3.312-.145 4.176-.481.864-.336 1.44-.96 1.776-1.872.336-.912.48-2.352.48-4.271V90.912c0-1.872-.144-3.264-.384-4.176-.239-.912-.768-1.583-1.488-1.967-.72-.384-1.824-.577-3.312-.577-3.072 0-5.232.817-6.48 2.497-1.248 1.68-1.872 4.56-1.872 8.736 0 .144-.192.191-.528.191s-.527-.047-.528-.191l-.192-5.76c-.048-.72-.144-1.537-.192-2.545a68.782 68.782 0 01-.096-3.407c0-.384 0-.625.096-.72.048-.097.288-.144.672-.144 1.344 0 2.544 0 3.552.095l12.768.096 12.96-.096a84.215 84.215 0 013.744-.095z" fill="#fff"/><path fill-rule="evenodd" clip-rule="evenodd" d="M112.156 0c.96 0 1.824.24 2.64.72.816.48 1.056.864.72 1.2-.336 1.296-.48 2.88-.48 4.8 0 5.136 2.4 7.68 7.2 7.68 2.88 0 7.68-1.104 14.4-3.36 4.8-1.296 10.224-2.544 16.32-3.84 6.096-1.296 12-1.92 17.76-1.92 15.984 0 28.704 4.416 38.16 13.2 9.456 8.784 14.16 20.4 14.16 34.8 0 10.896-3.264 21.792-9.84 32.64-6.576 10.896-17.184 23.184-31.92 36.96s-35.184 30.72-61.44 50.88c-1.296.96-1.68 1.776-1.2 2.4.48.624 1.536.96 3.12.96 37.44 0 63.12-.576 77.04-1.68 13.92-1.104 23.76-3.84 29.52-8.16 5.101-3.825 8.957-10.363 11.541-19.576-6.114-13.532-9.189-28.516-9.189-44.984 0-19.2 4.177-35.664 12.481-50.4 8.304-14.736 19.919-26.256 34.799-34.56 14.88-8.304 31.776-12.48 50.64-12.48s35.04 4.224 49.44 12.72c14.4 8.496 25.68 20.256 33.84 35.28 8.16 15.024 12.24 32.016 12.24 50.88 0 18.864-4.08 35.856-12.24 50.88-8.16 15.024-19.536 26.784-34.08 35.28-14.544 8.496-31.104 12.72-49.68 12.72-18.575 0-35.28-4.32-50.16-12.96-13.948-8.099-25.028-19.067-33.201-32.941l-4.911 34.381c0 1.296-.384 2.496-1.2 3.6s-1.824 1.68-3.12 1.68h-146.4c-.747 0-1.43-.209-2.06-.633l-23.86-.327-34.08.48c-6.096.336-14.544.48-25.44.48-.624 0-.96-.96-.96-2.88s.336-2.88.96-2.88c14.064 0 24.384-.864 30.96-2.64 6.576-1.776 11.136-4.896 13.68-9.36 2.544-4.464 3.84-11.52 3.84-21.12V67.68c0-13.104-.816-22.177-2.4-27.12-1.584-4.944-4.944-7.44-10.08-7.44-6.384 0-18.384 4.176-36 12.48l-.96.48c-.96 0-1.776-.816-2.4-2.4-.623-1.584-.336-2.544.96-2.88l68.64-33.6c.336-.336.817-.48 1.44-.48.96 0 1.776.384 2.4 1.2.624.816.96 1.68.96 2.64v147.36c0 9.936 1.104 17.136 3.36 21.6 2 4.041 5.808 6.941 11.39 8.629 26.687-20.816 47.626-38.424 62.77-52.789 15.84-15.024 27.36-28.656 34.56-40.8 7.2-12.144 10.8-24.145 10.8-36 0-13.44-4.176-24.096-12.48-31.92-8.304-7.824-18.864-11.76-31.679-11.76-12.816 0-24.001 4.896-33.601 14.64-9.6 9.744-16.944 24.24-22.08 43.44 0 .336-.624.48-1.92.48-2.88 0-4.176-.624-3.84-1.92L110.236.96c0-.624.624-.96 1.92-.96zm211.152 11.04c-20.496 0-35.904 8.16-47.28 24.48-11.376 16.32-17.04 37.44-17.04 63.36 0 18.576 3.024 35.376 9.12 50.4 6.096 15.024 14.737 26.784 25.92 35.28 11.184 8.496 24.336 12.72 39.36 12.72 20.496 0 35.904-7.824 46.32-23.52 10.416-15.696 15.6-36.96 15.6-63.84 0-32.016-6.864-56.496-20.64-73.44-13.776-16.943-30.864-25.44-51.36-25.44z" fill="#fff"/></svg>