<svg width="596" height="596" fill="none" xmlns="http://www.w3.org/2000/svg"><path d="M141.1 159.34a209.62 209.62 0 00-42.95 201.312l80.312-25.112a125.463 125.463 0 0125.709-120.498L141.1 159.34z" fill="#6C38FF"/><path d="M170.439 106.825a229.955 229.955 0 00-44.445 38.789l78.241 69.265a125.411 125.411 0 0124.246-21.161l-58.042-86.893z" fill="#4CD382"/><path d="M279.692 81.547a217.22 217.22 0 00-102.466 35.897l51.109 76.408a125.3 125.3 0 0159.105-20.705l-7.748-91.6z" fill="#FB9B2B"/><path d="M120.636 353.294A185.798 185.798 0 00371.311 468.65a185.798 185.798 0 0088.947-261.215 185.799 185.799 0 00-172.27-95.028l3.255 60.368A125.34 125.34 0 11178.346 335.28l-57.71 18.014z" fill="#217AFF"/><path d="M287.217 102.987c-2.065.117-4.129.267-6.19.449l6.167 69.745c1.323-.117 2.648-.213 3.973-.288l-3.95-69.906z" fill="#FD6A6A"/></svg>