<svg xmlns="http://www.w3.org/2000/svg" width="800" height="400"><style>.st1{stroke-miterlimit:10;fill:RGBA(0,156,255,.07);stroke:RGBA(0,156,255,.9);stroke-width:.4}</style><path id="SEA" opacity=".2" d="M-1-1h802v402H-1z"/><path class="st1" d="M802.4 56.2c-3 1-6 1.1-8.2.2.2.9.5 1.5 1.5 1.4.9-.1 1.5.2 1.7 1.2.2 1 1.6 1.3 1.9 2.3-.5.9-1.3.8-2.1.6-.9-.2-1.8-.1-2.7-.5-.2-.1-.4-.2-.5-.1-4 2.1-8.7 2.2-12.6 4.6-.9.5-2.1.3-2.4 1.8-3.1-2.9-5.9-1.4-8.9-.3-.1-.1-.2-.2-.2-.4s0-.4-.1-.7c-1.1.3-2.1.7-2.8 1.5-2-1-2.3-.9-3.7 1.1-.4.5-.9 1.1-1.5 1.4-.5.3-1.2.6-1.1 1.4.7.8 1.8 0 2.7.7-.5.7-2 1.6 0 2.3.3.1.4.5.2.8-.2.5-.8.7-1.1.4-1.2-.9-1.6.3-2.2.8-.8.8.1 1.4.6 1.9-.4.9-1.1.8-1.8.8-.6 0-1.3-.1-1.9.2-.9.5-1.8 1-.8 2.3-.8.2-1.5.4-2.2.6-.4.1-.9.2-1 .8-.3 2.3-2.3 2.7-4 3.9-1.1-3.2-2.3-6.1-2.7-9.2-.2-1.6.4-2.7 1.6-4.1 1.6-1.7 3.6-2 5.4-3.1 2.2-1.4 4.4-2.7 6.6-4.1.8-.5 1.5-.9 2.4-1.1 1.2-.3 2.1-.8 2.4-2.1.2-.8.4-2 1.9-1.9-1.7-.3-3.1-.4-4.2 1.3-.5.8-1.9 1-2.8 1.5l-2.7 1.2c-.5-.8-1.6-1.3-.3-2.5-1.8.5-3.4-.5-5-.1-1.3.3-2.6.4-3.6 1.5-.8.8-1.8 1.6-3.1 1.9-.8.2-1.4.7-1.8 1.4.3.9 1.2.3 1.8.9-2.7.8-5.5.3-8.2 1.1 0-1 .9-.5 1-1.1-.1-.5-.7-.6-1-.6-1.3.1-2.6.1-3.8-.5-.2-.1-.5 0-.6.1-1.7 1.6-3.8.6-5.7.7-.8 0-1.3.5-1.9.6-3-.8-5.9-1.1-8.7.4-4.9 2.7-9.4 6.2-14.5 8.5-.3.1-.6.2-.7.8.9 1 2.1.1 3.1.3.6.5-.3 1.1.2 1.8.6.2 1.5-.7 2.2.4.2.3 1.2.1 1.8-.3 1.4-1.2 2.9-1.2 4.3-.1 1.1.9 1.3 1.3 2.3 3.9-1.3 1.3-2.1 2.8-1.9 4.8.1 1.6-.4 3.2-2.1 4.1-.8.4-1.2 1.4-1.7 2.1-1.5 2-3.5 3.7-5.4 5.3-1.7 1.5-3.1 3.5-5.6 4.1-1 .2-1.9.3-2.8-.2-1.1-.6-2.2-.4-3.1.4-.7.6-1.5 1.1-2.2 1.6-.3.2-.7.5-.8.9-.2 2.4-2.1 3-3.9 3.7-.6.2-1.1.5-1.3 1.1-.2.8.4 1 .9 1.3 2.3 1.6 3.5 3.9 3.6 6.7 0 .8-.5 1.6-1.3 1.7-1.8.4-3.6.7-5.4 1.8-.2-1.2-.5-2.1.1-3.1.5-.8-.3-1.7-.7-2.4.1-.7 1-.2 1.2-.7-.4-1.4-1.8-1.5-2.6-1.3-.9.2-1.2-.3-1.6-.6-.5-.5-.1-.9.4-1.3.7-.5-.1-1.4.7-1.9-3.5-1.7-6.2-.5-8.9 1.3-.3-1.6.5-2.7 1.7-3.5-1.3-1.4-2-1.6-3.1-.4-.5.6-1.1.9-1.8 1.1-.6.2-1.1.4-1.4 1-.7 1.3-1.8 1.3-3 .9-.6.3-.6.9-.9 1.4.7 1.3 2 .9 2.9 1.3.4.5 0 1.2.4 1.8.9.5 1.6 0 2.2-.6.8-.7 1.6-.9 2.5-.3.7.5 1.4.2 2.1.3.4 0 .7.3.7.8-.1.4-.2.6-.6.6-2.3-.1-3.8 1.4-5.2 2.8-.4.5-1.1.7-1.5 1.6 2.1 1 3.2 2.7 3.9 4.9.2.7 1.1 1.2 2 1.7-.5.8-.3 1.6 0 2.2-.6.6-1.5.4-2.1 1.2.9.1 1.4.7 2.2 1.1-.1.6-.2 1.3-.4 2-.3.7-.1 1.7-1.3 1.9-.4.1-.7.8-.9 1.2-.2.7-.6 1.2-1.2 1.5-.8.4-1.1 1-1.2 1.9-.1 1.3-1.1 2.2-2 2.9-.8.5-1.3 1.3-2 1.7-2.2 1.4-4.3 3.6-7.3 2.9-.3-.1-.6.2-.9.2-.2 0-.5-.1-.8-.2-.4 1.4-1.6 1.9-2.9 2-1.2.1-2.2.6-3.4.8-1.2.2-1.7.8-.7 2-1.7.4-2 0-1.7-2.3-1.6 0-3.2-.6-4.6.5-1.8 1.5-3.9 2.8-4.4 5.3 1.9 2.1 3.4 4.2 5.5 6.1 2 1.8 3.3 4.8 2.4 7.9-.1.4-.1.9-.1 1.4 0 .4.1.9-.3 1.1-1.4 1-2.6 2.4-4.6 2.3-.4 2.6-3.1 2.7-4.6 4.6-.4-1.5.3-2.6.1-3.8-.7-.3-1.5-.6-2.1-1-.8-.5-1.9-.8-2.3-2-.5-1.6-1.5-2.7-3.5-2.6-1.3.1-1.1-1-1-1.7-1.2-.4-2-.4-2 1.1 0 1.6-.6 3-1.3 4.4-.3.7-.5 1.5-.6 2.2-.1.5 0 1.2.5 1.3 1.8.3 1.8 1.8 2.1 3.1.3 1.3.7 1.9 2.1 2.3 1.3.4 2.6 1.5 3.6 2.8 1 1.2 1.6 2.4 1.2 4.1-.3 1.1-.1 2.2.8 3.1.5.5.7 1.2.9 2-.9.2-1.8.3-2.6-.4-.1-.1-.3-.2-.5-.3-3.4-1.4-4.7-4.4-5.3-7.7-.5-2.4-2-4-3.1-5.9-.3-.5-1-.6-1.4-.6-.3-.5-.4-1-.2-1.3.9-1.7.5-3.6 1-5.3.4-1.6.2-3.4-.7-5-.9-1.6-1.5-3.3-1.5-5.2 0-1.4-1.1-2.1-1.6-3.3 0 2.3-2.7 1.8-3.2 3.4-1.1.1-1.8-1.2-3.1-.5.6-2.7 1.8-5.3-1.2-7.1.4-.4.5-1-.1-1.3-2.5-1.3-3.8-3.5-4.2-6-.7-.6-1.5.1-2-.5-.3.9-.1 1.9-1.8 1.8-1.2 0-2.5.4-3.8.3-1.3-.1-2.4.9-2.8 2.2-.4 1.1-1.1 1.9-2.3 2.2-1 .2-1.8.7-2.4 1.5-1.2 1.6-2.8 2.8-4.6 3.9-.2.1-.6.2-.6.4-.9 1.8-2.7 2.3-4.3 3.1-.8.4-.9 1.2-.9 2s0 1.8.2 2.5c.5 1.4-.1 2.4-.5 3.5-.2.6-.6 1.2-.5 1.9.1 1.1.4 2.2-1.1 2.8-.4.1-.6 1-.2 1.8-2.1-.2-2 2.5-3.9 2.6-1-.6-1.7-1.5-2-2.7-.5-2-1.3-3.9-2.5-5.7-.5-.8-.7-1.7-1-2.5-.4-1.6-1.1-3-1.9-4.5-2-3.4-2.3-7.3-2.9-11-.2-.9 1.3-1.5.3-2.5-.7-.6-.1-1.7-.7-2.3-.5 0-.8.2-.7.5.5 1.2-.3 1.7-1.1 2.1-1 .4-2 1-3.1.1-1.1-1-2.2-2-3.2-3.2 1-.3 2.2.3 3.2-1-2.7.3-4.3-1.4-6.1-2.6-.9-.6-1.4-1.7-2-2.7-.4-.6-.7-.8-1.4-.6-3.3.7-6.7.1-10 .8-.4.1-.8.1-1.2-.1-2-1-4.2-.5-6.3-1-1.3-.3-2.3-.6-2.8-2-.6-1.7-1.6-2.2-3.1-1.2-2.8 1.8-4.7.3-6.8-1.2-.2-.2-.4-.4-.6-.4-2-.2-2.6-1.8-3.3-3.2-.5-1.1-.9-2.2-2.4-2-.6.1-.7-.7-1.3-.9-.5.5-.9 1-1.8 1-.7 0-1 .7-.7 1.1 1.1 1.5 1.3 3.7 3 4.8.5.4 1.2.5 1.7 1.1-.7 1.9 1 3.1 1.6 4.8.3-1.1-.2-2.3 1-3.3 1.2.7.8 1.9.6 2.9-.2 1.4.1 1.7 1.4 1.6.1 0 .1-.1.2-.1 4.2 1.2 6.3-2.3 9.1-4.6-.2 3.7 1.7 5.2 4.8 5.9 1.3.3 1.7 1.9 2.9 2.4-.8 2-2.8 4.3-4.2 4.8-.4.8-.2 1.6-.2 2.5-1.1.6-2.6.6-2.9 2.2-.1.3-.5.4-.8.4-1.1-.1-1.8.3-2 1.6-.1.5-.7.7-1.3.7-2.4-.1-4.5.3-5.7 2.8-.3.7-1.2.8-1.8 1-1.8.7-3.7 1.4-5.5 2.2-1.8.8-3.7 2.1-6 1.9-.6-.1-1 .2-1.4.6-.7.7-1.7.9-2.7 1.1-1.1.2-2-.4-2.1-1.5-.2-2.3-1.5-4.4-1.3-6.8.1-1-.7-1.9-1.5-2.7-.4-.4-1-.7-1.2-1.3-1-2.2-2-4.3-4.4-5.5-.8-.4-1.1-1.5-1.1-2.6-.1-2.4-1-4.4-3.3-5.5-.5-.2-1-.5-.9-1.2.1-1.1-.6-1.9-1.2-2.6-1.4-1.6-2.2-3.7-4.1-5 .1-.7.2-1.4.4-2.4-1.4.8-.9 2.4-1.8 3.2-.9.1-1.1-.9-1.8-1.1-.4-1.2-1.1-2.2-2.1-3.4-.1 1.8.6 2.9 1.8 3.8 1.4 3.1 2.8 6.1 4.9 8.8 0 .1.1.1.1.1-.5 2.2 1.5 3 2.5 4.3.8 1 1.2 2.3 1.2 3.6-.1 2.1.2 4 2.5 5 .7.3 1 1 1.2 1.7l.6 2.1c.3 1.9 1.6 2.9 3.3 3.8 1.5.8 2.9 2 4 3.5.7 1 2 1.3 2.4 2.6-.2.5-.9.6-1.3.9.1.2.1.3.1.4 1 .1 1.5.7 2 1.4.8 1.2 1.8 1.5 3 .8.8-.4 1.6-.6 2.6-.4 1.3.2 2.3-1.1 3.7-1 .7 0 1.5-.3 2.3-.2 1.1.1 2-.3 2.9-.9.6-.5 1.3-.7 1.9 0-.1 1.9-.2 3.9-1 5.4-1.9 3.3-3.4 6.8-5.6 9.9-2.2 3.1-4.7 5.8-8.1 7.7-2.5 1.4-4.3 3.7-6 6-.5.7-1 1.4-1.8 1.9-.7.5-1.5 1.3-2 2.4-.6 1.2-1 2.6-2 3.7-1.1 1.2-.9 2.7.2 4 .4.5.4.9.3 1.4-.3 1.4 0 2.8.2 4.2.1.9.6 1.6 1.4 2 .7.4 1 .9.9 1.8-.6 2.4-.2 4.9.2 7.3.3 1.6-.1 2.6-.9 3.6-1.1 1.6-2.7 2.7-4.5 3.2-1.6.5-2.9 1.3-4 2.6-.8 1-1.9 1.8-3 2.5-.7.4-1.2 1.2-.7 1.8 1 1.3.8 2.9 1.4 4.3 1.2 2.7-.1 5-2.9 6-1.2.4-2.5.8-3.3 2.1.9.8.9 1.8.5 2.9-.6 1.5-.8 3.2-2.5 4.2-.8.5-1.3 1.4-1.8 2.2-2.1 3.2-5.1 5.5-8.2 7.6-1.3.9-3 .5-4.3 1.2-1.6.8-3.1-.1-4.7 0-2.4.3-4.6.8-6.8 1.6-.5.2-1.1.2-1.4-.3-.5-.8-1.4-.8-2.2-1.2.1-1-.4-1.8-1-2.7 1.4-1 .9-2.3.2-3.3-1.9-2.7-2.6-6.1-5.3-8.3-1.3-1.1-1.5-3.1-1.6-4.7-.1-1.5-.7-2.9-.9-4.4-.1-.7-.5-1.3-.1-2.1.3-.6-.1-1.1-.5-1.6-2-2.5-3.1-5.7-5-8.4-1.2-1.7-.7-3.8-.2-5.6.3-1.2.7-2.3.9-3.5.2-1.3.8-2.5 1.8-3.4 1.7-1.8 2.1-3.7.8-5.8-.6-1-1.2-1.8-.2-3 .4-.5.1-1.1-.2-1.6-.4-.6-.6-1.3-.9-1.9-.6-1.5-1.4-2.9-1.8-4.5-.4-1.7-2-2.6-3.2-3.9-1.5-1.6-2.9-3.3-3.8-5.6 1.1-1.2 1.4-2.8 1.3-4.7-.1-1 .9-2 .7-3.2-.2-1.3.1-2.7-1.5-3.2-.3-.1-.5-.4-.6-.7-.1-.5-.8-.7-.9-.6-1 1.1-2.3.4-3.5.7-2.1.6-2.9.1-3.5-2.1-.5-1.5-2.5-2.7-4.1-2.4-.8.1-1.7.1-2.5.2-3.1.6-5.9 2-8.8 3.1-.6.2-1.2.4-1.8.1-2.9-1.3-5.9-1.4-8.6.1-2.6 1.5-4.7.7-6.5-.8-1.8-1.6-3.9-2.7-5.8-4.2-.8-.6-1.4-1.5-2.3-2-.4-.2-.4-.6-.5-1.1-.2-1.5-.9-2.9-2.4-3.7-1.1-.6-1.5-1.8-2.6-2.4-.6-.4.3-.9 0-1.4-3 .1-4-1.5-2.8-3.9-.3-1-.9-1.8-1.8-2.6 2.2-1.8 2.2-4.4 2.9-6.8.1-.5.1-.9 0-1.3-.5-1.2-.9-2.4-.5-3.7.2-.5-.3-1.1-.7-1.3-1.6-.7-1.1-1.9-.4-2.7 1.5-1.8 1.8-4.4 3.9-5.7.5-2.3 2-3.9 3.5-5.5.9-1 1.4-2 2.9-2.4 2.1-.5 3.6-2 5-3.6.5-.6.8-1.3.3-2-.6-1-.2-1.7.4-2.5.3-.4.6-.8.7-1.2.2-1.4 1.1-2.2 2.2-2.5 2.6-.7 4.2-2.4 5-4.9.1-.4.4-.7.6-1-.8-.3-1.2-1-1.6-1.6-.5-.8-1.3-1.1-2-.9-1.1.4-2.2.1-3.2.1l-.3-.3c.3-.8.1-1.7.2-2.5-.6-.2-1-.6-1.6-1.1 1.8-2.9 2.5-6 1-9.6 1.3-.3 2.5-1.3 4.5-1.2 2.9.3 5.8.7 8.7.5.7-.1 1.3-.1 1.9.2 1.3.5 1.8-.1 2-1.3.2-1 .3-2 .5-3.1s.4-2.2-1.2-2.5c-.2 0-.3-.2-.4-.4-.8-1.9-2.6-2.1-4.3-2.5-1.2-.3-1.3-.3-2-1.6 1.6-.2 3-1.2 4.7-.3.5.3 1.4-.1 2-.2.6-.7-.2-1.2-.2-1.8 1-.7 1.7.6 2.7.4.7-.1 1.3.3 1.8-.6.2-.4.8-.6 1.4-.6.8-.1 1.5-.3 1.5-1.4 0-.7.6-.9 1.2-1 2.3-.5 4.4-1.3 5.6-3.6.3-.6 1.1-1.1 1.2.4 0 .8.7.5 1.1.2.3-.7-.8-.9-.3-1.9 2.3-.4 4.9-.9 7.5-1.3-.2-1-.3-1.7-.5-2.5-.1-.3-.1-.8-.3-.9-1.4-.3-.7-1.5-.7-2.1 0-1 .1-2.5 2-2.1.5.1.9-.2 1.2-.5.5-.4 1-.8 1.8-.5.5.7-.3 1.2-.4 1.8-.1.9.9.7 1.4 1.3-1.2.6-2.2 1.4-3 2.4.8 1 1.4 2.1 2.8 1.9.7-.1.4.7.9.9.5-.2 1.1-.3 1.7-.5 1.1-.3 2-.4 3.2 0 2.1.8 4.3.3 6.4-.5 1.2-.4 2.4-.7 3.6-.8.5 0 1.1-.2 1.4.4.5 1.1 1.6.7 2 .3 1.1-1 2.3-1.2 3.6-1 .5-.9 0-1.6-.2-2.2-.3-1.9.8-3.5 2.7-3.8.9-.1 1.3.4 1.9.8 1.2.8 1.1.8 2.6.4.5-.7-.6-1.5.5-2.3-1.5 0-2.2-.7-2.4-2 1.9-1 4.1-1.3 6.1-1 2.1.3 4-.1 5.9-.9-1.3-1.5-1.3-1.3-3.1-1.2-2.6.2-5.1.7-7.7 1.2-2 .3-3.5-1-5.2-1.4-.4-.1-.6-.7-.4-1.2.4-1.3-.6-2.3-.6-3.8 2.5-1.4 5.2-3 8.1-4.4.9-.4 1-.8.7-1.5-1.7-1.1-3.7-.6-5.5-.9-.9-.2-1.4 1.1-2.4 1.1.2.8-1.1.9-.7 1.9.2.6-1 1.4-2 1.8-1.5.5-3 1.1-4.5 1.8s-2 2-2.6 3.3c-.3.7.1 1.5 1.1 1.7 1.1.3 2 1 3 1.6-1.2 1.9-3.2 2.4-5.1 3 .1 1.8-.4 3.4-1.4 4.8-.5.7-1.2.6-1.9.6-1 0-1.9-.1-2.3 1.2-.2.7-1.3.4-1.9.6-.9.3-1.1-.5-1.3-1.1-1.1.2-.6 1.5-1.4 1.8-.3.2-.4 0-.7-.2-.5-.3-1.5 0-1.4-1 .1-.9.8-.6 1.5-.7.9 0 1.3-.9 2-1.7-1.8-1.2-2.5-3.3-3.6-5.1-.4-.7-.9-1-1.7-.7-1.1.5-2.3.7-3.3 1.4-2 1.3-4.1 1.6-6.2.4-.4-.2-.9-.1-1.4-.7-.2-.4 1.1-1.8-1-1.6.7-.7 1.5-.6 1.5-1.5-1.5-.6-1.5-2.1-1.2-3.2.2-.9 1.1-1.8 2.4-1.9.3 0 .5 0 .7-.2 1.8-1.3 3.9-1.5 5.9-2.2.6-.2 1.2-.5 1.6-1.1.5-.7 1.4-1.1 2.1-1.3 1.6-.4 2.7-1.3 3.8-2.6 1.6-1.9 3.5-3.4 6-4.3 1.3-.5 2.8-.8 3.7-2 .8-1.1 2.3-1.7 3.3-1.7 3.1-.1 5.8-1.6 8.7-2.1.7-.1 1.3.2 1.9.3 2.6-2 6.6-2.5 8.1-1 1-.2 1.6-1.7 2.9-1.1.3.4-.6.7 0 1.1 1.8-1.1 2.9-1 5.6.3-.7.7-1.7.3-2.5.7.1.7.6.7 1 .6 1.4-.3 2.8.4 4.2-.1.8-.2 1.6.6 2.4.9 1.3.5 2.6.5 3.9.5 2.8.1 5.4.5 7.9 1.8 1.2.7 2.6.6 4 1 1.2.3 2.2.7 2.5 2.3-1.5 1.6-3.7 2-5.9 2-2.6-.1-5.3-.3-7.9-.9-1.7-.4-3.5-.6-5.2-1.2.9 1.1 2.1 1.5 3.3 1.8 1 .2 1.5.4.8 1.6-.5 1 .5 2.2 1.2 2.3 1.9.3 3.6 1.6 5.6 1.2.3-.1.7 0 .9-.4-.6-1.2-2.5-.1-3-1.7.5-.9 1.2-.5 1.9-.3 2 .7 4.1 1.1 6.2.7 0-.9-1.1-1-1-2.1 2.7-.4 5-2.7 8.2-1.3 1.1.5 1.4-.5 1.7-1.2-.1-.9-.9-.8-1.3-1.3.7-.7 1.5-1.4-.1-2.7 2.5.5 4.8-.7 6.2 1.7-1.1.4-2.3 0-3.3.8 1.5 1.4 3.2 1.6 5 1.2.3-.1.8 0 .9-.3 1-2.1 3.2-1.7 4.8-2.3 1.4-.5 3.1-.9 4.6-.9 1.5.1 2.7-1 4-.9.6.6-.1 1 .2 1.5.8-.2 1.8.3 2.7-.3 1.1-.8 2.3-.9 3.5-.6 1.1.2 2 0 3-.3.9-.3 2.3-1.2 2.9.6.1.2.6.3.7.3.8-.8 2-.4 2.8-1 .3-.9-.8-.9-.8-1.6 0-.1.1-.2.3-.3 2.7-.7 5.3-.1 7.9.4 2.8.6 5.8 1 8.4 2.4.9.5 1.5.2 1.9-.7-1.5-.8-2.4-2.6-4.4-2.2.1-1 1.2-.8 1.3-1.8 0-.7-1-.4-1.4-.8-.1-.8.6-.9 1.1-1 1.7-.4 3.2-1 3.9-2.8.1-.4.5-.6.9-.6 2.4.2 4.8-.3 7.2.1.1 0 .2.2.4.3 0 1.3-1.1 1.7-2 2.3 0 .6.6.7.9.9.7.6 1 1.1.6 2.1-.7 1.8 0 3.1 1.7 3.9-.6 2-2.7 2.2-3.9 3.4-1.7 1.7-3.5-.2-5.1.7 3.8 1.4 6.3 1.9 11.9-2.4.4-.7-.7-1-.4-1.5 0-.3.2-.5.3-.5 1.2-.5 2.4-.4 3.6-.3 1.6.1 1.9.6 1.8 2.5.1.3.4.3.6.4.2.1.5.2.8-.1.4-.6-.5-.4-.5-.8 0-.5.7-.3.8-.8-.2-1.1-.8-1.5-2-1.7-1.7-.2-3.3-.4-5-.3-.8 0-1.7.2-2.2-.9-.5-1 .3-1.4.7-2 .1-.1.1-.2.1-.4-.3-.9-1.3-1.1-1.9-1.8.3-.7 1-.7 1.6-.8 1-.2 2.1-.2 2.3-1.6.1-.7.8-.4 1.3-.2.5 1-.8 1.3-.7 2.3 1 1.2 2.5.8 4 1 0-1.1-1.5-.4-1.4-1.8 0-.1.5 0 .8 0 1.2.1 2.1.3 3.3-.6 1.1-.9 3-.2 4.3.4 1.8.8 3.6 1.1 5.7.9-.3 1-2 .9-1.3 2.3 1-1.7 1.8.8 2.9.3 0-1-1.6-1.7 0-2.7-1.4-.5-2.3-1.2-3.4-1.3-1.8-.1-2.8-.9-3.4-2.8 5.3-.5 10.6-.6 16-.6-.5-1.2-1.7-.8-1.9-1.8.1-.5.5-.6.8-.7 2.6-.7 5.2-1.6 8-1.7 2.7 0 5.3-.4 7.9-1 1.4-.3 2.8-.4 4.3.4 1.1.6 2.5-.1 3.8-.2.8-.1 1.5-.2 2.3 0 .7.2 1.3.2 1.9-.6.6-.9 1.7-.2 2.7-.6.1-1 .9-1.3 1.9-1.5 2.5-.7 5-.9 7.5-.5.2.6-.4.6-.4 1 1.4.1 2.8.3 4.1.4.3.4-.4.5 0 1 4.9-.9 9.8-.9 14.7 1-.1 1.5-1 2.5-2.7 2.6-2.4.2-4.7 1.1-6.9 1.9-2 .7-4.1.9-6.1 1.7 2.6.4 5.1-.2 7.7-.6.3-.1.6-.1.6-.6.1-.9.9-.8 1.3-.5 1.4.8 2.9.8 4.4.5.9-.2 1.1.6 1.5 1 2.4-.9 4.9-.9 7.4-.8.8 0 1.5.2 2.3.2.3 0 .5 0 .8.1 3.5 1.5 3.9 1.6 7.6 1.3.4 0 .8-.1 1.2 0 1.2.3 2.2.4 2.9-1.1.5-.9 1.7-.9 2.5-.6 2.3.6 4.6.6 6.9.7.6 0 1.2.1 1.7.7-1.5.8-3.2.8-4.9 1.6 2.6.2 4.6 1.3 6.7 2.4 3 1.7 3.5 1.6 6.2-.7.2-.2.5-.4.9-.6 1.9 1.3 4.1 1.4 6.3.7 1.4-.4 2.7 0 4 .4.8.3 1.6.6 2.2-.4.3-.5.9-.4 1.4-.2.6.1 1.2.5 1.9.1.3-.4.3-.8.1-1.2-.4-.3-1 0-1.5-.3.2-.3.4-.5.8-.5 1.4 0 2.7-.4 4-.7 1.6-.4 3.2.3 4.8.3 1.2 0 2.5.2 3.7.3 1 0 1.3.6 1.7 1.7 2.7-1.8 5.6-1.2 8.4-.6.1.7-.7.3-.8.8.1.1.3.2.4.2.7.3 1.5.3 2.3.3.7 0 1.4.1 1.9.5 1.6 1.5 3.4 1.1 5.2.9 3-.4 6.1-.7 9.1-.3.8.1 1.7.2 2.5.5 1.5.5 1.5.5 1.8 2.1 1.9.3 1.9.3 2.8 1.3 2.6-.9 5.3-1.2 8.1-.7 1.7.3 3.6.6 5.4-.2.7-.3 1.2 0 1.8.3 2.1.8 4.1 2.3 6.5 1 .1-.9-1.1-.9-1.2-1.6.2-.5.7-.6 1.2-.6 6.7.5 15.5.4 22.1 2 .1 3.5.1 6.6.1 9.7zm-357.9 51.7c-2-1.5-3.9-2.8-6-3.5-2.2-.8-3.9-1.7-4.7-4 0-.1-.3-.2-.5-.3-.7-.1-.9 1.1-1.5.8-.8-.5-.4-1.3-.9-1.8-.9 0-1.6.4-2.4.7-.5 2.1.3 3.3 2.3 3.8.3.1.6.3.7.6.9 2.3 2.6 3.4 5.3 3.2-.3 1.1.4 1.3 1.1 1.5 1.3.4 2.6.9 3.7 1.8.5.4.8.9 0 1.4-.8-.7-1.7-1.4-2.9-1.4-.3.4-.8.7-.8 1.5.3.5 1.4.5 1.1 1.7-.6.2-1.1.6-1.5 1.3-.2.4-.6 1.3-1.2 1.1-1.7-.5-1.6.4-1.5 1.6.1.9-.4 1.2-1.2.9-1.7-.6-3.3-1.4-5-2.1.4-1.2 1.4-1.2 2.1-1 1.3.5 2.5 0 3.8 0 1.2 0 1.8-.7 2.1-1.6.3-.9-.3-2.1-.9-2.4-2-1-3.8-2.4-5.9-3.2-2.3-1-4.7-2.2-6-4.7-.9-1.8-2.9-2.3-4.6-1.3-1.1.6-2.3 1.2-3.4 1.9-1 .6-2.1 1-3.3.2-.8-.5-1.8-.4-2.6-.5-1.2-.2-2.3.9-2.1 2.1.2 1.2-.3 1.6-1.2 2-1.7.8-3.9.9-5.1 2.8-.3.6-1.1.9-1.3 1.7-.2.8.8 1.1.8 2-1.2.3-1.8 1.2-2.1 2.4-.9.2-1.9.1-2.3 1.2-.2.5-.6.6-1.1.6-.9 0-1.8.1-2.7 0-1.6 0-3 .5-4.2 1.6.9 2.1 2.7 2.2 4.3 1.7 1.3-.4 2.2.6 3.4.4 1.3-.2 1.9-1.5 3.2-1.7.5-.1 1.1.4 1.6-.3.8-1.1 2.2-1.3 3.4-1.3 2.6 0 5.2-1.1 7.9-.4.6.2 1.4-.1 2-.4 1.1-.5 2.5-.4 3.3-.1 1.3.4 2.2.2 3.3-.4.7-.4 1.8-.7 2.2-.1.6 1 1.4.6 2.7.7-1.7 1.1-1.9 1.9-.5 2.9.7.5.2 1.2-.3 1.6-.6.6-1.4.9-1.7 1.7.4 1.1 1.6.8 2.2 1.3 1.6 1.3 3.3 1.5 5.2 1.6 1.8.1 3.7.3 4.6 2.5.2.5.8.8 1.3.8 2.2.2 4.1.9 6 2 1.3.7 2.8-.6 2.7-2.1-.1-.5-.2-1.1.1-1.5.8-1.6 5.1-2.5 6.3-1.2.8.8 1.6 1 2.5 1.2 2.1.5 4.1 1.3 6.2 1.4.9.1 1.9.3 2.8.7 1.2.4 2.6.8 4.1-.1 1.3-.8 2.9-1.2 4.7-.2 1.3.7 3.7 1.2 4.8-.3 1.7-2.2 2.5-4.9 3.5-7.5.1-.2.1-.6 0-.8-.6-1.2 0-2.4.6-3.8-1.1.7-1.8 1-2.8.5-.6-.3-1.1.2-1.6.5-1.5 1.1-2.7 1.1-4.2.1-.4-.3-.9-.6-1.3-.8-1.5-.7-1.9-.5-2.7 1.2-2.3-.1-4.2-1.5-6.4-2-.4-.1-.4-.5-.4-.8-.3-1-.8-1.6-1.9-1.9 1.3-1.6 1.1-2.6-.7-3.2.1-.7.2-1.4.2-2.1-1.5-1.1-3.1-.9-4.7-.5-.3.1-.6.2-.5.5.3.6.1 1-.4 1.3-.7.4-1-.3-1.5-.6-.2-.2-.5-.3-.9-.5-.4 1.4 1.7 2.2.5 3.4.6 1.1 2.8.6 2.4 2.6-.7 0-1.2-1.1-1.9-.4-.2.5.8.6.2 1.3-.1.4-.6-.7-.9 0 .1.5.6.9.3 1.4-2-.1-3.6-.8-3.5-2.4 0-1.2-.9-1.6-1.1-2.4-.1-.6-.7-.6-.9-.9-1.4-1.3-3-2.7-1.8-5.2zm30.8-9.7c-1.1-.6-3.1.9-3.4-1.4-.5 0-.9 0-1.4.1-1.6.4-2.8 1.4-3.7 2.7-.3.5-.3 1.1-1.1 1.2-.5.1-1 .6-1 1.1-.1 1.8-1.8 2.6-2.3 4.2.7 1.5 1.7 2.8 3.5 2.8 2.1.1 4.1.8 6.1-.7s4.5-1.1 6.7-.8c1.5.2 3.1 1.2 4.7 1.7 2.8.7 5.6.5 8.4 0 1-.2 1.7-.7 1.6-1.9-.1-1.1-.4-2.1-1.6-2.3-1.1-.2-2-.8-3-1.4-1-.7-2-1.2-3-1.7-.8-.4-2.2-.3-2.4-1.7 1.4 0 1.5-1.7 2.6-2.1-.2-.5-.9-.5-.9-1 .9-.4 1.9-.4 2.9-1.4-3.9.3-7.2 1.4-10.6 2.3 1.1 1.8 2.9 1.7 4.7 2-2.2.4-4.2 1.3-6.7 1.8.7-1.9-.9-1.8-1.7-2.3.2-.7 1.3-.4 1.6-1.2zm43.3 10.6c-1.2-.9-.8-2.1-.4-3.3-3 .1-3.3-2.9-5.4-3.8.5-.9 1.6-.1 1.7-.6.4-1.7 1.6-1.5 2.9-1.5.9 0 1.8-1.3 1.7-2.4-.1-1.2-.9-1.1-1.7-.8-.5.1-.9.1-1.3-.2-.8-.4-1.6-.2-2.4.1-.8.3-1.6.6-2.3 1-2.2 1.3-5.1 1.5-6.3 4.4 1.1.6 1.9 1.4 1.6 2.8 0 .2.1.5.3.7 1.9 1.8 3.3 4.2 6.1 5.6-1.5-.1-2.1.6-2.1 1.8 0 .3-.1.7-.3.9-1.2.9-1 2.2-1.1 3.7 1.7.3 3 1.1 4.4 1.9 2.1 1.1 4.3 0 6.5-.1.8-.1.8-.7.6-1.4-.4-1.2-.1-2.4-.1-3.7-1.5-.1-.6-2.5-2.4-2.2-.1-.8-.1-1.4.4-2 1.2.2 2.5.8 3.7-.2-.5-.7-1.3-1-1.7-1.9-.4-.9-1.3-.5-2.1-.2-.1.4-.2.9-.3 1.4zm-52.9 1c-2.9-.7-3.4-.6-4.3.9 1.5-.2 2.9.4 4.3-.9zM-2.6 387.9c8.1.5 19.3.2 27.4.8 5.8.4 11.5 1.1 17.3 1.3 6.9.3 13.8.1 20.7 0 4.2 0 8.3-1.1 12.4-.6-.1-.7-.5-.8-1-.8-3.5-.5-7.2-.1-10.7-.6-.3 0-.5-.1-.8-.1-.9-.1-1.9-.3-2.2-1.3-.3-1 .6-1.5 1.2-2 .1-.1.3-.2.6-.4-1.8-.8-3.6-.9-5.4-1.5-.1-.3.2-.6-.1-.9-1.3-.3-2.7-.5-4.1-.7 2.5-.7 5.1-.4 7.7-.3 2.7.1 5.3.1 8 .4 2.8.3 5.4-.8 8.1-1.8-6.9-2.3-14.1-2.7-21.2-3.6.2-.8 1.1-.5 1.4-1 0-.2-.2-.4-.4-.3-3.8.3-4.3.2-6.6-1.1 0-1.4 1-1.4 2-1.5 4.6-.2 9.1-.1 13.6.9 1.6.4 3.2.3 4.8 0 2-.4 4-.1 5.9-.3.5-1.1-.2-1.4-.9-1.6-1.3-.3-2.7-.5-4-.5-.8 0-1.6-.1-2.8-.1 2.9-.7 5.4-.5 7.9-.9 7.6-1.2 15.3-2.2 23-2.5 7.4-.3 14.8-.2 22.2-.1 3.5 0 6.9 0 10.3-.4 3.9-.4 7.8-.4 11.7-.4.9 0 1.7.1 2.4-.8s2.8-.4 3.4.6c.8 1.1 2.2 1.4 3.2.6.1-.1.2-.2.2-.3.7-1.1 1.7-.9 2.5-.5 1 .5-.1 1.2-.1 1.7.3.4.7.6 1 .5 2.9-.4 5.8.6 8.7-.2 2-.5 4-.4 6-.2 2.6.3 5.3.3 8 0-1.6-.7-3.2-1.8-4.9-2-1.8-.3-2.1-1.8-3.4-2.9 1.1-.4 1.8-.3 2.6-.1.7.2 1.4.5 2.1.5 4.9-.4 9.7.8 14.6.4 2.6-.2 5.2 0 7.8.1 1.5.1 2.8 0 4.1-.7.9-.4 1.9-1.1 2.6.4.2.4.9.6 1.4.5 2.9-.6 5.5.5 8.2.9 1 .1 2.1.3 3.1.5 1.4.2 2.6 0 3.6-1 1-.9 2.1-1.3 3.4-.7 1.9.9 3.8 1 5.9.9 3.5-.2 7 0 10.5-.5 2.8-.4 5.7-.8 8.5-1.1.7-.1 1.3-.3 1.9-.6 1-.5 1.2-1.3.5-2.2-.8-1-1.6-2-2.5-3-.9-1-.8-1.5.4-2.2.4-.2.9-.3 1.3-.5 1.4-.7 1.6-1.5.7-2.7-1.3-1.7-1.2-2.2.9-2.8 1.7-.5 3.2-1.4 4.7-2.3 1.6-1 3.3-1.8 5.2-2 1.6-.2 3.1-.8 4.6-1.4 2-.8 4.2-.9 6.1-1.7.4-.2.8-.1 1 .3.2.5-.1.9-.6 1.1-1.1.6-2.2.7-3.4.8-2.1.2-4.3.7-5.7 2.2-1.7 1.8-3.2 3.2-5.9 3.2-1.2 0-2.9.9-2.8 2.5.2 1.7 1.9 1.6 3.3 1.8.9.1 1.5.5 1.9 1.2 1 1.5 2.3 2.7 3.4 4 2.7 3.2 2.1 6.2-1.7 8-1.3.6-2.6 1.2-3.8 2-.9.7-2.1.8-3.2.9-2.1.2-4.3.5-6.4.9-6.5 1.4-12.9 1.1-19.3-.2-1.1-.2-2.3-.3-3.5-.1.1 1.3 1.1 1.6 1.9 1.8 2.3.7 4.6 1.2 7.1 1 1-.1 2.1 0 3.3.7-6.2 1.5-12.1-.7-18 0 2.3 2 5.2.3 8.1 1.6-5.1 1.5-9.7.8-14.3-.5.6 1.8 2 2.1 3.4 2.2 2.7.2 5.5.2 8.2-.2 1.9-.2 3.7-.1 5.2.7.5.8-.4.9-.3 1.4.1.1.2.2.3.2 5.6 1.6 11.4 2 17.1 2.6 3.6.4 7.1.9 10.6 1.3l6.6.6c1.4.1 2.7.4 3.8 1.3 1 .8 2.3.8 3.5.5 2.5-.6 5-1.5 7.6-1.8 5.5-.6 11-.6 16.5-.8 2.7-.1 5.3-.2 8 .1.4 0 1 0 1.3-.1 3.8-1.9 7.9-1.8 12-2 5.8-.3 11.6 0 17.3-1 .7-.1 1.4-.3 2-.6-1.1-2.2-2-2.6-4.5-2.3-4.3.4-8.5.2-12.8-.2 0-1.3.9-1.6 1.7-2 2.8-1.5 5.8-1.7 8.8-2.3 6.7-1.2 13.4-2.3 20.2-2.7 2.5-.1 4.9-.2 7.4-.4.7-.1 1.5-.1 2-.5 1.7-1.4 3.6-2.2 5.9-2.8-1.1-.9-2.2-.2-3.2-.8 1.7-1.6 4-1.1 5.8-2.1 1.9-1 4.3-.4 6.1-1.6-.2-.9-1.2-.7-1.4-1.5 0-.6.7-.6.9-.5 1.4.9 2.6.2 3.8-.4 1-.5 1.8-.4 2.6.5 1.1 1.2 2.4 1.1 3.4-.2 1.2-1.5 1.9-1.7 3.6-1.1.2.5-.6.5-.5.9 0 .1.1.2.3.2 3.1-.3 6.2.1 9.4-.1.3 0 .7-.1 1 0 1.9 1.1 3.7.2 5.6-.1 3.6-.7 7.2-1.2 10.8-1.8 1.3-.2 2.5-.5 3.8-.7 1.9-.3 3.8-.5 5.5.7 1.3.9 2.6.8 3.9.2 1.8-.9 3.7-1 5.7-1.1 5.9-.3 11.8.4 17.7.9 3.4.3 6.7-.2 10.1-.6 3.5-.4 6.9-1 10.4-1.5 1.3-.2 2.5-.3 3.4-1.6.6-.9 1.6-1 2.6-.5.9.5 1.7 1 2.5 1.5 1 .6 2.1 1 3.3.2.6-.4.9-.2 1.5.3s1.8.8 2.9.7c.8-.1 1.3-.4 1.4-1.3.1-.9.7-1 1.4-1.1 1.7-.2 3.3-.7 4.9-1.3 1.6-.6 3.2 0 4.8-.6 1.2-.5 2.7-.2 3.8-1.2.3-.3.9-.2 1.3.1 1.2 1 2.4.7 3.6.1.1-.4-.4-.5-.2-.9 1.2-.7 2.3.4 3.7.2-.1-1.3.5-1.9 1.8-2.1 3.9-.5 7.7-1.4 11.5.3.6.3 1.7-.1 1.9.3 1 2.1 3 1.4 4.6 1.7 1.7.3 3.5.4 5.2.5 5.4.4 10.8.8 16.2.8.5 0 1.1 0 1.5.2.5.2.9.5.9 1.1 0 .9-.7 1.5-1.1 2.2-.4.7-.7 1.3-1.7 1.2-.7-.1-1.4.2-1.8.9.8.9 2 .1 3 .7-.6 1.6-3.2.7-3.3 2.9 1.9 1.2 3.9 1 5.8.1.5-.2 1-.6 1.4-1 3.2-3.2 7.3-4.2 11.6-4.9 1.4-.2 2.7-.7 3.9-1.5 3.2-2.3 7-2.9 10.8-3.4 2.3-.3 4.6-.6 7-.5 2 .1 4.1.5 5.3-2.3 1.1 1.9 2.5 1.8 4 1.7 5.8-.3 11.7-.3 17.6 0 2.2.1 4 0 5.9-1 2.2-1.1 4.7-.8 7.1-.5 3.3.4 6.7 1 10 1.6 1.9.3 3.4-.2 5.2-1 2.6-1.3 5.5-1.6 8.2-.1.4.3.8.7 1.4.6 1.8-.3 3.5.3 5.1.8 3.2.9 6.3.3 9.5-.2 1.2-.2 2.5-.3 3.7-.2 1.9.1 3.9.4 5.7-.4.5-.2 1.2-.3 1.7.1 1.3 1.2 2.9.9 4.4 1.1.6.1 1.2 0 1.6-.5 1.3-1.3 2.9-1.3 4.5-1.2 2.1.1 4.3.1 6.4-.3.3-.8-.7-2.2.8-2.2 1.4 0 1 1.3 1.1 2.3 1.4.5 2.9.6 4.4.6 5.8.1 11.5 1.4 17.3 1.3.8 0 1.7 0 2.3 1.1.3.7 1.8.5 2.7.7 3.2.7 6.4 1.3 9.6 2 1.5.3 3.1.3 4.7.4.7 0 .8-.5 1.3-.9 2 1.4 4.2 1.7 6.6 1.6 2.3-.1 4.5.8 6.6 1.4 2.8.9 5.7 1.2 8.6 1.3 4.8.2 9.4 1 14 2.4.5.1 1 .2 1.4.9-.6.3-1.5.3-1.4 1.5.1.6-3.3 2.4-4 2.2-2.6-.7-4.9.6-7.2 1.1-.4.7.3.8.1 1.4-1.9-.3-3.6.5-5.6 1.1 1.1 1.3-.1 2.5.2 4 2.4 1.5 5.2 2.5 8 3.8-3.7-.1-7.3.4-11 .6-1.2.1-2.3-.1-3 1.4-.5 1.2-2.1 1-3.4 1.8.7.4 1.4.3 1.9.3.9.1 1.8.1 2.2 1 .5 1 1.2 1.3 2.3 1.4 4.1.4 8.1 1.8 12.1 2.9 5.3 1.4 10.6 1.7 16 2.1 4.3.4 10.5.8 14.8.8v13.9h-805c.5-4.2.5-9.3.5-13.5zm79.7 1.3c1.5.1 3 .8 4.5.1-1.5-.2-3-.8-4.5-.1zM-1.6 47.3c2.7.7 7.4 1.3 10.1 2 1.7.4 3.3.7 3.7 2.8.1.5.7.7 1.2.9.6-.4-.5-1.1.2-1.5.6-.4 1.1-.1 1.7-.1 2.8 0 5.4 1 8.2 2.5-1.2 0-2 .4-2.8.8-.8.4-1.9.2-3 .2.6 1.5-.6 1.3-1.3 1.4-.4.4.2.8-.4 1.2-1.9.4-3.6-1-5.5-1-.1 0-.3-.1-.3-.2-1-1.9-4.5-1.5-6.2-1.2-.8.1-1.7.4-2.4-.7-.5-.9-1.3-.4-1.9.3-.4.6-.3 1.6-1.4 1.6.1-3 .1-6 .1-9zm118.1-3.7c.8 0 1.5.3 1.9.8 1 1.2 2.3 1.6 3.7 1.9.6-1.4 1-1.6 2.1-.6.7.6 1.5.5 2.1.1 1.7-1 3.3-.7 5.1-.3 3.4.8 6.8 1.6 10.4 1.7.7 0 1.4.2 2.2-.5-1.4-.6-2.9-.8-4.1-2 3.8-.8 7.5-.2 11.7-.6-1.1-.7-1.9-.8-2.7-.8h-8c-1 0-2.1.1-3.1-.6 1-.5 2-.6 3.1-.7-1.4-.4-2.6-1.3-4.3-1.1 1.4-1.9 7-3.6 10.4-3.3.5.5-.4.7-.2 1.2.6.5 1.2 0 1.8-.2 1.6-.5 3-.6 4.4.7.8.7 2 .3 2.7-.2 1.4-1 2.5-.9 3.7.5.6.7 1.1 1.9 2.4.9-.4-1-1.6-1.6-1.2-3 2.1 0 4.4-.1 6 1.4.8.8 2.5 1.7 2 3.5 2.2 2.1 5.8.8 8.3 3.2-1.8.5-3.5-.9-5 .5.8.8 2-.5 2.7.7-1.1 1-2.5.9-3.7.8-2.1-.1-4.2-.3-6.1-1.2-.4-.2-.7-.2-1.1-.1-4.1 1.6-8.4 1.9-12.8 1.8-1 0-2.1.3-2.6-1.1-.1-.3-.5-.3-.9-.4-1.1-.1-2.2-.2-3.5 0 .9 1.1 2.5.7 3.3 1.8-.7.7-1.9 0-2.8.8 1 .5 2 .6 2.9.6 2.2.1 4.4.2 6.6-.2 2.1-.5 4 .3 5.9.8.5.1.5.5.6.8.4 1 1.1 1.2 1.9.3-.3-.6-1.1-1-.7-1.8.4-.7 1.2-.3 1.8-.5 3.2-1.1 6.2 0 9.2.5 2.8.4 5.7.1 8.5-.1.2 0 .4 0 .6-.1.5-.2.3-1.2 1.1-1.1.6 0 1.1 0 1.9-.1-1.6-.9-3.2-.6-4.7-1.3 1-.6 2.1-.6 2.7-1.6.3-.5 1.1-.3 1.7-.1 1.4.5 2.9.9 4 2.2-.9 1-2.2.5-3.3.8.5.7 1.3.3 1.8 1 0 .3.1.8.1 1.3.5.6 1.1.4 1.7.6.5-.6-.4-1.1.2-1.8 1.3-.3 2.8-.9 4.2-1.5-.6-1.1-1.6.2-2.1-.6.1-.8 1.3-.2 1.5-1.1-1.8-.9-4.1-.3-5.9-1.5-.4-.5.4-.5.4-.9 0-.7-.9-.3-.9-.9 0-.1.1-.2.1-.3.8-.7 1.8-1 2.6-1.7 1.2-1 4.5.1 5.4 1.5.7 1 2 1.1 2.8 1.9-.4.6-1.4.1-1.6 1.2.7.3 1.4.3 2 .2 1.2-.1 2 .1 2.3 1.5.1.4.2 1.1.8 1.3 1.3 0 1.3-2.5 3.1-1.8.9.4 1.9.6 2.2 1.7-.3.7-1 .3-1.4.7 0 .1 0 .4.1.5 1 .6 1.7 1.7 3 1.4 1.1-.2 2-1.1 2.5-1.9.7-1.1 1.4-1.6 2.6-1.5-.3-.9-1.2-.6-1.6-1.1-.4-.7.4-1 .5-1.6-1-.4-2.3.2-3.1-1-.2-.4-.8.1-1.3.1-1.6.2-3.2.3-4.6-1.1 1.2-.8 2.4 0 3.7-.3-1.8-1.4-3.7-.5-5.4-1.1-.3-.8 1.2-1.3.4-2.3-.2-.2.8-1 1.4-1.4 2.6-1.5 5.4-1.7 8.6-1.4-1.1 1-2.4 1.1-3.3 2 .9 1.3 1.3 3.1 3.4 3-.1.3-.5.8 0 1 .6.2 1.1.1 1.3-.7-.3-.4-.7-.5-1.1-.4-.3-.3-.7-.5-1.1-.9.3-.3.6-.5.9-.7-.1-.4-.8-.4-.5-1.2.6-.4 1.4-1.1 2.2-1.3 3-.6 6.2-1.7 8.9 1.1.1.7-1 .9-1 1.8.6.5 1.3.4 1.9 0 1.2-.8 2-.7 2.8.9.7-2.4 2.4-2.3 4.1-2.1 1.9.2 3.9-.1 5.6 1.2.2.2.4.2.3.6-.4.3-1.1 0-1.3.9.6-.1 1.1-.2 1.6-.6.9-.1 1.4.6 2.1 1.1 1.1-.8 2.3-1 3.6-.7.8.2 1 1.2 2.1 1.4.7.1 1.6.6 2.4.4.8-.2 1.5 0 2.2.2.4.5-.5.6-.2 1.1 1.2-.2 2.5-.8 3.5.7.1.2-.4.2-.4.7.1.4 1.2-.2 1.2.6-.8.8-2.5-.9-2.9 1.2 2.3.8 4.3 2.1 6.8 1.5.3-.1.9.1 1.1.3 1 1 2.3 1.5 3.6 2 .4.2.8.2 1.1.1 1.1-.4 1.8.1 2.7 1-2-.4-2.4 2.8-4.5 1.7-.5.6-.1 1.1-.3 1.6-.2 0-.4 0-.6-.1-.9-.3-2.5-1.6-3.4-1.8-1.7-.4-3.1-2-5.1-1.4-.3.6.6.7.4 1.2-.4.5-1-.2-1.4.1.1.2.1.4.1.4 1 .3 1.7.8 2.4 1.5s1.9.5 2.8 1.1c1 .7 1.9 1.5 2.8 2.5-1.2.3-1.2 1.2-1.4 2-2.7-1-5.3-2.1-8.2-2.4 1.6 1.8 4.7 1.5 6 4.3-2.7-1-5.5-.9-8-2-1.1-.5-2.4-.6-3.6-.9-.6-.1-1.2-.1-1-1.1.1-.8-.7-.7-1.1-.7-1-.2-1.7-.6-2.6-1.2-.8-.6-1.9-1.4-3-.2 0 0-.1.1-.2.1-2.6-.3-5.2 1.2-7.7-.3.4-1.1 1.6-1.9 2.7-2 1.2 0 2.3.8 3.6.4 1.1-.4 2.3-.5 3.5-.5.1-1-1.1-.7-1.3-1.6 1.6-.5 3.2-1.2 4.3-2.8-2.7-2.7-5.8-3.6-9.5-2.8.2-1.2 1.2-.5 1.6-1.2-2.4-1-4.7-2-7.3-3.1.1.8.9.8.8 1.7-3.5-.4-7 .2-10.6 0 1.5.5 2.8 1.4 4.5 1.4.4 2.9-1.9.5-2.4 1.5.4 1.4 2 1.7 2.9 2.6-1.2 1.9-3.6 2.6-5.7 1.9-.9 1.1-2 .9-2.9.4-1-.5-1.8-.5-2.8-.2-.1.7.8.4.7 1-.8.8-2 1-2.9 1.8-.3.4-1 .4-1.4 0-1.3-1.3-3-1.4-4.2-1.3 1.5 1 3.6 1.8 5.9 1.4-.4 2.3-2.2 3-5.6 2.6 0 1.7-1.3 1-2.2 1.1-.5.6.6.5.4.8-.2.5-.5.5-.7.5-1.8 0-3.2 1.2-4.5 2.1-1.7 1.2-3.6 2.5-4 4.9-.3 1.6.2 2.4 1.7 2.6 2.1.2 2.8.8 3.4 2.8.1.2.1.5.2 1 2.5-.9 4.9-.4 7.3.3.7.2 1.4.4 2 .7 3.2 2.1 6.8 2.7 10.5 2.8.9 0 1.8.3 2.9.4-.9 1.5.7 2.9-.1 4 .6 2.2 2.8 2.5 4 3.8.5.5 1.3 1.2 2.1.1.3-.5.8-.1 1.2.1.8-2.2.6-3.6-1.4-7.1 1.3-.6 2.7-.8 3.9-1.6l1.5-.9c2-1.6 1.8-3.5-.3-4.9-.8-.5-1.8-.7-2.6-1.6.9-.7 1.3-1.9 2.6-2.5-.5-.8-.4-2-1.7-2.2.2-.6.9-.8 1-1.4 0-.5-.9-.5-.8-1.4 0 .1 0-.1.1-.3.6-.9 1.5-.7 2.3-.6 2.4.4 4.7.8 7.1.2 1.3-.3 2.7.6 3.7 1.5 1.5 1.4 3.3 1.6 5.2 1.7.2 0 .4.1.8.1-1.6 1.4.7 3.1-.6 4.7 1.3.1 2.8-.5 3.7 1.1h.2c1.2.1 2.3-1 3.2-1 1.6 0 1.7-.9 2-1.8.3-1.1 1.6-.6 2-1.6 3 2.1 4.8 4.9 7.3 7.2-.2.9-1 .5-1.6.6.7 1.9 3.9.9 3.8 3.6 2.2-.6 4 1.1 6.1.9.3.5-.1.6-.5.9 1.1.2 1.5 1.5 2 1.5 1-.1 1.7.2 2.6.8.1.9-.9 1.8.3 2.5-1.7 1.2-3.3 1.9-5.1 1.7-.8-.1-1.4.2-1.9.7-1.3 1.3-3 1.7-4.8 1.7-3.4 0-6.8 0-10.2-.1-1.4 0-2.7.2-3.5 1.6-.3.5-.7.7-1.3.7-1.9.2-3.3 1.3-4.5 2.7 3.7-1 7.1-3.1 11.2-2.4.5.1 1 .2 1.1.9-.9 1-1.6 1.3-3.3 1.7.5 1.2 1.4-.2 2.1.6-.5.7-.3 1.6.2 2.4.6 1.1 2 1 2.9 1.6.7.4 1.7.6 2.6.2.7-.3 1.1.5 1.8 0 .1-1.3.8-2.3 2.1-2.9.8.5 0 1 .2 1.3.3.7 1.1.3 1.3 1.2-.8.9-1.9 1-3 .9-.4.2.6.7-.2 1-1.3.3-2.6.7-3.9 1.1-1.5.4-3 .6-4.1 1.9-.4.4-1.1.6-1.7.8-1.8-1.5-1.7-2 .2-3.1.7-.4.7-.4 1.2-1.4-1.5 1.1-3.5.2-4.9 1.7-.4.4-1.2.5-1.8.5-1.7 0-3 1.2-4.6 1.8-1.3.5-1.7 2.6-1.1 3.5.4.7 1.1.2 1.9.6-2.1.4-3.7.7-5.3 1.1-.8.1-1.6.1-2.3.4-.9.3-2 .4-1.9 2.1.1 1.2-.9 2.4-2.5 2.7.7 1.7-.7 2.4-1.5 3.4-.1 0-.1-.1-.2-.1.1-.8.4-1.6-.8-1.8-.8 2.1 1 3.5 1.4 5.5-1.5.5-1.6 2.9-3.7 2.7-1.1 1.9-4 1.5-5 3.7-.2.4-.8.6-1.3.8-2.8 1.2-3.9 4.2-2.4 6.9 1.1 1.8 1.4 3.7 2.2 5.6.6 1.4-.2 2.6-.6 3.9-1.9 1-2.2-1-2.9-1.7-.8-.7-1.4-1.8-1.9-2.8-.3-.5-.7-1.4-.5-1.8 1.1-2.4-1.3-2.9-2.2-4.1-.5-.6-1.2-.2-1.8.1-.7.4-1.4.7-2.1-.3-.6-.8-1.7-1-2.8-.9-1.1.1-2.3.2-3.4.2-2.1 0-2.1-.1-2.9 1.9 0 .1-.1.1-.1.2-1.5.3-3 .9-4.2-.6-2.6.5-5.5-1.3-7.7 1.1-.4.4-1 .9-1.5.9-1.5-.2-2.4 1-3.1 1.7-.7.6-1.3 1.9-.7 3.2.6 1.1.2 2.1-.1 3.3-.9 3.3-1.3 6.8 1.1 9.9.4.5.9.9 1 1.4.7 2.4 2.9 2.6 4.6 3.6.9.5 1.9-.1 2.8-.4 1.8-.5 2-.5 3.3 0 .5-.3.3-1 .9-1.3 1.1-.5 1.2-1.7 1.4-2.8.1-.8.2-1.7 1.3-1.9 1.9-.2 3.7-1.2 5.7-.7.5.1 1.1.1 1.3.6.3.6 0 1-.5 1.3-1 .7-1.1 1.7-1.1 2.9 0 .7.1 1.7-.9 2.3-.4.3-.4 1.5-.4 2.2 0 1.2-.2 2.2-1.5 3 2.1.4 3.9.3 5.6.2.7 0 1.6.1 2.2-.1 1.9-.6 2.8 1 4.1 1.7.7.4.9 1.4.4 2.3-1.1 1.7-.7 3.7-1.2 5.5-.2.9.3 1.6.8 2.3.9 1.2 2 2.2 3 3.3.6.7 1.8 1 2.8.5.6-.3 1.2-.5 1.8-.8 2.2-1.1 4.1-.7 5.7 1.1.4.5.9.9 1.4 1.5.2-.6.1-1.2.7-1.6 1.2-.9 2.4-1.8 2.5-3.6 0-.4.4-1 .9-.9 1.2 0 2.1-.9 3.3-1 1.3 0 2.4-.8 3.3-1.7.9-1 1.6-.7 2.4.1-.4.9-1.4.3-1.7 1-.2.6.1 1.1.6 1.5 1.1-.4 2.2-.7 3.1-1 .5-.7-.6-.9-.2-1.5l.1-.1c1.4.8 3 1.4 4.1 2.5.6.6 1 1 1.9.9 1.5-.2 2.9-.3 4.3.7.6.5 1.7.6 2.4 0 1.5-1.5 3.3-1 5.1-1-.1.7-.9.2-1 .8 1.7 2.1 2-.6 2.9-1.1.8 1 .4 1.6 0 2.2.2.6.9.6 1.2 1-.1.6-.7.9-.6 1.7 2.8 0 5.1.9 6.1 3.9.7.1 1.4.4 2 1 1.2 1.3 2.5 1.4 4.1 1.1 2.4-.5 4.5.5 6.5 1.6 1.2.6 1.8 2 3.2 2.4.5.2.4 1 .6 1.6.6 1.4.4 3.3 2.3 4 .4.2.5.9.1 1.2-.9.8-1.3 2.1-2.5 2.7-1.1.6-1.7 1.7-1.9 3 1 .4 1.6-1.3 2.5-.2.4-.5.4-.9.4-1.3 0-1.1.6-1.6 1.6-1.3 1 .3 2.1-.4 3.1.5 0 1.4-.8 2.4-1.9 3.4 1.1-.3 2-.8 2.4-1.7.5-1 1.6-1.3 2.3-.9 1.3.6 2.8.7 3.9 1.7.1.1.1.2.2.3 2 1 2 1 1.7 3 .8-.2 1.4-.7 2.1-.9.8-.2 1.5-.3 2.2.1 1.4.8 2.9 1 4.3.7 1.2-.3 2.2.1 3.1.7.8.5 1.6 1.1 2.3 1.8 1.5 1.3 2.9 2.6 5.1 2.5 1.1 0 1.5.6 1.8 1.6.4 1.8 1 3.4.6 5.3-.6 2.6-2.4 4.1-4.3 5.5-.5.4-.9.8-1.1 1.5-.2 1.1-1 1.9-1.6 2.9-.4.7-.8.4-1.3 0-.8 1.8-1.1 3.7-.6 5.6.4 1.8 0 3.8-.6 5.3-.5 1.3-1 2.4-1.1 3.9 0 1-1.1 2-1.8 2.9-.7.9-1.3 1.8-1.1 3-1.2.3-2 .8-2.2 2-.9 0-1.7.1-2.5 0-1.7-.2-3.2.4-4.7 1.2-1.4.8-3 1.2-4.4 2.3-.8.6-1.7 1.2-2.5 1.9s-.6 1.7-.6 2.6c0 .9.1 1.8 0 2.7-.1 1-.4 1.9-1.3 2.5-1 .7-1.7 1.6-2.1 2.7-.6 1.5-1.5 2.7-2.9 3.6 0-1.2 1.3-1.7 1.6-2.8-.4-.5-1-.5-1.1-.1-.5 1.7-2 2.7-2.5 4.5-.6 2.2-2.6 3.6-4.3 5.1-.4.3-.9.4-1.3.3-1.6-.5-3.3.5-4.9-.7-.7-.5-2 .2-2.9-.7 0 1.8 1.8 1.4 2.5 2.5-.2.9-.4 1.8.8 2.5.9.4.2 1.2-.2 1.9-1.5 2.7-4.1 3.3-6.9 3.6-1.6.1-3.2.1-5.1 0 1 1.5-.5 2.8.1 4.1-2 1.6-4 .5-5.9.1-.6.7 0 1.1 0 1.6.2 1.6.2 1.6 1.9 1.1.3-.1.7-.1.9.2.2.3.3.7.1 1.1-.2.3-.5.4-.8.3-.5-.2-.9-.6-1.5-.3-.3.4.4.4.4.7-.4.7-1.9.6-1.6 1.7.2 1-.9 1.4-.6 2.4-1.2.3-2.6.2-3.5 1.3-1 1.1-.9 1.8.2 2.7.5.4.9.7 1.6.8.5 0 1 .1 1.4.6-.1 1.3-.9 1.9-2 2.4-1.2.5-2.4 1-2.4 2.7 0 .7-.8 1-1.4 1.2-2.2.8-2.5 1.9-1.1 3.7.3.4.5.7.8 1.2-.3.1-.5.2-.7.3 1.9 2.6 4.1 4.8 7.6 5-1.1.5-2.2.9-3.3.6-2.8-.7-5.7 0-8.4-.5.1-.8.1-.8 1.5-1.1-.3-.8-.3-1.7-1.1-2.2.1-.7.8-.8 1.2-1.2-.2-.1-.3-.2-.4-.2-1.1-.1-1.8.4-1.9 1.5-.1 1.4-.9 1.3-1.8 1.1-.3-1 .7-1.2.8-2-.9-.1-1.6.4-2.4.4-1.7 0-2.1-.5-2.2-2.2-.1-.9-.8-1.8-1.6-2.5.2-.2.6-.4.8-.6 0-.2 0-.3-.1-.4-1.4-1.1-.9-2.8-1-4.2-.1-.7.4-1.4-.3-2.2-.6-.6.6-.8.7-1.4-.7-.8-2-.2-2.6-1.3.7-.4 1.2-1.2 2-1.4.9.2.3 1.3 1.3 1.3.9-1.2.6-3.3 2.6-3.9-1-1.2-1.3-2.1-.5-3.5.5-.8.9-2.1.2-3.2-.7-.2-1.1.5-1.9.3.8.9-.4 1.4-.1 2.1.1.4.2.8.1 1.1-.1.4-.3.7-.8.6-.4-.1-.6-.3-.6-.7.3-1.1-.2-2.6 1.5-3.2-1-1.6-1-3.1.4-4.4.2-.2.4-.7.3-.9-.6-1.4 0-3-1.1-4.3.6-.5 1.4-.7 1.6-1.6.5-2.2 2-3.9 2.6-6.1.4-1.5 1-3 .7-4.7-.3-1.3-.7-2.8.5-4.1.3-.3.3-.8.1-1.1-.6-.9-.3-1.8.1-2.6 1.1-2.1.9-4.5 1.7-6.7.3-.8-.1-1.5-.1-2.3-.1-1.7.5-3.3.8-5 .4-2.4-.1-4.7-.1-7 0-1-.8-1.6-1.5-2.3-2.5-2.4-5.8-3.3-8.5-5.2-1.6-1.2-3.3-2.3-3.5-4.6-.1-.8-.8-1.6-1.3-2.4-1.7-2.6-2.8-5.6-4.3-8.4-.8-1.4-1.9-2.7-2.7-4-.6-1-1.8-1-2.7-1.8.3-.4 1-.7.5-1.5-1.2-2-1-2.5 1-3.8 1.4-.9 1.4-.9 1.7-2.4-.4-.5-.6.1-.9.2-.5.2-.8 0-1-.3-.3-.3-.3-3.4 0-3.8.8-1.1 1.4-2.4 1.5-3.6 2.1-.7 2.8-2.1 3.3-3.7 2.2-.5 2.7-1.6 2.7-3.9 0-1.1-.2-2.2-.1-3.4.1-1 .1-2.1-.9-3-.6-.5-1-1.4-1.1-2.4 0-.9-.7-1.4-1.5-1.8-.7-.3-1.3-.1-1.8.7-.2.4-.8.6-1.2.9-.1.7.8.9.7 1.5-1.5 1.6-2.5-.3-3.5-.8-.9-.4-1.6-.8-2.6-.8-.8 0-1.8-.2-1.9-1.2-.3-1.7-1.8-1.8-2.8-2-1.8-.5-1.9-.3-2-2.1 0-.7-.4-1.2-.8-1.7-.7-.7-1.4-1.6-2.2-2.2-.7-.6-1.1-1.2-1.1-2.1-1.7.9-3.1 0-4.6-.4-1.1-.3-2.1-.8-3.4-.9-1.2-.1-2-1.1-2.9-1.8-1.1-.9-2.2-1.9-3.3-2.7-1-.7-2.2-1.1-3.1-.4-2 1.5-4 .9-5.7.1-2-.9-4-1.4-6-2.3-2-.9-3.9-1.9-6-2.7-1.6-.6-3-2-4.4-3.1-.6-.5-1-1.2-.4-2.2.8-1.3.1-2.8-.7-3.7-1.7-2.2-3.8-4.2-5.8-6.2-.6-.5-1.2-1.2-2-1.1-.6-.8.3-1.3-.1-1.9-1.1-.8-2.5-1.3-3.1-2.8-.1-.2-.3-.3-.4-.4-2.6-1.2-3.6-3.7-4.8-5.9-.7-1.3-1.2-2.2-2.8-2.2-.4 0-.7-.3-1.1-.4-.5 1.3 0 3.6.9 4.3 1.5 1.2 2.5 2.8 3.6 4.3.7.9 1 2.2 2.3 2.6.5.1.6.7.6 1.1.3 1.3.9 2.6 1.6 3.7.4.8 1.7 1.4 2.5 2.1.1.1.1.2.2.3-.1.6-.4 1-1.3 1.2-.4-1.2-1.4-1.9-2.4-2.6-1.2-.9-2.3-1.6-2.4-3.4 0-1.5-1.5-2.1-2.7-2.5-1.3-.5-2.4-1.2-3.5-2.3.4-.1.9-.1 1.2-.3.7-.3.9-.9.4-1.6-.4-.5-.7-1-1.2-1.2-2.4-1.1-3-3.6-4.2-5.6-.7-1.2-1.5-2.4-2-3.7-.3-.8-1.3-.9-2.1-1.3-1.4-.7-2.9-1.5-4.7-1.4-.3-1.3-1-2.3-2-3.1-1.1-.8-1.3-2.3-2.1-3.3-.4-.5-.8-1.4-1.4-1.8-1.6-1.2-2.3-3.2-2.6-4.8-.3-1.9-.2-3.9-.8-5.8 1.1-1.2.4-2.8.9-4.1.8-2.1 0-4.1-.5-6.1-.1-.6-.8-1-.5-1.9.2-.7-1.4-.5-1.5-1.5-1.1.5-1.6-.6-2.2-1.1-1.4-1-3.4-.9-4.5-2.7 2.2-.5 4.1 1.1 6.2.7.8 1.1 1.6 2.1 3 2.6 1.4.4 1.5 1 .8 2.3.6.5 1.5-.1 2.1.5.2.3.1.5.1.8-.1.2-.2.5.2.6 1-1 1.3-1.9.4-2.8-1.1-1.1-2.2-2.4-4-2.5-.5 0-.9-.3-1-.8-.3-1.1-1-.8-1.7-.7-.4 0-.9 0-1.1-.4-.5-.9-1.2-.9-2-.7-1.1.3-1.7 0-1.4-1.2.2-.7-.5-.3-.7-.9 0-.3.9-.3.8-.8-1-1-2.5-1.5-3-3.1-1.2.6-2 0-2.7-.9-.7-.8-.1-1.4.3-2-.5-.4-.9.1-1.3.1-.9-2.4-.9-2.4-3.3-2.2-1.8-3.1-4.9-4.8-7.3-7.3-.7.5.3 1.1.1 1.6-1 .6-1.3-.7-2.1-.8-.5.8-1.3 1.3-2.2.8-1.7-1-3.6-1.6-5.5-2.2.1-.4.6-.2.6-.6-.1-.1-.2-.2-.3-.2-1.5 0-3 0-4.5-.4-1.2-.3-2.9-.2-4.4-.1-.6.1-1.2 0-1.7-.1-2.3-.8-4.7-1.4-7.1-2-.9-.2-1.6-.2-2 .2-.7 1.1.8 1.1.1 2.1-2.5-.4-4.7 1.3-7.3 1.9 1.1-4.3 1.2-3.4 4.1-4.2-.7-.7-1.5-.7-2.1-.3-1.5 1.1-3.6 1-4.7 2.9-.5.8-2 .4-2.7 1.5.4.4 1.3.1 1.5 1-1.3.6-2.4 1.5-3.9 1.8-1 .2-2.4.3-2.8 1.7 0 .1-.3.3-.4.3-2 .4-3.7 1.5-5.5 2.2-2.1.9-4.5 1-6.7 2-.4.2-.7-.1-1.3-.2 1.5-1.1 2.8-2.1 4.6-1.3.7-1.3 2-1.8 3.3-2.2.6-.2 1.1-.6 1.6-.8 1.7-.6 2-2.2 2.9-3.5-1.2-.2-2.3.2-3.1-.5-.7.1-.3.9-1 1.1-1.4-1.2-3-1.4-4.8-.7-1.4.5-1.6.2-1.8-1.5-.1-1-.6-1.7-1.6-1.3-2 .7-3.6.4-5.2-1 0-.5.6-.7.8-1.1-.9-.9-2.4 0-3.1-1.5.8-.8 1.5-1.6 2.4-2.4 1.1-.9 2-1.5 3.4-.9.3.1.7.1 1 0 1.4-.9 3.1-.8 4.6-1.2.4-.7-.1-1.1-.4-1.5-.4-.6.8-.4.4-1.1-.9-.5-1.9 0-2.8.4-.9.4-1.8.5-2.8.3-1.5-.3-3.1 0-4.7-.1-1.8 0-1.9-.1-2.2-1.9l-3-.6c.1-.4.4-.5.7-.5 2.3-.2 4.4-1 6.6-1.5.9-.2 1.5-.2 2.3.5 1 1 2.5.5 3.7.4.9-.1 1.8-.5 2.8-.9-1.9-.1-3.3-1.8-5.3-1.4-.2.1-.6.1-.8 0-2-1.7-4.6-1.8-7.1-2.6.7-.8 1.3-1.3 2.3-1.3 2.2.1 4.2-.3 5.8-2 1.4-1.5 3.5-1.1 5.3-1.5.5-.1 1.3.4 1.3-.7 0-.3.8-.2 1.3-.1 1.9 0 3.7-.1 5.5-.9.8-.4 1.8-.6 2.4.6.2.4.7.4 1 .3 2.6-.6 5.1-.4 7.6.6 1.4.6 3.1.2 4.6.2 2.9-.1 5.8.5 8.7.6 1.2 0 2.4.3 3.7.2 2-.1 4 .2 5.9.8 2.3.8 4.9.4 7.2 1.3 1.2.5 2.4.6 3.6.6.8 0 1.6.5 2.1-.9.3-.7 1.7-.5 2.6-.4 2.7.2 5.1-.8 7.6-1.2 1-.2 2-.3 3 0-2.5.9-5.1 1.2-7.6 2.4.3.6.5 1.1 1.4.5 2.1-1.3 4.6-1.5 7-2 1.1-.2 2.1-.6 3.2-.9.7-.1.4-.6.2-1 .1.5.2.5.2.4zm125.2 133.3c-1.1 1.7-1.1 1.7.4 3.2 1.3-1 1.3-1.2-.4-3.2zm29.7-96.8c-1.4.3-2.9.6-4.1 1.5 1.7.3 3-.5 4.1-1.5zm-86.6-30c-.7-.9-.7-.9-2-.6.6.4 1.2.8 2 .6zm510.9 176.1c1.6.4 3.1 1.3 4.8 1.3 1.2 0 2.3 1 3.6.1.2-.2.9.2.8.8 0 .2-.1.6-.3.7-1.7 1-1.3 3.2-2.8 4.5 1.3 1 2.4 1.8 3.7 2.5 1.7.9 3.6 1.6 5 3.1 1.3 1.3 3.1 1.1 3.8-.6.6-1.7 1.3-3.3 1.1-5.3-.2-2.8.4-5.7 1.7-8.3.6-.1 1 .3 1 .7.3 2 1.8 3.6 1.8 5.7 0 .7.3 1.4 1.6 1.4 1 0 2.3.9 2.2 2.5 0 1.1.2 2.2 1 3.1.5.6.6 1.3.6 2-.1 1.7.7 2.8 2.3 3.4 1.3.5 2.2 1.9 3.5 1.7.5 1.9 2.2 3.1 2.1 5.2 1.8-.4 2.9 0 2.8 1.9 0 .5.5.9.9 1.2 2.5 1.8 4.6 3.7 4 7.2 0 .2 0 .6.1.7 1.3 1.7.9 3.4.3 5.2-.7 1.9-.1 4-1.6 5.7-.2.3-.3.8-.6 1-1.4.6-1.8 1.9-2.3 3.1-.5 1.1-.7 2.4-1.9 3.3-.9.6-.7 2-.7 3.1 0 1.2-.7 1.9-1.8 1.9-2.5-.1-4.3 1.4-6.3 2.4-1.7.1-2-1.9-3.4-2.2-1.5 1.8-2.8 2.2-5 1.3-.6-.2-1.2-.4-1.9-.5-2.5-.1-3.9-1.3-4.3-3.7-.1-1-1-1.5-1.2-2.4-.8-.3-1.4.6-2.1.1.4-1.7.4-1.7-.6-2.8-.7.7-.6 2.5-2.5 1.9 1.6-1.4 1.5-3.4 2.4-5.1-1.7 1.7-3.9 2.5-5.1 4.7-1-.7-.9-1.8-1.4-2.6-.7-1.1-2.2-1.6-2.4-3.2-.1-.5-.8-.4-1.3-.5-1.4-.3-2.8-.2-4-1.2-.3-.2-.7-.4-1.1-.3-2.4.4-4.8 0-7.1 1.1-.8.4-1.8.5-2.7.5-2.6.2-4.9.8-6.7 3-.9 1.1-2.5.8-3.7.6-1.5-.2-3-.1-4.4.2-1.2.2-2.3.8-3.4 1.5-1.8 1.2-4 1.4-5.8.2-.4-.2-.7-.5-1.1-.8-1.3-.9-1.3-.9-.1-2.1.8-.8 1.1-2.9.3-4.2-.9-1.6-1.7-3.1-1.6-4.9 0-.1 0-.3-.1-.4-1.4-1.8-1.8-4.3-3.2-6.1.5.2.4-1.3 1.3-.5.2.2.6-.5.4-.9-.2-.5-.6-.9-.9-1.3-.7-1.1-1.2-2.1-.3-3.4.4-.5.5-1.2.3-1.9-.2-.6-.3-1.3.4-1.9.4-.2.3.7.8.4 2.2-1.5 4-3.9 7.1-3.7.7 0 1.1-.7 1.7-.8 1.2-.1 2.3-.9 3.6-.8 1.4.1 2.7-.8 3.5-2.1.3-.6.6-1.1 1.2-1.5.3-.2.7-.5.5-.9-.6-1.5.5-2.1 1.3-2.9.9.1.8 1.1 1.4 1.3.4 0 .6-.5 1-.4.1-.6-.9-.8-.4-1.5.4-.5 1 .1 1.6 0 .2-.9-.3-2.3 1.5-2.1.1-1.3 1.2-1.5 2-2.2 2.7-2.3 4.1-.9 5 1.6 1-1.2 2.2-.5 3.2-.1 1-.8-.1-1.1-.2-1.8 1.1-1.5 1.9-3.3 3.6-4.6 1 .1 2.2.4 3.3-.1.3-.4 0-.9 0-1.3.1.2.2.1.2.1zm-346.1-186c1 .7 1.6 2 3.1 1.5.5.7.7 1.4.6 2.4-2.2-.5-4.5.5-6.5-1.6-.8-.9-2.2-1.8-3.6-.4-.6.6-1.7.3-2.7.4-.9 0-1.8.1-2.3 1.5 4.5.8 9-.5 13.3.9-1.4.8-3.1 1.3-4.9 1.5-.4 0-.9 0-1.3.2-3.2 2-6.8 1.9-10.3 2-.2 0-.5-.1-.5 0-1.6 1.9-3.2.6-4.8-.3-.1.6.1 1.4-.8 1.5-1.3.2-2.1 1.1-3 2-.9.9-1.9 1.5-3.3 1.4-.3 0-.6-.1-.7 0-.6.6-1.1 1.3-1.9 1.1-.7-.2-1.4.3-2 .2-.4-.4.4-.9-.4-1.5-1 0-1.5 2.1-3 1.6s-1.7 2.2-3.6 1.2c.7 1.4 0 1.7-.9 1.7.1.6.8.5.8 1.2-1 .1-1.7 1-2.3 1.6-.9 1-2 .4-2.8.9 1.7 1.1 1.6 1.4.5 3-.5.8-1.1 1.8-.8 2.9-1.2.5-2.3-1.2-3.6.6.1-2.2-2.6-1.1-2.3-3.2-1.6.7-3.2.2-4.6 1.2-.6-1.8-3.5-1-3.3-3.4-1-.4-2.6 0-1.9-1.9-1 .1-1.2-1.3-2.2-1.3-.3 0-.5-.1-.7-.5.3-1.3 2.1-.7 2.7-1.9-1.4-.4-2.5.5-3.7.8-.4-.5-.3-1-.4-1.5-.2-.6-.3-1.2-1.2-1.2-1.3-.1-1.1-1.4-1.6-2.2.4-.6 1.3 0 1.7-.7-.5-.4-1.2-.1-1.7-.3-.5-.4-.2-1-.5-1.5 2.3-.8 4.5.2 6.6-.2-1.3-1.6-3.5-.9-5-1.9.5-.7 1.1-.2 1.6-.2.8 0 1.6.4 2.5-.4.9-.8.3-1.6.5-2.3-1.9-.6-3.4.9-5.1 1-.9.1-1.8.2-2.7-.2-.6-.3-1.4-.2-1.3-1.2.1-1 1-.5 1.5-.8.1-.5-.6-.5-.5-1.1 2.4-.1 4.7.4 7.1 1-.4-1.6-1.8-2.1-2.8-2.7-1.1-.7-2.5-.5-3.8.4-1 .8-2.2.2-3.4-.3-.1-1 1.1-1.6.5-2.5.6-.5 1-.1 1.2-.2.2-.3.2-.5 0-.6-1.6-.9-2.9-2.1-4.1-3.5-.4-.5-1-.7-1.7-.8-.7-.1-1.6-.2-1.9-1.1-.2-.5-.8-.7-1.3-.7-2.5-.1-4.8-1-7.3-1.1-1.5-.1-3-.2-4.5.1-1.5.3-3.3-.2-4.6.3-2.2.8-4.1-.2-6.1-.2.3-.6 1-.4 1.3-1-2.3-.4-4.6.2-6.7-1 1-.8 2.1-.2 3.3-.3-1.6-2-4.1-1-5.8-2.1 0-.8.5-.9 1.1-.9 4.5 0 8.9-1.6 13.5-1.3 1.1.1 2.2 0 2.5-1.6-1.9-.8-3.9.4-5.7-.7.3-.9 1.1-1 1.9-1.1 3.5-.5 6.9-1.1 10.4-1 .8 0 1.7.3 1.8-1.1 0-.5.7-.4 1.2-.5 1.4-.1 2.7.2 4.1.5.6.1 1.3.3 1.9.1.1-.4-.5-.4-.3-1 3 0 6-.9 9.1-.5.6.4.3 1.1.7 1.5.3.2.8.2.9 0 1-1.6 2.4-1.1 3.8-.8.9.2 1.8.3 2.8.5-.2-.9-1-.7-1.3-1.5 2.3-.5 4.5.2 6.7.5 2.1.3 4.1.6 6.2 1 1.1.2 1.9-.1 2.2-1.4-.6-.7-1.7-.5-2.4-1.2.9-.7 1.9-.3 2.9-.4 3.3-.4 6.5-.1 9.7.5.8.2 2 .7 2.3-.8 0-.2.5-.3.8-.3.6-.1 1.2-.2 1.7-.1 7.9.1 15.7-.5 23.6.4 3.2.4 6.5 1 9.7 1.6-1.5 1-3.2.5-4.7.9-1.7.3-3.4.1-5.1.1-1.7 0-3.4-.3-5 0s-3.3-.2-5 .3c.2.8.8.5 1.2.5 2.2 0 4.4.1 6.6-.1 1.2-.1 2.4-.2 3.5.1 2.4.6 4.6.3 6.9-.1.9-.1 1.8-.4 2.8.3-1.4 1.4-3.6.9-4.8 2.4.7.7 1.3.1 1.9-.1 3.7-1.2 7.3-2.3 11.2-1.8.4.1.9 0 1.3-.2 3.4-1.3 6.8-.5 10.2.1.2 0 .3.1.5.6-3 0-5.6 1.4-8.4 2-2.7.6-5.6-.2-8.2.9 1.7.2 3.4-.4 5.2.3-.6.9-1.5.7-2.2.8-.8.1-1.5.1-1.9 1-.2.6-.7.8-1.2.7-1.8-.3-2.6 1-3.6 2.3 1.3.4 2.1-.8 3.1-.6.9.2 1.9 0 2.8.6-.6.7-1.3.1-1.8.6 1.3 1 3.2-.1 4.5 1.1-1.5.5-3.1.2-4.6.2-1.6 0-3 .8-4.6.4 1.2 1.2 2.8.8 4.1 1.1.6.1 1.2 0 1.7.4.4.3.7.6.5 1.2-.2.5-.5.7-1.1.7-.7-.1-1.4-.5-2.1.1 1 1.2 2.7.6 3.9 1.6-1.3.8-2.6.4-3.8.6-.4.7.9.7.5 1.4 0 .3-.2.4-.4.4-2.6.2-5.2.8-7.6-.6-2.5.8-5.2.4-7.7 1.1 0 0-.1.1-.1.2.8 1 2 .8 3.1.8 1.8.1 3.5.5 5.1 1.1.4 0 .9.1 1.4-.1zm-99.9-11.6c1.3.4 2.7.5 4.1-.3-1.6-1.1-2.8-.2-4.1.3z"/><path class="st1" d="M220.9 18c-.2-.7-1.1-.4-1.2-1.2 3-.7 6-1 9-.6.9.1 1.8.7 2.6-.4.1-.2.9-.1 1.3 0 1.5.3 3.1 0 4.6.5.8.3 1.1-.7 1.9-.7 1.9.1 3.7 1 5.6 0 4.6.8 9.2.3 13.8.8 1.6.2 3.3.4 4.9.8-2.4.9-4.8 1.4-7.4.9-1.6-.3-3.3.1-5.2.5 1.7 1.3 3.4-.5 5 .8-3.8.5-7.3 1.8-11 2.2-.5 1.9-2.2 1.3-3.5 1.4-1.4.1-2.8-.1-4.1-.2-.3.5.4.5.3 1h-3.3c-.4.6.4.9.1 1.4-4.7 2.8-4.1 2-6.8 1.8-.3.8-.8 1.5-1.8 1.6.6 1 1.8.2 2.3 1.1-.3.6-.8.6-1.4.7-1 .1-2.1.2-3.1.4-1.2.2-2.2.4-3.3-.5-.7-.5-1.6-.4-2.4-.1-.4.1-.7.3-1.1.3-1.8 0-3.5-.3-5.3 0-1.7.3-3.8.3-5.6-.4-.4-.2-.7.1-1.1.2-.8.2-1.6.3-2.5-.4 1.2-1 2.7-.8 3.9-1.2.2-.7-.7-.6-.6-1.1 0-.1.1-.2.2-.2 1.7-.1 3.4 0 5 .7 1.4.6 2.9.6 4.4.3-2.6 0-4.3-2.8-7.2-1.8 1.1-1.9 2.9-1.3 4.5-1.5 1.7-.2 3.3.5 5.1.2-2.7-1-5.6-1.5-8.3-2.7.4-.7.8-.6 1.3-.6 1.3.1 2.6-.1 3.9.2 2 .3 3.9.6 5.9-.5 1.3-.7 3-.2 4.5-.5.3-.1.8.1 1.1-.5-2.6-.6-5 .6-7.4.5-2.4-.1-4.9-.3-7.3.1-.4-.6.2-.8.7-1.3-3.5-.6-6.5.1-9.6 1 .5 1.2 1.2 1.9 2.4 1 .9-.7 2-.1 2.1.5.3 1.6 1.3 1.3 2.3 1.3.5 0 .9 0 1.6.1-1.8.8-3.6.6-5.1 1.6-.3.2-1.1-.1-1.7-.2-.4.4-.3 1.4-1.1 1.1-1.1-.4-2 .1-3 .1-2.5.2-5-.2-7.4-1.3-.7-.3-.5-1-1-1.3-1.9.6-3.3-.5-4.8-1.3.7-.1 1.4.1 2-.1.2-1 .2-1 1.8-1.3.1-.4-.4-.5-.4-.8 1.3-.5 2.7-.4 4.1-.8 1.2-.4 2.4.2 3.5.8 1 .6 2 .7 3.2.7 1 0 1.3-.4 1-1.4-1.1-.7-2.6.3-3.6-.9.6-.8 1.4-.7 2.2-.7 1.2-.1 2.5-.1 3.7-.1 2.2-.1 4.5-.1 6.7-.5 2.4-.4 4.9.1 7.4.3.9.1 1.8.3 2.7.2zM707 219.2c.4-.9.8-1.6 1.6-1.9 1.1-.3.7-1.2.4-1.7-1.2-2.6-3.1-4.2-6-4.6-1.9-.3-3.3-1.5-5.1-2.3-.4.4-.6 1.3-1.6 1.2-.2-1.2-.4-2.4-2-2.8.7-.8 2 .3 2.2-1.1-2 .4-2.4-1.9-4.1-2.2.9-1.7 2.5-2.4 3.9-1.8.4.2.8.3 1.3.5 1.1.3 1.8.7 1.4 2.1-.2.8 1.4 3.4 2.1 3.7.9.3 1.4-.4 1.7-1 .8-1.6 2.8-1.7 3.8-3 .4-.5.9-.1 1.4.1 3.5 1.7 7.2 2.6 10.8 3.9 1.8.6 3.5 1.5 5.2 2.6.8.5.9 1.2.7 1.9 1.4 1.2 3.7.6 4.6 2.6-.4.7-1.2.2-1.7.8 0 .1-.1.2 0 .4.2.7.6 1.2 1.2 1.5.8.4 1.3 1 1.6 1.8.2.4.4.9.9 1 1.8.3 2.6 2.1 4.1 2.9.1.1.1.3.1.5-.3.5-.8.4-1 .2-.8-.7-1.7-.9-2.7-.9-2.9-.1-4.7-1.7-6.2-4-1-1.5-4-1.9-5.3-.8-.4.4-.9.7-1.5.7.3.5.5.8.7 1.2-.2.1-.4.3-.6.4-1.6.9-4.5.5-5.7-.7-1.5-1.5-2.6-1.7-4.7-.8-.5 0-.9 0-1.5-.4zm-42.2-20.6c-3.1.4-3.2.6-2.8 3.8-.7.4-1.6.7-2.1 1.5-.2.4-.5.7-.6 1.2-.4 3.4-.6 3.6-3.7 4.9-.4-.8-.4-2.4-2.2-1.5-.3.1-1-.8-1.7-1-.5.9-1.5.7-2.3 1-.4-.3-.1-.9-.7-1.3-.9.4-2 .3-3.2 0-.1-.7-.1-1.5-.2-2.3-.1-.4 0-1-.4-1.3-1.1-.9-1.2-2.1-1.8-3.3-.8-1.7-.1-2.8.8-4.2.9.9 2.2.7 3.2 1.4.6-1.9 1.3-3.5 3.5-3.6.6 0 1.1-.5 1.6-1.1 1.2-1.6 2.4-3.2 4.6-3.4 0-1 1.1-1.2 1.5-1.9.5-.8 1.1-1.5 1.6-2.2.4.1 1.1-.1 1.3.3.7 2 2.8 2.1 4.2 3.2-.4 1-1.3.7-2 .9-.3.6.6.7.3 1.4-1.2 0-1.5 1.3-2.4 1.9.4 1.1 1.6 1.8 1.4 3.4 0 .8 1.7 1 2.1 2.2zm-164.9 38c1.7-.7 3.5-.8 5-1.8 1.4-1 2.9-1.9 2.6-3.9 1.7-.1 1.9-.4 2.5-3 1 .4 2 1 2 2 0 2 1.8 3.9.7 6-.8 0-.8-.7-1.3-.8-.5.8.5 1.4.4 2.3-1.4 1.1-.9 2.9-1.4 4.4-1.3 3.8-2.5 7.6-3.7 11.5-.2.7-.4 1.4-.6 2-.4.9-.9 1.6-2 1.5-.3 0-.7 0-.9.2-1.5 1.4-2.8.1-3.9-.5-1-.5-1.6-1.9-1.3-3.2.1-.7-.1-1.2-.4-1.8-.8-1.4-.6-2.3.5-3.5.6-.7 1-1.5 1.4-2.3.4-.7.3-1.4.1-2.2-.4-1.8-1.7-3.6-.1-5.4.4-.6 0-1.1.4-1.5zm196.2-108.3c-1-.6-1-1.3-1.4-1.8.6-1.6 2.7-.8 3.7-2.2-2.4-.4-4.3 1.4-6.6.9.2 1.3 1.1.8 1.7 1 .5 2.3-.4 4.1-2 5.7-.4-.4-.9-.5-1.4-.6-.3-1.2.2-2.3.7-3.1-.5-1-1-.1-1.4-.2-.5-.2-.8-.6-1-1.3 1.3-.5 2.4-1.2 3.4-2.2 1.1-.9 2.5-1.8 3.7-2.7.7-.5 1.5 0 2.3-.1 1.3-.2 2.6-.9 3.9-.1.3.2.9-.1 1-.4.3-1.3 1.8-1.7 1.9-3.1.1-.7.6-.9 1.3-.9.5.6-.7.9-.2 1.5 2.4-.7 4.4-2 5.7-4.2.5-.8.7-1.5.5-2.5-.4-1.9.4-2.6 2.4-2.2 0-.6-.5-1.1-.3-1.7-.9-.5-1 .8-1.9.5.2-.9-.4-1.6-.8-2.3.3-1.1 2.1-.7 1.6-2.2.7.2 1.1.3 1.7.4-.2-1.2 1.4-1.6 1.2-2.9-.1-.3-.1-.6-.3-.9-.2-.4-.2-.8.2-1.1.5-.3.8 0 1.2.3.7.6 1.5 1.3 2.3 1.8 1.4.9 2.9 1.6 4.6.3-.6.9-.1 1.5.3 2.2-.8 1-1.8.8-2.8.9-1.1.1-1.5 1.4-2.3 2.1-1.7-.7-3.3-2.2-5.3-.6 1.4 1.5 1.9 3.6 2.7 5.6.4 1-.6 2.1-1.4 2.8-.8.6-1.2 1.1-.8 2.1.2.6-.1 1.1-.4 1.6-.2.4-.7.8-.4 1.2.8 1.6-.7 2-1.2 2.8-.7-.2-.3-.7-.6-1-1 .1-1.5.8-1.9 1.6-.5-.1-.7-.9-1.2-.4-1.2 1.2-2.4.6-3.6.1-.6.4.1.7.1 1.2-.9.3-1.8.7-2 1.8-2-.5-2.1-.6-1.9-2.4-.7-.1-1.5-.4-2.1.2 0 .9.9.5 1.1 1.3-.1.5-.5 1.5-1.2 1.3-1.6-.2-2.3.6-2.8 1.9zm-60.3 77.4c-.2-.4-1-.1-.9-.8.1-.8.9-.5 1.5-.7-.1 1.4 1.8 1.8 1.4 3.3-.5-.1-.9-.3-1.2-.3-.9 2.2-.1 4.4-.6 6.5-1-.5-1.9-.5-2.8.3-1.2-1.4-2.8-2.5-4.1-3.9-1.7-1.8-3.9-3.1-4.6-5.8-.4-1.5-1.4-3-2.8-3.9-.9-.5-1-1.5-1.3-2.3-.3-.9-.7-1.6-1.6-2-.4-.1-.9-.4-.9-.6-.4-1.9-1.9-2.6-3.3-3.6-1.1-.8-2-2-2-3.4.6-.5 1-.2 1.4.1.6.5 1.2.8 2 .7 1.7-.4 2.6.7 3.2 1.9.4.7.8 1.2 1.4 1.5 1.2.7 2.5 1.4 3.2 2.6.6 1 1.8.4 2.4 1.4.5.8 1.6 1.1 2.1 2.1.2.5.9.6 1.4.6.8 0 1.3.5 1.7 1.1.2.7-.6 1.1-.7 1.7.3 1 1.4.6 2 1.2.2 1.5.9 2.6 2.6 2.9.2.2.4.6.7.3.3-.4 0-.7-.2-.9zM401.3 83.2c1.3-.5 2.6-.7 3.2.4.8 1.5-1.3 1.4-1.6 2.4.2.6.9.1 1.1.7-.7.8-1.9 1.2-2.9 1.1-2.3-.2-4.6.6-6.9.2-.2 0-.5 0-.6.1-1.1 1.6-2.7.2-4 .5.9-.9 1.7-2.1 3.5-1.9-1-1.4-2.5-.7-3.6-1.2.3-.8.9-.6 1.3-.8 1.1-.6 1.2-.8.1-1.7 1.2-.7 1.2-.7 3-.8.2-.8.7-1.6-.6-2.1-.6-.2-.1-.8-.1-1.3-1.2.1-2.4.4-3.7.2.4-.9 1.2-1.6.4-2.5-.9-.2-1.1.6-1.5 1.3-.3-1.2.3-1.9.6-2.8-.5-.1-1 .6-1.4.1.5-1.6 1.1-3.1 2.4-4.5 1.2.5 2.6-.4 4.1.1-.5 1.1-1.9.8-2.4 1.9h4.6c.4 1.6-1.5 2-1.4 3.5 1.2.5 2.4 1.1 2.8 2.5.1.4.5.6.9.7 1.8.4 1.9 2.3 2.9 3.3.1 0-.1.2-.2.6zm46.4-58.6c.2-.9.9-.5 1.1-1.2-2.1-.2-4.2-.1-6.5.1 1.4 1.5 3.4.8 4.8 1.8-.3.4-.7.5-1.1.5-1.5-.1-2.7.3-3.4 1.7-.3.6-.9.7-1.5.9-.4.1-.9.1-1.2.5-.6.7-1.1 1.6-2.2 1.2-1.5-.6-3.5-.2-4.5-1.8-.3-.5-1-.3-1.1-1.1 1.3-.2 2.6-.2 4-.8-.8-.6-1.5-.9-2.3-.5-3 1.2-3.4 1.1-6.6-.4.1-.5.9-.1.8-.8-.8-.1-2 .6-2.7-.9 1.9-.2 3.6-1.1 5.3.1.5.3 1.3.6 1.6.2 1.2-1.3 2.2-.5 3.2.2.3.2.7.4 1.1.2.3-.4-.4-.8.1-1.5 1.3.3 3-.3 4.1 1.4.6.1 1-.5 1.5-.5.2-.5-.3-.5-.4-.8.4-.6 3.5-1.5 4.2-1.2 1.6.5 4.7.5 6.1-.2.4.7.9 1.2 1.9.6.7-.4 1.6-.5 2.4 0 .8.5 1.6.1 2.5.2.8.1 1.5 0 2.3.5-4.3 1.7-8.9 1.7-13.5 1.6zm78.6 12.8c.2.7 0 1-.6 1.3-1.6.8-1.6 1.9-.3 3 .7.6 1.7.8 2.5 1.4-2.5.1-4.9.8-7.5-.1-.3-.4.5-.4.6-.8-1.2-.5-2.4-1-3.8-.6-.8.2-1.6.2-1.9-.8.8-1.2 2.7.1 3.3-1.5-.1-.4-.5-.2-.7-.4 1.1-1.2 2.8-.8 4.1-1.2.1-.8-.8-.4-.8-1 .2-.4.7-.5 1.1-.6 1.7-.1 3-1 4.1-2.3.2-.2.5-.4.9-.4 2.7-.4 5.1-1.8 7.9-1.6.6 0 1.1-.1 1.7-.5.6-.4 1.2-.4 1.9-.3 2.8.5 5.6-.2 8.3-.6 1.6-.3 3.3-.5 4.9-.8.7-.1 1.6-.1 2.2.6-.6.9-1.5.9-2.4 1.1-4.7.7-9.5 1.3-14.3 2-.8.1-1.7 0-2.2.9-.1.2-.6.5-.8.4-1.7-.3-3 1-4.5 1.3-.2 0-.5 0-.6.3-.5 1.3-1.7 1.3-3.1 1.2zm-248 343c.8-1.3 1.7-2 3-2.2.8-.1 1.7-.2 2.5-.3 1.7-.1 3.3-.2 4.1-2.2.4-.9 1.5-1.2 2.4-1.4 3.3-.7 6.7-.5 10.1-.4.4 0 .9.2 1.3.4 1 .4 1.7 1 1.8 2.1.1 1.2-.7 1.9-1.7 2.4-1.2.5-2.5.6-3.8.7-6.2.3-12.4.7-18.6 1-.4-.1-.7-.1-1.1-.1zm77.9-327.1c1 .8 1.7 1.3 2.5.4.1-.1.6-.2.7-.1 1.1.9 2.4-.4 3.5.2.1.1.4.1.6 0 2-1.6 3.6-.6 5.2.7.3.3 1 .2 1.5.3.4.1.7.4.8.8.1.4-.2.8-.5 1-2.2 1.2-4.7 1.9-7.2 2.4-.6.1-1.3.1-1.9.4-1.2.7-2.6.6-3.8.2-1.8-.6-3.7-.7-5.6-.7-.3 0-.5 0-.7-.3 0-.6.8-.4.8-1-.9-1.3-2.5-.2-3.8-.8 1.2-1 2.9.1 4-1.1-1.6-1.5-3.6.5-5.3-.8 1.2-.1 1.6-1.9 3-1 .3-.7.7-.9 1.6-.8 1.3.3 2.5.3 2 2.3 1.4-.2 2.5-.3 2.6-2.1zm-234.8-13c1.2-1.3 2.1-2.8 3.7-3.4-.2-1.1-1.3-1-1.6-2 3.2.2 6.3-.6 9.4.1 1.7.4 3.3.6 5 .5 2.1-.2 4 .3 6.1 1.4-1 .2-1.8.5-2.6.5-2.7.2-5.1 1.5-7.5 2.4-.7 2.2-2.7 1.6-4.2 2.1s-2.7.7-3.9-.4c-.7-.6-1.7-.8-2.7-.9-.6 0-1.2.1-1.7-.3zm649.5 262.5c1.5-1.8 3-3.5 5.3-4.5 2.1-1 4.5-1.7 5.7-4.2.5-.9 1.7-1.4 1.9-2.7 0-.5.7-.4 1.2-.2.5.3.6.8.9 1.2.6.1 1.1-.5 1.8-.3 1.2 3.1-2 3.4-3.2 5 .1.3.7.2.6.9-2.3-.4-3.4 1-4.3 2.9-1.4 3.2-3.4 4-6.7 2.7-.6-.2-1.1-.6-1.8-.2-.4.2-.9.1-1.4-.6zm-96-99.9c-1.7.2-2.5 1.6-4 2.3.9 1.1 1.9 2 1.7 3.6-.1.6.8.8.9 1.6-.9 0-1.5.7-2.2 1.2-1.3-.4-.1-1.9-1.2-2.3-1.1-.4-.5-1.4-.6-2.2-.8-.3-1.4-.2-1.3.7.1 1.1-.2 2.2 0 3.3.3 1.8-.2 2.1-2.1 2.1-.7-1.4 1.7-3.7-1.2-4.8-.4-.8-.2-1.6.4-2.6.7-1.4 1.1-3 1.3-4.5.3-1.9 1.7-2.5 2.9-3.4.3-.2.7 0 1.1.2 1.8.8 3.8.7 5.7.6.5 0 1-.3 1.2-.8.2-.4.5-1 1.1-.9-.3 2.4-1.9 3.6-4 3-1.9-.6-3.7-.1-5.6-.3-.7-.1-1.2.5-1.4 1.2-.2.6-.2 1.3.4 1.8.8.7 1.3 1.9 2.8.4.7-.7 2.5-.6 3.8-.9.1-.1.3.2.3.7z"/><path class="st1" d="M196 31.9c-.6-.6-1.5-.6-1.9-1.5 2.4-.5 4.7-.3 7 .3-.3.3-.4.5-.6.7.1.1.1.2.1.2 1.8.9 3.7 1.2 5.7.6.5-.1 1.1.2 1.7.4.5.2 1 .3 1.5.1 3.1-1.1 6.3-1.1 9.4-.9 1.7.1 3.4.7 5.2 1.3-1.6.1-2.3 2.1-4.1 1.7-1.5-.3-3.2.4-4.4-1.5-.4 1.5-1.3 1.4-2.2 1.4-2.2-.2-4.5-.2-6.7.1-.8.1-1.7.2-2.3-.6-.4-.5-1-.3-1.4 0-1.1.7-2.2.6-3.3.2-.4-.2-.9-.3-1.5-.2-1.9.4-2.5-.3-2.2-2.3zm38 328.4c.2-1.1.8-1.3 1.6-1.3h2.3c2.1 0 2.8-.5 3.4-2.4.3-1.1-1.1-1.2-1-2.1 1.8-1.4 3.5-1.4 5 0 .9.8 1.8 1.7 2.6 2.6 1.7 1.8 1.1 3.8-1.4 4.6-1.9.6-3.8.5-5.8.5-.6 0-1.3.1-1.9-.1.3-.9 1.3-.7 1.8-1.5-2.2-1.2-4.5 1.5-6.6-.3zm35.2-266.1c1.2-.7 1.2-2.4 2.5-2.9.3-.1.3-.2.3-.5.2-2.2 2.8-4.7 4.9-4.9.2 0 .4.1.5.1-.5 1.2-1.5 2.1-2.4 3.3.9 0 2.2-.9 2.1 1 0 .3 1.2.8 1.9.4.9-.5 1.7-.1 2.6.1.3.8-.7.7-.7 1.3.3.8 1.1.2 1.6.3.2 1-.9.7-1 1.4.8.2 1.5.6 2.1 1.3 0 .6-.3 1.1-.7 1.5-.8.2-1.4-.6-2.2-.6-.2-.4.4-.9-.1-1.4-1.4 0-2.2 2-3.9 1.5.3-.7 1.3-.5 1.5-1.4-2.8-.1-5.8-.1-9-.5zM147.4 34.3c1.9-.7 3.9-.6 5.9-1-4.3-.6-8.7.8-13-.3.3-.8 1-.6 1.4-.7.5-.2 1.5.1 1.1-1.1-.1-.3.3-.4.6-.4 1.6-.2 3.2-.8 4.8.1 1.1.6 2.3-.3 3.4.4 1.7 1.2 3.7 1 5.7 1 .4 0 .8 0 1.1-.4-.5-.9-1.5-.9-2.4-1.3.8-.5 1.5-1 2.5-1 .7 0 1.4 0 1.7.7.7 1.8 2.3 1.6 3.4 1.2 1.2-.4 2-.1 2.9.2.3 1.3-.3 1.8-1.4 2-1.1.2-2.2.3-3.3.1-2.5-.5-4.8.2-7.1.7-2.5.6-4.9.7-7.3-.2zm650.4 250.1c-.3 2.4-.8 2.9-3.2 3.6 0 2.1-1.7 3.1-2.9 4.5-.6.7-1.5.8-2.2-.2 0-.7.7-1.2.9-2-.5-1.4-2.4-1-3.3-2.3 1.5-.5 2.3-1.6 2.3-3.1s-.8-2.6-1.9-3.7c-.9-.8-1.8-1.7-2.2-2.9 2.2-.1 2.9.4 3.7 2.2.2.5.5 1.1.7 1.6.4 1.1 1 .9 1.9.3 1.1 3.4 3.5 3 6.2 2zM377.9 84.5c1.4-.3 1.4-.3 2.1-2.1-.3-.6-1-.2-1.4-.6.5-.6.1-1.2-.2-1.8 1.1-.5 2-.1 3-.3.8-1.8 1-1.9 3.1-1.8.4 0 .9-.2 1.3-.2 1-.1 2-.1 2.4 1.1.4 1.1-.2 1.7-1.1 2 .2.6.4 1.1.4 1.6 0 .9-.2 1.8-1.2 1.9-1.9.2-3.5 1.2-5.4 1.6-1.5.4-2.1.2-3-1.4zm338.3 13.8c-.6-.5-.5-1.1-.4-1.8.2-1.3.9-2.6.3-4-.1-.3 0-.6.1-.9.6-2.1 1.2-4.3-.3-6.3-.3-.4-.3-1 0-1.5s.2-1 0-1.6c.7-.4 1.5-.3 2.1-.8 1 .8 1.5 1.7 1 2.8-.4.9-.2 1.8.3 2.6 1 1.7 1.7 3.5 2.9 5.1-.4.3-.6-.1-.9-.2-.9-.3-1.9-1.2-2.8-.1-.8 1-.8 3 .1 4 .2.2.5.4.8.6.6.5.6 1.1.2 1.8-.6-.3-.8-1.4-1.8-1.1-.8.3-.8 1.2-1.6 1.4zm-47.6 69.9c-1.8-.7-1.4-2.4-1.7-3.8.3-.6.7.1 1.1-.1.1-1.1.2-2.3.3-3.5.2-1.5.7-1.9 2-1.3.6.3 1.3.1 1.9.3 0 .8-.3 1.6.4 2.4.7.8 0 1.6-.6 2.2-1.9 2.1-2 2.2-.2 5 .8-.5 1.7-1.2 2.4.3.2.4.8-.3 1.4 0-.3.7.1 1.3.5 1.9-1.5.9-1.4-1.9-3-1.1-.9.5-1.9-1.8-3-.1.8.9.9 1.9 0 2.8-.9-.5-.9-1.6-1.4-2.3 0-.6.6-.2.9-.7.1-.6-1.2-.9-.5-1.7.3-.1.5-.3.3-.5-.3-.2-.6-.1-.8.2zm-32.7 45.5c1.6.8 3.5.2 5.1 1 .2.1.5 0 .8.3 1.7 1.5 3.6 1.5 5.2 0 .6.4 1.2.9 2 .9.9.1 1.9.1 2.2 1.4.1.6 1 .7 1.7.7.6 0 1.2-.2 1.7 0 .2.6-.3 1.1.1 1.8-2.2-1-4.5-.3-6.7-.7-.8-.1-1.5-.2-2.2-.6-1.4-.6-2.7-1.1-4.3-.7-.9.2-3.2-.8-4.4-1.7-.6-.4-1.3-.2-1.9-.4.2-.6 1.3-1.1.7-2zm-422.8-61.6c.1-1.6 1-2.2 2.3-2.5 3.2-.8 6.4-.9 9.4.9.9.5 2.2.5 3.1 1.1 1.3.9 2.7 1.2 4 1.8 1.3.7 2.9 1 4.1 2.1-2.4 1.2-4.8.3-7.1.8-.3-.8.6-.9.5-1.5-.3-.6-.8-.5-1.3-.5-.5-.1-1.2-.1-1.3-.6-.3-1.3-1.2-1.2-2.3-1.3-1.8-.2-3.4-1.4-5.3-1.2-2-2.2-3.4.1-5 .7-.4 0-.8.1-1.1.2zM172.8 38.6c.8-1 1.5-.6 2.2-.3 1.2.6 2.4.5 3.3-.6-.3-.7-1.3-.4-1.7-1.4h8.8c-.6.9-1.5.9-2.4 1.5 1.1.8 2.6.4 3.7 1.2-.8 1.2-1.1 2.9-3.2 2.1-1.9 1.7-3.4.1-5-.6-.7-.3-1.4-.6-2.2-.6-1.2 0-2.3-.6-3.5-1.3zm46.6 19.6c1.1 0 2.3-.1 3.4.6-2.5 1.4-4.5 0-6.6-1-.9 1.4-2.6 1.5-3.9 2.2-.9.5-1.3-.4-1.6-1.1-1.1.1-2.1.3-3.2.4.1-1.3 1.3-.9 1.9-1.5-.2-.8.1-1.6.6-2.4 1-1.6 1.3-1.6 2.3 0 2.1-.4 6.4 1.3 7.1 2.8zm453.8 125.4c-.6.5-.6 1.2-1.2 1.5-.3-1.3-.2-1.6 1-2.4 1-.6 1.9-2 3.2-.1.9-1.5 3.2-1.4 3.5-3.4 1.9 1.3 2.6 4.3 1.3 6.6-.5-.2-.5-.7-.8-1-1.7.9.7 2.6-1 3.5-.4 0-.4-.9-1.4-.8-1.2.1-1.9-1.2-1.6-2.5.2-.6.1-1-.4-1.3-.4-.3-.8-.3-1.2.1-.3.4-.8.1-1.4-.2zm-433.7-24.5c-.1-.7-.2-1.3-.3-1.8-.4-.6-1.3-.1-1.5-1 4.1-.1 8.1-.3 11.4 2.9-.2.5-.4 1-1 .7-1.1-.7-2.1-.2-3.1-.2-1.3 0-2.1.3-2.7 1.6-1.4-1.9-3.2-1.1-4.9-1.3-1-.1-1 .1-1.8-.9 1.2-.6 2.5.4 3.9 0zM199.9 36.3c-2 2.1-4.3 2.9-7 2.3-.3 1.4-2 2.1-3 1.3-.7-.6-1.8-1.3-1.4-2.3.4-.9 1.2-1.8 2.4-1.9.6 0 1.2-.1 1.8 0 1.9.2 3.7.4 5.6.2.5-.1 1.1 0 1.6.4zm530.3 254.9c1.2 3.5-1.2 4.8-3.2 6.4-1.1-.2-2.3-.5-2.6-1.6-.4-1.6-1.6-2.8-2.1-4.8 2.8.7 5.3 1.5 7.9 0zm-586.5-263c-1.1 1.1-2 1.9-3.2 2.3-.8.2-1.3.3-1.9-.3-.6-.7-1.2-.7-1.9-.2-1.5 1.3-3.1 2.3-5.2 1.1-.3-.2-.9.1-1.3.1-.7.1-1.4.2-1.9-.6 4.8-1.7 9.9-2.6 15.4-2.4zm37.3-.9c-1.4.6-2.5.7-3.4.1-1.1-.7-2.3-.8-3.5-.8h-4.3c-.7 0-1.5 0-2.1-.7.6-.8 1.6.1 2.3-.6-1-.8-2.4-.4-3.4-1.1 1.7-.5 3.5-.7 5.1 0 1.5.6 3 .8 4.5.8 1.8.1 3.4.6 4.8 2.3zm398.2 151.8c2 1.2 2.7 3.4 3.6 5.5.4 1.1-.9 2.5-2.2 2.7-1.1.2-1.7-.2-2-1.7-.4-2.2-1-4.4.6-6.5zM173 32.1c.8-.6 2-.4 1.7-1.7 1.2-.1 2.3.9 3.2-.2.2-.2 1-.1 1.5 0 .8.2 1.5.3 2.3 0 .7-.2 1.6-.3 2.1.6.4.8 0 1.3-.6 1.8-.2.2-.2.6-.3 1-1.7-.1-3.3.3-5-.1-.3-.6.6-.7.3-1.3-1.5-.5-3.3.7-5.2-.1zM36.2 376.9c3.2-1.8 7.3-1.5 12 .7-4.1 1.9-7.9.1-12-.7zm136.5-16.1c5.2-.9 10.1-1.5 14.9.5-4.9 1-9.7.3-14.9-.5zm496.4-208.9c-2.4-3.2-1.7-5.6 2.1-7.4.4 2.8-1.2 4.9-2.1 7.4zm69.5 61.2c-.7.2-1.3.2-2 .8-1.6 1.3-4 1-6.1-.8 1.3-.4 2.6-.1 3.9-.3 1.3-.2 2.8-.6 3.3-2 .3-.8.8-.6 1.2-.6.7.1.8.8.4 1.2-.6.6-.4 1.2-.7 1.7zM644 160.2c-.8-.3-1.7-.5-1.8-1.7 0-1.2.9-1.5 1.6-1.9 1.5-.8 2.5-.8 3.5 0-.9 1.4-1.5 3.1-3.3 3.6zm39.4 59.5c-2.6 1.3-5.3 2.2-7.8 4.4.1-3 3.8-4.9 7.8-4.4zM182.1 25.4c2.8-.4 5.2.2 7.8.8-2.7 1.7-5.6 1.3-7.8-.8zm504.3 177.4c-2.3-1.7-2.8-4.3-1.5-6.3.1 0 .3 0 .3.1.3.2.3.6.3.9.4.4.8-.5 1.2 0 .6.7-1.3 1.6.3 2.2-.5.7-1.2-.2-1.8.6-.1.7.6 1.4 1.2 2.5zm-11.7-22.3c-1.1-.3-1.5-.7-2-1.3.3-.8 1.4-1.3 1-2.6-.7-.1-1.1.7-1.9.6.1-.9.1-1.8.2-2.7 1 .4 2.1.4 2.6 1.7.1.4.5.7.3 1.1-.5.9-.6 1.9-.2 3.2zM231.4 51.1h-.6c-.6 0-1.2-.1-1.4-.8-.1-.7.5-1 1-1.3.9-.5 1.9-.6 3-.2.5.2.8.4.8.9s-.2.9-.7 1c-.8.3-1.4.5-2.1.4zm-74.3-23.8c-2.4 1.3-4.9 1.3-7.5.4 2.5-.8 5-.7 7.5-.4zm35.3 3.4c-2.2 0-4.4.1-6.7-1.4 2.5-.3 4.7-.1 6.9.6-.1.3-.2.6-.2.8zm474.8 189.2c.6-1.1 1.4-.9 2.1-.7 1.7.6 3.3.7 4.9-1.1-.9 2.4-4.1 3.1-7 1.8zm-4.7-1.7c1.1.9 2.4.4 2.9 1.8-1.4.3-2.8.6-4.1.9-.5.1-1 .1-1-.6s.4-.9 1-.9c.5 0 1.6.8 1.2-1.2zm23-11c1.6 0 3.1-.1 4.5 0 .9.1 1.7.6 1.7 1.7-.2.3-.5.2-.7 0-1.2-1.1-2.8-.7-4.2-.8-.9.1-1-.2-1.3-.9zM97.4 71.6c1-.9 2.5-.6 2.7-.1.5 1 1.6 2 1.1 3.6-.9-.9-1.5-1.6-1.3-2.9-1 .6-1.7.4-2.5-.6zm-40.2 1.7c1.4-1.1 3.7-1.5 4.9-.8-3.7 1.4-3.7 1.4-4.9.8zM18.8 59.1c2.1-.3 4.1-.2 6.2.5-1.6.7-1.6.7-2.7.3-1.2-.5-2.4-.3-3.5-.8zm35.6 96.3c1.1.1 1.6.9 2.3 1.7-.8.5-1.4.9-2.1 1.3-.9-1-.8-1.9-.2-3zm176.9 5.1c-1.5 0-3.1.9-4.2-1 1.6-.5 2.9.2 4.2 1zm445.9 12.4c.6-.4 1.2-.3 2-.1.2.9.4 1.8.6 2.8-1.1-.3-1.1-.3-2.6-2.7zm-8 50.3c-1.9.8-2.6-1.1-3.9-1 1.7-1 2.1-.9 3.9 1zM349.6 40.3c-.1-.9-1.2-.4-1.4-1.2 1.5-.3 2.9-.1 4.2.8-.2.7-.7.5-1.1.5-.5-.1-1.1-.8-1.7-.1zm-97.9 119c1.1 0 2.1-.1 3.3.3-.7 1.4-1.9.9-2.8 1-.8.1-.6-.7-.5-1.3zM107.3 78.5c-1.3-.6-2.8-1-2.8-3 1.6.3 2.2 1.7 2.8 3zm-69-.4c-.1.2-.1.6-.2.7-1.2.4-2.3.6-3.6.7 1-1.3 2.4-1.3 3.8-1.4zm66.7 2.6c1-.8 1.8 0 2.7-.4.1.9.1 1.5-.7 1.7-1.1.3-1.4-.6-2-1.3zm559.3 98.1c-.4 1.5-1.6 2.2-3.2 3.2.7-1.9 2.2-2.3 3.2-3.2zm19.2 29.9c-1 .6-1.8.5-2.5-.5 1.4-.9 1.4-.9 2.5.5zM665 178c.3-.8.8-1.5.7-2.6.9.5.6 1.2 1 1.6-.4.6-1 .9-1.7 1zm-463.3-43c.5 0 1 .1 1.3.7-.7.4-1.1 0-1.5-.5l.2-.2zm493.9 91.3c-.3-.1-.7-.1-1-.4.5-.6.8-.2 1.1.2 0 .1-.1.2-.1.2zM116.4 43.8c-.2 0-.4 0-.6-.2.3-.2.5-.2.7.1 0 0-.1 0-.1.1zm116.1 73.4c0 .2 0 .6-.3.4-.2-.1-.1-.4.1-.6.1.1.1.2.2.2z"/><path class="st1" d="M38.3 78.2l.2-.2c-.3-.2-.2.1-.2.2zm343 39.9c-.1.1-.2.2-.3.2-.2-.1-.1-.3 0-.5l.3.3zm40.3-9.1c1.5.8.8 2.1.9 3.1.2 1.6-1.5 1.1-2.2 1.9-1.7-1.1.6-3.1-1.4-4 1.2-.3 2-.6 2.7-1zm55.4 12.1c-3.2 2.8-3.5 2.9-4.8 1.5 1.3-1.3 3.3-.5 4.8-1.5zm-17.8 1.1c-2.1 1.2-4 .1-6-.5 2-.4 4 .4 6 .5zm-37.5-17.3c.7 1.4.3 2.5-.3 3.7-1.2-.4-1.5-1.3-1.3-2.3.3-.7 1.2-.5 1.6-1.4z"/><path d="M0 33.3h800M0 66.7h800M0 100h800M0 133.3h800M0 166.7h800M0 200h800M0 233.3h800M0 266.7h800M0 300h800M0 333.3h800M0 366.7h800M1 0v400M33.3 0v400M66.7 0v400M100 0v400M133.3 0v400M166.7 0v400M200 0v400M233.3 0v400M266.7 0v400M300 0v400M333.3 0v400M366.7 0v400M400 0v400M433.3 0v400M466.7 0v400M500 0v400M533.3 0v400M566.7 0v400M600 0v400M633.3 0v400M666.7 0v400M700 0v400M733.3 0v400M766.7 0v400" fill="none" stroke="RGBA(0,156,255,.3)" stroke-width=".3" stroke-miterlimit="10"/></svg>