<?xml version="1.0" standalone="no"?>
<!DOCTYPE svg PUBLIC "-//W3C//DTD SVG 20010904//EN"
 "http://www.w3.org/TR/2001/REC-SVG-20010904/DTD/svg10.dtd">
<svg version="1.0" xmlns="http://www.w3.org/2000/svg"
 width="67.000000pt" height="67.000000pt" viewBox="0 0 67.000000 67.000000"
 preserveAspectRatio="xMidYMid meet">

<g transform="translate(0.000000,67.000000) scale(0.100000,-0.100000)"
fill="#FD6A6A" stroke="none">
<path d="M250 647 c-61 -17 -110 -48 -155 -98 -61 -67 -80 -121 -80 -219 0
-79 3 -90 36 -150 41 -75 107 -131 183 -156 75 -25 187 -16 255 21 192 105
229 362 74 519 -75 77 -210 112 -313 83z m94 -133 c9 -3 16 -13 16 -22 0 -8
14 -27 30 -41 26 -22 33 -40 47 -106 8 -44 22 -84 29 -88 19 -11 18 -43 -2
-51 -9 -3 -69 -6 -134 -6 -96 0 -122 3 -135 16 -15 15 -15 18 4 38 12 13 24
48 32 91 10 59 17 75 46 103 19 17 32 32 28 32 -3 0 -1 9 5 20 12 22 12 22 34
14z m36 -333 c0 -32 -71 -38 -84 -6 -4 12 4 15 39 15 25 0 45 -4 45 -9z"/>
</g>
</svg>
