<svg width="1079" height="49" fill="none" xmlns="http://www.w3.org/2000/svg"><path d="M15.207.127H.933L40.187 49H54.46L15.207.127zm125.673 0h-14.274L165.859 49h14.274L140.88.127zm-62.837 0H63.77L103.023 49h14.274L78.043.127zm125.673 0h-14.273L228.696 49h14.274L203.716.127zm104.728 0H294.17L333.423 49h14.274L308.444.127z" fill="#217AFF"/><path d="M517.122.127h-14.273L542.102 49h14.274L517.122.127zm209.067 0h-14.274L751.169 49h14.273L726.189.127z" fill="#fff"/><path d="M935.256.127h-14.274L960.235 49h14.274L935.256.127z" fill="#DDDFE7"/><path d="M412.589.127h-14.274L437.569 49h14.273L412.589.127zm208.679 0h-14.274L646.247 49h14.274L621.268.127z" fill="#fff"/><path d="M830.335.127h-14.274L855.314 49h14.274L830.335.127zm209.065 0h-14.27L1064.38 49h14.27L1039.4.127z" fill="#DDDFE7"/><path d="M36.153.127H21.879L61.132 49h14.274L36.153.127zm125.672 0h-14.274L186.805 49h14.274L161.825.127zm104.728 0h-14.274L291.532 49h14.274L266.553.127z" fill="#217AFF"/><path d="M475.232.127h-14.274L500.211 49h14.274L475.232.127zm209.066 0h-14.274L709.278 49h14.274L684.298.127z" fill="#fff"/><path d="M893.365.127h-14.274L918.344 49h14.274L893.365.127z" fill="#DDDFE7"/><path d="M370.698.127h-14.274L395.678 49h14.274L370.698.127z" fill="#217AFF"/><path d="M579.377.127h-14.274L604.357 49h14.273L579.377.127z" fill="#fff"/><path d="M788.444.127H774.17L813.423 49h14.274L788.444.127zm209.066 0h-14.274L1022.49 49h14.27L997.51.127z" fill="#DDDFE7"/><path d="M98.99.127H84.714L123.968 49h14.274L98.989.127zm125.672 0h-14.274L249.641 49h14.274L224.662.127z" fill="#217AFF"/><path d="M433.341.127h-14.274L458.32 49h14.274L433.341.127zm209.066 0h-14.274L667.387 49h14.274L642.407.127z" fill="#fff"/><path d="M851.474.127H837.2L876.453 49h14.274L851.474.127z" fill="#DDDFE7"/><path d="M328.807.127h-14.274L353.787 49h14.274L328.807.127z" fill="#217AFF"/><path d="M537.486.127h-14.274L562.466 49h14.274L537.486.127z" fill="#fff"/><path d="M746.553.127h-14.274L771.532 49h14.274L746.553.127zm209.067 0h-14.274L980.599 49h14.274L955.62.127z" fill="#DDDFE7"/><path d="M57.098.127H42.824L82.078 49h14.274L57.098.127zm125.673 0h-14.274L207.75 49h14.274L182.771.127zm104.727 0h-14.274L312.478 49h14.274L287.498.127z" fill="#217AFF"/><path d="M496.177.127h-14.274L521.157 49h14.273L496.177.127zm209.067 0H690.97L730.223 49h14.274L705.244.127z" fill="#fff"/><path d="M914.311.127h-14.274L939.29 49h14.274L914.311.127z" fill="#DDDFE7"/><path d="M391.644.127H377.37L416.623 49h14.274L391.644.127zm208.679 0h-14.274L625.302 49h14.274L600.323.127z" fill="#fff"/><path d="M809.389.127h-14.274L834.369 49h14.274L809.389.127zm209.071 0h-14.28L1043.44 49h14.27L1018.46.127z" fill="#DDDFE7"/><path d="M119.935.127h-14.274L144.914 49h14.274L119.935.127zm125.672 0h-14.274L270.587 49h14.274L245.607.127z" fill="#217AFF"/><path d="M454.286.127h-14.274L479.266 49h14.274L454.286.127zm209.067 0h-14.274L688.332 49h14.274L663.353.127z" fill="#fff"/><path d="M872.42.127h-14.274L897.399 49h14.274L872.42.127z" fill="#DDDFE7"/><path d="M349.753.127h-14.274L374.732 49h14.274L349.753.127z" fill="#217AFF"/><path d="M558.432.127h-14.274L583.411 49h14.274L558.432.127z" fill="#fff"/><path d="M767.498.127h-14.273L792.478 49h14.274L767.498.127zm209.067 0h-14.274L1001.54 49h14.28L976.565.127z" fill="#DDDFE7"/></svg>