<svg width="1158" height="1179" fill="none" xmlns="http://www.w3.org/2000/svg"><g filter="url(#filter0_d_1627:1287)"><path d="M766.054 605.042c0 150.471-20.433 286.675-53.455 385.245-16.512 49.283-36.162 89.133-57.958 116.653-21.8 27.53-45.689 42.64-70.683 42.64-24.993 0-48.882-15.11-70.682-42.64-21.796-27.52-41.447-67.37-57.958-116.653-33.022-98.57-53.456-234.774-53.456-385.245 0-150.47 20.434-286.674 53.456-385.244 16.511-49.287 36.162-89.137 57.958-116.655 21.8-27.524 45.689-42.643 70.682-42.643 24.994 0 48.883 15.12 70.683 42.643 21.796 27.518 41.446 67.368 57.958 116.655 33.022 98.57 53.455 234.774 53.455 385.244z" stroke="#44BCFF"/></g><g opacity=".5" filter="url(#filter1_d_1627:1287)"><circle cx="840" cy="32" r="1" fill="#44BCFF"/></g><g filter="url(#filter2_d_1627:1287)"><path d="M583.958 787.138c-150.471 0-286.675-20.433-385.245-53.455-49.287-16.512-89.137-36.162-116.655-57.958-27.524-21.8-42.643-45.689-42.643-70.683 0-24.993 15.12-48.882 42.643-70.682 27.518-21.796 67.368-41.447 116.655-57.959 98.57-33.022 234.774-53.455 385.245-53.455 150.47 0 286.674 20.433 385.244 53.456 49.288 16.511 89.138 36.162 116.658 57.958 27.52 21.8 42.64 45.689 42.64 70.682 0 24.994-15.12 48.883-42.64 70.683-27.52 21.796-67.37 41.446-116.658 57.958-98.57 33.022-234.774 53.455-385.244 53.455z" stroke="#44BCFF"/></g><g filter="url(#filter3_d_1627:1287)"><path d="M455.196 733.803c-106.398-106.398-188.261-217.158-234.61-310.207-23.176-46.527-37.459-88.601-41.505-123.471-4.047-34.877 2.154-62.46 19.827-80.133 17.673-17.673 45.256-23.874 80.133-19.827 34.87 4.046 76.943 18.329 123.47 41.505 93.05 46.349 203.809 128.212 310.208 234.61 106.398 106.399 188.261 217.159 234.61 310.208 23.176 46.527 37.459 88.6 41.505 123.47 4.047 34.877-2.154 62.46-19.827 80.133-17.673 17.669-45.256 23.879-80.133 19.829-34.87-4.05-76.943-18.331-123.47-41.507-93.05-46.349-203.809-128.211-310.208-234.61z" stroke="#44BCFF"/></g><g filter="url(#filter4_d_1627:1287)"><path d="M712.719 733.804c-106.398 106.398-217.158 188.261-310.207 234.61-46.527 23.176-88.6 37.456-123.471 41.506-34.877 4.05-62.46-2.15-80.133-19.828-17.673-17.673-23.874-45.256-19.827-80.133 4.046-34.87 18.329-76.943 41.505-123.47 46.349-93.05 128.212-203.809 234.611-310.208 106.398-106.398 217.158-188.261 310.207-234.61 46.527-23.176 88.6-37.459 123.47-41.505 34.877-4.047 62.46 2.154 80.133 19.827 17.673 17.673 23.875 45.256 19.828 80.133-4.046 34.87-18.33 76.943-41.505 123.47-46.35 93.05-128.212 203.809-234.611 310.208z" stroke="#44BCFF"/></g><g filter="url(#filter5_d_1627:1287)"><circle cx="581.67" cy="610.993" r="27.331" fill="url(#paint0_radial_1627:1287)"/></g><g filter="url(#filter6_d_1627:1287)"><circle cx="194.511" cy="224.748" r="13.489" fill="#44BCFF"/></g><g filter="url(#filter7_d_1627:1287)"><circle cx="993.54" cy="273.259" r="22.46" fill="#44BCFF"/></g><g filter="url(#filter8_d_1627:1287)"><circle cx="53.56" cy="646.688" r="5.44" fill="#44BCFF"/></g><g opacity=".5" filter="url(#filter9_d_1627:1287)"><circle cx="193" cy="1115" r="1" fill="#44BCFF"/></g><g filter="url(#filter10_d_1627:1287)"><circle cx="729.373" cy="947.374" r="12.627" fill="#44BCFF"/></g><defs><filter id="filter0_d_1627:1287" x="372.989" y="31.627" width="421.939" height="1146.83" filterUnits="userSpaceOnUse" color-interpolation-filters="sRGB"><feFlood flood-opacity="0" result="BackgroundImageFix"/><feColorMatrix in="SourceAlpha" values="0 0 0 0 0 0 0 0 0 0 0 0 0 0 0 0 0 0 127 0" result="hardAlpha"/><feMorphology radius=".915" operator="dilate" in="SourceAlpha" result="effect1_dropShadow_1627:1287"/><feOffset/><feGaussianBlur stdDeviation="13.729"/><feColorMatrix values="0 0 0 0 0.4875 0 0 0 0 0.90775 0 0 0 0 1 0 0 0 1 0"/><feBlend in2="BackgroundImageFix" result="effect1_dropShadow_1627:1287"/><feBlend in="SourceGraphic" in2="effect1_dropShadow_1627:1287" result="shape"/></filter><filter id="filter1_d_1627:1287" x="808" y="0" width="64" height="64" filterUnits="userSpaceOnUse" color-interpolation-filters="sRGB"><feFlood flood-opacity="0" result="BackgroundImageFix"/><feColorMatrix in="SourceAlpha" values="0 0 0 0 0 0 0 0 0 0 0 0 0 0 0 0 0 0 127 0" result="hardAlpha"/><feMorphology radius="10" operator="dilate" in="SourceAlpha" result="effect1_dropShadow_1627:1287"/><feOffset/><feGaussianBlur stdDeviation="10.5"/><feColorMatrix values="0 0 0 0 0.168627 0 0 0 0 0.83749 0 0 0 0 0.984314 0 0 0 0.84 0"/><feBlend in2="BackgroundImageFix" result="effect1_dropShadow_1627:1287"/><feBlend in="SourceGraphic" in2="effect1_dropShadow_1627:1287" result="shape"/></filter><filter id="filter2_d_1627:1287" x="10.542" y="394.073" width="1146.83" height="421.939" filterUnits="userSpaceOnUse" color-interpolation-filters="sRGB"><feFlood flood-opacity="0" result="BackgroundImageFix"/><feColorMatrix in="SourceAlpha" values="0 0 0 0 0 0 0 0 0 0 0 0 0 0 0 0 0 0 127 0" result="hardAlpha"/><feMorphology radius=".915" operator="dilate" in="SourceAlpha" result="effect1_dropShadow_1627:1287"/><feOffset/><feGaussianBlur stdDeviation="13.729"/><feColorMatrix values="0 0 0 0 0.4875 0 0 0 0 0.90775 0 0 0 0 1 0 0 0 1 0"/><feBlend in2="BackgroundImageFix" result="effect1_dropShadow_1627:1287"/><feBlend in="SourceGraphic" in2="effect1_dropShadow_1627:1287" result="shape"/></filter><filter id="filter3_d_1627:1287" x="149.018" y="170.102" width="869.879" height="869.878" filterUnits="userSpaceOnUse" color-interpolation-filters="sRGB"><feFlood flood-opacity="0" result="BackgroundImageFix"/><feColorMatrix in="SourceAlpha" values="0 0 0 0 0 0 0 0 0 0 0 0 0 0 0 0 0 0 127 0" result="hardAlpha"/><feMorphology radius=".915" operator="dilate" in="SourceAlpha" result="effect1_dropShadow_1627:1287"/><feOffset/><feGaussianBlur stdDeviation="13.729"/><feColorMatrix values="0 0 0 0 0.4875 0 0 0 0 0.90775 0 0 0 0 1 0 0 0 1 0"/><feBlend in2="BackgroundImageFix" result="effect1_dropShadow_1627:1287"/><feBlend in="SourceGraphic" in2="effect1_dropShadow_1627:1287" result="shape"/></filter><filter id="filter4_d_1627:1287" x="149.019" y="170.103" width="869.879" height="869.878" filterUnits="userSpaceOnUse" color-interpolation-filters="sRGB"><feFlood flood-opacity="0" result="BackgroundImageFix"/><feColorMatrix in="SourceAlpha" values="0 0 0 0 0 0 0 0 0 0 0 0 0 0 0 0 0 0 127 0" result="hardAlpha"/><feMorphology radius=".915" operator="dilate" in="SourceAlpha" result="effect1_dropShadow_1627:1287"/><feOffset/><feGaussianBlur stdDeviation="13.729"/><feColorMatrix values="0 0 0 0 0.4875 0 0 0 0 0.90775 0 0 0 0 1 0 0 0 1 0"/><feBlend in2="BackgroundImageFix" result="effect1_dropShadow_1627:1287"/><feBlend in="SourceGraphic" in2="effect1_dropShadow_1627:1287" result="shape"/></filter><filter id="filter5_d_1627:1287" x="459" y="488.323" width="245.339" height="245.339" filterUnits="userSpaceOnUse" color-interpolation-filters="sRGB"><feFlood flood-opacity="0" result="BackgroundImageFix"/><feColorMatrix in="SourceAlpha" values="0 0 0 0 0 0 0 0 0 0 0 0 0 0 0 0 0 0 127 0" result="hardAlpha"/><feMorphology radius="31.78" operator="dilate" in="SourceAlpha" result="effect1_dropShadow_1627:1287"/><feOffset/><feGaussianBlur stdDeviation="31.78"/><feColorMatrix values="0 0 0 0 0.168627 0 0 0 0 0.83749 0 0 0 0 0.984314 0 0 0 0.84 0"/><feBlend in2="BackgroundImageFix" result="effect1_dropShadow_1627:1287"/><feBlend in="SourceGraphic" in2="effect1_dropShadow_1627:1287" result="shape"/></filter><filter id="filter6_d_1627:1287" x="103.201" y="133.437" width="182.621" height="182.621" filterUnits="userSpaceOnUse" color-interpolation-filters="sRGB"><feFlood flood-opacity="0" result="BackgroundImageFix"/><feColorMatrix in="SourceAlpha" values="0 0 0 0 0 0 0 0 0 0 0 0 0 0 0 0 0 0 127 0" result="hardAlpha"/><feMorphology radius="25.94" operator="dilate" in="SourceAlpha" result="effect1_dropShadow_1627:1287"/><feOffset/><feGaussianBlur stdDeviation="25.94"/><feColorMatrix values="0 0 0 0 0.168627 0 0 0 0 0.83749 0 0 0 0 0.984314 0 0 0 0.84 0"/><feBlend in2="BackgroundImageFix" result="effect1_dropShadow_1627:1287"/><feBlend in="SourceGraphic" in2="effect1_dropShadow_1627:1287" result="shape"/></filter><filter id="filter7_d_1627:1287" x="862.405" y="142.123" width="262.271" height="262.271" filterUnits="userSpaceOnUse" color-interpolation-filters="sRGB"><feFlood flood-opacity="0" result="BackgroundImageFix"/><feColorMatrix in="SourceAlpha" values="0 0 0 0 0 0 0 0 0 0 0 0 0 0 0 0 0 0 127 0" result="hardAlpha"/><feMorphology radius="36.225" operator="dilate" in="SourceAlpha" result="effect1_dropShadow_1627:1287"/><feOffset/><feGaussianBlur stdDeviation="36.225"/><feColorMatrix values="0 0 0 0 0.168627 0 0 0 0 0.83749 0 0 0 0 0.984314 0 0 0 0.84 0"/><feBlend in2="BackgroundImageFix" result="effect1_dropShadow_1627:1287"/><feBlend in="SourceGraphic" in2="effect1_dropShadow_1627:1287" result="shape"/></filter><filter id="filter8_d_1627:1287" x=".116" y="593.243" width="106.889" height="106.889" filterUnits="userSpaceOnUse" color-interpolation-filters="sRGB"><feFlood flood-opacity="0" result="BackgroundImageFix"/><feColorMatrix in="SourceAlpha" values="0 0 0 0 0 0 0 0 0 0 0 0 0 0 0 0 0 0 127 0" result="hardAlpha"/><feMorphology radius="16.001" operator="dilate" in="SourceAlpha" result="effect1_dropShadow_1627:1287"/><feOffset/><feGaussianBlur stdDeviation="16.001"/><feColorMatrix values="0 0 0 0 0.168627 0 0 0 0 0.83749 0 0 0 0 0.984314 0 0 0 0.84 0"/><feBlend in2="BackgroundImageFix" result="effect1_dropShadow_1627:1287"/><feBlend in="SourceGraphic" in2="effect1_dropShadow_1627:1287" result="shape"/></filter><filter id="filter9_d_1627:1287" x="161" y="1083" width="64" height="64" filterUnits="userSpaceOnUse" color-interpolation-filters="sRGB"><feFlood flood-opacity="0" result="BackgroundImageFix"/><feColorMatrix in="SourceAlpha" values="0 0 0 0 0 0 0 0 0 0 0 0 0 0 0 0 0 0 127 0" result="hardAlpha"/><feMorphology radius="10" operator="dilate" in="SourceAlpha" result="effect1_dropShadow_1627:1287"/><feOffset/><feGaussianBlur stdDeviation="10.5"/><feColorMatrix values="0 0 0 0 0.168627 0 0 0 0 0.83749 0 0 0 0 0.984314 0 0 0 0.84 0"/><feBlend in2="BackgroundImageFix" result="effect1_dropShadow_1627:1287"/><feBlend in="SourceGraphic" in2="effect1_dropShadow_1627:1287" result="shape"/></filter><filter id="filter10_d_1627:1287" x="655.649" y="873.65" width="147.448" height="147.448" filterUnits="userSpaceOnUse" color-interpolation-filters="sRGB"><feFlood flood-opacity="0" result="BackgroundImageFix"/><feColorMatrix in="SourceAlpha" values="0 0 0 0 0 0 0 0 0 0 0 0 0 0 0 0 0 0 127 0" result="hardAlpha"/><feMorphology radius="20.366" operator="dilate" in="SourceAlpha" result="effect1_dropShadow_1627:1287"/><feOffset/><feGaussianBlur stdDeviation="20.366"/><feColorMatrix values="0 0 0 0 0.168627 0 0 0 0 0.83749 0 0 0 0 0.984314 0 0 0 0.84 0"/><feBlend in2="BackgroundImageFix" result="effect1_dropShadow_1627:1287"/><feBlend in="SourceGraphic" in2="effect1_dropShadow_1627:1287" result="shape"/></filter><radialGradient id="paint0_radial_1627:1287" cx="0" cy="0" r="1" gradientUnits="userSpaceOnUse" gradientTransform="rotate(90 -14.662 596.332) scale(27.3305)"><stop stop-color="#44BCFF"/><stop offset="1" stop-color="#44BCFF" stop-opacity="0"/></radialGradient></defs></svg>