<svg width="3216" height="139" fill="none" xmlns="http://www.w3.org/2000/svg"><path d="M26.6 110.9c-5.733 0-10.2-1.2-13.4-3.6-3.133-2.4-5.333-5.633-6.6-9.7C5.4 93.533 4.8 89 4.8 84V55.4c0-5.467.6-10.233 1.8-14.3 1.267-4.067 3.467-7.2 6.6-9.4 3.2-2.267 7.667-3.4 13.4-3.4 5.067 0 9.067.933 12 2.8 3 1.867 5.133 4.533 6.4 8 1.333 3.467 2 7.633 2 12.5V58H36.3v-5.7c0-3-.167-5.633-.5-7.9-.267-2.333-1.067-4.133-2.4-5.4-1.333-1.267-3.567-1.9-6.7-1.9-3.2 0-5.533.7-7 2.1-1.467 1.333-2.433 3.267-2.9 5.8-.4 2.467-.6 5.367-.6 8.7v32.1c0 4.067.333 7.3 1 9.7.667 2.333 1.767 4 3.3 5s3.6 1.5 6.2 1.5c3.067 0 5.267-.667 6.6-2 1.333-1.4 2.167-3.3 2.5-5.7.333-2.4.5-5.2.5-8.4v-6H47v6c0 4.933-.6 9.3-1.8 13.1-1.2 3.733-3.267 6.667-6.2 8.8-2.933 2.067-7.067 3.1-12.4 3.1zm41.765-.9V60.2h-10.8v-8h32.4v8h-10.9V110h-10.7zm33.07 19V52.2h10.7v4.6c1.267-1.467 2.8-2.733 4.6-3.8 1.8-1.067 3.933-1.6 6.4-1.6 3 0 5.367.8 7.1 2.4 1.8 1.533 3.133 3.5 4 5.9a29.799 29.799 0 011.7 7.2c.267 2.4.4 4.467.4 6.2v14c0 4.067-.4 7.933-1.2 11.6-.8 3.6-2.267 6.533-4.4 8.8-2.067 2.2-5 3.3-8.8 3.3-2.067 0-3.9-.5-5.5-1.5a25.172 25.172 0 01-4.3-3.6V129h-10.7zm18.4-26.6c1.867 0 3.2-.667 4-2 .8-1.4 1.3-3.267 1.5-5.6.2-2.333.3-4.9.3-7.7v-14c0-2.4-.133-4.6-.4-6.6-.267-2.067-.833-3.7-1.7-4.9-.867-1.2-2.233-1.8-4.1-1.8-1.4 0-2.733.3-4 .9-1.267.6-2.367 1.3-3.3 2.1v37c1 .733 2.133 1.367 3.4 1.9 1.267.467 2.7.7 4.3.7zm30.329 22.1v-8.2c2.6 0 4.667-.133 6.2-.4 1.533-.2 2.633-.633 3.3-1.3.667-.6 1-1.467 1-2.6 0-.6-.233-1.933-.7-4-.467-2.067-.967-4.267-1.5-6.6l-11.6-49.2h10.8l7.8 43.2 7.5-43.2h10.8l-13.8 61c-.6 2.8-1.7 5-3.3 6.6-1.6 1.667-3.667 2.867-6.2 3.6-2.467.733-5.467 1.1-9 1.1h-1.3zm45.06-14.5V52.2h10.7v24.4h3l10.9-24.4h11l-12.1 28 12.3 29.8h-11.2l-10.9-27h-3v27h-10.7zm53.004 0V60.2h-10.8v-8h32.4v8h-10.9V110h-10.7zm32.17 14.5v-8.2c2.6 0 4.667-.133 6.2-.4 1.534-.2 2.634-.633 3.3-1.3.667-.6 1-1.467 1-2.6 0-.6-.233-1.933-.7-4-.466-2.067-.966-4.267-1.5-6.6l-11.6-49.2h10.8l7.8 43.2 7.5-43.2h10.8l-13.8 61c-.6 2.8-1.7 5-3.3 6.6-1.6 1.667-3.666 2.867-6.2 3.6-2.466.733-5.466 1.1-9 1.1h-1.3zm45.061 4.5V52.2h10.7v4.6c1.266-1.467 2.8-2.733 4.6-3.8 1.8-1.067 3.933-1.6 6.4-1.6 3 0 5.366.8 7.1 2.4 1.8 1.533 3.133 3.5 4 5.9a29.845 29.845 0 011.7 7.2c.266 2.4.4 4.467.4 6.2v14c0 4.067-.4 7.933-1.2 11.6-.8 3.6-2.267 6.533-4.4 8.8-2.067 2.2-5 3.3-8.8 3.3-2.067 0-3.9-.5-5.5-1.5a25.133 25.133 0 01-4.3-3.6V129h-10.7zm18.4-26.6c1.866 0 3.2-.667 4-2 .8-1.4 1.3-3.267 1.5-5.6.2-2.333.3-4.9.3-7.7v-14c0-2.4-.134-4.6-.4-6.6-.267-2.067-.834-3.7-1.7-4.9-.867-1.2-2.234-1.8-4.1-1.8-1.4 0-2.734.3-4 .9-1.267.6-2.367 1.3-3.3 2.1v37c1 .733 2.133 1.367 3.4 1.9 1.266.467 2.7.7 4.3.7zm41.629 8.4c-2.267 0-4.267-.633-6-1.9-1.734-1.333-3.1-3-4.1-5-1-2.067-1.5-4.233-1.5-6.5 0-3.6.6-6.633 1.8-9.1 1.2-2.467 2.833-4.533 4.9-6.2 2.133-1.733 4.566-3.233 7.3-4.5a183.8 183.8 0 018.8-3.7v-4.1c0-2.333-.134-4.267-.4-5.8-.267-1.533-.834-2.667-1.7-3.4-.8-.8-2.034-1.2-3.7-1.2-1.467 0-2.667.333-3.6 1-.867.667-1.5 1.633-1.9 2.9-.4 1.2-.6 2.633-.6 4.3v2.9l-10.6-.4c.133-6.4 1.6-11.1 4.4-14.1 2.8-3.067 7.133-4.6 13-4.6 5.733 0 9.8 1.567 12.2 4.7 2.4 3.133 3.6 7.667 3.6 13.6v26.4c0 1.8.033 3.533.1 5.2.133 1.667.266 3.233.4 4.7.2 1.4.366 2.733.5 4h-9.8c-.2-1.067-.467-2.4-.8-4a77.227 77.227 0 01-.6-4.5c-.667 2.267-1.967 4.4-3.9 6.4-1.867 1.933-4.467 2.9-7.8 2.9zm4.2-9.2c1.066 0 2.066-.3 3-.9.933-.6 1.766-1.267 2.5-2 .733-.8 1.233-1.433 1.5-1.9V80.4a96.946 96.946 0 00-4.7 2.8 26.122 26.122 0 00-3.9 3 12.268 12.268 0 00-2.6 3.5c-.6 1.267-.9 2.733-.9 4.4 0 2.333.433 4.167 1.3 5.5.866 1.333 2.133 2 3.8 2zm241.512 6.28v-8.52c-.32.04-.76.08-1.32.12-.56.04-.98.06-1.26.06-2.28 0-4.2-.42-5.76-1.26-1.52-.84-2.68-2.16-3.48-3.96-.76-1.84-1.14-4.26-1.14-7.26V73.68c0-3 .4-5.44 1.2-7.32.8-1.88 1.96-3.26 3.48-4.14 1.56-.92 3.46-1.38 5.7-1.38.36 0 .8.02 1.32.06.52 0 .94.02 1.26.06v-8.94h4.62v8.88c.36-.04.84-.06 1.44-.06.64-.04 1.12-.06 1.44-.06 2.2 0 4.06.46 5.58 1.38 1.52.92 2.66 2.34 3.42 4.26.8 1.88 1.2 4.3 1.2 7.26v13.38c0 3-.38 5.42-1.14 7.26-.76 1.8-1.88 3.12-3.36 3.96-1.44.84-3.2 1.26-5.28 1.26-.56 0-1.12-.02-1.68-.06-.52-.04-1.06-.08-1.62-.12v8.52h-4.62zm-2.16-11.28h1.02c.44-.04.82-.08 1.14-.12V63.9c-.36-.08-.76-.12-1.2-.12h-.96c-1.64 0-2.94.34-3.9 1.02-.92.68-1.6 1.76-2.04 3.24-.4 1.48-.6 3.36-.6 5.64v13.38c0 2.28.18 4.12.54 5.52.4 1.4 1.06 2.42 1.98 3.06.96.64 2.3.96 4.02.96zm9.18 0c1.64 0 2.92-.32 3.84-.96.96-.64 1.62-1.66 1.98-3.06.4-1.4.6-3.24.6-5.52V73.68c0-2.28-.2-4.16-.6-5.64-.36-1.48-1.02-2.56-1.98-3.24-.96-.68-2.3-1.02-4.02-1.02-.28 0-.64.02-1.08.06-.44 0-.82.02-1.14.06v32.58c.36.04.76.08 1.2.12h1.2zm25.988 8.94c-2.16 0-3.94-.42-5.34-1.26-1.36-.88-2.38-2.32-3.06-4.32-.64-2-.96-4.66-.96-7.98v-8.76c0-3.44.34-6.12 1.02-8.04.68-1.96 1.72-3.34 3.12-4.14 1.4-.84 3.16-1.26 5.28-1.26 2.44 0 4.3.52 5.58 1.56 1.28 1.04 2.16 2.62 2.64 4.74.52 2.08.78 4.76.78 8.04v3.12h-14.04v6.06c0 2.24.16 4.02.48 5.34.36 1.28.9 2.2 1.62 2.76.76.56 1.72.84 2.88.84.88 0 1.68-.16 2.4-.48.72-.36 1.28-1.02 1.68-1.98.44-1 .66-2.4.66-4.2v-2.4h4.26v1.92c0 3.16-.66 5.7-1.98 7.62-1.28 1.88-3.62 2.82-7.02 2.82zm-4.98-20.82h9.72v-2.88c0-1.84-.1-3.4-.3-4.68-.2-1.32-.64-2.32-1.32-3-.64-.72-1.68-1.08-3.12-1.08-1.2 0-2.18.26-2.94.78-.72.52-1.24 1.46-1.56 2.82-.32 1.32-.48 3.22-.48 5.7v2.34zm17.192 28.62V102c1.04-.68 1.96-1.54 2.76-2.58.8-1.08 1.5-2.5 2.1-4.26.6-1.76 1.1-4 1.5-6.72.4-2.72.7-6.06.9-10.02l.54-8.1h14.46v31.5h3.48v11.52h-3.3l-.36-8.34h-18.36l-.42 8.34h-3.3zm4.56-11.52h13.44V73.56h-6.66l-.54 5.76c-.24 3.8-.52 7-.84 9.6-.32 2.6-.72 4.74-1.2 6.42-.48 1.68-1.08 3.04-1.8 4.08-.68 1-1.48 1.8-2.4 2.4zm35.084 3.72c-2.16 0-3.94-.42-5.34-1.26-1.36-.88-2.38-2.32-3.06-4.32-.64-2-.96-4.66-.96-7.98v-8.76c0-3.44.34-6.12 1.02-8.04.68-1.96 1.72-3.34 3.12-4.14 1.4-.84 3.16-1.26 5.28-1.26 2.44 0 4.3.52 5.58 1.56 1.28 1.04 2.16 2.62 2.64 4.74.52 2.08.78 4.76.78 8.04v3.12h-14.04v6.06c0 2.24.16 4.02.48 5.34.36 1.28.9 2.2 1.62 2.76.76.56 1.72.84 2.88.84.88 0 1.68-.16 2.4-.48.72-.36 1.28-1.02 1.68-1.98.44-1 .66-2.4.66-4.2v-2.4h4.26v1.92c0 3.16-.66 5.7-1.98 7.62-1.28 1.88-3.62 2.82-7.02 2.82zm-4.98-20.82h9.72v-2.88c0-1.84-.1-3.4-.3-4.68-.2-1.32-.64-2.32-1.32-3-.64-.72-1.68-1.08-3.12-1.08-1.2 0-2.18.26-2.94.78-.72.52-1.24 1.46-1.56 2.82-.32 1.32-.48 3.22-.48 5.7v2.34zm19.952 31.68V70.32h4.38v2.88c.72-.88 1.62-1.66 2.7-2.34 1.08-.72 2.4-1.08 3.96-1.08 1.68 0 3.02.4 4.02 1.2 1.04.76 1.84 1.8 2.4 3.12.56 1.32.94 2.8 1.14 4.44.2 1.64.3 3.32.3 5.04v7.32c0 2.96-.24 5.54-.72 7.74-.48 2.16-1.34 3.86-2.58 5.1-1.2 1.2-2.88 1.8-5.04 1.8-1.4 0-2.62-.36-3.66-1.08-1-.72-1.84-1.46-2.52-2.22v14.16h-4.38zm9.9-14.34c1.32 0 2.3-.42 2.94-1.26.68-.84 1.12-2.08 1.32-3.72.24-1.68.36-3.7.36-6.06v-7.44c0-2.24-.12-4.12-.36-5.64-.2-1.56-.64-2.74-1.32-3.54-.68-.8-1.7-1.2-3.06-1.2-1.12 0-2.16.3-3.12.9-.92.6-1.68 1.2-2.28 1.8v23.64c.64.68 1.42 1.28 2.34 1.8.96.48 2.02.72 3.18.72zm21.119 3.48c-1.4 0-2.62-.34-3.66-1.02a7.635 7.635 0 01-2.46-2.82c-.56-1.2-.84-2.5-.84-3.9 0-1.76.24-3.26.72-4.5.52-1.24 1.32-2.34 2.4-3.3 1.12-1 2.56-1.96 4.32-2.88 1.8-.96 3.98-2.02 6.54-3.18v-2.46c0-2.12-.14-3.78-.42-4.98-.24-1.24-.68-2.12-1.32-2.64-.6-.52-1.46-.78-2.58-.78-.92 0-1.74.18-2.46.54-.72.36-1.3.98-1.74 1.86-.44.84-.66 2.02-.66 3.54v1.2l-4.32-.06c.04-3.52.78-6.12 2.22-7.8 1.48-1.72 3.88-2.58 7.2-2.58 3.12 0 5.3.94 6.54 2.82 1.28 1.84 1.92 4.72 1.92 8.64V98.1c0 .6.02 1.38.06 2.34.04.92.08 1.8.12 2.64.04.84.08 1.48.12 1.92h-3.9c-.08-.76-.2-1.6-.36-2.52-.16-.96-.26-1.72-.3-2.28-.48 1.4-1.34 2.64-2.58 3.72-1.2 1.08-2.72 1.62-4.56 1.62zm1.38-3.72c.88 0 1.68-.22 2.4-.66.72-.44 1.36-.96 1.92-1.56.56-.64 1-1.28 1.32-1.92v-10.8c-1.72.88-3.2 1.68-4.44 2.4-1.2.72-2.18 1.42-2.94 2.1-.76.68-1.32 1.46-1.68 2.34-.36.84-.54 1.84-.54 3 0 1.84.4 3.16 1.2 3.96.8.76 1.72 1.14 2.76 1.14zm13.768 3.48v-3.36c1.16-.04 2.1-.28 2.82-.72.76-.44 1.36-1.22 1.8-2.34.48-1.16.86-2.8 1.14-4.92.32-2.12.6-4.84.84-8.16l1.08-15.48h15.84V105h-4.38V73.68h-7.62l-.84 12.12c-.28 3.92-.62 7.14-1.02 9.66-.4 2.52-.98 4.5-1.74 5.94-.72 1.44-1.68 2.46-2.88 3.06-1.16.56-2.62.84-4.38.84h-.66zm30.18-.3V70.32h4.38v14.1h2.1c2.36 0 4.3.26 5.82.78 1.52.48 2.72 1.18 3.6 2.1.88.88 1.5 1.96 1.86 3.24.36 1.24.54 2.64.54 4.2 0 1.48-.18 2.86-.54 4.14-.36 1.24-1 2.32-1.92 3.24-.88.88-2.12 1.58-3.72 2.1-1.56.52-3.56.78-6 .78h-6.12zm4.38-2.76h1.74c2.24 0 3.94-.3 5.1-.9 1.16-.64 1.96-1.5 2.4-2.58.44-1.12.66-2.46.66-4.02 0-1.48-.2-2.78-.6-3.9-.4-1.12-1.16-2-2.28-2.64-1.12-.68-2.82-1.02-5.1-1.02h-1.92v15.06zm18.941 2.76V70.32h4.38v15.12h10.8V70.32h4.44V105h-4.44V88.74h-10.8V105h-4.38zm34.888.54c-2.36 0-4.22-.5-5.58-1.5-1.32-1.04-2.26-2.52-2.82-4.44-.56-1.96-.84-4.34-.84-7.14v-9.6c0-2.8.28-5.16.84-7.08.56-1.96 1.5-3.44 2.82-4.44 1.36-1.04 3.22-1.56 5.58-1.56 2.44 0 4.32.52 5.64 1.56 1.32 1 2.26 2.48 2.82 4.44.56 1.92.84 4.28.84 7.08v9.6c0 2.8-.28 5.18-.84 7.14-.56 1.92-1.5 3.4-2.82 4.44-1.32 1-3.2 1.5-5.64 1.5zm0-3.3c1.52 0 2.62-.4 3.3-1.2.72-.8 1.16-1.92 1.32-3.36.16-1.48.24-3.14.24-4.98V82.62c0-1.88-.08-3.52-.24-4.92-.16-1.44-.6-2.56-1.32-3.36-.68-.84-1.78-1.26-3.3-1.26-1.52 0-2.62.42-3.3 1.26-.68.8-1.1 1.92-1.26 3.36-.16 1.4-.24 3.04-.24 4.92V92.7c0 1.84.08 3.5.24 4.98.16 1.44.58 2.56 1.26 3.36.68.8 1.78 1.2 3.3 1.2zm24.085 3.3c-2.16 0-3.94-.42-5.34-1.26-1.36-.88-2.38-2.32-3.06-4.32-.64-2-.96-4.66-.96-7.98v-8.76c0-3.44.34-6.12 1.02-8.04.68-1.96 1.72-3.34 3.12-4.14 1.4-.84 3.16-1.26 5.28-1.26 2.44 0 4.3.52 5.58 1.56 1.28 1.04 2.16 2.62 2.64 4.74.52 2.08.78 4.76.78 8.04v3.12h-14.04v6.06c0 2.24.16 4.02.48 5.34.36 1.28.9 2.2 1.62 2.76.76.56 1.72.84 2.88.84.88 0 1.68-.16 2.4-.48.72-.36 1.28-1.02 1.68-1.98.44-1 .66-2.4.66-4.2v-2.4h4.26v1.92c0 3.16-.66 5.7-1.98 7.62-1.28 1.88-3.62 2.82-7.02 2.82zm-4.98-20.82h9.72v-2.88c0-1.84-.1-3.4-.3-4.68-.2-1.32-.64-2.32-1.32-3-.64-.72-1.68-1.08-3.12-1.08-1.2 0-2.18.26-2.94.78-.72.52-1.24 1.46-1.56 2.82-.32 1.32-.48 3.22-.48 5.7v2.34zM916.895 105V70.32h12.78v3.3h-8.4V105h-4.38zm25.104.54c-2.36 0-4.22-.5-5.58-1.5-1.32-1.04-2.26-2.52-2.82-4.44-.56-1.96-.84-4.34-.84-7.14v-9.6c0-2.8.28-5.16.84-7.08.56-1.96 1.5-3.44 2.82-4.44 1.36-1.04 3.22-1.56 5.58-1.56 2.44 0 4.32.52 5.64 1.56 1.32 1 2.26 2.48 2.82 4.44.56 1.92.84 4.28.84 7.08v9.6c0 2.8-.28 5.18-.84 7.14-.56 1.92-1.5 3.4-2.82 4.44-1.32 1-3.2 1.5-5.64 1.5zm0-3.3c1.52 0 2.62-.4 3.3-1.2.72-.8 1.16-1.92 1.32-3.36.16-1.48.24-3.14.24-4.98V82.62c0-1.88-.08-3.52-.24-4.92-.16-1.44-.6-2.56-1.32-3.36-.68-.84-1.78-1.26-3.3-1.26-1.52 0-2.62.42-3.3 1.26-.68.8-1.1 1.92-1.26 3.36-.16 1.4-.24 3.04-.24 4.92V92.7c0 1.84.08 3.5.24 4.98.16 1.44.58 2.56 1.26 3.36.68.8 1.78 1.2 3.3 1.2zm24.024 3.3c-2.72 0-4.74-.6-6.06-1.8-1.32-1.2-2.2-2.82-2.64-4.86-.4-2.08-.6-4.42-.6-7.02v-8.1c0-3.2.26-5.82.78-7.86.52-2.08 1.44-3.62 2.76-4.62 1.36-1 3.28-1.5 5.76-1.5 2.44 0 4.3.46 5.58 1.38 1.28.92 2.14 2.22 2.58 3.9.44 1.68.66 3.62.66 5.82v1.68h-4.08v-1.68c0-2.04-.16-3.62-.48-4.74-.28-1.12-.78-1.9-1.5-2.34-.68-.48-1.6-.72-2.76-.72-1.36 0-2.4.32-3.12.96-.72.64-1.2 1.7-1.44 3.18-.24 1.44-.36 3.38-.36 5.82v9.72c0 3.48.34 5.94 1.02 7.38.68 1.4 2 2.1 3.96 2.1 1.36 0 2.38-.3 3.06-.9.68-.64 1.12-1.58 1.32-2.82.2-1.24.3-2.78.3-4.62v-1.92h4.08v1.68c0 2.32-.22 4.38-.66 6.18-.4 1.76-1.24 3.16-2.52 4.2-1.28 1-3.16 1.5-5.64 1.5zm13.721 8.1v-3.42c2 0 3.5-.16 4.5-.48 1.04-.28 1.72-.7 2.04-1.26.36-.52.54-1.14.54-1.86 0-.64-.12-1.48-.36-2.52s-.5-2.12-.78-3.24l-7.14-30.54h4.38l6 29.52 5.82-29.52h4.44l-8.4 37.14c-.32 1.48-.9 2.66-1.74 3.54-.8.92-1.88 1.58-3.24 1.98-1.32.44-2.96.66-4.92.66h-1.14zm19.762-.3V102a11.17 11.17 0 002.764-2.58c.8-1.08 1.5-2.5 2.1-4.26.6-1.76 1.1-4 1.5-6.72.4-2.72.7-6.06.9-10.02l.54-8.1h14.46v31.5h3.48v11.52h-3.3l-.36-8.34h-18.36l-.42 8.34h-3.304zm4.564-11.52h13.44V73.56h-6.66l-.54 5.76c-.24 3.8-.52 7-.84 9.6-.32 2.6-.72 4.74-1.2 6.42-.48 1.68-1.08 3.04-1.8 4.08-.68 1-1.48 1.8-2.4 2.4zm32.38 3.72c-1.4 0-2.62-.34-3.66-1.02a7.635 7.635 0 01-2.46-2.82c-.56-1.2-.84-2.5-.84-3.9 0-1.76.24-3.26.72-4.5.52-1.24 1.32-2.34 2.4-3.3 1.12-1 2.56-1.96 4.32-2.88 1.8-.96 3.98-2.02 6.54-3.18v-2.46c0-2.12-.14-3.78-.42-4.98-.24-1.24-.68-2.12-1.32-2.64-.6-.52-1.46-.78-2.58-.78-.92 0-1.74.18-2.46.54-.72.36-1.3.98-1.74 1.86-.44.84-.66 2.02-.66 3.54v1.2l-4.32-.06c.04-3.52.78-6.12 2.22-7.8 1.48-1.72 3.88-2.58 7.2-2.58 3.12 0 5.3.94 6.54 2.82 1.28 1.84 1.92 4.72 1.92 8.64V98.1c0 .6.02 1.38.06 2.34.04.92.08 1.8.12 2.64.04.84.08 1.48.12 1.92h-3.9c-.08-.76-.2-1.6-.36-2.52-.16-.96-.26-1.72-.3-2.28-.48 1.4-1.34 2.64-2.58 3.72-1.2 1.08-2.72 1.62-4.56 1.62zm1.38-3.72c.88 0 1.68-.22 2.4-.66.72-.44 1.36-.96 1.92-1.56.56-.64 1-1.28 1.32-1.92v-10.8c-1.72.88-3.2 1.68-4.44 2.4-1.2.72-2.18 1.42-2.94 2.1-.76.68-1.32 1.46-1.68 2.34-.36.84-.54 1.84-.54 3 0 1.84.4 3.16 1.2 3.96.8.76 1.72 1.14 2.76 1.14zm16.47 14.58V70.32h4.38v2.88c.72-.88 1.62-1.66 2.7-2.34 1.08-.72 2.4-1.08 3.96-1.08 1.68 0 3.02.4 4.02 1.2 1.04.76 1.84 1.8 2.4 3.12.56 1.32.94 2.8 1.14 4.44.2 1.64.3 3.32.3 5.04v7.32c0 2.96-.24 5.54-.72 7.74-.48 2.16-1.34 3.86-2.58 5.1-1.2 1.2-2.88 1.8-5.04 1.8-1.4 0-2.62-.36-3.66-1.08-1-.72-1.84-1.46-2.52-2.22v14.16h-4.38zm9.9-14.34c1.32 0 2.3-.42 2.94-1.26.68-.84 1.12-2.08 1.32-3.72.24-1.68.36-3.7.36-6.06v-7.44c0-2.24-.12-4.12-.36-5.64-.2-1.56-.64-2.74-1.32-3.54-.68-.8-1.7-1.2-3.06-1.2-1.12 0-2.16.3-3.12.9-.92.6-1.68 1.2-2.28 1.8v23.64c.64.68 1.42 1.28 2.34 1.8.96.48 2.02.72 3.18.72zm23.76 3.48c-2.72 0-4.74-.6-6.06-1.8-1.32-1.2-2.2-2.82-2.64-4.86-.4-2.08-.6-4.42-.6-7.02v-8.1c0-3.2.26-5.82.78-7.86.52-2.08 1.44-3.62 2.76-4.62 1.36-1 3.28-1.5 5.76-1.5 2.44 0 4.3.46 5.58 1.38 1.28.92 2.14 2.22 2.58 3.9.44 1.68.66 3.62.66 5.82v1.68h-4.08v-1.68c0-2.04-.16-3.62-.48-4.74-.28-1.12-.78-1.9-1.5-2.34-.68-.48-1.6-.72-2.76-.72-1.36 0-2.4.32-3.12.96-.72.64-1.2 1.7-1.44 3.18-.24 1.44-.36 3.38-.36 5.82v9.72c0 3.48.34 5.94 1.02 7.38.68 1.4 2 2.1 3.96 2.1 1.36 0 2.38-.3 3.06-.9.68-.64 1.12-1.58 1.32-2.82.2-1.24.3-2.78.3-4.62v-1.92h4.08v1.68c0 2.32-.22 4.38-.66 6.18-.4 1.76-1.24 3.16-2.52 4.2-1.28 1-3.16 1.5-5.64 1.5zm19.24-.54V73.68h-7.5v-3.36h19.26v3.36h-7.38V105h-4.38zm15.54 0V70.32h8.4c2.28 0 4.04.4 5.28 1.2 1.28.8 2.2 1.84 2.76 3.12.56 1.24.84 2.58.84 4.02 0 1.56-.3 3.06-.9 4.5-.6 1.4-1.78 2.4-3.54 3 1.36.36 2.4 1 3.12 1.92.76.88 1.3 1.92 1.62 3.12.32 1.2.48 2.46.48 3.78 0 1.96-.26 3.7-.78 5.22-.52 1.52-1.44 2.7-2.76 3.54-1.32.84-3.2 1.26-5.64 1.26h-8.88zm4.32-3.36h3.78c1.36 0 2.44-.26 3.24-.78.84-.52 1.44-1.28 1.8-2.28.4-1.04.6-2.3.6-3.78 0-1.84-.24-3.22-.72-4.14-.44-.96-1.06-1.62-1.86-1.98-.76-.36-1.68-.54-2.76-.54h-4.08v13.5zm0-16.68h4.38c1.36 0 2.46-.5 3.3-1.5.84-1 1.26-2.46 1.26-4.38 0-1.8-.46-3.14-1.38-4.02-.88-.92-2.2-1.38-3.96-1.38h-3.6v11.28zm27.75 20.58c-2.16 0-3.94-.42-5.34-1.26-1.36-.88-2.38-2.32-3.06-4.32-.64-2-.96-4.66-.96-7.98v-8.76c0-3.44.34-6.12 1.02-8.04.68-1.96 1.72-3.34 3.12-4.14 1.4-.84 3.16-1.26 5.28-1.26 2.44 0 4.3.52 5.58 1.56 1.28 1.04 2.16 2.62 2.64 4.74.52 2.08.78 4.76.78 8.04v3.12h-14.04v6.06c0 2.24.16 4.02.48 5.34.36 1.28.9 2.2 1.62 2.76.76.56 1.72.84 2.88.84.88 0 1.68-.16 2.4-.48.72-.36 1.28-1.02 1.68-1.98.44-1 .66-2.4.66-4.2v-2.4h4.26v1.92c0 3.16-.66 5.7-1.98 7.62-1.28 1.88-3.62 2.82-7.02 2.82zm-4.98-20.82h9.72v-2.88c0-1.84-.1-3.4-.3-4.68-.2-1.32-.64-2.32-1.32-3-.64-.72-1.68-1.08-3.12-1.08-1.2 0-2.18.26-2.94.78-.72.52-1.24 1.46-1.56 2.82-.32 1.32-.48 3.22-.48 5.7v2.34zm19.96 20.28V70.32h4.38v15.12h10.8V70.32h4.44V105h-4.44V88.74h-10.8V105h-4.38zm26.3 0V70.32h4.38v15.12h10.8V70.32h4.44V105h-4.44V88.74h-10.8V105h-4.38zm34.89.54c-2.36 0-4.22-.5-5.58-1.5-1.32-1.04-2.26-2.52-2.82-4.44-.56-1.96-.84-4.34-.84-7.14v-9.6c0-2.8.28-5.16.84-7.08.56-1.96 1.5-3.44 2.82-4.44 1.36-1.04 3.22-1.56 5.58-1.56 2.44 0 4.32.52 5.64 1.56 1.32 1 2.26 2.48 2.82 4.44.56 1.92.84 4.28.84 7.08v9.6c0 2.8-.28 5.18-.84 7.14-.56 1.92-1.5 3.4-2.82 4.44-1.32 1-3.2 1.5-5.64 1.5zm0-3.3c1.52 0 2.62-.4 3.3-1.2.72-.8 1.16-1.92 1.32-3.36.16-1.48.24-3.14.24-4.98V82.62c0-1.88-.08-3.52-.24-4.92-.16-1.44-.6-2.56-1.32-3.36-.68-.84-1.78-1.26-3.3-1.26-1.52 0-2.62.42-3.3 1.26-.68.8-1.1 1.92-1.26 3.36-.16 1.4-.24 3.04-.24 4.92V92.7c0 1.84.08 3.5.24 4.98.16 1.44.58 2.56 1.26 3.36.68.8 1.78 1.2 3.3 1.2zm24.09 3.3c-2.16 0-3.94-.42-5.34-1.26-1.36-.88-2.38-2.32-3.06-4.32-.64-2-.96-4.66-.96-7.98v-8.76c0-3.44.34-6.12 1.02-8.04.68-1.96 1.72-3.34 3.12-4.14 1.4-.84 3.16-1.26 5.28-1.26 2.44 0 4.3.52 5.58 1.56 1.28 1.04 2.16 2.62 2.64 4.74.52 2.08.78 4.76.78 8.04v3.12h-14.04v6.06c0 2.24.16 4.02.48 5.34.36 1.28.9 2.2 1.62 2.76.76.56 1.72.84 2.88.84.88 0 1.68-.16 2.4-.48.72-.36 1.28-1.02 1.68-1.98.44-1 .66-2.4.66-4.2v-2.4h4.26v1.92c0 3.16-.66 5.7-1.98 7.62-1.28 1.88-3.62 2.82-7.02 2.82zm-4.98-20.82h9.72v-2.88c0-1.84-.1-3.4-.3-4.68-.2-1.32-.64-2.32-1.32-3-.64-.72-1.68-1.08-3.12-1.08-1.2 0-2.18.26-2.94.78-.72.52-1.24 1.46-1.56 2.82-.32 1.32-.48 3.22-.48 5.7v2.34zm42.1 20.82c-1.72 0-3.34-.4-4.86-1.2-1.52-.8-2.72-2.04-3.6-3.72-.88-1.72-1.32-3.92-1.32-6.6V72.66c0-3 .2-5.42.6-7.26.4-1.88 1.02-3.34 1.86-4.38a8.337 8.337 0 013.18-2.34c1.28-.6 2.58-1.02 3.9-1.26 1.36-.24 2.76-.52 4.2-.84 1.48-.32 3.02-.86 4.62-1.62l.78 3.66c-1.48.72-2.96 1.24-4.44 1.56-1.48.28-2.86.54-4.14.78-1.24.24-2.38.64-3.42 1.2-1.08.6-1.9 1.58-2.46 2.94-.52 1.32-.78 3.28-.78 5.88v4.92c.48-.52 1.16-1.02 2.04-1.5.92-.48 1.9-.88 2.94-1.2 1.04-.32 2.04-.48 3-.48 1.68 0 3.14.42 4.38 1.26 1.24.84 2.18 2.22 2.82 4.14.68 1.92 1.02 4.54 1.02 7.86v6.06c0 3.6-.44 6.36-1.32 8.28-.84 1.92-2.02 3.26-3.54 4.02-1.52.76-3.34 1.16-5.46 1.2zm.36-3.3c1.24-.04 2.26-.32 3.06-.84.8-.52 1.4-1.42 1.8-2.7.44-1.32.66-3.16.66-5.52v-8.34c0-2.28-.16-4.06-.48-5.34-.28-1.32-.76-2.26-1.44-2.82-.68-.56-1.6-.84-2.76-.84-.68 0-1.44.14-2.28.42-.8.24-1.6.56-2.4.96-.76.4-1.4.84-1.92 1.32v15.6c0 1.96.24 3.54.72 4.74.52 1.16 1.2 2.02 2.04 2.58.88.56 1.88.82 3 .78zm33.5 3.3c-2.28 0-4.04-.5-5.28-1.5-1.24-1.04-2.12-2.52-2.64-4.44-.48-1.96-.72-4.34-.72-7.14v-3.18h-4.8V105h-3.96V70.32h3.96v16.02h4.8v-3.48c0-2.8.24-5.16.72-7.08.52-1.96 1.4-3.44 2.64-4.44 1.24-1.04 3-1.56 5.28-1.56 2.28 0 4.04.52 5.28 1.56 1.24 1 2.1 2.48 2.58 4.44.52 1.92.78 4.28.78 7.08v9.6c0 2.8-.26 5.18-.78 7.14-.48 1.92-1.34 3.4-2.58 4.44-1.24 1-3 1.5-5.28 1.5zm0-3.3c1.44 0 2.48-.4 3.12-1.2.68-.8 1.1-1.92 1.26-3.36.2-1.48.3-3.14.3-4.98V82.62c0-1.88-.1-3.52-.3-4.92-.16-1.44-.58-2.56-1.26-3.36-.64-.84-1.68-1.26-3.12-1.26-1.44 0-2.5.42-3.18 1.26-.64.8-1.06 1.92-1.26 3.36-.16 1.4-.24 3.04-.24 4.92V92.7c0 1.84.08 3.5.24 4.98.2 1.44.62 2.56 1.26 3.36.68.8 1.74 1.2 3.18 1.2zm12.01 11.1V102c1.04-.68 1.96-1.54 2.76-2.58.8-1.08 1.5-2.5 2.1-4.26.6-1.76 1.1-4 1.5-6.72.4-2.72.7-6.06.9-10.02l.54-8.1h14.46v31.5h3.48v11.52h-3.3l-.36-8.34h-18.36l-.42 8.34h-3.3zm4.56-11.52h13.44V73.56h-6.66l-.54 5.76c-.24 3.8-.52 7-.84 9.6-.32 2.6-.72 4.74-1.2 6.42-.48 1.68-1.08 3.04-1.8 4.08-.68 1-1.48 1.8-2.4 2.4zm23.26 3.18l9.78-17.76-9.3-16.92h4.26l8.7 16.62h.54V70.32h3.66v16.62h.54l8.64-16.62h4.2l-9.24 16.92 9.72 17.76h-4.08l-9.24-17.22h-.54V105h-3.66V87.78h-.6l-9.24 17.22h-4.14zm43.82.54c-2.16 0-3.94-.42-5.34-1.26-1.36-.88-2.38-2.32-3.06-4.32-.64-2-.96-4.66-.96-7.98v-8.76c0-3.44.34-6.12 1.02-8.04.68-1.96 1.72-3.34 3.12-4.14 1.4-.84 3.16-1.26 5.28-1.26 2.44 0 4.3.52 5.58 1.56 1.28 1.04 2.16 2.62 2.64 4.74.52 2.08.78 4.76.78 8.04v3.12h-14.04v6.06c0 2.24.16 4.02.48 5.34.36 1.28.9 2.2 1.62 2.76.76.56 1.72.84 2.88.84.88 0 1.68-.16 2.4-.48.72-.36 1.28-1.02 1.68-1.98.44-1 .66-2.4.66-4.2v-2.4h4.26v1.92c0 3.16-.66 5.7-1.98 7.62-1.28 1.88-3.62 2.82-7.02 2.82zm-4.98-20.82h9.72v-2.88c0-1.84-.1-3.4-.3-4.68-.2-1.32-.64-2.32-1.32-3-.64-.72-1.68-1.08-3.12-1.08-1.2 0-2.18.26-2.94.78-.72.52-1.24 1.46-1.56 2.82-.32 1.32-.48 3.22-.48 5.7v2.34zm24.22 20.28V73.68h-7.5v-3.36h19.26v3.36h-7.38V105h-4.38zm15.53 0V70.32h4.38v15.12h10.8V70.32h4.44V105h-4.44V88.74h-10.8V105h-4.38zm34.89.54c-2.36 0-4.22-.5-5.58-1.5-1.32-1.04-2.26-2.52-2.82-4.44-.56-1.96-.84-4.34-.84-7.14v-9.6c0-2.8.28-5.16.84-7.08.56-1.96 1.5-3.44 2.82-4.44 1.36-1.04 3.22-1.56 5.58-1.56 2.44 0 4.32.52 5.64 1.56 1.32 1 2.26 2.48 2.82 4.44.56 1.92.84 4.28.84 7.08v9.6c0 2.8-.28 5.18-.84 7.14-.56 1.92-1.5 3.4-2.82 4.44-1.32 1-3.2 1.5-5.64 1.5zm0-3.3c1.52 0 2.62-.4 3.3-1.2.72-.8 1.16-1.92 1.32-3.36.16-1.48.24-3.14.24-4.98V82.62c0-1.88-.08-3.52-.24-4.92-.16-1.44-.6-2.56-1.32-3.36-.68-.84-1.78-1.26-3.3-1.26-1.52 0-2.62.42-3.3 1.26-.68.8-1.1 1.92-1.26 3.36-.16 1.4-.24 3.04-.24 4.92V92.7c0 1.84.08 3.5.24 4.98.16 1.44.58 2.56 1.26 3.36.68.8 1.78 1.2 3.3 1.2zm24.09 3.3c-2.16 0-3.94-.42-5.34-1.26-1.36-.88-2.38-2.32-3.06-4.32-.64-2-.96-4.66-.96-7.98v-8.76c0-3.44.34-6.12 1.02-8.04.68-1.96 1.72-3.34 3.12-4.14 1.4-.84 3.16-1.26 5.28-1.26 2.44 0 4.3.52 5.58 1.56 1.28 1.04 2.16 2.62 2.64 4.74.52 2.08.78 4.76.78 8.04v3.12h-14.04v6.06c0 2.24.16 4.02.48 5.34.36 1.28.9 2.2 1.62 2.76.76.56 1.72.84 2.88.84.88 0 1.68-.16 2.4-.48.72-.36 1.28-1.02 1.68-1.98.44-1 .66-2.4.66-4.2v-2.4h4.26v1.92c0 3.16-.66 5.7-1.98 7.62-1.28 1.88-3.62 2.82-7.02 2.82zm-4.98-20.82h9.72v-2.88c0-1.84-.1-3.4-.3-4.68-.2-1.32-.64-2.32-1.32-3-.64-.72-1.68-1.08-3.12-1.08-1.2 0-2.18.26-2.94.78-.72.52-1.24 1.46-1.56 2.82-.32 1.32-.48 3.22-.48 5.7v2.34zm40.77 20.82c-2.36 0-4.22-.5-5.58-1.5-1.32-1.04-2.26-2.52-2.82-4.44-.56-1.96-.84-4.34-.84-7.14v-9.6c0-2.8.28-5.16.84-7.08.56-1.96 1.5-3.44 2.82-4.44 1.36-1.04 3.22-1.56 5.58-1.56 2.44 0 4.32.52 5.64 1.56 1.32 1 2.26 2.48 2.82 4.44.56 1.92.84 4.28.84 7.08v9.6c0 2.8-.28 5.18-.84 7.14-.56 1.92-1.5 3.4-2.82 4.44-1.32 1-3.2 1.5-5.64 1.5zm0-3.3c1.52 0 2.62-.4 3.3-1.2.72-.8 1.16-1.92 1.32-3.36.16-1.48.24-3.14.24-4.98V82.62c0-1.88-.08-3.52-.24-4.92-.16-1.44-.6-2.56-1.32-3.36-.68-.84-1.78-1.26-3.3-1.26-1.52 0-2.62.42-3.3 1.26-.68.8-1.1 1.92-1.26 3.36-.16 1.4-.24 3.04-.24 4.92V92.7c0 1.84.08 3.5.24 4.98.16 1.44.58 2.56 1.26 3.36.68.8 1.78 1.2 3.3 1.2zm25.29 3.3c-1.72 0-3.34-.4-4.86-1.2-1.52-.8-2.72-2.04-3.6-3.72-.88-1.72-1.32-3.92-1.32-6.6V72.66c0-3 .2-5.42.6-7.26.4-1.88 1.02-3.34 1.86-4.38a8.337 8.337 0 013.18-2.34c1.28-.6 2.58-1.02 3.9-1.26 1.36-.24 2.76-.52 4.2-.84 1.48-.32 3.02-.86 4.62-1.62l.78 3.66c-1.48.72-2.96 1.24-4.44 1.56-1.48.28-2.86.54-4.14.78-1.24.24-2.38.64-3.42 1.2-1.08.6-1.9 1.58-2.46 2.94-.52 1.32-.78 3.28-.78 5.88v4.92c.48-.52 1.16-1.02 2.04-1.5.92-.48 1.9-.88 2.94-1.2 1.04-.32 2.04-.48 3-.48 1.68 0 3.14.42 4.38 1.26 1.24.84 2.18 2.22 2.82 4.14.68 1.92 1.02 4.54 1.02 7.86v6.06c0 3.6-.44 6.36-1.32 8.28-.84 1.92-2.02 3.26-3.54 4.02-1.52.76-3.34 1.16-5.46 1.2zm.36-3.3c1.24-.04 2.26-.32 3.06-.84.8-.52 1.4-1.42 1.8-2.7.44-1.32.66-3.16.66-5.52v-8.34c0-2.28-.16-4.06-.48-5.34-.28-1.32-.76-2.26-1.44-2.82-.68-.56-1.6-.84-2.76-.84-.68 0-1.44.14-2.28.42-.8.24-1.6.56-2.4.96-.76.4-1.4.84-1.92 1.32v15.6c0 1.96.24 3.54.72 4.74.52 1.16 1.2 2.02 2.04 2.58.88.56 1.88.82 3 .78zM1581 116.4V70.32h4.38v2.88c.72-.88 1.62-1.66 2.7-2.34 1.08-.72 2.4-1.08 3.96-1.08 1.68 0 3.02.4 4.02 1.2 1.04.76 1.84 1.8 2.4 3.12.56 1.32.94 2.8 1.14 4.44.2 1.64.3 3.32.3 5.04v7.32c0 2.96-.24 5.54-.72 7.74-.48 2.16-1.34 3.86-2.58 5.1-1.2 1.2-2.88 1.8-5.04 1.8-1.4 0-2.62-.36-3.66-1.08-1-.72-1.84-1.46-2.52-2.22v14.16H1581zm9.9-14.34c1.32 0 2.3-.42 2.94-1.26.68-.84 1.12-2.08 1.32-3.72.24-1.68.36-3.7.36-6.06v-7.44c0-2.24-.12-4.12-.36-5.64-.2-1.56-.64-2.74-1.32-3.54-.68-.8-1.7-1.2-3.06-1.2-1.12 0-2.16.3-3.12.9-.92.6-1.68 1.2-2.28 1.8v23.64c.64.68 1.42 1.28 2.34 1.8.96.48 2.02.72 3.18.72zm21.12 3.48c-1.4 0-2.62-.34-3.66-1.02a7.635 7.635 0 01-2.46-2.82c-.56-1.2-.84-2.5-.84-3.9 0-1.76.24-3.26.72-4.5.52-1.24 1.32-2.34 2.4-3.3 1.12-1 2.56-1.96 4.32-2.88 1.8-.96 3.98-2.02 6.54-3.18v-2.46c0-2.12-.14-3.78-.42-4.98-.24-1.24-.68-2.12-1.32-2.64-.6-.52-1.46-.78-2.58-.78-.92 0-1.74.18-2.46.54-.72.36-1.3.98-1.74 1.86-.44.84-.66 2.02-.66 3.54v1.2l-4.32-.06c.04-3.52.78-6.12 2.22-7.8 1.48-1.72 3.88-2.58 7.2-2.58 3.12 0 5.3.94 6.54 2.82 1.28 1.84 1.92 4.72 1.92 8.64V98.1c0 .6.02 1.38.06 2.34.04.92.08 1.8.12 2.64.04.84.08 1.48.12 1.92h-3.9c-.08-.76-.2-1.6-.36-2.52-.16-.96-.26-1.72-.3-2.28-.48 1.4-1.34 2.64-2.58 3.72-1.2 1.08-2.72 1.62-4.56 1.62zm1.38-3.72c.88 0 1.68-.22 2.4-.66.72-.44 1.36-.96 1.92-1.56.56-.64 1-1.28 1.32-1.92v-10.8c-1.72.88-3.2 1.68-4.44 2.4-1.2.72-2.18 1.42-2.94 2.1-.76.68-1.32 1.46-1.68 2.34-.36.84-.54 1.84-.54 3 0 1.84.4 3.16 1.2 3.96.8.76 1.72 1.14 2.76 1.14zm24.08 3.78c-1.44 0-2.7-.2-3.78-.6a6.688 6.688 0 01-2.7-1.98c-.72-.88-1.26-1.96-1.62-3.24-.36-1.32-.54-2.82-.54-4.5h3.9c0 2.32.38 4.1 1.14 5.34.8 1.2 2.04 1.8 3.72 1.8 1.16 0 2.08-.28 2.76-.84.68-.6 1.16-1.44 1.44-2.52.32-1.12.48-2.42.48-3.9 0-1.52-.22-2.74-.66-3.66-.44-.96-1.2-1.68-2.28-2.16-1.08-.48-2.52-.72-4.32-.72v-3.24c2.84 0 4.76-.5 5.76-1.5 1-1.04 1.5-2.52 1.5-4.44 0-1.88-.4-3.4-1.2-4.56-.8-1.2-1.98-1.8-3.54-1.8s-2.8.5-3.72 1.5c-.92.96-1.38 2.56-1.38 4.8h-3.84c0-2.24.36-4.06 1.08-5.46.72-1.44 1.76-2.48 3.12-3.12 1.36-.68 2.98-1.02 4.86-1.02 2.04 0 3.68.44 4.92 1.32a7.51 7.51 0 012.7 3.48c.6 1.44.9 2.98.9 4.62 0 1.68-.28 3.08-.84 4.2-.56 1.08-1.3 1.9-2.22 2.46-.88.56-1.8.92-2.76 1.08 1 .24 1.94.66 2.82 1.26.92.56 1.66 1.42 2.22 2.58.6 1.16.9 2.78.9 4.86 0 3.16-.76 5.62-2.28 7.38-1.48 1.72-3.66 2.58-6.54 2.58zm22.82-.06c-2.36 0-4.22-.5-5.58-1.5-1.32-1.04-2.26-2.52-2.82-4.44-.56-1.96-.84-4.34-.84-7.14v-9.6c0-2.8.28-5.16.84-7.08.56-1.96 1.5-3.44 2.82-4.44 1.36-1.04 3.22-1.56 5.58-1.56 2.44 0 4.32.52 5.64 1.56 1.32 1 2.26 2.48 2.82 4.44.56 1.92.84 4.28.84 7.08v9.6c0 2.8-.28 5.18-.84 7.14-.56 1.92-1.5 3.4-2.82 4.44-1.32 1-3.2 1.5-5.64 1.5zm0-3.3c1.52 0 2.62-.4 3.3-1.2.72-.8 1.16-1.92 1.32-3.36.16-1.48.24-3.14.24-4.98V82.62c0-1.88-.08-3.52-.24-4.92-.16-1.44-.6-2.56-1.32-3.36-.68-.84-1.78-1.26-3.3-1.26-1.52 0-2.62.42-3.3 1.26-.68.8-1.1 1.92-1.26 3.36-.16 1.4-.24 3.04-.24 4.92V92.7c0 1.84.08 3.5.24 4.98.16 1.44.58 2.56 1.26 3.36.68.8 1.78 1.2 3.3 1.2zm15.38 2.76V70.32h8.4c2.28 0 4.04.4 5.28 1.2 1.28.8 2.2 1.84 2.76 3.12.56 1.24.84 2.58.84 4.02 0 1.56-.3 3.06-.9 4.5-.6 1.4-1.78 2.4-3.54 3 1.36.36 2.4 1 3.12 1.92.76.88 1.3 1.92 1.62 3.12.32 1.2.48 2.46.48 3.78 0 1.96-.26 3.7-.78 5.22-.52 1.52-1.44 2.7-2.76 3.54-1.32.84-3.2 1.26-5.64 1.26h-8.88zm4.32-3.36h3.78c1.36 0 2.44-.26 3.24-.78.84-.52 1.44-1.28 1.8-2.28.4-1.04.6-2.3.6-3.78 0-1.84-.24-3.22-.72-4.14-.44-.96-1.06-1.62-1.86-1.98-.76-.36-1.68-.54-2.76-.54H1680v13.5zm0-16.68h4.38c1.36 0 2.46-.5 3.3-1.5.84-1 1.26-2.46 1.26-4.38 0-1.8-.46-3.14-1.38-4.02-.88-.92-2.2-1.38-3.96-1.38h-3.6v11.28zm25.06 20.58c-1.4 0-2.62-.34-3.66-1.02a7.635 7.635 0 01-2.46-2.82c-.56-1.2-.84-2.5-.84-3.9 0-1.76.24-3.26.72-4.5.52-1.24 1.32-2.34 2.4-3.3 1.12-1 2.56-1.96 4.32-2.88 1.8-.96 3.98-2.02 6.54-3.18v-2.46c0-2.12-.14-3.78-.42-4.98-.24-1.24-.68-2.12-1.32-2.64-.6-.52-1.46-.78-2.58-.78-.92 0-1.74.18-2.46.54-.72.36-1.3.98-1.74 1.86-.44.84-.66 2.02-.66 3.54v1.2l-4.32-.06c.04-3.52.78-6.12 2.22-7.8 1.48-1.72 3.88-2.58 7.2-2.58 3.12 0 5.3.94 6.54 2.82 1.28 1.84 1.92 4.72 1.92 8.64V98.1c0 .6.02 1.38.06 2.34.04.92.08 1.8.12 2.64.04.84.08 1.48.12 1.92h-3.9c-.08-.76-.2-1.6-.36-2.52-.16-.96-.26-1.72-.3-2.28-.48 1.4-1.34 2.64-2.58 3.72-1.2 1.08-2.72 1.62-4.56 1.62zm1.38-3.72c.88 0 1.68-.22 2.4-.66.72-.44 1.36-.96 1.92-1.56.56-.64 1-1.28 1.32-1.92v-10.8c-1.72.88-3.2 1.68-4.44 2.4-1.2.72-2.18 1.42-2.94 2.1-.76.68-1.32 1.46-1.68 2.34-.36.84-.54 1.84-.54 3 0 1.84.4 3.16 1.2 3.96.8.76 1.72 1.14 2.76 1.14zm21.03 3.18V73.68h-7.5v-3.36h19.26v3.36h-7.38V105h-4.38zm23.89.54c-2.16 0-3.94-.42-5.34-1.26-1.36-.88-2.38-2.32-3.06-4.32-.64-2-.96-4.66-.96-7.98v-8.76c0-3.44.34-6.12 1.02-8.04.68-1.96 1.72-3.34 3.12-4.14 1.4-.84 3.16-1.26 5.28-1.26 2.44 0 4.3.52 5.58 1.56 1.28 1.04 2.16 2.62 2.64 4.74.52 2.08.78 4.76.78 8.04v3.12h-14.04v6.06c0 2.24.16 4.02.48 5.34.36 1.28.9 2.2 1.62 2.76.76.56 1.72.84 2.88.84.88 0 1.68-.16 2.4-.48.72-.36 1.28-1.02 1.68-1.98.44-1 .66-2.4.66-4.2v-2.4h4.26v1.92c0 3.16-.66 5.7-1.98 7.62-1.28 1.88-3.62 2.82-7.02 2.82zm-4.98-20.82h9.72v-2.88c0-1.84-.1-3.4-.3-4.68-.2-1.32-.64-2.32-1.32-3-.64-.72-1.68-1.08-3.12-1.08-1.2 0-2.18.26-2.94.78-.72.52-1.24 1.46-1.56 2.82-.32 1.32-.48 3.22-.48 5.7v2.34zm17.25 20.58v-3.36c1.16-.04 2.1-.28 2.82-.72.76-.44 1.36-1.22 1.8-2.34.48-1.16.86-2.8 1.14-4.92.32-2.12.6-4.84.84-8.16l1.08-15.48h15.84V105h-4.38V73.68h-7.62l-.84 12.12c-.28 3.92-.62 7.14-1.02 9.66-.4 2.52-.98 4.5-1.74 5.94-.72 1.44-1.68 2.46-2.88 3.06-1.16.56-2.62.84-4.38.84h-.66zm30.18-.3V70.32h4.38v14.1h2.1c2.36 0 4.3.26 5.82.78 1.52.48 2.72 1.18 3.6 2.1.88.88 1.5 1.96 1.86 3.24.36 1.24.54 2.64.54 4.2 0 1.48-.18 2.86-.54 4.14-.36 1.24-1 2.32-1.92 3.24-.88.88-2.12 1.58-3.72 2.1-1.56.52-3.56.78-6 .78h-6.12zm4.38-2.76h1.74c2.24 0 3.94-.3 5.1-.9 1.16-.64 1.96-1.5 2.4-2.58.44-1.12.66-2.46.66-4.02 0-1.48-.2-2.78-.6-3.9-.4-1.12-1.16-2-2.28-2.64-1.12-.68-2.82-1.02-5.1-1.02h-1.92v15.06zm18.94 2.76V70.32h4.38v15.12h10.8V70.32h4.44V105h-4.44V88.74h-10.8V105h-4.38zm34.89.54c-2.36 0-4.22-.5-5.58-1.5-1.32-1.04-2.26-2.52-2.82-4.44-.56-1.96-.84-4.34-.84-7.14v-9.6c0-2.8.28-5.16.84-7.08.56-1.96 1.5-3.44 2.82-4.44 1.36-1.04 3.22-1.56 5.58-1.56 2.44 0 4.32.52 5.64 1.56 1.32 1 2.26 2.48 2.82 4.44.56 1.92.84 4.28.84 7.08v9.6c0 2.8-.28 5.18-.84 7.14-.56 1.92-1.5 3.4-2.82 4.44-1.32 1-3.2 1.5-5.64 1.5zm0-3.3c1.52 0 2.62-.4 3.3-1.2.72-.8 1.16-1.92 1.32-3.36.16-1.48.24-3.14.24-4.98V82.62c0-1.88-.08-3.52-.24-4.92-.16-1.44-.6-2.56-1.32-3.36-.68-.84-1.78-1.26-3.3-1.26-1.52 0-2.62.42-3.3 1.26-.68.8-1.1 1.92-1.26 3.36-.16 1.4-.24 3.04-.24 4.92V92.7c0 1.84.08 3.5.24 4.98.16 1.44.58 2.56 1.26 3.36.68.8 1.78 1.2 3.3 1.2zm24.08 3.3c-2.16 0-3.94-.42-5.34-1.26-1.36-.88-2.38-2.32-3.06-4.32-.64-2-.96-4.66-.96-7.98v-8.76c0-3.44.34-6.12 1.02-8.04.68-1.96 1.72-3.34 3.12-4.14 1.4-.84 3.16-1.26 5.28-1.26 2.44 0 4.3.52 5.58 1.56 1.28 1.04 2.16 2.62 2.64 4.74.52 2.08.78 4.76.78 8.04v3.12h-14.04v6.06c0 2.24.16 4.02.48 5.34.36 1.28.9 2.2 1.62 2.76.76.56 1.72.84 2.88.84.88 0 1.68-.16 2.4-.48.72-.36 1.28-1.02 1.68-1.98.44-1 .66-2.4.66-4.2v-2.4h4.26v1.92c0 3.16-.66 5.7-1.98 7.62-1.28 1.88-3.62 2.82-7.02 2.82zm-4.98-20.82h9.72v-2.88c0-1.84-.1-3.4-.3-4.68-.2-1.32-.64-2.32-1.32-3-.64-.72-1.68-1.08-3.12-1.08-1.2 0-2.18.26-2.94.78-.72.52-1.24 1.46-1.56 2.82-.32 1.32-.48 3.22-.48 5.7v2.34zm31.24 28.92v-3.42c2 0 3.5-.16 4.5-.48 1.04-.28 1.72-.7 2.04-1.26.36-.52.54-1.14.54-1.86 0-.64-.12-1.48-.36-2.52s-.5-2.12-.78-3.24l-7.14-30.54h4.38l6 29.52 5.82-29.52h4.44l-8.4 37.14c-.32 1.48-.9 2.66-1.74 3.54-.8.92-1.88 1.58-3.24 1.98-1.32.44-2.96.66-4.92.66h-1.14zm36.47-8.64V90.54c-.76.12-1.56.26-2.4.42-.8.12-1.68.18-2.64.18-1.64 0-3.12-.24-4.44-.72a6.507 6.507 0 01-3.06-2.52c-.72-1.16-1.08-2.74-1.08-4.74V70.32h4.38v12.96c0 1.52.4 2.68 1.2 3.48.84.8 2.14 1.2 3.9 1.2.84 0 1.56-.06 2.16-.18.64-.12 1.3-.24 1.98-.36v-17.1h4.44V105h-4.44zm11.19 11.4V70.32h4.38v2.88c.72-.88 1.62-1.66 2.7-2.34 1.08-.72 2.4-1.08 3.96-1.08 1.68 0 3.02.4 4.02 1.2 1.04.76 1.84 1.8 2.4 3.12.56 1.32.94 2.8 1.14 4.44.2 1.64.3 3.32.3 5.04v7.32c0 2.96-.24 5.54-.72 7.74-.48 2.16-1.34 3.86-2.58 5.1-1.2 1.2-2.88 1.8-5.04 1.8-1.4 0-2.62-.36-3.66-1.08-1-.72-1.84-1.46-2.52-2.22v14.16h-4.38zm9.9-14.34c1.32 0 2.3-.42 2.94-1.26.68-.84 1.12-2.08 1.32-3.72.24-1.68.36-3.7.36-6.06v-7.44c0-2.24-.12-4.12-.36-5.64-.2-1.56-.64-2.74-1.32-3.54-.68-.8-1.7-1.2-3.06-1.2-1.12 0-2.16.3-3.12.9-.92.6-1.68 1.2-2.28 1.8v23.64c.64.68 1.42 1.28 2.34 1.8.96.48 2.02.72 3.18.72zm23.82 3.48c-2.16 0-3.94-.42-5.34-1.26-1.36-.88-2.38-2.32-3.06-4.32-.64-2-.96-4.66-.96-7.98v-8.76c0-3.44.34-6.12 1.02-8.04.68-1.96 1.72-3.34 3.12-4.14 1.4-.84 3.16-1.26 5.28-1.26 2.44 0 4.3.52 5.58 1.56 1.28 1.04 2.16 2.62 2.64 4.74.52 2.08.78 4.76.78 8.04v3.12h-14.04v6.06c0 2.24.16 4.02.48 5.34.36 1.28.9 2.2 1.62 2.76.76.56 1.72.84 2.88.84.88 0 1.68-.16 2.4-.48.72-.36 1.28-1.02 1.68-1.98.44-1 .66-2.4.66-4.2v-2.4h4.26v1.92c0 3.16-.66 5.7-1.98 7.62-1.28 1.88-3.62 2.82-7.02 2.82zm-4.98-20.82h9.72v-2.88c0-1.84-.1-3.4-.3-4.68-.2-1.32-.64-2.32-1.32-3-.64-.72-1.68-1.08-3.12-1.08-1.2 0-2.18.26-2.94.78-.72.52-1.24 1.46-1.56 2.82-.32 1.32-.48 3.22-.48 5.7v2.34zm16.83 20.28l9.78-17.76-9.3-16.92h4.26l8.7 16.62h.54V70.32h3.66v16.62h.54l8.64-16.62h4.2l-9.24 16.92 9.72 17.76h-4.08l-9.24-17.22h-.54V105h-3.66V87.78h-.6l-9.24 17.22h-4.14zm32.35 8.34V102c1.04-.68 1.96-1.54 2.76-2.58.8-1.08 1.5-2.5 2.1-4.26.6-1.76 1.1-4 1.5-6.72.4-2.72.7-6.06.9-10.02l.54-8.1h14.46v31.5h3.48v11.52h-3.3l-.36-8.34h-18.36l-.42 8.34h-3.3zm4.56-11.52h13.44V73.56h-6.66l-.54 5.76c-.24 3.8-.52 7-.84 9.6-.32 2.6-.72 4.74-1.2 6.42-.48 1.68-1.08 3.04-1.8 4.08-.68 1-1.48 1.8-2.4 2.4zm35.09 3.72c-2.16 0-3.94-.42-5.34-1.26-1.36-.88-2.38-2.32-3.06-4.32-.64-2-.96-4.66-.96-7.98v-8.76c0-3.44.34-6.12 1.02-8.04.68-1.96 1.72-3.34 3.12-4.14 1.4-.84 3.16-1.26 5.28-1.26 2.44 0 4.3.52 5.58 1.56 1.28 1.04 2.16 2.62 2.64 4.74.52 2.08.78 4.76.78 8.04v3.12h-14.04v6.06c0 2.24.16 4.02.48 5.34.36 1.28.9 2.2 1.62 2.76.76.56 1.72.84 2.88.84.88 0 1.68-.16 2.4-.48.72-.36 1.28-1.02 1.68-1.98.44-1 .66-2.4.66-4.2v-2.4h4.26v1.92c0 3.16-.66 5.7-1.98 7.62-1.28 1.88-3.62 2.82-7.02 2.82zm-4.98-20.82h9.72v-2.88c0-1.84-.1-3.4-.3-4.68-.2-1.32-.64-2.32-1.32-3-.64-.72-1.68-1.08-3.12-1.08-1.2 0-2.18.26-2.94.78-.72.52-1.24 1.46-1.56 2.82-.32 1.32-.48 3.22-.48 5.7v2.34zm19.95 20.28V70.32h4.38v15.12h10.8V70.32h4.44V105h-4.44V88.74h-10.8V105h-4.38zm26.31 0V70.32h3.72v26.7l11.58-26.7h3.54V105h-3.72V78.36L2112.53 105h-3.66zm34.24.54c-2.16 0-3.94-.42-5.34-1.26-1.36-.88-2.38-2.32-3.06-4.32-.64-2-.96-4.66-.96-7.98v-8.76c0-3.44.34-6.12 1.02-8.04.68-1.96 1.72-3.34 3.12-4.14 1.4-.84 3.16-1.26 5.28-1.26 2.44 0 4.3.52 5.58 1.56 1.28 1.04 2.16 2.62 2.64 4.74.52 2.08.78 4.76.78 8.04v3.12h-14.04v6.06c0 2.24.16 4.02.48 5.34.36 1.28.9 2.2 1.62 2.76.76.56 1.72.84 2.88.84.88 0 1.68-.16 2.4-.48.72-.36 1.28-1.02 1.68-1.98.44-1 .66-2.4.66-4.2v-2.4h4.26v1.92c0 3.16-.66 5.7-1.98 7.62-1.28 1.88-3.62 2.82-7.02 2.82zm-4.98-20.82h9.72v-2.88c0-1.84-.1-3.4-.3-4.68-.2-1.32-.64-2.32-1.32-3-.64-.72-1.68-1.08-3.12-1.08-1.2 0-2.18.26-2.94.78-.72.52-1.24 1.46-1.56 2.82-.32 1.32-.48 3.22-.48 5.7v2.34zm32.2 20.28V70.32h8.4c2.28 0 4.04.4 5.28 1.2 1.28.8 2.2 1.84 2.76 3.12.56 1.24.84 2.58.84 4.02 0 1.56-.3 3.06-.9 4.5-.6 1.4-1.78 2.4-3.54 3 1.36.36 2.4 1 3.12 1.92.76.88 1.3 1.92 1.62 3.12.32 1.2.48 2.46.48 3.78 0 1.96-.26 3.7-.78 5.22-.52 1.52-1.44 2.7-2.76 3.54-1.32.84-3.2 1.26-5.64 1.26h-8.88zm4.32-3.36h3.78c1.36 0 2.44-.26 3.24-.78.84-.52 1.44-1.28 1.8-2.28.4-1.04.6-2.3.6-3.78 0-1.84-.24-3.22-.72-4.14-.44-.96-1.06-1.62-1.86-1.98-.76-.36-1.68-.54-2.76-.54h-4.08v13.5zm0-16.68h4.38c1.36 0 2.46-.5 3.3-1.5.84-1 1.26-2.46 1.26-4.38 0-1.8-.46-3.14-1.38-4.02-.88-.92-2.2-1.38-3.96-1.38h-3.6v11.28zm19.06 20.04V70.32h4.38v14.1h2.1c2.36 0 4.3.26 5.82.78 1.52.48 2.72 1.18 3.6 2.1.88.92 1.5 2.02 1.86 3.3.36 1.24.54 2.66.54 4.26 0 1.48-.18 2.84-.54 4.08-.36 1.2-1 2.26-1.92 3.18-.88.92-2.12 1.64-3.72 2.16-1.56.48-3.56.72-6 .72h-6.12zm4.38-2.76h1.74c2.24 0 3.94-.3 5.1-.9 1.16-.6 1.96-1.46 2.4-2.58.44-1.12.66-2.44.66-3.96 0-1.48-.2-2.78-.6-3.9-.4-1.12-1.16-2.02-2.28-2.7-1.12-.68-2.82-1.02-5.1-1.02h-1.92v15.06zm18.3 2.76V70.32h4.38V105h-4.38zm19.77.54c-2.72 0-4.74-.6-6.06-1.8-1.32-1.2-2.2-2.82-2.64-4.86-.4-2.08-.6-4.42-.6-7.02v-8.1c0-3.2.26-5.82.78-7.86.52-2.08 1.44-3.62 2.76-4.62 1.36-1 3.28-1.5 5.76-1.5 2.44 0 4.3.46 5.58 1.38 1.28.92 2.14 2.22 2.58 3.9.44 1.68.66 3.62.66 5.82v1.68h-4.08v-1.68c0-2.04-.16-3.62-.48-4.74-.28-1.12-.78-1.9-1.5-2.34-.68-.48-1.6-.72-2.76-.72-1.36 0-2.4.32-3.12.96-.72.64-1.2 1.7-1.44 3.18-.24 1.44-.36 3.38-.36 5.82v9.72c0 3.48.34 5.94 1.02 7.38.68 1.4 2 2.1 3.96 2.1 1.36 0 2.38-.3 3.06-.9.68-.64 1.12-1.58 1.32-2.82.2-1.24.3-2.78.3-4.62v-1.92h4.08v1.68c0 2.32-.22 4.38-.66 6.18-.4 1.76-1.24 3.16-2.52 4.2-1.28 1-3.16 1.5-5.64 1.5zm14.68-.54V70.32h4.26v31.56h7.62V70.32h4.26v31.56h7.62V70.32h4.26V105h-28.02zm43.45.54c-2.16 0-3.94-.42-5.34-1.26-1.36-.88-2.38-2.32-3.06-4.32-.64-2-.96-4.66-.96-7.98v-8.76c0-3.44.34-6.12 1.02-8.04.68-1.96 1.72-3.34 3.12-4.14 1.4-.84 3.16-1.26 5.28-1.26 2.44 0 4.3.52 5.58 1.56 1.28 1.04 2.16 2.62 2.64 4.74.52 2.08.78 4.76.78 8.04v3.12h-14.04v6.06c0 2.24.16 4.02.48 5.34.36 1.28.9 2.2 1.62 2.76.76.56 1.72.84 2.88.84.88 0 1.68-.16 2.4-.48.72-.36 1.28-1.02 1.68-1.98.44-1 .66-2.4.66-4.2v-2.4h4.26v1.92c0 3.16-.66 5.7-1.98 7.62-1.28 1.88-3.62 2.82-7.02 2.82zm-4.98-20.82h9.72v-2.88c0-1.84-.1-3.4-.3-4.68-.2-1.32-.64-2.32-1.32-3-.64-.72-1.68-1.08-3.12-1.08-1.2 0-2.18.26-2.94.78-.72.52-1.24 1.46-1.56 2.82-.32 1.32-.48 3.22-.48 5.7v2.34zm19.95 20.28V70.32h12.78v3.3h-8.4V105h-4.38zm25.1.54c-2.36 0-4.22-.5-5.58-1.5-1.32-1.04-2.26-2.52-2.82-4.44-.56-1.96-.84-4.34-.84-7.14v-9.6c0-2.8.28-5.16.84-7.08.56-1.96 1.5-3.44 2.82-4.44 1.36-1.04 3.22-1.56 5.58-1.56 2.44 0 4.32.52 5.64 1.56 1.32 1 2.26 2.48 2.82 4.44.56 1.92.84 4.28.84 7.08v9.6c0 2.8-.28 5.18-.84 7.14-.56 1.92-1.5 3.4-2.82 4.44-1.32 1-3.2 1.5-5.64 1.5zm0-3.3c1.52 0 2.62-.4 3.3-1.2.72-.8 1.16-1.92 1.32-3.36.16-1.48.24-3.14.24-4.98V82.62c0-1.88-.08-3.52-.24-4.92-.16-1.44-.6-2.56-1.32-3.36-.68-.84-1.78-1.26-3.3-1.26-1.52 0-2.62.42-3.3 1.26-.68.8-1.1 1.92-1.26 3.36-.16 1.4-.24 3.04-.24 4.92V92.7c0 1.84.08 3.5.24 4.98.16 1.44.58 2.56 1.26 3.36.68.8 1.78 1.2 3.3 1.2zm36.21 3.3c-2.36 0-4.22-.5-5.58-1.5-1.32-1.04-2.26-2.52-2.82-4.44-.56-1.96-.84-4.34-.84-7.14v-9.6c0-2.8.28-5.16.84-7.08.56-1.96 1.5-3.44 2.82-4.44 1.36-1.04 3.22-1.56 5.58-1.56 2.44 0 4.32.52 5.64 1.56 1.32 1 2.26 2.48 2.82 4.44.56 1.92.84 4.28.84 7.08v9.6c0 2.8-.28 5.18-.84 7.14-.56 1.92-1.5 3.4-2.82 4.44-1.32 1-3.2 1.5-5.64 1.5zm0-3.3c1.52 0 2.62-.4 3.3-1.2.72-.8 1.16-1.92 1.32-3.36.16-1.48.24-3.14.24-4.98V82.62c0-1.88-.08-3.52-.24-4.92-.16-1.44-.6-2.56-1.32-3.36-.68-.84-1.78-1.26-3.3-1.26-1.52 0-2.62.42-3.3 1.26-.68.8-1.1 1.92-1.26 3.36-.16 1.4-.24 3.04-.24 4.92V92.7c0 1.84.08 3.5.24 4.98.16 1.44.58 2.56 1.26 3.36.68.8 1.78 1.2 3.3 1.2zm25.29 3.3c-1.72 0-3.34-.4-4.86-1.2-1.52-.8-2.72-2.04-3.6-3.72-.88-1.72-1.32-3.92-1.32-6.6V72.66c0-3 .2-5.42.6-7.26.4-1.88 1.02-3.34 1.86-4.38a8.337 8.337 0 013.18-2.34c1.28-.6 2.58-1.02 3.9-1.26 1.36-.24 2.76-.52 4.2-.84 1.48-.32 3.02-.86 4.62-1.62l.78 3.66c-1.48.72-2.96 1.24-4.44 1.56-1.48.28-2.86.54-4.14.78-1.24.24-2.38.64-3.42 1.2-1.08.6-1.9 1.58-2.46 2.94-.52 1.32-.78 3.28-.78 5.88v4.92c.48-.52 1.16-1.02 2.04-1.5.92-.48 1.9-.88 2.94-1.2 1.04-.32 2.04-.48 3-.48 1.68 0 3.14.42 4.38 1.26 1.24.84 2.18 2.22 2.82 4.14.68 1.92 1.02 4.54 1.02 7.86v6.06c0 3.6-.44 6.36-1.32 8.28-.84 1.92-2.02 3.26-3.54 4.02-1.52.76-3.34 1.16-5.46 1.2zm.36-3.3c1.24-.04 2.26-.32 3.06-.84.8-.52 1.4-1.42 1.8-2.7.44-1.32.66-3.16.66-5.52v-8.34c0-2.28-.16-4.06-.48-5.34-.28-1.32-.76-2.26-1.44-2.82-.68-.56-1.6-.84-2.76-.84-.68 0-1.44.14-2.28.42-.8.24-1.6.56-2.4.96-.76.4-1.4.84-1.92 1.32v15.6c0 1.96.24 3.54.72 4.74.52 1.16 1.2 2.02 2.04 2.58.88.56 1.88.82 3 .78zm16.1 14.16V70.32h4.38v2.88c.72-.88 1.62-1.66 2.7-2.34 1.08-.72 2.4-1.08 3.96-1.08 1.68 0 3.02.4 4.02 1.2 1.04.76 1.84 1.8 2.4 3.12.56 1.32.94 2.8 1.14 4.44.2 1.64.3 3.32.3 5.04v7.32c0 2.96-.24 5.54-.72 7.74-.48 2.16-1.34 3.86-2.58 5.1-1.2 1.2-2.88 1.8-5.04 1.8-1.4 0-2.62-.36-3.66-1.08-1-.72-1.84-1.46-2.52-2.22v14.16h-4.38zm9.9-14.34c1.32 0 2.3-.42 2.94-1.26.68-.84 1.12-2.08 1.32-3.72.24-1.68.36-3.7.36-6.06v-7.44c0-2.24-.12-4.12-.36-5.64-.2-1.56-.64-2.74-1.32-3.54-.68-.8-1.7-1.2-3.06-1.2-1.12 0-2.16.3-3.12.9-.92.6-1.68 1.2-2.28 1.8v23.64c.64.68 1.42 1.28 2.34 1.8.96.48 2.02.72 3.18.72zm21.12 3.48c-1.4 0-2.62-.34-3.66-1.02a7.635 7.635 0 01-2.46-2.82c-.56-1.2-.84-2.5-.84-3.9 0-1.76.24-3.26.72-4.5.52-1.24 1.32-2.34 2.4-3.3 1.12-1 2.56-1.96 4.32-2.88 1.8-.96 3.98-2.02 6.54-3.18v-2.46c0-2.12-.14-3.78-.42-4.98-.24-1.24-.68-2.12-1.32-2.64-.6-.52-1.46-.78-2.58-.78-.92 0-1.74.18-2.46.54-.72.36-1.3.98-1.74 1.86-.44.84-.66 2.02-.66 3.54v1.2l-4.32-.06c.04-3.52.78-6.12 2.22-7.8 1.48-1.72 3.88-2.58 7.2-2.58 3.12 0 5.3.94 6.54 2.82 1.28 1.84 1.92 4.72 1.92 8.64V98.1c0 .6.02 1.38.06 2.34.04.92.08 1.8.12 2.64.04.84.08 1.48.12 1.92h-3.9c-.08-.76-.2-1.6-.36-2.52-.16-.96-.26-1.72-.3-2.28-.48 1.4-1.34 2.64-2.58 3.72-1.2 1.08-2.72 1.62-4.56 1.62zm1.38-3.72c.88 0 1.68-.22 2.4-.66.72-.44 1.36-.96 1.92-1.56.56-.64 1-1.28 1.32-1.92v-10.8c-1.72.88-3.2 1.68-4.44 2.4-1.2.72-2.18 1.42-2.94 2.1-.76.68-1.32 1.46-1.68 2.34-.36.84-.54 1.84-.54 3 0 1.84.4 3.16 1.2 3.96.8.76 1.72 1.14 2.76 1.14zm24.09 3.78c-1.44 0-2.7-.2-3.78-.6a6.688 6.688 0 01-2.7-1.98c-.72-.88-1.26-1.96-1.62-3.24-.36-1.32-.54-2.82-.54-4.5h3.9c0 2.32.38 4.1 1.14 5.34.8 1.2 2.04 1.8 3.72 1.8 1.16 0 2.08-.28 2.76-.84.68-.6 1.16-1.44 1.44-2.52.32-1.12.48-2.42.48-3.9 0-1.52-.22-2.74-.66-3.66-.44-.96-1.2-1.68-2.28-2.16-1.08-.48-2.52-.72-4.32-.72v-3.24c2.84 0 4.76-.5 5.76-1.5 1-1.04 1.5-2.52 1.5-4.44 0-1.88-.4-3.4-1.2-4.56-.8-1.2-1.98-1.8-3.54-1.8s-2.8.5-3.72 1.5c-.92.96-1.38 2.56-1.38 4.8h-3.84c0-2.24.36-4.06 1.08-5.46.72-1.44 1.76-2.48 3.12-3.12 1.36-.68 2.98-1.02 4.86-1.02 2.04 0 3.68.44 4.92 1.32a7.51 7.51 0 012.7 3.48c.6 1.44.9 2.98.9 4.62 0 1.68-.28 3.08-.84 4.2-.56 1.08-1.3 1.9-2.22 2.46-.88.56-1.8.92-2.76 1.08 1 .24 1.94.66 2.82 1.26.92.56 1.66 1.42 2.22 2.58.6 1.16.9 2.78.9 4.86 0 3.16-.76 5.62-2.28 7.38-1.48 1.72-3.66 2.58-6.54 2.58zm22.82-.06c-2.36 0-4.22-.5-5.58-1.5-1.32-1.04-2.26-2.52-2.82-4.44-.56-1.96-.84-4.34-.84-7.14v-9.6c0-2.8.28-5.16.84-7.08.56-1.96 1.5-3.44 2.82-4.44 1.36-1.04 3.22-1.56 5.58-1.56 2.44 0 4.32.52 5.64 1.56 1.32 1 2.26 2.48 2.82 4.44.56 1.92.84 4.28.84 7.08v9.6c0 2.8-.28 5.18-.84 7.14-.56 1.92-1.5 3.4-2.82 4.44-1.32 1-3.2 1.5-5.64 1.5zm0-3.3c1.52 0 2.62-.4 3.3-1.2.72-.8 1.16-1.92 1.32-3.36.16-1.48.24-3.14.24-4.98V82.62c0-1.88-.08-3.52-.24-4.92-.16-1.44-.6-2.56-1.32-3.36-.68-.84-1.78-1.26-3.3-1.26-1.52 0-2.62.42-3.3 1.26-.68.8-1.1 1.92-1.26 3.36-.16 1.4-.24 3.04-.24 4.92V92.7c0 1.84.08 3.5.24 4.98.16 1.44.58 2.56 1.26 3.36.68.8 1.78 1.2 3.3 1.2zm15.38 2.76V70.32h8.4c2.28 0 4.04.4 5.28 1.2 1.28.8 2.2 1.84 2.76 3.12.56 1.24.84 2.58.84 4.02 0 1.56-.3 3.06-.9 4.5-.6 1.4-1.78 2.4-3.54 3 1.36.36 2.4 1 3.12 1.92.76.88 1.3 1.92 1.62 3.12.32 1.2.48 2.46.48 3.78 0 1.96-.26 3.7-.78 5.22-.52 1.52-1.44 2.7-2.76 3.54-1.32.84-3.2 1.26-5.64 1.26h-8.88zm4.32-3.36h3.78c1.36 0 2.44-.26 3.24-.78.84-.52 1.44-1.28 1.8-2.28.4-1.04.6-2.3.6-3.78 0-1.84-.24-3.22-.72-4.14-.44-.96-1.06-1.62-1.86-1.98-.76-.36-1.68-.54-2.76-.54h-4.08v13.5zm0-16.68h4.38c1.36 0 2.46-.5 3.3-1.5.84-1 1.26-2.46 1.26-4.38 0-1.8-.46-3.14-1.38-4.02-.88-.92-2.2-1.38-3.96-1.38h-3.6v11.28zm25.06 20.58c-1.4 0-2.62-.34-3.66-1.02a7.635 7.635 0 01-2.46-2.82c-.56-1.2-.84-2.5-.84-3.9 0-1.76.24-3.26.72-4.5.52-1.24 1.32-2.34 2.4-3.3 1.12-1 2.56-1.96 4.32-2.88 1.8-.96 3.98-2.02 6.54-3.18v-2.46c0-2.12-.14-3.78-.42-4.98-.24-1.24-.68-2.12-1.32-2.64-.6-.52-1.46-.78-2.58-.78-.92 0-1.74.18-2.46.54-.72.36-1.3.98-1.74 1.86-.44.84-.66 2.02-.66 3.54v1.2l-4.32-.06c.04-3.52.78-6.12 2.22-7.8 1.48-1.72 3.88-2.58 7.2-2.58 3.12 0 5.3.94 6.54 2.82 1.28 1.84 1.92 4.72 1.92 8.64V98.1c0 .6.02 1.38.06 2.34.04.92.08 1.8.12 2.64.04.84.08 1.48.12 1.92h-3.9c-.08-.76-.2-1.6-.36-2.52-.16-.96-.26-1.72-.3-2.28-.48 1.4-1.34 2.64-2.58 3.72-1.2 1.08-2.72 1.62-4.56 1.62zm1.38-3.72c.88 0 1.68-.22 2.4-.66.72-.44 1.36-.96 1.92-1.56.56-.64 1-1.28 1.32-1.92v-10.8c-1.72.88-3.2 1.68-4.44 2.4-1.2.72-2.18 1.42-2.94 2.1-.76.68-1.32 1.46-1.68 2.34-.36.84-.54 1.84-.54 3 0 1.84.4 3.16 1.2 3.96.8.76 1.72 1.14 2.76 1.14zm16.47 3.18V70.32h4.38v15.12h10.8V70.32h4.44V105h-4.44V88.74h-10.8V105h-4.38zm26.31 0V70.32h3.72v26.7l11.58-26.7h3.54V105h-3.72V78.36L2584.21 105h-3.66zm23.14 0l6.84-15c-1.24-.52-2.22-1.26-2.94-2.22-.72-1-1.24-2.12-1.56-3.36-.28-1.28-.42-2.58-.42-3.9 0-1.44.16-2.78.48-4.02.36-1.28.96-2.36 1.8-3.24.84-.92 2.02-1.64 3.54-2.16 1.56-.52 3.54-.78 5.94-.78h6.18V105h-4.38V90.96h-2.52c-.72-.04-1.4-.1-2.04-.18l-6.18 14.22h-4.74zm13.92-16.74h1.56V73.02h-1.98c-2.12 0-3.72.32-4.8.96-1.08.64-1.82 1.52-2.22 2.64-.36 1.08-.54 2.38-.54 3.9 0 2.6.58 4.54 1.74 5.82 1.2 1.24 3.28 1.88 6.24 1.92zm43.59 11.58l-10.02-12.96v-1.92L2661.2 72v5.64l-6.36 8.28 6.36 8.34v5.58zm-9.84 0l-9.96-12.96v-1.92l9.96-12.96v5.64l-6.3 8.22 6.3 8.4v5.58zm17.63 5.16V56.4h11.64c2.92 0 5.22.54 6.9 1.62 1.68 1.08 2.86 2.58 3.54 4.5.72 1.92 1.08 4.18 1.08 6.78 0 2.28-.38 4.4-1.14 6.36-.72 1.92-1.94 3.46-3.66 4.62-1.68 1.16-3.9 1.74-6.66 1.74h-7.14V105h-4.56zm4.56-26.4h5.82c1.96 0 3.54-.28 4.74-.84 1.24-.6 2.14-1.58 2.7-2.94.56-1.36.84-3.2.84-5.52 0-2.48-.24-4.4-.72-5.76-.48-1.4-1.32-2.36-2.52-2.88-1.16-.56-2.82-.84-4.98-.84h-5.88V78.6zm35 26.64c-2.88 0-5.16-.56-6.84-1.68-1.68-1.12-2.88-2.72-3.6-4.8-.72-2.08-1.08-4.52-1.08-7.32v-2.16h4.32v1.98c0 2.08.16 3.9.48 5.46.36 1.56 1.06 2.76 2.1 3.6 1.04.84 2.58 1.26 4.62 1.26 2.2 0 3.84-.46 4.92-1.38 1.08-.92 1.8-2.2 2.16-3.84.4-1.64.6-3.54.6-5.7v-9.3h-10.38v-3.12h10.38v-8.22c0-2.4-.24-4.4-.72-6-.44-1.64-1.22-2.84-2.34-3.6-1.12-.8-2.66-1.2-4.62-1.2-2.04 0-3.58.44-4.62 1.32-1 .88-1.68 2.1-2.04 3.66-.36 1.56-.54 3.4-.54 5.52v2.34h-4.32v-2.04c0-2.84.32-5.34.96-7.5.68-2.2 1.86-3.92 3.54-5.16 1.68-1.24 4.02-1.86 7.02-1.86 3.28 0 5.8.7 7.56 2.1 1.8 1.36 3.04 3.18 3.72 5.46.68 2.28 1.02 4.84 1.02 7.68V90c0 3-.36 5.66-1.08 7.98-.68 2.28-1.92 4.06-3.72 5.34-1.76 1.28-4.26 1.92-7.5 1.92zm19.01 6l.06-3.54c2 .08 3.56 0 4.68-.24 1.16-.24 2-.7 2.52-1.38.52-.64.86-1.54 1.02-2.7.16-1.2.26-2.7.3-4.5l-10.38-42.48h4.44l4.98 21.78 3.24 15.66 2.82-15.66 4.44-21.78h4.44l-9.3 42.72c-.4 1.92-.76 3.6-1.08 5.04-.32 1.4-.72 2.56-1.2 3.48-.44.96-1.1 1.72-1.98 2.28-.84.56-1.98.94-3.42 1.14-1.44.2-3.3.26-5.58.18zm39.26-6.24V70.32h3.72v26.7l11.58-26.7h3.54V105h-3.72V78.36L2770.48 105h-3.66zm25.3 0l.3-34.68h3.3l8.1 23.82 8.1-23.82h3.42l.3 34.68h-3.78l-.06-24.36-7.26 20.76h-1.38l-7.2-20.64-.06 24.24h-3.78zm30.19 0v-6.6h4.62v6.6h-4.62zm23.75 0V56.4h17.22v3.54h-12.66V105h-4.56zm21.84 0v-6.6h4.62v6.6h-4.62zm23.74 0V56.4h10.44c2.2 0 4.06.28 5.58.84 1.52.56 2.74 1.38 3.66 2.46.92 1.08 1.58 2.38 1.98 3.9.44 1.48.66 3.12.66 4.92 0 1.56-.2 3.08-.6 4.56-.36 1.44-.98 2.68-1.86 3.72-.88 1-2.12 1.66-3.72 1.98 1.88.52 3.36 1.42 4.44 2.7 1.08 1.24 1.82 2.7 2.22 4.38.44 1.64.66 3.34.66 5.1 0 1.92-.18 3.74-.54 5.46-.32 1.68-.92 3.16-1.8 4.44-.84 1.28-2 2.3-3.48 3.06-1.48.72-3.36 1.08-5.64 1.08h-12zm4.56-3.42h6.54c3.16 0 5.26-.86 6.3-2.58 1.08-1.72 1.62-4.4 1.62-8.04 0-1.96-.24-3.7-.72-5.22-.48-1.52-1.3-2.7-2.46-3.54-1.12-.88-2.66-1.32-4.62-1.32h-6.66v20.7zm0-24.24h6.6c1.88 0 3.32-.36 4.32-1.08 1-.76 1.7-1.78 2.1-3.06.4-1.32.6-2.88.6-4.68 0-1.96-.28-3.58-.84-4.86-.52-1.28-1.44-2.22-2.76-2.82-1.32-.6-3.22-.9-5.7-.9h-4.32v17.4zm24.9 27.66v-6.6h4.62v6.6h-4.62zm23.75 0V56.4h24.84V105h-4.56V59.82h-15.72V105h-4.56zm29.68.3v-3.36c1.16-.04 2.1-.28 2.82-.72.76-.44 1.36-1.22 1.8-2.34.48-1.16.86-2.8 1.14-4.92.32-2.12.6-4.84.84-8.16l1.08-15.48h15.84V105h-4.38V73.68h-7.62l-.84 12.12c-.28 3.92-.62 7.14-1.02 9.66-.4 2.52-.98 4.5-1.74 5.94-.72 1.44-1.68 2.46-2.88 3.06-1.16.56-2.62.84-4.38.84h-.66zm38.88.24c-2.16 0-3.94-.42-5.34-1.26-1.36-.88-2.38-2.32-3.06-4.32-.64-2-.96-4.66-.96-7.98v-8.76c0-3.44.34-6.12 1.02-8.04.68-1.96 1.72-3.34 3.12-4.14 1.4-.84 3.16-1.26 5.28-1.26 2.44 0 4.3.52 5.58 1.56 1.28 1.04 2.16 2.62 2.64 4.74.52 2.08.78 4.76.78 8.04v3.12h-14.04v6.06c0 2.24.16 4.02.48 5.34.36 1.28.9 2.2 1.62 2.76.76.56 1.72.84 2.88.84.88 0 1.68-.16 2.4-.48.72-.36 1.28-1.02 1.68-1.98.44-1 .66-2.4.66-4.2v-2.4h4.26v1.92c0 3.16-.66 5.7-1.98 7.62-1.28 1.88-3.62 2.82-7.02 2.82zm-4.98-20.82h9.72v-2.88c0-1.84-.1-3.4-.3-4.68-.2-1.32-.64-2.32-1.32-3-.64-.72-1.68-1.08-3.12-1.08-1.2 0-2.18.26-2.94.78-.72.52-1.24 1.46-1.56 2.82-.32 1.32-.48 3.22-.48 5.7v2.34zm17.55 20.28l8.22-18.12-7.8-16.56h4.32l5.94 12.72 5.7-12.72h4.44l-8.1 17.04 8.22 17.64h-4.2l-6.48-13.62-6.06 13.62h-4.2zm31.19.54c-1.4 0-2.62-.34-3.66-1.02a7.635 7.635 0 01-2.46-2.82c-.56-1.2-.84-2.5-.84-3.9 0-1.76.24-3.26.72-4.5.52-1.24 1.32-2.34 2.4-3.3 1.12-1 2.56-1.96 4.32-2.88 1.8-.96 3.98-2.02 6.54-3.18v-2.46c0-2.12-.14-3.78-.42-4.98-.24-1.24-.68-2.12-1.32-2.64-.6-.52-1.46-.78-2.58-.78-.92 0-1.74.18-2.46.54-.72.36-1.3.98-1.74 1.86-.44.84-.66 2.02-.66 3.54v1.2l-4.32-.06c.04-3.52.78-6.12 2.22-7.8 1.48-1.72 3.88-2.58 7.2-2.58 3.12 0 5.3.94 6.54 2.82 1.28 1.84 1.92 4.72 1.92 8.64V98.1c0 .6.02 1.38.06 2.34.04.92.08 1.8.12 2.64.04.84.08 1.48.12 1.92h-3.9c-.08-.76-.2-1.6-.36-2.52-.16-.96-.26-1.72-.3-2.28-.48 1.4-1.34 2.64-2.58 3.72-1.2 1.08-2.72 1.62-4.56 1.62zm1.38-3.72c.88 0 1.68-.22 2.4-.66.72-.44 1.36-.96 1.92-1.56.56-.64 1-1.28 1.32-1.92v-10.8c-1.72.88-3.2 1.68-4.44 2.4-1.2.72-2.18 1.42-2.94 2.1-.76.68-1.32 1.46-1.68 2.34-.36.84-.54 1.84-.54 3 0 1.84.4 3.16 1.2 3.96.8.76 1.72 1.14 2.76 1.14zm16.47 3.18V70.32h4.38v15.12h10.8V70.32h4.44V105h-4.44V88.74h-10.8V105h-4.38zm34.89.54c-2.36 0-4.22-.5-5.58-1.5-1.32-1.04-2.26-2.52-2.82-4.44-.56-1.96-.84-4.34-.84-7.14v-9.6c0-2.8.28-5.16.84-7.08.56-1.96 1.5-3.44 2.82-4.44 1.36-1.04 3.22-1.56 5.58-1.56 2.44 0 4.32.52 5.64 1.56 1.32 1 2.26 2.48 2.82 4.44.56 1.92.84 4.28.84 7.08v9.6c0 2.8-.28 5.18-.84 7.14-.56 1.92-1.5 3.4-2.82 4.44-1.32 1-3.2 1.5-5.64 1.5zm0-3.3c1.52 0 2.62-.4 3.3-1.2.72-.8 1.16-1.92 1.32-3.36.16-1.48.24-3.14.24-4.98V82.62c0-1.88-.08-3.52-.24-4.92-.16-1.44-.6-2.56-1.32-3.36-.68-.84-1.78-1.26-3.3-1.26-1.52 0-2.62.42-3.3 1.26-.68.8-1.1 1.92-1.26 3.36-.16 1.4-.24 3.04-.24 4.92V92.7c0 1.84.08 3.5.24 4.98.16 1.44.58 2.56 1.26 3.36.68.8 1.78 1.2 3.3 1.2zm15.38 2.76V70.32h8.4c2.28 0 4.04.4 5.28 1.2 1.28.8 2.2 1.84 2.76 3.12.56 1.24.84 2.58.84 4.02 0 1.56-.3 3.06-.9 4.5-.6 1.4-1.78 2.4-3.54 3 1.36.36 2.4 1 3.12 1.92.76.88 1.3 1.92 1.62 3.12.32 1.2.48 2.46.48 3.78 0 1.96-.26 3.7-.78 5.22-.52 1.52-1.44 2.7-2.76 3.54-1.32.84-3.2 1.26-5.64 1.26h-8.88zm4.32-3.36h3.78c1.36 0 2.44-.26 3.24-.78.84-.52 1.44-1.28 1.8-2.28.4-1.04.6-2.3.6-3.78 0-1.84-.24-3.22-.72-4.14-.44-.96-1.06-1.62-1.86-1.98-.76-.36-1.68-.54-2.76-.54h-4.08v13.5zm0-16.68h4.38c1.36 0 2.46-.5 3.3-1.5.84-1 1.26-2.46 1.26-4.38 0-1.8-.46-3.14-1.38-4.02-.88-.92-2.2-1.38-3.96-1.38h-3.6v11.28zm25.06 20.58c-1.4 0-2.62-.34-3.66-1.02a7.635 7.635 0 01-2.46-2.82c-.56-1.2-.84-2.5-.84-3.9 0-1.76.24-3.26.72-4.5.52-1.24 1.32-2.34 2.4-3.3 1.12-1 2.56-1.96 4.32-2.88 1.8-.96 3.98-2.02 6.54-3.18v-2.46c0-2.12-.14-3.78-.42-4.98-.24-1.24-.68-2.12-1.32-2.64-.6-.52-1.46-.78-2.58-.78-.92 0-1.74.18-2.46.54-.72.36-1.3.98-1.74 1.86-.44.84-.66 2.02-.66 3.54v1.2l-4.32-.06c.04-3.52.78-6.12 2.22-7.8 1.48-1.72 3.88-2.58 7.2-2.58 3.12 0 5.3.94 6.54 2.82 1.28 1.84 1.92 4.72 1.92 8.64V98.1c0 .6.02 1.38.06 2.34.04.92.08 1.8.12 2.64.04.84.08 1.48.12 1.92h-3.9c-.08-.76-.2-1.6-.36-2.52-.16-.96-.26-1.72-.3-2.28-.48 1.4-1.34 2.64-2.58 3.72-1.2 1.08-2.72 1.62-4.56 1.62zm1.38-3.72c.88 0 1.68-.22 2.4-.66.72-.44 1.36-.96 1.92-1.56.56-.64 1-1.28 1.32-1.92v-10.8c-1.72.88-3.2 1.68-4.44 2.4-1.2.72-2.18 1.42-2.94 2.1-.76.68-1.32 1.46-1.68 2.34-.36.84-.54 1.84-.54 3 0 1.84.4 3.16 1.2 3.96.8.76 1.72 1.14 2.76 1.14zm16.35-1.98v-5.58l6.6-8.34-6.6-8.28V72l10.32 12.96v1.92l-10.32 12.96zm9.84 0v-5.58l6.6-8.28-6.6-8.34V72l10.26 12.96v1.92l-10.26 12.96z" fill="#fff"/></svg>