<svg width="596" height="596" viewBox="0 0 596 596" fill="none" xmlns="http://www.w3.org/2000/svg">
<path d="M141.1 159.34C117.231 186.367 100.737 219.095 93.2128 254.361C85.6889 289.626 87.3896 326.236 98.1505 360.652L178.462 335.54C172.021 314.94 171.003 293.027 175.507 271.918C180.01 250.809 189.883 231.219 204.171 215.042L141.1 159.34Z" fill="#6C38FF"/>
<path d="M170.439 106.825C154.02 117.793 139.082 130.83 125.994 145.614L204.235 214.879C211.375 206.813 219.524 199.701 228.481 193.718L170.439 106.825Z" fill="#4CD382"/>
<path d="M279.692 81.547C243.049 84.6463 207.792 96.9977 177.226 117.444L228.335 193.852C245.967 182.059 266.303 174.934 287.44 173.147L279.692 81.547Z" fill="#FB9B2B"/>
<path d="M120.636 353.294C131 386.496 150.476 416.122 176.847 438.801C203.217 461.479 235.425 476.301 269.804 481.578C304.182 486.855 339.352 482.375 371.311 468.65C403.27 454.924 430.734 432.504 450.579 403.939C470.424 375.374 481.852 341.813 483.563 307.073C485.274 272.334 477.199 237.812 460.258 207.435C443.317 177.059 418.189 152.047 387.734 135.247C357.278 118.448 322.719 110.534 287.988 112.407L291.243 172.775C314.673 171.511 337.987 176.85 358.533 188.183C379.078 199.517 396.03 216.39 407.459 236.882C418.888 257.374 424.335 280.664 423.18 304.099C422.026 327.535 414.316 350.176 400.929 369.446C387.542 388.716 369.014 403.841 347.454 413.101C325.894 422.36 302.168 425.382 278.976 421.822C255.783 418.262 234.056 408.263 216.266 392.964C198.476 377.664 185.337 357.679 178.346 335.28L120.636 353.294Z" fill="#217AFF"/>
<path d="M287.217 102.987C285.152 103.104 283.088 103.254 281.027 103.436L287.194 173.181C288.517 173.064 289.842 172.968 291.167 172.893L287.217 102.987Z" fill="#FD6A6A"/>
</svg>
