<svg width="93" height="94" fill="none" xmlns="http://www.w3.org/2000/svg"><g filter="url(#filter0_d_159_841)"><ellipse cx="46.5" cy="44.848" rx="36.5" ry="36.848" fill="#fff"/></g><path d="M39.931 27.903c-1.993 1.661-4.3 5.418-4.3 5.418L24.747 54.918a6.964 6.964 0 005.857 10.091c3.476.172 6.628-1.938 8.212-5.026l12.462-24.35s-9.352-9.394-11.346-7.73z" fill="url(#paint0_linear_159_841)"/><path d="M35.627 33.322c1.453-2.842 4.51-2.25 5.465-.342l5.748 11.21 2.068 4.033 3.239 6.32a7.34 7.34 0 01-6.615 10.733h17.02a7.34 7.34 0 006.616-10.733L53.493 23.955c-2.732-5.273-10.275-5.273-13.007 0l-4.859 9.367z" fill="url(#paint1_linear_159_841)"/><path d="M48.913 48.223H35.431a1.748 1.748 0 00-1.567 2.53l5.273 10.567a7.34 7.34 0 1013.015-6.782l-3.239-6.315z" fill="url(#paint2_linear_159_841)"/><defs><linearGradient id="paint0_linear_159_841" x1="26.699" y1="60.85" x2="45.331" y2="35.739" gradientUnits="userSpaceOnUse"><stop stop-color="#00A2FF"/><stop offset=".14" stop-color="#009BF6"/><stop offset=".38" stop-color="#0089DD"/><stop offset=".67" stop-color="#006CB5"/><stop offset="1" stop-color="#004680"/></linearGradient><linearGradient id="paint1_linear_159_841" x1="52.82" y1="65.392" x2="52.82" y2="20.21" gradientUnits="userSpaceOnUse"><stop stop-color="#00DBFF"/><stop offset=".35" stop-color="#00A2FF"/></linearGradient><linearGradient id="paint2_linear_159_841" x1="36.022" y1="50.94" x2="51.483" y2="59.668" gradientUnits="userSpaceOnUse"><stop stop-color="#006DBA"/><stop offset="1" stop-color="#003873"/></linearGradient><filter id="filter0_d_159_841" x="0" y="0" width="93" height="93.695" filterUnits="userSpaceOnUse" color-interpolation-filters="sRGB"><feFlood flood-opacity="0" result="BackgroundImageFix"/><feColorMatrix in="SourceAlpha" values="0 0 0 0 0 0 0 0 0 0 0 0 0 0 0 0 0 0 127 0" result="hardAlpha"/><feOffset dy="2"/><feGaussianBlur stdDeviation="5"/><feColorMatrix values="0 0 0 0 0 0 0 0 0 0 0 0 0 0 0 0 0 0 0.1 0"/><feBlend in2="BackgroundImageFix" result="effect1_dropShadow_159_841"/><feBlend in="SourceGraphic" in2="effect1_dropShadow_159_841" result="shape"/></filter></defs></svg>