<svg width="1079" height="258" fill="none" xmlns="http://www.w3.org/2000/svg"><path fill="#44BCFF" d="M150 197H86v49h64z"/><path fill="#217AFF" d="M86 142H22v104h64z"/><path d="M694 153h-64v93h64v-93z" fill="#44BCFF"/><path fill="#217AFF" d="M630 26h-64v220h64z"/><path fill="#44BCFF" d="M332 119h-64v127h64z"/><path fill="#217AFF" d="M269 0h-64v247h64z"/><path fill="#44BCFF" d="M873 164h-64v82h64z"/><path fill="#217AFF" d="M809 119h-64v127h64z"/><path fill="#44BCFF" d="M513 172h-64v74h64z"/><path fill="#217AFF" d="M449 92h-64v154h64z"/><path fill="#44BCFF" d="M1057 210h-64v36h64z"/><path fill="#217AFF" d="M993 162h-64v83h64z"/><path fill="#B2CEF6" d="M.933 245.6h1077.33v2.133H.933z"/><path fill="#fff" d="M75.6 246.742l10.56-10.56 10.558 10.56-10.559 10.56zm183.467 0l10.56-10.56 10.558 10.56-10.559 10.56zm177.066 0l10.56-10.56 10.558 10.56-10.559 10.56zm183.467 0l10.56-10.56 10.558 10.56-10.559 10.56zm179.2 0l10.56-10.56 10.558 10.56-10.559 10.56zm183.467 0l10.56-10.56 10.558 10.56-10.559 10.56z"/></svg>