<svg width="272" height="92" fill="none" xmlns="http://www.w3.org/2000/svg"><path d="M3.586 1.437h30.182c5.03 0 8.671 1.15 10.923 3.45 2.3 2.251 3.449 5.892 3.449 10.923v7.186c0 5.03-1.15 8.695-3.45 10.994-2.25 2.252-5.892 3.378-10.922 3.378H16.52V51.74H3.586V1.437zM35.205 15.81c0-2.875-1.437-4.312-4.312-4.312H16.521v15.81h14.372c2.875 0 4.312-1.438 4.312-4.312V15.81zm16.526 25.51c11.689.719 19.594 1.078 23.714 1.078 1.102 0 1.964-.311 2.587-.934.67-.67 1.006-1.557 1.006-2.659v-6.827H59.923v-10.06h19.115V15.81c0-2.875-1.437-4.312-4.312-4.312H52.45V1.438H77.6c5.03 0 8.671 1.149 10.922 3.449 2.3 2.251 3.45 5.892 3.45 10.923v22.995c0 4.695-1.102 8.145-3.305 10.349-2.205 2.203-5.654 3.305-10.348 3.305-7.187 0-16.05-.479-26.59-1.437V41.32zm59.509 11.14c-2.395 0-4.862-.24-7.401-.719V42.04h6.467c1.389 0 2.347-.55 2.874-1.653.24-.479.36-.982.36-1.509 0-.575-.12-1.078-.36-1.509L93.418 1.438h14.373l12.935 25.51 10.779-25.51h14.372L127.553 40.96c-1.677 3.785-3.689 6.611-6.036 8.48-2.587 2.012-6.013 3.018-10.277 3.018zm28.229-11.498h12.935v10.78h-12.935V40.96zm19.42-39.524h30.181c5.03 0 8.672 1.15 10.923 3.45 2.3 2.251 3.45 5.892 3.45 10.923v7.186c0 5.03-1.15 8.695-3.45 10.994-2.251 2.252-5.893 3.378-10.923 3.378h-17.247V51.74h-12.934V1.437zm31.619 14.373c0-2.875-1.438-4.312-4.312-4.312h-14.373v15.81h14.373c2.874 0 4.312-1.438 4.312-4.312V15.81zm76.17 17.965c0 5.03-1.15 8.695-3.45 10.995-2.251 2.251-5.892 3.377-10.922 3.377h-8.623v5.03h-12.935v-5.03h-8.624c-5.03 0-8.695-1.126-10.995-3.377-2.251-2.3-3.377-5.965-3.377-10.995V19.403c0-5.03 1.126-8.672 3.377-10.923 2.3-2.3 5.965-3.45 10.995-3.45h8.624V0h12.935v5.03h8.623c5.03 0 8.671 1.15 10.922 3.45 2.3 2.251 3.45 5.892 3.45 10.923v14.372zm-12.935-14.372c0-2.875-1.437-4.312-4.312-4.312h-6.467v22.996h6.467c2.875 0 4.312-1.438 4.312-4.312V19.403zm-33.056 14.372c0 2.875 1.437 4.312 4.311 4.312h6.468V15.09h-6.468c-2.874 0-4.311 1.437-4.311 4.312v14.372z" fill="#fff"/><path d="M0 64.273h271.186" stroke="#fff" stroke-width="4.336" stroke-miterlimit="10"/><path d="M16.738 91.348h-3.903v-9.323l-5.204 9.323h-4.12V76.171h3.904v9.323l5.203-9.323h4.12v15.177zm15.621-8.456l-3.035 5.42h-3.036l-3.035-5.42v8.456H19.35V76.171h4.12l4.336 8.022 4.337-8.022h4.12v15.177h-3.904v-8.456zm18.547 8.456H38.873V76.171h12.033v3.035h-8.13v2.927h6.396v3.036h-6.397v3.144h8.131v3.035zm14.956 0H61.96v-6.18h-5.422v6.18h-3.902V76.171h3.902v5.962h5.422v-5.962h3.902v15.177zm15.839 0h-3.903v-9.323l-5.204 9.323h-4.12V76.171h3.903v9.323l5.204-9.323h4.12v15.177zm13.015 0h-3.903V76.171h11.817v3.035h-7.914v12.142zm6.626-3.252h3.903v3.252h-3.903v-3.252zm5.86-11.925h8.673c1.416 0 2.457.325 3.122.975.665.637.998 1.612.998 2.927 0 .868-.188 1.576-.565 2.125-.375.535-.838.91-1.387 1.128 1.171.318 1.966 1.098 2.385 2.341.145.449.217.969.217 1.562 0 1.416-.333 2.457-.998 3.122-.664.665-1.705.997-3.121.997h-9.324V76.171zm9.54 10.407c0-.867-.433-1.3-1.301-1.3h-4.336v3.035h4.336c.868 0 1.301-.434 1.301-1.301v-.434zm-.65-6.07c0-.868-.434-1.302-1.301-1.302h-3.686v3.036h3.686c.867 0 1.301-.434 1.301-1.301v-.434zm5.853 7.588h3.903v3.252h-3.903v-3.252zm25.586 3.252h-3.903V79.206h-5.42v12.142h-3.903V76.171h13.226v15.177zm7.165-3.144c-.072 1.041-.404 1.865-.997 2.472-.593.593-1.323.89-2.19.89s-1.684-.073-2.45-.218v-2.927h.976a.872.872 0 00.672-.282c.188-.188.289-.42.303-.694l.65-11.274h12.035v15.177h-3.903V79.206h-4.554l-.542 8.998zm23.637 3.144h-12.034V76.171h12.034v3.035h-8.131v2.927h6.396v3.036h-6.396v3.144h8.131v3.035zm10.511-15.177h4.336l-4.879 7.588 4.987 7.59h-4.336l-3.036-4.77-3.035 4.77h-4.336l4.986-7.59-4.878-7.588h4.315l2.948 4.77 2.928-4.77zm8.242 15.177h-4.227l5.745-15.177h4.336l5.746 15.177h-4.228l-.975-2.71h-5.421l-.976 2.71zm1.952-5.529h3.469l-1.735-5.095-1.734 5.095zm23.958 5.53h-3.903v-6.18h-5.42v6.18h-3.903V76.17h3.903v5.962h5.42V76.17h3.903v15.177zm12.369-11.059c0-.867-.434-1.3-1.301-1.3h-3.686c-.867 0-1.301.433-1.301 1.3v6.939c0 .867.434 1.3 1.301 1.3h3.686c.867 0 1.301-.433 1.301-1.3V80.29zm3.902 6.939c0 1.517-.346 2.623-1.04 3.317-.679.68-1.778 1.02-3.296 1.02h-5.42c-1.518 0-2.624-.34-3.318-1.02-.679-.694-1.019-1.8-1.019-3.317V80.29c0-1.517.34-2.616 1.019-3.296.694-.693 1.8-1.04 3.318-1.04h5.42c1.518 0 2.617.347 3.296 1.04.694.68 1.04 1.779 1.04 3.296v6.939zm2.179-11.058h8.673c1.417 0 2.458.325 3.122.975.665.637.998 1.612.998 2.927 0 .868-.188 1.576-.564 2.125-.375.535-.838.91-1.387 1.128 1.17.318 1.965 1.098 2.385 2.341.144.449.217.969.217 1.562 0 1.416-.333 2.457-.998 3.122s-1.706.997-3.122.997h-9.324V76.171zm9.541 10.407c0-.867-.434-1.3-1.301-1.3h-4.337v3.035h4.337c.867 0 1.301-.434 1.301-1.301v-.434zm-.651-6.07c0-.868-.433-1.302-1.3-1.302h-3.687v3.036h3.687c.867 0 1.3-.434 1.3-1.301v-.434zm9.214 10.84h-4.228l5.746-15.177h4.336l5.747 15.177h-4.229l-.975-2.71h-5.421l-.976 2.71zm1.952-5.529h3.469l-1.735-5.095-1.734 5.095z" fill="#fff"/></svg>