<svg width="230" height="230" fill="none" xmlns="http://www.w3.org/2000/svg"><path fill-rule="evenodd" clip-rule="evenodd" d="M115 25c-.42 0-.84 0-1.26.01l-.35-25C113.93 0 114.46 0 115 0s1.07 0 1.61.01l-.35 25c-.42-.01-.84-.01-1.26-.01zm-3.79.08c-.84.04-1.68.08-2.52.14L106.94.28c1.07-.08 2.15-.14 3.22-.18l1.05 24.98zm10.1.14c-.84-.06-1.68-.11-2.52-.14L119.84.1c1.08.05 2.15.11 3.22.18l-1.75 24.94zm-15.13.21c-.84.08-1.67.18-2.51.28L100.52.91c1.07-.14 2.13-.26 3.2-.36l2.46 24.88zm20.15.29c-.83-.11-1.67-.2-2.51-.28L126.27.56c1.07.11 2.14.23 3.21.36l-3.15 24.8zm-25.16.35c-.83.13-1.66.27-2.49.42L94.15 1.91c1.06-.19 2.12-.38 3.18-.54l3.84 24.7zm30.15.42c-.83-.15-1.66-.29-2.49-.42l3.84-24.7c1.06.17 2.12.35 3.18.54l-4.53 24.58zm-35.11.49c-.82.18-1.64.36-2.46.56l-5.9-24.29c1.04-.25 2.09-.49 3.14-.72l5.22 24.45zm40.05.57c-.82-.2-1.64-.39-2.46-.56l5.22-24.45c1.05.22 2.1.46 3.15.72l-5.91 24.29zm-44.96.63c-.81.22-1.62.45-2.43.7L81.62 4.95c1.03-.31 2.06-.61 3.1-.89l6.58 24.12zm49.83.7c-.81-.24-1.62-.48-2.43-.7l6.58-24.12c1.04.28 2.07.58 3.1.89l-7.25 23.93zm-54.66.76c-.8.27-1.59.54-2.38.83L75.5 7c1.01-.37 2.03-.72 3.04-1.07l7.93 23.71zm59.44.84c-.79-.29-1.58-.57-2.38-.83l7.92-23.71c1.02.34 2.03.7 3.05 1.07l-8.59 23.47zm-64.18.9c-.39.16-.78.31-1.17.47-.39.16-.78.32-1.16.49L69.51 9.38c.49-.21.99-.42 1.49-.63.5-.21.99-.41 1.49-.61l9.24 23.24zm67.71.47c-.39-.16-.78-.32-1.17-.47l9.24-23.23c.5.2 1 .4 1.49.61.5.21.99.42 1.49.63l-9.89 22.96c-.38-.17-.77-.34-1.16-.5zm-72.35 1.52c-.76.35-1.52.72-2.27 1.1L63.66 12.1c.96-.48 1.93-.95 2.91-1.4l10.52 22.67zm78.09 1.1c-.75-.38-1.51-.74-2.27-1.1l10.53-22.67c.98.45 1.94.92 2.91 1.4l-11.17 22.37zm-82.61 1.16c-.74.4-1.48.8-2.21 1.22l-12.4-21.71c.93-.53 1.87-1.05 2.82-1.56l11.79 22.05zm87.06 1.22c-.73-.42-1.47-.82-2.21-1.22l11.79-22.05c.95.51 1.89 1.03 2.82 1.56l-12.4 21.71zm-91.44 1.28c-.72.44-1.43.89-2.14 1.34l-13.6-20.98c.9-.58 1.81-1.16 2.73-1.72l13.01 21.36zm95.76 1.34c-.71-.46-1.42-.91-2.14-1.34l13-21.35c.92.56 1.83 1.13 2.73 1.72l-13.59 20.97zm-100 1.41c-.69.48-1.38.96-2.06 1.46L47.14 22.15c.87-.63 1.75-1.26 2.63-1.87l14.18 20.6zm104.15 1.46c-.68-.5-1.37-.98-2.06-1.46l14.18-20.59c.89.61 1.76 1.23 2.63 1.87L168.1 42.34zM59.88 43.86c-.67.52-1.32 1.04-1.97 1.57L42.04 26.1c.83-.68 1.67-1.35 2.52-2.01l15.32 19.77zm112.22 1.57a96.71 96.71 0 00-1.97-1.57l15.31-19.76c.85.66 1.69 1.33 2.52 2.01L172.1 45.43zM55.98 47.06c-.63.55-1.26 1.11-1.88 1.68L37.18 30.33c.79-.73 1.59-1.44 2.41-2.15l16.39 18.88zm119.93 1.68a98.21 98.21 0 00-1.88-1.68l16.4-18.87c.81.7 1.61 1.42 2.4 2.15l-16.92 18.4zM52.26 50.47c-.3.29-.6.59-.9.89-.3.3-.59.6-.89.9L32.55 34.83c.37-.39.75-.77 1.13-1.15.38-.38.76-.76 1.15-1.13l17.43 17.92zm126.38.89c-.3-.3-.6-.59-.9-.89l17.43-17.92c.38.37.77.75 1.15 1.13.38.38.76.76 1.13 1.15l-17.92 17.43c-.3-.3-.59-.6-.89-.9zm-129.9 2.73c-.57.62-1.13 1.25-1.68 1.88l-18.87-16.4c.7-.81 1.42-1.61 2.15-2.41l18.4 16.93zm134.2 1.89a98.21 98.21 0 00-1.68-1.88l18.41-16.92c.73.79 1.44 1.59 2.15 2.41l-18.88 16.39zM45.43 57.9c-.53.65-1.06 1.31-1.57 1.97l-19.77-15.3c.66-.85 1.33-1.69 2.01-2.52L45.43 57.9zm140.72 1.98c-.51-.67-1.04-1.32-1.57-1.97l19.32-15.86c.68.83 1.35 1.67 2.01 2.52l-19.76 15.31zM42.34 61.9c-.5.68-.98 1.37-1.46 2.06L20.29 49.77c.61-.89 1.23-1.76 1.87-2.63L42.34 61.9zm146.78 2.05c-.48-.69-.96-1.38-1.46-2.06l20.18-14.75c.63.87 1.26 1.75 1.87 2.63l-20.59 14.18zm-149.65 2.1c-.46.71-.91 1.42-1.34 2.14l-21.35-13c.56-.92 1.13-1.83 1.72-2.73l20.97 13.59zm152.4 2.14c-.44-.72-.89-1.43-1.34-2.14l20.98-13.6c.58.9 1.16 1.81 1.72 2.73l-21.36 13.01zM36.85 70.36c-.42.73-.82 1.47-1.22 2.21L13.58 60.79c.51-.95 1.03-1.89 1.56-2.82l21.71 12.39zm157.52 2.21c-.4-.74-.8-1.48-1.22-2.21l21.71-12.4c.53.93 1.05 1.87 1.56 2.82l-22.05 11.79zm-159.9 2.25c-.38.75-.74 1.51-1.1 2.27L10.7 66.56c.45-.98.92-1.94 1.4-2.91l22.37 11.17zm162.16 2.27c-.35-.76-.72-1.52-1.1-2.27l22.37-11.16c.48.96.95 1.93 1.4 2.91l-22.67 10.52zM32.34 79.4c-.17.39-.33.77-.49 1.16-.16.39-.32.78-.47 1.17L8.15 72.49c.2-.5.4-1 .61-1.49.21-.5.42-.99.63-1.49l22.95 9.89zm165.81 1.16c-.16-.39-.32-.78-.49-1.16l22.96-9.89c.21.49.42.99.63 1.49.21.5.41 1 .61 1.49l-23.23 9.24-.48-1.17zM30.48 84.09c-.29.79-.57 1.58-.83 2.38L5.93 78.54c.34-1.02.7-2.03 1.07-3.04l23.48 8.59zm169.88 2.38c-.27-.8-.54-1.59-.83-2.38L223 75.5c.37 1.01.72 2.03 1.07 3.04l-23.71 7.93zm-171.48 2.4c-.24.81-.48 1.61-.7 2.43L4.06 84.72c.28-1.04.58-2.07.89-3.1l23.93 7.25zm172.94 2.43c-.22-.81-.45-1.62-.7-2.43l23.92-7.26c.31 1.03.61 2.06.89 3.1l-24.11 6.59zM27.55 93.74c-.2.82-.39 1.64-.56 2.46L2.54 90.99c.22-1.05.46-2.1.72-3.14l24.29 5.89zm175.47 2.47c-.18-.82-.36-1.64-.56-2.46l24.29-5.9c.25 1.04.49 2.09.72 3.14l-24.45 5.22zM26.49 98.68c-.15.83-.29 1.66-.42 2.49l-24.7-3.84c.17-1.06.35-2.12.54-3.18l24.58 4.53zm177.44 2.49c-.13-.83-.27-1.66-.42-2.49l24.59-4.53c.2 1.06.38 2.12.54 3.18l-24.71 3.84zm-178.21 2.5c-.11.83-.2 1.67-.28 2.51L.56 103.73c.11-1.07.23-2.14.36-3.2l24.8 3.14zm178.85 2.51c-.08-.84-.18-1.67-.28-2.51l24.8-3.15c.13 1.07.26 2.13.36 3.2l-24.88 2.46zm-179.35 2.51c-.06.84-.11 1.68-.14 2.52L.1 110.16c.05-1.08.11-2.15.18-3.22l24.94 1.75zm179.7 2.52c-.04-.84-.08-1.68-.14-2.52l24.94-1.75c.08 1.07.14 2.15.18 3.22l-24.98 1.05zm-179.91 2.53c-.01.42-.01.84-.01 1.26 0 .42 0 .84.01 1.26l-25 .35C0 116.07 0 115.54 0 115s0-1.07.01-1.61l25 .35zM205 115c0-.42 0-.84-.01-1.26l25-.35c.01.54.01 1.07.01 1.61s0 1.07-.01 1.61l-25-.35c.01-.42.01-.84.01-1.26zm-179.92 3.79c.04.84.08 1.68.14 2.52L.28 123.06c-.08-1.07-.14-2.15-.18-3.22l24.98-1.05zm179.7 2.52c.06-.84.11-1.68.14-2.52l24.98 1.05c-.04 1.08-.1 2.15-.18 3.22l-24.94-1.75zm-179.35 2.51c.08.84.18 1.67.28 2.51l-24.8 3.15a87.5 87.5 0 01-.36-3.21l24.88-2.45zm178.85 2.51c.11-.83.2-1.67.28-2.51l24.88 2.45c-.1 1.07-.23 2.14-.36 3.21l-24.8-3.15zm-178.21 2.5c.13.83.27 1.66.42 2.49L1.9 135.85c-.19-1.06-.38-2.12-.54-3.18l24.71-3.84zm177.44 2.49c.15-.83.29-1.66.42-2.49l24.7 3.84c-.17 1.06-.35 2.12-.54 3.18l-24.58-4.53zm-176.53 2.47c.18.82.36 1.64.56 2.46l-24.29 5.9c-.25-1.04-.49-2.09-.72-3.15l24.45-5.21zm175.47 2.47c.2-.82.39-1.64.56-2.46l24.45 5.22c-.22 1.05-.46 2.1-.72 3.15l-24.29-5.91zM28.18 138.7c.22.81.45 1.62.7 2.43l-23.92 7.26c-.31-1.03-.61-2.06-.89-3.1l24.11-6.59zm172.94 2.43c.24-.81.48-1.62.7-2.43l24.12 6.58c-.28 1.04-.58 2.07-.89 3.1l-23.93-7.25zm-171.48 2.4c.27.8.54 1.59.83 2.38L7 154.5c-.37-1.01-.72-2.03-1.07-3.05l23.71-7.92zm169.88 2.38c.29-.79.57-1.58.83-2.38l23.71 7.92c-.34 1.02-.7 2.03-1.07 3.05l-23.47-8.59zm-168.14 2.36c.16.39.31.78.47 1.17.16.39.32.78.49 1.16l-22.96 9.89c-.21-.49-.42-.99-.63-1.49-.21-.5-.41-.99-.61-1.49l23.24-9.24zm166.77 1.17c.16-.39.32-.78.47-1.17l23.23 9.24c-.2.5-.4 1-.61 1.49-.21.5-.42.99-.63 1.49l-22.96-9.89c.17-.38.34-.77.5-1.16zm-164.78 3.47c.35.76.72 1.52 1.1 2.27L12.1 166.35c-.48-.96-.95-1.93-1.4-2.91l22.67-10.53zm162.16 2.27c.38-.75.74-1.51 1.1-2.27l22.67 10.53c-.45.98-.92 1.94-1.4 2.91l-22.37-11.17zm-159.9 2.25c.4.74.8 1.48 1.22 2.21l-21.71 12.4c-.53-.93-1.05-1.88-1.56-2.82l22.05-11.79zm157.52 2.2c.42-.73.82-1.47 1.22-2.21l22.05 11.79c-.51.95-1.03 1.89-1.56 2.82l-21.71-12.4zm-155.02 2.18c.44.72.89 1.43 1.34 2.14l-20.98 13.6c-.58-.9-1.16-1.81-1.72-2.73l21.36-13.01zm152.4 2.14c.46-.71.91-1.42 1.34-2.14l21.35 13c-.56.92-1.13 1.83-1.72 2.73l-20.97-13.59zm-149.65 2.1c.48.69.96 1.38 1.46 2.06l-20.18 14.75c-.63-.87-1.26-1.75-1.87-2.63l20.59-14.18zm146.78 2.05c.5-.68.98-1.37 1.46-2.06l20.59 14.18c-.61.89-1.23 1.76-1.87 2.63l-20.18-14.75zm-143.8 2.02c.52.67 1.04 1.32 1.57 1.97L26.1 187.96c-.68-.83-1.35-1.67-2.01-2.52l19.77-15.32zm140.71 1.98c.53-.65 1.06-1.31 1.57-1.97l19.76 15.31c-.66.85-1.33 1.69-2.01 2.52l-19.32-15.86zm-137.51 1.92c.55.63 1.11 1.26 1.68 1.88l-18.41 16.92c-.73-.79-1.44-1.59-2.15-2.4l18.88-16.4zm134.2 1.89c.57-.62 1.13-1.25 1.68-1.88l18.87 16.4c-.71.81-1.42 1.61-2.15 2.4l-18.4-16.92zm-130.79 1.83c.29.3.59.6.89.9.3.3.6.59.9.89l-17.43 17.92c-.39-.38-.77-.75-1.15-1.13-.38-.38-.76-.76-1.13-1.15l17.92-17.43zm128.17.9c.3-.3.59-.6.89-.9l17.92 17.43c-.38.38-.75.77-1.13 1.15-.38.38-.76.76-1.15 1.13l-17.43-17.92c.3-.3.6-.59.9-.89zm-124.55 2.62c.62.57 1.25 1.13 1.88 1.68l-16.4 18.87c-.81-.71-1.61-1.42-2.41-2.15l16.93-18.4zm119.93 1.68c.63-.55 1.26-1.11 1.88-1.68l16.92 18.41c-.79.73-1.59 1.44-2.4 2.15l-16.4-18.88zM57.9 184.57c.65.53 1.31 1.06 1.97 1.57L44.56 205.9c-.85-.66-1.69-1.33-2.52-2.01l15.86-19.32zm112.22 1.58c.67-.51 1.32-1.04 1.97-1.57l15.86 19.32c-.83.68-1.67 1.35-2.52 2.01l-15.31-19.76zM61.9 187.66c.68.5 1.37.98 2.06 1.46l-14.18 20.59c-.89-.61-1.76-1.23-2.63-1.87l14.75-20.18zm104.15 1.46c.69-.48 1.38-.96 2.06-1.46l14.75 20.18c-.87.63-1.75 1.26-2.63 1.87l-14.18-20.59zm-100 1.41c.71.46 1.42.91 2.14 1.34l-13 21.35c-.92-.56-1.83-1.13-2.73-1.72l13.59-20.97zm95.76 1.34c.72-.44 1.43-.89 2.14-1.34l13.6 20.98c-.9.58-1.81 1.16-2.73 1.72l-13.01-21.36zm-91.45 1.28c.73.42 1.47.82 2.21 1.22l-11.78 22.05c-.95-.51-1.89-1.03-2.82-1.56l12.39-21.71zm87.07 1.22c.74-.4 1.48-.8 2.21-1.22l12.4 21.71c-.93.53-1.88 1.05-2.82 1.56l-11.79-22.05zm-82.61 1.16c.75.38 1.51.74 2.27 1.1L66.56 219.3c-.98-.45-1.94-.92-2.91-1.4l11.17-22.37zm78.09 1.1c.76-.35 1.52-.72 2.27-1.1l11.16 22.37c-.96.48-1.93.95-2.91 1.4l-10.52-22.67zm-73.51 1.03c.39.17.77.33 1.16.49.39.16.78.32 1.17.47l-9.24 23.23c-.5-.2-1-.4-1.49-.61-.5-.21-.99-.42-1.49-.63l9.89-22.95zm70.04.49c.39-.16.78-.32 1.16-.49l9.89 22.96c-.49.21-.99.42-1.49.63-.5.21-.99.41-1.49.61l-9.24-23.23 1.17-.48zm-65.35 1.37c.79.29 1.58.57 2.38.83l-7.93 23.71c-1.02-.34-2.03-.7-3.04-1.07l8.59-23.47zm59.44.84c.8-.27 1.59-.54 2.38-.83L154.5 223c-1.01.37-2.03.72-3.05 1.07l-7.92-23.71zm-54.66.76c.81.24 1.61.48 2.43.7l-6.58 24.12c-1.04-.28-2.07-.58-3.1-.89l7.25-23.93zm49.83.7c.81-.22 1.62-.45 2.43-.7l7.26 23.92c-1.03.31-2.06.61-3.1.89l-6.59-24.11zm-44.96.63c.82.2 1.64.39 2.46.56l-5.22 24.45c-1.05-.22-2.1-.46-3.14-.72l5.9-24.29zm40.05.57c.82-.18 1.64-.36 2.46-.56l5.9 24.29c-1.04.25-2.09.49-3.15.72l-5.21-24.45zm-35.11.49c.83.15 1.66.29 2.49.42l-3.84 24.7c-1.06-.17-2.12-.35-3.18-.54l4.53-24.58zm30.15.42c.83-.13 1.66-.27 2.49-.42l4.53 24.59c-1.06.2-2.12.38-3.18.54l-3.84-24.71zm-25.16.35c.83.11 1.67.2 2.51.28l-2.45 24.88c-1.07-.1-2.14-.23-3.2-.36l3.14-24.8zm20.15.29c.84-.08 1.67-.18 2.51-.28l3.15 24.8c-1.07.13-2.14.26-3.21.36l-2.45-24.88zm-15.13.21c.84.06 1.68.11 2.52.14l-1.05 24.98c-1.08-.04-2.15-.1-3.22-.18l1.75-24.94zm10.1.14c.84-.04 1.68-.08 2.52-.14l1.75 24.94c-1.07.08-2.15.14-3.22.18l-1.05-24.98zm-5.05.07c.42.01.84.01 1.26.01.42 0 .84 0 1.26-.01l.35 25c-.54.01-1.07.01-1.61.01s-1.07 0-1.61-.01l.35-25z" fill="#FB9B2B"/></svg>