<svg width="339" height="20" fill="none" xmlns="http://www.w3.org/2000/svg"><path d="M339 0h-1.5v20h1.5V0zm-3.49 0h-2.99v20h2.99V0zm-4.99 0h-2.99v20h2.99V0zm-4.98 0h-2.99v20h2.99V0zm-4.99 0h-2.99v20h2.99V0zm-4.98 0h-2.99v20h2.99V0zm-4.99 0h-2.99v20h2.99V0zm-4.98 0h-2.99v20h2.99V0zm-4.99 0h-2.99v20h2.99V0zm-4.98 0h-2.99v20h2.99V0zm-4.99 0h-2.99v20h2.99V0zm-4.98 0h-2.99v20h2.99V0zm-4.99 0h-2.99v20h2.99V0zm-4.98 0h-2.99v20h2.99V0zm-4.99 0h-2.99v20h2.99V0zm-4.98 0h-2.99v20h2.99V0zm-4.99 0h-2.99v20h2.99V0zm-4.99 0h-2.99v20h2.99V0zm-4.98 0h-2.99v20h2.99V0zm-4.99 0h-2.99v20h2.99V0zm-4.98 0h-2.99v20h2.99V0zm-4.99 0h-2.99v20h2.99V0zm-4.98 0h-2.99v20h2.99V0zm-4.99 0h-2.99v20h2.99V0zm-4.98 0h-2.99v20h2.99V0zm-4.99 0h-2.99v20h2.99V0zm-4.98 0h-2.99v20h2.99V0zm-4.99 0h-2.99v20h2.99V0zm-4.98 0h-2.99v20h2.99V0zm-4.99 0h-2.99v20h2.99V0zm-4.98 0h-2.99v20h2.99V0zm-4.99 0h-2.99v20h2.99V0zm-4.98 0h-2.99v20h2.99V0zm-4.99 0h-2.99v20h2.99V0zM171 0h-2.99v20H171V0zm-4.99 0h-2.99v20h2.99V0zm-4.99 0h-2.99v20h2.99V0zm-4.98 0h-2.99v20h2.99V0zm-4.99 0h-2.99v20h2.99V0zm-4.98 0h-2.99v20h2.99V0zm-4.99 0h-2.99v20h2.99V0zm-4.98 0h-2.99v20h2.99V0zm-4.99 0h-2.99v20h2.99V0zm-4.98 0h-2.99v20h2.99V0zm-4.99 0h-2.99v20h2.99V0zm-4.98 0h-2.99v20h2.99V0zm-4.99 0h-2.99v20h2.99V0zm-4.98 0h-2.99v20h2.99V0zm-4.99 0h-2.99v20h2.99V0zm-4.98 0h-2.99v20h2.99V0zm-4.99 0h-2.99v20h2.99V0zm-4.99 0h-2.99v20h2.99V0zm-4.98 0h-2.99v20h2.99V0zm-4.99 0h-2.99v20h2.99V0zm-4.98 0H68.3v20h2.99V0zM66.3 0h-2.99v20h2.99V0zm-4.98 0h-2.99v20h2.99V0zm-4.99 0h-2.99v20h2.99V0zm-4.98 0h-2.99v20h2.99V0zm-4.99 0h-2.99v20h2.99V0zm-4.98 0h-2.99v20h2.99V0zm-4.99 0H33.4v20h2.99V0zm-4.98 0h-2.99v20h2.99V0zm-4.99 0h-2.99v20h2.99V0zm-4.98 0h-2.99v20h2.99V0zm-4.99 0h-2.99v20h2.99V0zm-4.98 0H8.48v20h2.99V0zM6.48 0H3.49v20h2.99V0zM1.5 0H0v20h1.5V0z" fill="#243771"/></svg>