<svg xmlns="http://www.w3.org/2000/svg" width="179" height="80" fill="none">
  <g clip-path="url(#a)">
<symbol id="bi-logo" >
    <path fill="#fff" d="M129.152.533081H55.4923V18.8468H32.4961v12.4873H11.7444v16.8578l-.094.21 22.1548.0341v15.1578H178.541V45.6973h-50.675V34.873h23.567V17.391h-18.726V.533081h-3.555Z"/>
    <path fill="#fff" d="M27.6586 27.9851H-.00195312V8.3518H40.8025V-.00048828h11.4104L52.2561 15.515H27.6586v12.4701ZM1.01479 26.85H26.6419V14.3797h24.5924l-.0356-13.24498h-9.3795v8.35229H1.01479V26.85ZM94.9023 79.9068h53.4857v-12.456H94.9023v12.456Z"/>
    <path fill="#110F2F" d="M168.093 52.5451c.059.1031.135.1927.224.264.098.0761.216.115.336.1107.132.0034.263-.0246.385-.0824.11-.0567.219-.1191.334-.1873.123-.0754.255-.1391.388-.1901.182-.06.372-.0877.562-.0823.122-.0083.245.0128.36.0618.113.0489.218.1246.303.222.177.2618.26.5874.235.9138v.2952c-.62.0023-1.236.0861-1.838.2498-.411.1139-.802.3006-1.16.5533-.254.182-.461.4343-.602.7323-.112.2442-.172.5143-.175.789-.005.291.041.5803.136.8514.085.2382.219.4511.39.6215.177.1737.387.3033.613.3803.26.0883.531.1313.803.1277.202.0019.403-.0181.602-.0597.176-.0369.345-.097.509-.1787.16-.0805.315-.1753.462-.2838.15-.1164.305-.2526.468-.4031l.138.3946c.038.1434.121.267.233.3491.131.0624.272.0906.415.0822h.884v-4.4897c.003-.3871-.057-.7718-.175-1.1352-.108-.3388-.28-.6476-.503-.9052-.225-.2577-.496-.4582-.797-.5876-.336-.1463-.694-.2185-1.054-.2129-.519-.0026-1.035.0933-1.526.2838-.477.1877-.917.4768-1.296.8514l.346.6641Zm3.127 3.5958c-.164.1938-.355.3543-.567.474-.207.1007-.431.1501-.657.1447-.186.0145-.371-.0382-.528-.1505-.065-.0638-.115-.1439-.146-.2337-.031-.0899-.044-.1868-.035-.2828 0-.1226.029-.2432.085-.3489.075-.1243.18-.2225.302-.284.187-.0997.387-.1703.592-.21.316-.0618.634-.0987.954-.1106v1.0018Zm-9.659-5.2787v7.2114h2.795c.316.0011.631-.04.938-.122.29-.0731.566-.2008.817-.3774.234-.1697.432-.3968.576-.6642.152-.3001.226-.6407.216-.9848.004-.208-.031-.4148-.102-.6073-.067-.1762-.165-.3361-.287-.4711-.127-.1382-.275-.2531-.435-.3406-.173-.0942-.357-.1665-.545-.2157.207-.0552.404-.1512.582-.2838.141-.1095.263-.2482.358-.4087.086-.1447.149-.305.185-.4739.033-.1582.05-.32.051-.4825.002-.2449-.048-.487-.145-.7066-.105-.2288-.26-.4242-.449-.5676-.233-.174-.491-.2991-.763-.369-.355-.0944-.718-.1392-1.083-.1333l-2.709-.0029Zm2.646 1.3509c.131-.0033.262.0188.385.0653.095.0371.181.095.255.1702.06.0654.105.1463.13.2356.025.0852.037.1743.037.2639.004.1145-.013.2287-.052.3348s-.096.202-.171.281c-.078.0813-.169.1445-.269.1859-.098.0415-.204.0602-.31.0555h-.817v-1.5922h.812Zm-.817 4.4415v-1.5638h.946c.138-.004.274.0152.406.0568.091.0305.174.0873.24.1646.056.0685.095.1529.111.244.019.0933.028.1885.029.2838.005.11-.013.2198-.049.3222-.036.1022-.091.1946-.162.271-.159.1533-.365.2318-.575.2185l-.946.0029Zm-2.607-5.7924h-6.228v1.5438h2.148v5.6761h1.929V52.406h2.151v-1.5438Zm-6.502.9535c-.296-.3366-.647-.6055-1.035-.7917-.422-.1943-.876-.2908-1.333-.2838-.475-.0112-.95.0853-1.392.2838-.386.1758-.731.442-1.017.7805-.276.3393-.486.7395-.615 1.1749-.142.4699-.212.9628-.208 1.4586-.009.5399.072 1.0768.238 1.5837.144.4351.365.8337.648 1.1721.268.3131.59.5605.947.7266.358.1668.743.2517 1.131.2497.226-.0006.453-.0177.678-.0511.237-.0354.469-.0982.694-.1873.239-.0947.466-.2215.677-.3774.233-.1735.444-.3827.627-.6215l-.559-.772c-.04-.0616-.092-.1111-.153-.1438-.06-.0329-.127-.0479-.195-.0435-.104-.0037-.206.0301-.29.0964l-.254.2129c-.104.0849-.216.1554-.336.21-.17.07-.35.1019-.531.0936-.195.0059-.386-.043-.559-.1423-.172-.0993-.318-.2455-.427-.4253-.265-.4764-.39-1.0326-.358-1.592-.004-.2986.023-.5968.081-.8883.046-.2374.132-.4629.253-.6641.11-.1756.255-.3189.425-.4172.192-.1011.403-.1507.615-.1448.163-.0049.324.021.478.0766.118.045.23.1021.339.1704l.253.1703c.078.0499.165.0764.255.0765.082.0059.163-.0191.231-.0709.062-.0551.119-.1179.167-.1873l.525-.7323Zm-9.536 1.6007v-2.5542h-1.835v7.2114h2.797c.356.0061.71-.0523 1.05-.1731.287-.103.553-.2689.783-.4882.211-.2048.378-.4598.49-.7463.114-.3026.171-.6282.168-.9564.001-.2992-.045-.5961-.138-.877-.091-.2793-.241-.5303-.437-.7322-.219-.225-.479-.3951-.763-.4995-.372-.1332-.762-.1955-1.153-.1845h-.962Zm0 3.17v-1.7027h.947c.118-.003.237.0201.348.0681.096.0359.184.0972.254.1788.065.0763.114.1672.144.2667.032.0996.047.2041.047.3094.008.2299-.063.4548-.199.6271-.077.0843-.168.1495-.27.1911-.102.0415-.209.0587-.317.0503l-.954.0112Zm-3.138-5.7242h-4.695c-.044.877-.096 1.6262-.165 2.2505-.055.5284-.133 1.0532-.237 1.5723-.066.3485-.166.6882-.297 1.0132-.085.209-.2.4008-.341.5676-.102.1192-.231.2071-.373.2554-.129.0396-.261.0597-.395.0596h-.403v1.2941c0 .0937.059.1646.177.2185.197.0656.403.0924.608.0796.226.001.453-.0209.676-.0653.227-.0499.444-.1461.64-.2838.225-.1552.422-.3554.583-.5904.215-.3098.386-.6543.508-1.0216.168-.5068.295-1.0291.381-1.561.126-.7331.211-1.4744.255-2.2193h1.171v5.6192h1.929l-.022-7.1886Zm-7.691 3.9931c.072.0031.146-.0094.216-.0369.056-.0225.103-.0667.134-.1249.038-.0743.06-.1563.069-.2412.014-.1319.019-.2646.018-.3973.007-.4756-.067-.9484-.217-1.3935-.129-.3903-.333-.7447-.598-1.0387-.258-.2874-.57-.5083-.915-.6471-.813-.3185-1.703-.2964-2.503.0624-.375.1764-.713.4363-.994.7636-.282.3275-.501.7157-.643 1.1408-.149.4379-.223.9025-.221 1.3707-.012.5739.074 1.1452.254 1.6829.156.4535.394.8654.701 1.2091.299.3233.653.5727 1.043.7322.407.1666.838.2503 1.271.2469.236-.0024.47-.0213.704-.0568.247-.0353.491-.098.727-.1873.249-.0936.489-.2203.711-.3774.241-.1699.459-.3796.643-.6215l-.559-.772c-.039-.0616-.091-.1111-.152-.1438-.06-.0329-.128-.0477-.196-.0435-.117.0004-.231.0315-.335.0908l-.348.2015c-.139.0801-.284.1476-.432.2015-.189.0642-.384.0948-.58.0908-.373.014-.736-.1311-1.017-.4058-.3-.357-.475-.8223-.493-1.3112l3.712.0057Zm-3.7-1.2515c.04-.3772.185-.7313.412-1.0132.115-.1203.25-.2132.398-.2732.148-.0599.305-.0858.461-.0759.182-.0069.363.0329.529.1163.138.0725.258.1782.354.3094.088.1293.155.2767.193.4341.038.1641.058.3329.058.5025h-2.405Zm-2.287-2.7416h-6.228v1.5438h2.151v5.6761h1.929V52.406h2.148v-1.5438Zm-11.863 1.6773c.059.103.135.1927.224.2639.099.0766.217.1154.338.1107.132.0032.264-.0249.386-.0823.107-.0568.219-.1193.333-.1873.128-.077.262-.1417.399-.193.182-.0602.37-.0879.56-.0823.122-.0082.244.0127.359.0617.114.049.218.1247.304.2221.178.2612.261.5873.234.9138v.3037c-.619.0023-1.236.0861-1.838.2498-.41.1132-.8.3001-1.157.5533-.254.182-.463.4342-.604.7323-.113.2442-.173.5143-.176.789-.004.291.042.5803.137.8514.085.2382.218.4511.389.6215.179.1737.389.3033.615.3803.261.0883.532.1313.804.1277.201.0018.402-.0182.6-.0597.175-.0369.345-.097.508-.1787.162-.0803.317-.1753.465-.2838.147-.1164.305-.2526.465-.4031l.137.3946c.04.1429.123.2662.234.3491.131.0624.273.0906.415.0822h.884v-4.4897c.004-.3871-.056-.7718-.175-1.1352-.107-.3383-.279-.6468-.502-.9043-.224-.2577-.495-.4584-.795-.5885-.336-.1466-.695-.2189-1.057-.2129-.519-.0031-1.035.0929-1.525.2838-.478.1883-.919.4773-1.299.8514l.338.6585Zm3.134 3.6014c-.162.1944-.354.3549-.567.474-.205.1014-.428.1508-.653.1447-.186.0154-.372-.0375-.529-.1505-.065-.0634-.115-.1435-.147-.2334-.031-.0899-.043-.1871-.033-.2831-.001-.1226.028-.2432.084-.3489.074-.125.179-.2235.302-.284.187-.0997.386-.1704.59-.21.315-.0618.634-.0987.953-.1106v1.0018Zm-6.258-5.2787c-.136.0014-.271.0322-.396.0908-.147.0778-.265.2102-.333.3747l-1.096 2.469c-.087.1695-.164.3449-.231.525-.069.1874-.135.3775-.199.5677-.06-.1959-.129-.3861-.198-.5677-.067-.1801-.144-.3555-.231-.525l-1.091-2.469c-.07-.1625-.187-.2935-.332-.3719-.125-.061-.259-.0929-.394-.0936h-1.625v7.2171h1.744v-3.4057c0-.1816 0-.3831-.028-.6044-.028-.2213-.046-.4371-.079-.6386l1.589 3.434c.05.1114.127.2043.223.2672.096.063.207.0935.318.0875h.206c.111.0053.222-.0255.318-.0884.096-.0629.173-.1553.224-.2663l1.586-3.4311c-.035.2093-.059.4206-.074.6329-.018.2241-.025.4228-.025.5988v3.4055h1.743v-7.2085h-1.619Zm-8.612 0c-.073.0002-.145.0156-.213.0454-.066.0314-.128.0713-.186.1192-.058.049-.112.1052-.16.1675-.046.0624-.089.1249-.127.1844-.361.6102-.686 1.1608-.979 1.6461l-.363.6129-.315.545c-.094.159-.171.2838-.234.3917l-.099.1674c-.125.1982-.232.4102-.318.6328.02-.1475.038-.2838.051-.437.013-.1532.018-.2838.018-.3917v-3.6695h-1.9296v7.2114h1.1816c.073-.0002.144-.0156.211-.0454.067-.0308.13-.0707.188-.1192.059-.0484.112-.1046.158-.1675.048-.0624.091-.1249.13-.1844.361-.6102.686-1.1608.976-1.6461l.366-.613.318-.5392.228-.3916c.032-.0581.067-.114.105-.1675.124-.1987.23-.4107.317-.6329-.023.1476-.038.2838-.051.4343-.012.1503-.017.2838-.017.3915v3.6725h1.929v-7.2114l-1.185-.0057Zm-8.0955 0v2.6223h-1.9928v-2.6223h-1.9318v7.2114h1.9318v-3.0395h1.9928v3.0452h1.9395v-7.2114l-1.9395-.0057Zm-6.4157 0c-.0721.0005-.1437.0159-.2108.0454-.0667.0314-.1299.0713-.1882.1192-.0579.0491-.1107.1052-.1576.1675-.0457.0584-.0881.1201-.1271.1844-.3609.6102-.6888 1.1608-.9786 1.6461l-.3634.6129c-.1195.1988-.2263.3803-.3178.5393l-.2338.3916c-.0636.1022-.0967.159-.0992.1675-.1252.1981-.2316.4102-.3177.6329.0203-.1476.0356-.2838.0483-.437.0127-.1534.0203-.284.0203-.3917v-3.6639h-1.9368v7.2114h1.1845c.0721-.0005.1437-.016.2108-.0454.0662-.0308.1286-.0708.1857-.1192.0587-.049.1124-.1052.1601-.1675.0483-.0624.089-.1249.1271-.1844.3609-.6102.6863-1.1608.9786-1.6461l.3634-.613c.1195-.1987.2238-.3802.3178-.5392l.2313-.3916c.0585-.1022.0941-.159.1017-.1675.1252-.1981.2316-.4102.3177-.6329-.0203.1476-.038.2838-.0483.4343-.0101.1503-.0203.2838-.0203.3915v3.6725h1.9318v-7.2114l-1.1795-.0057Zm-10.3427.3633c-.0298-.1117-.093-.2086-.179-.2748-.0861-.066-.1897-.0972-.2938-.0885H77.806v9.4988h1.9319v-2.767c.1854.1802.3957.3259.6227.4314.2699.1152.5577.1693.8465.1589.3893.0061.7743-.0912 1.1234-.2838.3388-.19.6364-.4602.8719-.7918.2522-.3577.4444-.7635.5668-1.1976.1388-.4853.2074-.9921.2034-1.5014.0054-.5251-.0544-1.0485-.1779-1.5552-.1022-.4148-.2683-.8066-.4905-1.1579-.1922-.3021-.4456-.5491-.7398-.7209-.2885-.1684-.6098-.2552-.9354-.2526-.3981-.0132-.793.0844-1.1489.2838-.321.1937-.612.4437-.8617.7408l-.1423-.5222Zm.2542 1.8277c.1418-.2009.3139-.3727.5083-.5081.2161-.123.4566-.1825.6991-.173.1444-.0028.2874.0333.4168.105.1335.0785.2445.1975.3203.3433.102.1948.1726.408.2084.63.0557.3159.0811.6374.0763.9593.0046.3416-.027.6827-.094 1.0161-.0481.2411-.1343.4707-.2543.6782-.0978.1617-.2319.2918-.3889.3774-.1534.0806-.3211.1213-.4905.1193-.1837.0012-.3659-.0372-.5364-.1135-.1813-.0826-.3431-.2108-.4728-.3747l.0077-3.0593Zm-3.2384-2.191h-5.8463v7.2114h1.9293v-5.6761h1.9928v5.6761h1.9319l-.0077-7.2114Zm-7.8797 5.676v-5.676h-4.6186c-.0407.8968-.0958 1.6612-.1652 2.2931-.0534.5322-.1323 1.0609-.2364 1.5836-.0648.3456-.1628.6825-.2924 1.0048-.0812.2116-.1976.4041-.3431.5675-.1077.1167-.2409.1999-.3864.2413-.136.0342-.2749.0513-.4143.051h-.155v3.8456h1.2277c.0809.0016.1613-.0148.2364-.0484.0637-.0293.1203-.075.1652-.1333.0437-.0541.0767-.118.0967-.1873.0203-.0697.0306-.1424.0304-.2157v-1.7795h4.3034v2.3642h1.215c.073.0055.1463-.0065.2147-.0355.0686-.029.1306-.0742.1821-.1323.0514-.0582.0909-.1281.1158-.2051.025-.0767.0349-.1588.0287-.2402v-3.3006l-1.2047.0028Zm-3.8916.0625c.1046-.2243.1947-.4566.2695-.6954.0937-.2954.1717-.5968.2338-.9024.0712-.3369.1347-.7152.1907-1.1352.0558-.4229.1016-.8883.1397-1.3992h1.1896v4.1379l-2.0233-.0057Zm-3.5586-1.7369c.0734.0032.1468-.0094.216-.0368.0568-.0226.1045-.0668.1347-.125.038-.0738.0606-.1563.0662-.2412.0147-.1318.0215-.2645.0202-.3973.0075-.4756-.0658-.9484-.216-1.3935-.1226-.3889-.3185-.7442-.5744-1.0416-.2592-.2874-.5715-.5083-.9151-.647-.8138-.3186-1.7035-.2964-2.5037.0625-.3746.1763-.7129.4361-.9945.7636-.2814.3275-.5.7155-.6425 1.1406-.1484.4379-.2235.9026-.2211 1.3708-.0106.5739.0756 1.1447.2542 1.683.1563.4536.3962.8653.704 1.2089.2965.3233.6508.5727 1.0397.7323.4069.1664.8374.2501 1.2709.2468.2329-.0008.4655-.0178.6965-.051.2473-.0354.4908-.098.727-.1873.2498-.0937.4888-.2204.7117-.3774.2411-.1701.4578-.3796.6431-.6216l-.5592-.772c-.0395-.0618-.0924-.1114-.1539-.1442-.0613-.0327-.1291-.0475-.197-.043-.1157.0007-.2298.0318-.333.0907l-.3482.2016c-.1388.0801-.2834.1475-.4321.2015-.1877.0641-.3833.0947-.5795.0907-.3728.014-.7364-.1311-1.0168-.4057-.2999-.357-.4748-.8223-.493-1.3113l3.6958.0029Zm-3.6985-1.2515c.04-.3772.184-.7313.4118-1.0132.1144-.1205.2496-.2135.3973-.2736.1478-.0601.3049-.0858.4618-.0755.182-.0065.3627.0332.5288.1163.1366.0717.2567.1776.3508.3094.0912.1279.157.2758.1932.4343.0407.1635.0612.3325.0609.5023h-2.4046Zm-7.0765-2.3812c-.029-.1122-.092-.2097-.1782-.276-.0861-.0662-.1902-.097-.2945-.0872h-1.1972v9.4989h1.9241v-2.7672c.1855.1803.3958.3259.6228.4314.2699.115.5576.1691.8464.1589.3894.0062.7745-.0911 1.1236-.2838.3387-.1899.6362-.4602.8718-.7918.2522-.3576.4443-.7634.5669-1.1976.1387-.4852.2072-.992.2032-1.5013.0069-.5252-.053-1.0489-.1779-1.5553-.1014-.4145-.2666-.8063-.4881-1.1579-.1936-.3016-.4477-.5485-.7421-.7208-.2877-.1684-.608-.2552-.9329-.2526-.3982-.0138-.7931.0837-1.1489.2838-.3223.1928-.6142.443-.8643.7407l-.1347-.5222Zm.2542 1.8277c.146-.2029.3233-.375.5237-.5079.2151-.1231.4548-.1827.6964-.1732.1446-.003.2875.0331.4169.105.1336.0786.2446.1976.3202.3435.1029.1945.1743.4077.211.63.0534.3161.0781.6375.0737.9592.006.3416-.0256.6829-.094 1.016-.047.2415-.1331.4714-.2542.6783-.0991.1613-.234.2914-.3914.3775-.1533.0806-.3212.1214-.4906.1192-.1836.0012-.3658-.0373-.5364-.1136-.1813-.0825-.3431-.2108-.4728-.3746l-.0025-3.0594Zm-3.2383-2.1909h-5.8463v7.2114h1.9293v-5.676h1.9928v5.676h1.9318l-.0076-7.2114Zm70.4891-8.9902c-.21-.4991-.318-1.0436-.318-1.5949 0-.5512.108-1.0957.318-1.595.112-.1753.264-.3151.439-.4061.176-.0909.369-.13.562-.1132.19-.0158.38.0238.552.1148.172.091.32.2305.429.4045.208.4998.315 1.0441.315 1.595s-.107 1.0951-.315 1.5949c-.108.1755-.256.3162-.428.4082-.172.0921-.363.1323-.553.1169-.193.0164-.387-.0233-.563-.1153-.175-.092-.326-.2332-.438-.4098Zm-.346-5.0516c-.391.1619-.748.4133-1.047.7379-.299.3289-.53.7258-.679 1.1636-.165.4925-.247 1.0151-.239 1.541-.008.5296.074 1.056.239 1.5525.148.4416.379.8422.679 1.1748.299.3264.655.5796 1.047.7437.43.18.887.2687 1.347.2611.457.0076.912-.0811 1.34-.2611.389-.1621.743-.4157 1.037-.7437.296-.3337.526-.7342.673-1.1748.166-.4965.247-1.0229.239-1.5525.008-.5259-.073-1.0485-.239-1.541-.148-.4369-.377-.8336-.673-1.1636-.295-.3261-.648-.5778-1.037-.7379-.429-.1778-.883-.2654-1.34-.2582-.459-.0072-.916.0804-1.347.2582Zm-2.288-.1476h-4.54v7.2114h1.942v-5.676h2.616l-.018-1.5354Zm-9.809 5.1992c-.209-.4991-.318-1.0436-.318-1.5949 0-.5512.109-1.0957.318-1.595.115-.1774.269-.3186.447-.4098.178-.091.375-.1287.57-.1095.19-.0156.38.0241.552.1152.172.091.32.2303.429.4041.206.5003.313 1.0444.313 1.595 0 .5507-.107 1.0948-.313 1.5949-.109.175-.256.3154-.428.4074-.172.0921-.363.1326-.553.1177-.196.0189-.393-.0196-.571-.1117-.178-.0921-.332-.2346-.446-.4134Zm-.346-5.0516c-.39.1613-.746.4128-1.044.7379-.299.3289-.53.7258-.679 1.1636-.166.4922-.248 1.015-.241 1.541-.007.5298.075 1.0563.241 1.5525.148.4416.379.8422.679 1.1748.297.327.653.5804 1.044.7437.432.18.89.2685 1.35.2611.457.0073.912-.0813 1.34-.2611.389-.1636.742-.4169 1.037-.7437.295-.3344.524-.7349.671-1.1748.165-.4965.246-1.0229.239-1.5525.007-.5259-.074-1.0485-.239-1.541-.148-.4363-.377-.8327-.671-1.1636-.295-.325-.649-.5765-1.037-.7379-.429-.1775-.883-.2651-1.34-.2582-.46-.0071-.918.0804-1.35.2582Zm-5.5128 2.3016c-.05.1251-.1279.2336-.2263.3151-.1201.0713-.2557.1038-.3914.0937h-.3965v-2.858h-1.9293v7.2114h1.9318V40.893h.4855c.1425-.0027.2829.0375.4067.1164.1233.0826.2189.2082.2719.3576l.6834 1.8135c.06.1097.128.2124.206.3065.074.0878.16.1624.255.2214.106.0651.221.1111.34.1362.146.0329.296.0482.445.0453h1.332l-1.352-2.9628c-.092-.2-.211-.3829-.354-.5421-.145-.1515-.319-.2648-.508-.332.148-.0626.282-.1593.394-.2838.122-.1435.229-.3025.318-.474l1.357-2.6223h-1.525c-.179-.0005-.354.0513-.509.1503-.154.0936-.286.2293-.381.3946l-.8538 1.9099Zm-3.7493-1.4955c-.2949-.3374-.6465-.6065-1.0346-.7919-.4222-.1942-.8753-.2907-1.3319-.2838-.4758-.0112-.9489.0853-1.3904.2838-.3854.1752-.7323.4414-1.0167.7805-.2762.3399-.4864.7399-.6176 1.1749-.1419.4699-.2123.9629-.2086 1.4587-.0086.5398.0725 1.0768.239 1.5836.1438.4352.3642.8337.6481 1.1722.267.3137.59.5613.9482.7265.3574.1668.7412.2517 1.1285.2497.227-.0004.4538-.0175.6788-.0511.2366-.0348.4692-.0976.6939-.1872.2385-.094.4656-.2209.6761-.3775.2351-.1734.4472-.3827.6304-.6215l-.5617-.772c-.0391-.0615-.0915-.1111-.1525-.1438-.0609-.0328-.1282-.0478-.1957-.0435-.1034-.0037-.2052.0301-.2898.0966l-.2543.2127c-.1032.0843-.2149.1548-.3329.21-.1707.0701-.3521.1019-.5338.0937-.1939.0058-.386-.0431-.5585-.1424-.1723-.0992-.3195-.2454-.4277-.4252-.2643-.4765-.3896-1.0327-.3585-1.5921-.0023-.2986.0249-.5965.0814-.8883.0462-.2374.1325-.4627.2542-.6641.1093-.1763.256-.3196.427-.4171.1912-.1012.4011-.1507.6126-.1449.1628-.0046.3252.0214.4804.0767.1161.0454.2284.1025.3355.1703l.2542.1703c.0769.0509.1648.0774.2542.0765.0822.0068.1638-.0182.2312-.0709.0622-.0551.1185-.1179.1679-.1873l.5236-.7321Zm-6.6572 3.0394c.0735.003.1469-.0096.2162-.0369.0557-.023.1025-.0672.1321-.1249.0375-.0743.0609-.1563.0686-.2412.0148-.1317.0215-.2644.0204-.3973.0061-.4754-.0672-.948-.2161-1.3935-.1306-.3898-.3343-.7439-.5973-1.0387-.2601-.2862-.5721-.5069-.9151-.6471-.8138-.3185-1.7035-.2964-2.5037.0624-.3827.177-.7288.4397-1.0167.772-.2776.3269-.4928.7129-.633 1.1352-.1485.4379-.2234.9026-.2211 1.3708-.0119.5739.0744 1.1452.2542 1.6829.1563.4536.3961.8655.704 1.209.2964.3232.6508.5727 1.0397.7323.407.1664.8374.25 1.2709.2469.2375-.0049.4743-.0266.7092-.0653.2482-.0351.4925-.0977.7295-.1874.2492-.0931.4874-.2199.7092-.3774.2423-.1691.46-.3787.6456-.6216l-.5592-.7604c-.0389-.0618-.0913-.1115-.1524-.1444-.0609-.0327-.1283-.0475-.1959-.0431-.1158.0005-.2299.0316-.333.0909l-.3482.2016c-.1391.0796-.2835.1469-.4321.2013-.1877.0642-.3833.0949-.5796.0909-.3728.014-.7364-.1311-1.0167-.4059-.2999-.3568-.4748-.8221-.4931-1.3111h3.7136Zm-3.6983-1.2515c.04-.3772.1838-.7313.4118-1.0132.1144-.1205.2494-.2136.3973-.2736.1477-.06.3049-.0857.4618-.0755.1818-.0066.3627.0332.5287.1164.1367.0716.2567.1775.3508.3094.0901.1284.1558.2763.1931.4341.0408.1635.0613.3326.0611.5024h-2.4046Zm-4.8525-2.7416v3.1021c-.2971.0665-.5992.1026-.9023.1077-.1944.0072-.3877-.0365-.5643-.1277-.1341-.0801-.2373-.2124-.2898-.3717-.058-.2017-.0846-.4128-.0788-.6244v-2.086h-1.9318v2.4067c-.0187.4724.0761.9417.2746 1.3593.1748.3395.4418.6079.7625.7664.3774.1742.7841.2556 1.1921.2383.5141-.012 1.0254-.0861 1.5251-.2213v2.662h1.9319v-7.2114h-1.9192Zm-5.9581 0c-.073.0003-.1454.0156-.2135.0455-.0659.0313-.1282.0713-.1855.1191-.0588.0491-.1125.1052-.1602.1675-.0457.0625-.089.1249-.1271.1845-.3609.6101-.6863 1.1607-.9761 1.646l-.3659.6131-.3178.5391c-.094.1589-.1703.2838-.2339.3917l-.0991.1674c-.1251.1981-.2316.4103-.3177.6329.0203-.1476.0382-.2838.0508-.437.0127-.1533.0178-.2838.0178-.3917V36.687h-1.9292v7.2114h1.182c.0721-.0003.1437-.0156.2108-.0453.0671-.0307.1303-.0708.1882-.1193.0586-.0483.1115-.1046.1576-.1674.0483-.0624.0915-.1249.1296-.1844.3609-.6103.6863-1.1608.9761-1.6461l.3661-.613.3176-.5393.2288-.3917c.0318-.058.0665-.1139.1042-.1674.1243-.1988.2307-.4108.3177-.6329-.0228.1476-.0381.2838-.0508.4343-.0127.1504-.0177.2838-.0177.3916v3.6724h1.9292v-7.2114h-1.182Zm-5.6378 0h-4.5397v7.2114h1.9292v-5.676h2.6156l-.0051-1.5354Zm-9.8065 5.1992c-.2092-.4991-.3177-1.0436-.3177-1.5949 0-.5512.1085-1.0957.3177-1.595.1128-.1754.2642-.3155.4396-.4065.1755-.091.369-.1299.5619-.1128.1898-.0158.3801.0238.5521.1148.1721.091.3199.2305.429.4045.2076.4998.3151 1.0441.3151 1.595s-.1075 1.0951-.3151 1.5949c-.1084.1755-.2559.3162-.428.4082-.1722.0921-.3628.1323-.5531.1169-.1934.0167-.3873-.0229-.5628-.1149-.1756-.092-.3267-.2334-.4387-.4102Zm-.3457-5.0516c-.3915.1613-.7484.4127-1.0473.7379-.2984.3289-.5299.7258-.6786 1.1636-.1654.4925-.2464 1.0151-.2389 1.541-.0075.5296.0735 1.056.2389 1.5525.1479.4416.3793.8422.6786 1.1748.2987.327.6555.5804 1.0473.7437.8685.3481 1.8183.3481 2.6868 0 .392-.163.7477-.4188 1.0426-.75.2949-.3313.5219-.7299.6655-1.1685.1663-.4962.2482-1.0227.2415-1.5525.0066-.526-.0753-1.0488-.2415-1.541-.1449-.4358-.3727-.8314-.6676-1.1596-.2948-.3282-.6497-.5813-1.0405-.7419-.869-.3443-1.8178-.3443-2.6868 0Zm-2.9358-.1476h-4.6923c-.0407.876-.0958 1.6263-.1652 2.2505-.0542.5284-.1331 1.0532-.2364 1.5723-.0673.3481-.166.6876-.2949 1.0132-.0852.2093-.2012.4011-.3431.5676-.1022.1204-.2312.2085-.3737.2555-.1274.0396-.2592.0597-.3914.0595h-.4041v1.2942c0 .0936.0584.1645.1753.2185.197.065.4025.0918.6075.0795.2267.0011.453-.0207.6761-.0653.2275-.0493.4447-.1456.6406-.2838.2256-.1551.4238-.3552.5846-.5903.2085-.3117.3747-.6559.4932-1.0217.1689-.5067.2974-1.0289.3838-1.5609.1232-.7327.208-1.4728.2542-2.2165h1.1692v5.6164h1.9318l-.0152-7.1887Zm-11.4104 5.1992c-.2093-.4991-.3178-1.0436-.3178-1.5949 0-.5512.1085-1.0957.3178-1.595.1135-.1753.2654-.3151.4412-.406.1758-.091.3696-.13.5628-.1133.1899-.0156.38.0241.5519.1152.172.091.3199.2303.4293.4041.206.5003.3128 1.0444.3128 1.595 0 .5507-.1068 1.0948-.3128 1.5949-.1089.175-.2565.3154-.4285.4074-.1719.0921-.3625.1326-.5527.1177-.1937.0163-.3878-.0234-.5638-.1154-.1759-.0919-.3275-.233-.4402-.4097Zm-.3457-5.0516c-.3908.1613-.7468.4128-1.0447.7379-.2985.3289-.53.7258-.6787 1.1636-.1706.4914-.2568 1.0141-.2542 1.541-.0026.5306.0835 1.0572.2542 1.5525.148.4416.3794.8422.6787 1.1748.2977.327.6536.5804 1.0447.7437.4313.18.8892.2685 1.3497.2611.4572.0073.9116-.0813 1.3395-.2611.3888-.1636.7423-.4169 1.0372-.7437.2952-.3344.5239-.7349.671-1.1748.1654-.4965.2464-1.0229.2389-1.5525.0075-.5259-.0735-1.0485-.2389-1.541-.1479-.4363-.3766-.8327-.671-1.1636-.2952-.325-.6486-.5765-1.0372-.7379-.4284-.1775-.8826-.2651-1.3395-.2582-.4603-.0071-.9179.0804-1.3497.2582Zm-4.8651-.1476v2.6224H37.335v-2.6224h-1.9472v7.2114h1.9319v-3.0452h1.9928v3.0452h1.9293v-7.2114h-1.914Zm-6.6903 3.3886 2.0819-3.3886h-1.7793c-.0842-.0026-.1672.022-.239.0709-.0759.0575-.1393.1331-.1855.2214l-.8211 1.6064c-.0457.0851-.0864.1674-.1245.2468-.0367.0797-.0681.1622-.094.247l-1.1515-2.1341c-.0403-.0817-.099-.1502-.1703-.1988-.0952-.0463-.1989-.0667-.3025-.0596h-1.8555l2.0792 3.4851-2.1682 3.7263h1.7208c.1117.0052.2208-.0373.3051-.1191.077-.0754.1453-.1612.2033-.2555l.9481-1.7936c.0331-.0625.0635-.1249.0941-.1958.0291-.0718.0537-.1458.0737-.2214l1.1514 2.2108c.0508.1027.1201.1926.2034.264.0965.0781.214.1171.333.1106h1.8556l-2.1582-3.8228Zm-5.3048.6045c.0735.003.1468-.0096.2161-.0369.0557-.023.1025-.0672.1321-.1249.0376-.0743.061-.1563.0687-.2412.0147-.1317.0215-.2644.0203-.3973.0062-.4754-.0671-.948-.2161-1.3935-.1306-.3898-.3342-.7439-.5973-1.0387-.2601-.2862-.5721-.5069-.915-.6471-.8138-.3185-1.7036-.2964-2.5038.0624-.3781.1787-.7198.4413-1.004.772-.2775.3269-.4927.7129-.6329 1.1352-.1485.4379-.2235.9026-.2212 1.3708-.0118.5739.0745 1.1452.2543 1.6829.1563.4536.3961.8655.704 1.209.2964.3232.6508.5727 1.0397.7323.407.1664.8374.25 1.2709.2469.232-.0009.4638-.018.6939-.0512.2482-.0349.4926-.0977.7295-.1873.2493-.0931.4875-.2198.7092-.3774.2424-.1692.4601-.3787.6456-.6215l-.5617-.772c-.0389-.0618-.0914-.1114-.1523-.1442-.0609-.0328-.1285-.0476-.196-.0431-.1158.0008-.2299.0319-.333.0908l-.3482.2015c-.1391.0798-.2836.1471-.4322.2015-.1876.0642-.3831.0949-.5794.0909-.3728.014-.7364-.1312-1.0168-.4059-.2998-.3568-.4748-.8222-.4931-1.3111l3.7187-.0029Zm-3.6983-1.2515c.0399-.3772.1838-.7313.4117-1.0132.1144-.1205.2495-.2136.3973-.2736.1477-.06.3049-.0857.4619-.0755.1818-.0066.3627.0332.5286.1164.1367.0716.2567.1775.3509.3094.0901.1284.1559.2763.1931.4341.0407.1635.0613.3326.0611.5024h-2.4046Zm-2.2877-2.7416h-6.2276v1.5439h2.1479v5.676h1.9318v-5.676h2.1479v-1.5439Zm118.8763-8.9906c-.21-.4993-.318-1.0438-.318-1.595 0-.5513.108-1.0958.318-1.5949.114-.1776.268-.3188.446-.4098.178-.091.376-.1289.57-.1096.19-.0155.38.0242.552.1152.172.091.32.2302.43.4042.206.5001.312 1.0442.312 1.5949 0 .5506-.106 1.0947-.312 1.595-.109.1749-.258.3152-.429.4073-.172.0921-.363.1326-.553.1177-.196.0188-.392-.0196-.57-.1118-.179-.092-.332-.2346-.446-.4132Zm-.346-5.0517c-.391.1614-.746.4127-1.045.7378-.298.329-.529.7258-.679 1.1637-.166.4923-.247 1.0149-.241 1.541-.006.5297.075 1.0562.241 1.5524.148.4416.379.8424.679 1.175.297.3269.653.5802 1.045.7435.431.1802.889.2687 1.35.2611.457.0073.911-.0812 1.34-.2611.388-.1634.741-.4169 1.036-.7435.296-.3346.524-.735.672-1.175.164-.4963.246-1.0228.238-1.5524.008-.5258-.074-1.0486-.238-1.541-.149-.4363-.378-.8328-.672-1.1637-.295-.325-.648-.5764-1.036-.7378-.43-.1776-.883-.2651-1.34-.2583-.461-.0071-.918.0804-1.35.2583Zm-2.288-.1475h-4.54V29.7h1.933v-5.676h2.615l-.008-1.5353Zm-9.809 5.1992c-.209-.4993-.317-1.0438-.317-1.595 0-.5513.108-1.0958.317-1.5949.114-.1753.265-.3153.439-.4062.176-.091.37-.13.562-.1132.19-.0159.381.0237.552.1147.172.0911.321.2305.43.4047.207.4998.314 1.044.314 1.5949s-.107 1.0952-.314 1.595c-.109.1753-.256.316-.429.4081-.172.092-.362.1324-.553.1169-.193.0163-.387-.0234-.562-.1154-.176-.092-.327-.2331-.439-.4096Zm-.346-5.0517c-.391.1612-.748.4127-1.047.7378-.299.329-.53.7258-.678 1.1637-.166.4924-.246 1.0152-.239 1.541-.009.5296.073 1.0561.239 1.5524.147.4416.379.8424.678 1.175.299.327.655.5802 1.047.7435.431.1802.888.2687 1.347.2611.457.0076.912-.0809 1.34-.2611.39-.1634.743-.4169 1.038-.7435.295-.3345.525-.7348.672-1.175.165-.4967.246-1.023.24-1.5524.006-.5257-.075-1.0482-.24-1.541-.148-.4364-.378-.8329-.672-1.1637-.296-.325-.65-.5764-1.038-.7378-.428-.1779-.883-.2654-1.34-.2583-.459-.0071-.916.0804-1.347.2583Zm-5.515 2.3016c-.05.125-.128.2335-.227.315-.119.0712-.254.1037-.389.0937h-.399v-2.8578h-1.929V29.7h1.929v-2.997h.486c.143-.0026.284.0376.409.1164.123.0829.217.2085.27.3576l.686 1.8135c.057.111.126.2139.206.3065.073.0884.159.1632.254.2214.107.0647.221.1107.34.1362.147.0328.296.0481.445.0454h1.333l-1.35-2.9629c-.094-.1995-.214-.3823-.356-.542-.145-.1518-.319-.2653-.509-.3321.147-.0626.281-.1593.392-.2838.123-.1427.23-.3019.318-.4739l1.357-2.6224h-1.525c-.179-.0005-.354.0513-.509.1505-.155.0941-.287.2296-.383.3944l-.849 1.91Zm-3.747-1.4956c-.296-.3366-.647-.6056-1.035-.7918-.422-.1942-.875-.2908-1.332-.2838-.476-.0112-.95.0854-1.393.2838-.385.1751-.732.4414-1.016.7804-.277.3394-.486.7397-.615 1.1749-.143.4698-.214.9629-.211 1.4588-.008.54.074 1.077.241 1.5837.144.435.364.8335.648 1.172.267.3131.589.5606.946.7265.358.1671.743.252 1.131.2499.229.0005.457-.0157.684-.0484.236-.0354.469-.0982.694-.1872.238-.0947.465-.2215.676-.3775.234-.1734.445-.3827.628-.6215l-.56-.772c-.039-.0618-.092-.1115-.153-.1442-.062-.0327-.129-.0476-.197-.0431-.103-.0032-.204.0306-.288.0965l-.254.2129c-.103.0848-.215.1553-.333.21-.17.0699-.35.1018-.531.0937-.194.0057-.387-.0434-.559-.1425-.173-.0993-.321-.2455-.43-.4251-.263-.4768-.388-1.0332-.356-1.5922-.003-.2985.024-.5964.079-.8883.048-.237.134-.4621.254-.6641.11-.1763.256-.3197.427-.4172.192-.1015.403-.151.615-.1447.163-.005.324.021.478.0766.117.0444.229.1015.336.1703l.254.1703c.077.0508.165.0773.254.0766.082.0063.162-.0188.229-.071.064-.0542.121-.1171.17-.1873l.519-.735Zm-5.923-.9535h-6.227v1.5438h2.148v5.676h1.949v-5.676h2.151l-.021-1.5438Zm-7.099 3.993c.073.003.145-.0095.213-.0369.057-.0225.105-.0668.135-.1248.038-.0743.061-.1565.069-.2413.013-.1319.019-.2646.018-.3974.007-.4752-.066-.9477-.214-1.3933-.128-.389-.329-.7431-.59-1.0388-.259-.2875-.571-.5083-.915-.647-.376-.1545-.774-.2304-1.174-.2243-.456-.0088-.909.0878-1.329.2838-.375.1763-.713.4363-.995.7636-.281.3275-.5.7157-.6423 1.1407-.1486.4379-.2235.9026-.2213 1.3708-.0118.5739.0744 1.1452.2542 1.6829.1555.4541.3954.8663.7044 1.209.296.3239.65.5734 1.039.7323.407.1664.838.25 1.271.2468.232-.0009.464-.018.694-.0511.248-.0356.493-.0982.73-.1873.249-.0942.487-.221.709-.3774.241-.1693.458-.3789.643-.6215l-.559-.772c-.039-.0616-.092-.1111-.153-.1438-.061-.0327-.128-.0477-.195-.0435-.116.0001-.231.0312-.333.0908l-.351.2015c-.139.0808-.283.1481-.432.2015-.188.0644-.384.095-.58.0909-.373.0136-.736-.1315-1.017-.4059-.299-.3573-.473-.8225-.49-1.3111l3.711.0028Zm-3.701-1.2516c.04-.3772.184-.7311.412-1.0132.114-.1201.25-.213.397-.273.148-.0601.305-.0859.462-.076.182-.007.363.0329.529.1164.137.0708.258.1768.353.3093.089.1292.155.2768.193.4342.039.1639.058.3328.059.5023h-2.405Zm-2.2877-2.7414h-6.2275v1.5438h2.1479v5.676h1.9292v-5.676h2.1784l-.028-1.5438Zm-8.1899 0c-.0722.0002-.1438.0156-.211.0453-.0669.0307-.1301.0708-.188.1192-.0585.0483-.1115.1047-.1576.1675-.0483.0624-.0915.1248-.1297.1844-.3609.6103-.6863 1.1607-.976 1.6461l-.366.613-.3178.5392c-.0915.159-.1703.2838-.2312.3917l-.1018.1674c-.1137.2002-.2099.4121-.2872.6329.0229-.1475.0381-.2838.0509-.4371.0127-.1532.0177-.2838.0177-.3917v-3.6694h-1.9293v7.2113h1.182c.0731-.0002.1455-.0156.2135-.0454.066-.0314.1283-.0713.1856-.1191.0588-.0491.1125-.1053.1602-.1676.0457-.0624.0889-.1248.1271-.1844.3609-.6102.6863-1.1608.9786-1.6461l.3634-.613.3178-.5391.2287-.3917c.0611-.1021.0967-.159.1043-.1674.1251-.1982.2316-.4103.3177-.6329-.0203.1475-.0382.2838-.0509.4342-.0126.1503-.0177.2838-.0177.3916V29.7h1.9292v-7.2113h-1.2125Zm-5.6606.9535c-.2904-.3335-.6357-.6014-1.0168-.789-.4222-.1942-.8753-.2908-1.332-.2838-.4767-.0111-.9504.0854-1.3929.2838-.385.1759-.7318.442-1.0167.7805-.2754.3401-.4848.7401-.6151 1.1749-.1417.4699-.2123.963-.2085 1.4588-.0087.5397.0724 1.0767.2389 1.5835.1439.4351.3642.8337.6483 1.1722.2663.3131.5884.5606.9455.7265.3583.1664.7429.2514 1.1311.2497.227-.0004.4537-.0175.6787-.0511.2366-.035.4692-.0979.6939-.1872.2382-.0947.4654-.2215.6761-.3775.2347-.1728.4462-.382.6279-.6215l-.5592-.772c-.0391-.0615-.0915-.1111-.1525-.1438-.0609-.0329-.1282-.0477-.1957-.0435-.1034-.0037-.2052.0301-.2898.0965l-.2542.2129c-.1033.0843-.215.1547-.333.21-.1707.0697-.3521.1015-.5338.0937-.1939.0057-.3859-.0432-.5583-.1425-.1725-.0993-.3197-.2455-.4279-.4251-.2643-.4765-.3896-1.0328-.3585-1.5922-.0036-.2986.0236-.5967.0814-.8883.0462-.2374.1325-.4627.2542-.6641.1093-.1763.256-.3197.427-.4172.1912-.1013.4011-.151.6126-.1447.1629-.0047.3252.0213.4804.0766.1161.0455.2285.1025.3355.1703l.2542.1703c.0773.05.165.0764.2542.0766.0821.0063.1637-.0188.2314-.071.062-.0551.1183-.1179.1677-.1873l.5059-.735Zm-10.7419-.5903c-.03-.1123-.0935-.2095-.1801-.2757-.0865-.0661-.1907-.097-.2952-.0875h-1.1948v9.4988h1.9319v-2.7672c.1854.1803.3957.3259.6228.4314.2698.1155.5576.1696.8464.159.3893.0057.7743-.0916 1.1234-.2838.3384-.1908.6358-.4609.8719-.7919.2522-.3575.4443-.7633.5668-1.1976.1387-.4852.2074-.9919.2034-1.5012.0054-.5252-.0544-1.0486-.1779-1.5553-.1023-.4148-.2683-.8066-.4906-1.158-.1921-.302-.4456-.5491-.7397-.7207-.2886-.1686-.6098-.2552-.9354-.2526-.3981-.0133-.793.0843-1.149.2838-.321.1936-.6119.4437-.8616.7406l-.1423-.5221Zm.2542 1.8277c.1451-.2029.3215-.3749.521-.508.2161-.1231.4566-.1827.6991-.1732.1444-.0026.2874.0333.4167.105.1336.0787.2446.1977.3204.3435.1019.1948.1724.408.2084.63.0557.3159.0811.6374.0763.9593.0046.3416-.027.6826-.094 1.0159-.0482.2411-.1343.4708-.2542.6784-.0979.1615-.232.2917-.389.3774-.1543.0806-.3228.1213-.4931.1192-.1828.001-.3641-.0376-.5338-.1136-.1813-.0825-.3431-.2107-.4728-.3746l-.005-3.0593Zm-3.3324 1.8021c.0725.003.1451-.0095.2135-.0369.0567-.0225.1045-.0668.1347-.1248.0375-.0743.0608-.1565.0686-.2413.0137-.1319.0197-.2646.0178-.3974.007-.4752-.0654-.9477-.2135-1.3933-.1316-.3893-.3351-.7432-.5973-1.0388-.2607-.287-.5736-.5077-.9177-.647-.8129-.3179-1.7016-.2958-2.5012.0624-.3784.1778-.7202.4406-1.004.772-.2774.3273-.4934.7133-.6355 1.1351-.1484.4379-.2235.9026-.2211 1.3708-.0118.5739.0744 1.1451.2542 1.683.1563.4534.3962.8653.7041 1.2089.2964.3231.6507.5727 1.0396.7322.4071.1665.8374.2502 1.2709.2469.2322-.0007.4639-.0178.694-.051.2481-.0354.4924-.0982.7295-.1873.2489-.0943.4868-.221.7092-.3776.2418-.1698.4595-.3793.6456-.6215l-.5617-.7719c-.0391-.0616-.0915-.1111-.1525-.1439-.0609-.0327-.1283-.0477-.1959-.0433-.1158.0003-.2299.0314-.3328.0907l-.3484.2015c-.1397.0802-.285.1476-.4346.2016-.1868.0643-.3815.095-.5769.0907-.3727.0129-.7359-.1321-1.0168-.4057-.299-.3574-.473-.8227-.4906-1.3113l3.7188-.0028Zm-3.6985-1.2516c.0402-.3766.1831-.7303.4093-1.0132.1146-.12.2499-.2129.3976-.2728.1475-.0601.3046-.0859.4615-.0762.1827-.0066.3644.0331.5313.1164.1366.0717.2567.1774.3507.3093.0893.1292.155.2768.1933.4342.0386.1639.0582.3328.0584.5023h-2.4021Zm-7.9407-2.7414V29.7h2.796c.3159.001.6307-.0399.938-.1221.2892-.073.5652-.2006.8159-.3774.2356-.1688.433-.396.577-.6641.1511-.3002.2257-.6406.2161-.9847.0036-.2082-.0311-.4148-.1017-.6075-.0668-.1766-.1645-.3368-.2872-.471-.1281-.1381-.2748-.2531-.4346-.3405-.1746-.0943-.3579-.1667-.5466-.2158.2082-.0558.4061-.1518.5847-.2838.1403-.1103.2609-.2489.3558-.4086.0861-.1447.1489-.3052.1855-.474.0349-.1579.0528-.3198.0535-.4824.0012-.2452-.0494-.4873-.1475-.7067-.1034-.2287-.2573-.424-.4473-.5676-.2324-.173-.4907-.2979-.7627-.3689-.3544-.0947-.7183-.1395-1.0827-.1335l-2.7122-.0027Zm2.646 1.3508c.1312-.0034.262.0187.3864.0653.0942.0371.1806.095.2543.1703.0599.0654.1043.1463.1296.2354.025.0853.0379.1743.038.264.004.1145-.014.2286-.0525.3349-.0386.1061-.0969.2018-.1711.281-.0774.0813-.1685.1445-.268.1858-.0996.0414-.2054.0603-.3116.0554h-.8159v-1.5921h.8108Zm-.8159 4.4414v-1.5694h.9481c.1365-.0037.2728.0154.4042.0568.0913.0305.1737.0873.239.1646.0563.0685.095.1529.1118.2441.0193.0931.0286.1883.0279.2838.0047.11-.0116.2197-.048.3221-.0364.1022-.092.1946-.1629.2711-.1581.1529-.3632.2313-.572.2184l-.9481.0085Zm-4.3211-5.7922c-.0723.0002-.1438.0156-.211.0453-.0669.0307-.1301.0708-.188.1192-.0586.0483-.1115.1047-.1577.1675-.0482.0624-.0916.1248-.1296.1844-.361.6103-.6864 1.1607-.9762 1.6461l-.3659.613-.3178.5392c-.0915.159-.1703.2838-.2313.3917l-.1017.1674c-.1242.1988-.2307.4108-.3177.6329.0228-.1475.0382-.2838.0508-.4371.0127-.1532.0179-.2838.0179-.3917v-3.6694H52.503v7.2113h1.182c.073-.0002.1455-.0156.2135-.0454.0658-.0314.1281-.0713.1855-.1191.0587-.0491.1125-.1053.1601-.1676.0458-.0624.089-.1248.1271-.1844.361-.6102.6863-1.1608.9786-1.6461l.3636-.613.3176-.5391.2289-.3917c.0609-.1021.0965-.159.1041-.1674.1253-.1982.2317-.4103.3178-.6329-.0204.1475-.0381.2838-.0508.4342-.0128.1503-.0179.2838-.0179.3916V29.7h1.9294v-7.2113h-1.182Zm-8.0959 0v2.6223h-1.9928v-2.6223h-1.9317V29.7h1.9317v-3.0452h1.9928V29.7h1.9293v-7.2113h-1.9293Zm-6.0471 0c-.1115.0002-.2203.0378-.3126.1077-.0888.0657-.1578.1596-.1983.2697l-.9582 3.0934c-.0508.1447-.0992.2838-.1449.437l-.1373.4456c-.0616-.2956-.1422-.5858-.2415-.8684l-1.0599-3.1076c-.0375-.1031-.0979-.1939-.1754-.2639-.1001-.0811-.2222-.1212-.3457-.1135h-1.7082l2.5801 6.5785-1.2455 2.9203h1.4437c.139.0115.2778-.0231.3991-.0994.094-.0836.1666-.1931.211-.3179l3.4493-9.0815h-1.5557ZM123.194 9.9749c.06.1032.137.1927.226.2639.099.0766.216.1155.336.1107.133.0032.264-.0248.386-.0823.107-.0567.219-.1192.333-.1873.124-.0783.253-.14472.387-.19865.181-.05998.369-.08776.559-.08229.122-.00825.245.0128.36.06174.113.04896.217.12467.303.2221.177.2612.261.5872.235.9138v.3037c-.621.0018-1.237.0866-1.839.2525-.41.1112-.8.2972-1.156.5506-.255.1819-.463.4341-.605.7322-.112.2445-.171.5145-.173.789-.005.2909.041.5801.135.8514.084.2391.218.4522.391.6215.178.1743.387.304.613.3803.26.0883.531.1313.803.1277.201.0018.403-.0181.6-.0595.175-.037.346-.097.508-.1788.162-.0804.317-.1753.466-.2838.149-.1164.304-.2526.467-.403l.134.3944c.042.1424.124.2654.235.3491.13.0625.272.0906.415.0822h.884v-4.4896c.002-.3869-.055-.7712-.173-1.13525-.112-.33703-.284-.6444-.509-.90248-.224-.25782-.496-.45909-.795-.59031-.337-.14661-.696-.2189-1.058-.21285-.519-.00312-1.034.09285-1.525.2838-.477.18829-.918.47733-1.299.8514l.356.66409Zm3.127 3.5957c-.162.1944-.354.355-.567.474-.206.1014-.429.1508-.654.1448-.186.0149-.371-.0379-.528-.1504-.065-.0636-.116-.1436-.147-.2336-.031-.0899-.043-.1871-.034-.283 0-.1226.029-.2432.084-.349.075-.1249.18-.2234.303-.2838.187-.0986.386-.1691.589-.21.315-.0619.635-.0989.954-.1108v1.0018Zm-6.258-5.27864c-.136.00141-.271.03225-.397.09082-.147.07771-.264.21022-.333.37461l-1.095 2.46911c-.087.169-.164.3444-.229.525-.071.1873-.137.3775-.201.5676-.061-.1958-.13-.386-.198-.5676-.068-.1801-.145-.3555-.232-.525l-1.09-2.46911c-.07-.16238-.187-.29343-.333-.37176-.124-.06108-.258-.09296-.394-.09367h-1.629V15.509h1.743v-3.4056c0-.1816 0-.3831-.028-.6045-.027-.2213-.045-.437-.078-.6385l1.588 3.434c.05.1111.128.2038.224.2667.096.0629.206.0935.318.088h.206c.111.0052.221-.0256.317-.0884.096-.0629.174-.1554.224-.2663l1.586-3.4284c-.034.2085-.059.4188-.074.6301-.017.2242-.025.4228-.025.5988v3.4056h1.744V8.29196h-1.614Zm-11.609.36895c-.029-.11226-.092-.2098-.178-.27605-.086-.06623-.19-.09706-.295-.08722h-1.194v9.49886h1.929v-2.7671c.186.1797.396.3253.623.4314.27.115.557.1689.846.159.39.0057.776-.0916 1.126-.2838.338-.1908.636-.4609.872-.7919.25-.359.442-.7645.567-1.1976.138-.4854.205-.9922.201-1.5013.006-.5252-.054-1.0488-.178-1.5553-.101-.41502-.266-.80701-.488-1.15788-.194-.30166-.448-.54852-.743-.72086-.287-.16846-.608-.25521-.932-.25258-.399-.01346-.794.08409-1.149.2838-.322.19208-.614.44238-.862.74072l-.145-.52219Zm.254 1.82769c.146-.2029.324-.375.524-.50801.215-.12302.455-.18262.696-.17312.146-.00289.289.03312.42.10501.133.07858.244.19762.32.34342.101.1953.171.4083.208.63.054.3162.079.6376.074.9593.006.3416-.026.6829-.094 1.016-.047.2415-.133.4713-.254.6782-.099.1605-.233.2902-.389.3775-.154.0804-.323.1212-.493.1192-.184.0006-.365-.037-.536-.1106-.181-.0847-.343-.2136-.473-.3776l-.003-3.0593Zm-7.193 3.0083c-.209-.4992-.318-1.0438-.318-1.595 0-.5512.109-1.0957.318-1.5949.113-.1754.265-.31521.441-.40616.176-.09094.37-.12994.563-.11324.191-.01756.384.02115.557.11227.174.0911.324.23143.434.40713.208.4997.315 1.044.315 1.5949s-.107 1.0952-.315 1.595c-.109.1749-.256.3153-.428.4074-.172.092-.363.1325-.553.1176-.194.0163-.388-.0234-.564-.1154-.176-.0919-.327-.233-.44-.4096h-.01Zm-.336-5.05168c-.391.16131-.746.41273-1.045.73788-.2979.3289-.5294.72578-.6781 1.1636-.1654.4924-.2465 1.0152-.239 1.541-.0075.5296.0736 1.056.239 1.5525.1478.4415.3793.8422.6781 1.1749.298.3269.654.5803 1.045.7436.432.1799.89.2684 1.35.2611.457.0073.912-.0813 1.34-.2611.388-.1636.742-.4169 1.037-.7436.295-.3347.523-.7349.671-1.1749.166-.4962.248-1.0227.241-1.5525.007-.526-.075-1.0487-.241-1.541-.148-.43627-.377-.83277-.671-1.1636-.295-.32501-.649-.57649-1.037-.73788-.429-.17757-.883-.26513-1.34-.25826-.46-.00683-.918.0807-1.35.25826Zm-6.0824-3.0679h-1.8048v2.83802c-.4804.03093-.9538.14486-1.4031.33773-.4079.17448-.7836.43135-1.1082.75774-.3103.318-.5579.70459-.7269 1.13519-.1769.4615-.2636.9598-.2542 1.4616-.0094.5055.0773 1.0074.2542 1.4729.1695.4304.417.8169.7269 1.1353.3242.3284.6999.5872 1.1082.7634.4488.1952.9223.3102 1.4031.3406v2.2703h1.8048v-2.2703c.4799-.0308.9526-.1456 1.4005-.3406.4089-.1752.7847-.434 1.1083-.7634.3114-.3175.5599-.7042.7296-1.1353.1768-.4655.2634-.9674.254-1.4729.0095-.5018-.0772-1.0001-.254-1.4616-.1692-.4313-.4178-.81809-.7296-1.13519-.3238-.3276-.6997-.58462-1.1083-.75774-.4484-.19289-.9208-.30682-1.4005-.33773V5.37732Zm-1.7538 8.68438c-.2319-.0277-.4579-.0988-.6686-.21-.2016-.1055-.381-.257-.5268-.4447-.1457-.1877-.2547-.4076-.3196-.6452-.156-.561-.156-1.1616 0-1.7226.0649-.2377.1739-.4574.3196-.6452.1458-.1877.3252-.3392.5268-.44463.2107-.11136.4367-.18235.6686-.21002v4.32235Zm1.6826-4.32235c.2318.02767.4577.09866.6685.21002.1929.10693.3655.25433.5084.43423.1492.1909.2617.4141.3304.6556.1559.561.1559 1.1616 0 1.7226-.0687.2415-.1812.4646-.3304.6556-.1429.18-.3155.3273-.5084.4343-.2108.1112-.4367.1823-.6685.21V9.73935Zm-5.5565-1.44171h-6.2174v1.54388h2.1479v5.67598h1.9318V9.84152h2.1479l-.0102-1.54388ZM77.606 9.9749c.0588.1031.1348.1927.2238.2639.0982.0762.2158.1151.3355.1107.1326.0035.2643-.0246.3864-.0823.1092-.0567.2211-.1192.3328-.1873.1254-.076.2564-.13961.3916-.19013.1813-.06017.3701-.08795.5592-.0823.1223-.00826.2447.0128.3592.06174.1144.04896.2182.12467.3042.22209.1764.2618.2598.5874.2338.9138v.2952c-.6194.0016-1.2364.0864-1.8377.2525-.4107.1118-.8022.2978-1.1592.5506-.2531.1831-.4603.4351-.6023.7322-.1125.2442-.1725.5144-.1754.789-.0045.2911.0422.5803.1372.8514.0843.2383.2175.4512.3889.6215.1785.1743.3882.304.6152.3803.2602.0885.5311.1316.8032.1277.2013.0018.4022-.0181.5999-.0595.1752-.037.3457-.097.5083-.1788.1612-.0798.316-.1747.4627-.2838.15-.1164.305-.2526.4676-.403l.1373.3944c.0396.1429.1223.2663.2339.3491.1306.0625.2723.0906.4143.0822h.8846v-4.4896c.0035-.3872-.056-.7718-.1754-1.13525-.1113-.33711-.2845-.64451-.5083-.90248-.2255-.25782-.4977-.45905-.7982-.59031-.3359-.1468-.6942-.21911-1.0549-.21285-.5192-.00312-1.035.09285-1.5251.2838-.4781.18757-.9192.47669-1.2989.8514l.3558.66409Zm3.1368 3.5957c-.1627.1938-.3546.3543-.5669.474-.2057.1007-.4287.1501-.6533.1448-.187.0149-.3732-.0378-.5312-.1504-.0648-.0638-.1151-.144-.1464-.2339-.0314-.0898-.0431-.1868-.0341-.2827-.0006-.1226.0284-.2432.0839-.349.0758-.1237.1804-.2218.3025-.2838.1884-.0986.3874-.1691.5922-.21.315-.0619.6335-.0989.9533-.1108v1.0018Zm-4.639-5.27864h-4.6973c-.0407.87789-.0958 1.62808-.1652 2.25054-.0529.5286-.1318 1.0534-.2365 1.5723-.0672.348-.1659.6875-.2948 1.0131-.0844.2099-.2005.4018-.3432.5676-.1022.1205-.2311.2085-.3736.2554-.1274.0398-.2592.0597-.3915.0597h-.4066v1.2942c0 .0936.0584.1645.1754.2184.1969.065.4024.0919.6074.0795.2267.0012.4531-.0206.6762-.0652.2282-.0493.4464-.1456.643-.2839.2244-.156.4216-.3559.5822-.5902.2084-.3118.3746-.656.4931-1.0217.1689-.5067.2974-1.0291.3838-1.561.1246-.7334.2095-1.4745.2542-2.21931h1.1692v5.61931h1.9318l-.0076-7.18874Zm-7.6714-2.91464h-7.6433V15.509h2.1174V7.1227h3.406v8.3863h2.1199V5.37732Z"/>
  </g>
  <defs>
    <clipPath id="a">
      <path fill="#fff" d="M0 0h178.543v79.9072H0z" transform="translate(-.00195312)"/>
    </clipPath>
  </defs>
  </symbol>
</svg>