<svg width="3834" height="1791" fill="none" xmlns="http://www.w3.org/2000/svg"><path d="M2590 67.415V1362.9l36.26 26.1h202.19l18.68-13.45h46.16l13.18 10.29h82.42l25.27-18.99H3557l25.27 18.99h217.58l32.96-24.53V967.5l-32.96-67v-123l32.96-26.5V292l-148.88-116.5v-123l-31.72-21.47h-517.18L3114.16 16h-415.37l-20.88 15.03h-37.36L2590 67.414zM1 81.474V1749.14L37.414 1790h203.034l18.759-21.05h46.345l13.241 16.1h82.759l25.379-29.72h545.103l25.38 29.72H1215.9l33.1-38.38V70.331l-40.83-45.808H548.31L527.345 1H110.241L89.276 24.523H51.759L1 81.474zm1297 0V1749.14l36.27 40.86h202.22l18.68-21.05h46.16l13.19 16.1h82.43l25.27-29.72h542.92l25.28 29.72h217.61l32.97-38.38V70.331l-40.66-45.808h-657.22L1822.24 1H1406.8l-20.88 23.523h-37.36L1298 81.474z" fill="#112054" fill-opacity=".68" stroke="#217AFF" stroke-opacity=".4"/></svg>