<svg xmlns="http://www.w3.org/2000/svg" width="2529" height="389" fill="none"><path d="M1145.8 194.7v3.3h-15.48v-2.61l8.34-7.92c.94-.9 1.57-1.68 1.89-2.34.34-.68.51-1.35.51-2.01 0-.98-.33-1.73-.99-2.25-.66-.52-1.63-.78-2.91-.78-2.14 0-3.78.73-4.92 2.19l-2.73-2.1c.82-1.1 1.92-1.95 3.3-2.55 1.4-.62 2.96-.93 4.68-.93 2.28 0 4.1.54 5.46 1.62 1.36 1.08 2.04 2.55 2.04 4.41 0 1.14-.24 2.21-.72 3.21s-1.4 2.14-2.76 3.42l-5.61 5.34h9.9z" fill="#fff"/><path fill="#FFDD85" d="M1169 219h-64v32h64z"/><path fill="#B2CEF6" d="M0 250h2529v2H0z"/><path d="M66.29 329.342c-2.178 0-3.876-.456-5.092-1.368-1.19-.912-2.026-2.141-2.508-3.686-.456-1.545-.684-3.268-.684-5.168v-10.868c0-2.077.228-3.889.684-5.434.482-1.545 1.318-2.736 2.508-3.572 1.216-.861 2.914-1.292 5.092-1.292 1.926 0 3.446.355 4.56 1.064 1.14.709 1.951 1.723 2.433 3.04.506 1.317.76 2.901.76 4.75v2.432h-4.067v-2.166c0-1.14-.063-2.141-.19-3.002-.1-.887-.405-1.571-.911-2.052-.507-.481-1.356-.722-2.547-.722-1.216 0-2.102.266-2.66.798-.557.507-.924 1.241-1.102 2.204-.152.937-.228 2.039-.228 3.306v12.198c0 1.545.127 2.774.38 3.686.254.887.672 1.52 1.254 1.9.583.38 1.368.57 2.356.57 1.166 0 2.002-.253 2.508-.76.507-.532.824-1.254.95-2.166.127-.912.19-1.976.19-3.192v-2.28h4.066v2.28c0 1.875-.228 3.534-.684 4.978-.456 1.419-1.24 2.533-2.356 3.344-1.114.785-2.685 1.178-4.711 1.178zM78.817 329l.228-21.964h3.002l4.864 13.49 4.902-13.49h3.002L95.043 329h-3.42v-13.11l-4.066 10.944h-1.254l-4.066-10.868V329h-3.42zm27.409.304c-1.621 0-2.9-.329-3.838-.988-.937-.659-1.608-1.596-2.014-2.812-.38-1.216-.57-2.647-.57-4.294v-6.384c0-1.647.19-3.078.57-4.294.406-1.216 1.077-2.153 2.014-2.812.938-.659 2.217-.988 3.838-.988 1.622 0 2.888.329 3.8.988.938.659 1.596 1.596 1.976 2.812.406 1.216.608 2.647.608 4.294v6.384c0 1.647-.202 3.078-.608 4.294-.38 1.216-1.038 2.153-1.976 2.812-.912.659-2.178.988-3.8.988zm0-3.002c.786 0 1.33-.228 1.634-.684.33-.456.52-1.051.57-1.786.076-.76.114-1.545.114-2.356v-6.878c0-.836-.038-1.621-.114-2.356-.05-.735-.24-1.33-.57-1.786-.304-.481-.848-.722-1.634-.722-.785 0-1.342.241-1.672.722-.329.456-.532 1.051-.608 1.786a34.77 34.77 0 00-.076 2.356v6.878c0 .811.026 1.596.076 2.356.076.735.279 1.33.608 1.786.33.456.887.684 1.672.684zm9.39 2.888v-3.078c.76 0 1.355-.152 1.786-.456.456-.304.798-.811 1.026-1.52.253-.735.443-1.71.57-2.926.126-1.241.24-2.787.342-4.636l.494-9.538h11.514V329h-4.066v-18.886h-3.876l-.342 6.46c-.127 2.508-.317 4.585-.57 6.232-.228 1.647-.596 2.939-1.102 3.876-.507.912-1.191 1.558-2.052 1.938-.836.38-1.926.57-3.268.57h-.456zm27.069.114c-1.723 0-3.053-.329-3.99-.988-.937-.684-1.596-1.672-1.976-2.964-.355-1.317-.532-2.926-.532-4.826v-5.016c0-1.951.19-3.572.57-4.864.38-1.292 1.039-2.267 1.976-2.926.963-.659 2.28-.988 3.952-.988 1.849 0 3.205.38 4.066 1.14.887.76 1.469 1.862 1.748 3.306.279 1.419.418 3.129.418 5.13v1.786h-8.664v4.408c0 .887.076 1.609.228 2.166.177.557.443.975.798 1.254.38.253.861.38 1.444.38.608 0 1.064-.139 1.368-.418.329-.304.545-.722.646-1.254.127-.557.19-1.203.19-1.938v-1.33h3.952v.836c0 2.204-.469 3.939-1.406 5.206-.937 1.267-2.533 1.9-4.788 1.9zm-2.432-13.414h4.674v-1.976c0-.912-.051-1.672-.152-2.28-.101-.633-.317-1.102-.646-1.406-.304-.329-.798-.494-1.482-.494-.659 0-1.165.152-1.52.456-.329.304-.557.823-.684 1.558-.127.709-.19 1.697-.19 2.964v1.178zM153.739 329v-21.964h4.066v9.234h5.206v-9.234h4.066V329h-4.066v-9.766h-5.206V329h-4.066zm24.586.304c-1.799 0-3.167-.355-4.104-1.064-.912-.735-1.533-1.761-1.862-3.078-.304-1.317-.456-2.85-.456-4.598v-5.054c0-1.849.164-3.42.494-4.712.329-1.317.95-2.318 1.862-3.002.937-.709 2.292-1.064 4.066-1.064 1.596 0 2.824.266 3.686.798.886.507 1.494 1.279 1.824 2.318.329 1.013.494 2.28.494 3.8v1.292h-3.686v-1.33c0-.963-.064-1.723-.19-2.28-.127-.557-.355-.963-.684-1.216-.33-.253-.798-.38-1.406-.38-.659 0-1.166.152-1.52.456-.355.304-.596.823-.722 1.558-.102.709-.152 1.685-.152 2.926v6.916c0 1.875.177 3.129.532 3.762.354.633.988.95 1.9.95.684 0 1.178-.152 1.482-.456.329-.329.532-.785.608-1.368.101-.583.152-1.241.152-1.976v-1.786h3.686v1.52c0 1.469-.178 2.736-.532 3.8-.33 1.064-.938 1.875-1.824 2.432-.862.557-2.078.836-3.648.836zm10.759-.304v-21.964h4.066v9.272h1.14l4.142-9.272h4.18l-4.598 10.64L202.688 329h-4.256l-4.142-10.26h-1.14V329h-4.066zm16.911 0v-21.964h3.42v14.782l6.612-14.782h3.192V329h-3.344v-14.896L209.301 329h-3.306zm18.507 0v-21.964h3.42v14.782l6.612-14.782h3.192V329h-3.344v-14.896L227.808 329h-3.306zm6.726-24.358c-1.824 0-3.116-.494-3.876-1.482-.734-.988-1.102-2.217-1.102-3.686h2.356c.026.912.228 1.621.608 2.128.406.481 1.077.722 2.014.722.963 0 1.634-.253 2.014-.76.406-.507.608-1.203.608-2.09h2.394c0 1.469-.38 2.698-1.14 3.686-.734.988-2.026 1.482-3.876 1.482zM94.429 385.22v-8.436h-.38c-.836 0-1.697-.101-2.584-.304a6.816 6.816 0 01-2.47-1.216c-.76-.583-1.38-1.431-1.862-2.546-.456-1.115-.684-2.559-.684-4.332v-3.952c0-1.419.19-2.635.57-3.648.406-1.013.95-1.837 1.634-2.47a6.66 6.66 0 012.394-1.444 9.072 9.072 0 012.888-.456h.494v-9.196h3.762v9.196h.646c1.343 0 2.572.279 3.686.836 1.115.532 2.002 1.393 2.66 2.584.684 1.165 1.026 2.698 1.026 4.598v3.952c0 1.773-.228 3.217-.684 4.332-.456 1.115-1.064 1.963-1.824 2.546a6.458 6.458 0 01-2.432 1.216 11.07 11.07 0 01-2.546.304h-.532v8.436H94.43zm-.266-11.324h.266v-14.82h-.38c-.785 0-1.469.127-2.052.38-.582.253-1.038.722-1.368 1.406-.329.684-.494 1.672-.494 2.964v4.522c0 1.469.152 2.609.456 3.42.304.785.76 1.343 1.368 1.672.608.304 1.343.456 2.204.456zm4.028 0h.228c.887 0 1.634-.152 2.242-.456.608-.329 1.064-.887 1.368-1.672.33-.811.494-1.951.494-3.42v-4.522c0-1.292-.164-2.28-.494-2.964-.329-.684-.798-1.153-1.406-1.406-.582-.253-1.279-.38-2.09-.38h-.342v14.82zM111.052 378v-21.964h3.42v14.782l6.612-14.782h3.192V378h-3.344v-14.896L114.358 378h-3.306zm17.101.19v-3.078c.76 0 1.356-.152 1.786-.456.456-.304.798-.811 1.026-1.52.254-.735.444-1.71.57-2.926.127-1.241.241-2.787.342-4.636l.494-9.538h11.514V378h-4.066v-18.886h-3.876l-.342 6.46c-.126 2.508-.316 4.585-.57 6.232-.228 1.647-.595 2.939-1.102 3.876-.506.912-1.19 1.558-2.052 1.938-.836.38-1.925.57-3.268.57h-.456zm20.99-.19v-21.964h3.42v14.782l6.612-14.782h3.192V378h-3.344v-14.896L152.449 378h-3.306zm22.459.304c-.861 0-1.621-.241-2.28-.722a5.42 5.42 0 01-1.558-1.9 5.602 5.602 0 01-.57-2.47c0-1.368.228-2.521.684-3.458a6.814 6.814 0 011.862-2.356 13.098 13.098 0 012.774-1.71 70.52 70.52 0 013.344-1.406v-1.558c0-.887-.051-1.621-.152-2.204-.101-.583-.317-1.013-.646-1.292-.304-.304-.773-.456-1.406-.456-.557 0-1.013.127-1.368.38-.329.253-.57.621-.722 1.102-.152.456-.228 1.001-.228 1.634v1.102l-4.028-.152c.051-2.432.608-4.218 1.672-5.358 1.064-1.165 2.711-1.748 4.94-1.748 2.179 0 3.724.595 4.636 1.786.912 1.191 1.368 2.913 1.368 5.168v10.032c0 .684.013 1.343.038 1.976.051.633.101 1.229.152 1.786.076.532.139 1.039.19 1.52h-3.724a77.737 77.737 0 00-.304-1.52 30.052 30.052 0 01-.228-1.71c-.253.861-.747 1.672-1.482 2.432-.709.735-1.697 1.102-2.964 1.102zm1.596-3.496c.405 0 .785-.114 1.14-.342.355-.228.671-.481.95-.76.279-.304.469-.545.57-.722v-6.232c-.633.355-1.229.709-1.786 1.064a10.02 10.02 0 00-1.482 1.14c-.405.38-.735.823-.988 1.33-.228.481-.342 1.039-.342 1.672 0 .887.165 1.583.494 2.09.329.507.811.76 1.444.76zm10.366 3.382v-3.078c.76 0 1.355-.152 1.786-.456.456-.304.798-.811 1.026-1.52.253-.735.443-1.71.57-2.926.126-1.241.24-2.787.342-4.636l.494-9.538h11.514V378h-4.066v-18.886h-3.876l-.342 6.46c-.127 2.508-.317 4.585-.57 6.232-.228 1.647-.596 2.939-1.102 3.876-.507.912-1.191 1.558-2.052 1.938-.836.38-1.926.57-3.268.57h-.456zM118.867 193v21h-3.9v-17.73h-4.44V193h8.34zm63 0v21h-3.9v-17.73h-4.44V193h8.34z" fill="#fff"/><path fill="#FB9B2B" d="M148 235H84v16h64z"/><path fill="#FFDD85" d="M212 235h-64v16h64z"/><path fill="#fff" d="M137.266 251.344l10.56-10.56 10.559 10.56-10.56 10.56zM403.752 329v-27.588h-5.206v-3.192H413.1v3.192h-5.054V329h-4.294zm12.771 5.51v-3.116c.988 0 1.773-.051 2.356-.152.583-.076 1.001-.241 1.254-.494.253-.228.38-.557.38-.988 0-.228-.089-.735-.266-1.52-.177-.785-.367-1.621-.57-2.508l-4.408-18.696h4.104l2.964 16.416 2.85-16.416h4.104l-5.244 23.18c-.228 1.064-.646 1.9-1.254 2.508-.608.633-1.393 1.089-2.356 1.368-.937.279-2.077.418-3.42.418h-.494zm14.103-5.32v-3.078c.76 0 1.356-.152 1.786-.456.456-.304.798-.811 1.026-1.52.254-.735.444-1.71.57-2.926.127-1.241.241-2.787.342-4.636l.494-9.538h11.514V329h-4.066v-18.886h-3.876l-.342 6.46c-.126 2.508-.316 4.585-.57 6.232-.228 1.647-.595 2.939-1.102 3.876-.506.912-1.19 1.558-2.052 1.938-.836.38-1.925.57-3.268.57h-.456zm20.99-.19v-21.964h4.066v9.082h.646c1.494.025 2.761.139 3.8.342 1.064.177 1.925.507 2.584.988.658.456 1.14 1.102 1.444 1.938.304.811.456 1.862.456 3.154 0 1.191-.152 2.204-.456 3.04a4.272 4.272 0 01-1.482 1.976c-.684.507-1.584.874-2.698 1.102-1.115.228-2.47.342-4.066.342h-4.294zm4.066-2.394h.228c1.292 0 2.305-.114 3.04-.342.734-.228 1.254-.633 1.558-1.216.304-.608.456-1.457.456-2.546 0-.988-.14-1.761-.418-2.318-.254-.583-.735-1.001-1.444-1.254-.684-.279-1.685-.418-3.002-.418h-.418v8.094zm18.849 2.698c-1.798 0-3.166-.355-4.104-1.064-.912-.735-1.532-1.761-1.862-3.078-.304-1.317-.456-2.85-.456-4.598v-5.054c0-1.849.165-3.42.494-4.712.33-1.317.95-2.318 1.862-3.002.938-.709 2.293-1.064 4.066-1.064 1.596 0 2.825.266 3.686.798.887.507 1.495 1.279 1.824 2.318.33 1.013.494 2.28.494 3.8v1.292h-3.686v-1.33c0-.963-.063-1.723-.19-2.28-.126-.557-.354-.963-.684-1.216-.329-.253-.798-.38-1.406-.38-.658 0-1.165.152-1.52.456-.354.304-.595.823-.722 1.558-.101.709-.152 1.685-.152 2.926v6.916c0 1.875.178 3.129.532 3.762.355.633.988.95 1.9.95.684 0 1.178-.152 1.482-.456.33-.329.532-.785.608-1.368.102-.583.152-1.241.152-1.976v-1.786h3.686v1.52c0 1.469-.177 2.736-.532 3.8-.329 1.064-.937 1.875-1.824 2.432-.861.557-2.077.836-3.648.836zM485.29 329v-21.964h4.066v9.272h1.14l4.142-9.272h4.18l-4.598 10.64L498.894 329h-4.256l-4.142-10.26h-1.14V329h-4.066zm16.912 0v-21.964h3.42v14.782l6.612-14.782h3.192V329h-3.344v-14.896L505.508 329h-3.306zm18.507 0v-21.964h3.42v14.782l6.612-14.782h3.192V329h-3.344v-14.896L524.015 329h-3.306zm6.726-24.358c-1.824 0-3.116-.494-3.876-1.482-.735-.988-1.102-2.217-1.102-3.686h2.356c.025.912.228 1.621.608 2.128.405.481 1.077.722 2.014.722.963 0 1.634-.253 2.014-.76.405-.507.608-1.203.608-2.09h2.394c0 1.469-.38 2.698-1.14 3.686-.735.988-2.027 1.482-3.876 1.482zM418.341 385.22v-8.436h-.38c-.836 0-1.697-.101-2.584-.304a6.814 6.814 0 01-2.47-1.216c-.76-.583-1.381-1.431-1.862-2.546-.456-1.115-.684-2.559-.684-4.332v-3.952c0-1.419.19-2.635.57-3.648.405-1.013.95-1.837 1.634-2.47a6.655 6.655 0 012.394-1.444 9.074 9.074 0 012.888-.456h.494v-9.196h3.762v9.196h.646c1.343 0 2.571.279 3.686.836 1.115.532 2.001 1.393 2.66 2.584.684 1.165 1.026 2.698 1.026 4.598v3.952c0 1.773-.228 3.217-.684 4.332-.456 1.115-1.064 1.963-1.824 2.546a6.465 6.465 0 01-2.432 1.216 11.07 11.07 0 01-2.546.304h-.532v8.436h-3.762zm-.266-11.324h.266v-14.82h-.38c-.785 0-1.469.127-2.052.38s-1.039.722-1.368 1.406c-.329.684-.494 1.672-.494 2.964v4.522c0 1.469.152 2.609.456 3.42.304.785.76 1.343 1.368 1.672.608.304 1.343.456 2.204.456zm4.028 0h.228c.887 0 1.634-.152 2.242-.456.608-.329 1.064-.887 1.368-1.672.329-.811.494-1.951.494-3.42v-4.522c0-1.292-.165-2.28-.494-2.964-.329-.684-.798-1.153-1.406-1.406-.583-.253-1.279-.38-2.09-.38h-.342v14.82zM434.964 378v-21.964h3.42v14.782l6.612-14.782h3.192V378h-3.344v-14.896L438.27 378h-3.306zm17.101.19v-3.078c.76 0 1.356-.152 1.786-.456.456-.304.798-.811 1.026-1.52.254-.735.444-1.71.57-2.926.127-1.241.241-2.787.342-4.636l.494-9.538h11.514V378h-4.066v-18.886h-3.876l-.342 6.46c-.126 2.508-.316 4.585-.57 6.232-.228 1.647-.595 2.939-1.102 3.876-.506.912-1.19 1.558-2.052 1.938-.836.38-1.925.57-3.268.57h-.456zm20.99-.19v-21.964h3.42v14.782l6.612-14.782h3.192V378h-3.344v-14.896L476.361 378h-3.306zm22.459.304c-.862 0-1.622-.241-2.28-.722a5.42 5.42 0 01-1.558-1.9 5.602 5.602 0 01-.57-2.47c0-1.368.228-2.521.684-3.458a6.802 6.802 0 011.862-2.356 13.072 13.072 0 012.774-1.71 70.083 70.083 0 013.344-1.406v-1.558c0-.887-.051-1.621-.152-2.204-.102-.583-.317-1.013-.646-1.292-.304-.304-.773-.456-1.406-.456-.558 0-1.014.127-1.368.38-.33.253-.57.621-.722 1.102-.152.456-.228 1.001-.228 1.634v1.102l-4.028-.152c.05-2.432.608-4.218 1.672-5.358 1.064-1.165 2.71-1.748 4.94-1.748 2.178 0 3.724.595 4.636 1.786.912 1.191 1.368 2.913 1.368 5.168v10.032c0 .684.012 1.343.038 1.976.05.633.101 1.229.152 1.786.076.532.139 1.039.19 1.52h-3.724a86.008 86.008 0 00-.304-1.52 28.345 28.345 0 01-.228-1.71c-.254.861-.748 1.672-1.482 2.432-.71.735-1.698 1.102-2.964 1.102zm1.596-3.496c.405 0 .785-.114 1.14-.342.354-.228.671-.481.95-.76.278-.304.468-.545.57-.722v-6.232c-.634.355-1.229.709-1.786 1.064a9.917 9.917 0 00-1.482 1.14c-.406.38-.735.823-.988 1.33-.228.481-.342 1.039-.342 1.672 0 .887.164 1.583.494 2.09.329.507.81.76 1.444.76zm10.365 3.382v-3.078c.76 0 1.356-.152 1.786-.456.456-.304.798-.811 1.026-1.52.254-.735.444-1.71.57-2.926.127-1.241.241-2.787.342-4.636l.494-9.538h11.514V378h-4.066v-18.886h-3.876l-.342 6.46c-.126 2.508-.316 4.585-.57 6.232-.228 1.647-.595 2.939-1.102 3.876-.506.912-1.19 1.558-2.052 1.938-.836.38-1.925.57-3.268.57h-.456zM493.137 0v21h-3.9V3.27h-4.44V0h8.34zm13.105 8.67c1.94.24 3.42.9 4.44 1.98 1.02 1.08 1.53 2.43 1.53 4.05 0 1.22-.31 2.33-.93 3.33-.62 1-1.56 1.8-2.82 2.4-1.24.58-2.76.87-4.56.87-1.5 0-2.95-.21-4.35-.63-1.38-.44-2.56-1.04-3.54-1.8l1.68-3.03c.76.64 1.68 1.15 2.76 1.53 1.1.36 2.23.54 3.39.54 1.38 0 2.46-.28 3.24-.84.8-.58 1.2-1.36 1.2-2.34 0-.98-.38-1.74-1.14-2.28-.74-.56-1.88-.84-3.42-.84h-1.92V8.94l4.77-5.67h-9.54V0h14.31v2.61l-5.1 6.06zM442.8 193.7v3.3h-15.48v-2.61l8.34-7.92c.94-.9 1.57-1.68 1.89-2.34.34-.68.51-1.35.51-2.01 0-.98-.33-1.73-.99-2.25-.66-.52-1.63-.78-2.91-.78-2.14 0-3.78.73-4.92 2.19l-2.73-2.1c.82-1.1 1.92-1.95 3.3-2.55 1.4-.62 2.96-.93 4.68-.93 2.28 0 4.1.54 5.46 1.62 1.36 1.08 2.04 2.55 2.04 4.41 0 1.14-.24 2.21-.72 3.21s-1.4 2.14-2.76 3.42l-5.61 5.34h9.9z"/><path fill="#FB9B2B" d="M467 218h-64v32h64z"/><path fill="#FFDD85" d="M531 42h-64v208h64z"/><path fill="#fff" d="M456.266 251.344l10.56-10.56 10.559 10.56-10.56 10.56zM693.279 329v-30.78h16.948V329h-4.294v-27.702h-8.36V329h-4.294zm20.872 0l4.142-9.31a4.2 4.2 0 01-1.748-1.254c-.431-.557-.747-1.241-.95-2.052-.203-.811-.304-1.723-.304-2.736 0-1.165.152-2.166.456-3.002a4.597 4.597 0 011.444-2.052c.659-.532 1.533-.925 2.622-1.178 1.089-.253 2.432-.38 4.028-.38h4.256V329h-4.028v-8.664h-1.026a67.123 67.123 0 00-.912-.076l-3.61 8.74h-4.37zm9.462-11.02h.456v-8.626h-.418c-1.191 0-2.141.152-2.85.456-.684.279-1.165.735-1.444 1.368-.279.608-.418 1.431-.418 2.47 0 1.444.317 2.521.95 3.23.659.709 1.9 1.077 3.724 1.102zM735.835 329v-18.924h-4.104v-3.04h12.312v3.04h-4.142V329h-4.066zm11.807 0v-21.964h3.42v14.782l6.612-14.782h3.192V329h-3.344v-14.896L750.948 329h-3.306zm18.507 0v-21.964h8.854v2.926h-4.788V329h-4.066zm18.13.304c-1.622 0-2.901-.329-3.838-.988-.938-.659-1.609-1.596-2.014-2.812-.38-1.216-.57-2.647-.57-4.294v-6.384c0-1.647.19-3.078.57-4.294.405-1.216 1.076-2.153 2.014-2.812.937-.659 2.216-.988 3.838-.988 1.621 0 2.888.329 3.8.988.937.659 1.596 1.596 1.976 2.812.405 1.216.608 2.647.608 4.294v6.384c0 1.647-.203 3.078-.608 4.294-.38 1.216-1.039 2.153-1.976 2.812-.912.659-2.179.988-3.8.988zm0-3.002c.785 0 1.33-.228 1.634-.684.329-.456.519-1.051.57-1.786.076-.76.114-1.545.114-2.356v-6.878c0-.836-.038-1.621-.114-2.356-.051-.735-.241-1.33-.57-1.786-.304-.481-.849-.722-1.634-.722-.786 0-1.343.241-1.672.722-.33.456-.532 1.051-.608 1.786a34.13 34.13 0 00-.076 2.356v6.878c0 .811.025 1.596.076 2.356.076.735.278 1.33.608 1.786.329.456.886.684 1.672.684zm11.24 9.918v-29.184h4.066v1.748a6.996 6.996 0 011.748-1.444c.684-.405 1.495-.608 2.432-.608 1.14 0 2.039.304 2.698.912.684.583 1.191 1.33 1.52 2.242.329.887.545 1.799.646 2.736.101.912.152 1.697.152 2.356v5.32c0 1.545-.152 3.015-.456 4.408-.304 1.368-.861 2.483-1.672 3.344-.785.836-1.9 1.254-3.344 1.254-.785 0-1.482-.19-2.09-.57a9.506 9.506 0 01-1.634-1.368v8.854h-4.066zm6.992-10.108c.709 0 1.216-.253 1.52-.76.304-.532.494-1.241.57-2.128.076-.887.114-1.862.114-2.926v-5.32c0-.912-.051-1.748-.152-2.508-.101-.785-.317-1.406-.646-1.862-.329-.456-.849-.684-1.558-.684-.532 0-1.039.114-1.52.342a5.608 5.608 0 00-1.254.798v14.06c.38.279.811.519 1.292.722a4.71 4.71 0 001.634.266zm17.111 3.192c-1.799 0-3.167-.355-4.104-1.064-.912-.735-1.533-1.761-1.862-3.078-.304-1.317-.456-2.85-.456-4.598v-5.054c0-1.849.165-3.42.494-4.712.329-1.317.95-2.318 1.862-3.002.937-.709 2.293-1.064 4.066-1.064 1.596 0 2.825.266 3.686.798.887.507 1.495 1.279 1.824 2.318.329 1.013.494 2.28.494 3.8v1.292h-3.686v-1.33c0-.963-.063-1.723-.19-2.28-.127-.557-.355-.963-.684-1.216-.329-.253-.798-.38-1.406-.38-.659 0-1.165.152-1.52.456-.355.304-.595.823-.722 1.558-.101.709-.152 1.685-.152 2.926v6.916c0 1.875.177 3.129.532 3.762.355.633.988.95 1.9.95.684 0 1.178-.152 1.482-.456.329-.329.532-.785.608-1.368.101-.583.152-1.241.152-1.976v-1.786h3.686v1.52c0 1.469-.177 2.736-.532 3.8-.329 1.064-.937 1.875-1.824 2.432-.861.557-2.077.836-3.648.836zm10.759-.304v-21.964h4.066v9.272h1.14l4.142-9.272h4.18l-4.598 10.64L843.985 329h-4.256l-4.142-10.26h-1.14V329h-4.066zm16.912 0v-21.964h3.42v14.782l6.612-14.782h3.192V329h-3.344v-14.896L850.599 329h-3.306zm18.507 0v-21.964h3.42v14.782l6.612-14.782h3.192V329h-3.344v-14.896L869.106 329H865.8zm6.726-24.358c-1.824 0-3.116-.494-3.876-1.482-.735-.988-1.102-2.217-1.102-3.686h2.356c.025.912.228 1.621.608 2.128.405.481 1.077.722 2.014.722.963 0 1.634-.253 2.014-.76.405-.507.608-1.203.608-2.09h2.394c0 1.469-.38 2.698-1.14 3.686-.735.988-2.027 1.482-3.876 1.482zM737.341 385.22v-8.436h-.38c-.836 0-1.697-.101-2.584-.304a6.814 6.814 0 01-2.47-1.216c-.76-.583-1.381-1.431-1.862-2.546-.456-1.115-.684-2.559-.684-4.332v-3.952c0-1.419.19-2.635.57-3.648.405-1.013.95-1.837 1.634-2.47a6.655 6.655 0 012.394-1.444 9.074 9.074 0 012.888-.456h.494v-9.196h3.762v9.196h.646c1.343 0 2.571.279 3.686.836 1.115.532 2.001 1.393 2.66 2.584.684 1.165 1.026 2.698 1.026 4.598v3.952c0 1.773-.228 3.217-.684 4.332-.456 1.115-1.064 1.963-1.824 2.546a6.465 6.465 0 01-2.432 1.216 11.07 11.07 0 01-2.546.304h-.532v8.436h-3.762zm-.266-11.324h.266v-14.82h-.38c-.785 0-1.469.127-2.052.38s-1.039.722-1.368 1.406c-.329.684-.494 1.672-.494 2.964v4.522c0 1.469.152 2.609.456 3.42.304.785.76 1.343 1.368 1.672.608.304 1.343.456 2.204.456zm4.028 0h.228c.887 0 1.634-.152 2.242-.456.608-.329 1.064-.887 1.368-1.672.329-.811.494-1.951.494-3.42v-4.522c0-1.292-.165-2.28-.494-2.964-.329-.684-.798-1.153-1.406-1.406-.583-.253-1.279-.38-2.09-.38h-.342v14.82zM753.964 378v-21.964h3.42v14.782l6.612-14.782h3.192V378h-3.344v-14.896L757.27 378h-3.306zm17.101.19v-3.078c.76 0 1.356-.152 1.786-.456.456-.304.798-.811 1.026-1.52.254-.735.444-1.71.57-2.926.127-1.241.241-2.787.342-4.636l.494-9.538h11.514V378h-4.066v-18.886h-3.876l-.342 6.46c-.126 2.508-.316 4.585-.57 6.232-.228 1.647-.595 2.939-1.102 3.876-.506.912-1.19 1.558-2.052 1.938-.836.38-1.925.57-3.268.57h-.456zm20.99-.19v-21.964h3.42v14.782l6.612-14.782h3.192V378h-3.344v-14.896L795.361 378h-3.306zm22.459.304c-.862 0-1.622-.241-2.28-.722a5.42 5.42 0 01-1.558-1.9 5.602 5.602 0 01-.57-2.47c0-1.368.228-2.521.684-3.458a6.802 6.802 0 011.862-2.356 13.072 13.072 0 012.774-1.71 70.083 70.083 0 013.344-1.406v-1.558c0-.887-.051-1.621-.152-2.204-.102-.583-.317-1.013-.646-1.292-.304-.304-.773-.456-1.406-.456-.558 0-1.014.127-1.368.38-.33.253-.57.621-.722 1.102-.152.456-.228 1.001-.228 1.634v1.102l-4.028-.152c.05-2.432.608-4.218 1.672-5.358 1.064-1.165 2.71-1.748 4.94-1.748 2.178 0 3.724.595 4.636 1.786.912 1.191 1.368 2.913 1.368 5.168v10.032c0 .684.012 1.343.038 1.976.05.633.101 1.229.152 1.786.076.532.139 1.039.19 1.52h-3.724a86.008 86.008 0 00-.304-1.52 28.345 28.345 0 01-.228-1.71c-.254.861-.748 1.672-1.482 2.432-.71.735-1.698 1.102-2.964 1.102zm1.596-3.496c.405 0 .785-.114 1.14-.342.354-.228.671-.481.95-.76.278-.304.468-.545.57-.722v-6.232c-.634.355-1.229.709-1.786 1.064a9.917 9.917 0 00-1.482 1.14c-.406.38-.735.823-.988 1.33-.228.481-.342 1.039-.342 1.672 0 .887.164 1.583.494 2.09.329.507.81.76 1.444.76zm10.365 3.382v-3.078c.76 0 1.356-.152 1.786-.456.456-.304.798-.811 1.026-1.52.254-.735.444-1.71.57-2.926.127-1.241.241-2.787.342-4.636l.494-9.538h11.514V378h-4.066v-18.886h-3.876l-.342 6.46c-.126 2.508-.316 4.585-.57 6.232-.228 1.647-.595 2.939-1.102 3.876-.506.912-1.19 1.558-2.052 1.938-.836.38-1.925.57-3.268.57h-.456zM756.867 193v21h-3.9v-17.73h-4.44V193h8.34z"/><path fill="#FB9B2B" d="M786 235h-64v16h64z"/><path d="M817.987 226.3c-1.68 0-3.18-.42-4.5-1.26-1.32-.86-2.36-2.1-3.12-3.72-.76-1.64-1.14-3.58-1.14-5.82s.38-4.17 1.14-5.79c.76-1.64 1.8-2.88 3.12-3.72 1.32-.86 2.82-1.29 4.5-1.29 1.68 0 3.18.43 4.5 1.29 1.34.84 2.39 2.08 3.15 3.72.76 1.62 1.14 3.55 1.14 5.79s-.38 4.18-1.14 5.82c-.76 1.62-1.81 2.86-3.15 3.72-1.32.84-2.82 1.26-4.5 1.26zm0-3.39c1.5 0 2.68-.62 3.54-1.86.88-1.24 1.32-3.09 1.32-5.55s-.44-4.31-1.32-5.55c-.86-1.24-2.04-1.86-3.54-1.86-1.48 0-2.66.62-3.54 1.86-.86 1.24-1.29 3.09-1.29 5.55s.43 4.31 1.29 5.55c.88 1.24 2.06 1.86 3.54 1.86z" fill="#fff"/><path fill="#FFDD85" d="M850 247h-64v4h64z"/><path d="M1455.99 227.3c-1.68 0-3.18-.42-4.5-1.26-1.32-.86-2.36-2.1-3.12-3.72-.76-1.64-1.14-3.58-1.14-5.82s.38-4.17 1.14-5.79c.76-1.64 1.8-2.88 3.12-3.72 1.32-.86 2.82-1.29 4.5-1.29 1.68 0 3.18.43 4.5 1.29 1.34.84 2.39 2.08 3.15 3.72.76 1.62 1.14 3.55 1.14 5.79s-.38 4.18-1.14 5.82c-.76 1.62-1.81 2.86-3.15 3.72-1.32.84-2.82 1.26-4.5 1.26zm0-3.39c1.5 0 2.68-.62 3.54-1.86.88-1.24 1.32-3.09 1.32-5.55s-.44-4.31-1.32-5.55c-.86-1.24-2.04-1.86-3.54-1.86-1.48 0-2.66.62-3.54 1.86-.86 1.24-1.29 3.09-1.29 5.55s.43 4.31 1.29 5.55c.88 1.24 2.06 1.86 3.54 1.86z" fill="#fff"/><path fill="#FFDD85" d="M1488 248h-64v4h64z"/><path d="M1774.99 225.3c-1.68 0-3.18-.42-4.5-1.26-1.32-.86-2.36-2.1-3.12-3.72-.76-1.64-1.14-3.58-1.14-5.82s.38-4.17 1.14-5.79c.76-1.64 1.8-2.88 3.12-3.72 1.32-.86 2.82-1.29 4.5-1.29 1.68 0 3.18.43 4.5 1.29 1.34.84 2.39 2.08 3.15 3.72.76 1.62 1.14 3.55 1.14 5.79s-.38 4.18-1.14 5.82c-.76 1.62-1.81 2.86-3.15 3.72-1.32.84-2.82 1.26-4.5 1.26zm0-3.39c1.5 0 2.68-.62 3.54-1.86.88-1.24 1.32-3.09 1.32-5.55s-.44-4.31-1.32-5.55c-.86-1.24-2.04-1.86-3.54-1.86-1.48 0-2.66.62-3.54 1.86-.86 1.24-1.29 3.09-1.29 5.55s.43 4.31 1.29 5.55c.88 1.24 2.06 1.86 3.54 1.86z" fill="#fff"/><path fill="#FFDD85" d="M1807 246h-64v4h64z"/><path d="M2093.99 226.3c-1.68 0-3.18-.42-4.5-1.26-1.32-.86-2.36-2.1-3.12-3.72-.76-1.64-1.14-3.58-1.14-5.82s.38-4.17 1.14-5.79c.76-1.64 1.8-2.88 3.12-3.72 1.32-.86 2.82-1.29 4.5-1.29 1.68 0 3.18.43 4.5 1.29 1.34.84 2.39 2.08 3.15 3.72.76 1.62 1.14 3.55 1.14 5.79s-.38 4.18-1.14 5.82c-.76 1.62-1.81 2.86-3.15 3.72-1.32.84-2.82 1.26-4.5 1.26zm0-3.39c1.5 0 2.68-.62 3.54-1.86.88-1.24 1.32-3.09 1.32-5.55s-.44-4.31-1.32-5.55c-.86-1.24-2.04-1.86-3.54-1.86-1.48 0-2.66.62-3.54 1.86-.86 1.24-1.29 3.09-1.29 5.55s.43 4.31 1.29 5.55c.88 1.24 2.06 1.86 3.54 1.86z" fill="#fff"/><path fill="#FFDD85" d="M2126 247h-64v4h64z"/><path d="M2412.99 226.3c-1.68 0-3.18-.42-4.5-1.26-1.32-.86-2.36-2.1-3.12-3.72-.76-1.64-1.14-3.58-1.14-5.82s.38-4.17 1.14-5.79c.76-1.64 1.8-2.88 3.12-3.72 1.32-.86 2.82-1.29 4.5-1.29 1.68 0 3.18.43 4.5 1.29 1.34.84 2.39 2.08 3.15 3.72.76 1.62 1.14 3.55 1.14 5.79s-.38 4.18-1.14 5.82c-.76 1.62-1.81 2.86-3.15 3.72-1.32.84-2.82 1.26-4.5 1.26zm0-3.39c1.5 0 2.68-.62 3.54-1.86.88-1.24 1.32-3.09 1.32-5.55s-.44-4.31-1.32-5.55c-.86-1.24-2.04-1.86-3.54-1.86-1.48 0-2.66.62-3.54 1.86-.86 1.24-1.29 3.09-1.29 5.55s.43 4.31 1.29 5.55c.88 1.24 2.06 1.86 3.54 1.86z" fill="#fff"/><path fill="#FFDD85" d="M2445 247h-64v4h64z"/><path fill="#fff" d="M775.266 251.344l10.56-10.56 10.559 10.56-10.56 10.56zM1019.72 329v-30.78h11.93v3.192h-7.64v10.184h6.2v3.04h-6.2v11.286h7.72V329h-12.01zm16.27 7.22v-29.184h4.07v1.748a6.883 6.883 0 011.75-1.444c.68-.405 1.49-.608 2.43-.608 1.14 0 2.04.304 2.7.912.68.583 1.19 1.33 1.52 2.242.33.887.54 1.799.64 2.736.1.912.15 1.697.15 2.356v5.32a20.9 20.9 0 01-.45 4.408c-.31 1.368-.86 2.483-1.67 3.344-.79.836-1.9 1.254-3.35 1.254-.78 0-1.48-.19-2.09-.57a9.364 9.364 0 01-1.63-1.368v8.854h-4.07zm6.99-10.108c.71 0 1.22-.253 1.52-.76.31-.532.5-1.241.57-2.128.08-.887.12-1.862.12-2.926v-5.32c0-.912-.05-1.748-.15-2.508-.11-.785-.32-1.406-.65-1.862-.33-.456-.85-.684-1.56-.684-.53 0-1.04.114-1.52.342-.48.228-.9.494-1.25.798v14.06c.38.279.81.519 1.29.722.48.177 1.03.266 1.63.266zm17.19 3.192c-1.72 0-3.05-.329-3.99-.988-.94-.684-1.6-1.672-1.98-2.964-.35-1.317-.53-2.926-.53-4.826v-5.016c0-1.951.19-3.572.57-4.864.38-1.292 1.04-2.267 1.98-2.926.96-.659 2.28-.988 3.95-.988 1.85 0 3.21.38 4.07 1.14.88.76 1.47 1.862 1.74 3.306.28 1.419.42 3.129.42 5.13v1.786h-8.66v4.408c0 .887.07 1.609.23 2.166.17.557.44.975.79 1.254.38.253.87.38 1.45.38.61 0 1.06-.139 1.37-.418.33-.304.54-.722.64-1.254.13-.557.19-1.203.19-1.938v-1.33h3.95v.836c0 2.204-.46 3.939-1.4 5.206-.94 1.267-2.53 1.9-4.79 1.9zm-2.43-13.414h4.67v-1.976c0-.912-.05-1.672-.15-2.28-.1-.633-.32-1.102-.65-1.406-.3-.329-.79-.494-1.48-.494-.66 0-1.16.152-1.52.456-.33.304-.55.823-.68 1.558-.13.709-.19 1.697-.19 2.964v1.178zm13.49 13.11v-21.964h6.15c1.5 0 2.66.253 3.5.76.86.481 1.47 1.127 1.82 1.938.38.785.58 1.634.61 2.546.02 1.089-.15 2.065-.53 2.926-.38.861-1.17 1.469-2.36 1.824.91.177 1.61.557 2.09 1.14.51.557.85 1.229 1.03 2.014.2.785.3 1.596.3 2.432 0 1.267-.19 2.381-.57 3.344-.35.963-.99 1.71-1.9 2.242-.89.532-2.15.798-3.8.798h-6.34zm3.99-3.078h1.44c.58 0 1.11-.076 1.6-.228.48-.177.86-.519 1.14-1.026.3-.507.45-1.241.45-2.204 0-1.14-.14-1.963-.42-2.47-.25-.532-.6-.861-1.06-.988-.43-.127-.94-.19-1.52-.19h-1.63v7.106zm0-10.032h1.97c.79 0 1.41-.228 1.86-.684.46-.456.69-1.267.69-2.432 0-1.039-.27-1.761-.8-2.166s-1.25-.608-2.17-.608h-1.55v5.89zm16.87 13.414c-.86 0-1.62-.241-2.28-.722a5.415 5.415 0 01-1.56-1.9 5.602 5.602 0 01-.57-2.47c0-1.368.23-2.521.68-3.458a6.823 6.823 0 011.87-2.356c.81-.659 1.73-1.229 2.77-1.71 1.06-.481 2.18-.95 3.34-1.406v-1.558c0-.887-.05-1.621-.15-2.204-.1-.583-.31-1.013-.64-1.292-.31-.304-.78-.456-1.41-.456-.56 0-1.01.127-1.37.38-.33.253-.57.621-.72 1.102-.15.456-.23 1.001-.23 1.634v1.102l-4.03-.152c.06-2.432.61-4.218 1.68-5.358 1.06-1.165 2.71-1.748 4.94-1.748 2.18 0 3.72.595 4.63 1.786.91 1.191 1.37 2.913 1.37 5.168v10.032c0 .684.01 1.343.04 1.976.05.633.1 1.229.15 1.786.08.532.14 1.039.19 1.52h-3.72c-.08-.405-.18-.912-.31-1.52a43.3 43.3 0 01-.23-1.71c-.25.861-.74 1.672-1.48 2.432-.71.735-1.69 1.102-2.96 1.102zm1.59-3.496c.41 0 .79-.114 1.14-.342.36-.228.68-.481.95-.76.28-.304.47-.545.57-.722v-6.232c-.63.355-1.22.709-1.78 1.064-.56.355-1.05.735-1.48 1.14-.41.38-.74.823-.99 1.33-.23.481-.34 1.039-.34 1.672 0 .887.16 1.583.49 2.09.33.507.81.76 1.44.76zm11.78 3.192v-21.964h4.06v9.234h5.21v-9.234h4.06V329h-4.06v-9.766h-5.21V329h-4.06zm24.58.304c-1.8 0-3.16-.355-4.1-1.064-.91-.735-1.53-1.761-1.86-3.078-.31-1.317-.46-2.85-.46-4.598v-5.054c0-1.849.16-3.42.49-4.712.33-1.317.95-2.318 1.87-3.002.93-.709 2.29-1.064 4.06-1.064 1.6 0 2.83.266 3.69.798.88.507 1.49 1.279 1.82 2.318.33 1.013.5 2.28.5 3.8v1.292h-3.69v-1.33c0-.963-.06-1.723-.19-2.28-.13-.557-.35-.963-.68-1.216-.33-.253-.8-.38-1.41-.38-.66 0-1.17.152-1.52.456-.35.304-.6.823-.72 1.558-.1.709-.15 1.685-.15 2.926v6.916c0 1.875.17 3.129.53 3.762.35.633.99.95 1.9.95.68 0 1.18-.152 1.48-.456.33-.329.53-.785.61-1.368.1-.583.15-1.241.15-1.976v-1.786h3.69v1.52c0 1.469-.18 2.736-.54 3.8-.33 1.064-.93 1.875-1.82 2.432-.86.557-2.08.836-3.65.836zm10.76-.304v-21.964h4.07v9.272h1.14l4.14-9.272h4.18l-4.6 10.64L1154.4 329h-4.25l-4.14-10.26h-1.14V329h-4.07zm16.91 0v-21.964h3.42v14.782l6.61-14.782h3.2V329h-3.35v-14.896L1161.02 329h-3.31zm18.51 0v-21.964h3.42v14.782l6.61-14.782h3.19V329h-3.34v-14.896L1179.53 329h-3.31zm6.73-24.358c-1.83 0-3.12-.494-3.88-1.482-.74-.988-1.1-2.217-1.1-3.686h2.35c.03.912.23 1.621.61 2.128.41.481 1.08.722 2.02.722.96 0 1.63-.253 2.01-.76.4-.507.61-1.203.61-2.09h2.39c0 1.469-.38 2.698-1.14 3.686-.73.988-2.03 1.482-3.87 1.482zm-126.61 80.578v-8.436h-.38c-.83 0-1.7-.101-2.58-.304a6.79 6.79 0 01-2.47-1.216c-.76-.583-1.38-1.431-1.86-2.546-.46-1.115-.69-2.559-.69-4.332v-3.952c0-1.419.19-2.635.57-3.648.41-1.013.95-1.837 1.64-2.47.7-.659 1.5-1.14 2.39-1.444a9.046 9.046 0 012.89-.456h.49v-9.196h3.76v9.196h.65c1.34 0 2.57.279 3.69.836 1.11.532 2 1.393 2.66 2.584.68 1.165 1.02 2.698 1.02 4.598v3.952c0 1.773-.23 3.217-.68 4.332-.46 1.115-1.07 1.963-1.83 2.546-.73.583-1.54.988-2.43 1.216-.86.203-1.71.304-2.54.304h-.54v8.436h-3.76zm-.26-11.324h.26v-14.82h-.38c-.78 0-1.47.127-2.05.38-.58.253-1.04.722-1.37 1.406-.33.684-.49 1.672-.49 2.964v4.522c0 1.469.15 2.609.45 3.42.31.785.76 1.343 1.37 1.672.61.304 1.34.456 2.21.456zm4.02 0h.23c.89 0 1.64-.152 2.24-.456.61-.329 1.07-.887 1.37-1.672.33-.811.5-1.951.5-3.42v-4.522c0-1.292-.17-2.28-.5-2.964-.33-.684-.8-1.153-1.4-1.406-.59-.253-1.28-.38-2.09-.38h-.35v14.82zm12.86 4.104v-21.964h3.42v14.782l6.62-14.782h3.19V378h-3.35v-14.896L1076.27 378h-3.31zm17.11.19v-3.078c.76 0 1.35-.152 1.78-.456.46-.304.8-.811 1.03-1.52.25-.735.44-1.71.57-2.926.12-1.241.24-2.787.34-4.636l.49-9.538h11.52V378h-4.07v-18.886h-3.87l-.35 6.46c-.12 2.508-.31 4.585-.57 6.232-.22 1.647-.59 2.939-1.1 3.876-.51.912-1.19 1.558-2.05 1.938-.84.38-1.93.57-3.27.57h-.45zm20.98-.19v-21.964h3.42v14.782l6.62-14.782h3.19V378h-3.35v-14.896L1114.36 378h-3.31zm22.46.304c-.86 0-1.62-.241-2.28-.722a5.498 5.498 0 01-1.55-1.9 5.602 5.602 0 01-.57-2.47c0-1.368.22-2.521.68-3.458a6.915 6.915 0 011.86-2.356c.81-.659 1.74-1.229 2.78-1.71 1.06-.481 2.17-.95 3.34-1.406v-1.558c0-.887-.05-1.621-.15-2.204-.1-.583-.32-1.013-.65-1.292-.3-.304-.77-.456-1.4-.456-.56 0-1.02.127-1.37.38-.33.253-.57.621-.72 1.102-.16.456-.23 1.001-.23 1.634v1.102l-4.03-.152c.05-2.432.61-4.218 1.67-5.358 1.07-1.165 2.71-1.748 4.94-1.748 2.18 0 3.73.595 4.64 1.786.91 1.191 1.37 2.913 1.37 5.168v10.032c0 .684.01 1.343.03 1.976.05.633.11 1.229.16 1.786.07.532.14 1.039.19 1.52h-3.73c-.07-.405-.18-.912-.3-1.52a30.2 30.2 0 01-.23-1.71c-.25.861-.75 1.672-1.48 2.432-.71.735-1.7 1.102-2.97 1.102zm1.6-3.496c.41 0 .79-.114 1.14-.342.35-.228.67-.481.95-.76.28-.304.47-.545.57-.722v-6.232c-.63.355-1.23.709-1.79 1.064-.55.355-1.05.735-1.48 1.14-.4.38-.73.823-.99 1.33a3.985 3.985 0 00-.34 1.672c0 .887.17 1.583.5 2.09.33.507.81.76 1.44.76zm10.37 3.382v-3.078c.76 0 1.35-.152 1.78-.456.46-.304.8-.811 1.03-1.52.25-.735.44-1.71.57-2.926.12-1.241.24-2.787.34-4.636l.49-9.538h11.52V378h-4.07v-18.886h-3.87l-.35 6.46c-.12 2.508-.31 4.585-.57 6.232-.22 1.647-.59 2.939-1.1 3.876-.51.912-1.19 1.558-2.05 1.938-.84.38-1.93.57-3.27.57h-.45zm-72.49-151.89c-1.68 0-3.18-.42-4.5-1.26-1.32-.86-2.36-2.1-3.12-3.72-.76-1.64-1.14-3.58-1.14-5.82s.38-4.17 1.14-5.79c.76-1.64 1.8-2.88 3.12-3.72 1.32-.86 2.82-1.29 4.5-1.29 1.68 0 3.18.43 4.5 1.29 1.34.84 2.39 2.08 3.15 3.72.76 1.62 1.14 3.55 1.14 5.79s-.38 4.18-1.14 5.82c-.76 1.62-1.81 2.86-3.15 3.72-1.32.84-2.82 1.26-4.5 1.26zm0-3.39c1.5 0 2.68-.62 3.54-1.86.88-1.24 1.32-3.09 1.32-5.55s-.44-4.31-1.32-5.55c-.86-1.24-2.04-1.86-3.54-1.86-1.48 0-2.66.62-3.54 1.86-.86 1.24-1.29 3.09-1.29 5.55s.43 4.31 1.29 5.55c.88 1.24 2.06 1.86 3.54 1.86z"/><path fill="#FB9B2B" d="M1105 247h-64v4h64z"/><path fill="#fff" d="M1094.27 251.344l10.56-10.56 10.559 10.56-10.56 10.56zM1359.89 329l.57-30.78h4.21l5.44 24.966 5.47-24.966h4.18l.57 30.78h-3.46l-.34-22.344-5.21 22.344h-2.43l-5.17-22.344-.34 22.344h-3.49zm25.96 0v-21.964h3.42v14.782l6.61-14.782h3.19V329h-3.34v-14.896L1389.15 329h-3.3zm18.5 0v-21.964h4.07v9.234h5.21v-9.234h4.06V329h-4.06v-9.766h-5.21V329h-4.07zm24.59.304c-1.8 0-3.17-.355-4.11-1.064-.91-.735-1.53-1.761-1.86-3.078-.3-1.317-.45-2.85-.45-4.598v-5.054c0-1.849.16-3.42.49-4.712.33-1.317.95-2.318 1.86-3.002.94-.709 2.3-1.064 4.07-1.064 1.59 0 2.82.266 3.68.798.89.507 1.5 1.279 1.83 2.318.33 1.013.49 2.28.49 3.8v1.292h-3.68v-1.33c0-.963-.07-1.723-.19-2.28-.13-.557-.36-.963-.69-1.216-.33-.253-.8-.38-1.4-.38-.66 0-1.17.152-1.52.456-.36.304-.6.823-.73 1.558-.1.709-.15 1.685-.15 2.926v6.916c0 1.875.18 3.129.53 3.762.36.633.99.95 1.9.95.69 0 1.18-.152 1.49-.456.33-.329.53-.785.6-1.368.11-.583.16-1.241.16-1.976v-1.786h3.68v1.52c0 1.469-.17 2.736-.53 3.8-.33 1.064-.94 1.875-1.82 2.432-.86.557-2.08.836-3.65.836zm10.76-.304v-21.964h4.06v9.272h1.14l4.15-9.272h4.18l-4.6 10.64L1453.3 329h-4.25l-4.15-10.26h-1.14V329h-4.06zm16.91 0v-21.964h3.42v14.782l6.61-14.782h3.19V329h-3.34v-14.896L1459.92 329h-3.31zm18.51 0v-21.964h3.42v14.782l6.61-14.782h3.19V329H1485v-14.896L1478.42 329h-3.3zm6.72-24.358c-1.82 0-3.11-.494-3.87-1.482-.74-.988-1.11-2.217-1.11-3.686h2.36c.03.912.23 1.621.61 2.128.4.481 1.08.722 2.01.722.97 0 1.64-.253 2.02-.76.4-.507.6-1.203.6-2.09h2.4c0 1.469-.38 2.698-1.14 3.686-.74.988-2.03 1.482-3.88 1.482zm-106.5 80.578v-8.436h-.38c-.83 0-1.7-.101-2.58-.304a6.79 6.79 0 01-2.47-1.216c-.76-.583-1.38-1.431-1.86-2.546-.46-1.115-.69-2.559-.69-4.332v-3.952c0-1.419.19-2.635.57-3.648.41-1.013.95-1.837 1.64-2.47.7-.659 1.5-1.14 2.39-1.444a9.046 9.046 0 012.89-.456h.49v-9.196h3.76v9.196h.65c1.34 0 2.57.279 3.69.836 1.11.532 2 1.393 2.66 2.584.68 1.165 1.02 2.698 1.02 4.598v3.952c0 1.773-.23 3.217-.68 4.332-.46 1.115-1.07 1.963-1.83 2.546-.73.583-1.54.988-2.43 1.216-.86.203-1.71.304-2.54.304h-.54v8.436h-3.76zm-.26-11.324h.26v-14.82h-.38c-.78 0-1.47.127-2.05.38-.58.253-1.04.722-1.37 1.406-.33.684-.49 1.672-.49 2.964v4.522c0 1.469.15 2.609.45 3.42.31.785.76 1.343 1.37 1.672.61.304 1.34.456 2.21.456zm4.02 0h.23c.89 0 1.64-.152 2.24-.456.61-.329 1.07-.887 1.37-1.672.33-.811.5-1.951.5-3.42v-4.522c0-1.292-.17-2.28-.5-2.964-.33-.684-.8-1.153-1.4-1.406-.59-.253-1.28-.38-2.09-.38h-.35v14.82zm12.86 4.104v-21.964h3.42v14.782l6.62-14.782h3.19V378h-3.35v-14.896L1395.27 378h-3.31zm17.11.19v-3.078c.76 0 1.35-.152 1.78-.456.46-.304.8-.811 1.03-1.52.25-.735.44-1.71.57-2.926.12-1.241.24-2.787.34-4.636l.49-9.538h11.52V378h-4.07v-18.886h-3.87l-.35 6.46c-.12 2.508-.31 4.585-.57 6.232-.22 1.647-.59 2.939-1.1 3.876-.51.912-1.19 1.558-2.05 1.938-.84.38-1.93.57-3.27.57h-.45zm20.98-.19v-21.964h3.42v14.782l6.62-14.782h3.19V378h-3.35v-14.896L1433.36 378h-3.31zm22.46.304c-.86 0-1.62-.241-2.28-.722a5.498 5.498 0 01-1.55-1.9 5.602 5.602 0 01-.57-2.47c0-1.368.22-2.521.68-3.458a6.915 6.915 0 011.86-2.356c.81-.659 1.74-1.229 2.78-1.71 1.06-.481 2.17-.95 3.34-1.406v-1.558c0-.887-.05-1.621-.15-2.204-.1-.583-.32-1.013-.65-1.292-.3-.304-.77-.456-1.4-.456-.56 0-1.02.127-1.37.38-.33.253-.57.621-.72 1.102-.16.456-.23 1.001-.23 1.634v1.102l-4.03-.152c.05-2.432.61-4.218 1.67-5.358 1.07-1.165 2.71-1.748 4.94-1.748 2.18 0 3.73.595 4.64 1.786.91 1.191 1.37 2.913 1.37 5.168v10.032c0 .684.01 1.343.03 1.976.05.633.11 1.229.16 1.786.07.532.14 1.039.19 1.52h-3.73c-.07-.405-.18-.912-.3-1.52a30.2 30.2 0 01-.23-1.71c-.25.861-.75 1.672-1.48 2.432-.71.735-1.7 1.102-2.97 1.102zm1.6-3.496c.41 0 .79-.114 1.14-.342.35-.228.67-.481.95-.76.28-.304.47-.545.57-.722v-6.232c-.63.355-1.23.709-1.79 1.064-.55.355-1.05.735-1.48 1.14-.4.38-.73.823-.99 1.33a3.985 3.985 0 00-.34 1.672c0 .887.17 1.583.5 2.09.33.507.81.76 1.44.76zm10.37 3.382v-3.078c.76 0 1.35-.152 1.78-.456.46-.304.8-.811 1.03-1.52.25-.735.44-1.71.57-2.926.12-1.241.24-2.787.34-4.636l.49-9.538h11.52V378h-4.07v-18.886h-3.87l-.35 6.46c-.12 2.508-.31 4.585-.57 6.232-.22 1.647-.59 2.939-1.1 3.876-.51.912-1.19 1.558-2.05 1.938-.84.38-1.93.57-3.27.57h-.45zm-72.49-151.89c-1.68 0-3.18-.42-4.5-1.26-1.32-.86-2.36-2.1-3.12-3.72-.76-1.64-1.14-3.58-1.14-5.82s.38-4.17 1.14-5.79c.76-1.64 1.8-2.88 3.12-3.72 1.32-.86 2.82-1.29 4.5-1.29 1.68 0 3.18.43 4.5 1.29 1.34.84 2.39 2.08 3.15 3.72.76 1.62 1.14 3.55 1.14 5.79s-.38 4.18-1.14 5.82c-.76 1.62-1.81 2.86-3.15 3.72-1.32.84-2.82 1.26-4.5 1.26zm0-3.39c1.5 0 2.68-.62 3.54-1.86.88-1.24 1.32-3.09 1.32-5.55s-.44-4.31-1.32-5.55c-.86-1.24-2.04-1.86-3.54-1.86-1.48 0-2.66.62-3.54 1.86-.86 1.24-1.29 3.09-1.29 5.55s.43 4.31 1.29 5.55c.88 1.24 2.06 1.86 3.54 1.86z"/><path fill="#FB9B2B" d="M1424 247h-64v4h64z"/><path fill="#fff" d="M1413.27 251.344l10.56-10.56 10.559 10.56-10.56 10.56zM1650.46 329v-27.588h-5.21v-3.192h14.55v3.192h-5.05V329h-4.29zm17.06.304c-.86 0-1.62-.241-2.28-.722a5.415 5.415 0 01-1.56-1.9 5.602 5.602 0 01-.57-2.47c0-1.368.23-2.521.69-3.458a6.683 6.683 0 011.86-2.356c.81-.659 1.73-1.229 2.77-1.71a71.24 71.24 0 013.35-1.406v-1.558c0-.887-.05-1.621-.15-2.204-.11-.583-.32-1.013-.65-1.292-.3-.304-.77-.456-1.41-.456-.55 0-1.01.127-1.36.38-.33.253-.57.621-.73 1.102-.15.456-.22 1.001-.22 1.634v1.102l-4.03-.152c.05-2.432.61-4.218 1.67-5.358 1.06-1.165 2.71-1.748 4.94-1.748 2.18 0 3.72.595 4.64 1.786.91 1.191 1.36 2.913 1.36 5.168v10.032c0 .684.02 1.343.04 1.976.05.633.1 1.229.15 1.786.08.532.14 1.039.19 1.52h-3.72l-.3-1.52c-.11-.633-.18-1.203-.23-1.71-.26.861-.75 1.672-1.48 2.432-.71.735-1.7 1.102-2.97 1.102zm1.6-3.496c.4 0 .78-.114 1.14-.342.35-.228.67-.481.95-.76.28-.304.47-.545.57-.722v-6.232c-.64.355-1.23.709-1.79 1.064-.56.355-1.05.735-1.48 1.14-.41.38-.74.823-.99 1.33-.23.481-.34 1.039-.34 1.672 0 .887.16 1.583.49 2.09.33.507.81.76 1.45.76zm11.77 3.192v-21.964h3.91v19.076h3.88v-19.076h3.91v19.076h3.88v-19.076h3.91V329h-19.49zm24.89 0v-21.964h4.07v9.272h1.14l4.14-9.272h4.18l-4.6 10.64 4.67 11.324h-4.25l-4.14-10.26h-1.14V329h-4.07zm22.99.304c-1.72 0-3.05-.329-3.99-.988-.94-.684-1.6-1.672-1.98-2.964-.35-1.317-.53-2.926-.53-4.826v-5.016c0-1.951.19-3.572.57-4.864.38-1.292 1.04-2.267 1.98-2.926.96-.659 2.28-.988 3.95-.988 1.85 0 3.21.38 4.07 1.14.88.76 1.47 1.862 1.74 3.306.28 1.419.42 3.129.42 5.13v1.786h-8.66v4.408c0 .887.07 1.609.23 2.166.17.557.44.975.79 1.254.38.253.87.38 1.45.38.61 0 1.06-.139 1.37-.418.33-.304.54-.722.64-1.254.13-.557.19-1.203.19-1.938v-1.33h3.95v.836c0 2.204-.46 3.939-1.4 5.206-.94 1.267-2.53 1.9-4.79 1.9zm-2.43-13.414h4.67v-1.976c0-.912-.05-1.672-.15-2.28-.1-.633-.32-1.102-.65-1.406-.3-.329-.79-.494-1.48-.494-.66 0-1.16.152-1.52.456-.33.304-.55.823-.68 1.558-.13.709-.19 1.697-.19 2.964v1.178zm13.48 13.11v-21.964h4.07v9.234h5.21v-9.234h4.06V329h-4.06v-9.766h-5.21V329h-4.07zm21.06 0v-18.924h-4.11v-3.04h12.31v3.04h-4.14V329h-4.06zm17.81.304c-1.8 0-3.17-.355-4.11-1.064-.91-.735-1.53-1.761-1.86-3.078-.3-1.317-.46-2.85-.46-4.598v-5.054c0-1.849.17-3.42.5-4.712.33-1.317.95-2.318 1.86-3.002.94-.709 2.29-1.064 4.07-1.064 1.59 0 2.82.266 3.68.798.89.507 1.5 1.279 1.83 2.318.33 1.013.49 2.28.49 3.8v1.292H1781v-1.33c0-.963-.06-1.723-.19-2.28-.12-.557-.35-.963-.68-1.216-.33-.253-.8-.38-1.41-.38-.65 0-1.16.152-1.52.456-.35.304-.59.823-.72 1.558-.1.709-.15 1.685-.15 2.926v6.916c0 1.875.18 3.129.53 3.762.36.633.99.95 1.9.95.69 0 1.18-.152 1.48-.456.33-.329.54-.785.61-1.368.1-.583.15-1.241.15-1.976v-1.786h3.69v1.52c0 1.469-.18 2.736-.53 3.8-.33 1.064-.94 1.875-1.83 2.432-.86.557-2.07.836-3.64.836zm10.76-.304v-21.964h4.06v9.272h1.14l4.14-9.272h4.18l-4.59 10.64 4.67 11.324h-4.26l-4.14-10.26h-1.14V329h-4.06zm16.91 0v-21.964h3.42v14.782l6.61-14.782h3.19V329h-3.34v-14.896L1809.66 329h-3.3zm18.5 0v-21.964h3.42v14.782l6.62-14.782h3.19V329h-3.35v-14.896L1828.17 329h-3.31zm6.73-24.358c-1.82 0-3.12-.494-3.88-1.482-.73-.988-1.1-2.217-1.1-3.686h2.36c.02.912.23 1.621.61 2.128.4.481 1.07.722 2.01.722.96 0 1.63-.253 2.01-.76.41-.507.61-1.203.61-2.09h2.4c0 1.469-.38 2.698-1.14 3.686-.74.988-2.03 1.482-3.88 1.482zm-137.25 80.578v-8.436h-.38c-.83 0-1.7-.101-2.58-.304a6.79 6.79 0 01-2.47-1.216c-.76-.583-1.38-1.431-1.86-2.546-.46-1.115-.69-2.559-.69-4.332v-3.952c0-1.419.19-2.635.57-3.648.41-1.013.95-1.837 1.64-2.47.7-.659 1.5-1.14 2.39-1.444a9.046 9.046 0 012.89-.456h.49v-9.196h3.76v9.196h.65c1.34 0 2.57.279 3.69.836 1.11.532 2 1.393 2.66 2.584.68 1.165 1.02 2.698 1.02 4.598v3.952c0 1.773-.23 3.217-.68 4.332-.46 1.115-1.07 1.963-1.83 2.546-.73.583-1.54.988-2.43 1.216-.86.203-1.71.304-2.54.304h-.54v8.436h-3.76zm-.26-11.324h.26v-14.82h-.38c-.78 0-1.47.127-2.05.38-.58.253-1.04.722-1.37 1.406-.33.684-.49 1.672-.49 2.964v4.522c0 1.469.15 2.609.45 3.42.31.785.76 1.343 1.37 1.672.61.304 1.34.456 2.21.456zm4.02 0h.23c.89 0 1.64-.152 2.24-.456.61-.329 1.07-.887 1.37-1.672.33-.811.5-1.951.5-3.42v-4.522c0-1.292-.17-2.28-.5-2.964-.33-.684-.8-1.153-1.4-1.406-.59-.253-1.28-.38-2.09-.38h-.35v14.82zm12.86 4.104v-21.964h3.42v14.782l6.62-14.782h3.19V378h-3.35v-14.896L1714.27 378h-3.31zm17.11.19v-3.078c.76 0 1.35-.152 1.78-.456.46-.304.8-.811 1.03-1.52.25-.735.44-1.71.57-2.926.12-1.241.24-2.787.34-4.636l.49-9.538h11.52V378h-4.07v-18.886h-3.87l-.35 6.46c-.12 2.508-.31 4.585-.57 6.232-.22 1.647-.59 2.939-1.1 3.876-.51.912-1.19 1.558-2.05 1.938-.84.38-1.93.57-3.27.57h-.45zm20.98-.19v-21.964h3.42v14.782l6.62-14.782h3.19V378h-3.35v-14.896L1752.36 378h-3.31zm22.46.304c-.86 0-1.62-.241-2.28-.722a5.498 5.498 0 01-1.55-1.9 5.602 5.602 0 01-.57-2.47c0-1.368.22-2.521.68-3.458a6.915 6.915 0 011.86-2.356c.81-.659 1.74-1.229 2.78-1.71 1.06-.481 2.17-.95 3.34-1.406v-1.558c0-.887-.05-1.621-.15-2.204-.1-.583-.32-1.013-.65-1.292-.3-.304-.77-.456-1.4-.456-.56 0-1.02.127-1.37.38-.33.253-.57.621-.72 1.102-.16.456-.23 1.001-.23 1.634v1.102l-4.03-.152c.05-2.432.61-4.218 1.67-5.358 1.07-1.165 2.71-1.748 4.94-1.748 2.18 0 3.73.595 4.64 1.786.91 1.191 1.37 2.913 1.37 5.168v10.032c0 .684.01 1.343.03 1.976.05.633.11 1.229.16 1.786.07.532.14 1.039.19 1.52h-3.73c-.07-.405-.18-.912-.3-1.52a30.2 30.2 0 01-.23-1.71c-.25.861-.75 1.672-1.48 2.432-.71.735-1.7 1.102-2.97 1.102zm1.6-3.496c.41 0 .79-.114 1.14-.342.35-.228.67-.481.95-.76.28-.304.47-.545.57-.722v-6.232c-.63.355-1.23.709-1.79 1.064-.55.355-1.05.735-1.48 1.14-.4.38-.73.823-.99 1.33a3.985 3.985 0 00-.34 1.672c0 .887.17 1.583.5 2.09.33.507.81.76 1.44.76zm10.37 3.382v-3.078c.76 0 1.35-.152 1.78-.456.46-.304.8-.811 1.03-1.52.25-.735.44-1.71.57-2.926.12-1.241.24-2.787.34-4.636l.49-9.538h11.52V378h-4.07v-18.886h-3.87l-.35 6.46c-.12 2.508-.31 4.585-.57 6.232-.22 1.647-.59 2.939-1.1 3.876-.51.912-1.19 1.558-2.05 1.938-.84.38-1.93.57-3.27.57h-.45zm-72.49-151.89c-1.68 0-3.18-.42-4.5-1.26-1.32-.86-2.36-2.1-3.12-3.72-.76-1.64-1.14-3.58-1.14-5.82s.38-4.17 1.14-5.79c.76-1.64 1.8-2.88 3.12-3.72 1.32-.86 2.82-1.29 4.5-1.29 1.68 0 3.18.43 4.5 1.29 1.34.84 2.39 2.08 3.15 3.72.76 1.62 1.14 3.55 1.14 5.79s-.38 4.18-1.14 5.82c-.76 1.62-1.81 2.86-3.15 3.72-1.32.84-2.82 1.26-4.5 1.26zm0-3.39c1.5 0 2.68-.62 3.54-1.86.88-1.24 1.32-3.09 1.32-5.55s-.44-4.31-1.32-5.55c-.86-1.24-2.04-1.86-3.54-1.86-1.48 0-2.66.62-3.54 1.86-.86 1.24-1.29 3.09-1.29 5.55s.43 4.31 1.29 5.55c.88 1.24 2.06 1.86 3.54 1.86z"/><path fill="#FB9B2B" d="M1743 247h-64v4h64z"/><path fill="#fff" d="M1732.27 251.344l10.56-10.56 10.559 10.56-10.56 10.56zm209.49 82.33v-3.306c1.31.127 2.33.127 3.04 0 .73-.127 1.24-.393 1.52-.798.3-.38.45-.899.45-1.558 0-.684-.07-1.495-.23-2.432l-6.08-27.36h4.07l2.58 13.11 1.56 9.766 1.37-9.69 2.32-13.186h4.1l-5.51 27.436c-.25 1.241-.47 2.331-.64 3.268-.16.937-.38 1.735-.69 2.394a3.41 3.41 0 01-1.29 1.558c-.58.38-1.41.633-2.47.76-1.04.127-2.41.139-4.1.038zm16.95-4.484v-3.078c.76 0 1.35-.152 1.79-.456.45-.304.79-.811 1.02-1.52.25-.735.44-1.71.57-2.926.13-1.241.24-2.787.34-4.636l.5-9.538h11.51V329h-4.06v-18.886h-3.88l-.34 6.46c-.13 2.508-.32 4.585-.57 6.232-.23 1.647-.6 2.939-1.1 3.876-.51.912-1.2 1.558-2.06 1.938-.83.38-1.92.57-3.26.57h-.46zm24.94.114c-.86 0-1.62-.241-2.28-.722a5.415 5.415 0 01-1.56-1.9 5.602 5.602 0 01-.57-2.47c0-1.368.23-2.521.69-3.458a6.683 6.683 0 011.86-2.356c.81-.659 1.73-1.229 2.77-1.71a71.24 71.24 0 013.35-1.406v-1.558c0-.887-.05-1.621-.16-2.204-.1-.583-.31-1.013-.64-1.292-.31-.304-.77-.456-1.41-.456-.55 0-1.01.127-1.37.38-.32.253-.57.621-.72 1.102-.15.456-.23 1.001-.23 1.634v1.102l-4.02-.152c.05-2.432.6-4.218 1.67-5.358 1.06-1.165 2.71-1.748 4.94-1.748 2.18 0 3.72.595 4.63 1.786.92 1.191 1.37 2.913 1.37 5.168v10.032c0 .684.02 1.343.04 1.976.05.633.1 1.229.15 1.786.08.532.14 1.039.19 1.52h-3.72c-.08-.405-.18-.912-.31-1.52-.1-.633-.17-1.203-.22-1.71-.26.861-.75 1.672-1.49 2.432-.7.735-1.69 1.102-2.96 1.102zm1.6-3.496c.4 0 .78-.114 1.14-.342.35-.228.67-.481.95-.76.28-.304.47-.545.57-.722v-6.232c-.64.355-1.23.709-1.79 1.064-.56.355-1.05.735-1.48 1.14-.41.38-.74.823-.99 1.33-.23.481-.34 1.039-.34 1.672 0 .887.16 1.583.49 2.09.33.507.81.76 1.45.76zm11.77 3.192v-21.964h4.06v9.234h5.21v-9.234h4.07V329h-4.07v-9.766h-5.21V329h-4.06zm18.39-9.918v-3.078h8.47v3.078h-8.47zm13.88 9.918v-30.78h13.22v3.116h-8.93v9.69h.95c2.23 0 4.07.266 5.51.798 1.47.507 2.56 1.406 3.27 2.698.74 1.292 1.1 3.116 1.1 5.472 0 1.596-.19 2.964-.57 4.104-.38 1.115-.97 2.039-1.78 2.774-.79.735-1.79 1.279-3 1.634-1.19.329-2.63.494-4.3.494h-5.47zm4.29-3.078h1.22c1.27 0 2.31-.139 3.12-.418.83-.304 1.44-.887 1.82-1.748.41-.861.61-2.128.61-3.8 0-2.103-.41-3.597-1.22-4.484-.78-.887-2.26-1.33-4.44-1.33h-1.11v11.78zm19.24 3.382c-.86 0-1.62-.241-2.28-.722a5.415 5.415 0 01-1.56-1.9 5.602 5.602 0 01-.57-2.47c0-1.368.23-2.521.68-3.458a6.823 6.823 0 011.87-2.356c.81-.659 1.73-1.229 2.77-1.71 1.06-.481 2.18-.95 3.34-1.406v-1.558c0-.887-.05-1.621-.15-2.204-.1-.583-.31-1.013-.64-1.292-.31-.304-.78-.456-1.41-.456-.56 0-1.01.127-1.37.38-.33.253-.57.621-.72 1.102-.15.456-.23 1.001-.23 1.634v1.102l-4.03-.152c.05-2.432.61-4.218 1.68-5.358 1.06-1.165 2.71-1.748 4.94-1.748 2.17 0 3.72.595 4.63 1.786.91 1.191 1.37 2.913 1.37 5.168v10.032c0 .684.01 1.343.04 1.976.05.633.1 1.229.15 1.786.08.532.14 1.039.19 1.52h-3.72c-.08-.405-.18-.912-.31-1.52a30.2 30.2 0 01-.23-1.71c-.25.861-.74 1.672-1.48 2.432-.71.735-1.7 1.102-2.96 1.102zm1.59-3.496c.41 0 .79-.114 1.14-.342.36-.228.68-.481.95-.76.28-.304.47-.545.57-.722v-6.232c-.63.355-1.22.709-1.78 1.064-.56.355-1.05.735-1.48 1.14-.41.38-.74.823-.99 1.33-.23.481-.34 1.039-.34 1.672 0 .887.16 1.583.49 2.09.33.507.81.76 1.44.76zm14.25 3.192v-18.924h-4.11v-3.04h12.31v3.04h-4.14V329h-4.06zm17.62.304c-1.62 0-2.9-.329-3.84-.988-.93-.659-1.6-1.596-2.01-2.812-.38-1.216-.57-2.647-.57-4.294v-6.384c0-1.647.19-3.078.57-4.294.41-1.216 1.08-2.153 2.01-2.812.94-.659 2.22-.988 3.84-.988 1.62 0 2.89.329 3.8.988.94.659 1.6 1.596 1.98 2.812.4 1.216.61 2.647.61 4.294v6.384c0 1.647-.21 3.078-.61 4.294-.38 1.216-1.04 2.153-1.98 2.812-.91.659-2.18.988-3.8.988zm0-3.002c.79 0 1.33-.228 1.64-.684.33-.456.52-1.051.57-1.786.07-.76.11-1.545.11-2.356v-6.878c0-.836-.04-1.621-.11-2.356-.05-.735-.24-1.33-.57-1.786-.31-.481-.85-.722-1.64-.722-.78 0-1.34.241-1.67.722-.33.456-.53 1.051-.61 1.786-.05.735-.07 1.52-.07 2.356v6.878c0 .811.02 1.596.07 2.356.08.735.28 1.33.61 1.786.33.456.89.684 1.67.684zm11.24 9.918v-29.184h4.07v1.748a6.883 6.883 0 011.75-1.444c.68-.405 1.49-.608 2.43-.608 1.14 0 2.04.304 2.7.912.68.583 1.19 1.33 1.52 2.242.33.887.54 1.799.64 2.736.1.912.15 1.697.15 2.356v5.32a20.9 20.9 0 01-.45 4.408c-.31 1.368-.86 2.483-1.67 3.344-.79.836-1.9 1.254-3.35 1.254-.78 0-1.48-.19-2.09-.57a9.364 9.364 0 01-1.63-1.368v8.854h-4.07zm6.99-10.108c.71 0 1.22-.253 1.52-.76.31-.532.5-1.241.57-2.128.08-.887.12-1.862.12-2.926v-5.32c0-.912-.05-1.748-.15-2.508-.1-.785-.32-1.406-.65-1.862-.33-.456-.85-.684-1.56-.684-.53 0-1.04.114-1.52.342-.48.228-.9.494-1.25.798v14.06c.38.279.81.519 1.29.722.48.177 1.03.266 1.63.266zm17.12 3.192c-1.8 0-3.17-.355-4.11-1.064-.91-.735-1.53-1.761-1.86-3.078-.3-1.317-.46-2.85-.46-4.598v-5.054c0-1.849.17-3.42.5-4.712.33-1.317.95-2.318 1.86-3.002.94-.709 2.29-1.064 4.07-1.064 1.59 0 2.82.266 3.68.798.89.507 1.5 1.279 1.83 2.318.32 1.013.49 2.28.49 3.8v1.292h-3.69v-1.33c0-.963-.06-1.723-.19-2.28-.12-.557-.35-.963-.68-1.216-.33-.253-.8-.38-1.41-.38-.66 0-1.16.152-1.52.456-.35.304-.59.823-.72 1.558-.1.709-.15 1.685-.15 2.926v6.916c0 1.875.18 3.129.53 3.762.36.633.99.95 1.9.95.69 0 1.18-.152 1.48-.456.33-.329.54-.785.61-1.368.1-.583.15-1.241.15-1.976v-1.786h3.69v1.52c0 1.469-.18 2.736-.53 3.8-.33 1.064-.94 1.875-1.83 2.432-.86.557-2.07.836-3.64.836zm10.75-.304v-21.964h4.07v9.272h1.14l4.14-9.272h4.18l-4.6 10.64 4.68 11.324h-4.26l-4.14-10.26h-1.14V329h-4.07zm16.92 0v-21.964h3.42v14.782l6.61-14.782h3.19V329h-3.34v-14.896L2152.6 329h-3.3zm18.5 0v-21.964h3.42v14.782l6.62-14.782h3.19V329h-3.35v-14.896L2171.11 329h-3.31zm6.73-24.358c-1.82 0-3.12-.494-3.88-1.482-.73-.988-1.1-2.217-1.1-3.686h2.36c.02.912.23 1.621.61 2.128.4.481 1.07.722 2.01.722.96 0 1.63-.253 2.01-.76.41-.507.61-1.203.61-2.09h2.4c0 1.469-.38 2.698-1.14 3.686-.74.988-2.03 1.482-3.88 1.482zm-161.19 80.578v-8.436h-.38c-.83 0-1.7-.101-2.58-.304a6.79 6.79 0 01-2.47-1.216c-.76-.583-1.38-1.431-1.86-2.546-.46-1.115-.69-2.559-.69-4.332v-3.952c0-1.419.19-2.635.57-3.648.41-1.013.95-1.837 1.64-2.47.7-.659 1.5-1.14 2.39-1.444a9.046 9.046 0 012.89-.456h.49v-9.196h3.76v9.196h.65c1.34 0 2.57.279 3.69.836 1.11.532 2 1.393 2.66 2.584.68 1.165 1.02 2.698 1.02 4.598v3.952c0 1.773-.23 3.217-.68 4.332-.46 1.115-1.07 1.963-1.83 2.546-.73.583-1.54.988-2.43 1.216-.86.203-1.71.304-2.54.304h-.54v8.436h-3.76zm-.26-11.324h.26v-14.82h-.38c-.78 0-1.47.127-2.05.38-.58.253-1.04.722-1.37 1.406-.33.684-.49 1.672-.49 2.964v4.522c0 1.469.15 2.609.45 3.42.31.785.76 1.343 1.37 1.672.61.304 1.34.456 2.21.456zm4.02 0h.23c.89 0 1.64-.152 2.24-.456.61-.329 1.07-.887 1.37-1.672.33-.811.5-1.951.5-3.42v-4.522c0-1.292-.17-2.28-.5-2.964-.33-.684-.8-1.153-1.4-1.406-.59-.253-1.28-.38-2.09-.38h-.35v14.82zm12.86 4.104v-21.964h3.42v14.782l6.62-14.782h3.19V378h-3.35v-14.896L2033.27 378h-3.31zm17.11.19v-3.078c.76 0 1.35-.152 1.78-.456.46-.304.8-.811 1.03-1.52.25-.735.44-1.71.57-2.926.12-1.241.24-2.787.34-4.636l.49-9.538h11.52V378h-4.07v-18.886h-3.87l-.35 6.46c-.12 2.508-.31 4.585-.57 6.232-.22 1.647-.59 2.939-1.1 3.876-.51.912-1.19 1.558-2.05 1.938-.84.38-1.93.57-3.27.57h-.45zm20.98-.19v-21.964h3.42v14.782l6.62-14.782h3.19V378h-3.35v-14.896L2071.36 378h-3.31zm22.46.304c-.86 0-1.62-.241-2.28-.722a5.498 5.498 0 01-1.55-1.9 5.602 5.602 0 01-.57-2.47c0-1.368.22-2.521.68-3.458a6.915 6.915 0 011.86-2.356c.81-.659 1.74-1.229 2.78-1.71 1.06-.481 2.17-.95 3.34-1.406v-1.558c0-.887-.05-1.621-.15-2.204-.1-.583-.32-1.013-.65-1.292-.3-.304-.77-.456-1.4-.456-.56 0-1.02.127-1.37.38-.33.253-.57.621-.72 1.102-.16.456-.23 1.001-.23 1.634v1.102l-4.03-.152c.05-2.432.61-4.218 1.67-5.358 1.07-1.165 2.71-1.748 4.94-1.748 2.18 0 3.73.595 4.64 1.786.91 1.191 1.37 2.913 1.37 5.168v10.032c0 .684.01 1.343.03 1.976.05.633.11 1.229.16 1.786.07.532.14 1.039.19 1.52h-3.73c-.07-.405-.18-.912-.3-1.52a30.2 30.2 0 01-.23-1.71c-.25.861-.75 1.672-1.48 2.432-.71.735-1.7 1.102-2.97 1.102zm1.6-3.496c.41 0 .79-.114 1.14-.342.35-.228.67-.481.95-.76.28-.304.47-.545.57-.722v-6.232c-.63.355-1.23.709-1.79 1.064-.55.355-1.05.735-1.48 1.14-.4.38-.73.823-.99 1.33a3.985 3.985 0 00-.34 1.672c0 .887.17 1.583.5 2.09.33.507.81.76 1.44.76zm10.37 3.382v-3.078c.76 0 1.35-.152 1.78-.456.46-.304.8-.811 1.03-1.52.25-.735.44-1.71.57-2.926.12-1.241.24-2.787.34-4.636l.49-9.538h11.52V378h-4.07v-18.886h-3.87l-.35 6.46c-.12 2.508-.31 4.585-.57 6.232-.22 1.647-.59 2.939-1.1 3.876-.51.912-1.19 1.558-2.05 1.938-.84.38-1.93.57-3.27.57h-.45zm-72.49-151.89c-1.68 0-3.18-.42-4.5-1.26-1.32-.86-2.36-2.1-3.12-3.72-.76-1.64-1.14-3.58-1.14-5.82s.38-4.17 1.14-5.79c.76-1.64 1.8-2.88 3.12-3.72 1.32-.86 2.82-1.29 4.5-1.29 1.68 0 3.18.43 4.5 1.29 1.34.84 2.39 2.08 3.15 3.72.76 1.62 1.14 3.55 1.14 5.79s-.38 4.18-1.14 5.82c-.76 1.62-1.81 2.86-3.15 3.72-1.32.84-2.82 1.26-4.5 1.26zm0-3.39c1.5 0 2.68-.62 3.54-1.86.88-1.24 1.32-3.09 1.32-5.55s-.44-4.31-1.32-5.55c-.86-1.24-2.04-1.86-3.54-1.86-1.48 0-2.66.62-3.54 1.86-.86 1.24-1.29 3.09-1.29 5.55s.43 4.31 1.29 5.55c.88 1.24 2.06 1.86 3.54 1.86z"/><path fill="#FB9B2B" d="M2062 247h-64v4h64z"/><path fill="#fff" d="M2051.27 251.344l10.56-10.56 10.559 10.56-10.56 10.56zm247.5 83.242v-8.664h1.4c.43-.355.85-.785 1.26-1.292.43-.507.82-1.165 1.17-1.976.38-.836.73-1.9 1.03-3.192.3-1.317.57-2.964.8-4.94.25-1.976.44-4.37.57-7.182l.49-9.12h12.88v27.702h2.97v8.664h-3.31l-.34-5.586h-15.28l-.34 5.586h-3.3zm5.39-8.664h9.96v-24.51h-4.98l-.3 6.954c-.1 2.736-.27 5.041-.5 6.916-.2 1.849-.45 3.382-.76 4.598-.28 1.191-.61 2.166-.99 2.926-.35.735-.74 1.33-1.17 1.786-.41.456-.83.899-1.26 1.33zm20.86 8.588v-3.116c.99 0 1.78-.051 2.36-.152.58-.076 1-.241 1.25-.494.26-.228.38-.557.38-.988 0-.228-.09-.735-.26-1.52-.18-.785-.37-1.621-.57-2.508l-4.41-18.696h4.1l2.97 16.416 2.85-16.416h4.1l-5.24 23.18c-.23 1.064-.65 1.9-1.26 2.508-.61.633-1.39 1.089-2.35 1.368-.94.279-2.08.418-3.42.418h-.5zm22.48-5.206c-1.26 0-2.37-.279-3.3-.836-.94-.583-1.66-1.431-2.17-2.546-.48-1.14-.72-2.546-.72-4.218v-12.92c0-1.925.14-3.496.42-4.712.3-1.216.77-2.179 1.4-2.888.64-.709 1.46-1.267 2.47-1.672 1.07-.431 2.02-.735 2.85-.912.84-.177 1.64-.367 2.4-.57.78-.228 1.58-.583 2.39-1.064l.84 3.382c-.71.456-1.5.798-2.36 1.026-.83.203-1.67.393-2.51.57-.83.152-1.62.405-2.35.76-.74.355-1.31.899-1.71 1.634-.41.709-.61 1.697-.61 2.964v3.534c.33-.329.76-.633 1.29-.912.53-.304 1.1-.557 1.71-.76a5.857 5.857 0 011.79-.304c.91 0 1.75.241 2.51.722.76.481 1.36 1.305 1.82 2.47.46 1.14.68 2.698.68 4.674v4.18c0 2.305-.29 4.066-.87 5.282-.58 1.191-1.39 2.014-2.43 2.47-1.02.431-2.19.646-3.54.646zm.38-3.002c.56 0 1-.127 1.33-.38.36-.279.61-.722.76-1.33.18-.608.27-1.419.27-2.432v-6.65c0-.937-.06-1.685-.19-2.242-.13-.557-.33-.963-.61-1.216-.28-.279-.66-.418-1.14-.418-.25 0-.54.051-.87.152a4.69 4.69 0 00-.99.38 7.92 7.92 0 00-1.06.608v9.044c0 1.064.07 1.925.22 2.584.18.659.45 1.14.8 1.444.38.304.88.456 1.48.456zm15.26 3.002c-.86 0-1.62-.241-2.28-.722a5.415 5.415 0 01-1.56-1.9 5.602 5.602 0 01-.57-2.47c0-1.368.23-2.521.69-3.458a6.683 6.683 0 011.86-2.356c.81-.659 1.73-1.229 2.77-1.71a71.24 71.24 0 013.35-1.406v-1.558c0-.887-.05-1.621-.16-2.204-.1-.583-.31-1.013-.64-1.292-.31-.304-.77-.456-1.41-.456-.56 0-1.01.127-1.37.38-.33.253-.57.621-.72 1.102-.15.456-.23 1.001-.23 1.634v1.102l-4.02-.152c.05-2.432.6-4.218 1.67-5.358 1.06-1.165 2.71-1.748 4.94-1.748 2.18 0 3.72.595 4.63 1.786.92 1.191 1.37 2.913 1.37 5.168v10.032c0 .684.01 1.343.04 1.976.05.633.1 1.229.15 1.786.08.532.14 1.039.19 1.52h-3.72c-.08-.405-.18-.912-.31-1.52-.1-.633-.17-1.203-.22-1.71-.26.861-.75 1.672-1.49 2.432-.71.735-1.69 1.102-2.96 1.102zm1.6-3.496c.4 0 .78-.114 1.14-.342.35-.228.67-.481.95-.76.27-.304.46-.545.57-.722v-6.232c-.64.355-1.23.709-1.79 1.064-.56.355-1.05.735-1.48 1.14-.41.38-.74.823-.99 1.33-.23.481-.34 1.039-.34 1.672 0 .887.16 1.583.49 2.09.33.507.81.76 1.45.76zm11.77 3.192v-21.964h3.42v14.782l6.61-14.782h3.19V329h-3.34v-14.896L2379.81 329h-3.3zm6.72-24.358c-1.82 0-3.11-.494-3.87-1.482-.74-.988-1.1-2.217-1.1-3.686h2.35c.03.912.23 1.621.61 2.128.4.481 1.08.722 2.01.722.97 0 1.64-.253 2.02-.76.4-.507.61-1.203.61-2.09h2.39c0 1.469-.38 2.698-1.14 3.686-.74.988-2.03 1.482-3.88 1.482zm17.79 24.662c-1.8 0-3.17-.355-4.11-1.064-.91-.735-1.53-1.761-1.86-3.078-.3-1.317-.45-2.85-.45-4.598v-5.054c0-1.849.16-3.42.49-4.712.33-1.317.95-2.318 1.86-3.002.94-.709 2.3-1.064 4.07-1.064 1.59 0 2.82.266 3.68.798.89.507 1.5 1.279 1.83 2.318.33 1.013.49 2.28.49 3.8v1.292h-3.68v-1.33c0-.963-.07-1.723-.19-2.28-.13-.557-.36-.963-.69-1.216-.33-.253-.8-.38-1.4-.38-.66 0-1.17.152-1.52.456-.36.304-.6.823-.73 1.558-.1.709-.15 1.685-.15 2.926v6.916c0 1.875.18 3.129.53 3.762.36.633.99.95 1.9.95.69 0 1.18-.152 1.49-.456.33-.329.53-.785.6-1.368.11-.583.16-1.241.16-1.976v-1.786h3.68v1.52c0 1.469-.17 2.736-.53 3.8-.33 1.064-.94 1.875-1.82 2.432-.86.557-2.08.836-3.65.836zm10.76-.304v-21.964h4.06v9.272h1.14l4.15-9.272h4.18l-4.6 10.64 4.67 11.324h-4.25l-4.15-10.26h-1.14V329h-4.06zm16.91 0v-21.964h3.42v14.782l6.61-14.782h3.19V329h-3.34v-14.896L2432 329h-3.31zm18.51 0v-21.964h3.42v14.782l6.61-14.782h3.19V329h-3.34v-14.896L2450.5 329h-3.3zm6.72-24.358c-1.82 0-3.11-.494-3.87-1.482-.74-.988-1.11-2.217-1.11-3.686h2.36c.03.912.23 1.621.61 2.128.4.481 1.07.722 2.01.722.96 0 1.64-.253 2.02-.76.4-.507.6-1.203.6-2.09h2.4c0 1.469-.38 2.698-1.14 3.686-.74.988-2.03 1.482-3.88 1.482zm-121.58 80.578v-8.436h-.38c-.83 0-1.7-.101-2.58-.304a6.79 6.79 0 01-2.47-1.216c-.76-.583-1.38-1.431-1.86-2.546-.46-1.115-.69-2.559-.69-4.332v-3.952c0-1.419.19-2.635.57-3.648.41-1.013.95-1.837 1.64-2.47.7-.659 1.5-1.14 2.39-1.444a9.046 9.046 0 012.89-.456h.49v-9.196h3.76v9.196h.65c1.34 0 2.57.279 3.69.836 1.11.532 2 1.393 2.66 2.584.68 1.165 1.02 2.698 1.02 4.598v3.952c0 1.773-.23 3.217-.68 4.332-.46 1.115-1.07 1.963-1.83 2.546-.73.583-1.54.988-2.43 1.216-.86.203-1.71.304-2.54.304h-.54v8.436h-3.76zm-.26-11.324h.26v-14.82h-.38c-.78 0-1.47.127-2.05.38-.58.253-1.04.722-1.37 1.406-.33.684-.49 1.672-.49 2.964v4.522c0 1.469.15 2.609.45 3.42.31.785.76 1.343 1.37 1.672.61.304 1.34.456 2.21.456zm4.02 0h.23c.89 0 1.64-.152 2.24-.456.61-.329 1.07-.887 1.37-1.672.33-.811.5-1.951.5-3.42v-4.522c0-1.292-.17-2.28-.5-2.964-.33-.684-.8-1.153-1.4-1.406-.59-.253-1.28-.38-2.09-.38h-.35v14.82zm12.86 4.104v-21.964h3.42v14.782l6.62-14.782h3.19V378h-3.35v-14.896L2352.27 378h-3.31zm17.11.19v-3.078c.76 0 1.35-.152 1.78-.456.46-.304.8-.811 1.03-1.52.25-.735.44-1.71.57-2.926.12-1.241.24-2.787.34-4.636l.49-9.538h11.52V378h-4.07v-18.886h-3.87l-.35 6.46c-.12 2.508-.31 4.585-.57 6.232-.22 1.647-.59 2.939-1.1 3.876-.51.912-1.19 1.558-2.05 1.938-.84.38-1.93.57-3.27.57h-.45zm20.98-.19v-21.964h3.42v14.782l6.62-14.782h3.19V378h-3.35v-14.896L2390.36 378h-3.31zm22.46.304c-.86 0-1.62-.241-2.28-.722a5.498 5.498 0 01-1.55-1.9 5.602 5.602 0 01-.57-2.47c0-1.368.22-2.521.68-3.458a6.915 6.915 0 011.86-2.356c.81-.659 1.74-1.229 2.78-1.71 1.06-.481 2.17-.95 3.34-1.406v-1.558c0-.887-.05-1.621-.15-2.204-.1-.583-.32-1.013-.65-1.292-.3-.304-.77-.456-1.4-.456-.56 0-1.02.127-1.37.38-.33.253-.57.621-.72 1.102-.16.456-.23 1.001-.23 1.634v1.102l-4.03-.152c.05-2.432.61-4.218 1.67-5.358 1.07-1.165 2.71-1.748 4.94-1.748 2.18 0 3.73.595 4.64 1.786.91 1.191 1.37 2.913 1.37 5.168v10.032c0 .684.01 1.343.03 1.976.05.633.11 1.229.16 1.786.07.532.14 1.039.19 1.52h-3.73c-.07-.405-.18-.912-.3-1.52a30.2 30.2 0 01-.23-1.71c-.25.861-.75 1.672-1.48 2.432-.71.735-1.7 1.102-2.97 1.102zm1.6-3.496c.41 0 .79-.114 1.14-.342.35-.228.67-.481.95-.76.28-.304.47-.545.57-.722v-6.232c-.63.355-1.23.709-1.79 1.064-.55.355-1.05.735-1.48 1.14-.4.38-.73.823-.99 1.33a3.985 3.985 0 00-.34 1.672c0 .887.17 1.583.5 2.09.33.507.81.76 1.44.76zm10.37 3.382v-3.078c.76 0 1.35-.152 1.78-.456.46-.304.8-.811 1.03-1.52.25-.735.44-1.71.57-2.926.12-1.241.24-2.787.34-4.636l.49-9.538h11.52V378h-4.07v-18.886h-3.87l-.35 6.46c-.12 2.508-.31 4.585-.57 6.232-.22 1.647-.59 2.939-1.1 3.876-.51.912-1.19 1.558-2.05 1.938-.84.38-1.93.57-3.27.57h-.45zm-72.49-151.89c-1.68 0-3.18-.42-4.5-1.26-1.32-.86-2.36-2.1-3.12-3.72-.76-1.64-1.14-3.58-1.14-5.82s.38-4.17 1.14-5.79c.76-1.64 1.8-2.88 3.12-3.72 1.32-.86 2.82-1.29 4.5-1.29 1.68 0 3.18.43 4.5 1.29 1.34.84 2.39 2.08 3.15 3.72.76 1.62 1.14 3.55 1.14 5.79s-.38 4.18-1.14 5.82c-.76 1.62-1.81 2.86-3.15 3.72-1.32.84-2.82 1.26-4.5 1.26zm0-3.39c1.5 0 2.68-.62 3.54-1.86.88-1.24 1.32-3.09 1.32-5.55s-.44-4.31-1.32-5.55c-.86-1.24-2.04-1.86-3.54-1.86-1.48 0-2.66.62-3.54 1.86-.86 1.24-1.29 3.09-1.29 5.55s.43 4.31 1.29 5.55c.88 1.24 2.06 1.86 3.54 1.86z"/><path fill="#FB9B2B" d="M2381 247h-64v4h64z"/><path fill="#fff" d="M2370.27 251.344l10.56-10.56 10.559 10.56-10.56 10.56z"/></svg>