<svg xmlns="http://www.w3.org/2000/svg" width="2529" height="568" fill="none"><path fill="#B2CEF6" d="M0 426h2529v2H0z"/><path d="M78.55 505v-30.78h13.223v3.116h-8.93v9.69h.95c2.23 0 4.067.266 5.51.798 1.47.507 2.56 1.406 3.269 2.698.734 1.292 1.102 3.116 1.102 5.472 0 1.596-.19 2.964-.57 4.104-.38 1.115-.976 2.039-1.786 2.774-.786.735-1.786 1.279-3.002 1.634-1.191.329-2.622.494-4.294.494H78.55zm4.293-3.078h1.216c1.267 0 2.306-.139 3.116-.418.836-.304 1.444-.887 1.824-1.748.406-.861.608-2.128.608-3.8 0-2.103-.405-3.597-1.216-4.484-.785-.887-2.267-1.33-4.446-1.33h-1.101v11.78zm15.282 10.298v-29.184h4.066v1.748a6.996 6.996 0 011.748-1.444c.684-.405 1.495-.608 2.432-.608 1.14 0 2.039.304 2.698.912.684.583 1.191 1.33 1.52 2.242.329.887.545 1.799.646 2.736.101.912.152 1.697.152 2.356v5.32c0 1.545-.152 3.015-.456 4.408-.304 1.368-.861 2.483-1.672 3.344-.785.836-1.9 1.254-3.344 1.254-.785 0-1.482-.19-2.09-.57a9.506 9.506 0 01-1.634-1.368v8.854h-4.066zm6.992-10.108c.709 0 1.216-.253 1.52-.76.304-.532.494-1.241.57-2.128.076-.887.114-1.862.114-2.926v-5.32c0-.912-.051-1.748-.152-2.508-.101-.785-.317-1.406-.646-1.862-.329-.456-.849-.684-1.558-.684-.532 0-1.039.114-1.52.342a5.608 5.608 0 00-1.254.798v14.06c.38.279.811.519 1.292.722a4.71 4.71 0 001.634.266zm9.435 2.888l4.142-9.31a4.2 4.2 0 01-1.748-1.254c-.431-.557-.747-1.241-.95-2.052-.203-.811-.304-1.723-.304-2.736 0-1.165.152-2.166.456-3.002a4.597 4.597 0 011.444-2.052c.659-.532 1.533-.925 2.622-1.178 1.089-.253 2.432-.38 4.028-.38h4.256V505h-4.028v-8.664h-1.026a67.123 67.123 0 00-.912-.076l-3.61 8.74h-4.37zm9.462-11.02h.456v-8.626h-.418c-1.191 0-2.141.152-2.85.456-.684.279-1.165.735-1.444 1.368-.279.608-.418 1.431-.418 2.47 0 1.444.317 2.521.95 3.23.659.709 1.9 1.077 3.724 1.102zm9.752 11.02v-21.964h4.066v9.234h5.206v-9.234h4.066V505h-4.066v-9.766h-5.206V505h-4.066zm24.586.304c-1.799 0-3.167-.355-4.104-1.064-.912-.735-1.533-1.761-1.862-3.078-.304-1.317-.456-2.85-.456-4.598v-5.054c0-1.849.164-3.42.494-4.712.329-1.317.95-2.318 1.862-3.002.937-.709 2.292-1.064 4.066-1.064 1.596 0 2.824.266 3.686.798.886.507 1.494 1.279 1.824 2.318.329 1.013.494 2.28.494 3.8v1.292h-3.686v-1.33c0-.963-.064-1.723-.19-2.28-.127-.557-.355-.963-.684-1.216-.33-.253-.798-.38-1.406-.38-.659 0-1.166.152-1.52.456-.355.304-.596.823-.722 1.558-.102.709-.152 1.685-.152 2.926v6.916c0 1.875.177 3.129.532 3.762.354.633.988.95 1.9.95.684 0 1.178-.152 1.482-.456.329-.329.532-.785.608-1.368.101-.583.152-1.241.152-1.976v-1.786h3.686v1.52c0 1.469-.178 2.736-.532 3.8-.33 1.064-.938 1.875-1.824 2.432-.862.557-2.078.836-3.648.836zm10.759-.304v-21.964h4.066v9.272h1.14l4.142-9.272h4.18l-4.598 10.64L182.715 505h-4.256l-4.142-10.26h-1.14V505h-4.066zm16.911 0v-21.964h3.42v14.782l6.612-14.782h3.192V505h-3.344v-14.896L189.328 505h-3.306zm18.507 0v-21.964h3.42v14.782l6.612-14.782h3.192V505h-3.344v-14.896L207.835 505h-3.306zm6.726-24.358c-1.824 0-3.116-.494-3.876-1.482-.734-.988-1.102-2.217-1.102-3.686h2.356c.026.912.228 1.621.608 2.128.406.481 1.077.722 2.014.722.963 0 1.634-.253 2.014-.76.406-.507.608-1.203.608-2.09h2.394c0 1.469-.38 2.698-1.14 3.686-.734.988-2.026 1.482-3.876 1.482zM99.341 561.22v-8.436h-.38c-.836 0-1.697-.101-2.584-.304a6.816 6.816 0 01-2.47-1.216c-.76-.583-1.38-1.431-1.862-2.546-.456-1.115-.684-2.559-.684-4.332v-3.952c0-1.419.19-2.635.57-3.648.406-1.013.95-1.837 1.634-2.47a6.66 6.66 0 012.394-1.444 9.072 9.072 0 012.888-.456h.494v-9.196h3.762v9.196h.646c1.343 0 2.571.279 3.686.836 1.115.532 2.001 1.393 2.66 2.584.684 1.165 1.026 2.698 1.026 4.598v3.952c0 1.773-.228 3.217-.684 4.332-.456 1.115-1.064 1.963-1.824 2.546a6.465 6.465 0 01-2.432 1.216 11.07 11.07 0 01-2.546.304h-.532v8.436h-3.762zm-.266-11.324h.266v-14.82h-.38c-.785 0-1.47.127-2.052.38-.583.253-1.039.722-1.368 1.406-.33.684-.494 1.672-.494 2.964v4.522c0 1.469.152 2.609.456 3.42.304.785.76 1.343 1.368 1.672.608.304 1.343.456 2.204.456zm4.028 0h.228c.887 0 1.634-.152 2.242-.456.608-.329 1.064-.887 1.368-1.672.329-.811.494-1.951.494-3.42v-4.522c0-1.292-.165-2.28-.494-2.964-.329-.684-.798-1.153-1.406-1.406-.583-.253-1.279-.38-2.09-.38h-.342v14.82zM115.964 554v-21.964h3.42v14.782l6.612-14.782h3.192V554h-3.344v-14.896L119.27 554h-3.306zm17.101.19v-3.078c.76 0 1.356-.152 1.786-.456.456-.304.798-.811 1.026-1.52.254-.735.444-1.71.57-2.926.127-1.241.241-2.787.342-4.636l.494-9.538h11.514V554h-4.066v-18.886h-3.876l-.342 6.46c-.126 2.508-.316 4.585-.57 6.232-.228 1.647-.595 2.939-1.102 3.876-.506.912-1.19 1.558-2.052 1.938-.836.38-1.925.57-3.268.57h-.456zm20.99-.19v-21.964h3.42v14.782l6.612-14.782h3.192V554h-3.344v-14.896L157.361 554h-3.306zm22.459.304c-.862 0-1.622-.241-2.28-.722a5.42 5.42 0 01-1.558-1.9 5.602 5.602 0 01-.57-2.47c0-1.368.228-2.521.684-3.458a6.802 6.802 0 011.862-2.356 13.072 13.072 0 012.774-1.71 70.083 70.083 0 013.344-1.406v-1.558c0-.887-.051-1.621-.152-2.204-.102-.583-.317-1.013-.646-1.292-.304-.304-.773-.456-1.406-.456-.558 0-1.014.127-1.368.38-.33.253-.57.621-.722 1.102-.152.456-.228 1.001-.228 1.634v1.102l-4.028-.152c.05-2.432.608-4.218 1.672-5.358 1.064-1.165 2.71-1.748 4.94-1.748 2.178 0 3.724.595 4.636 1.786.912 1.191 1.368 2.913 1.368 5.168v10.032c0 .684.012 1.343.038 1.976.05.633.101 1.229.152 1.786.076.532.139 1.039.19 1.52h-3.724a86.008 86.008 0 00-.304-1.52 28.345 28.345 0 01-.228-1.71c-.254.861-.748 1.672-1.482 2.432-.71.735-1.698 1.102-2.964 1.102zm1.596-3.496c.405 0 .785-.114 1.14-.342.354-.228.671-.481.95-.76.278-.304.468-.545.57-.722v-6.232c-.634.355-1.229.709-1.786 1.064a9.917 9.917 0 00-1.482 1.14c-.406.38-.735.823-.988 1.33-.228.481-.342 1.039-.342 1.672 0 .887.164 1.583.494 2.09.329.507.81.76 1.444.76zm10.365 3.382v-3.078c.76 0 1.356-.152 1.786-.456.456-.304.798-.811 1.026-1.52.254-.735.444-1.71.57-2.926.127-1.241.241-2.787.342-4.636l.494-9.538h11.514V554h-4.066v-18.886h-3.876l-.342 6.46c-.126 2.508-.316 4.585-.57 6.232-.228 1.647-.595 2.939-1.102 3.876-.506.912-1.19 1.558-2.052 1.938-.836.38-1.925.57-3.268.57h-.456zM174.137 242v21h-3.9v-17.73h-4.44V242h8.34zm13.105 8.67c1.94.24 3.42.9 4.44 1.98 1.02 1.08 1.53 2.43 1.53 4.05 0 1.22-.31 2.33-.93 3.33-.62 1-1.56 1.8-2.82 2.4-1.24.58-2.76.87-4.56.87-1.5 0-2.95-.21-4.35-.63-1.38-.44-2.56-1.04-3.54-1.8l1.68-3.03c.76.64 1.68 1.15 2.76 1.53 1.1.36 2.23.54 3.39.54 1.38 0 2.46-.28 3.24-.84.8-.58 1.2-1.36 1.2-2.34 0-.98-.38-1.74-1.14-2.28-.74-.56-1.88-.84-3.42-.84h-1.92v-2.67l4.77-5.67h-9.54V242h14.31v2.61l-5.1 6.06zm-61.383 86.56h-3.72V342h-3.78v-4.77h-11.52v-2.7l10.35-13.53h4.17l-9.75 12.93h6.87v-4.23h3.66v4.23h3.72v3.3z" fill="#fff"/><path fill="#FB9B2B" d="M148 363H84v64h64z"/><path fill="#FFDD85" d="M212 284h-64v143h64z"/><path fill="#fff" d="M137.266 427.344l10.56-10.56 10.559 10.56-10.56 10.56zM357.405 505v-30.78h7.068c1.393 0 2.596.152 3.61.456 1.038.304 1.9.773 2.584 1.406.684.633 1.19 1.444 1.52 2.432.329.963.494 2.103.494 3.42 0 1.267-.165 2.369-.494 3.306-.304.912-.786 1.634-1.444 2.166-.634.532-1.457.874-2.47 1.026 1.241.279 2.242.76 3.002 1.444.76.659 1.317 1.52 1.672 2.584.38 1.039.57 2.293.57 3.762 0 1.317-.152 2.521-.456 3.61-.304 1.089-.786 2.014-1.444 2.774-.634.76-1.457 1.355-2.47 1.786-.988.405-2.166.608-3.534.608h-8.208zm4.294-3.078h2.888c1.925 0 3.204-.443 3.838-1.33.658-.912.988-2.369.988-4.37 0-1.292-.178-2.369-.532-3.23-.33-.887-.874-1.545-1.634-1.976-.735-.456-1.736-.684-3.002-.684h-2.546v11.59zm0-14.858h2.546c1.216 0 2.166-.165 2.85-.494.684-.355 1.165-.912 1.444-1.672.278-.76.418-1.748.418-2.964 0-1.419-.216-2.445-.646-3.078-.431-.633-1.102-1.026-2.014-1.178-.912-.177-2.103-.266-3.572-.266h-1.026v9.652zm22.473 18.24c-1.621 0-2.9-.329-3.838-.988-.937-.659-1.608-1.596-2.014-2.812-.38-1.216-.57-2.647-.57-4.294v-6.384c0-1.647.19-3.078.57-4.294.406-1.216 1.077-2.153 2.014-2.812.938-.659 2.217-.988 3.838-.988 1.622 0 2.888.329 3.8.988.938.659 1.596 1.596 1.976 2.812.406 1.216.608 2.647.608 4.294v6.384c0 1.647-.202 3.078-.608 4.294-.38 1.216-1.038 2.153-1.976 2.812-.912.659-2.178.988-3.8.988zm0-3.002c.786 0 1.33-.228 1.634-.684.33-.456.52-1.051.57-1.786.076-.76.114-1.545.114-2.356v-6.878c0-.836-.038-1.621-.114-2.356-.05-.735-.24-1.33-.57-1.786-.304-.481-.848-.722-1.634-.722-.785 0-1.342.241-1.672.722-.329.456-.532 1.051-.608 1.786a34.77 34.77 0 00-.076 2.356v6.878c0 .811.026 1.596.076 2.356.076.735.279 1.33.608 1.786.33.456.887.684 1.672.684zm9.39 2.888v-3.078c.76 0 1.355-.152 1.786-.456.456-.304.798-.811 1.026-1.52.253-.735.443-1.71.57-2.926.126-1.241.24-2.787.342-4.636l.494-9.538h11.514V505h-4.066v-18.886h-3.876l-.342 6.46c-.127 2.508-.317 4.585-.57 6.232-.228 1.647-.596 2.939-1.102 3.876-.507.912-1.191 1.558-2.052 1.938-.836.38-1.926.57-3.268.57h-.456zm20.989-.19v-21.964h8.854v2.926h-4.788V505h-4.066zm18.129.304c-1.621 0-2.9-.329-3.838-.988-.937-.659-1.608-1.596-2.014-2.812-.38-1.216-.57-2.647-.57-4.294v-6.384c0-1.647.19-3.078.57-4.294.406-1.216 1.077-2.153 2.014-2.812.938-.659 2.217-.988 3.838-.988 1.622 0 2.888.329 3.8.988.938.659 1.596 1.596 1.976 2.812.406 1.216.608 2.647.608 4.294v6.384c0 1.647-.202 3.078-.608 4.294-.38 1.216-1.038 2.153-1.976 2.812-.912.659-2.178.988-3.8.988zm0-3.002c.786 0 1.33-.228 1.634-.684.33-.456.52-1.051.57-1.786.076-.76.114-1.545.114-2.356v-6.878c0-.836-.038-1.621-.114-2.356-.05-.735-.24-1.33-.57-1.786-.304-.481-.848-.722-1.634-.722-.785 0-1.342.241-1.672.722-.329.456-.532 1.051-.608 1.786a34.77 34.77 0 00-.076 2.356v6.878c0 .811.026 1.596.076 2.356.076.735.279 1.33.608 1.786.33.456.887.684 1.672.684zM443.921 505v-21.964h8.854v2.926h-4.788V505h-4.066zm12.161 7.22v-29.184h4.066v1.748a7.014 7.014 0 011.748-1.444c.684-.405 1.495-.608 2.432-.608 1.14 0 2.04.304 2.698.912.684.583 1.191 1.33 1.52 2.242.33.887.545 1.799.646 2.736a21.6 21.6 0 01.152 2.356v5.32c0 1.545-.152 3.015-.456 4.408-.304 1.368-.861 2.483-1.672 3.344-.785.836-1.9 1.254-3.344 1.254-.785 0-1.482-.19-2.09-.57a9.544 9.544 0 01-1.634-1.368v8.854h-4.066zm6.992-10.108c.71 0 1.216-.253 1.52-.76.304-.532.494-1.241.57-2.128.076-.887.114-1.862.114-2.926v-5.32c0-.912-.05-1.748-.152-2.508-.101-.785-.316-1.406-.646-1.862-.329-.456-.848-.684-1.558-.684a3.51 3.51 0 00-1.52.342 5.608 5.608 0 00-1.254.798v14.06c.38.279.811.519 1.292.722a4.714 4.714 0 001.634.266zm15.059 3.192c-.861 0-1.621-.241-2.28-.722a5.431 5.431 0 01-1.558-1.9 5.602 5.602 0 01-.57-2.47c0-1.368.228-2.521.684-3.458a6.814 6.814 0 011.862-2.356 13.123 13.123 0 012.774-1.71 70.52 70.52 0 013.344-1.406v-1.558c0-.887-.05-1.621-.152-2.204-.101-.583-.316-1.013-.646-1.292-.304-.304-.772-.456-1.406-.456-.557 0-1.013.127-1.368.38-.329.253-.57.621-.722 1.102-.152.456-.228 1.001-.228 1.634v1.102l-4.028-.152c.051-2.432.608-4.218 1.672-5.358 1.064-1.165 2.711-1.748 4.94-1.748 2.179 0 3.724.595 4.636 1.786.912 1.191 1.368 2.913 1.368 5.168v10.032c0 .684.013 1.343.038 1.976.051.633.102 1.229.152 1.786.076.532.14 1.039.19 1.52h-3.724a77.737 77.737 0 00-.304-1.52 30.052 30.052 0 01-.228-1.71c-.253.861-.747 1.672-1.482 2.432-.709.735-1.697 1.102-2.964 1.102zm1.596-3.496c.406 0 .786-.114 1.14-.342.355-.228.672-.481.95-.76.279-.304.469-.545.57-.722v-6.232c-.633.355-1.228.709-1.786 1.064a10.02 10.02 0 00-1.482 1.14c-.405.38-.734.823-.988 1.33-.228.481-.342 1.039-.342 1.672 0 .887.165 1.583.494 2.09.33.507.811.76 1.444.76zm9.796 8.778v-8.284a11.644 11.644 0 002.09-2.09c.633-.811 1.191-1.837 1.672-3.078.481-1.241.861-2.774 1.14-4.598.279-1.824.431-4.028.456-6.612l.076-2.888h9.918v19.076h2.66v8.474h-2.964l-.342-5.586h-11.4l-.342 5.586h-2.964zm3.952-8.474h7.486v-16.15h-2.85l-.076.798c-.025 2.685-.165 4.927-.418 6.726-.228 1.773-.557 3.23-.988 4.37-.405 1.115-.887 2.001-1.444 2.66-.532.659-1.102 1.191-1.71 1.596zm24.02 3.192c-1.799 0-3.167-.355-4.104-1.064-.912-.735-1.533-1.761-1.862-3.078-.304-1.317-.456-2.85-.456-4.598v-5.054c0-1.849.164-3.42.494-4.712.329-1.317.95-2.318 1.862-3.002.937-.709 2.292-1.064 4.066-1.064 1.596 0 2.824.266 3.686.798.886.507 1.494 1.279 1.824 2.318.329 1.013.494 2.28.494 3.8v1.292h-3.686v-1.33c0-.963-.064-1.723-.19-2.28-.127-.557-.355-.963-.684-1.216-.33-.253-.798-.38-1.406-.38-.659 0-1.166.152-1.52.456-.355.304-.596.823-.722 1.558-.102.709-.152 1.685-.152 2.926v6.916c0 1.875.177 3.129.532 3.762.354.633.988.95 1.9.95.684 0 1.178-.152 1.482-.456.329-.329.532-.785.608-1.368.101-.583.152-1.241.152-1.976v-1.786h3.686v1.52c0 1.469-.178 2.736-.532 3.8-.33 1.064-.938 1.875-1.824 2.432-.862.557-2.078.836-3.648.836zm10.759-.304v-21.964h4.066v9.272h1.14l4.142-9.272h4.18l-4.598 10.64L541.86 505h-4.256l-4.142-10.26h-1.14V505h-4.066zm16.911 0v-21.964h3.42v14.782l6.612-14.782h3.192V505h-3.344v-14.896L548.473 505h-3.306zm18.507 0v-21.964h3.42v14.782l6.612-14.782h3.192V505h-3.344v-14.896L566.98 505h-3.306zm6.726-24.358c-1.824 0-3.116-.494-3.876-1.482-.734-.988-1.102-2.217-1.102-3.686h2.356c.026.912.228 1.621.608 2.128.406.481 1.077.722 2.014.722.963 0 1.634-.253 2.014-.76.406-.507.608-1.203.608-2.09h2.394c0 1.469-.38 2.698-1.14 3.686-.734.988-2.026 1.482-3.876 1.482zM413.429 561.22v-8.436h-.38c-.836 0-1.697-.101-2.584-.304a6.822 6.822 0 01-2.47-1.216c-.76-.583-1.38-1.431-1.862-2.546-.456-1.115-.684-2.559-.684-4.332v-3.952c0-1.419.19-2.635.57-3.648.406-1.013.95-1.837 1.634-2.47a6.672 6.672 0 012.394-1.444 9.074 9.074 0 012.888-.456h.494v-9.196h3.762v9.196h.646c1.343 0 2.572.279 3.686.836 1.115.532 2.002 1.393 2.66 2.584.684 1.165 1.026 2.698 1.026 4.598v3.952c0 1.773-.228 3.217-.684 4.332-.456 1.115-1.064 1.963-1.824 2.546a6.458 6.458 0 01-2.432 1.216 11.07 11.07 0 01-2.546.304h-.532v8.436h-3.762zm-.266-11.324h.266v-14.82h-.38c-.785 0-1.469.127-2.052.38-.582.253-1.038.722-1.368 1.406-.329.684-.494 1.672-.494 2.964v4.522c0 1.469.152 2.609.456 3.42.304.785.76 1.343 1.368 1.672.608.304 1.343.456 2.204.456zm4.028 0h.228c.887 0 1.634-.152 2.242-.456.608-.329 1.064-.887 1.368-1.672.33-.811.494-1.951.494-3.42v-4.522c0-1.292-.164-2.28-.494-2.964-.329-.684-.798-1.153-1.406-1.406-.582-.253-1.279-.38-2.09-.38h-.342v14.82zM430.052 554v-21.964h3.42v14.782l6.612-14.782h3.192V554h-3.344v-14.896L433.358 554h-3.306zm17.101.19v-3.078c.76 0 1.356-.152 1.786-.456.456-.304.798-.811 1.026-1.52.254-.735.444-1.71.57-2.926.127-1.241.241-2.787.342-4.636l.494-9.538h11.514V554h-4.066v-18.886h-3.876l-.342 6.46c-.126 2.508-.316 4.585-.57 6.232-.228 1.647-.595 2.939-1.102 3.876-.506.912-1.19 1.558-2.052 1.938-.836.38-1.925.57-3.268.57h-.456zm20.99-.19v-21.964h3.42v14.782l6.612-14.782h3.192V554h-3.344v-14.896L471.449 554h-3.306zm22.459.304c-.861 0-1.621-.241-2.28-.722a5.42 5.42 0 01-1.558-1.9 5.602 5.602 0 01-.57-2.47c0-1.368.228-2.521.684-3.458a6.814 6.814 0 011.862-2.356 13.098 13.098 0 012.774-1.71 70.52 70.52 0 013.344-1.406v-1.558c0-.887-.051-1.621-.152-2.204-.101-.583-.317-1.013-.646-1.292-.304-.304-.773-.456-1.406-.456-.557 0-1.013.127-1.368.38-.329.253-.57.621-.722 1.102-.152.456-.228 1.001-.228 1.634v1.102l-4.028-.152c.051-2.432.608-4.218 1.672-5.358 1.064-1.165 2.711-1.748 4.94-1.748 2.179 0 3.724.595 4.636 1.786.912 1.191 1.368 2.913 1.368 5.168v10.032c0 .684.013 1.343.038 1.976.051.633.101 1.229.152 1.786.076.532.139 1.039.19 1.52h-3.724a77.737 77.737 0 00-.304-1.52 30.052 30.052 0 01-.228-1.71c-.253.861-.747 1.672-1.482 2.432-.709.735-1.697 1.102-2.964 1.102zm1.596-3.496c.405 0 .785-.114 1.14-.342.355-.228.671-.481.95-.76.279-.304.469-.545.57-.722v-6.232c-.633.355-1.229.709-1.786 1.064a10.02 10.02 0 00-1.482 1.14c-.405.38-.735.823-.988 1.33-.228.481-.342 1.039-.342 1.672 0 .887.165 1.583.494 2.09.329.507.811.76 1.444.76zm10.366 3.382v-3.078c.76 0 1.355-.152 1.786-.456.456-.304.798-.811 1.026-1.52.253-.735.443-1.71.57-2.926.126-1.241.24-2.787.342-4.636l.494-9.538h11.514V554h-4.066v-18.886h-3.876l-.342 6.46c-.127 2.508-.317 4.585-.57 6.232-.228 1.647-.596 2.939-1.102 3.876-.507.912-1.191 1.558-2.052 1.938-.836.38-1.926.57-3.268.57h-.456zM507.8 370.7v3.3h-15.48v-2.61l8.34-7.92c.94-.9 1.57-1.68 1.89-2.34.34-.68.51-1.35.51-2.01 0-.98-.33-1.73-.99-2.25-.66-.52-1.63-.78-2.91-.78-2.14 0-3.78.73-4.92 2.19l-2.73-2.1c.82-1.1 1.92-1.95 3.3-2.55 1.4-.62 2.96-.93 4.68-.93 2.28 0 4.1.54 5.46 1.62 1.36 1.08 2.04 2.55 2.04 4.41 0 1.14-.24 2.21-.72 3.21s-1.4 2.14-2.76 3.42l-5.61 5.34h9.9zm-72.813 31.6c-1.68 0-3.18-.42-4.5-1.26-1.32-.86-2.36-2.1-3.12-3.72-.76-1.64-1.14-3.58-1.14-5.82s.38-4.17 1.14-5.79c.76-1.64 1.8-2.88 3.12-3.72 1.32-.86 2.82-1.29 4.5-1.29 1.68 0 3.18.43 4.5 1.29 1.34.84 2.39 2.08 3.15 3.72.76 1.62 1.14 3.55 1.14 5.79s-.38 4.18-1.14 5.82c-.76 1.62-1.81 2.86-3.15 3.72-1.32.84-2.82 1.26-4.5 1.26zm0-3.39c1.5 0 2.68-.62 3.54-1.86.88-1.24 1.32-3.09 1.32-5.55s-.44-4.31-1.32-5.55c-.86-1.24-2.04-1.86-3.54-1.86-1.48 0-2.66.62-3.54 1.86-.86 1.24-1.29 3.09-1.29 5.55s.43 4.31 1.29 5.55c.88 1.24 2.06 1.86 3.54 1.86z"/><path fill="#FB9B2B" d="M467 423h-64v4h64z"/><path fill="#FFDD85" d="M531 395h-64v32h64z"/><path fill="#fff" d="M456 427.344l10.56-10.56 10.559 10.56-10.56 10.56zM686.753 505v-30.78h7.068c1.393 0 2.597.152 3.61.456 1.039.304 1.9.773 2.584 1.406.684.633 1.191 1.444 1.52 2.432.329.963.494 2.103.494 3.42 0 1.267-.165 2.369-.494 3.306-.304.912-.785 1.634-1.444 2.166-.633.532-1.457.874-2.47 1.026 1.241.279 2.242.76 3.002 1.444.76.659 1.317 1.52 1.672 2.584.38 1.039.57 2.293.57 3.762 0 1.317-.152 2.521-.456 3.61-.304 1.089-.785 2.014-1.444 2.774-.633.76-1.457 1.355-2.47 1.786-.988.405-2.166.608-3.534.608h-8.208zm4.294-3.078h2.888c1.925 0 3.205-.443 3.838-1.33.659-.912.988-2.369.988-4.37 0-1.292-.177-2.369-.532-3.23-.329-.887-.874-1.545-1.634-1.976-.735-.456-1.735-.684-3.002-.684h-2.546v11.59zm0-14.858h2.546c1.216 0 2.166-.165 2.85-.494.684-.355 1.165-.912 1.444-1.672.279-.76.418-1.748.418-2.964 0-1.419-.215-2.445-.646-3.078-.431-.633-1.102-1.026-2.014-1.178-.912-.177-2.103-.266-3.572-.266h-1.026v9.652zm22.474 18.24c-1.622 0-2.901-.329-3.838-.988-.938-.659-1.609-1.596-2.014-2.812-.38-1.216-.57-2.647-.57-4.294v-6.384c0-1.647.19-3.078.57-4.294.405-1.216 1.076-2.153 2.014-2.812.937-.659 2.216-.988 3.838-.988 1.621 0 2.888.329 3.8.988.937.659 1.596 1.596 1.976 2.812.405 1.216.608 2.647.608 4.294v6.384c0 1.647-.203 3.078-.608 4.294-.38 1.216-1.039 2.153-1.976 2.812-.912.659-2.179.988-3.8.988zm0-3.002c.785 0 1.33-.228 1.634-.684.329-.456.519-1.051.57-1.786.076-.76.114-1.545.114-2.356v-6.878c0-.836-.038-1.621-.114-2.356-.051-.735-.241-1.33-.57-1.786-.304-.481-.849-.722-1.634-.722-.786 0-1.343.241-1.672.722-.33.456-.532 1.051-.608 1.786a34.13 34.13 0 00-.076 2.356v6.878c0 .811.025 1.596.076 2.356.076.735.278 1.33.608 1.786.329.456.886.684 1.672.684zm11.24 9.918v-29.184h4.066v1.748a7.014 7.014 0 011.748-1.444c.684-.405 1.495-.608 2.432-.608 1.14 0 2.04.304 2.698.912.684.583 1.191 1.33 1.52 2.242.33.887.545 1.799.646 2.736a21.6 21.6 0 01.152 2.356v5.32c0 1.545-.152 3.015-.456 4.408-.304 1.368-.861 2.483-1.672 3.344-.785.836-1.9 1.254-3.344 1.254-.785 0-1.482-.19-2.09-.57a9.544 9.544 0 01-1.634-1.368v8.854h-4.066zm6.992-10.108c.71 0 1.216-.253 1.52-.76.304-.532.494-1.241.57-2.128.076-.887.114-1.862.114-2.926v-5.32c0-.912-.05-1.748-.152-2.508-.101-.785-.316-1.406-.646-1.862-.329-.456-.848-.684-1.558-.684a3.51 3.51 0 00-1.52.342 5.608 5.608 0 00-1.254.798v14.06c.38.279.811.519 1.292.722a4.714 4.714 0 001.634.266zm17.149 3.192c-1.621 0-2.9-.329-3.838-.988-.937-.659-1.608-1.596-2.014-2.812-.38-1.216-.57-2.647-.57-4.294v-6.384c0-1.647.19-3.078.57-4.294.406-1.216 1.077-2.153 2.014-2.812.938-.659 2.217-.988 3.838-.988 1.622 0 2.888.329 3.8.988.938.659 1.596 1.596 1.976 2.812.406 1.216.608 2.647.608 4.294v6.384c0 1.647-.202 3.078-.608 4.294-.38 1.216-1.038 2.153-1.976 2.812-.912.659-2.178.988-3.8.988zm0-3.002c.786 0 1.33-.228 1.634-.684.33-.456.52-1.051.57-1.786.076-.76.114-1.545.114-2.356v-6.878c0-.836-.038-1.621-.114-2.356-.05-.735-.24-1.33-.57-1.786-.304-.481-.848-.722-1.634-.722-.785 0-1.342.241-1.672.722-.329.456-.532 1.051-.608 1.786a34.77 34.77 0 00-.076 2.356v6.878c0 .811.026 1.596.076 2.356.076.735.279 1.33.608 1.786.33.456.887.684 1.672.684zM760.143 505v-21.964h4.066v9.234h5.206v-9.234h4.066V505h-4.066v-9.766h-5.206V505h-4.066zm24.661.304c-1.722 0-3.052-.329-3.99-.988-.937-.684-1.596-1.672-1.976-2.964-.354-1.317-.532-2.926-.532-4.826v-5.016c0-1.951.19-3.572.57-4.864.38-1.292 1.039-2.267 1.976-2.926.963-.659 2.28-.988 3.952-.988 1.85 0 3.205.38 4.066 1.14.887.76 1.47 1.862 1.748 3.306.279 1.419.418 3.129.418 5.13v1.786h-8.664v4.408c0 .887.076 1.609.228 2.166.178.557.444.975.798 1.254.38.253.862.38 1.444.38.608 0 1.064-.139 1.368-.418.33-.304.545-.722.646-1.254.127-.557.19-1.203.19-1.938v-1.33h3.952v.836c0 2.204-.468 3.939-1.406 5.206-.937 1.267-2.533 1.9-4.788 1.9zm-2.432-13.414h4.674v-1.976c0-.912-.05-1.672-.152-2.28-.101-.633-.316-1.102-.646-1.406-.304-.329-.798-.494-1.482-.494-.658 0-1.165.152-1.52.456-.329.304-.557.823-.684 1.558-.126.709-.19 1.697-.19 2.964v1.178zM793.958 505l5.51-11.21-5.168-10.754h3.876l4.674 10.564h.304v-10.564h3.344V493.6h.304l4.636-10.564h3.876l-5.168 10.754 5.51 11.21h-3.762l-5.092-10.792h-.304V505h-3.344v-10.792h-.342L797.72 505h-3.762zm31.05.304c-1.798 0-3.166-.355-4.104-1.064-.912-.735-1.532-1.761-1.862-3.078-.304-1.317-.456-2.85-.456-4.598v-5.054c0-1.849.165-3.42.494-4.712.33-1.317.95-2.318 1.862-3.002.938-.709 2.293-1.064 4.066-1.064 1.596 0 2.825.266 3.686.798.887.507 1.495 1.279 1.824 2.318.33 1.013.494 2.28.494 3.8v1.292h-3.686v-1.33c0-.963-.063-1.723-.19-2.28-.126-.557-.354-.963-.684-1.216-.329-.253-.798-.38-1.406-.38-.658 0-1.165.152-1.52.456-.354.304-.595.823-.722 1.558-.101.709-.152 1.685-.152 2.926v6.916c0 1.875.178 3.129.532 3.762.355.633.988.95 1.9.95.684 0 1.178-.152 1.482-.456.33-.329.532-.785.608-1.368.102-.583.152-1.241.152-1.976v-1.786h3.686v1.52c0 1.469-.177 2.736-.532 3.8-.329 1.064-.937 1.875-1.824 2.432-.861.557-2.077.836-3.648.836zm10.759-.304v-21.964h4.066v9.272h1.14l4.142-9.272h4.18l-4.598 10.64L849.371 505h-4.256l-4.142-10.26h-1.14V505h-4.066zm16.912 0v-21.964h3.42v14.782l6.612-14.782h3.192V505h-3.344v-14.896L855.985 505h-3.306zm18.507 0v-21.964h3.42v14.782l6.612-14.782h3.192V505h-3.344v-14.896L874.492 505h-3.306zm6.726-24.358c-1.824 0-3.116-.494-3.876-1.482-.735-.988-1.102-2.217-1.102-3.686h2.356c.025.912.228 1.621.608 2.128.405.481 1.077.722 2.014.722.963 0 1.634-.253 2.014-.76.405-.507.608-1.203.608-2.09h2.394c0 1.469-.38 2.698-1.14 3.686-.735.988-2.027 1.482-3.876 1.482zM737.341 561.22v-8.436h-.38c-.836 0-1.697-.101-2.584-.304a6.814 6.814 0 01-2.47-1.216c-.76-.583-1.381-1.431-1.862-2.546-.456-1.115-.684-2.559-.684-4.332v-3.952c0-1.419.19-2.635.57-3.648.405-1.013.95-1.837 1.634-2.47a6.655 6.655 0 012.394-1.444 9.074 9.074 0 012.888-.456h.494v-9.196h3.762v9.196h.646c1.343 0 2.571.279 3.686.836 1.115.532 2.001 1.393 2.66 2.584.684 1.165 1.026 2.698 1.026 4.598v3.952c0 1.773-.228 3.217-.684 4.332-.456 1.115-1.064 1.963-1.824 2.546a6.465 6.465 0 01-2.432 1.216 11.07 11.07 0 01-2.546.304h-.532v8.436h-3.762zm-.266-11.324h.266v-14.82h-.38c-.785 0-1.469.127-2.052.38s-1.039.722-1.368 1.406c-.329.684-.494 1.672-.494 2.964v4.522c0 1.469.152 2.609.456 3.42.304.785.76 1.343 1.368 1.672.608.304 1.343.456 2.204.456zm4.028 0h.228c.887 0 1.634-.152 2.242-.456.608-.329 1.064-.887 1.368-1.672.329-.811.494-1.951.494-3.42v-4.522c0-1.292-.165-2.28-.494-2.964-.329-.684-.798-1.153-1.406-1.406-.583-.253-1.279-.38-2.09-.38h-.342v14.82zM753.964 554v-21.964h3.42v14.782l6.612-14.782h3.192V554h-3.344v-14.896L757.27 554h-3.306zm17.101.19v-3.078c.76 0 1.356-.152 1.786-.456.456-.304.798-.811 1.026-1.52.254-.735.444-1.71.57-2.926.127-1.241.241-2.787.342-4.636l.494-9.538h11.514V554h-4.066v-18.886h-3.876l-.342 6.46c-.126 2.508-.316 4.585-.57 6.232-.228 1.647-.595 2.939-1.102 3.876-.506.912-1.19 1.558-2.052 1.938-.836.38-1.925.57-3.268.57h-.456zm20.99-.19v-21.964h3.42v14.782l6.612-14.782h3.192V554h-3.344v-14.896L795.361 554h-3.306zm22.459.304c-.862 0-1.622-.241-2.28-.722a5.42 5.42 0 01-1.558-1.9 5.602 5.602 0 01-.57-2.47c0-1.368.228-2.521.684-3.458a6.802 6.802 0 011.862-2.356 13.072 13.072 0 012.774-1.71 70.083 70.083 0 013.344-1.406v-1.558c0-.887-.051-1.621-.152-2.204-.102-.583-.317-1.013-.646-1.292-.304-.304-.773-.456-1.406-.456-.558 0-1.014.127-1.368.38-.33.253-.57.621-.722 1.102-.152.456-.228 1.001-.228 1.634v1.102l-4.028-.152c.05-2.432.608-4.218 1.672-5.358 1.064-1.165 2.71-1.748 4.94-1.748 2.178 0 3.724.595 4.636 1.786.912 1.191 1.368 2.913 1.368 5.168v10.032c0 .684.012 1.343.038 1.976.05.633.101 1.229.152 1.786.076.532.139 1.039.19 1.52h-3.724a86.008 86.008 0 00-.304-1.52 28.345 28.345 0 01-.228-1.71c-.254.861-.748 1.672-1.482 2.432-.71.735-1.698 1.102-2.964 1.102zm1.596-3.496c.405 0 .785-.114 1.14-.342.354-.228.671-.481.95-.76.278-.304.468-.545.57-.722v-6.232c-.634.355-1.229.709-1.786 1.064a9.917 9.917 0 00-1.482 1.14c-.406.38-.735.823-.988 1.33-.228.481-.342 1.039-.342 1.672 0 .887.164 1.583.494 2.09.329.507.81.76 1.444.76zm10.365 3.382v-3.078c.76 0 1.356-.152 1.786-.456.456-.304.798-.811 1.026-1.52.254-.735.444-1.71.57-2.926.127-1.241.241-2.787.342-4.636l.494-9.538h11.514V554h-4.066v-18.886h-3.876l-.342 6.46c-.126 2.508-.316 4.585-.57 6.232-.228 1.647-.595 2.939-1.102 3.876-.506.912-1.19 1.558-2.052 1.938-.836.38-1.925.57-3.268.57h-.456zm309.655-241.06c2.96 0 5.15.58 6.57 1.74 1.42 1.14 2.13 2.7 2.13 4.68 0 1.26-.31 2.4-.93 3.42-.62 1.02-1.55 1.83-2.79 2.43-1.24.6-2.77.9-4.59.9-1.5 0-2.95-.21-4.35-.63-1.4-.44-2.58-1.04-3.54-1.8l1.65-3.03c.78.64 1.71 1.15 2.79 1.53 1.1.36 2.23.54 3.39.54 1.38 0 2.46-.28 3.24-.84.8-.58 1.2-1.37 1.2-2.37 0-1.08-.43-1.89-1.29-2.43-.84-.56-2.29-.84-4.35-.84h-5.07l1.08-11.43h12.33v3.27h-9.03l-.45 4.86h2.01zm-63.14 89.17c-1.68 0-3.18-.42-4.5-1.26-1.32-.86-2.36-2.1-3.12-3.72-.76-1.64-1.14-3.58-1.14-5.82s.38-4.17 1.14-5.79c.76-1.64 1.8-2.88 3.12-3.72 1.32-.86 2.82-1.29 4.5-1.29 1.68 0 3.18.43 4.5 1.29 1.34.84 2.39 2.08 3.15 3.72.76 1.62 1.14 3.55 1.14 5.79s-.38 4.18-1.14 5.82c-.76 1.62-1.81 2.86-3.15 3.72-1.32.84-2.82 1.26-4.5 1.26zm0-3.39c1.5 0 2.68-.62 3.54-1.86.88-1.24 1.32-3.09 1.32-5.55s-.44-4.31-1.32-5.55c-.86-1.24-2.04-1.86-3.54-1.86-1.48 0-2.66.62-3.54 1.86-.86 1.24-1.29 3.09-1.29 5.55s.43 4.31 1.29 5.55c.88 1.24 2.06 1.86 3.54 1.86z"/><path fill="#FB9B2B" d="M1105 423h-64v4h64z"/><path fill="#FFDD85" d="M1169 347h-64v80h64z"/><path fill="#fff" d="M1094.27 427.344l10.56-10.56 10.559 10.56-10.56 10.56zM1017.62 505v-30.78h3.8v21.318l9.01-21.318h3.08V505h-3.77v-21.66l-8.93 21.66h-3.19zm21.51 0v-21.964h6.15c1.5 0 2.66.253 3.5.76.86.481 1.47 1.127 1.82 1.938.38.785.59 1.634.61 2.546.03 1.089-.15 2.065-.53 2.926-.38.861-1.17 1.469-2.36 1.824.92.177 1.61.557 2.09 1.14.51.557.85 1.229 1.03 2.014.2.785.3 1.596.3 2.432 0 1.267-.19 2.381-.57 3.344-.35.963-.98 1.71-1.9 2.242-.88.532-2.15.798-3.8.798h-6.34zm3.99-3.078h1.44c.58 0 1.12-.076 1.6-.228.48-.177.86-.519 1.14-1.026.3-.507.45-1.241.45-2.204 0-1.14-.14-1.963-.41-2.47-.26-.532-.61-.861-1.07-.988-.43-.127-.94-.19-1.52-.19h-1.63v7.106zm0-10.032h1.97c.79 0 1.41-.228 1.87-.684.45-.456.68-1.267.68-2.432 0-1.039-.27-1.761-.8-2.166s-1.25-.608-2.16-.608h-1.56v5.89zm16.87 13.414c-.86 0-1.62-.241-2.28-.722a5.415 5.415 0 01-1.56-1.9 5.602 5.602 0 01-.57-2.47c0-1.368.23-2.521.69-3.458a6.683 6.683 0 011.86-2.356c.81-.659 1.73-1.229 2.77-1.71a71.24 71.24 0 013.35-1.406v-1.558c0-.887-.05-1.621-.15-2.204-.11-.583-.32-1.013-.65-1.292-.3-.304-.77-.456-1.41-.456-.55 0-1.01.127-1.36.38-.33.253-.57.621-.73 1.102-.15.456-.22 1.001-.22 1.634v1.102l-4.03-.152c.05-2.432.61-4.218 1.67-5.358 1.06-1.165 2.71-1.748 4.94-1.748 2.18 0 3.72.595 4.64 1.786.91 1.191 1.36 2.913 1.36 5.168v10.032c0 .684.02 1.343.04 1.976.05.633.1 1.229.15 1.786.08.532.14 1.039.19 1.52h-3.72l-.3-1.52c-.11-.633-.18-1.203-.23-1.71-.26.861-.75 1.672-1.48 2.432-.71.735-1.7 1.102-2.97 1.102zm1.6-3.496c.4 0 .78-.114 1.14-.342.35-.228.67-.481.95-.76.28-.304.47-.545.57-.722v-6.232c-.64.355-1.23.709-1.79 1.064-.56.355-1.05.735-1.48 1.14-.41.38-.74.823-.99 1.33-.23.481-.34 1.039-.34 1.672 0 .887.16 1.583.49 2.09.33.507.81.76 1.45.76zm11.77 3.192v-21.964h4.06v9.234h5.21v-9.234h4.07V505h-4.07v-9.766h-5.21V505h-4.06zm24.62.304c-1.62 0-2.9-.329-3.84-.988-.93-.659-1.6-1.596-2.01-2.812-.38-1.216-.57-2.647-.57-4.294v-6.384c0-1.647.19-3.078.57-4.294.41-1.216 1.08-2.153 2.01-2.812.94-.659 2.22-.988 3.84-.988 1.62 0 2.89.329 3.8.988.94.659 1.6 1.596 1.98 2.812.4 1.216.61 2.647.61 4.294v6.384c0 1.647-.21 3.078-.61 4.294-.38 1.216-1.04 2.153-1.98 2.812-.91.659-2.18.988-3.8.988zm0-3.002c.79 0 1.33-.228 1.64-.684.33-.456.52-1.051.57-1.786.07-.76.11-1.545.11-2.356v-6.878c0-.836-.04-1.621-.11-2.356-.05-.735-.24-1.33-.57-1.786-.31-.481-.85-.722-1.64-.722-.78 0-1.34.241-1.67.722-.33.456-.53 1.051-.61 1.786-.05.735-.07 1.52-.07 2.356v6.878c0 .811.02 1.596.07 2.356.08.735.28 1.33.61 1.786.33.456.89.684 1.67.684zm11.24 2.698v-21.964h6.16c1.49 0 2.66.253 3.49.76.87.481 1.47 1.127 1.83 1.938.38.785.58 1.634.61 2.546.02 1.089-.16 2.065-.54 2.926-.38.861-1.16 1.469-2.35 1.824.91.177 1.61.557 2.09 1.14.51.557.85 1.229 1.02 2.014.21.785.31 1.596.31 2.432 0 1.267-.19 2.381-.57 3.344-.36.963-.99 1.71-1.9 2.242-.89.532-2.15.798-3.8.798h-6.35zm3.99-3.078h1.45c.58 0 1.11-.076 1.59-.228.48-.177.86-.519 1.14-1.026.31-.507.46-1.241.46-2.204 0-1.14-.14-1.963-.42-2.47-.25-.532-.61-.861-1.06-.988-.43-.127-.94-.19-1.52-.19h-1.64v7.106zm0-10.032h1.98c.78 0 1.4-.228 1.86-.684.46-.456.68-1.267.68-2.432 0-1.039-.26-1.761-.79-2.166-.54-.405-1.26-.608-2.17-.608h-1.56v5.89zm18.93 13.414c-1.8 0-3.17-.355-4.11-1.064-.91-.735-1.53-1.761-1.86-3.078-.3-1.317-.45-2.85-.45-4.598v-5.054c0-1.849.16-3.42.49-4.712.33-1.317.95-2.318 1.86-3.002.94-.709 2.3-1.064 4.07-1.064 1.59 0 2.82.266 3.68.798.89.507 1.5 1.279 1.83 2.318.33 1.013.49 2.28.49 3.8v1.292h-3.68v-1.33c0-.963-.07-1.723-.19-2.28-.13-.557-.36-.963-.69-1.216-.33-.253-.8-.38-1.4-.38-.66 0-1.17.152-1.52.456-.36.304-.6.823-.73 1.558-.1.709-.15 1.685-.15 2.926v6.916c0 1.875.18 3.129.53 3.762.36.633.99.95 1.9.95.69 0 1.18-.152 1.49-.456.33-.329.53-.785.6-1.368.11-.583.16-1.241.16-1.976v-1.786h3.68v1.52c0 1.469-.17 2.736-.53 3.8-.33 1.064-.94 1.875-1.82 2.432-.86.557-2.08.836-3.65.836zm10.76-.304v-21.964h4.06v9.272h1.14l4.15-9.272h4.18l-4.6 10.64L1156.5 505h-4.25l-4.15-10.26h-1.14V505h-4.06zm16.91 0v-21.964h3.42v14.782l6.61-14.782h3.19V505h-3.34v-14.896L1163.11 505h-3.3zm18.51 0v-21.964h3.42v14.782l6.61-14.782h3.19V505h-3.34v-14.896L1181.62 505h-3.3zm6.72-24.358c-1.82 0-3.11-.494-3.87-1.482-.74-.988-1.11-2.217-1.11-3.686h2.36c.03.912.23 1.621.61 2.128.4.481 1.07.722 2.01.722.96 0 1.64-.253 2.02-.76.4-.507.6-1.203.6-2.09h2.4c0 1.469-.38 2.698-1.14 3.686-.74.988-2.03 1.482-3.88 1.482zm-128.7 80.578v-8.436h-.38c-.83 0-1.7-.101-2.58-.304a6.79 6.79 0 01-2.47-1.216c-.76-.583-1.38-1.431-1.86-2.546-.46-1.115-.69-2.559-.69-4.332v-3.952c0-1.419.19-2.635.57-3.648.41-1.013.95-1.837 1.64-2.47.7-.659 1.5-1.14 2.39-1.444a9.046 9.046 0 012.89-.456h.49v-9.196h3.76v9.196h.65c1.34 0 2.57.279 3.69.836 1.11.532 2 1.393 2.66 2.584.68 1.165 1.02 2.698 1.02 4.598v3.952c0 1.773-.23 3.217-.68 4.332-.46 1.115-1.07 1.963-1.83 2.546-.73.583-1.54.988-2.43 1.216-.86.203-1.71.304-2.54.304h-.54v8.436h-3.76zm-.26-11.324h.26v-14.82h-.38c-.78 0-1.47.127-2.05.38-.58.253-1.04.722-1.37 1.406-.33.684-.49 1.672-.49 2.964v4.522c0 1.469.15 2.609.45 3.42.31.785.76 1.343 1.37 1.672.61.304 1.34.456 2.21.456zm4.02 0h.23c.89 0 1.64-.152 2.24-.456.61-.329 1.07-.887 1.37-1.672.33-.811.5-1.951.5-3.42v-4.522c0-1.292-.17-2.28-.5-2.964-.33-.684-.8-1.153-1.4-1.406-.59-.253-1.28-.38-2.09-.38h-.35v14.82zm12.86 4.104v-21.964h3.42v14.782l6.62-14.782h3.19V554h-3.35v-14.896L1076.27 554h-3.31zm17.11.19v-3.078c.76 0 1.35-.152 1.78-.456.46-.304.8-.811 1.03-1.52.25-.735.44-1.71.57-2.926.12-1.241.24-2.787.34-4.636l.49-9.538h11.52V554h-4.07v-18.886h-3.87l-.35 6.46c-.12 2.508-.31 4.585-.57 6.232-.22 1.647-.59 2.939-1.1 3.876-.51.912-1.19 1.558-2.05 1.938-.84.38-1.93.57-3.27.57h-.45zm20.98-.19v-21.964h3.42v14.782l6.62-14.782h3.19V554h-3.35v-14.896L1114.36 554h-3.31zm22.46.304c-.86 0-1.62-.241-2.28-.722a5.498 5.498 0 01-1.55-1.9 5.602 5.602 0 01-.57-2.47c0-1.368.22-2.521.68-3.458a6.915 6.915 0 011.86-2.356c.81-.659 1.74-1.229 2.78-1.71 1.06-.481 2.17-.95 3.34-1.406v-1.558c0-.887-.05-1.621-.15-2.204-.1-.583-.32-1.013-.65-1.292-.3-.304-.77-.456-1.4-.456-.56 0-1.02.127-1.37.38-.33.253-.57.621-.72 1.102-.16.456-.23 1.001-.23 1.634v1.102l-4.03-.152c.05-2.432.61-4.218 1.67-5.358 1.07-1.165 2.71-1.748 4.94-1.748 2.18 0 3.73.595 4.64 1.786.91 1.191 1.37 2.913 1.37 5.168v10.032c0 .684.01 1.343.03 1.976.05.633.11 1.229.16 1.786.07.532.14 1.039.19 1.52h-3.73c-.07-.405-.18-.912-.3-1.52a30.2 30.2 0 01-.23-1.71c-.25.861-.75 1.672-1.48 2.432-.71.735-1.7 1.102-2.97 1.102zm1.6-3.496c.41 0 .79-.114 1.14-.342.35-.228.67-.481.95-.76.28-.304.47-.545.57-.722v-6.232c-.63.355-1.23.709-1.79 1.064-.55.355-1.05.735-1.48 1.14-.4.38-.73.823-.99 1.33a3.985 3.985 0 00-.34 1.672c0 .887.17 1.583.5 2.09.33.507.81.76 1.44.76zm10.37 3.382v-3.078c.76 0 1.35-.152 1.78-.456.46-.304.8-.811 1.03-1.52.25-.735.44-1.71.57-2.926.12-1.241.24-2.787.34-4.636l.49-9.538h11.52V554h-4.07v-18.886h-3.87l-.35 6.46c-.12 2.508-.31 4.585-.57 6.232-.22 1.647-.59 2.939-1.1 3.876-.51.912-1.19 1.558-2.05 1.938-.84.38-1.93.57-3.27.57h-.45zM1454 240.7c2.88 0 5.11.9 6.69 2.7 1.6 1.8 2.4 4.38 2.4 7.74 0 2.36-.43 4.38-1.29 6.06-.86 1.66-2.07 2.93-3.63 3.81-1.54.86-3.33 1.29-5.37 1.29-1.08 0-2.1-.11-3.06-.33-.94-.24-1.76-.58-2.46-1.02l1.44-2.94c1.04.68 2.37 1.02 3.99 1.02 2.02 0 3.6-.62 4.74-1.86 1.14-1.24 1.71-3.03 1.71-5.37v-.03c-.62.72-1.41 1.27-2.37 1.65-.96.36-2.04.54-3.24.54-1.38 0-2.62-.26-3.72-.78-1.1-.54-1.96-1.3-2.58-2.28-.62-.98-.93-2.11-.93-3.39 0-1.36.34-2.55 1.02-3.57.68-1.04 1.6-1.84 2.76-2.4 1.16-.56 2.46-.84 3.9-.84zm.3 10.2c1.26 0 2.28-.34 3.06-1.02.8-.68 1.2-1.54 1.2-2.58 0-1.02-.39-1.86-1.17-2.52-.76-.68-1.82-1.02-3.18-1.02-1.22 0-2.21.33-2.97.99-.76.64-1.14 1.5-1.14 2.58 0 1.1.38 1.97 1.14 2.61.76.64 1.78.96 3.06.96zm-63.17 62.23c2.96 0 5.15.58 6.57 1.74 1.42 1.14 2.13 2.7 2.13 4.68 0 1.26-.31 2.4-.93 3.42-.62 1.02-1.55 1.83-2.79 2.43-1.24.6-2.77.9-4.59.9-1.5 0-2.95-.21-4.35-.63-1.4-.44-2.58-1.04-3.54-1.8l1.65-3.03c.78.64 1.71 1.15 2.79 1.53 1.1.36 2.23.54 3.39.54 1.38 0 2.46-.28 3.24-.84.8-.58 1.2-1.37 1.2-2.37 0-1.08-.43-1.89-1.29-2.43-.84-.56-2.29-.84-4.35-.84h-5.07l1.08-11.43h12.33v3.27h-9.03l-.45 4.86h2.01z"/><path fill="#FB9B2B" d="M1424 347h-64v80h64z"/><path fill="#FFDD85" d="M1488 283h-64v144h64z"/><path fill="#fff" d="M1413.27 427.344l10.56-10.56 10.559 10.56-10.56 10.56zM1309.67 505v-30.78h4.3v13.68h1.59l5.51-13.68h4.3l-6.08 14.63 6.84 16.15h-4.3l-6.23-15.01h-1.63V505h-4.3zm20.1 7.22v-29.184h4.06v1.748a7.247 7.247 0 011.75-1.444c.69-.405 1.5-.608 2.43-.608 1.14 0 2.04.304 2.7.912.69.583 1.19 1.33 1.52 2.242.33.887.55 1.799.65 2.736.1.912.15 1.697.15 2.356v5.32c0 1.545-.15 3.015-.46 4.408-.3 1.368-.86 2.483-1.67 3.344-.78.836-1.9 1.254-3.34 1.254-.79 0-1.48-.19-2.09-.57a9.825 9.825 0 01-1.64-1.368v8.854h-4.06zm6.99-10.108c.71 0 1.22-.253 1.52-.76.3-.532.49-1.241.57-2.128.08-.887.11-1.862.11-2.926v-5.32c0-.912-.05-1.748-.15-2.508-.1-.785-.31-1.406-.64-1.862-.33-.456-.85-.684-1.56-.684-.53 0-1.04.114-1.52.342-.48.228-.9.494-1.26.798v14.06c.38.279.81.519 1.3.722.48.177 1.02.266 1.63.266zm15.06 3.192c-.86 0-1.62-.241-2.28-.722a5.415 5.415 0 01-1.56-1.9 5.602 5.602 0 01-.57-2.47c0-1.368.23-2.521.69-3.458a6.683 6.683 0 011.86-2.356c.81-.659 1.73-1.229 2.77-1.71a71.24 71.24 0 013.35-1.406v-1.558c0-.887-.06-1.621-.16-2.204-.1-.583-.31-1.013-.64-1.292-.31-.304-.78-.456-1.41-.456-.56 0-1.01.127-1.37.38-.33.253-.57.621-.72 1.102-.15.456-.23 1.001-.23 1.634v1.102l-4.02-.152c.05-2.432.6-4.218 1.67-5.358 1.06-1.165 2.71-1.748 4.94-1.748 2.18 0 3.72.595 4.63 1.786.92 1.191 1.37 2.913 1.37 5.168v10.032c0 .684.01 1.343.04 1.976.05.633.1 1.229.15 1.786.08.532.14 1.039.19 1.52h-3.72c-.08-.405-.18-.912-.31-1.52-.1-.633-.17-1.203-.22-1.71-.26.861-.75 1.672-1.49 2.432-.71.735-1.69 1.102-2.96 1.102zm1.6-3.496c.4 0 .78-.114 1.14-.342.35-.228.67-.481.95-.76.27-.304.46-.545.57-.722v-6.232c-.64.355-1.23.709-1.79 1.064-.56.355-1.05.735-1.48 1.14-.41.38-.74.823-.99 1.33-.23.481-.34 1.039-.34 1.672 0 .887.16 1.583.49 2.09.33.507.81.76 1.45.76zm17.77 3.496c-1.8 0-3.17-.355-4.1-1.064-.92-.735-1.54-1.761-1.87-3.078-.3-1.317-.45-2.85-.45-4.598v-5.054c0-1.849.16-3.42.49-4.712.33-1.317.95-2.318 1.86-3.002.94-.709 2.3-1.064 4.07-1.064 1.6 0 2.83.266 3.69.798.88.507 1.49 1.279 1.82 2.318.33 1.013.49 2.28.49 3.8v1.292h-3.68v-1.33c0-.963-.06-1.723-.19-2.28-.13-.557-.36-.963-.69-1.216-.32-.253-.79-.38-1.4-.38-.66 0-1.17.152-1.52.456-.36.304-.6.823-.72 1.558-.1.709-.16 1.685-.16 2.926v6.916c0 1.875.18 3.129.54 3.762.35.633.98.95 1.9.95.68 0 1.17-.152 1.48-.456.33-.329.53-.785.61-1.368.1-.583.15-1.241.15-1.976v-1.786h3.68v1.52c0 1.469-.17 2.736-.53 3.8-.33 1.064-.93 1.875-1.82 2.432-.86.557-2.08.836-3.65.836zm10.76-.304v-21.964h4.07v9.234h5.2v-9.234h4.07V505h-4.07v-9.766h-5.2V505h-4.07zm24.62.304c-1.62 0-2.9-.329-3.83-.988-.94-.659-1.61-1.596-2.02-2.812-.38-1.216-.57-2.647-.57-4.294v-6.384c0-1.647.19-3.078.57-4.294.41-1.216 1.08-2.153 2.02-2.812.93-.659 2.21-.988 3.83-.988s2.89.329 3.8.988c.94.659 1.6 1.596 1.98 2.812.4 1.216.61 2.647.61 4.294v6.384c0 1.647-.21 3.078-.61 4.294-.38 1.216-1.04 2.153-1.98 2.812-.91.659-2.18.988-3.8.988zm0-3.002c.79 0 1.33-.228 1.64-.684.33-.456.52-1.051.57-1.786.07-.76.11-1.545.11-2.356v-6.878c0-.836-.04-1.621-.11-2.356-.05-.735-.24-1.33-.57-1.786-.31-.481-.85-.722-1.64-.722-.78 0-1.34.241-1.67.722-.33.456-.53 1.051-.61 1.786-.05.735-.07 1.52-.07 2.356v6.878c0 .811.02 1.596.07 2.356.08.735.28 1.33.61 1.786.33.456.89.684 1.67.684zm9.27 8.284v-8.284c.76-.583 1.45-1.279 2.09-2.09.63-.811 1.19-1.837 1.67-3.078.48-1.241.86-2.774 1.14-4.598.28-1.824.43-4.028.46-6.612l.07-2.888h9.92v19.076h2.66v8.474h-2.96l-.35-5.586h-11.4l-.34 5.586h-2.96zm3.95-8.474h7.49v-16.15h-2.85l-.08.798c-.03 2.685-.16 4.927-.42 6.726-.23 1.773-.56 3.23-.99 4.37-.4 1.115-.88 2.001-1.44 2.66-.53.659-1.1 1.191-1.71 1.596zm21.97 3.192c-.86 0-1.62-.241-2.28-.722a5.415 5.415 0 01-1.56-1.9 5.602 5.602 0 01-.57-2.47c0-1.368.23-2.521.68-3.458a6.823 6.823 0 011.87-2.356c.81-.659 1.73-1.229 2.77-1.71 1.06-.481 2.18-.95 3.34-1.406v-1.558c0-.887-.05-1.621-.15-2.204-.1-.583-.32-1.013-.64-1.292-.31-.304-.78-.456-1.41-.456-.56 0-1.01.127-1.37.38-.33.253-.57.621-.72 1.102-.15.456-.23 1.001-.23 1.634v1.102l-4.03-.152c.05-2.432.61-4.218 1.68-5.358 1.06-1.165 2.71-1.748 4.94-1.748 2.17 0 3.72.595 4.63 1.786.91 1.191 1.37 2.913 1.37 5.168v10.032c0 .684.01 1.343.04 1.976.05.633.1 1.229.15 1.786.08.532.14 1.039.19 1.52h-3.72c-.08-.405-.18-.912-.31-1.52a30.2 30.2 0 01-.23-1.71c-.25.861-.74 1.672-1.48 2.432-.71.735-1.7 1.102-2.96 1.102zm1.59-3.496c.41 0 .79-.114 1.14-.342.36-.228.67-.481.95-.76.28-.304.47-.545.57-.722v-6.232c-.63.355-1.23.709-1.78 1.064-.56.355-1.05.735-1.48 1.14-.41.38-.74.823-.99 1.33-.23.481-.34 1.039-.34 1.672 0 .887.16 1.583.49 2.09.33.507.81.76 1.44.76zm11.77 10.412v-29.184h4.07v1.748a6.883 6.883 0 011.75-1.444c.68-.405 1.49-.608 2.43-.608 1.14 0 2.04.304 2.7.912.68.583 1.19 1.33 1.52 2.242.33.887.54 1.799.64 2.736.11.912.16 1.697.16 2.356v5.32c0 1.545-.16 3.015-.46 4.408-.3 1.368-.86 2.483-1.67 3.344-.79.836-1.9 1.254-3.35 1.254-.78 0-1.48-.19-2.09-.57a9.75 9.75 0 01-1.63-1.368v8.854h-4.07zm7-10.108c.71 0 1.21-.253 1.52-.76.3-.532.49-1.241.57-2.128.07-.887.11-1.862.11-2.926v-5.32c0-.912-.05-1.748-.15-2.508-.1-.785-.32-1.406-.65-1.862-.33-.456-.85-.684-1.56-.684-.53 0-1.03.114-1.52.342-.48.228-.89.494-1.25.798v14.06c.38.279.81.519 1.29.722.48.177 1.03.266 1.64.266zm17.11 3.192c-1.8 0-3.17-.355-4.11-1.064-.91-.735-1.53-1.761-1.86-3.078-.3-1.317-.45-2.85-.45-4.598v-5.054c0-1.849.16-3.42.49-4.712.33-1.317.95-2.318 1.86-3.002.94-.709 2.29-1.064 4.07-1.064 1.59 0 2.82.266 3.68.798.89.507 1.5 1.279 1.83 2.318.33 1.013.49 2.28.49 3.8v1.292h-3.68v-1.33c0-.963-.07-1.723-.19-2.28-.13-.557-.36-.963-.69-1.216-.33-.253-.8-.38-1.4-.38-.66 0-1.17.152-1.52.456-.36.304-.6.823-.73 1.558-.1.709-.15 1.685-.15 2.926v6.916c0 1.875.18 3.129.53 3.762.36.633.99.95 1.9.95.69 0 1.18-.152 1.49-.456.33-.329.53-.785.6-1.368.11-.583.16-1.241.16-1.976v-1.786h3.68v1.52c0 1.469-.18 2.736-.53 3.8-.33 1.064-.94 1.875-1.82 2.432-.87.557-2.08.836-3.65.836zm10.76-.304v-21.964h4.06v9.272h1.14l4.14-9.272h4.18l-4.59 10.64 4.67 11.324h-4.26l-4.14-10.26h-1.14V505h-4.06zm16.91 0v-21.964h3.42v14.782l6.61-14.782h3.19V505h-3.34v-14.896L1510.2 505h-3.3zm18.51 0v-21.964h3.42v14.782l6.61-14.782h3.19V505h-3.34v-14.896L1528.71 505h-3.3zm6.72-24.358c-1.82 0-3.11-.494-3.87-1.482-.74-.988-1.11-2.217-1.11-3.686h2.36c.03.912.23 1.621.61 2.128.4.481 1.07.722 2.01.722.96 0 1.64-.253 2.02-.76.4-.507.6-1.203.6-2.09h2.4c0 1.469-.38 2.698-1.14 3.686-.74.988-2.03 1.482-3.88 1.482zm-156.79 80.578v-8.436h-.38c-.83 0-1.7-.101-2.58-.304a6.79 6.79 0 01-2.47-1.216c-.76-.583-1.38-1.431-1.86-2.546-.46-1.115-.69-2.559-.69-4.332v-3.952c0-1.419.19-2.635.57-3.648.41-1.013.95-1.837 1.64-2.47.7-.659 1.5-1.14 2.39-1.444a9.046 9.046 0 012.89-.456h.49v-9.196h3.76v9.196h.65c1.34 0 2.57.279 3.69.836 1.11.532 2 1.393 2.66 2.584.68 1.165 1.02 2.698 1.02 4.598v3.952c0 1.773-.23 3.217-.68 4.332-.46 1.115-1.07 1.963-1.83 2.546-.73.583-1.54.988-2.43 1.216-.86.203-1.71.304-2.54.304h-.54v8.436h-3.76zm-.26-11.324h.26v-14.82h-.38c-.78 0-1.47.127-2.05.38-.58.253-1.04.722-1.37 1.406-.33.684-.49 1.672-.49 2.964v4.522c0 1.469.15 2.609.45 3.42.31.785.76 1.343 1.37 1.672.61.304 1.34.456 2.21.456zm4.02 0h.23c.89 0 1.64-.152 2.24-.456.61-.329 1.07-.887 1.37-1.672.33-.811.5-1.951.5-3.42v-4.522c0-1.292-.17-2.28-.5-2.964-.33-.684-.8-1.153-1.4-1.406-.59-.253-1.28-.38-2.09-.38h-.35v14.82zm12.86 4.104v-21.964h3.42v14.782l6.62-14.782h3.19V554h-3.35v-14.896L1395.27 554h-3.31zm17.11.19v-3.078c.76 0 1.35-.152 1.78-.456.46-.304.8-.811 1.03-1.52.25-.735.44-1.71.57-2.926.12-1.241.24-2.787.34-4.636l.49-9.538h11.52V554h-4.07v-18.886h-3.87l-.35 6.46c-.12 2.508-.31 4.585-.57 6.232-.22 1.647-.59 2.939-1.1 3.876-.51.912-1.19 1.558-2.05 1.938-.84.38-1.93.57-3.27.57h-.45zm20.98-.19v-21.964h3.42v14.782l6.62-14.782h3.19V554h-3.35v-14.896L1433.36 554h-3.31zm22.46.304c-.86 0-1.62-.241-2.28-.722a5.498 5.498 0 01-1.55-1.9 5.602 5.602 0 01-.57-2.47c0-1.368.22-2.521.68-3.458a6.915 6.915 0 011.86-2.356c.81-.659 1.74-1.229 2.78-1.71 1.06-.481 2.17-.95 3.34-1.406v-1.558c0-.887-.05-1.621-.15-2.204-.1-.583-.32-1.013-.65-1.292-.3-.304-.77-.456-1.4-.456-.56 0-1.02.127-1.37.38-.33.253-.57.621-.72 1.102-.16.456-.23 1.001-.23 1.634v1.102l-4.03-.152c.05-2.432.61-4.218 1.67-5.358 1.07-1.165 2.71-1.748 4.94-1.748 2.18 0 3.73.595 4.64 1.786.91 1.191 1.37 2.913 1.37 5.168v10.032c0 .684.01 1.343.03 1.976.05.633.11 1.229.16 1.786.07.532.14 1.039.19 1.52h-3.73c-.07-.405-.18-.912-.3-1.52a30.2 30.2 0 01-.23-1.71c-.25.861-.75 1.672-1.48 2.432-.71.735-1.7 1.102-2.97 1.102zm1.6-3.496c.41 0 .79-.114 1.14-.342.35-.228.67-.481.95-.76.28-.304.47-.545.57-.722v-6.232c-.63.355-1.23.709-1.79 1.064-.55.355-1.05.735-1.48 1.14-.4.38-.73.823-.99 1.33a3.985 3.985 0 00-.34 1.672c0 .887.17 1.583.5 2.09.33.507.81.76 1.44.76zm10.37 3.382v-3.078c.76 0 1.35-.152 1.78-.456.46-.304.8-.811 1.03-1.52.25-.735.44-1.71.57-2.926.12-1.241.24-2.787.34-4.636l.49-9.538h11.52V554h-4.07v-18.886h-3.87l-.35 6.46c-.12 2.508-.31 4.585-.57 6.232-.22 1.647-.59 2.939-1.1 3.876-.51.912-1.19 1.558-2.05 1.938-.84.38-1.93.57-3.27.57h-.45zM2101.8 370.7v3.3h-15.48v-2.61l8.34-7.92c.94-.9 1.57-1.68 1.89-2.34.34-.68.51-1.35.51-2.01 0-.98-.33-1.73-.99-2.25-.66-.52-1.63-.78-2.91-.78-2.14 0-3.78.73-4.92 2.19l-2.73-2.1c.82-1.1 1.92-1.95 3.3-2.55 1.4-.62 2.96-.93 4.68-.93 2.28 0 4.1.54 5.46 1.62 1.36 1.08 2.04 2.55 2.04 4.41 0 1.14-.24 2.21-.72 3.21s-1.4 2.14-2.76 3.42l-5.61 5.34h9.9zM820.867 369v21h-3.9v-17.73h-4.44V369h8.34zm1599.933 1.7v3.3h-15.48v-2.61l8.34-7.92c.94-.9 1.57-1.68 1.89-2.34.34-.68.51-1.35.51-2.01 0-.98-.33-1.73-.99-2.25-.66-.52-1.63-.78-2.91-.78-2.14 0-3.78.73-4.92 2.19l-2.73-2.1c.82-1.1 1.92-1.95 3.3-2.55 1.4-.62 2.96-.93 4.68-.93 2.28 0 4.1.54 5.46 1.62 1.36 1.08 2.04 2.55 2.04 4.41 0 1.14-.24 2.21-.72 3.21s-1.4 2.14-2.76 3.42l-5.61 5.34h9.9z"/><path fill="#FFDD85" d="M2126 395h-64v32h64zM850 411h-64v16h64zm1595-16h-64v32h64z"/><path d="M1648.72 505.342c-2.07 0-3.73-.405-4.97-1.216-1.24-.811-2.13-1.963-2.66-3.458-.54-1.52-.8-3.293-.8-5.32v-11.666c0-2.027.26-3.762.8-5.206.55-1.469 1.44-2.584 2.66-3.344 1.24-.785 2.9-1.178 4.97-1.178 2.08 0 3.73.393 4.94 1.178 1.22.785 2.09 1.9 2.63 3.344.55 1.444.83 3.179.83 5.206v11.704c0 2.001-.28 3.749-.83 5.244-.54 1.495-1.41 2.66-2.63 3.496-1.21.811-2.86 1.216-4.94 1.216zm0-3.382c1.14 0 2.01-.228 2.59-.684.58-.481.97-1.14 1.18-1.976.2-.861.3-1.862.3-3.002v-13.49c0-1.14-.1-2.115-.3-2.926-.21-.836-.6-1.469-1.18-1.9-.58-.456-1.45-.684-2.59-.684s-2.01.228-2.62.684c-.58.431-.97 1.064-1.18 1.9-.2.811-.3 1.786-.3 2.926v13.49c0 1.14.1 2.141.3 3.002.21.836.6 1.495 1.18 1.976.61.456 1.48.684 2.62.684zm13.42 10.26v-29.184h4.07v1.748a7.008 7.008 0 011.74-1.444c.69-.405 1.5-.608 2.44-.608 1.14 0 2.04.304 2.69.912.69.583 1.2 1.33 1.52 2.242.33.887.55 1.799.65 2.736.1.912.15 1.697.15 2.356v5.32a20.9 20.9 0 01-.45 4.408c-.31 1.368-.86 2.483-1.68 3.344-.78.836-1.9 1.254-3.34 1.254-.78 0-1.48-.19-2.09-.57a9.364 9.364 0 01-1.63-1.368v8.854h-4.07zm6.99-10.108c.71 0 1.22-.253 1.52-.76.31-.532.5-1.241.57-2.128.08-.887.12-1.862.12-2.926v-5.32c0-.912-.05-1.748-.16-2.508-.1-.785-.31-1.406-.64-1.862-.33-.456-.85-.684-1.56-.684-.53 0-1.04.114-1.52.342-.48.228-.9.494-1.25.798v14.06c.38.279.81.519 1.29.722.48.177 1.02.266 1.63.266zm17.19 3.192c-1.72 0-3.05-.329-3.99-.988-.94-.684-1.6-1.672-1.98-2.964-.35-1.317-.53-2.926-.53-4.826v-5.016c0-1.951.19-3.572.57-4.864.38-1.292 1.04-2.267 1.98-2.926.96-.659 2.28-.988 3.95-.988 1.85 0 3.2.38 4.07 1.14.88.76 1.47 1.862 1.74 3.306.28 1.419.42 3.129.42 5.13v1.786h-8.66v4.408c0 .887.07 1.609.23 2.166.17.557.44.975.79 1.254.38.253.87.38 1.45.38.61 0 1.06-.139 1.37-.418.33-.304.54-.722.64-1.254.13-.557.19-1.203.19-1.938v-1.33h3.95v.836c0 2.204-.46 3.939-1.4 5.206-.94 1.267-2.54 1.9-4.79 1.9zm-2.43-13.414h4.67v-1.976c0-.912-.05-1.672-.15-2.28-.1-.633-.32-1.102-.65-1.406-.3-.329-.79-.494-1.48-.494-.66 0-1.16.152-1.52.456-.33.304-.56.823-.68 1.558-.13.709-.19 1.697-.19 2.964v1.178zm13.48 13.11v-21.964h4.07v9.234h5.21v-9.234h4.06V505h-4.06v-9.766h-5.21V505h-4.07zm24.7.304c-1.26 0-2.37-.279-3.3-.836-.94-.583-1.66-1.431-2.17-2.546-.48-1.14-.72-2.546-.72-4.218v-12.92c0-1.925.14-3.496.42-4.712.3-1.216.77-2.179 1.4-2.888.64-.709 1.46-1.267 2.47-1.672 1.07-.431 2.02-.735 2.85-.912.84-.177 1.64-.367 2.4-.57.78-.228 1.58-.583 2.39-1.064l.84 3.382c-.71.456-1.5.798-2.36 1.026-.83.203-1.67.393-2.51.57-.83.152-1.62.405-2.35.76-.74.355-1.31.899-1.71 1.634-.41.709-.61 1.697-.61 2.964v3.534c.33-.329.76-.633 1.29-.912.53-.304 1.1-.557 1.71-.76a5.857 5.857 0 011.79-.304c.91 0 1.75.241 2.51.722.76.481 1.36 1.305 1.82 2.47.46 1.14.68 2.698.68 4.674v4.18c0 2.305-.29 4.066-.87 5.282-.58 1.191-1.39 2.014-2.43 2.47-1.02.431-2.19.646-3.54.646zm.38-3.002c.56 0 1-.127 1.33-.38.36-.279.61-.722.76-1.33.18-.608.27-1.419.27-2.432v-6.65c0-.937-.06-1.685-.19-2.242-.13-.557-.33-.963-.61-1.216-.28-.279-.66-.418-1.14-.418-.25 0-.54.051-.87.152a4.69 4.69 0 00-.99.38 7.92 7.92 0 00-1.06.608v9.044c0 1.064.07 1.925.22 2.584.18.659.45 1.14.8 1.444.38.304.88.456 1.48.456zm10.97 8.208v-3.116c.98 0 1.77-.051 2.35-.152.58-.076 1-.241 1.26-.494.25-.228.38-.557.38-.988 0-.228-.09-.735-.27-1.52-.18-.785-.37-1.621-.57-2.508l-4.41-18.696h4.11l2.96 16.416 2.85-16.416h4.1l-5.24 23.18c-.23 1.064-.65 1.9-1.25 2.508-.61.633-1.4 1.089-2.36 1.368-.94.279-2.08.418-3.42.418h-.49zm16.36 1.71v-29.184h4.06v1.748a7.247 7.247 0 011.75-1.444c.69-.405 1.5-.608 2.43-.608 1.14 0 2.04.304 2.7.912.69.583 1.19 1.33 1.52 2.242.33.887.55 1.799.65 2.736.1.912.15 1.697.15 2.356v5.32c0 1.545-.15 3.015-.46 4.408-.3 1.368-.86 2.483-1.67 3.344-.78.836-1.9 1.254-3.34 1.254-.79 0-1.48-.19-2.09-.57a9.825 9.825 0 01-1.64-1.368v8.854h-4.06zm6.99-10.108c.71 0 1.22-.253 1.52-.76.3-.532.49-1.241.57-2.128.08-.887.11-1.862.11-2.926v-5.32c0-.912-.05-1.748-.15-2.508-.1-.785-.31-1.406-.64-1.862-.33-.456-.85-.684-1.56-.684-.53 0-1.04.114-1.52.342-.48.228-.9.494-1.26.798v14.06c.38.279.81.519 1.3.722.48.177 1.02.266 1.63.266zm11.11 2.888v-21.964h8.85v2.926h-4.79V505h-4.06zm18.16.304c-1.8 0-3.16-.355-4.1-1.064-.91-.735-1.53-1.761-1.86-3.078-.31-1.317-.46-2.85-.46-4.598v-5.054c0-1.849.17-3.42.49-4.712.33-1.317.95-2.318 1.87-3.002.93-.709 2.29-1.064 4.06-1.064 1.6 0 2.83.266 3.69.798.89.507 1.49 1.279 1.82 2.318.33 1.013.5 2.28.5 3.8v1.292h-3.69v-1.33c0-.963-.06-1.723-.19-2.28-.13-.557-.35-.963-.68-1.216-.33-.253-.8-.38-1.41-.38-.66 0-1.16.152-1.52.456-.35.304-.59.823-.72 1.558-.1.709-.15 1.685-.15 2.926v6.916c0 1.875.17 3.129.53 3.762.35.633.99.95 1.9.95.68 0 1.18-.152 1.48-.456.33-.329.53-.785.61-1.368.1-.583.15-1.241.15-1.976v-1.786h3.69v1.52c0 1.469-.18 2.736-.54 3.8-.32 1.064-.93 1.875-1.82 2.432-.86.557-2.08.836-3.65.836zm10.76-.304v-21.964h4.07v9.272h1.14l4.14-9.272h4.18l-4.6 10.64 4.68 11.324h-4.26l-4.14-10.26h-1.14V505h-4.07zm16.91 0v-21.964h3.42v14.782l6.62-14.782h3.19V505h-3.35v-14.896L1817.02 505h-3.31zm18.51 0v-21.964h3.42v14.782l6.61-14.782h3.19V505h-3.34v-14.896L1835.53 505h-3.31zm6.73-24.358c-1.83 0-3.12-.494-3.88-1.482-.73-.988-1.1-2.217-1.1-3.686h2.35c.03.912.23 1.621.61 2.128.41.481 1.08.722 2.02.722.96 0 1.63-.253 2.01-.76.41-.507.61-1.203.61-2.09h2.39c0 1.469-.38 2.698-1.14 3.686-.73.988-2.02 1.482-3.87 1.482zm-149.52 80.578v-8.436h-.38c-.84 0-1.7-.101-2.58-.304a6.79 6.79 0 01-2.47-1.216c-.76-.583-1.39-1.431-1.87-2.546-.45-1.115-.68-2.559-.68-4.332v-3.952c0-1.419.19-2.635.57-3.648.4-1.013.95-1.837 1.63-2.47a6.661 6.661 0 012.4-1.444 9.046 9.046 0 012.89-.456h.49v-9.196h3.76v9.196h.65c1.34 0 2.57.279 3.68.836 1.12.532 2 1.393 2.66 2.584.69 1.165 1.03 2.698 1.03 4.598v3.952c0 1.773-.23 3.217-.68 4.332-.46 1.115-1.07 1.963-1.83 2.546-.73.583-1.54.988-2.43 1.216-.86.203-1.71.304-2.55.304h-.53v8.436h-3.76zm-.27-11.324h.27v-14.82h-.38c-.79 0-1.47.127-2.05.38-.59.253-1.04.722-1.37 1.406-.33.684-.49 1.672-.49 2.964v4.522c0 1.469.15 2.609.45 3.42.31.785.76 1.343 1.37 1.672.61.304 1.34.456 2.2.456zm4.03 0h.23c.89 0 1.63-.152 2.24-.456.61-.329 1.07-.887 1.37-1.672.33-.811.49-1.951.49-3.42v-4.522c0-1.292-.16-2.28-.49-2.964-.33-.684-.8-1.153-1.41-1.406-.58-.253-1.28-.38-2.09-.38h-.34v14.82zm12.86 4.104v-21.964h3.42v14.782l6.61-14.782h3.2V554h-3.35v-14.896L1709.36 554h-3.31zm17.1.19v-3.078c.76 0 1.36-.152 1.79-.456.46-.304.8-.811 1.03-1.52.25-.735.44-1.71.57-2.926.12-1.241.24-2.787.34-4.636l.49-9.538h11.52V554h-4.07v-18.886h-3.88l-.34 6.46c-.13 2.508-.32 4.585-.57 6.232-.23 1.647-.59 2.939-1.1 3.876-.51.912-1.19 1.558-2.05 1.938-.84.38-1.93.57-3.27.57h-.46zm20.99-.19v-21.964h3.42v14.782l6.61-14.782h3.2V554h-3.35v-14.896L1747.45 554h-3.31zm22.46.304c-.86 0-1.62-.241-2.28-.722a5.415 5.415 0 01-1.56-1.9 5.602 5.602 0 01-.57-2.47c0-1.368.23-2.521.69-3.458a6.683 6.683 0 011.86-2.356c.81-.659 1.74-1.229 2.77-1.71a71.24 71.24 0 013.35-1.406v-1.558c0-.887-.05-1.621-.15-2.204-.11-.583-.32-1.013-.65-1.292-.3-.304-.77-.456-1.41-.456-.55 0-1.01.127-1.36.38-.33.253-.57.621-.73 1.102-.15.456-.22 1.001-.22 1.634v1.102l-4.03-.152c.05-2.432.61-4.218 1.67-5.358 1.06-1.165 2.71-1.748 4.94-1.748 2.18 0 3.72.595 4.64 1.786.91 1.191 1.36 2.913 1.36 5.168v10.032c0 .684.02 1.343.04 1.976.05.633.1 1.229.15 1.786.08.532.14 1.039.19 1.52h-3.72l-.3-1.52c-.11-.633-.18-1.203-.23-1.71-.26.861-.75 1.672-1.48 2.432-.71.735-1.7 1.102-2.97 1.102zm1.6-3.496c.4 0 .78-.114 1.14-.342.35-.228.67-.481.95-.76.28-.304.47-.545.57-.722v-6.232c-.64.355-1.23.709-1.79 1.064-.56.355-1.05.735-1.48 1.14-.41.38-.73.823-.99 1.33-.23.481-.34 1.039-.34 1.672 0 .887.16 1.583.49 2.09.33.507.81.76 1.45.76zm10.36 3.382v-3.078c.76 0 1.36-.152 1.79-.456.46-.304.8-.811 1.03-1.52.25-.735.44-1.71.57-2.926.12-1.241.24-2.787.34-4.636l.49-9.538h11.52V554h-4.07v-18.886h-3.88l-.34 6.46c-.12 2.508-.31 4.585-.57 6.232-.23 1.647-.59 2.939-1.1 3.876-.51.912-1.19 1.558-2.05 1.938-.84.38-1.93.57-3.27.57h-.46zm-5.72-535.49V22h-15.48v-2.61l8.34-7.92c.94-.9 1.57-1.68 1.89-2.34.34-.68.51-1.35.51-2.01 0-.98-.33-1.73-.99-2.25-.66-.52-1.63-.78-2.91-.78-2.14 0-3.78.73-4.92 2.19l-2.73-2.1c.82-1.1 1.92-1.95 3.3-2.55 1.4-.62 2.96-.93 4.68-.93 2.28 0 4.1.54 5.46 1.62 1.36 1.08 2.04 2.55 2.04 4.41 0 1.14-.24 2.21-.72 3.21s-1.4 2.14-2.76 3.42l-5.61 5.34h9.9zm20.53-1.47h-3.72V22h-3.78v-4.77h-11.52v-2.7L1784.7 1h4.17l-9.75 12.93h6.87V9.7h3.66v4.23h3.72v3.3zm-80.91 279.81c1.38 0 2.62.27 3.72.81 1.1.52 1.96 1.27 2.58 2.25.62.98.93 2.11.93 3.39 0 1.36-.34 2.56-1.02 3.6-.68 1.02-1.6 1.81-2.76 2.37-1.16.56-2.46.84-3.9.84-2.88 0-5.12-.9-6.72-2.7-1.58-1.8-2.37-4.38-2.37-7.74 0-2.36.43-4.37 1.29-6.03.86-1.68 2.06-2.95 3.6-3.81 1.56-.88 3.36-1.32 5.4-1.32 1.08 0 2.09.12 3.03.36.96.22 1.79.55 2.49.99l-1.44 2.94c-1.04-.68-2.37-1.02-3.99-1.02-2.02 0-3.6.62-4.74 1.86-1.14 1.24-1.71 3.03-1.71 5.37v.03c.62-.72 1.41-1.26 2.37-1.62.96-.38 2.04-.57 3.24-.57zm-.66 10.2c1.22 0 2.21-.32 2.97-.96.76-.66 1.14-1.53 1.14-2.61 0-1.1-.38-1.97-1.14-2.61-.76-.64-1.78-.96-3.06-.96-1.26 0-2.29.34-3.09 1.02-.78.68-1.17 1.54-1.17 2.58 0 1.02.38 1.87 1.14 2.55.78.66 1.85.99 3.21.99z" fill="#fff"/><path fill="#FB9B2B" d="M1743 331h-64v96h64z"/><path fill="#FFDD85" d="M1807 43h-64v384h64z"/><path fill="#fff" d="M1732.27 427.344l10.56-10.56 10.559 10.56-10.56 10.56zM1989.36 505v-30.78h16.95V505h-4.29v-27.702h-8.36V505h-4.3zm28.63.304c-1.73 0-3.06-.329-3.99-.988-.94-.684-1.6-1.672-1.98-2.964-.35-1.317-.53-2.926-.53-4.826v-5.016c0-1.951.19-3.572.57-4.864.38-1.292 1.04-2.267 1.98-2.926.96-.659 2.28-.988 3.95-.988 1.85 0 3.2.38 4.06 1.14.89.76 1.47 1.862 1.75 3.306.28 1.419.42 3.129.42 5.13v1.786h-8.66v4.408c0 .887.07 1.609.22 2.166.18.557.45.975.8 1.254.38.253.86.38 1.45.38.6 0 1.06-.139 1.36-.418.33-.304.55-.722.65-1.254.13-.557.19-1.203.19-1.938v-1.33h3.95v.836c0 2.204-.47 3.939-1.4 5.206-.94 1.267-2.54 1.9-4.79 1.9zm-2.43-13.414h4.67v-1.976c0-.912-.05-1.672-.15-2.28-.1-.633-.32-1.102-.65-1.406-.3-.329-.8-.494-1.48-.494-.66 0-1.17.152-1.52.456-.33.304-.56.823-.68 1.558-.13.709-.19 1.697-.19 2.964v1.178zm13.48 20.33v-29.184h4.07v1.748a6.883 6.883 0 011.75-1.444c.68-.405 1.49-.608 2.43-.608 1.14 0 2.04.304 2.7.912.68.583 1.19 1.33 1.52 2.242.32.887.54 1.799.64 2.736.1.912.15 1.697.15 2.356v5.32a20.9 20.9 0 01-.45 4.408c-.31 1.368-.86 2.483-1.67 3.344-.79.836-1.9 1.254-3.35 1.254-.78 0-1.48-.19-2.09-.57a9.364 9.364 0 01-1.63-1.368v8.854h-4.07zm6.99-10.108c.71 0 1.22-.253 1.52-.76.31-.532.5-1.241.57-2.128.08-.887.12-1.862.12-2.926v-5.32c0-.912-.05-1.748-.15-2.508-.11-.785-.32-1.406-.65-1.862-.33-.456-.85-.684-1.56-.684-.53 0-1.04.114-1.52.342-.48.228-.9.494-1.25.798v14.06c.38.279.81.519 1.29.722.48.177 1.03.266 1.63.266zm11 2.888l.22-21.964h3.01l4.86 13.49 4.9-13.49h3l.23 21.964h-3.42v-13.11l-4.06 10.944h-1.26l-4.06-10.868V505h-3.42zm27.37.304c-1.8 0-3.17-.355-4.11-1.064-.91-.735-1.53-1.761-1.86-3.078-.3-1.317-.45-2.85-.45-4.598v-5.054c0-1.849.16-3.42.49-4.712.33-1.317.95-2.318 1.86-3.002.94-.709 2.29-1.064 4.07-1.064 1.59 0 2.82.266 3.68.798.89.507 1.5 1.279 1.83 2.318.33 1.013.49 2.28.49 3.8v1.292h-3.68v-1.33c0-.963-.07-1.723-.19-2.28-.13-.557-.36-.963-.69-1.216-.33-.253-.8-.38-1.4-.38-.66 0-1.17.152-1.52.456-.36.304-.6.823-.73 1.558-.1.709-.15 1.685-.15 2.926v6.916c0 1.875.18 3.129.53 3.762.36.633.99.95 1.9.95.69 0 1.18-.152 1.49-.456.33-.329.53-.785.6-1.368.11-.583.16-1.241.16-1.976v-1.786h3.68v1.52c0 1.469-.18 2.736-.53 3.8-.33 1.064-.94 1.875-1.82 2.432-.87.557-2.08.836-3.65.836zm10.76-.304v-21.964h4.06v9.272h1.14l4.14-9.272h4.18l-4.59 10.64 4.67 11.324h-4.26l-4.14-10.26h-1.14V505h-4.06zm16.91 0v-21.964h3.42v14.782l6.61-14.782h3.19V505h-3.34v-14.896L2105.37 505h-3.3zm18.51 0v-21.964h3.42v14.782l6.61-14.782h3.19V505h-3.34v-14.896L2123.88 505h-3.3zm6.72-24.358c-1.82 0-3.11-.494-3.87-1.482-.74-.988-1.11-2.217-1.11-3.686h2.36c.02.912.23 1.621.61 2.128.4.481 1.07.722 2.01.722.96 0 1.64-.253 2.02-.76.4-.507.6-1.203.6-2.09h2.4c0 1.469-.38 2.698-1.14 3.686-.74.988-2.03 1.482-3.88 1.482zm-113.96 80.578v-8.436h-.38c-.83 0-1.7-.101-2.58-.304a6.79 6.79 0 01-2.47-1.216c-.76-.583-1.38-1.431-1.86-2.546-.46-1.115-.69-2.559-.69-4.332v-3.952c0-1.419.19-2.635.57-3.648.41-1.013.95-1.837 1.64-2.47.7-.659 1.5-1.14 2.39-1.444a9.046 9.046 0 012.89-.456h.49v-9.196h3.76v9.196h.65c1.34 0 2.57.279 3.69.836 1.11.532 2 1.393 2.66 2.584.68 1.165 1.02 2.698 1.02 4.598v3.952c0 1.773-.23 3.217-.68 4.332-.46 1.115-1.07 1.963-1.83 2.546-.73.583-1.54.988-2.43 1.216-.86.203-1.71.304-2.54.304h-.54v8.436h-3.76zm-.26-11.324h.26v-14.82h-.38c-.78 0-1.47.127-2.05.38-.58.253-1.04.722-1.37 1.406-.33.684-.49 1.672-.49 2.964v4.522c0 1.469.15 2.609.45 3.42.31.785.76 1.343 1.37 1.672.61.304 1.34.456 2.21.456zm4.02 0h.23c.89 0 1.64-.152 2.24-.456.61-.329 1.07-.887 1.37-1.672.33-.811.5-1.951.5-3.42v-4.522c0-1.292-.17-2.28-.5-2.964-.33-.684-.8-1.153-1.4-1.406-.59-.253-1.28-.38-2.09-.38h-.35v14.82zm12.86 4.104v-21.964h3.42v14.782l6.62-14.782h3.19V554h-3.35v-14.896L2033.27 554h-3.31zm17.11.19v-3.078c.76 0 1.35-.152 1.78-.456.46-.304.8-.811 1.03-1.52.25-.735.44-1.71.57-2.926.12-1.241.24-2.787.34-4.636l.49-9.538h11.52V554h-4.07v-18.886h-3.87l-.35 6.46c-.12 2.508-.31 4.585-.57 6.232-.22 1.647-.59 2.939-1.1 3.876-.51.912-1.19 1.558-2.05 1.938-.84.38-1.93.57-3.27.57h-.45zm20.98-.19v-21.964h3.42v14.782l6.62-14.782h3.19V554h-3.35v-14.896L2071.36 554h-3.31zm22.46.304c-.86 0-1.62-.241-2.28-.722a5.498 5.498 0 01-1.55-1.9 5.602 5.602 0 01-.57-2.47c0-1.368.22-2.521.68-3.458a6.915 6.915 0 011.86-2.356c.81-.659 1.74-1.229 2.78-1.71 1.06-.481 2.17-.95 3.34-1.406v-1.558c0-.887-.05-1.621-.15-2.204-.1-.583-.32-1.013-.65-1.292-.3-.304-.77-.456-1.4-.456-.56 0-1.02.127-1.37.38-.33.253-.57.621-.72 1.102-.16.456-.23 1.001-.23 1.634v1.102l-4.03-.152c.05-2.432.61-4.218 1.67-5.358 1.07-1.165 2.71-1.748 4.94-1.748 2.18 0 3.73.595 4.64 1.786.91 1.191 1.37 2.913 1.37 5.168v10.032c0 .684.01 1.343.03 1.976.05.633.11 1.229.16 1.786.07.532.14 1.039.19 1.52h-3.73c-.07-.405-.18-.912-.3-1.52a30.2 30.2 0 01-.23-1.71c-.25.861-.75 1.672-1.48 2.432-.71.735-1.7 1.102-2.97 1.102zm1.6-3.496c.41 0 .79-.114 1.14-.342.35-.228.67-.481.95-.76.28-.304.47-.545.57-.722v-6.232c-.63.355-1.23.709-1.79 1.064-.55.355-1.05.735-1.48 1.14-.4.38-.73.823-.99 1.33a3.985 3.985 0 00-.34 1.672c0 .887.17 1.583.5 2.09.33.507.81.76 1.44.76zm10.37 3.382v-3.078c.76 0 1.35-.152 1.78-.456.46-.304.8-.811 1.03-1.52.25-.735.44-1.71.57-2.926.12-1.241.24-2.787.34-4.636l.49-9.538h11.52V554h-4.07v-18.886h-3.87l-.35 6.46c-.12 2.508-.31 4.585-.57 6.232-.22 1.647-.59 2.939-1.1 3.876-.51.912-1.19 1.558-2.05 1.938-.84.38-1.93.57-3.27.57h-.45zm-72.49-151.89c-1.68 0-3.18-.42-4.5-1.26-1.32-.86-2.36-2.1-3.12-3.72-.76-1.64-1.14-3.58-1.14-5.82s.38-4.17 1.14-5.79c.76-1.64 1.8-2.88 3.12-3.72 1.32-.86 2.82-1.29 4.5-1.29 1.68 0 3.18.43 4.5 1.29 1.34.84 2.39 2.08 3.15 3.72.76 1.62 1.14 3.55 1.14 5.79s-.38 4.18-1.14 5.82c-.76 1.62-1.81 2.86-3.15 3.72-1.32.84-2.82 1.26-4.5 1.26zm0-3.39c1.5 0 2.68-.62 3.54-1.86.88-1.24 1.32-3.09 1.32-5.55s-.44-4.31-1.32-5.55c-.86-1.24-2.04-1.86-3.54-1.86-1.48 0-2.66.62-3.54 1.86-.86 1.24-1.29 3.09-1.29 5.55s.43 4.31 1.29 5.55c.88 1.24 2.06 1.86 3.54 1.86zM753.987 402.3c-1.68 0-3.18-.42-4.5-1.26-1.32-.86-2.36-2.1-3.12-3.72-.76-1.64-1.14-3.58-1.14-5.82s.38-4.17 1.14-5.79c.76-1.64 1.8-2.88 3.12-3.72 1.32-.86 2.82-1.29 4.5-1.29 1.68 0 3.18.43 4.5 1.29 1.34.84 2.39 2.08 3.15 3.72.76 1.62 1.14 3.55 1.14 5.79s-.38 4.18-1.14 5.82c-.76 1.62-1.81 2.86-3.15 3.72-1.32.84-2.82 1.26-4.5 1.26zm0-3.39c1.5 0 2.68-.62 3.54-1.86.88-1.24 1.32-3.09 1.32-5.55s-.44-4.31-1.32-5.55c-.86-1.24-2.04-1.86-3.54-1.86-1.48 0-2.66.62-3.54 1.86-.86 1.24-1.29 3.09-1.29 5.55s.43 4.31 1.29 5.55c.88 1.24 2.06 1.86 3.54 1.86z"/><path fill="#FB9B2B" d="M2062 423h-64v4h64zm-1276 0h-64v4h64z"/><path fill="#fff" d="M2051.27 427.344l10.56-10.56 10.559 10.56-10.56 10.56zm-1276.004 0l10.56-10.56 10.559 10.56-10.56 10.56zm1485.304 77.998c-2.17 0-3.87-.456-5.09-1.368-1.19-.912-2.02-2.141-2.51-3.686-.45-1.545-.68-3.268-.68-5.168v-10.868c0-2.077.23-3.889.68-5.434.49-1.545 1.32-2.736 2.51-3.572 1.22-.861 2.92-1.292 5.09-1.292 1.93 0 3.45.355 4.56 1.064 1.14.709 1.95 1.723 2.44 3.04.5 1.317.76 2.901.76 4.75v2.432h-4.07v-2.166c0-1.14-.06-2.141-.19-3.002-.1-.887-.41-1.571-.91-2.052-.51-.481-1.36-.722-2.55-.722-1.21 0-2.1.266-2.66.798-.56.507-.92 1.241-1.1 2.204-.15.937-.23 2.039-.23 3.306v12.198c0 1.545.13 2.774.38 3.686.26.887.67 1.52 1.26 1.9.58.38 1.36.57 2.35.57 1.17 0 2-.253 2.51-.76.51-.532.82-1.254.95-2.166.13-.912.19-1.976.19-3.192v-2.28h4.07v2.28c0 1.875-.23 3.534-.69 4.978-.45 1.419-1.24 2.533-2.35 3.344-1.12.785-2.69 1.178-4.72 1.178zm18.72-.038c-1.72 0-3.05-.329-3.99-.988-.93-.684-1.59-1.672-1.97-2.964-.36-1.317-.53-2.926-.53-4.826v-5.016c0-1.951.19-3.572.57-4.864.38-1.292 1.04-2.267 1.97-2.926.97-.659 2.28-.988 3.95-.988 1.85 0 3.21.38 4.07 1.14.89.76 1.47 1.862 1.75 3.306.28 1.419.42 3.129.42 5.13v1.786h-8.67v4.408c0 .887.08 1.609.23 2.166.18.557.44.975.8 1.254.38.253.86.38 1.44.38.61 0 1.07-.139 1.37-.418.33-.304.55-.722.65-1.254.12-.557.19-1.203.19-1.938v-1.33h3.95v.836c0 2.204-.47 3.939-1.41 5.206-.93 1.267-2.53 1.9-4.79 1.9zm-2.43-13.414h4.68v-1.976c0-.912-.05-1.672-.16-2.28-.1-.633-.31-1.102-.64-1.406-.31-.329-.8-.494-1.48-.494-.66 0-1.17.152-1.52.456-.33.304-.56.823-.69 1.558-.12.709-.19 1.697-.19 2.964v1.178zm13.49 13.11v-21.964h6.16c1.49 0 2.66.253 3.49.76.86.481 1.47 1.127 1.83 1.938.38.785.58 1.634.6 2.546.03 1.089-.15 2.065-.53 2.926-.38.861-1.16 1.469-2.35 1.824.91.177 1.6.557 2.09 1.14.5.557.84 1.229 1.02 2.014.2.785.31 1.596.31 2.432 0 1.267-.19 2.381-.57 3.344-.36.963-.99 1.71-1.9 2.242-.89.532-2.16.798-3.8.798h-6.35zm3.99-3.078h1.44c.59 0 1.12-.076 1.6-.228.48-.177.86-.519 1.14-1.026.3-.507.46-1.241.46-2.204 0-1.14-.14-1.963-.42-2.47-.26-.532-.61-.861-1.07-.988-.43-.127-.93-.19-1.52-.19h-1.63v7.106zm0-10.032h1.98c.78 0 1.4-.228 1.86-.684.45-.456.68-1.267.68-2.432 0-1.039-.26-1.761-.8-2.166-.53-.405-1.25-.608-2.16-.608h-1.56v5.89zm16.87 13.414c-.86 0-1.62-.241-2.28-.722a5.415 5.415 0 01-1.56-1.9 5.602 5.602 0 01-.57-2.47c0-1.368.23-2.521.69-3.458a6.797 6.797 0 011.86-2.356c.81-.659 1.74-1.229 2.77-1.71a71.24 71.24 0 013.35-1.406v-1.558c0-.887-.05-1.621-.15-2.204-.1-.583-.32-1.013-.65-1.292-.3-.304-.77-.456-1.41-.456-.55 0-1.01.127-1.36.38-.33.253-.57.621-.73 1.102-.15.456-.22 1.001-.22 1.634v1.102l-4.03-.152c.05-2.432.61-4.218 1.67-5.358 1.06-1.165 2.71-1.748 4.94-1.748 2.18 0 3.72.595 4.64 1.786.91 1.191 1.36 2.913 1.36 5.168v10.032c0 .684.02 1.343.04 1.976.05.633.1 1.229.15 1.786.08.532.14 1.039.19 1.52h-3.72l-.3-1.52a30.2 30.2 0 01-.23-1.71c-.25.861-.75 1.672-1.48 2.432-.71.735-1.7 1.102-2.97 1.102zm1.6-3.496c.4 0 .78-.114 1.14-.342.35-.228.67-.481.95-.76.28-.304.47-.545.57-.722v-6.232c-.63.355-1.23.709-1.79 1.064-.55.355-1.05.735-1.48 1.14-.4.38-.73.823-.99 1.33-.23.481-.34 1.039-.34 1.672 0 .887.17 1.583.49 2.09.33.507.82.76 1.45.76zm17.77 3.496c-1.79 0-3.16-.355-4.1-1.064-.91-.735-1.53-1.761-1.86-3.078-.31-1.317-.46-2.85-.46-4.598v-5.054c0-1.849.17-3.42.5-4.712.33-1.317.95-2.318 1.86-3.002.94-.709 2.29-1.064 4.06-1.064 1.6 0 2.83.266 3.69.798.89.507 1.49 1.279 1.82 2.318.33 1.013.5 2.28.5 3.8v1.292h-3.69v-1.33c0-.963-.06-1.723-.19-2.28-.12-.557-.35-.963-.68-1.216-.33-.253-.8-.38-1.41-.38-.66 0-1.16.152-1.52.456-.35.304-.59.823-.72 1.558-.1.709-.15 1.685-.15 2.926v6.916c0 1.875.18 3.129.53 3.762.35.633.99.95 1.9.95.68 0 1.18-.152 1.48-.456.33-.329.53-.785.61-1.368.1-.583.15-1.241.15-1.976v-1.786h3.69v1.52c0 1.469-.18 2.736-.53 3.8-.33 1.064-.94 1.875-1.83 2.432-.86.557-2.08.836-3.65.836zm13.23-.304v-18.924h-4.1v-3.04h12.31v3.04h-4.14V505h-4.07zm17.63.304c-1.62 0-2.9-.329-3.84-.988s-1.61-1.596-2.01-2.812c-.38-1.216-.57-2.647-.57-4.294v-6.384c0-1.647.19-3.078.57-4.294.4-1.216 1.07-2.153 2.01-2.812.94-.659 2.22-.988 3.84-.988 1.62 0 2.89.329 3.8.988.94.659 1.6 1.596 1.98 2.812.4 1.216.6 2.647.6 4.294v6.384c0 1.647-.2 3.078-.6 4.294-.38 1.216-1.04 2.153-1.98 2.812-.91.659-2.18.988-3.8.988zm0-3.002c.78 0 1.33-.228 1.63-.684.33-.456.52-1.051.57-1.786.08-.76.12-1.545.12-2.356v-6.878c0-.836-.04-1.621-.12-2.356-.05-.735-.24-1.33-.57-1.786-.3-.481-.85-.722-1.63-.722-.79 0-1.34.241-1.67.722-.33.456-.53 1.051-.61 1.786-.05.735-.08 1.52-.08 2.356v6.878c0 .811.03 1.596.08 2.356.08.735.28 1.33.61 1.786.33.456.88.684 1.67.684zm11.24 2.698v-21.964h12.77V505h-4.07v-18.886h-4.63V505h-4.07zm24.07.304c-1.62 0-2.9-.329-3.84-.988s-1.61-1.596-2.02-2.812c-.38-1.216-.57-2.647-.57-4.294v-6.384c0-1.647.19-3.078.57-4.294.41-1.216 1.08-2.153 2.02-2.812.94-.659 2.22-.988 3.84-.988 1.62 0 2.88.329 3.8.988.93.659 1.59 1.596 1.97 2.812.41 1.216.61 2.647.61 4.294v6.384c0 1.647-.2 3.078-.61 4.294-.38 1.216-1.04 2.153-1.97 2.812-.92.659-2.18.988-3.8.988zm0-3.002c.78 0 1.33-.228 1.63-.684.33-.456.52-1.051.57-1.786.08-.76.11-1.545.11-2.356v-6.878c0-.836-.03-1.621-.11-2.356-.05-.735-.24-1.33-.57-1.786-.3-.481-.85-.722-1.63-.722-.79 0-1.35.241-1.68.722-.32.456-.53 1.051-.6 1.786-.05.735-.08 1.52-.08 2.356v6.878c0 .811.03 1.596.08 2.356.07.735.28 1.33.6 1.786.33.456.89.684 1.68.684zm9.39 2.888v-3.078c.76 0 1.35-.152 1.78-.456.46-.304.8-.811 1.03-1.52.25-.735.44-1.71.57-2.926.12-1.241.24-2.787.34-4.636l.49-9.538h11.52V505h-4.07v-18.886h-3.87l-.35 6.46c-.12 2.508-.31 4.585-.57 6.232-.22 1.647-.59 2.939-1.1 3.876-.5.912-1.19 1.558-2.05 1.938-.84.38-1.93.57-3.27.57h-.45zm20.99-.19v-21.964h4.06v9.082h.65c1.49.025 2.76.139 3.8.342 1.06.177 1.92.507 2.58.988.66.456 1.14 1.102 1.45 1.938.3.811.45 1.862.45 3.154 0 1.191-.15 2.204-.45 3.04-.31.811-.8 1.469-1.49 1.976-.68.507-1.58.874-2.69 1.102-1.12.228-2.47.342-4.07.342h-4.29zm4.06-2.394h.23c1.29 0 2.3-.114 3.04-.342.73-.228 1.25-.633 1.56-1.216.3-.608.45-1.457.45-2.546 0-.988-.14-1.761-.41-2.318-.26-.583-.74-1.001-1.45-1.254-.68-.279-1.68-.418-3-.418h-.42v8.094zm18.85 2.698c-1.8 0-3.17-.355-4.1-1.064-.92-.735-1.54-1.761-1.87-3.078-.3-1.317-.45-2.85-.45-4.598v-5.054c0-1.849.16-3.42.49-4.712.33-1.317.95-2.318 1.86-3.002.94-.709 2.3-1.064 4.07-1.064 1.6 0 2.83.266 3.69.798.88.507 1.49 1.279 1.82 2.318.33 1.013.49 2.28.49 3.8v1.292h-3.68v-1.33c0-.963-.06-1.723-.19-2.28-.13-.557-.36-.963-.69-1.216-.32-.253-.79-.38-1.4-.38-.66 0-1.17.152-1.52.456-.36.304-.6.823-.72 1.558-.1.709-.16 1.685-.16 2.926v6.916c0 1.875.18 3.129.54 3.762.35.633.98.95 1.9.95.68 0 1.17-.152 1.48-.456.33-.329.53-.785.61-1.368.1-.583.15-1.241.15-1.976v-1.786h3.68v1.52c0 1.469-.17 2.736-.53 3.8-.33 1.064-.93 1.875-1.82 2.432-.86.557-2.08.836-3.65.836zm10.76-.304v-21.964h4.07v9.272h1.14l4.14-9.272h4.18l-4.6 10.64L2474.4 505h-4.25l-4.14-10.26h-1.14V505h-4.07zm16.91 0v-21.964h3.42v14.782l6.61-14.782h3.2V505h-3.35v-14.896L2481.02 505h-3.31zm18.51 0v-21.964h3.42v14.782l6.61-14.782h3.19V505h-3.34v-14.896L2499.52 505h-3.3zm6.72-24.358c-1.82 0-3.11-.494-3.87-1.482-.74-.988-1.1-2.217-1.1-3.686h2.35c.03.912.23 1.621.61 2.128.41.481 1.08.722 2.01.722.97 0 1.64-.253 2.02-.76.4-.507.61-1.203.61-2.09h2.39c0 1.469-.38 2.698-1.14 3.686-.73.988-2.03 1.482-3.88 1.482zm-175.51 80.578v-8.436h-.38c-.84 0-1.7-.101-2.58-.304a6.79 6.79 0 01-2.47-1.216c-.76-.583-1.39-1.431-1.87-2.546-.45-1.115-.68-2.559-.68-4.332v-3.952c0-1.419.19-2.635.57-3.648.4-1.013.95-1.837 1.63-2.47a6.661 6.661 0 012.4-1.444 9.046 9.046 0 012.89-.456h.49v-9.196h3.76v9.196h.65c1.34 0 2.57.279 3.68.836 1.12.532 2 1.393 2.66 2.584.69 1.165 1.03 2.698 1.03 4.598v3.952c0 1.773-.23 3.217-.68 4.332-.46 1.115-1.07 1.963-1.83 2.546-.73.583-1.54.988-2.43 1.216-.86.203-1.71.304-2.55.304h-.53v8.436h-3.76zm-.27-11.324h.27v-14.82h-.38c-.79 0-1.47.127-2.05.38-.59.253-1.04.722-1.37 1.406-.33.684-.49 1.672-.49 2.964v4.522c0 1.469.15 2.609.45 3.42.31.785.76 1.343 1.37 1.672.61.304 1.34.456 2.2.456zm4.03 0h.23c.89 0 1.63-.152 2.24-.456.61-.329 1.07-.887 1.37-1.672.33-.811.49-1.951.49-3.42v-4.522c0-1.292-.16-2.28-.49-2.964-.33-.684-.8-1.153-1.41-1.406-.58-.253-1.28-.38-2.09-.38h-.34v14.82zm12.86 4.104v-21.964h3.42v14.782l6.61-14.782h3.2V554h-3.35v-14.896L2347.36 554h-3.31zm17.1.19v-3.078c.76 0 1.36-.152 1.79-.456.46-.304.8-.811 1.03-1.52.25-.735.44-1.71.57-2.926.12-1.241.24-2.787.34-4.636l.49-9.538h11.52V554h-4.07v-18.886h-3.88l-.34 6.46c-.13 2.508-.32 4.585-.57 6.232-.23 1.647-.59 2.939-1.1 3.876-.51.912-1.19 1.558-2.05 1.938-.84.38-1.93.57-3.27.57h-.46zm20.99-.19v-21.964h3.42v14.782l6.61-14.782h3.2V554h-3.35v-14.896L2385.45 554h-3.31zm22.46.304c-.86 0-1.62-.241-2.28-.722a5.415 5.415 0 01-1.56-1.9 5.602 5.602 0 01-.57-2.47c0-1.368.23-2.521.69-3.458a6.683 6.683 0 011.86-2.356c.81-.659 1.74-1.229 2.77-1.71a71.24 71.24 0 013.35-1.406v-1.558c0-.887-.05-1.621-.15-2.204-.11-.583-.32-1.013-.65-1.292-.3-.304-.77-.456-1.41-.456-.55 0-1.01.127-1.36.38-.33.253-.57.621-.73 1.102-.15.456-.22 1.001-.22 1.634v1.102l-4.03-.152c.05-2.432.61-4.218 1.67-5.358 1.06-1.165 2.71-1.748 4.94-1.748 2.18 0 3.72.595 4.64 1.786.91 1.191 1.36 2.913 1.36 5.168v10.032c0 .684.02 1.343.04 1.976.05.633.1 1.229.15 1.786.08.532.14 1.039.19 1.52h-3.72l-.3-1.52c-.11-.633-.18-1.203-.23-1.71-.26.861-.75 1.672-1.48 2.432-.71.735-1.7 1.102-2.97 1.102zm1.6-3.496c.4 0 .78-.114 1.14-.342.35-.228.67-.481.95-.76.28-.304.47-.545.57-.722v-6.232c-.64.355-1.23.709-1.79 1.064-.56.355-1.05.735-1.48 1.14-.41.38-.73.823-.99 1.33-.23.481-.34 1.039-.34 1.672 0 .887.16 1.583.49 2.09.33.507.81.76 1.45.76zm10.36 3.382v-3.078c.76 0 1.36-.152 1.79-.456.46-.304.8-.811 1.03-1.52.25-.735.44-1.71.57-2.926.12-1.241.24-2.787.34-4.636l.49-9.538h11.52V554h-4.07v-18.886h-3.88l-.34 6.46c-.12 2.508-.31 4.585-.57 6.232-.23 1.647-.59 2.939-1.1 3.876-.51.912-1.19 1.558-2.05 1.938-.84.38-1.93.57-3.27.57h-.46zM2356.8 370.7v3.3h-15.48v-2.61l8.34-7.92c.94-.9 1.57-1.68 1.89-2.34.34-.68.51-1.35.51-2.01 0-.98-.33-1.73-.99-2.25-.66-.52-1.63-.78-2.91-.78-2.14 0-3.78.73-4.92 2.19l-2.73-2.1c.82-1.1 1.92-1.95 3.3-2.55 1.4-.62 2.96-.93 4.68-.93 2.28 0 4.1.54 5.46 1.62 1.36 1.08 2.04 2.55 2.04 4.41 0 1.14-.24 2.21-.72 3.21s-1.4 2.14-2.76 3.42l-5.61 5.34h9.9z"/><path fill="#FB9B2B" d="M2381 395h-64v32h64z"/><path fill="#fff" d="M2370.27 427.344l10.56-10.56 10.559 10.56-10.56 10.56z"/></svg>