<svg width="132" height="43" fill="none" xmlns="http://www.w3.org/2000/svg"><path d="M8.61.613h12.866c2.145 0 3.703.486 4.672 1.455.97.97 1.455 2.527 1.455 4.672v3.063c0 2.145-.486 3.703-1.455 4.672-.97.97-2.527 1.455-4.672 1.455h-7.352v6.127H8.609V.613zM22.088 6.74c0-1.226-.613-1.838-1.838-1.838h-6.127v6.74h6.127c1.225 0 1.838-.613 1.838-1.839V6.74zm7.049 10.875c4.983.307 8.353.46 10.11.46.47 0 .842-.138 1.116-.415.275-.277.415-.647.415-1.117v-2.91h-8.15v-4.29h8.15V6.74c0-1.226-.613-1.838-1.838-1.838h-9.497V.612h10.722c2.145 0 3.703.487 4.672 1.456.97.97 1.455 2.527 1.455 4.672v9.803c0 2.002-.47 3.473-1.41 4.41-.94.94-2.411 1.41-4.41 1.41-3.064 0-6.843-.203-11.335-.612v-4.136zm25.367 4.749c-1.022 0-2.073-.103-3.156-.307v-4.135h2.758c.591 0 1-.236 1.225-.706a1.43 1.43 0 00.153-.657c0-.235-.05-.444-.153-.629L46.906.613h6.127l5.514 10.875L63.144.613h6.127l-7.812 16.849c-.716 1.614-1.574 2.818-2.572 3.616-1.104.858-2.565 1.286-4.382 1.286zm15.07-4.902h5.514v4.595h-5.514v-4.595zM77.848.613h12.866c2.145 0 3.703.486 4.672 1.455.97.97 1.455 2.527 1.455 4.672v3.063c0 2.145-.486 3.703-1.455 4.672-.97.97-2.527 1.455-4.672 1.455h-7.352v6.127h-5.514V.613zM91.327 6.74c0-1.226-.613-1.838-1.838-1.838h-6.127v6.74h6.127c1.225 0 1.838-.613 1.838-1.839V6.74zm32.473 7.658c0 2.145-.486 3.703-1.455 4.672-.969.97-2.527 1.455-4.672 1.455h-3.676v2.145h-5.514v-2.145h-3.676c-2.145 0-3.703-.485-4.672-1.455-.97-.969-1.455-2.527-1.455-4.672V8.271c0-2.144.486-3.702 1.455-4.671.969-.97 2.527-1.456 4.672-1.456h3.676V0h5.514v2.144h3.676c2.145 0 3.703.486 4.672 1.456.969.969 1.455 2.527 1.455 4.671v6.127zm-19.606 0c0 1.226.613 1.838 1.838 1.838h2.757V6.433h-2.757c-1.225 0-1.838.613-1.838 1.838v6.127zm14.092-6.127c0-1.225-.613-1.838-1.838-1.838h-2.757v9.803h2.757c1.225 0 1.838-.612 1.838-1.838V8.271z" fill="#fff"/><path d="M7.117 26.494h118.315" stroke="#fff" stroke-width="1.849" stroke-miterlimit="10"/><path d="M8.668 30.983h1.997c.332 0 .573.077.723.225.15.15.227.393.227.726v.476c0 .332-.076.575-.227.726-.15.15-.39.227-.723.227H9.524v.95h-.856v-3.33zm2.092.951c0-.19-.095-.285-.286-.285h-.95v1.046h.95c.19 0 .286-.095.286-.285v-.476zm4.28 1.474c0 .333-.076.576-.224.726-.15.15-.391.227-.726.227H12.9c-.332 0-.573-.076-.723-.227-.15-.15-.225-.393-.225-.726v-1.521c0-.333.074-.573.225-.727.15-.15.39-.224.723-.224h1.189c.332 0 .575.077.726.224.15.151.224.394.224.727v1.521zm-.855-1.521c0-.19-.095-.285-.286-.285h-.808c-.19 0-.285.095-.285.285v1.521c0 .19.095.285.285.285h.809c.19 0 .285-.095.285-.285v-1.521zm3.895 2.377c-.708.063-1.294.094-1.759.094-.312 0-.539-.073-.684-.219-.145-.145-.219-.375-.219-.684v-1.52c0-.334.074-.574.224-.727.151-.15.391-.225.724-.225h1.711v.666h-1.52c-.19 0-.286.095-.286.285v1.521a.24.24 0 00.063.175.223.223 0 00.164.063c.066 0 .14 0 .22-.003.079-.002.16-.002.248-.008a11.849 11.849 0 00.596-.029l.515-.034v.645h.003zm2.945 0c-.707.063-1.294.094-1.758.094-.312 0-.54-.073-.684-.219-.146-.145-.22-.375-.22-.684v-1.52c0-.334.074-.574.225-.727.15-.15.39-.225.723-.225h1.712v.666h-1.521c-.19 0-.286.095-.286.285v1.521c0 .074.021.132.064.175a.223.223 0 00.163.063c.066 0 .14 0 .22-.003.079-.002.16-.002.248-.008a12.055 12.055 0 00.597-.029l.515-.034v.645h.002zm3.285.047h-.856v-2.044l-1.14 2.044h-.904v-3.328h.856v2.045l1.14-2.045h.904v3.328zm2.613 0v-2.044l-1.14 2.044h-.904v-3.327h.856v2.044l1.14-2.044h.904v3.327h-.856zm-.856-3.565c-.412 0-.618-.206-.618-.618v-.143h.618v.12a.16.16 0 00.048.118.161.161 0 00.119.048h.142a.161.161 0 00.167-.167v-.119h.618v.143c0 .412-.206.618-.618.618h-.476zm4.845 3.518c-.708.063-1.294.094-1.759.094-.311 0-.538-.073-.684-.219-.145-.145-.219-.375-.219-.684v-1.52c0-.334.074-.574.224-.727.151-.15.391-.225.724-.225h1.711v.666h-1.52c-.19 0-.286.095-.286.285v1.521a.24.24 0 00.063.175.223.223 0 00.164.063c.066 0 .14 0 .22-.003.079-.002.16-.002.248-.008a11.65 11.65 0 00.596-.029l.515-.034v.645h.003zm2.809-3.328c.08 0 .222.016.428.048v.641h-.19a.214.214 0 00-.13.045.324.324 0 00-.084.098l-.452.856.927 1.687h-.903l-.737-1.355h-.427v1.355h-.856v-3.327h.856v1.307h.427l.476-.903a1 1 0 01.259-.325.62.62 0 01.406-.127zm3.683 3.375h-.856v-2.044l-1.14 2.044h-.904v-3.328h.856v2.045l1.14-2.045h.904v3.328zm2.613 0v-2.044l-1.141 2.044h-.903v-3.327h.855v2.044l1.141-2.044h.903v3.327h-.855zm-.856-3.565c-.412 0-.618-.206-.618-.618v-.143h.618v.12a.16.16 0 00.048.118.161.161 0 00.118.048h.143a.161.161 0 00.119-.048.161.161 0 00.047-.119v-.119h.618v.143c0 .412-.206.618-.617.618h-.476zm3.519 2.876c.773.047 1.296.071 1.568.071a.235.235 0 00.175-.063.235.235 0 00.063-.175v-.451h-1.265v-.666h1.265v-.404c0-.19-.095-.285-.285-.285h-1.474v-.666h1.664c.333 0 .573.077.726.225.15.15.227.393.227.726v1.521c0 .312-.074.54-.219.684-.145.146-.375.22-.684.22-.475 0-1.062-.032-1.759-.096v-.641h-.002zm5.56-2.686c.08 0 .223.016.429.048v.641h-.19a.214.214 0 00-.13.045.322.322 0 00-.084.098l-.452.856.927 1.687h-.903l-.737-1.355h-.428v1.355h-.856v-3.327h.856v1.307h.428l.475-.903a.999.999 0 01.26-.325.62.62 0 01.406-.127zm3.778 2.472c0 .333-.076.576-.224.726-.15.15-.394.227-.726.227h-1.189c-.333 0-.576-.076-.726-.227-.15-.15-.227-.393-.227-.726v-1.521c0-.333.076-.573.227-.727.15-.15.39-.224.726-.224h1.189c.332 0 .573.077.726.224.15.151.224.394.224.727v1.521zm-.855-1.521c0-.19-.095-.285-.286-.285h-.808c-.19 0-.285.095-.285.285v1.521c0 .19.095.285.285.285h.808c.19 0 .286-.095.286-.285v-1.521zm4.233 2.424h-.856v-1.355h-1.188v1.355h-.856v-3.328h.856v1.308h1.188v-1.308h.856v3.328zm3.564-.903c0 .333-.077.576-.225.726-.15.15-.393.227-.726.227h-1.188c-.333 0-.576-.076-.727-.227-.15-.15-.227-.393-.227-.726v-1.521c0-.333.077-.573.227-.727.15-.15.391-.224.727-.224h1.188c.333 0 .573.077.726.224.15.151.225.394.225.727v1.521zm-.856-1.521c0-.19-.095-.285-.285-.285h-.808c-.19 0-.286.095-.286.285v1.521c0 .19.096.285.286.285h.808c.19 0 .285-.095.285-.285v-1.521zm4.186.57l-.666 1.188h-.665l-.666-1.188v1.854h-.855v-3.328h.903l.95 1.76.951-1.76h.903v3.328h-.855v-1.854zm4.325 1.854h-.856v-2.044l-1.141 2.044h-.903v-3.328h.855v2.045l1.141-2.045h.904v3.328zm2.494-1.093c-.38.031-.74.047-1.078.047-.338 0-.578-.074-.726-.219-.145-.145-.22-.375-.22-.684v-1.379h.857v1.379c0 .074.02.132.063.174.042.042.1.064.174.064.26 0 .568-.016.927-.048v-1.569h.856v3.328h-.856v-1.093h.003zm4.065 1.093h-2.639v-3.328h2.639v.666H71.39v.642h1.402v.665H71.39v.69h1.782v.665zm2.946-.047c-.709.063-1.295.094-1.76.094-.311 0-.538-.073-.684-.219-.145-.145-.219-.375-.219-.684v-1.52c0-.334.077-.574.227-.727.15-.15.391-.225.726-.225h1.712v.666H74.6c-.19 0-.286.095-.286.285v1.521a.24.24 0 00.064.175.223.223 0 00.163.063c.067 0 .14 0 .22-.003.079-.002.16-.002.248-.008a12.055 12.055 0 00.597-.029l.515-.034v.645h-.003zm2.808-3.328c.08 0 .222.016.428.048v.641h-.19a.214.214 0 00-.13.045.32.32 0 00-.084.098l-.451.856.926 1.687h-.903l-.737-1.355h-.427v1.355h-.856v-3.327h.856v1.307h.427l.476-.903a.999.999 0 01.259-.325.624.624 0 01.406-.127zm3.682 3.375h-.855v-2.044l-1.14 2.044h-.904v-3.328h.856v2.045l1.14-2.045h.904v3.328zm2.614 0v-2.044l-1.141 2.044h-.903v-3.327h.855v2.044l1.141-2.044h.903v3.327h-.855zm-.856-3.565c-.412 0-.618-.206-.618-.618v-.143h.618v.12a.162.162 0 00.166.166h.143a.161.161 0 00.119-.048.161.161 0 00.047-.119v-.119h.618v.143c0 .412-.206.618-.617.618h-.476zm4.509 3.612a2.6 2.6 0 01-.489-.047v-.642h.428c.093 0 .156-.037.19-.108a.228.228 0 000-.2L87.7 30.982h.951l.856 1.688.713-1.688h.95l-1.212 2.615c-.11.25-.243.438-.399.56-.174.134-.401.2-.68.2zm5.378-.047H93.4v-1.355h-1.19v1.355h-.855v-3.328h.855v1.308h1.19v-1.308h.855v3.328zm3.469 0h-.856v-2.044l-1.14 2.044h-.904v-3.328h.856v2.045l1.14-2.045h.904v3.328zm.569-3.328h1.901c.312 0 .539.072.684.212.146.14.22.356.22.644 0 .19-.043.343-.124.462a.667.667 0 01-.304.248c.256.07.43.24.523.513.031.098.047.211.047.343 0 .312-.074.539-.219.684-.145.145-.375.22-.684.22h-2.044v-3.326zm1.949.951c0-.19-.095-.285-.285-.285h-.808v.665h.808c.19 0 .285-.095.285-.285v-.095zm.143 1.331c0-.19-.095-.285-.286-.285h-.95v.666h.95c.191 0 .286-.096.286-.286v-.095zm3.925 1.046h-2.638v-3.328h2.638v.666h-1.782v.642h1.402v.665h-1.402v.69h1.782v.665zm.378-3.328h1.996c.333 0 .573.077.726.225.151.15.227.393.227.726v.476c0 .332-.076.575-.227.726-.15.15-.391.227-.726.227h-1.141v.95h-.855v-3.33zm2.091.951c0-.19-.095-.285-.285-.285h-.951v1.046h.951c.19 0 .285-.095.285-.285v-.476zm3.852 2.33c-.708.063-1.294.094-1.759.094-.312 0-.539-.073-.684-.219-.145-.145-.219-.375-.219-.684v-1.52c0-.334.076-.574.227-.727.15-.15.391-.225.726-.225h1.711v.666h-1.521c-.19 0-.285.095-.285.285v1.521a.24.24 0 00.063.175.225.225 0 00.164.063c.066 0 .14 0 .219-.003.08-.002.161-.002.249-.008a11.65 11.65 0 00.596-.029l.515-.034v.645h-.002zm3.28.047h-.855v-2.044l-1.141 2.044h-.903v-3.328h.855v2.045l1.141-2.045h.903v3.328zm2.189 0h-.856v-2.662h-.998v-.666h2.852v.666h-.998v2.662zm3.968 0h-2.638v-3.328h2.638v.666h-1.783v.642h1.403v.665h-1.403v.69h1.783v.665zm1.997 0h-.856v-2.662h-.998v-.666h2.852v.666h-.998v2.662zM14.216 42.736h-1.663V38.76l-2.219 3.974H8.578v-6.47h1.664v3.975l2.218-3.975h1.756v6.47zm6.654-3.606l-1.294 2.311h-1.294l-1.294-2.31v3.605h-1.664v-6.47h1.756l1.85 3.42 1.848-3.42h1.756v6.47H20.87V39.13zm7.903 3.606h-5.128v-6.47h5.128v1.293h-3.465v1.25h2.728v1.293h-2.728v1.342h3.465v1.291zm6.381 0H33.49V40.1h-2.31v2.636h-1.664v-6.47h1.663v2.54h2.311v-2.54h1.664v6.47zm6.746 0h-1.664V38.76l-2.218 3.974h-1.756v-6.47h1.663v3.975l2.219-3.975H41.9v6.47zm5.545 0h-1.664v-6.47h5.04v1.293h-3.376v5.177zm3.743-1.386h1.663v1.386h-1.663v-1.387zm2.496-5.085h3.697c.605 0 1.048.138 1.331.412.282.275.425.692.425 1.252 0 .37-.08.67-.24.9a1.3 1.3 0 01-.592.486c.5.135.837.468 1.017.999.06.19.092.412.092.665 0 .605-.142 1.049-.425 1.331-.282.283-.726.425-1.33.425h-3.975v-6.47zm3.792 1.849c0-.37-.185-.555-.555-.555H55.35v1.294h1.571c.37 0 .555-.185.555-.554v-.185zm.277 2.588c0-.37-.185-.555-.554-.555H55.35v1.294h1.849c.37 0 .554-.184.554-.554v-.185zm2.216.648h1.663v1.386H59.97v-1.387zm10.904 1.386h-1.664v-5.177h-2.31v5.177h-1.665v-6.47h5.639v6.47zm2.627-.291a1.259 1.259 0 01-.935.383 5.8 5.8 0 01-1.046-.092v-1.25h.418a.38.38 0 00.29-.121.443.443 0 00.124-.296l.278-4.806h5.128v6.473h-1.663v-5.177h-1.941l-.233 3.838c-.024.44-.166.792-.42 1.048zm10.5.291h-5.13v-6.47h5.131v1.293h-3.467v1.25h2.725v1.293h-2.725v1.342H84v1.291zm4.486-6.471h1.848l-2.08 3.235 2.125 3.236H88.53l-1.293-2.034-1.295 2.034h-1.848L86.22 39.5l-2.081-3.235h1.838l1.257 2.034 1.252-2.034z" fill="#fff"/><path d="M92 42.736h-1.8l2.447-6.47h1.849l2.45 6.47h-1.803l-.417-1.157h-2.311L92 42.736zm.832-2.356h1.48l-.74-2.174-.74 2.174zm10.209 2.356h-1.664V40.1h-2.31v2.636h-1.665v-6.47h1.664v2.54h2.311v-2.54h1.664v6.47zm6.936-1.756c0 .646-.145 1.117-.438 1.41-.294.293-.764.438-1.411.438h-2.311c-.647 0-1.117-.145-1.41-.438-.293-.294-.438-.764-.438-1.41v-2.958c0-.648.145-1.118.438-1.41.293-.294.763-.44 1.41-.44h2.311c.647 0 1.117.146 1.411.44.293.292.438.762.438 1.41v2.957zm-1.664-2.958c0-.37-.185-.555-.554-.555h-1.572c-.37 0-.554.185-.554.555v2.957c0 .37.184.555.554.555h1.572c.369 0 .554-.185.554-.555v-2.957zm2.585-1.757h3.698c.605 0 1.048.138 1.331.412.282.275.425.692.425 1.252 0 .37-.079.67-.24.9a1.3 1.3 0 01-.592.486c.499.135.837.468 1.017.999.061.19.092.412.092.665 0 .605-.142 1.049-.425 1.331-.282.283-.726.425-1.331.425h-3.975v-6.47zm3.79 1.849c0-.37-.185-.555-.554-.555h-1.572v1.294h1.572c.369 0 .554-.185.554-.554v-.185zm.277 2.588c0-.37-.184-.555-.554-.555h-1.849v1.294h1.849c.37 0 .554-.184.554-.554v-.185zm3.653 2.034h-1.802l2.449-6.47h1.848l2.451 6.47h-1.804l-.417-1.157h-2.311l-.414 1.157zm.831-2.356h1.479l-.739-2.174-.74 2.174z" fill="#fff"/></svg>