<svg width="1054" height="60" fill="none" xmlns="http://www.w3.org/2000/svg"><path opacity=".05" fill="#fff" d="M-2 0h1056v60H-2z"/><path d="M15.308 1h4.846l-44.379 59h-4.846L15.308 1zM1042.03 60l44.38-59h-4.85l-44.38 59h4.85zm-19.39 0l44.38-59h-4.84l-44.38 59h4.84zm-19.38 0l44.38-59h-4.85l-44.379 59h4.849zm-19.388 0l44.378-59h-4.85l-44.375 59h4.847zm-19.388 0l44.376-59h-4.84l-44.382 59h4.846zm-19.386 0l44.379-59h-4.847l-44.379 59h4.847zm-19.386 0l44.379-59h-4.846l-44.379 59h4.846zm-19.386 0l44.379-59h-4.847l-44.379 59h4.847zm-19.387 0l44.379-59h-4.846l-44.379 59h4.846zm-19.387 0l44.379-59h-4.846l-44.379 59h4.846zm-19.387 0l44.379-59h-4.847l-44.379 59h4.847zm-19.386 0l44.379-59h-4.847l-44.379 59h4.847zm-19.387 0l44.379-59h-4.847l-44.379 59h4.847zm-19.386 0l44.379-59h-4.846L785.16 60h4.846zm-19.387 0l44.379-59h-4.847l-44.379 59h4.847zm-19.386 0l44.379-59h-4.846l-44.379 59h4.846zm-19.385 0l44.379-59h-4.847l-44.379 59h4.847zm-19.387 0L756.84 1h-4.846l-44.379 59h4.846zm-19.386 0l44.379-59h-4.847l-44.379 59h4.847zm-19.388 0l44.379-59h-4.846l-44.379 59h4.846zm-19.385 0l44.379-59h-4.847l-44.379 59h4.847zm-19.387 0l44.379-59h-4.847l-44.379 59h4.847zm-19.387 0l44.379-59h-4.847l-44.379 59h4.847zm-19.387 0L640.52 1h-4.847l-44.379 59h4.847zm-19.387 0l44.379-59h-4.846l-44.379 59h4.846zm-19.385 0l44.379-59h-4.847l-44.379 59h4.847zm-19.386 0l44.379-59h-4.847l-44.379 59h4.847zm-19.386 0l44.379-59h-4.847L513.75 60h4.847zm-19.388 0l44.379-59h-4.846l-44.379 59h4.846zm-19.386 0l44.379-59h-4.846l-44.379 59h4.846zm-19.386 0l44.379-59h-4.847L455.59 60h4.847zm-19.386 0L485.43 1h-4.847l-44.379 59h4.847zm-19.388 0l44.379-59h-4.847l-44.379 59h4.847zm-19.387 0l44.379-59h-4.846L397.43 60h4.846zm-19.385 0L427.27 1h-4.847l-44.379 59h4.847zm-19.387 0l44.379-59h-4.846l-44.379 59h4.846zm-19.386 0l44.379-59h-4.846l-44.38 59h4.847zm-19.386 0l44.379-59h-4.847l-44.379 59h4.847zm-19.387 0l44.379-59h-4.847l-44.379 59h4.847zm-19.387 0l44.379-59h-4.846l-44.379 59h4.846zm-19.386 0l44.379-59h-4.846l-44.379 59h4.846zm-19.387 0l44.38-59h-4.847l-44.379 59h4.846zm-19.386 0l44.379-59h-4.846l-44.379 59h4.846zm-19.387 0l44.379-59h-4.847l-44.379 59h4.847zm-19.386 0l44.379-59h-4.846L184.18 60h4.846zm-19.386 0l44.379-59h-4.847l-44.379 59h4.847zm-19.388 0l44.379-59h-4.846l-44.379 59h4.846zm-19.385 0l44.379-59h-4.847L126.02 60h4.847zm-19.387 0l44.379-59h-4.847l-44.379 59h4.847zm-19.386 0l44.379-59h-4.846l-44.38 59h4.847zm-19.386 0l44.379-59h-4.847L67.861 60h4.847zM53.32 60L97.7 1h-4.847l-44.38 59h4.847zm-19.386 0l44.38-59h-4.847l-44.38 59h4.848zM14.55 60L58.927 1h-4.846L9.702 60h4.847zm-19.388 0l44.38-59h-4.848L-9.684 60h4.847z" fill="#112054"/></svg>