<svg width="310" height="102" viewBox="0 0 310 102" fill="none" xmlns="http://www.w3.org/2000/svg">
<path d="M20 1H50.4839C55.5645 1 59.2561 2.15566 61.5524 4.46071C63.8487 6.76576 65 10.4714 65 15.5714V22.8571C65 27.9571 63.8487 31.6628 61.5524 33.9679C59.2561 36.2729 55.5645 37.4286 50.4839 37.4286H33.0645V52H20V1ZM51.9355 15.5714C51.9355 12.6571 50.4839 11.2 47.5806 11.2H33.0645V27.2286H47.5806C50.4839 27.2286 51.9355 25.7714 51.9355 22.8571V15.5714Z" fill="white"/>
<path d="M69 40.8662C80.6195 41.5845 88.4766 41.9437 92.5714 41.9437C93.6675 41.9437 94.5357 41.6217 95.1761 40.9715C95.8165 40.3213 96.1429 39.4543 96.1429 38.3521V31.5282H77.1404V21.4718H96.1429V15.3662C96.1429 12.493 94.7143 11.0563 91.8571 11.0563H69.7143V1H94.7143C99.7143 1 103.347 2.13939 105.607 4.41197C107.867 6.68455 109 10.338 109 15.3662V38.3521C109 43.0459 107.904 46.495 105.712 48.6933C103.52 50.8978 100.09 52 95.4286 52C88.2857 52 79.4741 51.5232 69 50.5634V40.8662Z" fill="white"/>
<path d="M129.007 52C126.585 52 124.094 51.7585 121.527 51.2817V41.5845H128.062C129.464 41.5845 130.434 41.0334 130.966 39.9312C131.21 39.4543 131.329 38.9404 131.329 38.3893C131.329 37.8382 131.21 37.349 130.966 36.9155L111 1H125.521L138.589 26.5L149.479 1H164L145.486 40.507C143.79 44.2906 141.756 47.1143 139.39 48.9843C136.774 50.9968 133.313 52 129.007 52Z" fill="white"/>
<path d="M164 41H177V52H164V41Z" fill="white"/>
<path d="M184 1H214.484C219.565 1 223.256 2.15566 225.552 4.46071C227.849 6.76576 229 10.4714 229 15.5714V22.8571C229 27.9571 227.849 31.6628 225.552 33.9679C223.256 36.2729 219.565 37.4286 214.484 37.4286H197.065V52H184V1ZM215.935 15.5714C215.935 12.6571 214.484 11.2 211.581 11.2H197.065V27.2286H211.581C214.484 27.2286 215.935 25.7714 215.935 22.8571V15.5714Z" fill="white"/>
<path d="M292 34.2973C292 39.4054 290.859 43.117 288.582 45.4257C286.306 47.7344 282.646 48.8919 277.61 48.8919H268.976V54H256.024V48.8919H247.39C242.354 48.8919 238.694 47.7344 236.418 45.4257C234.141 43.117 233 39.4054 233 34.2973V19.7027C233 14.5946 234.141 10.883 236.418 8.57433C238.694 6.26561 242.354 5.10811 247.39 5.10811H256.024V0H268.976V5.10811H277.61C282.646 5.10811 286.306 6.26561 288.582 8.57433C290.859 10.883 292 14.5946 292 19.7027V34.2973ZM245.951 34.2973C245.951 37.2162 247.39 38.6757 250.268 38.6757H256.744V15.3243H250.268C247.39 15.3243 245.951 16.7838 245.951 19.7027V34.2973ZM279.049 19.7027C279.049 16.7838 277.61 15.3243 274.732 15.3243H268.256V38.6757H274.732C277.61 38.6757 279.049 37.2162 279.049 34.2973V19.7027Z" fill="white"/>
<path d="M17 63H296" stroke="white" stroke-width="1.84866" stroke-miterlimit="10"/>
<path d="M20 73H24.7419C25.5323 73 26.103 73.184 26.4606 73.5393C26.8181 73.9009 27 74.4845 27 75.2839V76.4258C27 77.2252 26.8181 77.8089 26.4606 78.1705C26.103 78.5321 25.5323 78.7161 24.7419 78.7161H22.0323V81H20V73ZM24.9677 75.2839C24.9677 74.8271 24.7419 74.5987 24.2903 74.5987H22.0323V77.111H24.2903C24.7419 77.111 24.9677 76.8826 24.9677 76.4258V75.2839Z" fill="white"/>
<path d="M35 78.7733C35 79.5505 34.8263 80.118 34.491 80.4695C34.1497 80.8211 33.6048 81 32.8443 81H30.1497C29.3952 81 28.8503 80.8211 28.509 80.4695C28.1677 80.118 28 79.5505 28 78.7733V75.2205C28 74.4433 28.1677 73.882 28.509 73.5243C28.8503 73.1727 29.3952 73 30.1497 73H32.8443C33.5988 73 34.1497 73.1789 34.491 73.5243C34.8323 73.8759 35 74.4433 35 75.2205V78.7733ZM33.0599 75.2205C33.0599 74.7764 32.8443 74.5544 32.4132 74.5544H30.5808C30.1497 74.5544 29.9341 74.7764 29.9341 75.2205V78.7733C29.9341 79.2174 30.1497 79.4395 30.5808 79.4395H32.4132C32.8443 79.4395 33.0599 79.2174 33.0599 78.7733V75.2205Z" fill="white"/>
<path d="M42 80.7746C40.4048 80.9249 39.0833 81 38.0357 81C37.3333 81 36.8214 80.8247 36.494 80.4804C36.1667 80.1361 36 79.5916 36 78.8592V75.2535C36 74.4648 36.1667 73.8952 36.506 73.5321C36.8452 73.1753 37.3869 73 38.1369 73H41.994V74.5775H38.5655C38.1369 74.5775 37.9226 74.8028 37.9226 75.2535V78.8592C37.9226 79.0344 37.9702 79.1721 38.0655 79.2723C38.1607 79.3725 38.2857 79.4225 38.4345 79.4225C38.5833 79.4225 38.75 79.4225 38.9286 79.4163C39.1071 79.41 39.2917 79.41 39.4881 79.3975C39.6786 79.3912 39.875 79.385 40.0714 79.3725C40.2679 79.3662 40.5238 79.3474 40.8333 79.3286C41.1429 79.3036 41.5298 79.2786 41.994 79.2473V80.7746H42Z" fill="white"/>
<path d="M49 80.7746C47.4048 80.9249 46.0833 81 45.0357 81C44.3333 81 43.8214 80.8247 43.494 80.4804C43.1667 80.1361 43 79.5916 43 78.8592V75.2535C43 74.4648 43.1667 73.8952 43.506 73.5321C43.8452 73.1753 44.3869 73 45.1369 73H48.9941V74.5775H45.5655C45.1369 74.5775 44.9226 74.8028 44.9226 75.2535V78.8592C44.9226 79.0344 44.9702 79.1721 45.0655 79.2723C45.1607 79.3725 45.2857 79.4225 45.4345 79.4225C45.5833 79.4225 45.75 79.4225 45.9286 79.4163C46.1071 79.41 46.2917 79.41 46.4881 79.3975C46.6786 79.3912 46.875 79.385 47.0714 79.3725C47.2679 79.3662 47.5238 79.3474 47.8333 79.3286C48.1429 79.3036 48.5298 79.2786 48.9941 79.2473V80.7746H49Z" fill="white"/>
<path d="M57 81H54.9344V76.0857L52.1803 81H50V73H52.0656V77.9143L54.8197 73H57V81Z" fill="white"/>
<path d="M63.9344 82V76.8022L61.1803 82H59V73.5385H61.0656V78.7363L63.8197 73.5385H66V82H63.9344ZM61.8689 72.9341C60.8743 72.9341 60.3771 72.4103 60.3771 71.3626V71H61.8689V71.3022C61.8689 71.4231 61.9071 71.5238 61.9836 71.6044C62.0601 71.685 62.1557 71.7253 62.2705 71.7253H62.6148C62.7295 71.7253 62.8251 71.685 62.9016 71.6044C62.9781 71.5238 63.0164 71.4231 63.0164 71.3022V71H64.5082V71.3626C64.5082 72.4103 64.0109 72.9341 63.0164 72.9341H61.8689Z" fill="white"/>
<path d="M73 80.7746C71.4048 80.9249 70.0833 81 69.0357 81C68.3333 81 67.8214 80.8247 67.494 80.4804C67.1667 80.1361 67 79.5916 67 78.8592V75.2535C67 74.4648 67.1667 73.8952 67.506 73.5321C67.8452 73.1753 68.3869 73 69.1369 73H72.994V74.5775H69.5655C69.1369 74.5775 68.9226 74.8028 68.9226 75.2535V78.8592C68.9226 79.0344 68.9702 79.1721 69.0655 79.2723C69.1607 79.3725 69.2857 79.4225 69.4345 79.4225C69.5833 79.4225 69.75 79.4225 69.9286 79.4163C70.1071 79.41 70.2917 79.41 70.4881 79.3975C70.6786 79.3912 70.875 79.385 71.0714 79.3725C71.2679 79.3662 71.5238 79.3474 71.8333 79.3286C72.1429 79.3036 72.5298 79.2786 72.994 79.2473V80.7746H73Z" fill="white"/>
<path d="M79.8049 73C79.9946 73 80.3361 73.0376 80.8293 73.1127V74.6338H80.374C80.2602 74.6338 80.159 74.6714 80.0641 74.7402C79.9756 74.8091 79.9061 74.8905 79.8618 74.9718L78.7805 77L81 81H78.8374L77.0732 77.7887H76.0488V81H74V73.1127H76.0488V76.2113H77.0732L78.2114 74.0704C78.3758 73.7574 78.5845 73.4945 78.8311 73.3005C79.0777 73.1002 79.4002 73 79.8049 73Z" fill="white"/>
<path d="M88 81H85.9344V76.0857L83.1803 81H81V73H83.0656V77.9143L85.8197 73H88V81Z" fill="white"/>
<path d="M94.9344 82V76.8022L92.1803 82H90V73.5385H92.0656V78.7363L94.8197 73.5385H97V82H94.9344ZM92.8688 72.9341C91.8743 72.9341 91.3771 72.4103 91.3771 71.3626V71H92.8688V71.3022C92.8688 71.4231 92.9071 71.5238 92.9836 71.6044C93.0601 71.685 93.1557 71.7253 93.2705 71.7253H93.6147C93.7295 71.7253 93.8251 71.685 93.9016 71.6044C93.9781 71.5238 94.0164 71.4231 94.0164 71.3022V71H95.5082V71.3626C95.5082 72.4103 95.0109 72.9341 94.0164 72.9341H92.8688Z" fill="white"/>
<path d="M101 79.2535C102.742 79.3662 103.92 79.4225 104.532 79.4225C104.699 79.4225 104.83 79.3725 104.925 79.2723C105.02 79.1721 105.067 79.0344 105.067 78.8592V77.7887H102.219V76.2113H105.067V75.2535C105.067 74.8028 104.853 74.5775 104.425 74.5775H101.107V73H104.853C105.603 73 106.144 73.1815 106.489 73.5321C106.828 73.8889 107 74.4648 107 75.2535V78.8592C107 79.5978 106.833 80.1361 106.506 80.4804C106.179 80.8247 105.662 81 104.966 81C103.896 81 102.576 80.9249 101.006 80.7746V79.2535H101Z" fill="white"/>
<path d="M113.805 73C113.995 73 114.336 73.0376 114.829 73.1127V74.6338H114.374C114.26 74.6338 114.159 74.6714 114.064 74.7402C113.976 74.8091 113.906 74.8905 113.862 74.9718L112.78 77L115 81H112.837L111.073 77.7887H110.049V81H108V73.1127H110.049V76.2113H111.073L112.211 74.0704C112.376 73.7574 112.584 73.4945 112.831 73.3005C113.078 73.1002 113.4 73 113.805 73Z" fill="white"/>
<path d="M122 78.7733C122 79.5505 121.827 80.118 121.492 80.4695C121.151 80.8211 120.601 81 119.848 81H117.158C116.405 81 115.855 80.8211 115.514 80.4695C115.173 80.118 115 79.5505 115 78.7733V75.2205C115 74.4433 115.173 73.882 115.514 73.5243C115.855 73.1727 116.399 73 117.158 73H119.848C120.601 73 121.145 73.1789 121.492 73.5243C121.833 73.8759 122 74.4433 122 75.2205V78.7733ZM120.063 75.2205C120.063 74.7764 119.848 74.5544 119.418 74.5544H117.588C117.158 74.5544 116.943 74.7764 116.943 75.2205V78.7733C116.943 79.2174 117.158 79.4395 117.588 79.4395H119.418C119.848 79.4395 120.063 79.2174 120.063 78.7733V75.2205Z" fill="white"/>
<path d="M131 81H128.934V77.7429H126.066V81H124V73H126.066V76.1429H128.934V73H131V81Z" fill="white"/>
<path d="M139 78.7733C139 79.5505 138.827 80.118 138.492 80.4695C138.151 80.8211 137.601 81 136.848 81H134.158C133.405 81 132.855 80.8211 132.514 80.4695C132.173 80.118 132 79.5505 132 78.7733V75.2205C132 74.4433 132.173 73.882 132.514 73.5243C132.855 73.1727 133.399 73 134.158 73H136.848C137.601 73 138.145 73.1789 138.492 73.5243C138.833 73.8759 139 74.4433 139 75.2205V78.7733ZM137.063 75.2205C137.063 74.7764 136.848 74.5544 136.418 74.5544H134.588C134.158 74.5544 133.943 74.7764 133.943 75.2205V78.7733C133.943 79.2174 134.158 79.4395 134.588 79.4395H136.418C136.848 79.4395 137.063 79.2174 137.063 78.7733V75.2205Z" fill="white"/>
<path d="M146.923 76.5429L145.308 79.4H143.692L142.077 76.5429V81H140V73H142.192L144.5 77.2286L146.808 73H149V81H146.923V76.5429Z" fill="white"/>
<path d="M157 81H154.934V76.0857L152.18 81H150V73H152.066V77.9143L154.82 73H157V81Z" fill="white"/>
<path d="M162.924 78.3714C161.998 78.4476 161.124 78.4857 160.301 78.4857C159.478 78.4857 158.893 78.3079 158.534 77.9587C158.18 77.6095 158 77.0571 158 76.3143V73H160.083V76.3143C160.083 76.4921 160.134 76.6317 160.237 76.7333C160.34 76.8349 160.481 76.8857 160.661 76.8857C161.291 76.8857 162.043 76.8476 162.917 76.7714V73H165V81H162.917V78.3714H162.924Z" fill="white"/>
<path d="M172 81H166V73H172V74.6H167.946V76.1429H171.135V77.7429H167.946V79.4H172V81Z" fill="white"/>
<path d="M178.994 80.7746C177.4 80.9249 176.08 81 175.034 81C174.332 81 173.821 80.8247 173.494 80.4804C173.166 80.1361 173 79.5916 173 78.8592V75.2535C173 74.4648 173.172 73.8952 173.511 73.5321C173.85 73.1753 174.391 73 175.147 73H179V74.5775H175.575C175.147 74.5775 174.933 74.8028 174.933 75.2535V78.8592C174.933 79.0344 174.98 79.1721 175.075 79.2723C175.17 79.3725 175.295 79.4225 175.444 79.4225C175.593 79.4225 175.759 79.4225 175.938 79.4163C176.116 79.41 176.3 79.41 176.497 79.3975C176.687 79.3912 176.883 79.385 177.079 79.3725C177.276 79.3662 177.531 79.3474 177.84 79.3286C178.15 79.3036 178.536 79.2786 179 79.2473V80.7746H178.994Z" fill="white"/>
<path d="M185.805 73C185.995 73 186.336 73.0376 186.829 73.1127V74.6338H186.374C186.26 74.6338 186.159 74.6714 186.064 74.7402C185.976 74.8091 185.906 74.8905 185.862 74.9718L184.78 77L187 81H184.837L183.073 77.7887H182.049V81H180V73.1127H182.049V76.2113H183.073L184.211 74.0704C184.376 73.7574 184.584 73.4945 184.831 73.3005C185.078 73.1002 185.406 73 185.805 73Z" fill="white"/>
<path d="M195 81H192.934V76.0857L190.18 81H188V73H190.066V77.9143L192.82 73H195V81Z" fill="white"/>
<path d="M200.934 82V76.8022L198.18 82H196V73.5385H198.066V78.7363L200.82 73.5385H203V82H200.934ZM198.869 72.9341C197.874 72.9341 197.377 72.4103 197.377 71.3626V71H198.869V71.3022C198.869 71.4231 198.907 71.5238 198.984 71.6044C199.06 71.685 199.156 71.7253 199.271 71.7253H199.615C199.73 71.7253 199.825 71.685 199.902 71.6044C199.978 71.5238 200.016 71.4231 200.016 71.3022V71H201.508V71.3626C201.508 72.4103 201.011 72.9341 200.016 72.9341H198.869Z" fill="white"/>
<path d="M209.715 81C209.35 81 208.973 80.9624 208.589 80.8873V79.3662H209.575C209.788 79.3662 209.935 79.2786 210.014 79.1095C210.05 79.0344 210.068 78.953 210.068 78.8654C210.068 78.7778 210.05 78.7027 210.014 78.6338L207 73H209.192L211.164 77L212.808 73H215L212.205 79.1972C211.95 79.7919 211.645 80.2363 211.286 80.5243C210.884 80.8435 210.361 81 209.715 81Z" fill="white"/>
<path d="M222 81H219.934V77.7429H217.066V81H215V73H217.066V76.1429H219.934V73H222V81Z" fill="white"/>
<path d="M231 81H228.934V76.0857L226.18 81H224V73H226.066V77.9143L228.82 73H231V81Z" fill="white"/>
<path d="M232 73H236.516C237.256 73 237.796 73.1716 238.141 73.5083C238.486 73.8451 238.661 74.3662 238.661 75.0588C238.661 75.5163 238.561 75.8848 238.366 76.1708C238.172 76.4567 237.927 76.6537 237.645 76.7681C238.254 76.9333 238.668 77.3463 238.887 78.0008C238.962 78.2359 239 78.5091 239 78.8268C239 79.5766 238.824 80.1231 238.479 80.4726C238.134 80.8221 237.589 81 236.855 81H232V73ZM236.629 75.2875C236.629 74.83 236.403 74.6013 235.952 74.6013H234.032V76.2025H235.952C236.403 76.2025 236.629 75.9738 236.629 75.5163V75.2875ZM236.968 78.4901C236.968 78.0326 236.742 77.8038 236.29 77.8038H234.032V79.4051H236.29C236.742 79.4051 236.968 79.1763 236.968 78.7188V78.4901Z" fill="white"/>
<path d="M246 81H240V73H246V74.6H241.946V76.1429H245.135V77.7429H241.946V79.4H246V81Z" fill="white"/>
<path d="M247 73H251.738C252.527 73 253.098 73.184 253.461 73.5393C253.818 73.9009 254 74.4845 254 75.2839V76.4258C254 77.2252 253.818 77.8089 253.461 78.1705C253.104 78.5321 252.534 78.7161 251.738 78.7161H249.03V81H247V73ZM251.963 75.2839C251.963 74.8271 251.738 74.5987 251.286 74.5987H249.03V77.111H251.286C251.738 77.111 251.963 76.8826 251.963 76.4258V75.2839Z" fill="white"/>
<path d="M260.994 80.7746C259.4 80.9249 258.08 81 257.034 81C256.332 81 255.821 80.8247 255.494 80.4804C255.166 80.1361 255 79.5916 255 78.8592V75.2535C255 74.4648 255.172 73.8952 255.511 73.5321C255.85 73.1753 256.391 73 257.147 73H261V74.5775H257.575C257.147 74.5775 256.933 74.8028 256.933 75.2535V78.8592C256.933 79.0344 256.98 79.1721 257.075 79.2723C257.17 79.3725 257.295 79.4225 257.444 79.4225C257.593 79.4225 257.759 79.4225 257.938 79.4163C258.116 79.41 258.3 79.41 258.497 79.3975C258.687 79.3912 258.883 79.385 259.079 79.3725C259.276 79.3662 259.531 79.3474 259.84 79.3286C260.15 79.3036 260.536 79.2786 261 79.2473V80.7746H260.994Z" fill="white"/>
<path d="M269 81H266.934V76.0857L264.18 81H262V73H264.066V77.9143L266.82 73H269V81Z" fill="white"/>
<path d="M273.55 81H271.45V74.6H269V73H276V74.6H273.55V81Z" fill="white"/>
<path d="M283 81H277V73H283V74.6H278.946V76.1429H282.135V77.7429H278.946V79.4H283V81Z" fill="white"/>
<path d="M287.55 81H285.45V74.6H283V73H290V74.6H287.55V81Z" fill="white"/>
<path d="M33 101H29.1639V91.7857L24.0492 101H20V86H23.8361V95.2143L28.9508 86H33V101Z" fill="white"/>
<path d="M49.0769 92.6429L46.0256 98H42.9744L39.9231 92.6429V101H36V86H40.141L44.5 93.9286L48.859 86H53V101H49.0769V92.6429Z" fill="white"/>
<path d="M68 101H56V86H68V89H59.8929V91.8959H66.276V94.8959H59.8929V98.0061H68V101Z" fill="white"/>
<path d="M83 101H79.1639V94.8898H73.8361V101H70V86H73.8361V91.8898H79.1639V86H83V101Z" fill="white"/>
<path d="M98 101H94.1639V91.7857L89.0492 101H85V86H88.8361V95.2143L93.9508 86H98V101Z" fill="white"/>
<path d="M111.962 101H108V86H120V89H111.962V101Z" fill="white"/>
<path d="M121 98H125V101H121V98Z" fill="white"/>
<path d="M127 86H136.032C137.51 86 138.594 86.3184 139.284 86.9551C139.974 87.5918 140.323 88.5592 140.323 89.8571C140.323 90.7143 140.129 91.4122 139.735 91.9449C139.342 92.4776 138.865 92.8571 138.29 93.0714C139.51 93.3837 140.335 94.1551 140.774 95.3857C140.923 95.8265 141 96.3408 141 96.9286C141 98.3306 140.652 99.3592 139.961 100.014C139.271 100.669 138.187 101 136.71 101H127V86ZM136.265 90.2857C136.265 89.4286 135.813 89 134.91 89H131.071V92H134.91C135.813 92 136.265 91.5714 136.265 90.7143V90.2857ZM136.942 96.2857C136.942 95.4286 136.49 95 135.587 95H131.071V98H135.587C136.49 98 136.942 97.5714 136.942 96.7143V96.2857Z" fill="white"/>
<path d="M141 98H145V101H141V98Z" fill="white"/>
<path d="M167 101H163.164V89H157.836V101H154V86H167V101Z" fill="white"/>
<path d="M173.763 100.125C173.153 100.71 172.41 101 171.515 101C170.626 101 169.787 100.928 169 100.789V97.9348H170.003C170.283 97.9348 170.518 97.8443 170.702 97.6573C170.886 97.4763 170.988 97.247 171 96.9815L171.667 86H184V100.789H179.999V88.9626H175.331L174.773 97.7297C174.716 98.7373 174.373 99.5398 173.763 100.125Z" fill="white"/>
<path d="M197.994 101H186V86H198V89H189.891V91.8959H196.265V94.8959H189.891V98.0061H197.994V101Z" fill="white"/>
<path d="M208.481 86H212.893L207.926 93.5L213 101H208.588L205.5 96.2857L202.412 101H198L203.074 93.5L198.107 86H202.494L205.494 90.7143L208.481 86Z" fill="white"/>
<path d="M217.271 101H213L218.805 86H223.189L229 101H224.723L223.733 98.3184H218.254L217.271 101ZM219.243 95.5388H222.75L220.997 90.5L219.243 95.5388Z" fill="white"/>
<path d="M243 101H239.164V94.8898H233.836V101H230V86H233.836V91.8898H239.164V86H243V101Z" fill="white"/>
<path d="M259 97.5556C259 99.1111 258.662 100.241 257.978 100.946C257.295 101.651 256.2 102 254.692 102H249.308C247.8 102 246.705 101.651 246.022 100.946C245.338 100.241 245 99.1111 245 97.5556V90.4444C245 88.8889 245.338 87.7587 246.022 87.054C246.705 86.3492 247.8 86 249.308 86H254.692C256.2 86 257.295 86.3492 257.978 87.054C258.662 87.7587 259 88.8889 259 90.4444V97.5556ZM255.123 90.4444C255.123 89.5556 254.692 89.1111 253.831 89.1111H250.169C249.308 89.1111 248.877 89.5556 248.877 90.4444V97.5556C248.877 98.4444 249.308 98.8889 250.169 98.8889H253.831C254.692 98.8889 255.123 98.4444 255.123 97.5556V90.4444Z" fill="white"/>
<path d="M261 86H270.032C271.51 86 272.594 86.3184 273.284 86.9551C273.974 87.5918 274.323 88.5592 274.323 89.8571C274.323 90.7143 274.129 91.4122 273.735 91.9449C273.342 92.4776 272.865 92.8571 272.29 93.0714C273.51 93.3837 274.335 94.1551 274.774 95.3857C274.923 95.8265 275 96.3408 275 96.9286C275 98.3306 274.652 99.3592 273.961 100.014C273.271 100.669 272.187 101 270.71 101H261V86ZM270.258 90.2857C270.258 89.4286 269.806 89 268.903 89H265.065V92H268.903C269.806 92 270.258 91.5714 270.258 90.7143V90.2857ZM270.935 96.2857C270.935 95.4286 270.484 95 269.581 95H265.065V98H269.581C270.484 98 270.935 97.5714 270.935 96.7143V96.2857Z" fill="white"/>
<path d="M279.271 101H275L280.805 86H285.189L291 101H286.723L285.733 98.3184H280.254L279.271 101ZM281.243 95.5388H284.75L282.997 90.5L281.243 95.5388Z" fill="white"/>
</svg>
