<svg width="310" height="102" fill="none" xmlns="http://www.w3.org/2000/svg"><path d="M20 1h30.484c5.08 0 8.772 1.156 11.068 3.46C63.85 6.767 65 10.472 65 15.572v7.286c0 5.1-1.151 8.806-3.448 11.11-2.296 2.306-5.987 3.462-11.068 3.462h-17.42V52H20V1zm31.935 14.571c0-2.914-1.451-4.371-4.354-4.371H33.064v16.029h14.517c2.903 0 4.354-1.458 4.354-4.372v-7.286zM69 40.866c11.62.718 19.477 1.078 23.571 1.078 1.097 0 1.965-.322 2.605-.973.64-.65.967-1.517.967-2.619v-6.824H77.14V21.472h19.003v-6.106c0-2.873-1.429-4.31-4.286-4.31H69.714V1h25c5 0 8.633 1.14 10.893 3.412 2.26 2.273 3.393 5.926 3.393 10.954v22.986c0 4.694-1.096 8.143-3.288 10.341C103.52 50.898 100.09 52 95.429 52c-7.143 0-15.955-.477-26.429-1.437v-9.697zM129.007 52c-2.422 0-4.913-.242-7.48-.718v-9.697h6.535c1.402 0 2.372-.552 2.904-1.654.244-.477.363-.99.363-1.542 0-.55-.119-1.04-.363-1.474L111 1h14.521l13.068 25.5L149.479 1H164l-18.514 39.507c-1.696 3.784-3.73 6.607-6.096 8.477-2.616 2.013-6.077 3.016-10.383 3.016zM164 41h13v11h-13V41zm20-40h30.484c5.081 0 8.772 1.156 11.068 3.46C227.849 6.767 229 10.472 229 15.572v7.286c0 5.1-1.151 8.806-3.448 11.11-2.296 2.306-5.987 3.462-11.068 3.462h-17.419V52H184V1zm31.935 14.571c0-2.914-1.451-4.371-4.354-4.371h-14.516v16.029h14.516c2.903 0 4.354-1.458 4.354-4.372v-7.286zM292 34.297c0 5.108-1.141 8.82-3.418 11.129-2.276 2.308-5.936 3.466-10.972 3.466h-8.634V54h-12.952v-5.108h-8.634c-5.036 0-8.696-1.158-10.972-3.466-2.277-2.309-3.418-6.02-3.418-11.129V19.703c0-5.108 1.141-8.82 3.418-11.129 2.276-2.308 5.936-3.466 10.972-3.466h8.634V0h12.952v5.108h8.634c5.036 0 8.696 1.158 10.972 3.466 2.277 2.309 3.418 6.02 3.418 11.129v14.594zm-46.049 0c0 2.92 1.439 4.379 4.317 4.379h6.476V15.324h-6.476c-2.878 0-4.317 1.46-4.317 4.379v14.594zm33.098-14.594c0-2.92-1.439-4.379-4.317-4.379h-6.476v23.352h6.476c2.878 0 4.317-1.46 4.317-4.379V19.703z" fill="#fff"/><path d="M17 63h279" stroke="#fff" stroke-width="1.849" stroke-miterlimit="10"/><path d="M20 73h4.742c.79 0 1.361.184 1.719.54.357.36.539.944.539 1.744v1.142c0 .8-.182 1.383-.54 1.745-.357.361-.928.545-1.718.545h-2.71V81H20v-8zm4.968 2.284c0-.457-.226-.685-.678-.685h-2.258v2.512h2.258c.452 0 .678-.228.678-.685v-1.142zM35 78.773c0 .778-.174 1.345-.509 1.697-.341.351-.886.53-1.647.53H30.15c-.755 0-1.3-.179-1.641-.53-.341-.352-.509-.92-.509-1.697v-3.552c0-.778.168-1.339.509-1.697.341-.351.886-.524 1.64-.524h2.695c.755 0 1.306.179 1.647.524.341.352.509.92.509 1.697v3.552zm-1.94-3.552c0-.445-.216-.667-.647-.667h-1.832c-.431 0-.647.222-.647.666v3.553c0 .444.216.666.647.666h1.832c.431 0 .647-.222.647-.666v-3.552zM42 80.775c-1.595.15-2.917.225-3.964.225-.703 0-1.215-.175-1.542-.52-.327-.344-.494-.888-.494-1.62v-3.606c0-.79.167-1.359.506-1.722.34-.357.88-.532 1.63-.532h3.858v1.578h-3.428c-.43 0-.643.225-.643.675v3.606c0 .175.047.313.142.413.096.1.22.15.37.15.148 0 .315 0 .494-.006.178-.006.363-.006.56-.019.19-.006.386-.012.582-.025.197-.006.453-.025.762-.043.31-.025.697-.05 1.161-.082v1.528H42zm7 0c-1.595.15-2.917.225-3.964.225-.703 0-1.215-.175-1.542-.52-.327-.344-.494-.888-.494-1.62v-3.606c0-.79.167-1.359.506-1.722.34-.357.88-.532 1.63-.532h3.858v1.578h-3.428c-.43 0-.643.225-.643.675v3.606c0 .175.047.313.142.413.096.1.22.15.37.15.148 0 .315 0 .494-.006.178-.006.363-.006.56-.019.19-.006.386-.012.582-.025.197-.006.453-.025.762-.043.31-.025.697-.05 1.161-.082v1.528H49zM57 81h-2.066v-4.914L52.18 81H50v-8h2.066v4.914L54.82 73H57v8zm6.934 1v-5.198L61.18 82H59v-8.462h2.066v5.198l2.754-5.198H66V82h-2.066zm-2.065-9.066c-.995 0-1.492-.524-1.492-1.571V71h1.492v.302c0 .121.038.222.115.302a.38.38 0 00.286.121h.345c.114 0 .21-.04.287-.12a.422.422 0 00.114-.303V71h1.492v.363c0 1.047-.497 1.571-1.492 1.571H61.87zM73 80.775c-1.595.15-2.917.225-3.964.225-.703 0-1.215-.175-1.542-.52-.327-.344-.494-.888-.494-1.62v-3.606c0-.79.167-1.359.506-1.722.34-.357.88-.532 1.63-.532h3.858v1.578h-3.428c-.43 0-.643.225-.643.675v3.606c0 .175.047.313.142.413.096.1.22.15.37.15.148 0 .315 0 .494-.006.178-.006.363-.006.56-.019.19-.006.386-.012.582-.025.197-.006.453-.025.762-.043.31-.025.697-.05 1.161-.082v1.528H73zM79.805 73c.19 0 .531.038 1.024.113v1.52h-.455a.516.516 0 00-.31.107.767.767 0 00-.202.232L78.78 77 81 81h-2.163l-1.764-3.211H76.05V81H74v-7.887h2.049v3.098h1.024l1.138-2.14c.165-.314.374-.576.62-.77.247-.2.57-.301.974-.301zM88 81h-2.066v-4.914L83.18 81H81v-8h2.066v4.914L85.82 73H88v8zm6.934 1v-5.198L92.18 82H90v-8.462h2.066v5.198l2.754-5.198H97V82h-2.066zm-2.065-9.066c-.995 0-1.492-.524-1.492-1.571V71h1.492v.302c0 .121.038.222.115.302a.38.38 0 00.287.121h.344a.38.38 0 00.287-.12.422.422 0 00.114-.303V71h1.492v.363c0 1.047-.497 1.571-1.492 1.571H92.87zm8.131 6.32c1.742.112 2.92.168 3.532.168.167 0 .298-.05.393-.15.095-.1.142-.238.142-.413v-1.07h-2.848V76.21h2.848v-.957c0-.451-.214-.677-.642-.677h-3.318V73h3.746c.75 0 1.291.181 1.636.532.339.357.511.933.511 1.722v3.605c0 .739-.167 1.277-.494 1.621-.327.345-.844.52-1.54.52-1.07 0-2.39-.075-3.96-.225v-1.522H101zM113.805 73c.19 0 .531.038 1.024.113v1.52h-.455a.516.516 0 00-.31.107.768.768 0 00-.202.232L112.78 77l2.22 4h-2.163l-1.764-3.211h-1.024V81H108v-7.887h2.049v3.098h1.024l1.138-2.14c.165-.314.373-.576.62-.77.247-.2.569-.301.974-.301zM122 78.773c0 .778-.173 1.345-.508 1.697-.341.351-.891.53-1.644.53h-2.69c-.753 0-1.303-.179-1.644-.53-.341-.352-.514-.92-.514-1.697v-3.552c0-.778.173-1.339.514-1.697.341-.351.885-.524 1.644-.524h2.69c.753 0 1.297.179 1.644.524.341.352.508.92.508 1.697v3.552zm-1.937-3.552c0-.445-.215-.667-.645-.667h-1.83c-.43 0-.645.222-.645.666v3.553c0 .444.215.666.645.666h1.83c.43 0 .645-.222.645-.666v-3.552zM131 81h-2.066v-3.257h-2.868V81H124v-8h2.066v3.143h2.868V73H131v8zm8-2.227c0 .778-.173 1.345-.508 1.697-.341.351-.891.53-1.644.53h-2.69c-.753 0-1.303-.179-1.644-.53-.341-.352-.514-.92-.514-1.697v-3.552c0-.778.173-1.339.514-1.697.341-.351.885-.524 1.644-.524h2.69c.753 0 1.297.179 1.644.524.341.352.508.92.508 1.697v3.552zm-1.937-3.552c0-.445-.215-.667-.645-.667h-1.83c-.43 0-.645.222-.645.666v3.553c0 .444.215.666.645.666h1.83c.43 0 .645-.222.645-.666v-3.552zm9.86 1.322l-1.615 2.857h-1.616l-1.615-2.857V81H140v-8h2.192l2.308 4.229L146.808 73H149v8h-2.077v-4.457zM157 81h-2.066v-4.914L152.18 81H150v-8h2.066v4.914L154.82 73H157v8zm5.924-2.629c-.926.077-1.8.115-2.623.115-.823 0-1.408-.178-1.767-.527-.354-.35-.534-.902-.534-1.645V73h2.083v3.314c0 .178.051.318.154.42a.577.577 0 00.424.152c.63 0 1.382-.038 2.256-.115V73H165v8h-2.083v-2.629h.007zM172 81h-6v-8h6v1.6h-4.054v1.543h3.189v1.6h-3.189V79.4H172V81zm6.994-.225c-1.594.15-2.914.225-3.96.225-.702 0-1.213-.175-1.54-.52-.328-.344-.494-.888-.494-1.62v-3.606c0-.79.172-1.359.511-1.722.339-.357.88-.532 1.636-.532H179v1.578h-3.425c-.428 0-.642.225-.642.675v3.606c0 .175.047.313.142.413.095.1.22.15.369.15s.315 0 .494-.006c.178-.006.362-.006.559-.019.19-.006.386-.012.582-.025.197-.006.452-.025.761-.043.31-.025.696-.05 1.16-.082v1.528h-.006zM185.805 73c.19 0 .531.038 1.024.113v1.52h-.455a.516.516 0 00-.31.107.768.768 0 00-.202.232L184.78 77l2.22 4h-2.163l-1.764-3.211h-1.024V81H180v-7.887h2.049v3.098h1.024l1.138-2.14c.165-.314.373-.576.62-.77.247-.2.575-.301.974-.301zM195 81h-2.066v-4.914L190.18 81H188v-8h2.066v4.914L192.82 73H195v8zm5.934 1v-5.198L198.18 82H196v-8.462h2.066v5.198l2.754-5.198H203V82h-2.066zm-2.065-9.066c-.995 0-1.492-.524-1.492-1.571V71h1.492v.302c0 .121.038.222.115.302a.377.377 0 00.287.121h.344a.38.38 0 00.287-.12.423.423 0 00.114-.303V71h1.492v.363c0 1.047-.497 1.571-1.492 1.571h-1.147zM209.715 81c-.365 0-.742-.038-1.126-.113v-1.52h.986c.213 0 .36-.088.439-.258a.557.557 0 000-.475L207 73h2.192l1.972 4 1.644-4H215l-2.795 6.197c-.255.595-.56 1.04-.919 1.327-.402.32-.925.476-1.571.476zM222 81h-2.066v-3.257h-2.868V81H215v-8h2.066v3.143h2.868V73H222v8zm9 0h-2.066v-4.914L226.18 81H224v-8h2.066v4.914L228.82 73H231v8zm1-8h4.516c.74 0 1.28.172 1.625.508.345.337.52.858.52 1.55 0 .458-.1.827-.295 1.113a1.586 1.586 0 01-.721.597c.609.165 1.023.578 1.242 1.233.075.235.113.508.113.826 0 .75-.176 1.296-.521 1.646-.345.35-.89.527-1.624.527H232v-8zm4.629 2.287c0-.457-.226-.686-.677-.686h-1.92v1.602h1.92c.451 0 .677-.23.677-.687v-.229zm.339 3.203c0-.457-.226-.686-.678-.686h-2.258v1.601h2.258c.452 0 .678-.229.678-.686v-.229zM246 81h-6v-8h6v1.6h-4.054v1.543h3.189v1.6h-3.189V79.4H246V81zm1-8h4.738c.789 0 1.36.184 1.723.54.357.36.539.944.539 1.744v1.142c0 .8-.182 1.383-.539 1.745-.357.361-.927.545-1.723.545h-2.708V81H247v-8zm4.963 2.284c0-.457-.225-.685-.677-.685h-2.256v2.512h2.256c.452 0 .677-.228.677-.685v-1.142zm9.031 5.491c-1.594.15-2.914.225-3.96.225-.702 0-1.213-.175-1.54-.52-.328-.344-.494-.888-.494-1.62v-3.606c0-.79.172-1.359.511-1.722.339-.357.88-.532 1.636-.532H261v1.578h-3.425c-.428 0-.642.225-.642.675v3.606c0 .175.047.313.142.413.095.1.22.15.369.15s.315 0 .494-.006c.178-.006.362-.006.559-.019.19-.006.386-.012.582-.025.197-.006.452-.025.761-.043.31-.025.696-.05 1.16-.082v1.528h-.006zM269 81h-2.066v-4.914L264.18 81H262v-8h2.066v4.914L266.82 73H269v8zm4.55 0h-2.1v-6.4H269V73h7v1.6h-2.45V81zm9.45 0h-6v-8h6v1.6h-4.054v1.543h3.189v1.6h-3.189V79.4H283V81zm4.55 0h-2.1v-6.4H283V73h7v1.6h-2.45V81zM33 101h-3.836v-9.214L24.049 101H20V86h3.836v9.214L28.951 86H33v15zm16.077-8.357L46.026 98h-3.052l-3.05-5.357V101H36V86h4.141l4.359 7.929L48.859 86H53v15h-3.923v-8.357zM68 101H56V86h12v3h-8.107v2.896h6.383v3h-6.383v3.11H68V101zm15 0h-3.836v-6.11h-5.328V101H70V86h3.836v5.89h5.328V86H83v15zm15 0h-3.836v-9.214L89.049 101H85V86h3.836v9.214L93.951 86H98v15zm13.962 0H108V86h12v3h-8.038v12zM121 98h4v3h-4v-3zm6-12h9.032c1.478 0 2.562.318 3.252.955s1.039 1.604 1.039 2.902c0 .857-.194 1.555-.588 2.088-.393.533-.87.912-1.445 1.126 1.22.313 2.045 1.084 2.484 2.315.149.44.226.955.226 1.543 0 1.402-.348 2.43-1.039 3.085-.69.655-1.774.986-3.251.986H127V86zm9.265 4.286c0-.857-.452-1.286-1.355-1.286h-3.839v3h3.839c.903 0 1.355-.429 1.355-1.286v-.428zm.677 6c0-.857-.452-1.286-1.355-1.286h-4.516v3h4.516c.903 0 1.355-.429 1.355-1.286v-.428zM141 98h4v3h-4v-3zm26 3h-3.836V89h-5.328v12H154V86h13v15zm6.763-.875c-.61.585-1.353.875-2.248.875-.889 0-1.728-.072-2.515-.211v-2.854h1.003a.94.94 0 00.699-.278.986.986 0 00.298-.675L171.667 86H184v14.789h-4.001V88.963h-4.668l-.558 8.767c-.057 1.007-.4 1.81-1.01 2.395zm24.231.875H186V86h12v3h-8.109v2.896h6.374v3h-6.374v3.11h8.103V101zm10.487-15h4.412l-4.967 7.5L213 101h-4.412l-3.088-4.714-3.088 4.714H198l5.074-7.5-4.967-7.5h4.387l3 4.714L208.481 86zm8.79 15H213l5.805-15h4.384L229 101h-4.277l-.99-2.682h-5.479l-.983 2.682zm1.972-5.461h3.507l-1.753-5.039-1.754 5.039zM243 101h-3.836v-6.11h-5.328V101H230V86h3.836v5.89h5.328V86H243v15zm16-3.444c0 1.555-.338 2.685-1.022 3.39-.683.705-1.778 1.054-3.286 1.054h-5.384c-1.508 0-2.603-.349-3.286-1.054-.684-.705-1.022-1.835-1.022-3.39v-7.112c0-1.555.338-2.685 1.022-3.39.683-.705 1.778-1.054 3.286-1.054h5.384c1.508 0 2.603.35 3.286 1.054.684.705 1.022 1.835 1.022 3.39v7.112zm-3.877-7.112c0-.888-.431-1.333-1.292-1.333h-3.662c-.861 0-1.292.445-1.292 1.333v7.112c0 .888.431 1.333 1.292 1.333h3.662c.861 0 1.292-.445 1.292-1.333v-7.112zM261 86h9.032c1.478 0 2.562.318 3.252.955s1.039 1.604 1.039 2.902c0 .857-.194 1.555-.588 2.088-.393.533-.87.912-1.445 1.126 1.22.313 2.045 1.084 2.484 2.315.149.44.226.955.226 1.543 0 1.402-.348 2.43-1.039 3.085-.69.655-1.774.986-3.251.986H261V86zm9.258 4.286c0-.857-.452-1.286-1.355-1.286h-3.838v3h3.838c.903 0 1.355-.429 1.355-1.286v-.428zm.677 6c0-.857-.451-1.286-1.354-1.286h-4.516v3h4.516c.903 0 1.354-.429 1.354-1.286v-.428zm8.336 4.714H275l5.805-15h4.384L291 101h-4.277l-.99-2.682h-5.479l-.983 2.682zm1.972-5.461h3.507l-1.753-5.039-1.754 5.039z" fill="#fff"/></svg>