<svg width="66" height="66" fill="none" xmlns="http://www.w3.org/2000/svg"><path d="M1.933 47.47v.441l.313.313L17.87 63.848l.313.313h45.884V14.577l-.313-.313L51.736 2.246l-.313-.313H1.933V47.47z" stroke="#FB9B2B" stroke-width="2.133"/><path d="M37.085 14.831H22.437a3.662 3.662 0 00-3.662 3.662v29.296a3.662 3.662 0 003.662 3.662H44.41a3.662 3.662 0 003.662-3.662V25.817M37.085 14.831l10.986 10.986M37.085 14.831v10.986h10.986m-7.324 16.479H26.1m14.648-7.324H26.1m3.662-7.324H26.1" stroke="#FB9B2B" stroke-width="4.27" stroke-linecap="round" stroke-linejoin="round"/></svg>