<svg xmlns="http://www.w3.org/2000/svg" width="164" height="80" fill="none">
  <path fill="#D91920" d="M85.0991 69.3572c-3.1695-.2114-6.8242-.7671-9.7068-1.6021-.54-.1565-2.7756-.9784-3.3443-1.2393-10.0354-4.6496-17.0265-14.7993-17.0265-26.5745 0-16.1508 13.1371-29.3063 29.295-29.3063 16.0145 0 29.0625 12.9311 29.2875 28.8993h10.583C123.963 17.732 106.169.0626144 84.3165.0626144c-21.983 0-39.8757 17.8858856-39.8757 39.8786856 0 15.1619 8.525 28.3487 21.0074 35.0856 2.2539 1.1924 5.4886 2.4213 6.5868 2.7579 3.5582 1.0593 7.9251 1.7638 11.8119 2.0586 1.32.0992 5.9295.1514 7.2729.1566H164V69.4563H91.2424c-.9678 0-5.1964-.0365-6.1433-.0991Zm6.1433-16.5553c-.7695 0-4.7947-.0261-5.5381-.0887-1.26-.107-3.086-.2948-4.2599-.5636-1.3252-.3548-2.5695-.8245-3.1304-1.1323-3.9312-2.1265-6.6103-6.2856-6.6103-11.076 0-6.9691 5.6425-12.6206 12.6128-12.6206 6.8242 0 12.3728 5.4297 12.5945 12.2136h10.168c-.213-12.3936-10.3141-22.3816-22.7625-22.3816-12.5867 0-22.7891 10.2019-22.7891 22.7886 0 8.8764 5.0869 16.5422 12.4954 20.2968 1.14.6679 3.2843 1.3672 3.8947 1.5264 2.0921.5505 4.9016.9262 7.1816 1.0932.8426.0705 4.9694.1018 5.8407.107v.0156h73.0572V52.8019H91.2424Zm-53.3232 27.159H27.2655V10.6585H11.6971V-.00000763h26.2221V79.9609ZM0 15.9838v10.2489h11.6971v53.7282h10.2364V15.9838H0Z"/>
</svg>