<svg xmlns="http://www.w3.org/2000/svg" width="185" height="93" fill="none">
  <path fill="#EA1D24" d="M20.6291 26.9288c2.1275-2.384 2.8149-6.4662 2.8149-8.8502 0-3.8291-1.0229-6.3764-4.8607-6.3764-3.5841 0-5.2861 2.7187-5.2861 10.2055H0C0 10.6 5.45798.900696 19.1807.900696c10.3186 0 17.8223 6.123294 17.8223 16.671704 0 7.9929-2.8967 12.7609-6.6527 17.186-3.4122 4.0822-13.7227 11.4792-14.32 16.2472h21.9956v10.9729H0c0-18.6311 14.2382-27.9059 20.6291-35.0497ZM59.8807.900696c14.6146 0 18.125 8.082754 18.125 16.418604v28.1671c0 8.3277-3.5104 16.5003-18.125 16.5003-13.8619 0-17.7896-8.0828-17.7896-16.5003V17.3193c0-8.4175 3.9196-16.418604 17.7896-16.418604ZM55.3719 17.0662V45.813c0 3.9189.671 6.0825 4.3451 6.0825 3.846 0 5.0079-2.1636 5.0079-6.0825V17.0662c0-3.9189-1.1701-6.0825-5.0079-6.0825-3.6823 0-4.3451 2.1636-4.3451 6.0825Zm52.5191 2.833v-1.6655c0-9.08697 5.261-17.333004 17.871-17.333004 10.106 0 16.955 6.000824 16.955 14.916304 0 5.6661-1.334 10.7444-8.347 12.663 8.347 3.2494 9.599 7.8297 9.599 15.8308 0 12.4997-6.931 17.6677-18.371 17.6677-10.269 0-17.707-5.6661-17.707-18.6638V40.4h12.691v2.2534c0 4.4986 1.252 8.5808 5.008 8.5808 3.928 0 5.09-2.4167 5.09-8.8339 0-6.2458-2.169-7.8297-8.518-7.8297h-2.922v-9.4217h2.005c6.432 0 8.772-1.2491 8.772-7.9194 0-3.1678-1.252-6.2458-4.509-6.2458-3.003 0-4.926 2.2534-4.926 5.7478v3.1677h-12.691Zm52.656 4.4564c2.202-2.531 4.738-4.7272 10.401-4.7272 8.96 0 13.608 6.8336 13.608 19.9946 0 17.1207-6.26 22.3541-17.667 22.3541-12.683 0-18.01-5.6498-18.01-19.4884h12.765c.082 7.1683 1.522 9.3645 4.82 9.3645 3.297 0 4.647-2.1962 4.647-11.724 0-8.0991-1.35-10.4586-4.819-10.4586-3.044 0-4.141 1.8533-4.648 4.3843H149.55l1.693-32.64126h31.112V11.5375h-20.711l-1.097 12.8181Zm-61.8945 25.621H87.8756v10.7525h10.7769V49.9766Z"/>
  <path fill="#231F20" d="M8.91157 83.8585c-.65463 1.6982-1.29289 3.1678-1.92297 4.5802-.90012 1.9432-2.04573 3.6005-4.42694 3.6005H2.1116c-.49098 0-.92467-.3674-.92467-.8817 0-.4817.39278-.8818.87557-.8818h.35186c1.22744 0 1.88207-.6368 2.60216-1.8615L.491387 78.1598c-.065463-.147-.098194-.3103-.106377-.4736 0-.498.400961-.8981.90012-.8981h.02455c.43369 0 .67917.2042.81828.5716l3.82959 8.9563c.61372-1.388 1.26835-3.127 1.80024-4.5557.4746-1.3063 1.06377-3.0454 1.45655-4.3108.11456-.3919.48279-.6614.90016-.6532.5728 0 .8837.3266.8837.8164-.0082.196-.0409.3838-.0982.5716-.7201 2.139-1.37471 4.0168-1.98843 5.6742Zm17.08663-6.172c.0163-.5144.4418-.9144.9574-.9063.4909.0164.8919.4083.9083.9063v13.4304c-.0164.5144-.4419.9144-.9574.9063-.491-.0164-.892-.4083-.9083-.9063v-5.7477h-6.7591v5.7477c-.0082.5062-.4173.9144-.9247.9226-.4991-.0082-.9083-.4164-.9001-.9226V77.6865c-.0082-.498.401-.9144.9001-.9226.5074.0082.9165.4164.9247.9226v6.009h6.7591v-6.009Zm11.7649 13.4131c.0082.5144-.4091.9307-.9246.9389-.491 0-.9001-.4327-.9001-.9389V77.661c0-.5062.4091-.9063.9083-.9063.5073 0 .9083.4083.9083.9063v9.6177l7.0291-8.3277v-1.29c.0081-.5062.4173-.9144.9246-.9144.5074.0163.9083.4164.9247.9226v13.4304c0 .5062-.4092.9226-.9247.9389-.5155-.0082-.9246-.4245-.9246-.9389v-9.5932l-7.021 8.3032v1.29Zm22.3963.7596h-4.5087c-.5074 0-.9165-.4082-.9247-.9144V77.8736c.0082-.5062.4173-.9144.9247-.9226h4.0751c3.1585 0 4.386 1.6982 4.386 3.6577v.6123c0 1.4696-.7201 2.4493-1.9476 2.9637 1.5957.4899 2.5613 1.6982 2.5613 3.2903v.5551c0 2.2126-1.162 3.8291-4.5661 3.8291Zm2.1112-11.0464c0-1.2247-.7201-2.1227-2.5612-2.1227h-3.1341v4.8251h2.234c2.0702 0 3.4613-.5143 3.4613-2.1064v-.596Zm.6383 6.5642c0-1.388-1.1456-2.2044-3.0768-2.2044h-3.2568v4.9639h3.5678c2.1521 0 2.7658-.9634 2.7658-2.2697v-.4898Zm17.4381 4.4822h-7.1355c-.4828 0-.8755-.3837-.8755-.8654V77.8409c0-.4817.3927-.8736.8837-.8817h6.8245c.491 0 .8838.3919.9002.8817-.0082.4899-.4092.8818-.9002.8818h-5.8671v4.8496h5.3271c.4746-.0326.8837.3348.9083.8083.0245.4735-.3355.8818-.8101.9062h-5.4335v4.8252h6.1699c.4828 0 .8838.3919.8838.8818 0 .4898-.3928.8572-.8756.8654Zm13.4848-5.911h-3.1995v5.1681c0 .5062-.4091.9226-.9247.9226-.5155 0-.9246-.4083-.9246-.9226V77.8736c.0081-.5062.4173-.9144.9246-.9226h3.9114c3.5023 0 4.7134 2.082 4.7134 4.0251v1.045c.0082 2.3106-1.653 3.9271-4.5006 3.9271Zm2.684-4.9476c0-1.0614-.6546-2.3105-3.0113-2.3105h-2.8722v5.5844h3.134c1.923 0 2.7495-1.0614 2.7495-2.286v-.9879Zm14.0742-2.5548c-2.373 0-3.461 1.6165-3.461 4.8006v2.3351c0 3.331 1.006 4.7843 3.338 4.7843.818 0 1.637-.2041 2.291-.7185.352-.2449.516-.4082.819-.4082.474-.0163.777.3674.777.8001 0 .2449-.098.4736-.327.694-.941.9797-2.422 1.3063-3.568 1.3063-3.789 0-5.204-2.5963-5.204-6.4417v-2.3922c0-3.6821 1.456-6.4417 5.327-6.4417 1.227 0 2.586.3511 3.42 1.2247.246.2286.352.449.352.6939-.016.4654-.409.8328-.875.8165-.287.0163-.434-.1633-.762-.4082-.548-.4409-1.268-.645-2.127-.645Zm13.363 12.6556c0 .5144-.409.9308-.924.9389-.491 0-.9-.4327-.9-.9389V77.6628c-.017-.5062.384-.9225.883-.9389.508-.0163.925.3838.941.8818v9.6748l7.03-8.3277v-1.29c.008-.5062.417-.9144.924-.9144.508.0164.909.4164.925.9226v13.4304c-.008.5062-.409.9226-.925.9389-.515-.0081-.924-.4245-.924-.9389v-9.5931l-7.03 8.3031v1.29ZM146 78.7074v12.4099c.008.498-.401.9144-.9.9226-.508-.0082-.917-.4164-.917-.9226V78.7074h-3.87c-.516 0-.901-.3674-.901-.8573 0-.5143.393-.8817.901-.8817h9.59c.483 0 .867.3919.867.8654 0 .4735-.392.8654-.867.8654H146v.0082Zm19.368 13.1518h-7.136c-.483 0-.875-.3837-.884-.8654v-13.161c0-.4817.393-.8736.884-.8818h6.825c.491 0 .883.3919.9.8818-.008.4899-.409.8818-.9.8818h-5.859v4.8496h5.327c.474-.0326.884.3348.908.8083.033.4735-.335.8817-.81.9062h-5.433v4.8252h6.17c.482 0 .883.3919.883.8817 0 .4899-.384.8655-.875.8736Zm13.118-13.1518v12.4099c.008.498-.401.9144-.901.9226-.507-.0082-.916-.4164-.924-.9226V78.7074h-3.871c-.515 0-.9-.3674-.9-.8573 0-.5143.393-.8817.9-.8817h9.591c.482 0 .867.3919.867.8654 0 .4735-.393.8654-.867.8654h-3.895v.0082Z"/>
</svg>