<svg xmlns="http://www.w3.org/2000/svg" width="156" height="308" fill="none">
  <path fill="#E53130" d="M57.199 149H4.99902c-1.6 0-2.19999-2-.89999-2.9L151.799 49.5c1.3-.8 2.8.4 2.3 1.8l-92.4 254.8c-.6 1.6-3 1.2-3-.5V150.5c0-.8-.7-1.5-1.5-1.5ZM18.5 31.7998v-26.1H6.29999v26.1H0V.299805h24.8V31.7998h-6.3Zm24.0996-13.9c0-.9-.2-1.6-.5-2.2-.2-.7-.6-1.2-1-1.6-.4-.4-.9-.8-1.5-.9-.6-.2-1.1-.3-1.7-.3-1.2 0-2.2.5-3.1 1.4-.9.9-1.4 2.1-1.5 3.7h9.3v-.1Zm-9.5 3.9c.1 1.8.6 3.2 1.5 4.2s2.1 1.6 3.6 1.6c1 0 1.8-.2 2.6-.7.8-.5 1.3-1.1 1.5-1.9h6.2c-.7 2.4-1.9 4.2-3.7 5.5-1.8 1.3-3.8 1.9-6.3 1.9-7.6 0-11.4-4.2-11.4-12.7 0-1.8.2-3.4.7-4.9.5-1.5 1.2-2.7 2.1-3.7 1-1 2.1-1.8 3.5-2.4 1.4-.6 2.9-.9 4.7-.9 3.5 0 6.2 1.2 7.9 3.5 1.8 2.3 2.7 5.8 2.7 10.4h-15.6v.1Zm28.9012 5.3996c3.4 0 5.2-2.4 5.2-7.2 0-2.1-.5-3.8-1.4-5.1-1-1.3-2.2-2-3.7-2-1.4 0-2.7.6-3.6 1.8-1 1.2-1.4 2.8-1.4 4.8-.1 5.2 1.6 7.7 4.9 7.7Zm-10.7 15.7V8.59943h5.8v2.79997c1.4-2.29999 3.5-3.49999 6.3-3.49999 1.4 0 2.7.30001 3.9.90001 1.2.6 2.3 1.39998 3.1 2.49998.9 1.1 1.5 2.4 2 3.9s.7 3.3.7 5.3c0 1.8-.2 3.4-.6 4.9-.4 1.5-1 2.7-1.8 3.8-.8 1.1-1.8 1.9-3 2.5-1.1.6-2.4.9-3.9.9-2.8 0-5-1.2-6.7-3.6v14.1h-5.8v-.2ZM75.5996 31.8V8.5h15.7c1.4 0 2.5.2 3.4.5.9.3 1.7.7 2.3 1.2.6.5 1 1.1 1.2 1.8.2.7.4 1.4.4 2.2 0 1.4-.4 2.5-1.1 3.4-.7.8-1.6 1.4-2.6 1.7.6.1 1.1.3 1.6.7.5.3 1 .7 1.4 1.1.4.5.8 1.1 1 1.8.2.7.4 1.5.4 2.4 0 1-.2 1.9-.5 2.7-.3.8-.9 1.5-1.6 2.1-.7.6-1.6 1-2.8 1.4-1.1.3-2.5.5-4.1.5h-14.7v-.2Zm13.8-4.3c2.6 0 3.9-1.1 3.9-3.2s-1.2-3.1-3.6-3.1h-8.5v6.3h8.2Zm.2-9.9c1 0 1.8-.2 2.3-.6.6-.4.8-1 .8-1.7 0-1.8-1.1-2.7-3.3-2.7h-8.1v4.9h8.3v.1ZM107.7 8.49942v7.39998h7.6c2.6 0 4.6.7 6.1 2s2.2 3.3 2.2 5.8c0 2.6-.7 4.6-2.2 6-1.4 1.4-3.5 2-6.1 2h-13.4V8.39941h5.8v.10001Zm0 11.89998v6.9h7.2c1.1 0 2-.3 2.6-.9.6-.6.9-1.5.9-2.6s-.3-2-.9-2.6c-.6-.6-1.5-.9-2.6-.9h-7.2v.1Zm17.8 11.4V8.49942h6V31.7994h-6Zm24.199-13.8996c0-.9-.2-1.6-.5-2.2-.2-.7-.6-1.2-1-1.6-.4-.4-.9-.8-1.5-.9-.6-.2-1.1-.3-1.7-.3-1.2 0-2.2.5-3.1 1.4-.9.9-1.4 2.1-1.5 3.7h9.3v-.1Zm-9.5 3.9c.1 1.8.6 3.2 1.5 4.2s2.1 1.6 3.6 1.6c1 0 1.8-.2 2.6-.7.8-.5 1.3-1.1 1.5-1.9h6.2c-.7 2.4-1.9 4.2-3.7 5.5-1.8 1.3-3.8 1.9-6.3 1.9-7.6 0-11.4-4.2-11.4-12.7 0-1.8.2-3.4.7-4.9.5-1.5 1.2-2.7 2.1-3.7 1-1 2.1-1.8 3.5-2.4 1.4-.6 2.9-.9 4.7-.9 3.5 0 6.2 1.2 7.9 3.5 1.8 2.3 2.7 5.8 2.7 10.4h-15.6v.1Z"/>
</svg>