<svg xmlns="http://www.w3.org/2000/svg" width="166" height="26" fill="none"><path fill-rule="evenodd" clip-rule="evenodd" d="M0 16.648s5.023.048 7.3.456c7.247 1.283 7.525 7.982 7.525 7.982s-1.18.066-4.295.066C3.268 25.152 0 16.648 0 16.648ZM30.649 16.648s-5.023.048-7.3.456c-7.245 1.283-7.523 7.982-7.523 7.982s1.18.066 4.294.066c7.263 0 10.529-8.504 10.529-8.504Z" fill="#2DAA55"/><path fill-rule="evenodd" clip-rule="evenodd" d="M18.031 15.87c0 1.454-1.211 2.632-2.706 2.632-1.496 0-2.708-1.178-2.708-2.632 0-1.453 1.212-2.632 2.707-2.632 1.496 0 2.707 1.179 2.707 2.632ZM23.565 13.28c0 1.453-1.212 2.632-2.707 2.632-1.495 0-2.707-1.179-2.707-2.632 0-1.454 1.212-2.632 2.707-2.632 1.495 0 2.707 1.178 2.707 2.632ZM21.102 2.79c0 1.453-1.212 2.632-2.707 2.632-1.495 0-2.707-1.179-2.707-2.632 0-1.454 1.212-2.632 2.707-2.632 1.495 0 2.707 1.178 2.707 2.632ZM14.96 2.79c0 1.453-1.211 2.632-2.706 2.632-1.496 0-2.708-1.179-2.708-2.632 0-1.454 1.212-2.632 2.708-2.632 1.495 0 2.707 1.178 2.707 2.632ZM12.498 13.28c0 1.453-1.211 2.632-2.707 2.632-1.495 0-2.707-1.179-2.707-2.632 0-1.454 1.212-2.632 2.707-2.632 1.495 0 2.707 1.178 2.707 2.632ZM24.931 7.459c0 1.453-1.212 2.631-2.707 2.631-1.495 0-2.707-1.178-2.707-2.631 0-1.454 1.212-2.632 2.707-2.632 1.495 0 2.707 1.178 2.707 2.632ZM11.132 7.459c0 1.453-1.212 2.631-2.707 2.631-1.496 0-2.708-1.178-2.708-2.631 0-1.454 1.212-2.632 2.708-2.632 1.495 0 2.707 1.178 2.707 2.632ZM44.14 22.817c-2.937.024-8.077-.81-8.077-6.664 0-5.783 5.14-6.76 8.077-6.664V7.656h4.798v1.833c2.938-.096 8.078.88 8.078 6.664 0 5.854-5.14 6.688-8.078 6.664v2.332H44.14v-2.332Zm.343-9.997c-1.199-.023-3.623.382-3.623 3.333 0 2.95 2.424 3.355 3.623 3.332V12.82Zm4.113 6.665c1.2.023 3.622-.381 3.622-3.332 0-2.951-2.423-3.356-3.622-3.332v6.664Zm10.2-2.666c0-4.45 2.937-8.806 9.204-8.806 6.267 0 9.204 4.355 9.204 8.806 0 4.451-2.937 8.806-9.204 8.806-6.267 0-9.204-4.355-9.204-8.806Zm13.463 0c0-3.213-2.032-4.807-4.259-4.807-2.228 0-4.26 1.594-4.26 4.807s2.032 4.807 4.26 4.807c2.227 0 4.259-1.594 4.259-4.807Zm20.102 7.569c-1.542 1.023-3.158 1.237-4.626 1.237-5.092 0-8.764-3.475-8.764-8.806 0-5.57 4.04-8.806 8.69-8.806 1.518 0 3.255.381 4.7 1.333v4.83c-.88-.998-2.228-1.998-4.063-1.998-2.645 0-4.382 2.046-4.382 4.783 0 2.524 1.64 4.499 4.382 4.499 1.786 0 3.182-.928 4.063-1.809v4.736Zm7.336-15.899h5.826l6.096 16.66h-5.141l-.955-2.88h-5.826l-.954 2.88h-5.14l6.094-16.66Zm.956 10.115h3.915l-1.958-6.14-1.957 6.14ZM113.29 8.489h10.281v3.998h-5.483V25.15h-4.798V8.489Zm12.173 0h7.221c4.871 0 6.242 3.285 6.242 5.57 0 2.308-1.395 5.592-6.242 5.592h-2.423v5.498h-4.798V8.489Zm4.798 7.497h1.37c2.131 0 2.351-1.214 2.351-1.928 0-.833-.294-1.903-2.351-1.903h-1.37v3.831Zm10.283.833c0-4.45 2.938-8.806 9.204-8.806s9.204 4.355 9.204 8.806c0 4.451-2.938 8.806-9.204 8.806s-9.204-4.355-9.204-8.806Zm13.463 0c0-3.213-2.032-4.807-4.259-4.807-2.228 0-4.26 1.594-4.26 4.807s2.032 4.807 4.26 4.807c2.227 0 4.259-1.594 4.259-4.807Zm11.24-6.52c0 1.503-1.149 2.634-2.709 2.634-1.559 0-2.708-1.131-2.708-2.633 0-1.51 1.149-2.648 2.708-2.648 1.56 0 2.709 1.139 2.709 2.648Zm-4.97 0c0 1.27.933 2.243 2.261 2.243s2.261-.973 2.261-2.242c0-1.277-.933-2.256-2.261-2.256s-2.261.979-2.261 2.256Zm2.139-1.537c.343 0 1.119.058 1.119.921 0 .464-.284.762-.686.842l1.043 1.284h-.671l-.925-1.204h-.149v1.204h-.537V8.763h.806Zm-.269 1.364h.201c.224 0 .649-.022.649-.443 0-.442-.432-.442-.634-.442h-.216v.885Z" fill="#004A86"/></svg>