<svg xmlns="http://www.w3.org/2000/svg" width="228" height="84" fill="none">
  <g clip-path="url(#a)">
    <path stroke="#D7D9D8" stroke-width="3.34583" d="m11.9922 36.2695 9.0545 6.7911m2.5353 11.3085-2.1035 11.1211"/>
    <path stroke="#3838F3" stroke-width="3.34583" d="m57.7148 52.8555 2.0416 13.4276"/>
    <path stroke="#EC1D35" stroke-width="3.34583" d="m42.1465 12.3711 5.8248 12.2696M38.3121 12.748l-5.5855 12.3803"/>
    <path stroke="#3838F3" stroke-width="3.34583" d="m43.4961 62.1875 12.2533 5.8588"/>
    <path stroke="#EC1D35" stroke-width="3.34583" d="m54.4727 30.4004 15.7163 2.0198"/>
    <path fill="#D7D9D8" d="M7.92279 39.4413c4.37561 0 7.92281-3.5472 7.92281-7.9228 0-4.3756-3.5472-7.9228-7.92281-7.9228C3.54715 23.5957 0 27.1429 0 31.5185c0 4.3756 3.54715 7.9228 7.92279 7.9228ZM23.7685 56.4237c4.3756 0 7.9228-3.5472 7.9228-7.9228 0-4.3756-3.5472-7.9228-7.9228-7.9228-4.3756 0-7.9228 3.5472-7.9228 7.9228 0 4.3756 3.5472 7.9228 7.9228 7.9228Zm-2.2598 21.5039c4.3757 0 7.9228-3.5472 7.9228-7.9228 0-4.3756-3.5471-7.9228-7.9228-7.9228-4.3756 0-7.9228 3.5472-7.9228 7.9228 0 4.3756 3.5472 7.9228 7.9228 7.9228Z"/>
    <path fill="#3838F3" d="M56.5917 55.2928c3.7506 0 6.791-3.0404 6.791-6.7909 0-3.7505-3.0404-6.791-6.791-6.791-3.7505 0-6.7909 3.0405-6.7909 6.791s3.0404 6.7909 6.7909 6.7909ZM40.7382 66.6092c3.7506 0 6.791-3.0404 6.791-6.7909 0-3.7505-3.0404-6.791-6.791-6.791-3.7505 0-6.7909 3.0405-6.7909 6.791s3.0404 6.7909 6.7909 6.7909ZM61.123 77.9276c3.7505 0 6.7909-3.0404 6.7909-6.7909 0-3.7506-3.0404-6.791-6.7909-6.791-3.7506 0-6.791 3.0404-6.791 6.791 0 3.7505 3.0404 6.7909 6.791 6.7909Z"/>
    <path fill="#EC1D35" d="M52.0605 36.0487c3.7505 0 6.7909-3.0404 6.7909-6.791 0-3.7505-3.0404-6.7909-6.7909-6.7909-3.7506 0-6.791 3.0404-6.791 6.7909 0 3.7506 3.0404 6.791 6.791 6.791Zm22.6406 3.3945c3.7505 0 6.791-3.0404 6.791-6.7909 0-3.7506-3.0405-6.791-6.791-6.791s-6.7909 3.0404-6.7909 6.791c0 3.7505 3.0404 6.7909 6.7909 6.7909ZM40.7382 14.5428c3.7506 0 6.791-3.0404 6.791-6.79091 0-3.75054-3.0404-6.790952-6.791-6.790952-3.7505 0-6.7909 3.040412-6.7909 6.790952 0 3.75051 3.0404 6.79091 6.7909 6.79091Zm-9.0469 20.3731c3.7506 0 6.791-3.0404 6.791-6.791 0-3.7505-3.0404-6.7909-6.791-6.7909-3.7505 0-6.7909 3.0404-6.7909 6.7909 0 3.7506 3.0404 6.791 6.7909 6.791Z"/>
    <path fill="#38383A" d="M93.5723 55.2454V31.7841l6.7777-6.7779h12.578v-4.3011h8.733v4.3011h12.578l6.777 6.7779v23.4613l-6.777 6.7777h-12.578v4.3013h-8.733v-4.3013H100.35l-6.7777-6.7777Zm8.9937-22.6793v21.8973h10.362V32.5661h-10.362Zm29.457 0h-10.362v21.8973h10.362V32.5661Zm17.474 26.7199V27.7434l7.038-7.0383h23.332v8.4069h-20.855v28.8054h21.505v8.407h-23.982l-7.038-7.0384Zm38.17 7.0384V20.7051h35.583v45.6193h-9.253V28.7862h-17.074v37.5382h-9.256Z"/>
  </g>
  <defs>
    <clipPath id="a">
      <path fill="#fff" d="M0 0h228v82.08H0z" transform="translate(0 .960938)"/>
    </clipPath>
  </defs>
</svg>
