<svg xmlns:dc="http://purl.org/dc/elements/1.1/" xmlns:cc="http://creativecommons.org/ns#" xmlns:rdf="http://www.w3.org/1999/02/22-rdf-syntax-ns#" xmlns:svg="http://www.w3.org/2000/svg" xmlns="http://www.w3.org/2000/svg" viewBox="0 0 236 149.33333" height="149.33333" width="236" xml:space="preserve" id="svg2" version="1.1"><metadata id="metadata8"><rdf:RDF><cc:Work rdf:about=""><dc:format>image/svg+xml</dc:format><dc:type rdf:resource="http://purl.org/dc/dcmitype/StillImage"/></cc:Work></rdf:RDF></metadata><defs id="defs6"/><g transform="matrix(1.3333333,0,0,-1.3333333,0,149.33333)" id="g10"><g transform="scale(0.1)" id="g12"><path id="path14" style="fill:#134bb7;fill-opacity:1;fill-rule:evenodd;stroke:none" d="m 457.859,485.813 v -0.379 c 65.391,97.726 98.485,196.953 98.868,314.437 0,116.719 -35.372,218.239 -98.868,315.579 h -0.382 C 400.066,1023.83 363.574,928 360.152,821.16 356.344,701.781 390.57,584.289 457.859,485.813 Z m 0,22.812 v 0.391 c -18.238,35.722 -27.761,74.515 -27.761,114.05 0,38.793 9.523,79.461 27.761,113.696 v 0.367 c 17.496,-36.121 27.762,-73.75 27.762,-114.063 0,-41.437 -10.266,-77.164 -27.762,-114.441 z m -73.382,315.203 c 6.457,86.692 32.703,164.633 73,242.952 l 0.382,-0.38 c 46.379,-83.65 70.719,-165.771 75.289,-260.822 2.278,-41.828 -1.906,-82.519 -10.644,-123.578 1.891,42.207 -0.395,81.75 -7.988,122.809 -10.278,57.031 -30.043,107.992 -56.657,159.691 l -0.382,0.379 C 433.91,918.121 416.043,872.109 405.02,821.539 394.758,774.398 392.461,730.668 392.461,682 c -6.848,47.527 -11.406,93.93 -7.984,141.828"/><path id="path16" style="fill:#134bb7;fill-opacity:1;fill-rule:evenodd;stroke:none" d="m 357.477,369.863 c 19.011,18.625 36.89,28.125 63.89,25.461 43.34,-4.191 71.086,-30.031 73.371,-73 4.196,-82.129 -104.554,-131.945 -172.613,-128.129 -98.48,4.938 -163.871,68.422 -179.469,158.93 -9.5,55.121 11.024,115.582 49.821,157.402 38.398,41.063 90.488,57.414 144.468,58.551 V 815.84 C 152.539,815.84 16.4258,685.051 6.92969,505.965 -3.33594,306.355 141.52,170.992 326.313,164.531 c 98.097,-3.797 171.464,33.082 238.773,96.578 V 473.648 H 357.477 V 369.863"/><path id="path18" style="fill:#134bb7;fill-opacity:1;fill-rule:evenodd;stroke:none" d="m 614.254,171.637 h 61.652 v 253.414 h 28.407 v 48.211 H 614.254 V 171.637"/><path id="path20" style="fill:#134bb7;fill-opacity:1;fill-rule:evenodd;stroke:none" d="M 736.094,473.262 706.926,171.637 h 54.953 l 6.344,55.301 h 23.922 l 6.734,-55.301 h 54.949 l -29.539,301.625 z m 34.383,-190.992 8.207,108.769 h 3.007 l 8.602,-108.769 h -19.816"/><path id="path22" style="fill:#134bb7;fill-opacity:1;fill-rule:evenodd;stroke:none" d="m 998.469,327.125 v 3.359 c 13.461,2.239 13.091,28.77 13.091,40.746 v 48.204 c 0,37.015 -2.63,53.828 -45.603,53.828 h -51.215 c -43.355,0 -45.969,-21.676 -45.969,-53.828 v -39.606 h 61.665 v 34 c 0,7.856 6.371,10.102 9.718,10.102 5.992,0 9.723,-4.867 9.723,-10.102 v -35.883 c 0,-18.691 -5.973,-22.402 -23.551,-22.402 h -11.586 v -52.715 h 10.477 c 23.172,0 24.66,-10.473 24.66,-19.808 v -54.954 c 0,-5.211 -3.731,-10.089 -9.723,-10.089 -3.347,0 -9.718,2.253 -9.718,10.089 v 53.086 h -61.665 v -55.32 c 0,-42.977 2.614,-54.195 45.969,-54.195 h 51.215 c 39.613,0 45.603,7.48 45.603,54.195 v 60.543 c 0,10.848 1.86,40.75 -13.091,40.75"/><path id="path24" style="fill:#134bb7;fill-opacity:1;fill-rule:evenodd;stroke:none" d="m 1039.22,171.637 h 61.65 v 252.668 h 19.44 V 171.637 h 61.68 V 473.262 H 1039.22 V 171.637"/><path id="path26" style="fill:#134bb7;fill-opacity:1;fill-rule:evenodd;stroke:none" d="m 1310.95,473.262 h -96.8 V 171.637 h 61.66 V 274.41 h 35.14 c 43.34,0 45.93,19.445 45.93,53.844 v 91.18 c 0,26.543 -2.59,53.828 -45.93,53.828 z m -15.71,-136.793 c 0,-9.727 -4.88,-15.336 -11.6,-15.336 h -7.83 v 103.918 h 7.83 c 6.72,0 11.6,-5.617 11.6,-14.949 v -73.633"/><path id="path28" style="fill:#134bb7;fill-opacity:1;fill-rule:evenodd;stroke:none" d="m 1479.87,473.262 h -51.19 c -42.99,0 -45.62,-24.664 -45.62,-53.078 V 225.832 c 0,-35.125 2.63,-54.195 45.62,-54.195 h 51.19 c 43.37,0 45.97,16.832 45.97,54.195 v 193.602 c 0,29.164 -2.6,53.828 -45.97,53.828 z m -15.68,-243.699 c 0,-5.231 -4.11,-9.723 -9.76,-9.723 -3.71,0 -9.7,1.887 -9.7,9.723 v 185.015 c 0,7.848 5.99,9.727 9.7,9.727 5.65,0 9.76,-4.492 9.76,-9.727 V 229.563"/><path id="path30" style="fill:#134bb7;fill-opacity:1;fill-rule:evenodd;stroke:none" d="m 1682.07,473.262 -24.67,-137.914 -22.43,137.914 h -80.34 V 171.637 h 62.05 v 136.789 h 2.24 l 20.54,-136.789 h 37.75 l 21.31,136.789 h 2.24 V 171.637 h 61.66 v 301.625 h -80.35"/></g></g></svg>