<svg width="334" height="56" viewBox="0 0 334 56" fill="none" xmlns="http://www.w3.org/2000/svg">
<path d="M65.324 28.2773C63.2784 33.5197 59.7521 37.9096 54.997 41.0507C47.6346 45.929 38.5652 46.171 35.959 46.1443V51.7241H36.4451C40.2445 51.7241 49.9134 51.1336 58.1581 45.6748C64.4893 41.4836 69.1501 35.471 71.4488 28.2773H65.3218H65.324Z" fill="#007D32"/>
<path d="M6.63558 23.5336C8.68124 18.2912 12.2065 13.9013 16.9615 10.7601C24.325 5.88297 33.3944 5.6388 36.0006 5.66766V0.0878906H35.5145C31.7151 0.0878906 22.0451 0.678402 13.8015 6.13718C7.46139 10.3295 2.79957 16.341 0.501953 23.5346H6.64002L6.63558 23.5336Z" fill="#007D32"/>
<path d="M36.0155 14.5469C29.742 14.5469 24.6484 19.6394 24.6484 25.914C24.6484 32.1885 29.742 37.281 36.0155 37.281C42.2901 37.281 47.3826 32.1885 47.3826 25.914C47.3826 19.6394 42.299 14.548 36.0166 14.548L36.0155 14.5469ZM32.8188 26.1015C31.0551 26.1015 29.6299 24.6763 29.6299 22.9126C29.6299 21.1489 31.0551 19.7237 32.8188 19.7237C34.5815 19.7237 36.0078 21.1489 36.0078 22.9126C36.0189 24.6774 34.587 26.0982 32.8222 26.0982L32.8188 26.1015Z" fill="#007D32"/>
<path d="M80.4805 55.5421V28.2871H86.2856V55.5421H80.4805Z" fill="black"/>
<path d="M110.812 55.5421L97.8129 37.7684V55.5421H92.0078V28.2871H97.9727L110.596 45.4126V28.2871H116.401V55.5421H110.818H110.812Z" fill="black"/>
<path d="M122.094 55.5421V28.2871H141.387V33.3973H127.9V39.1558H140.608V44.2671H127.9V55.5499H122.095L122.094 55.5421Z" fill="black"/>
<path d="M144.844 41.8183C144.844 33.6024 150.855 27.7207 159.062 27.7207C167.316 27.7207 173.329 33.6013 173.329 41.8183C173.329 50.0331 167.316 55.9136 159.062 55.9136C150.849 55.9136 144.844 50.0309 144.844 41.8172V41.8183ZM167.354 41.8183C167.354 36.7058 164.082 32.8698 159.062 32.8698C154.035 32.8698 150.809 36.7147 150.809 41.8183C150.809 46.8819 154.034 50.7656 159.062 50.7656C164.09 50.7656 167.354 46.8908 167.354 41.8183Z" fill="black"/>
<path d="M246.678 55.541V33.3974H238.705V28.2871H260.446V33.3974H252.52V55.551H246.677V55.5399L246.678 55.541Z" fill="black"/>
<path d="M262.459 41.8183C262.459 33.4414 268.789 27.7207 276.967 27.7207C282.979 27.7207 286.449 30.994 288.371 34.3793L283.382 36.8279C282.238 34.6236 279.79 32.8609 276.967 32.8609C272.025 32.8609 268.423 36.6592 268.423 41.8083C268.423 46.9585 272.015 50.7568 276.967 50.7568C279.79 50.7568 282.238 49.0408 283.382 46.7898L288.371 49.2006C286.411 52.596 282.979 55.9059 276.967 55.9059C268.798 55.9059 262.46 50.1785 262.46 41.8094L262.459 41.8183Z" fill="black"/>
<path d="M310.659 55.5421V44.0995H297.782V55.5421H291.977V28.2871H297.782V38.9971H310.659V28.2871H316.503V55.5421H310.654H310.659Z" fill="black"/>
<path d="M234.065 55.5421L232.51 50.928H220.871L219.38 55.5421H213.207L222.653 28.2871H230.878L240.34 55.5421H234.069H234.065ZM226.684 32.9212L222.511 45.8366H230.848L226.685 32.9167L226.684 32.9212Z" fill="black"/>
<path d="M208.847 28.2988L202.986 47.0793L197.836 28.2988H194.961H192.097L186.947 47.0793L181.086 28.2988H174.549L184.006 55.5483H190.177L194.961 36.8455V36.8899L194.972 36.8455L199.756 55.5483H205.927L215.384 28.2988H208.847Z" fill="black"/>
<path d="M326.522 14.4311C322.667 14.4311 319.545 17.5534 319.545 21.4093C319.545 25.2642 322.667 28.3877 326.522 28.3877C330.377 28.3877 333.499 25.2642 333.499 21.4093C333.499 17.5578 330.38 14.4277 326.518 14.4277L326.522 14.4311ZM326.522 26.9958C323.436 26.9958 320.942 24.4917 320.942 21.4149C320.942 18.3381 323.446 15.8352 326.522 15.8352C329.607 15.8352 332.102 18.3392 332.102 21.4149C332.102 24.4906 329.604 26.998 326.519 26.998L326.522 26.9958Z" fill="black"/>
<path d="M327.726 24.6077L326.431 22.2724H325.409V24.6077H324.012V18.0234H327.087C328.456 18.0234 329.301 18.9247 329.301 20.1435C329.301 21.3067 328.569 21.9249 327.856 22.0936L329.337 24.5977H327.725L327.726 24.6077ZM327.87 20.1457C327.87 19.5918 327.448 19.2544 326.885 19.2544H325.412V21.027H326.885C327.44 21.027 327.873 20.694 327.873 20.139L327.87 20.1457Z" fill="black"/>
</svg>
