<svg width="192" height="20" viewBox="0 0 651 61" fill="none" xmlns="http://www.w3.org/2000/svg"><path d="M271.868 45.07a8.443 8.443 0 0 1-1.909 1.673 15.268 15.268 0 0 1-2.905 1.472c-1.211.469-2.461.83-3.735 1.079a21.829 21.829 0 0 1-4.415.418 23.994 23.994 0 0 1-8.147-1.313 17.679 17.679 0 0 1-6.245-3.763 16.93 16.93 0 0 1-4.021-5.975 21.02 21.02 0 0 1-1.436-7.998 20.077 20.077 0 0 1 1.411-7.634 17.262 17.262 0 0 1 4.013-6.012 18.234 18.234 0 0 1 6.295-3.918 23.003 23.003 0 0 1 8.229-1.396 22.57 22.57 0 0 1 7.42 1.078c1.66.53 3.242 1.282 4.702 2.237v9.156a15.265 15.265 0 0 0-2.075-2.366 14.823 14.823 0 0 0-2.768-2.053 15.455 15.455 0 0 0-3.394-1.446 13.574 13.574 0 0 0-3.893-.552 14.563 14.563 0 0 0-5.395.945 11.665 11.665 0 0 0-4.075 2.634 11.226 11.226 0 0 0-2.561 4.076 15.097 15.097 0 0 0-.888 5.289 15.287 15.287 0 0 0 .83 5.017c.51 1.54 1.346 2.95 2.451 4.133a11.104 11.104 0 0 0 3.948 2.711 14.745 14.745 0 0 0 5.541 1.079 17.398 17.398 0 0 0 4.407-.527c1.271-.323 2.499-.8 3.656-1.421a13.108 13.108 0 0 0 2.905-2.09 11.048 11.048 0 0 0 2.037-2.63l.017 8.098ZM305.984 18.36h-12.329v30.788h-6.528V18.36h-12.118v-6.05h30.975v6.05ZM318.249 37.676v11.472h-6.523V12.31h12.167c5.782 0 9.971 1.044 12.566 3.131 2.595 2.088 3.891 5.201 3.889 9.34 0 4.315-1.393 7.543-4.179 9.684-2.786 2.14-6.878 3.21-12.276 3.21h-5.644Zm0-19.316v13.262h6.113c3.063 0 5.36-.536 6.893-1.606 1.533-1.07 2.299-2.868 2.299-5.393 0-2.277-.714-3.891-2.141-4.842-1.428-.95-3.743-1.424-6.947-1.421h-6.217ZM378.155 49.148h-6.951l-3.499-8.738H350.94l-3.449 8.738h-6.64l14.853-36.838h7.416l15.035 36.838ZM365.29 34.36l-6.005-15.106-5.997 15.106h12.002ZM393.242 30.413 380.863 12.31h7.835l9.35 13.943 9.939-13.943h7.573L402.5 30.045l13.529 19.103h-7.793l-10.375-14.842-10.031 14.842h-7.648l13.06-18.735ZM417.342 30.648c-.03-2.61.44-5.203 1.382-7.635a17.435 17.435 0 0 1 3.947-6 17.794 17.794 0 0 1 6.162-3.917 22.226 22.226 0 0 1 8.097-1.396 23.35 23.35 0 0 1 8.009 1.308 17.445 17.445 0 0 1 6.192 3.763 16.673 16.673 0 0 1 3.967 5.975 21.351 21.351 0 0 1 1.411 7.998c.03 2.609-.439 5.2-1.382 7.63a17.347 17.347 0 0 1-3.946 6 17.765 17.765 0 0 1-6.188 3.921 22.386 22.386 0 0 1-8.072 1.393 23.864 23.864 0 0 1-8.017-1.288 17.149 17.149 0 0 1-6.192-3.738 16.636 16.636 0 0 1-3.967-6 21.56 21.56 0 0 1-1.403-8.014Zm6.893.05c-.007 1.72.274 3.428.83 5.055a11.303 11.303 0 0 0 2.428 4.101 11.696 11.696 0 0 0 3.996 2.764 15.138 15.138 0 0 0 10.761.08 11.606 11.606 0 0 0 3.967-2.63 11.446 11.446 0 0 0 2.536-4.081c.608-1.696.909-3.487.888-5.29a15.515 15.515 0 0 0-.83-5.05 11.306 11.306 0 0 0-2.432-4.105 11.776 11.776 0 0 0-3.992-2.764 13.787 13.787 0 0 0-5.511-1.024 14.017 14.017 0 0 0-5.279.944 11.123 11.123 0 0 0-3.986 2.649 11.238 11.238 0 0 0-2.517 4.087 15.352 15.352 0 0 0-.859 5.264ZM464.38 49.914V13.076h15.882c8.216 0 12.325 3.052 12.325 9.156a9.86 9.86 0 0 1-1.303 5.264c-.872 1.393-2.248 2.462-4.129 3.207 2.265.39 3.925 1.294 4.98 2.713 1.054 1.419 1.577 3.34 1.568 5.761a11.181 11.181 0 0 1-.992 4.896 8.577 8.577 0 0 1-2.846 3.345 12.741 12.741 0 0 1-4.495 1.894 26.72 26.72 0 0 1-5.98.606l-15.01-.004Zm14.94-21.264c2.091 0 3.737-.438 4.938-1.313a4.317 4.317 0 0 0 1.801-3.683 3.967 3.967 0 0 0-1.54-3.37c-1.029-.77-2.709-1.156-5.042-1.159h-8.565v9.525h8.408Zm.473 15.21c2.506 0 4.352-.418 5.536-1.254 1.184-.837 1.776-2.142 1.776-3.918 0-1.79-.627-3.053-1.88-3.792-1.253-.739-3.03-1.107-5.329-1.104h-8.984v10.035l8.881.033ZM533.496 49.148h-6.947l-3.503-8.738h-16.765l-3.449 8.738h-6.64l14.832-36.838h7.42l15.052 36.838ZM520.631 34.36l-5.992-15.106-6.009 15.106h12.001ZM565.453 33.202h-20.007v15.946h-6.528V12.31h6.528v14.838h20.007V12.31h6.532v36.838h-6.532V33.202ZM588.279 39.833l19.953-27.523h7.104v36.838h-6.507V21.203l-20.061 27.945h-7V12.31h6.532l-.021 27.523ZM648.469 33.202H631.67v9.892H651v6.054h-25.858V12.31h25.281v6.05H631.67v8.78h16.82l-.021 6.062ZM176.748 18.46l8.254-6.129h-27.63v36.817h27.63V43.02h-19.746v-9.428h16.845v-6.13h-16.845v-9h11.492ZM135.134 43.024h-8.221V32.818h8.221c5.004 0 7.337 1.706 7.337 5.1 0 3.471-2.469 5.106-7.337 5.106Zm1.373-16.335h-9.594v-8.212h15.317l8.254-6.129h-31.456v36.817h16.463c9.233 0 14.524-4.214 14.524-11.564 0-7.028-4.797-10.9-13.512-10.9M207.27 32.588h-6.993V18.473h6.993c5.05 0 7.835 2.508 7.835 7.066 0 4.557-2.785 7.061-7.835 7.061m.166-20.256h-15.044V49.16h7.885v-10.44h7.159c9.603 0 15.566-5.088 15.566-13.212 0-8.123-5.963-13.178-15.566-13.178M105.53 41.146a14.027 14.027 0 0 1-6.806 1.718c-7.109 0-12.271-5.109-12.271-12.154s5.162-12.154 12.271-12.154c2.568-.038 5.081.754 7.171 2.258l5.656-4.181-.373-.33c-3.32-2.927-7.715-4.466-12.761-4.466-5.47 0-10.437 1.857-13.981 5.235-3.544 3.378-5.532 8.157-5.532 13.433 0 5.277 1.955 10.156 5.511 13.655 3.557 3.5 8.52 5.436 13.952 5.436 5.686 0 10.649-1.999 14.014-5.632l-5.104-3.78-1.747.962Z" fill="#0C9C0C"/><path d="M54.664 11.851a30.598 30.598 0 0 1 3.657 6.065l-27.797 20.48-11.617-7.278V22.36l11.617 7.279 24.14-17.789Z" fill="#21A038"/><path d="M7.05 30.5c0-.393.01-.784.029-1.172l-7.04-.345a30.404 30.404 0 0 0 8.9 23.08l4.993-4.99A23.369 23.369 0 0 1 7.05 30.5Z" fill="url(#a)"/><path d="M30.517 7.045c.393 0 .783.014 1.171.033l.353-7.04a32.126 32.126 0 0 0-1.524-.035A30.445 30.445 0 0 0 8.938 8.934l4.994 4.992a23.384 23.384 0 0 1 16.585-6.881Z" fill="url(#b)"/><path d="M30.516 53.955c-.393 0-.784 0-1.174-.031l-.353 7.037a30.426 30.426 0 0 0 23.093-8.895l-4.984-4.99a23.402 23.402 0 0 1-16.582 6.88Z" fill="url(#c)"/><path d="m43.745 11.137 5.933-4.37A30.386 30.386 0 0 0 30.508 0v7.044a23.355 23.355 0 0 1 13.237 4.093Z" fill="url(#d)"/><path d="M61.031 30.5a30.715 30.715 0 0 0-.479-5.466l-6.568 4.838v.628a23.383 23.383 0 0 1-7.73 17.384l4.737 5.233A30.421 30.421 0 0 0 61.031 30.5Z" fill="#21A038"/><path d="M30.517 53.955a23.433 23.433 0 0 1-17.395-7.727L7.89 50.961A30.435 30.435 0 0 0 30.517 61v-7.044Z" fill="url(#e)"/><path d="m14.78 13.116-4.735-5.233A30.42 30.42 0 0 0 0 30.5h7.05a23.386 23.386 0 0 1 7.73-17.384Z" fill="url(#f)"/><defs><linearGradient id="a" x1="10.364" y1="51.184" x2="2.669" y2="28.928" gradientUnits="userSpaceOnUse"><stop offset=".14" stop-color="#F1E813"/><stop offset=".3" stop-color="#E6E418"/><stop offset=".58" stop-color="#C9DA26"/><stop offset=".89" stop-color="#A2CC39"/></linearGradient><linearGradient id="b" x1="10.951" y1="10.18" x2="30.787" y2="2.617" gradientUnits="userSpaceOnUse"><stop offset=".06" stop-color="#0FA7DF"/><stop offset=".54" stop-color="#0098F8"/><stop offset=".92" stop-color="#0290EA"/></linearGradient><linearGradient id="c" x1="28.524" y1="56.748" x2="50.957" y2="51.678" gradientUnits="userSpaceOnUse"><stop offset=".12" stop-color="#A2CC39"/><stop offset=".28" stop-color="#86C239"/><stop offset=".87" stop-color="#219F38"/></linearGradient><linearGradient id="d" x1="29.041" y1="2.359" x2="48.219" y2="8.28" gradientUnits="userSpaceOnUse"><stop offset=".06" stop-color="#0290EA"/><stop offset=".79" stop-color="#0C89CA"/></linearGradient><linearGradient id="e" x1="9.657" y1="50.104" x2="30.531" y2="57.909" gradientUnits="userSpaceOnUse"><stop offset=".13" stop-color="#F1E813"/><stop offset=".3" stop-color="#EAE616"/><stop offset=".53" stop-color="#D8DF1F"/><stop offset=".8" stop-color="#BAD52D"/><stop offset=".98" stop-color="#A2CC39"/></linearGradient><linearGradient id="f" x1="2.626" y1="31.352" x2="10.999" y2="9.561" gradientUnits="userSpaceOnUse"><stop offset=".07" stop-color="#A2CC39"/><stop offset=".26" stop-color="#81C45E"/><stop offset=".92" stop-color="#0FA7DF"/></linearGradient></defs></svg>