<svg width="144" height="53" fill="none" xmlns="http://www.w3.org/2000/svg"><path d="M.266.763h16.02c2.671 0 4.61.604 5.818 1.812 1.208 1.208 1.812 3.147 1.812 5.817v3.814c0 2.67-.604 4.61-1.812 5.818-1.208 1.208-3.147 1.812-5.817 1.812H7.132v7.629H.266V.763zm16.77 7.629c0-1.535-.767-2.302-2.301-2.302H7.132v8.405h7.629c1.535 0 2.302-.767 2.302-2.302l-.026-3.801zm8.787 13.542c6.206.381 10.403.572 12.588.572a1.778 1.778 0 001.908-1.907V16.98H30.174v-5.347h10.145V8.392c0-1.535-.768-2.302-2.302-2.302H26.178V.763H39.53c2.67 0 4.61.604 5.818 1.812 1.207 1.208 1.811 3.147 1.811 5.817v12.207c0 2.492-.584 4.323-1.752 5.491-1.169 1.169-3 1.754-5.495 1.756-3.815 0-8.52-.254-14.114-.763l.026-5.15zm31.584 5.912a21.262 21.262 0 01-3.946-.381v-5.15h3.433a1.539 1.539 0 001.526-.878c.128-.254.193-.535.19-.819a1.576 1.576 0 00-.19-.782L47.93.763h7.629l6.866 13.541L68.163.763h7.63l-9.728 20.98c-.89 2.017-1.96 3.517-3.21 4.502-1.37 1.07-3.186 1.603-5.448 1.601zm18.769-6.103h6.866v5.722h-6.866v-5.722zM86.473.763h16.021c2.67 0 4.609.604 5.817 1.812 1.208 1.208 1.812 3.147 1.812 5.817v3.814c0 2.67-.604 4.61-1.812 5.818-1.208 1.208-3.147 1.812-5.817 1.812h-9.155v7.629h-6.866V.763zm16.771 7.629c0-1.535-.768-2.302-2.302-2.302h-7.603v8.405h7.629c1.535 0 2.302-.767 2.302-2.302l-.026-3.801zm40.446 9.536c0 2.67-.604 4.61-1.812 5.818-1.208 1.208-3.147 1.812-5.817 1.812h-4.578v2.67h-6.866v-2.67h-4.578c-2.67 0-4.609-.604-5.817-1.812-1.208-1.208-1.812-3.147-1.812-5.817v-7.63c0-2.67.604-4.609 1.812-5.817 1.208-1.208 3.147-1.812 5.817-1.812h4.578V0h6.866v2.67h4.578c2.67 0 4.609.604 5.817 1.812 1.208 1.208 1.812 3.147 1.812 5.817v7.63zm-24.414 0c0 1.535.768 2.302 2.302 2.302h3.427V7.997h-3.44c-1.534 0-2.302.768-2.302 2.302l.013 7.63zm17.547-7.629c0-1.534-.767-2.302-2.301-2.302h-3.42v12.22h3.439c1.535 0 2.302-.767 2.302-2.302l-.02-7.616zm6.928 20.718H.047v1.315H143.75v-1.315zM.02 38.251h2.486c.326-.028.65.072.904.28.209.252.31.578.28.904v.592a1.227 1.227 0 01-.28.901c-.252.21-.577.312-.904.283H1.085v1.184H.02V38.25zm2.604 1.184a.33.33 0 00-.355-.355H1.085v1.315h1.184a.328.328 0 00.355-.355v-.605zM7.97 41.27a1.02 1.02 0 01-1.184 1.183h-1.48a1.015 1.015 0 01-1.184-1.183v-1.895c-.029-.326.071-.65.28-.904a1.26 1.26 0 01.904-.28h1.48a1.017 1.017 0 011.184 1.184v1.895zm-1.066-1.895a.328.328 0 00-.355-.355H5.543a.33.33 0 00-.355.355v1.895a.33.33 0 00.355.355h1.006a.328.328 0 00.355-.355v-1.895zm4.873 2.961c-.877.078-1.607.118-2.19.118a.986.986 0 01-1.125-1.125v-1.894a1.016 1.016 0 011.184-1.184h2.131v.829H9.883a.328.328 0 00-.355.355v1.894a.3.3 0 00.079.217.277.277 0 00.203.08h.911l.421-.024.658-.043-.023.777zm3.683 0c-.876.078-1.606.118-2.19.118a.986.986 0 01-1.124-1.125v-1.894a1.017 1.017 0 011.184-1.184h2.13v.829h-1.894a.328.328 0 00-.368.355v1.894a.287.287 0 00.082.217.279.279 0 00.204.08h.908l.42-.024.642-.043.007.777zm4.104.058h-1.066V39.85l-1.42 2.545h-1.125v-4.143h1.066v2.545l1.42-2.545h1.125v4.143zm3.274.001v-2.546l-1.417 2.546h-1.128V38.25h1.065v2.546l1.421-2.546h1.125v4.144h-1.066zm-1.065-4.44a.682.682 0 01-.77-.77v-.177h.77v.148a.204.204 0 00.207.208h.177a.206.206 0 00.193-.128.204.204 0 00.015-.08v-.148h.77v.178a.681.681 0 01-.77.77h-.592zm6.059 4.38c-.877.08-1.607.119-2.19.119a1.174 1.174 0 01-.855-.273 1.159 1.159 0 01-.27-.852v-1.894a1.24 1.24 0 01.28-.904c.252-.207.575-.307.9-.28h2.131v.829h-1.894a.33.33 0 00-.355.355v1.894a.298.298 0 00.079.217.276.276 0 00.204.079h.908l.417-.023.658-.043-.013.776zm3.508-4.143c.179.008.357.028.533.06v.798h-.237a.267.267 0 00-.16.056.4.4 0 00-.106.122l-.562 1.065 1.154 2.102h-1.125l-.917-1.687h-.533v1.687h-1.059V38.25h1.066v1.644h.532l.592-1.124c.08-.156.193-.294.33-.405a.77.77 0 01.492-.174zm4.603 4.202h-1.066V39.85l-1.42 2.545h-1.125v-4.143h1.066v2.545l1.42-2.545h1.125v4.143zm3.278.001v-2.546l-1.42 2.546h-1.125V38.25h1.065v2.546l1.42-2.546h1.125v4.144h-1.065zm-1.065-4.44a.682.682 0 01-.77-.77v-.177h.77v.148a.204.204 0 00.207.208h.177a.206.206 0 00.193-.128.204.204 0 00.015-.08v-.148h.762v.178a.681.681 0 01-.77.77h-.584zm4.41 3.585a39.3 39.3 0 001.954.089.291.291 0 00.217-.08.3.3 0 00.079-.216v-.563h-1.572v-.829h1.572v-.506a.33.33 0 00-.355-.355h-1.835v-.829h2.071c.327-.028.651.072.905.28.209.252.31.578.28.904v1.894a1.16 1.16 0 01-.27.852c-.238.2-.546.299-.855.273-.592 0-1.322-.04-2.19-.118v-.796zm6.946-3.348c.175.009.348.028.52.059v.8h-.237a.266.266 0 00-.16.055.4.4 0 00-.106.122l-.563 1.065 1.155 2.101h-1.125l-.917-1.686h-.533v1.686H46.48v-4.143h1.066v1.644h.533l.592-1.124c.08-.156.192-.294.328-.405a.77.77 0 01.513-.174zm4.72 3.078a1.017 1.017 0 01-1.184 1.184h-1.48a1.02 1.02 0 01-1.184-1.184v-1.894a1.017 1.017 0 011.184-1.184h1.48a1.012 1.012 0 011.184 1.184v1.894zm-1.066-1.894a.328.328 0 00-.355-.355h-1.006a.33.33 0 00-.355.355v1.894a.33.33 0 00.355.355h1.006a.33.33 0 00.355-.355v-1.894zm5.288 3.018h-1.066v-1.687h-1.48v1.687H54.84v-4.143h1.069v1.644h1.48v-1.644h1.065v4.143zm4.458-1.124a1.02 1.02 0 01-1.184 1.184h-1.48a1.017 1.017 0 01-1.183-1.184v-1.894a1.014 1.014 0 011.184-1.184h1.48a1.016 1.016 0 011.183 1.184v1.894zm-1.065-1.894a.328.328 0 00-.355-.355h-1.007a.33.33 0 00-.355.355v1.894a.328.328 0 00.355.355h1.007a.33.33 0 00.355-.355v-1.894zm5.223.71l-.829 1.48h-.829l-.828-1.48v2.302h-1.072V38.25h1.124l1.184 2.19 1.184-2.19h1.125v4.143h-1.066l.007-2.308zm5.407 2.308h-1.072V39.85l-1.421 2.545h-1.125v-4.143h1.066v2.545l1.42-2.545h1.125l.007 4.143zm3.125-1.361c-.474.04-.92.06-1.342.06a1.24 1.24 0 01-.9-.274 1.16 1.16 0 01-.274-.852v-1.716h1.066v1.717a.272.272 0 00.296.295c.322 0 .707-.02 1.154-.059v-1.953h1.065v4.143h-1.065v-1.361zm5.078 1.361h-3.29v-4.143h3.29v.829h-2.22v.815h1.742v.829H78.46v.858h2.22v.812zm3.687-.058c-.877.078-1.607.118-2.19.118a1.16 1.16 0 01-.852-.273 1.148 1.148 0 01-.273-.852v-1.894a1.24 1.24 0 01.28-.904c.253-.208.578-.308.904-.28h2.13v.829h-1.893a.328.328 0 00-.355.355v1.894a.3.3 0 00.079.217.277.277 0 00.203.08h.911l.418-.024.658-.043-.02.777zm3.509-4.144c.178.008.356.028.532.06v.798h-.233a.25.25 0 00-.158.056.37.37 0 00-.109.122l-.562 1.065 1.158 2.102h-1.125l-.918-1.688h-.532v1.688h-1.066V38.25h1.066v1.644h.532l.592-1.124a1.32 1.32 0 01.33-.405.777.777 0 01.493-.174zm4.606 4.202h-1.066V39.85l-1.42 2.545H88.87v-4.143h1.066v2.545l1.42-2.545h1.125v4.143zm3.274.001v-2.546l-1.42 2.546H93.21V38.25h1.065v2.546l1.421-2.546h1.125v4.144h-1.066zm-1.065-4.44a.681.681 0 01-.77-.77v-.177h.77v.148a.204.204 0 00.207.208h.184a.206.206 0 00.192-.128.204.204 0 00.015-.08v-.148h.78v.178a.681.681 0 01-.77.77h-.608zm5.651 4.499a3.306 3.306 0 01-.612-.06v-.799h.536a.237.237 0 00.233-.134.24.24 0 00.03-.129.216.216 0 00-.03-.121l-1.624-2.96h1.184l1.065 2.101.885-2.101h1.187l-1.509 3.256c-.109.269-.28.508-.5.697a1.316 1.316 0 01-.845.25zm6.714-.06h-1.065v-1.687h-1.48v1.687h-1.066v-4.143h1.066v1.644h1.48v-1.644h1.065v4.143zm4.337 0h-1.065V39.85l-1.434 2.545h-1.124v-4.143h1.065v2.545l1.421-2.545h1.124l.013 4.143zm.732-4.143h2.361c.307-.025.613.069.852.263a1.082 1.082 0 01.273.803c.013.202-.035.404-.138.578a.831.831 0 01-.379.31.923.923 0 01.658.638c.042.138.062.282.059.427a.982.982 0 01-.668 1.087.983.983 0 01-.456.038h-2.546l-.016-4.144zm2.427 1.184a.336.336 0 00-.095-.26.331.331 0 00-.26-.095h-1.007v.815h1.007a.33.33 0 00.355-.328v-.132zm.177 1.644a.335.335 0 00-.018-.14.335.335 0 00-.196-.196.33.33 0 00-.141-.019h-1.184v.829h1.184a.331.331 0 00.337-.215.335.335 0 00.018-.14v-.119zm4.895 1.315h-3.288v-4.143h3.288v.829h-2.219v.815h1.746v.829h-1.746v.858h2.219v.812zm.493-4.143h2.49a1.016 1.016 0 011.153.698c.048.157.058.324.027.486v.592a1.01 1.01 0 01-.28.901 1.012 1.012 0 01-.9.283h-1.421v1.183h-1.069v-4.143zm2.605 1.184a.336.336 0 00-.096-.26.33.33 0 00-.26-.095h-1.18v1.315h1.19a.331.331 0 00.337-.215.335.335 0 00.018-.14l-.009-.605zm4.813 2.901c-.877.078-1.607.118-2.19.118a1.158 1.158 0 01-.852-.273 1.153 1.153 0 01-.273-.852v-1.894c-.03-.326.07-.652.28-.904.253-.208.578-.308.904-.28h2.131v.829h-1.894a.33.33 0 00-.355.355v1.894c-.002.04.004.08.017.117a.323.323 0 00.061.1.28.28 0 00.204.08h.911l.421-.024.641-.043-.006.777zm4.099.058h-1.065V39.85l-1.421 2.545h-1.125v-4.143h1.066v2.545l1.42-2.545h1.125v4.143zm2.745 0h-1.066V39.08h-1.243v-.829h3.552v.829h-1.243v3.314zm4.956 0h-3.288v-4.143h3.288v.829h-2.219v.815h1.746v.829h-1.746v.858h2.219v.812zm2.507 0h-1.053V39.08h-1.246v-.829h3.548v.829h-1.249v3.314zM7.02 52.885H4.95v-4.95l-2.763 4.95H0v-8.057h2.072v4.95l2.762-4.95h2.187v8.057zm8.312-4.489l-1.612 2.877h-1.61l-1.611-2.877v4.489H8.425v-8.057h2.187l2.302 4.259 2.301-4.259h2.187v8.057h-2.071v-4.489zm9.866 4.489h-6.39v-8.057h6.39v1.611H20.88v1.556h3.397v1.608H20.88v1.67h4.318v1.612zm7.959 0h-2.071v-3.289h-2.878v3.289h-2.071v-8.057h2.071v3.167h2.878v-3.167h2.072v8.057zm8.428 0h-2.078v-4.95l-2.762 4.95h-2.17v-8.057h2.07v4.95l2.763-4.95h2.187l-.01 8.057zm6.952 0h-2.072v-8.057h6.27v1.611h-4.198v6.446zm4.682-1.727h2.072v1.727h-2.072v-1.727zm3.133-6.33h4.603c.752 0 1.3.171 1.645.513a2.085 2.085 0 01.529 1.559c.019.396-.086.787-.3 1.121a1.606 1.606 0 01-.736.605 1.783 1.783 0 011.266 1.243c.081.269.12.548.115.829 0 .752-.176 1.3-.53 1.644-.352.344-.9.52-1.643.53h-4.95v-8.044zm4.719 2.302a.611.611 0 00-.691-.69h-1.957v1.61h1.957a.611.611 0 00.69-.69v-.23zm.345 3.223a.61.61 0 00-.69-.69h-2.303v1.61h2.302a.61.61 0 00.69-.69v-.23zm2.784.805h2.07v1.727H64.2v-1.727zm13.626 1.727h-2.072V46.44h-2.878v6.445h-2.071v-8.057h7.02v8.057zm3.294-.362a1.573 1.573 0 01-1.165.477 7.1 7.1 0 01-1.299-.115v-1.556h.516a.489.489 0 00.366-.148.554.554 0 00.154-.368l.345-5.985h6.386v8.057h-2.071V46.44h-2.424l-.286 4.774a1.991 1.991 0 01-.523 1.309zm13.098.362h-6.39v-8.057h6.39v1.611H89.9v1.556h3.397v1.608H89.9v1.67h4.317v1.612zm5.604-8.057h2.302l-2.588 4.028 2.63 4.029h-2.302l-1.61-2.532-1.612 2.532H94.34l2.63-4.029-2.545-4.028h2.302l1.566 2.532 1.529-2.532z" fill="#fff"/><path d="M104.218 52.885h-2.23l3.049-8.057h2.302l3.051 8.057h-2.246l-.516-1.437h-2.877l-.533 1.437zm1.036-2.933h1.841l-.921-2.707-.92 2.707zm12.739 2.933h-2.071v-3.289h-2.878v3.289h-2.071v-8.057h2.071v3.167h2.878v-3.167h2.071v8.057zm8.66-2.187c0 .806-.184 1.39-.546 1.756-.362.365-.95.546-1.756.546h-2.877c-.805 0-1.39-.182-1.756-.546-.366-.364-.548-.95-.546-1.756v-3.683c0-.807.182-1.392.546-1.756.364-.364.949-.546 1.756-.546h2.877c.805 0 1.39.182 1.756.546.362.365.546.95.546 1.756v3.683zm-2.072-3.683a.614.614 0 00-.173-.517.608.608 0 00-.517-.174h-1.973a.61.61 0 00-.691.69v3.684a.615.615 0 00.691.69h1.973a.613.613 0 00.69-.69v-3.683zm3.243-2.187h4.604c.75 0 1.298.171 1.644.513a2.076 2.076 0 01.53 1.559 1.94 1.94 0 01-.3 1.121 1.619 1.619 0 01-.736.605 1.781 1.781 0 011.266 1.243c.081.269.119.548.115.829 0 .752-.177 1.3-.529 1.644-.353.344-.902.52-1.645.53h-4.949v-8.044zm4.719 2.302a.614.614 0 00-.69-.69h-1.957v1.61h1.957a.613.613 0 00.69-.69v-.23zm.345 3.223a.6.6 0 00-.173-.518.609.609 0 00-.517-.173h-2.302v1.611h2.302a.61.61 0 00.69-.69v-.23zm4.571 2.532h-2.256l3.048-8.057h2.302l3.052 8.057h-2.246l-.516-1.437h-2.878l-.506 1.437zm1.036-2.933h1.841l-.92-2.707-.921 2.707zm5.256-16.305H.047v1.315H143.75v-1.315z" fill="#fff"/></svg>