<svg width="163" height="62" fill="none" xmlns="http://www.w3.org/2000/svg"><g clip-path="url(#clip0_926_575)"><path d="M12.978 5.622h15.815c2.636 0 4.544.603 5.723 1.808 1.205 1.18 1.808 3.087 1.808 5.723v3.766c0 2.636-.603 4.556-1.808 5.76-1.18 1.18-3.087 1.77-5.723 1.77h-9.037v7.531h-6.778V5.622zm16.568 7.531c0-1.506-.753-2.259-2.26-2.259h-7.53v8.284h7.53c1.507 0 2.26-.753 2.26-2.26v-3.765zm8.659 13.368c6.125.376 10.267.564 12.426.564.577 0 1.03-.163 1.356-.49.351-.35.527-.815.527-1.392v-3.578H42.498v-5.271h10.016v-3.2c0-1.507-.753-2.26-2.26-2.26H38.582V5.622H51.76c2.635 0 4.543.603 5.723 1.808 1.205 1.18 1.807 3.087 1.807 5.723v12.05c0 2.46-.577 4.267-1.732 5.422-1.154 1.155-2.962 1.732-5.422 1.732-3.765 0-8.41-.251-13.932-.753V26.52zm31.182 5.836a20.9 20.9 0 01-3.878-.377v-5.083h3.389c.728 0 1.23-.289 1.506-.866.126-.251.188-.514.188-.79 0-.302-.063-.566-.188-.791L60.049 5.622h7.53l6.779 13.368 5.648-13.368h7.53l-9.601 20.71c-.879 1.983-1.933 3.465-3.163 4.444-1.356 1.054-3.15 1.581-5.385 1.581zm14.792-6.025h6.778v5.648h-6.778v-5.648zm10.175-20.71h15.815c2.636 0 4.544.603 5.724 1.808 1.205 1.18 1.807 3.087 1.807 5.723v3.766c0 2.636-.602 4.556-1.807 5.76-1.18 1.18-3.088 1.77-5.724 1.77h-9.037v7.531h-6.778V5.622zm16.568 7.531c0-1.506-.753-2.259-2.259-2.259h-7.531v8.284h7.531c1.506 0 2.259-.753 2.259-2.26v-3.765zm39.912 9.414c0 2.636-.602 4.556-1.807 5.761-1.18 1.18-3.088 1.77-5.723 1.77h-4.519v2.636h-6.778v-2.636h-4.518c-2.636 0-4.556-.59-5.761-1.77-1.18-1.205-1.77-3.125-1.77-5.761v-7.531c0-2.636.59-4.544 1.77-5.724 1.205-1.204 3.125-1.807 5.761-1.807h4.518V4.87h6.778v2.636h4.519c2.635 0 4.543.603 5.723 1.807 1.205 1.18 1.807 3.088 1.807 5.724v7.53zm-6.777-7.531c0-1.506-.753-2.26-2.26-2.26h-3.388v12.05h3.388c1.507 0 2.26-.753 2.26-2.26v-7.53zm-17.321 7.53c0 1.507.753 2.26 2.259 2.26h3.389v-12.05h-3.389c-1.506 0-2.259.754-2.259 2.26v7.53z" fill="#217AFF"/><path d="M8.715 40.088h145.424" stroke="#217AFF" stroke-width="2.272" stroke-miterlimit="10"/><path d="M18.667 53.198h-2.045v-4.885l-2.727 4.885h-2.159v-7.953h2.045v4.886l2.727-4.886h2.159v7.953zm8.185-4.43l-1.59 2.84H23.67l-1.59-2.84v4.43h-2.046v-7.953h2.159l2.272 4.204 2.272-4.204h2.16v7.953h-2.046v-4.43zm9.719 4.43h-6.306v-7.953h6.306v1.59H32.31v1.535h3.352v1.59H32.31v1.648h4.26v1.59zm7.836 0h-2.045V49.96h-2.84v3.238h-2.045v-7.953h2.045v3.125h2.84v-3.125h2.045v7.953zm8.3 0H50.66v-4.885l-2.727 4.885h-2.158v-7.953h2.045v4.886l2.727-4.886h2.158v7.953zm6.819 0h-2.045v-7.953h6.192v1.59h-4.147v6.363zm3.472-1.704h2.045v1.704h-2.045v-1.704zm3.07-6.249h4.545c.742 0 1.288.17 1.636.512.348.333.523.844.523 1.533 0 .455-.099.826-.296 1.114-.197.28-.44.477-.727.59.614.167 1.03.576 1.25 1.228.076.234.113.507.113.818 0 .742-.174 1.287-.522 1.636-.349.348-.894.522-1.636.522h-4.885v-7.953zm5 5.454c0-.455-.228-.682-.682-.682h-2.272v1.59h2.272c.454 0 .681-.227.681-.681v-.227zm-.341-3.181c0-.455-.228-.682-.682-.682h-1.931v1.59h1.93c.455 0 .683-.227.683-.681v-.227zm3.067 3.976h2.045v1.704h-2.045v-1.704zM87.2 53.198h-2.045v-6.362h-2.84v6.362H80.27v-7.953h6.93v7.953zm3.755-1.647c-.038.545-.212.977-.523 1.295a1.56 1.56 0 01-1.147.466c-.455 0-.883-.038-1.284-.114v-1.534h.511a.46.46 0 00.353-.147.537.537 0 00.159-.364l.34-5.908h6.306v7.953h-2.045v-6.362h-2.386l-.284 4.715zm12.385 1.647h-6.306v-7.953h6.306v1.59h-4.26v1.535h3.351v1.59H99.08v1.648h4.26v1.59zm5.508-7.953h2.272l-2.556 3.977 2.613 3.976h-2.273l-1.59-2.5-1.591 2.5h-2.272l2.613-3.976-2.556-3.977h2.261l1.545 2.5 1.534-2.5zm4.319 7.953h-2.216l3.011-7.953h2.272l3.011 7.953h-2.216l-.511-1.42h-2.84l-.511 1.42zm1.022-2.897h1.818l-.909-2.67-.909 2.67zm12.554 2.897h-2.045V49.96h-2.84v3.238h-2.045v-7.953h2.045v3.125h2.84v-3.125h2.045v7.953zm6.481-5.794c0-.454-.227-.682-.682-.682h-1.931c-.454 0-.682.228-.682.682v3.636c0 .454.228.681.682.681h1.931c.455 0 .682-.227.682-.681v-3.636zm2.045 3.636c0 .795-.182 1.374-.545 1.738-.356.356-.932.534-1.727.534h-2.84c-.796 0-1.375-.178-1.739-.534-.356-.364-.534-.943-.534-1.738v-3.636c0-.795.178-1.37.534-1.727.364-.364.943-.545 1.739-.545h2.84c.795 0 1.371.181 1.727.545.363.356.545.932.545 1.727v3.636zm1.142-5.795h4.544c.742 0 1.288.17 1.636.512.349.333.523.844.523 1.533 0 .455-.099.826-.296 1.114a1.6 1.6 0 01-.727.59c.614.167 1.03.576 1.25 1.228.076.234.114.507.114.818 0 .742-.175 1.287-.523 1.636-.348.348-.894.522-1.636.522h-4.885v-7.953zm4.999 5.454c0-.455-.228-.682-.682-.682h-2.272v1.59h2.272c.454 0 .682-.227.682-.681v-.227zm-.341-3.181c0-.455-.228-.682-.682-.682h-1.931v1.59h1.931c.454 0 .682-.227.682-.681v-.227zm4.828 5.68h-2.216l3.011-7.953h2.272l3.011 7.953h-2.215l-.512-1.42h-2.84l-.511 1.42zm1.022-2.897h1.818l-.909-2.67-.909 2.67z" fill="#217AFF"/></g><defs><clipPath id="clip0_926_575"><path fill="#fff" d="M0 0h162.304v62H0z"/></clipPath></defs></svg>