<svg width="1920" height="151" fill="none" xmlns="http://www.w3.org/2000/svg"><path opacity=".3" fill="#217AFF" d="M540 57h1380v36H540zM0 57h146v36H0z"/><g clip-path="url(#clip0_1001_612)"><path d="M176.616 13.452h38.517c6.419 0 11.065 1.467 13.939 4.402 2.935 2.873 4.402 7.52 4.402 13.94v9.17c0 6.42-1.467 11.096-4.402 14.03-2.874 2.874-7.52 4.311-13.939 4.311h-22.01v18.342h-16.507V13.452zm40.351 18.341c0-3.668-1.834-5.502-5.503-5.502h-18.341v20.175h18.341c3.669 0 5.503-1.834 5.503-5.502v-9.17zm21.089 32.556c14.917.917 25.005 1.376 30.263 1.376 1.406 0 2.507-.398 3.301-1.193.856-.855 1.284-1.987 1.284-3.393v-8.712H248.51V39.588h24.394v-7.795c0-3.668-1.834-5.502-5.502-5.502h-28.429V13.45h32.097c6.42 0 11.066 1.468 13.94 4.403 2.934 2.873 4.401 7.52 4.401 13.94v29.345c0 5.992-1.406 10.394-4.218 13.206-2.812 2.812-7.214 4.219-13.206 4.219-9.171 0-20.481-.612-33.931-1.835V64.35zM314 78.564c-3.057 0-6.206-.306-9.446-.917v-12.38h8.253c1.773 0 2.996-.704 3.669-2.11a4.26 4.26 0 00.458-1.926c0-.734-.153-1.376-.458-1.926l-25.22-45.853h18.342l16.507 32.556 13.756-32.556h18.341L334.817 63.89c-2.14 4.83-4.708 8.437-7.703 10.82-3.302 2.569-7.673 3.853-13.114 3.853zm36.024-14.673h16.507v13.756h-16.507V63.89zm24.782-50.44h38.517c6.42 0 11.066 1.468 13.94 4.403 2.934 2.873 4.401 7.52 4.401 13.94v9.17c0 6.42-1.467 11.096-4.401 14.03-2.874 2.874-7.52 4.311-13.94 4.311h-22.01v18.342h-16.507V13.452zm40.351 18.342c0-3.668-1.834-5.502-5.502-5.502h-18.342v20.175h18.342c3.668 0 5.502-1.834 5.502-5.502v-9.17zm97.206 22.927c0 6.42-1.467 11.096-4.402 14.03-2.874 2.874-7.52 4.311-13.94 4.311h-11.004v6.42h-16.508v-6.42h-11.004c-6.42 0-11.097-1.437-14.031-4.31-2.874-2.935-4.311-7.612-4.311-14.031V36.378c0-6.419 1.437-11.066 4.311-13.939 2.934-2.935 7.611-4.402 14.031-4.402h11.004v-6.42h16.508v6.42h11.004c6.42 0 11.066 1.467 13.94 4.402 2.935 2.873 4.402 7.52 4.402 13.94v18.34zm-16.507-18.342c0-3.668-1.835-5.502-5.503-5.502H482.1v29.346h8.253c3.668 0 5.503-1.834 5.503-5.502V36.378zM453.671 54.72c0 3.668 1.834 5.502 5.502 5.502h8.254V30.876h-8.254c-3.668 0-5.502 1.834-5.502 5.502V54.72z" fill="#fff"/><path d="M166.227 97.635h354.178" stroke="#fff" stroke-width="5.534" stroke-miterlimit="10"/><path d="M190.469 127.774h-4.981v-11.898l-6.641 11.898h-5.257v-19.369h4.981v11.898l6.64-11.898h5.258v19.369zm19.935-10.791l-3.874 6.917h-3.873l-3.874-6.917v10.791h-4.981v-19.369h5.257l5.534 10.238 5.534-10.238h5.258v19.369h-4.981v-10.791zm23.669 10.791h-15.357v-19.369h15.357v3.874h-10.376v3.735h8.162v3.874h-8.162v4.012h10.376v3.874zm19.086 0h-4.981v-7.886h-6.917v7.886h-4.981v-19.369h4.981v7.609h6.917v-7.609h4.981v19.369zm20.212 0h-4.981v-11.898l-6.64 11.898h-5.258v-19.369h4.981v11.898l6.641-11.898h5.257v19.369zm16.61 0H285v-19.369h15.08v3.874h-10.099v15.495zm8.456-4.151h4.981v4.151h-4.981v-4.151zm7.478-15.218h11.068c1.808 0 3.136.415 3.984 1.245.849.812 1.273 2.057 1.273 3.735 0 1.107-.24 2.011-.719 2.712-.48.683-1.07 1.162-1.771 1.439 1.494.406 2.509 1.402 3.044 2.988.184.572.276 1.236.276 1.993 0 1.807-.424 3.136-1.272 3.984-.849.849-2.177 1.273-3.985 1.273h-11.898v-19.369zm12.175 13.281c0-1.106-.554-1.66-1.661-1.66h-5.534v3.874h5.534c1.107 0 1.661-.553 1.661-1.66v-.554zm-.83-7.747c0-1.107-.554-1.66-1.661-1.66h-4.704v3.873h4.704c1.107 0 1.661-.553 1.661-1.66v-.553zm7.469 9.684h4.981v4.151h-4.981v-4.151zm32.652 4.151h-4.98v-15.495h-6.918v15.495h-4.98v-19.369h16.878v19.369zm9.144-4.012c-.092 1.328-.516 2.379-1.272 3.154-.757.756-1.688 1.135-2.795 1.135a16.9 16.9 0 01-3.127-.277v-3.736h1.245c.351 0 .637-.119.858-.359.24-.24.369-.535.388-.886l.83-14.388h15.357v19.369h-4.981v-15.495h-5.811l-.692 11.483zm30.164 4.012h-15.357v-19.369h15.357v3.874h-10.376v3.735h8.163v3.874h-8.163v4.012h10.376v3.874zm13.414-19.369h5.534l-6.226 9.684 6.364 9.685h-5.534l-3.874-6.088-3.874 6.088h-5.534l6.365-9.685-6.226-9.684h5.506l3.763 6.087 3.736-6.087zm10.519 19.369h-5.396l7.333-19.369h5.534l7.332 19.369h-5.395l-1.246-3.459h-6.917l-1.245 3.459zm2.49-7.056h4.427l-2.213-6.502-2.214 6.502zm30.574 7.056h-4.98v-7.886h-6.918v7.886h-4.98v-19.369h4.98v7.609h6.918v-7.609h4.98v19.369zm15.785-14.112c0-1.107-.553-1.66-1.66-1.66h-4.704c-1.107 0-1.66.553-1.66 1.66v8.855c0 1.106.553 1.66 1.66 1.66h4.704c1.107 0 1.66-.554 1.66-1.66v-8.855zm4.981 8.855c0 1.937-.443 3.348-1.328 4.233-.867.867-2.269 1.301-4.206 1.301H462c-1.936 0-3.348-.434-4.233-1.301-.867-.885-1.301-2.296-1.301-4.233v-8.855c0-1.937.434-3.339 1.301-4.206.885-.885 2.297-1.328 4.233-1.328h6.918c1.937 0 3.339.443 4.206 1.328.885.867 1.328 2.269 1.328 4.206v8.855zm2.78-14.112H488.3c1.808 0 3.136.415 3.985 1.245.848.812 1.272 2.057 1.272 3.735 0 1.107-.239 2.011-.719 2.712-.48.683-1.07 1.162-1.771 1.439 1.494.406 2.509 1.402 3.044 2.988.184.572.276 1.236.276 1.993 0 1.807-.424 3.136-1.272 3.984-.849.849-2.177 1.273-3.985 1.273h-11.898v-19.369zm12.175 13.281c0-1.106-.554-1.66-1.66-1.66h-5.534v3.874h5.534c1.106 0 1.66-.553 1.66-1.66v-.554zm-.83-7.747c0-1.107-.554-1.66-1.66-1.66h-4.704v3.873h4.704c1.106 0 1.66-.553 1.66-1.66v-.553zm11.759 13.835h-5.396l7.332-19.369h5.534l7.333 19.369h-5.396l-1.245-3.459h-6.917l-1.245 3.459zm2.49-7.056h4.427l-2.214-6.502-2.213 6.502z" fill="#fff"/></g><defs><clipPath id="clip0_1001_612"><path fill="#fff" transform="translate(145)" d="M0 0h395.288v151H0z"/></clipPath></defs></svg>