<svg width="1920" height="117" fill="none" xmlns="http://www.w3.org/2000/svg"><path opacity=".3" fill="#217AFF" d="M540 40h1380v36H540zM0 40h146v36H0z"/><path d="M186.582 1.677H221.8c5.87 0 10.133 1.327 12.788 3.983 2.655 2.655 3.983 6.918 3.983 12.787v8.386c0 5.87-1.328 10.132-3.983 12.787-2.655 2.656-6.918 3.983-12.788 3.983h-20.124v16.771h-15.094V1.677zm36.867 16.77c0-3.373-1.687-5.06-5.061-5.06h-16.712v18.477h16.77c3.374 0 5.06-1.687 5.06-5.06l-.057-8.357zm19.316 29.768c13.643.839 22.867 1.258 27.671 1.258a3.904 3.904 0 004.193-4.192v-7.952h-22.301V25.575h22.301v-7.128c0-3.373-1.687-5.06-5.06-5.06h-26.023V1.677h29.348c5.87 0 10.133 1.327 12.788 3.983 2.655 2.655 3.983 6.918 3.983 12.787v26.834c0 5.479-1.284 9.503-3.853 12.072-2.569 2.568-6.595 3.855-12.079 3.86-8.386 0-18.727-.56-31.026-1.677l.058-11.32zm69.428 12.998a46.757 46.757 0 01-8.675-.839v-11.32h7.547a3.384 3.384 0 003.354-1.93 3.919 3.919 0 00.419-1.8 3.455 3.455 0 00-.419-1.72l-23.06-41.927h16.771l15.094 29.768 12.614-29.768h16.77l-21.382 46.12c-1.957 4.433-4.308 7.732-7.055 9.895-3.012 2.352-7.005 3.526-11.978 3.52zm41.26-13.417h15.094v12.578h-15.094V47.796zm22.633-46.119h35.218c5.87 0 10.133 1.327 12.788 3.983 2.655 2.655 3.983 6.918 3.983 12.787v8.386c0 5.87-1.328 10.132-3.983 12.787-2.655 2.656-6.918 3.983-12.788 3.983H391.18v16.771h-15.094V1.677zm36.867 16.77c0-3.373-1.687-5.06-5.061-5.06H391.18v18.477h16.77c3.374 0 5.06-1.687 5.06-5.06l-.057-8.357zm88.912 20.964c0 5.87-1.327 10.132-3.983 12.788-2.655 2.655-6.918 3.983-12.787 3.983h-10.063v5.87h-15.093v-5.87h-10.063c-5.87 0-10.132-1.328-12.788-3.983-2.655-2.656-3.983-6.918-3.983-12.788v-16.77c0-5.87 1.328-10.133 3.983-12.788 2.656-2.656 6.918-3.983 12.788-3.983h10.063V0h15.093v5.87h10.063c5.869 0 10.132 1.327 12.787 3.983 2.656 2.655 3.983 6.918 3.983 12.787v16.771zm-53.666 0c0 3.373 1.687 5.06 5.06 5.06h7.533v-26.89h-7.562c-3.373 0-5.06 1.686-5.06 5.06l.029 16.77zm38.573-16.77c0-3.374-1.687-5.06-5.061-5.06h-7.517v26.861h7.561c3.373 0 5.06-1.686 5.06-5.06l-.043-16.742zm15.225 45.541H186.102v2.891h315.895v-2.891zM186.043 84.085h5.465a2.762 2.762 0 011.988.615c.459.555.68 1.27.614 1.988v1.301a2.688 2.688 0 01-.614 1.98 2.733 2.733 0 01-1.988.622h-3.123v2.603h-2.342v-9.109zm5.725 2.603a.721.721 0 00-.781-.78h-2.602v2.89h2.602a.722.722 0 00.781-.78v-1.33zm11.75 4.032a2.243 2.243 0 01-2.602 2.603h-3.253a2.235 2.235 0 01-2.602-2.603v-4.163a2.739 2.739 0 01.614-1.988 2.762 2.762 0 011.988-.615h3.253a2.235 2.235 0 012.602 2.603v4.163zm-2.342-4.163a.721.721 0 00-.781-.781h-2.212a.72.72 0 00-.739.472.721.721 0 00-.041.308v4.164a.721.721 0 00.78.781h2.212a.722.722 0 00.781-.78v-4.165zm10.714 6.507c-1.928.173-3.532.26-4.814.26a2.168 2.168 0 01-2.472-2.472v-4.164a2.237 2.237 0 01.617-1.985 2.23 2.23 0 011.985-.618h4.684v1.822h-4.164a.72.72 0 00-.739.472.721.721 0 00-.041.309v4.164a.656.656 0 00.173.477.607.607 0 00.448.173h2.003l.925-.05 1.446-.094-.051 1.706zm8.098 0c-1.928.173-3.533.26-4.815.26a2.165 2.165 0 01-2.389-1.468 2.177 2.177 0 01-.083-1.004v-4.164a2.228 2.228 0 011.534-2.539c.346-.108.712-.13 1.069-.064h4.684v1.822h-4.164a.723.723 0 00-.81.78v4.165a.624.624 0 00.181.477.607.607 0 00.448.173h1.995l.926-.05 1.409-.094.015 1.706zm9.019.129h-2.342v-5.595l-3.122 5.595h-2.473v-9.108h2.342v5.595l3.123-5.596h2.472v9.109zm7.197.001v-5.595l-3.115 5.595h-2.48v-9.109h2.342v5.596l3.123-5.596h2.473v9.109h-2.343zm-2.342-9.76a1.497 1.497 0 01-1.691-1.69v-.391h1.691v.325a.44.44 0 00.132.325.446.446 0 00.324.13h.39a.443.443 0 00.324-.13.449.449 0 00.131-.325v-.325h1.692v.39a1.497 1.497 0 01-1.692 1.692h-1.301zm13.319 9.629c-1.928.174-3.533.26-4.814.26a2.58 2.58 0 01-1.88-.6 2.566 2.566 0 01-.593-1.872v-4.164a2.725 2.725 0 01.615-1.988 2.76 2.76 0 011.98-.614h4.685v1.822h-4.164a.724.724 0 00-.781.78v4.164a.656.656 0 00.174.477.607.607 0 00.448.174h1.995l.918-.05 1.446-.095-.029 1.706zm7.714-9.108a9.18 9.18 0 011.171.13v1.756h-.52a.588.588 0 00-.355.123.882.882 0 00-.231.268l-1.236 2.342 2.537 4.619h-2.472l-2.017-3.708h-1.171v3.708h-2.328v-9.108h2.343v3.614h1.171l1.301-2.472c.177-.343.423-.646.723-.89a1.69 1.69 0 011.084-.382zm10.116 9.238h-2.342v-5.595l-3.123 5.595h-2.472v-9.108h2.342v5.595l3.123-5.596h2.472v9.109zm7.205.001v-5.595l-3.123 5.595h-2.472v-9.109h2.342v5.596l3.123-5.596h2.472v9.109h-2.342zm-2.342-9.76a1.495 1.495 0 01-1.692-1.69v-.391h1.692v.325a.44.44 0 00.131.325.45.45 0 00.324.13h.391a.443.443 0 00.324-.13.465.465 0 00.099-.15.457.457 0 00.032-.175v-.325h1.677v.39a1.49 1.49 0 01-1.007 1.63c-.22.073-.455.094-.684.062h-1.287zm9.696 7.88c2.116.13 3.547.195 4.294.195a.645.645 0 00.477-.173.664.664 0 00.174-.477v-1.236h-3.456V87.8h3.456v-1.113a.722.722 0 00-.781-.78H279.7v-1.823h4.555a2.76 2.76 0 011.987.615c.46.555.681 1.27.615 1.988v4.164a2.543 2.543 0 01-.593 1.872 2.58 2.58 0 01-1.879.6c-1.302 0-2.906-.087-4.815-.26v-1.75zm15.271-7.36c.383.02.764.063 1.142.13v1.757h-.521a.587.587 0 00-.354.123.883.883 0 00-.231.267l-1.236 2.343 2.537 4.619h-2.472l-2.017-3.709h-1.171v3.709h-2.342v-9.108h2.342v3.614h1.171l1.301-2.472c.177-.343.424-.646.723-.89.317-.26.718-.396 1.128-.383zm10.373 6.767a2.237 2.237 0 01-1.534 2.539c-.346.108-.713.13-1.069.063h-3.253a2.24 2.24 0 01-2.602-2.602v-4.164a2.238 2.238 0 01.617-1.985 2.237 2.237 0 011.985-.617h3.253a2.227 2.227 0 012.603 2.602v4.164zm-2.343-4.164a.721.721 0 00-.78-.78h-2.212a.722.722 0 00-.781.78v4.164a.723.723 0 00.781.78h2.212a.726.726 0 00.739-.471.722.722 0 00.041-.309v-4.164zm11.624 6.636h-2.342v-3.709H308.9v3.709h-2.349v-9.108h2.349v3.614h3.253v-3.614h2.342v9.108zm9.802-2.472a2.243 2.243 0 01-1.535 2.535 2.24 2.24 0 01-1.067.067h-3.253a2.235 2.235 0 01-2.602-2.602v-4.164a2.22 2.22 0 01.613-1.989 2.225 2.225 0 011.989-.613h3.253a2.235 2.235 0 012.602 2.602v4.164zm-2.342-4.164a.721.721 0 00-.78-.78h-2.212a.72.72 0 00-.74.472.721.721 0 00-.041.308v4.164a.722.722 0 00.781.78h2.212a.72.72 0 00.739-.471.722.722 0 00.041-.309v-4.164zm11.48 1.561l-1.822 3.253h-1.822l-1.821-3.253v5.06h-2.357v-9.093h2.473l2.602 4.814 2.602-4.814h2.472v9.108h-2.342l.015-5.075zm11.884 5.075h-2.357v-5.595l-3.123 5.595h-2.472v-9.108h2.342v5.595l3.123-5.596h2.472l.015 9.109zm6.873-2.993c-1.041.087-2.024.13-2.95.13a2.723 2.723 0 01-1.98-.6 2.55 2.55 0 01-.6-1.872v-3.773h2.342v3.773a.602.602 0 00.65.65c.709 0 1.555-.043 2.538-.13v-4.293h2.342v9.108h-2.342V90.2zm11.158 2.993h-7.229v-9.108h7.229v1.821h-4.88V87.7h3.832v1.822h-3.832v1.886h4.88v1.786zm8.108-.129c-1.927.173-3.532.26-4.814.26a2.551 2.551 0 01-1.872-.6 2.51 2.51 0 01-.6-1.872v-4.164a2.724 2.724 0 01.614-1.988 2.762 2.762 0 011.988-.615h4.684v1.822h-4.164a.72.72 0 00-.739.472.721.721 0 00-.041.309v4.164a.656.656 0 00.173.477.607.607 0 00.448.173h2.003l.918-.05 1.446-.094-.044 1.706zm7.714-9.109a9.18 9.18 0 011.171.13v1.756h-.513a.55.55 0 00-.347.123.81.81 0 00-.238.268l-1.237 2.342 2.545 4.619h-2.472l-2.017-3.708h-1.171v3.708h-2.342v-9.108h2.342v3.614h1.171l1.301-2.472c.179-.342.425-.644.723-.89a1.703 1.703 0 011.084-.382zm10.125 9.238h-2.343v-5.595l-3.122 5.595h-2.473v-9.108h2.342v5.595l3.123-5.596h2.473v9.109zm7.196.001v-5.595l-3.122 5.595h-2.473v-9.109h2.343v5.596l3.122-5.596h2.473v9.109h-2.343zm-2.342-9.76a1.497 1.497 0 01-1.691-1.69v-.391h1.691v.325a.458.458 0 00.132.325.446.446 0 00.324.13h.405a.446.446 0 00.455-.455v-.325h1.713v.39a1.497 1.497 0 01-1.691 1.692h-1.338zm12.425 9.889a7.29 7.29 0 01-1.345-.13v-1.757h1.178a.518.518 0 00.514-.296.553.553 0 00.065-.282.482.482 0 00-.065-.268l-3.571-6.505h2.602l2.342 4.619 1.945-4.62h2.609l-3.318 7.157a3.974 3.974 0 01-1.099 1.532 2.888 2.888 0 01-1.857.55zm14.76-.13h-2.343v-3.709h-3.252v3.709h-2.343v-9.108h2.343v3.614h3.252v-3.614h2.343v9.108zm9.532 0h-2.342v-5.595l-3.151 5.595h-2.473v-9.108h2.342v5.595l3.123-5.596h2.473l.028 9.109zm1.609-9.108h5.19a2.624 2.624 0 011.872.579 2.35 2.35 0 01.6 1.763c.029.445-.077.889-.304 1.273a1.818 1.818 0 01-.831.68 2.018 2.018 0 011.446 1.401c.091.305.135.622.13.94a2.163 2.163 0 01-.61 1.862 2.174 2.174 0 01-1.862.61h-5.595l-.036-9.108zm5.334 2.603a.721.721 0 00-.78-.781h-2.212V87.7h2.212a.722.722 0 00.78-.723v-.29zm.391 3.614a.737.737 0 00-.209-.572.727.727 0 00-.572-.209h-2.602v1.822h2.602a.725.725 0 00.781-.78v-.261zm10.761 2.891h-7.229v-9.108h7.229v1.821h-4.879V87.7h3.838v1.822h-3.838v1.886h4.879v1.786zm1.084-9.108h5.472a2.225 2.225 0 012.595 2.602v1.301a2.228 2.228 0 01-1.529 2.536 2.23 2.23 0 01-1.066.066h-3.123v2.603h-2.349v-9.108zm5.725 2.602a.721.721 0 00-.781-.78h-2.595v2.89h2.617a.724.724 0 00.781-.78l-.022-1.33zm10.581 6.377c-1.928.173-3.533.26-4.815.26a2.553 2.553 0 01-1.872-.6 2.527 2.527 0 01-.6-1.872v-4.164a2.725 2.725 0 01.615-1.988 2.76 2.76 0 011.988-.615h4.684v1.822h-4.164a.724.724 0 00-.781.78v4.165a.656.656 0 00.174.477.607.607 0 00.448.173h2.002l.926-.05 1.409-.094-.014 1.706zm9.01.129h-2.342v-5.595l-3.123 5.595h-2.472v-9.108h2.342v5.595l3.123-5.596h2.472v9.109zm6.032 0h-2.342v-7.287h-2.733v-1.822h7.807v1.822h-2.732v7.287zm10.896 0h-7.229v-9.108h7.229v1.821h-4.879V87.7h3.838v1.822h-3.838v1.886h4.879v1.786zm5.512 0h-2.313v-7.287h-2.74v-1.822h7.8v1.822h-2.747v7.287zm-296.37 23.06h-4.554v-10.879l-6.072 10.879H186v-17.71h4.554v10.879l6.072-10.879h4.807v17.71zm18.271-9.867l-3.542 6.325h-3.542l-3.542-6.325v9.867h-4.555v-17.71h4.808l5.06 9.361 5.06-9.361h4.807v17.71h-4.554v-9.867zm21.689 9.867h-14.045v-17.71h14.045v3.542h-9.491v3.419h7.467v3.535h-7.467v3.672h9.491v3.542zm17.493 0h-4.554v-7.228h-6.325v7.228h-4.554v-17.71h4.554v6.961h6.325v-6.961h4.554v17.71zm18.53 0h-4.569v-10.879l-6.072 10.879h-4.771v-17.71h4.554v10.879l6.072-10.879h4.807l-.021 17.71zm15.279 0h-4.554v-17.71h13.785v3.542h-9.231v14.168zm10.293-3.795h4.554v3.795h-4.554v-3.795zm6.887-13.915h10.12c1.653 0 2.858.376 3.615 1.128a4.587 4.587 0 011.163 3.426 4.202 4.202 0 01-.657 2.465 3.532 3.532 0 01-1.62 1.33 3.923 3.923 0 012.783 2.733c.178.59.263 1.205.253 1.821 0 1.653-.387 2.858-1.163 3.615-.776.756-1.981 1.144-3.615 1.163h-10.879V98.543zm10.373 5.06a1.341 1.341 0 00-1.518-1.518h-4.301v3.542h4.301a1.347 1.347 0 001.462-.904c.066-.198.085-.408.056-.614v-.506zm.759 7.084a1.341 1.341 0 00-1.518-1.518h-5.06v3.542h5.06a1.347 1.347 0 001.462-.904c.066-.198.085-.408.056-.614v-.506zm6.118 1.771h4.554v3.795h-4.554v-3.795zm29.953 3.795h-4.554v-14.168h-6.325v14.168h-4.554v-17.71h15.433v17.71zm7.243-.795a3.451 3.451 0 01-2.559 1.048 15.539 15.539 0 01-2.856-.253v-3.419h1.135a1.079 1.079 0 00.803-.325c.21-.218.331-.507.339-.81l.759-13.156h14.039v17.71h-4.555v-14.168h-5.327l-.629 10.496a4.385 4.385 0 01-1.149 2.877zm28.791.795h-14.046v-17.71h14.046v3.542h-9.491v3.419h7.467v3.535h-7.467v3.672h9.491v3.542zm12.321-17.71h5.06l-5.689 8.855 5.783 8.855h-5.06l-3.542-5.566-3.542 5.566h-5.06l5.783-8.855-5.595-8.855h5.06l3.441 5.566 3.361-5.566z" fill="#fff"/><path d="M415.096 116.253h-4.901l6.701-17.71h5.06l6.709 17.71h-4.937l-1.135-3.159h-6.326l-1.171 3.159zm2.277-6.448h4.049l-2.024-5.949-2.025 5.949zm28.006 6.448h-4.554v-7.228h-6.326v7.228h-4.554v-17.71h4.554v6.961h6.326v-6.961h4.554v17.71zm19.035-4.807c0 1.771-.405 3.058-1.2 3.86-.795.802-2.089 1.2-3.86 1.2h-6.325c-1.769 0-3.055-.4-3.86-1.2-.805-.8-1.205-2.087-1.2-3.86v-8.096c0-1.774.4-3.06 1.2-3.86.8-.8 2.086-1.2 3.86-1.2h6.325c1.769 0 3.055.4 3.86 1.2.795.802 1.2 2.089 1.2 3.86v8.096zm-4.554-8.096a1.354 1.354 0 00-.381-1.138 1.34 1.34 0 00-1.137-.38h-4.337a1.347 1.347 0 00-1.462.904 1.347 1.347 0 00-.056.614v8.096a1.341 1.341 0 001.518 1.518h4.337a1.342 1.342 0 001.461-.905c.067-.197.086-.407.057-.613v-8.096zm7.128-4.807h10.121c1.648 0 2.852.376 3.614 1.128a4.587 4.587 0 011.164 3.426c.037.87-.192 1.73-.658 2.465a3.563 3.563 0 01-1.619 1.33 3.92 3.92 0 012.783 2.733c.177.59.263 1.205.253 1.821 0 1.653-.388 2.858-1.164 3.615-.776.756-1.981 1.144-3.614 1.163h-10.88V98.543zm10.374 5.06a1.356 1.356 0 00-.381-1.137 1.347 1.347 0 00-1.138-.381h-4.301v3.542h4.301a1.345 1.345 0 001.519-1.518v-.506zm.759 7.084a1.356 1.356 0 00-.381-1.137 1.347 1.347 0 00-1.138-.381h-5.06v3.542h5.06a1.345 1.345 0 001.519-1.518v-.506zm10.045 5.566h-4.959l6.701-17.71h5.06l6.708 17.71h-4.937l-1.135-3.159h-6.325l-1.113 3.159zm2.277-6.448h4.048l-2.024-5.949-2.024 5.949zm11.554-35.841H186.102v2.891h315.895v-2.891z" fill="#fff"/></svg>