<svg width="1920" height="151" fill="none" xmlns="http://www.w3.org/2000/svg"><path opacity=".3" fill="#217AFF" d="M540 57h1380v36H540zM0 57h146v36H0z"/><path d="M185.629 12.682h35.309c5.885 0 10.161 1.333 12.82 3.993 2.66 2.66 3.994 6.936 3.994 12.82v8.407c0 5.885-1.334 10.161-3.994 12.82-2.659 2.66-6.935 3.994-12.82 3.994h-20.177V71.53h-15.132V12.682zm36.99 16.813c0-3.362-1.681-5.044-5.044-5.044h-16.814v18.495h16.814c3.363 0 5.044-1.681 5.044-5.044v-8.407zm19.338 29.845c13.676.84 22.923 1.26 27.743 1.26 1.29 0 2.312-.376 3.065-1.137.754-.761 1.138-1.776 1.138-3.066v-7.986h-22.365V36.64h22.365v-7.146c0-3.362-1.681-5.044-5.044-5.044h-26.061V12.68h29.424c5.885 0 10.161 1.334 12.82 3.994 2.66 2.66 3.994 6.936 3.994 12.82v26.902c0 5.494-1.29 9.53-3.871 12.103-2.58 2.58-6.616 3.87-12.103 3.87-8.406 0-18.777-.558-31.105-1.68V59.34zm69.616 13.03c-2.805 0-5.689-.282-8.66-.84V60.18h7.566c1.623 0 2.747-.645 3.363-1.934.282-.559.42-1.16.42-1.805s-.138-1.218-.42-1.725l-23.119-42.034h16.813l15.133 29.844 12.61-29.844h16.814l-21.438 46.237c-1.964 4.429-4.319 7.733-7.059 9.922-3.029 2.355-7.037 3.53-12.023 3.53zm41.353-13.451h15.132v12.61h-15.132V58.92zm22.707-46.237h35.309c5.885 0 10.16 1.333 12.82 3.993s3.993 6.936 3.993 12.82v8.407c0 5.885-1.333 10.161-3.993 12.82-2.66 2.66-6.935 3.994-12.82 3.994h-20.177V71.53h-15.132V12.682zm36.99 16.813c0-3.362-1.681-5.044-5.044-5.044h-16.814v18.495h16.814c3.363 0 5.044-1.681 5.044-5.044v-8.407zm89.114 21.017c0 5.885-1.333 10.161-3.993 12.82-2.66 2.66-6.936 3.994-12.821 3.994h-10.088v5.885h-15.132v-5.885h-10.088c-5.885 0-10.161-1.333-12.821-3.993s-3.993-6.936-3.993-12.82V33.698c0-5.885 1.333-10.161 3.993-12.82 2.66-2.66 6.936-3.994 12.821-3.994h10.088V11h15.132v5.885h10.088c5.885 0 10.161 1.333 12.821 3.993s3.993 6.936 3.993 12.82v16.814zm-53.804 0c0 3.363 1.682 5.044 5.044 5.044h7.566V28.654h-7.566c-3.362 0-5.044 1.682-5.044 5.045v16.813zM486.605 33.7c0-3.363-1.682-5.045-5.044-5.045h-7.567v26.902h7.567c3.362 0 5.044-1.68 5.044-5.044V33.7z" fill="#fff"/><path d="M181.531 83.704h324.68" stroke="#fff" stroke-width="5.073" stroke-miterlimit="10"/><path d="M185.789 96.024h5.479c.913 0 1.573.21 1.986.616.413.413.623 1.08.623 1.993v1.305c0 .913-.21 1.58-.623 1.993-.413.413-1.073.623-1.986.623h-3.131v2.609h-2.348v-9.139zm5.74 2.61c0-.522-.261-.783-.783-.783h-2.609v2.87h2.609c.522 0 .783-.261.783-.783v-1.305zm11.748 4.044c0 .913-.21 1.579-.616 1.993-.413.413-1.073.623-1.993.623h-3.262c-.913 0-1.572-.21-1.985-.623-.413-.414-.616-1.08-.616-1.993v-4.175c0-.913.203-1.573.616-1.993.413-.413 1.072-.616 1.985-.616h3.262c.913 0 1.58.21 1.993.616.413.413.616 1.08.616 1.993v4.175zm-2.348-4.175c0-.522-.261-.783-.783-.783h-2.218c-.522 0-.782.261-.782.783v4.175c0 .521.26.782.782.782h2.218c.522 0 .783-.261.783-.782v-4.175zm10.689 6.523c-1.942.174-3.551.26-4.827.26-.855 0-1.478-.202-1.877-.601-.399-.399-.602-1.029-.602-1.877v-4.175c0-.913.203-1.572.617-1.993.413-.413 1.072-.616 1.985-.616h4.697v1.827h-4.175c-.522 0-.783.26-.783.782v4.175c0 .203.058.362.174.478a.612.612 0 00.45.174c.181 0 .384 0 .601-.007.218-.007.442-.007.681-.022.232-.007.471-.014.711-.029.239-.007.55-.029.927-.051.377-.029.848-.058 1.414-.094v1.769h.007zm8.078 0c-1.942.174-3.551.26-4.827.26-.855 0-1.478-.202-1.877-.601-.398-.399-.601-1.029-.601-1.877v-4.175c0-.913.203-1.572.616-1.993.413-.413 1.072-.616 1.985-.616h4.697v1.827h-4.175c-.522 0-.782.26-.782.782v4.175c0 .203.057.362.173.478a.614.614 0 00.45.174c.181 0 .384 0 .601-.007.218-.007.442-.007.682-.022.231-.007.471-.014.71-.029.239-.007.551-.029.927-.051.377-.029.848-.058 1.414-.094v1.769h.007zm9.015.13h-2.348v-5.61l-3.131 5.61h-2.478v-9.132h2.348v5.61l3.131-5.61h2.478v9.132zm7.172.001v-5.61l-3.131 5.61h-2.479v-9.132h2.349v5.61l3.13-5.61h2.479v9.132h-2.348zm-2.348-9.784c-1.131 0-1.696-.565-1.696-1.696v-.391h1.696v.326a.442.442 0 00.456.456h.392a.443.443 0 00.456-.456v-.326h1.696v.391c0 1.13-.565 1.696-1.696 1.696h-1.304zm13.294 9.653c-1.943.174-3.551.26-4.827.26-.855 0-1.478-.202-1.877-.601-.399-.399-.602-1.029-.602-1.877v-4.175c0-.913.203-1.572.616-1.993.414-.413 1.073-.616 1.986-.616h4.696v1.827h-4.174c-.522 0-.783.26-.783.782v4.175c0 .203.058.362.174.478a.612.612 0 00.45.174c.181 0 .384 0 .601-.007.218-.007.442-.007.681-.022.232-.007.471-.014.711-.029.239-.007.55-.029.927-.051.377-.029.848-.058 1.413-.094v1.769h.008zm7.711-9.132c.217 0 .609.043 1.174.13v1.762h-.522a.588.588 0 00-.355.123.879.879 0 00-.232.268l-1.239 2.348 2.543 4.631h-2.478l-2.022-3.718h-1.174v3.718h-2.348v-9.132h2.348v3.588h1.174l1.304-2.479c.189-.362.428-.666.711-.891.282-.232.652-.348 1.116-.348zm10.101 9.262h-2.348v-5.61l-3.131 5.61h-2.478v-9.132h2.348v5.61l3.131-5.61h2.478v9.132zm7.172.001v-5.61l-3.131 5.61h-2.479v-9.132h2.348v5.61l3.131-5.61h2.479v9.132h-2.348zm-2.349-9.784c-1.13 0-1.695-.565-1.695-1.696v-.391h1.695v.326a.443.443 0 00.457.456h.391a.44.44 0 00.326-.13.443.443 0 00.131-.326v-.326h1.696v.391c0 1.13-.565 1.696-1.696 1.696h-1.305zm9.657 7.891c2.124.131 3.559.196 4.305.196.203 0 .362-.058.478-.174.116-.116.174-.275.174-.478v-1.239h-3.471v-1.827h3.471v-1.109c0-.521-.261-.782-.782-.782h-4.044v-1.827h4.565c.914 0 1.573.21 1.993.616.413.413.624 1.08.624 1.993v4.175c0 .855-.203 1.478-.602 1.877-.399.399-1.029.601-1.877.601-1.304 0-2.913-.086-4.827-.26v-1.762h-.007zm15.263-7.37c.217 0 .608.043 1.174.13v1.762h-.522a.584.584 0 00-.355.123.866.866 0 00-.232.268l-1.24 2.348 2.544 4.631h-2.478l-2.022-3.718h-1.174v3.718h-2.349v-9.132h2.349v3.588h1.174l1.304-2.479c.189-.362.428-.666.71-.891.283-.232.653-.348 1.117-.348zm10.364 6.784c0 .913-.21 1.579-.616 1.993-.413.413-1.08.623-1.993.623h-3.261c-.913 0-1.58-.21-1.993-.623-.413-.414-.623-1.08-.623-1.993v-4.175c0-.913.21-1.573.623-1.993.413-.413 1.073-.616 1.993-.616h3.261c.913 0 1.573.21 1.993.616.413.413.616 1.08.616 1.993v4.175zm-2.348-4.175c0-.522-.261-.783-.783-.783H299.4c-.522 0-.783.261-.783.783v4.175c0 .521.261.782.783.782h2.217c.522 0 .783-.261.783-.782v-4.175zm11.616 6.653h-2.348v-3.718h-3.261v3.718h-2.348v-9.132h2.348v3.588h3.261v-3.588h2.348v9.132zm9.783-2.478c0 .913-.21 1.579-.616 1.993-.413.413-1.08.623-1.993.623h-3.261c-.913 0-1.58-.21-1.993-.623-.413-.414-.624-1.08-.624-1.993v-4.175c0-.913.211-1.573.624-1.993.413-.413 1.072-.616 1.993-.616h3.261c.913 0 1.573.21 1.993.616.413.413.616 1.08.616 1.993v4.175zm-2.348-4.175c0-.522-.261-.783-.783-.783h-2.217c-.522 0-.783.261-.783.783v4.175c0 .521.261.782.783.782h2.217c.522 0 .783-.261.783-.782v-4.175zm11.485 1.565l-1.826 3.262h-1.826l-1.827-3.262v5.088h-2.348v-9.132h2.479l2.609 4.827 2.609-4.827h2.479v9.132h-2.349v-5.088zm11.869 5.088h-2.348v-5.61l-3.131 5.61h-2.478v-9.132h2.348v5.61l3.131-5.61h2.478v9.132zm6.844-3c-1.044.087-2.029.13-2.957.13-.927 0-1.587-.203-1.993-.601-.398-.399-.601-1.03-.601-1.877v-3.784h2.348v3.784c0 .202.058.362.174.478.116.116.275.174.478.174.71 0 1.558-.044 2.544-.131v-4.305h2.348v9.132h-2.348v-3h.007zm11.157 3h-7.24v-9.132h7.24v1.827h-4.891v1.76h3.848v1.827h-3.848v1.892h4.891v1.826zm8.081-.13c-1.942.174-3.551.26-4.826.26-.856 0-1.479-.202-1.877-.601-.399-.399-.602-1.029-.602-1.877v-4.175c0-.913.21-1.572.623-1.993.413-.413 1.073-.616 1.993-.616h4.697v1.827h-4.175c-.522 0-.783.26-.783.782v4.175c0 .203.058.362.174.478a.612.612 0 00.45.174c.181 0 .384 0 .601-.007.218-.007.442-.007.681-.022.232-.007.472-.014.711-.029.239-.007.55-.029.927-.051.377-.029.848-.058 1.414-.094v1.769h-.008zm7.711-9.132c.218 0 .609.043 1.174.13v1.762h-.521a.589.589 0 00-.356.123.875.875 0 00-.231.268l-1.24 2.348 2.544 4.631h-2.479l-2.022-3.718h-1.174v3.718h-2.348v-9.132h2.348v3.588h1.174l1.305-2.479a2.75 2.75 0 01.71-.891c.283-.232.66-.348 1.116-.348zm10.102 9.262h-2.348v-5.61l-3.131 5.61h-2.479v-9.132h2.348v5.61l3.131-5.61h2.479v9.132zm7.171.001v-5.61l-3.131 5.61h-2.478v-9.132h2.348v5.61l3.131-5.61h2.478v9.132h-2.348zm-2.348-9.784c-1.131 0-1.696-.565-1.696-1.696v-.391h1.696v.326a.442.442 0 00.457.456h.391a.443.443 0 00.457-.457v-.325h1.695v.391c0 1.13-.565 1.696-1.695 1.696h-1.305zm12.373 9.913c-.434 0-.884-.043-1.34-.13v-1.761h1.174c.253 0 .427-.102.521-.297a.617.617 0 000-.551l-3.587-6.523h2.609l2.348 4.631 1.957-4.63h2.609l-3.326 7.174c-.305.689-.667 1.203-1.095 1.537-.478.369-1.101.55-1.87.55zm14.761-.13h-2.348v-3.718h-3.262v3.718h-2.348v-9.132h2.348v3.588h3.262v-3.588h2.348v9.132zm9.519 0h-2.348v-5.61l-3.131 5.61h-2.478v-9.132h2.348v5.61l3.131-5.61h2.478v9.132zm1.558-9.132h5.218c.856 0 1.479.196 1.877.58.399.384.602.979.602 1.769 0 .521-.116.942-.341 1.268a1.822 1.822 0 01-.833.681c.703.188 1.181.66 1.435 1.406.087.268.13.58.13.942 0 .855-.203 1.479-.601 1.877-.399.399-1.029.602-1.877.602h-5.61v-9.125zm5.349 2.61c0-.522-.261-.783-.783-.783h-2.218v1.826h2.218c.522 0 .783-.26.783-.783v-.26zm.391 3.652c0-.522-.261-.783-.782-.783h-2.61v1.827h2.61c.521 0 .782-.261.782-.783v-.261zm10.774 2.87h-7.24v-9.132h7.24v1.827h-4.892v1.76h3.848v1.827h-3.848v1.892h4.892v1.826zm1.037-9.132h5.479c.913 0 1.573.21 1.993.616.413.413.623 1.08.623 1.993v1.305c0 .913-.21 1.58-.623 1.993-.413.413-1.072.623-1.993.623h-3.131v2.609h-2.348v-9.139zm5.74 2.61c0-.522-.261-.783-.783-.783h-2.609v2.87h2.609c.522 0 .783-.261.783-.783v-1.305zm10.569 6.392c-1.942.174-3.551.26-4.826.26-.856 0-1.479-.202-1.877-.601-.399-.399-.602-1.029-.602-1.877v-4.175c0-.913.21-1.572.623-1.993.413-.413 1.073-.616 1.993-.616h4.697v1.827h-4.175c-.522 0-.783.26-.783.782v4.175c0 .203.058.362.174.478a.614.614 0 00.45.174c.181 0 .384 0 .601-.007.218-.007.442-.007.681-.022.232-.007.472-.014.711-.029.239-.007.55-.029.927-.051.377-.029.848-.058 1.414-.094v1.769h-.008zm9.004.13h-2.348v-5.61l-3.131 5.61h-2.478v-9.132h2.348v5.61l3.131-5.61h2.478v9.132zm6.005 0h-2.348v-7.305h-2.739v-1.827h7.827v1.827h-2.74v7.305zm10.887 0h-7.24v-9.132h7.24v1.827h-4.892v1.76h3.848v1.827h-3.848v1.892h4.892v1.826zm5.48 0h-2.348v-7.305h-2.739v-1.827h7.827v1.827h-2.74v7.305zm-295.958 23.119h-4.566v-10.907l-6.087 10.907h-4.82v-17.756h4.566v10.907l6.088-10.907h4.819v17.756zm18.262-9.893l-3.551 6.342h-3.551l-3.552-6.342v9.893h-4.565v-17.756h4.819l5.073 9.385 5.073-9.385h4.82v17.756h-4.566v-9.893zm21.687 9.893h-14.074v-17.756h14.074v3.551h-9.508v3.428h7.486v3.551h-7.486v3.682h9.508v3.544zm17.512 0h-4.566v-7.233h-6.341v7.233H243v-17.756h4.566v6.972h6.341v-6.972h4.566v17.756zm18.508 0h-4.566v-10.907l-6.088 10.907h-4.819v-17.756h4.566v10.907l6.087-10.907h4.82v17.756zm15.218 0h-4.566v-17.756h13.828v3.551h-9.262v14.205zm10.27-3.804h4.566v3.805h-4.566v-3.805zm6.851-13.952h10.147c1.659 0 2.877.377 3.652 1.131.776.753 1.167 1.898 1.167 3.435 0 1.014-.217 1.841-.66 2.471-.442.631-.978 1.08-1.623 1.334 1.37.369 2.297 1.282 2.79 2.739.167.522.254 1.131.254 1.826 0 1.66-.391 2.878-1.167 3.653-.775.776-1.993 1.167-3.652 1.167H309.32v-17.756zm10.407 5.073c0-1.014-.507-1.522-1.521-1.522h-4.313v3.551h4.313c1.014 0 1.521-.507 1.521-1.522v-.507zm.761 7.103c0-1.015-.507-1.522-1.522-1.522h-5.073v3.551h5.073c1.015 0 1.522-.508 1.522-1.522v-.507zm6.078 1.776h4.566v3.805h-4.566v-3.805zm29.927 3.804h-4.566V114.07h-6.342v14.205h-4.565v-17.756h15.473v17.756zm7.208-.797c-.696.703-1.544 1.051-2.565 1.051-1.015 0-1.972-.087-2.87-.254v-3.428h1.145c.319 0 .587-.108.797-.333a1.22 1.22 0 00.341-.812l.761-13.19h14.074v17.763h-4.566v-14.204h-5.327l-.638 10.53c-.065 1.21-.456 2.174-1.152 2.877zm28.811.797h-14.074v-17.756h14.081v3.551h-9.516v3.428h7.48v3.551h-7.48v3.682h9.509v3.544zm12.31-17.756h5.073l-5.711 8.878 5.834 8.878h-5.073l-3.551-5.58-3.551 5.58h-5.073l5.834-8.878-5.711-8.878h5.044l3.45 5.58 3.435-5.58z" fill="#fff"/><path d="M414.47 128.275h-4.943l6.719-17.756h5.073l6.725 17.756h-4.95l-1.145-3.174h-6.341l-1.138 3.174zm2.283-6.465h4.058l-2.029-5.964-2.029 5.964zm28.013 6.465H440.2v-7.233h-6.341v7.233h-4.566v-17.756h4.566v6.972h6.341v-6.972h4.566v17.756zm19.034-4.819c0 1.776-.398 3.066-1.203 3.87-.804.805-2.094 1.203-3.87 1.203h-6.341c-1.776 0-3.066-.398-3.87-1.203-.805-.804-1.204-2.094-1.204-3.87v-8.117c0-1.775.399-3.065 1.204-3.87.804-.804 2.094-1.203 3.87-1.203h6.341c1.776 0 3.066.399 3.87 1.203.805.805 1.203 2.095 1.203 3.87v8.117zm-4.566-8.117c0-1.014-.507-1.522-1.522-1.522H453.4c-1.014 0-1.522.508-1.522 1.522v8.117c0 1.015.508 1.522 1.522 1.522h4.312c1.015 0 1.522-.507 1.522-1.522v-8.117zm7.094-4.82h10.146c1.66 0 2.878.377 3.653 1.131.775.753 1.167 1.898 1.167 3.435 0 1.014-.218 1.841-.66 2.471-.442.631-.978 1.08-1.623 1.334 1.37.369 2.297 1.282 2.79 2.739.167.522.254 1.131.254 1.826 0 1.66-.392 2.878-1.167 3.653-.775.776-1.993 1.167-3.653 1.167h-10.907v-17.756zm10.4 5.073c0-1.014-.507-1.522-1.522-1.522h-4.312v3.551h4.312c1.015 0 1.522-.507 1.522-1.522v-.507zm.761 7.103c0-1.015-.507-1.522-1.522-1.522h-5.073v3.551h5.073c1.015 0 1.522-.508 1.522-1.522v-.507zm10.024 5.58h-4.943l6.719-17.756h5.073l6.725 17.756h-4.95l-1.145-3.174h-6.341l-1.138 3.174zm2.283-6.465h4.058l-2.029-5.964-2.029 5.964z" fill="#fff"/></svg>