<svg width="1920" height="111" fill="none" xmlns="http://www.w3.org/2000/svg"><path opacity=".3" fill="#217AFF" d="M540 37h1380v36H540zM0 37h146v36H0z"/><path d="M186.578 1.677h35.219c5.87 0 10.135 1.33 12.788 3.983 2.653 2.653 3.983 6.918 3.983 12.788v8.385c0 5.87-1.33 10.135-3.983 12.788-2.653 2.653-6.918 3.983-12.788 3.983h-20.125v16.77h-15.094V1.678zm36.896 16.77c0-3.354-1.677-5.03-5.031-5.03h-16.771v18.447h16.771c3.354 0 5.031-1.677 5.031-5.031v-8.385zm19.284 29.769c13.641.838 22.864 1.258 27.672 1.258 1.286 0 2.306-.376 3.057-1.135.752-.752 1.135-1.771 1.135-3.058v-7.966h-22.308v-11.74h22.308v-7.127c0-3.355-1.677-5.032-5.031-5.032h-25.995V1.676h29.349c5.87 0 10.135 1.33 12.788 3.984 2.653 2.653 3.983 6.918 3.983 12.788V45.28c0 5.48-1.287 9.506-3.86 12.072-2.574 2.573-6.593 3.86-12.072 3.86-8.386 0-18.73-.556-31.026-1.677v-11.32zm69.434 12.997c-2.798 0-5.675-.282-8.639-.838v-11.32h7.547c1.619 0 2.74-.644 3.354-1.93.282-.557.42-1.157.42-1.8 0-.644-.138-1.215-.42-1.721L291.395 1.677h16.77l15.094 29.768 12.578-29.768h16.771l-21.383 46.12c-1.959 4.416-4.308 7.713-7.041 9.896-3.021 2.349-7.019 3.52-11.992 3.52zm41.257-13.416h15.094v12.578h-15.094V47.797zm22.641-46.12h35.219c5.869 0 10.134 1.33 12.787 3.983 2.653 2.653 3.983 6.918 3.983 12.788v8.385c0 5.87-1.33 10.135-3.983 12.788-2.653 2.653-6.918 3.983-12.787 3.983h-20.125v16.77H376.09V1.678zm36.896 16.77c0-3.354-1.677-5.03-5.032-5.03h-16.77v18.447h16.77c3.355 0 5.032-1.677 5.032-5.031v-8.385zm88.884 20.964c0 5.87-1.33 10.135-3.983 12.788-2.653 2.653-6.918 3.983-12.788 3.983h-10.063v5.87h-15.093v-5.87H449.88c-5.87 0-10.135-1.33-12.788-3.983-2.653-2.653-3.983-6.918-3.983-12.788v-16.77c0-5.87 1.33-10.135 3.983-12.788C439.745 7.2 444.01 5.87 449.88 5.87h10.063V0h15.093v5.87h10.063c5.87 0 10.135 1.33 12.788 3.983 2.653 2.653 3.983 6.918 3.983 12.788v16.77zm-53.667 0c0 3.355 1.677 5.032 5.031 5.032h7.547V17.609h-7.547c-3.354 0-5.031 1.677-5.031 5.032v16.77zm38.573-16.77c0-3.355-1.677-5.032-5.031-5.032h-7.547v26.834h7.547c3.354 0 5.031-1.677 5.031-5.032v-16.77zM186.043 78.303h5.465c.911 0 1.569.21 1.981.614.412.412.621 1.077.621 1.988v1.301c0 .911-.209 1.576-.621 1.988-.412.412-1.07.622-1.981.622h-3.123v2.602h-2.342v-9.115zm5.725 2.602c0-.52-.26-.78-.781-.78h-2.602v2.862h2.602c.521 0 .781-.26.781-.78v-1.302zm11.756 4.034c0 .91-.21 1.576-.622 1.988-.412.412-1.069.622-1.98.622h-3.253c-.911 0-1.576-.21-1.988-.622-.412-.412-.615-1.077-.615-1.988v-4.164c0-.91.203-1.568.615-1.988.412-.419 1.077-.614 1.988-.614h3.253c.911 0 1.568.21 1.98.614.412.405.622 1.077.622 1.988v4.164zm-2.342-4.164c0-.52-.26-.78-.781-.78h-2.212c-.52 0-.78.26-.78.78v4.164c0 .52.26.78.78.78h2.212c.521 0 .781-.26.781-.78v-4.164zm10.706 6.505c-1.937.174-3.542.261-4.814.261-.853 0-1.475-.202-1.872-.6-.398-.397-.6-1.026-.6-1.872v-4.164c0-.91.209-1.569.621-1.988.412-.42 1.07-.614 1.981-.614h4.684v1.821h-4.164c-.52 0-.78.26-.78.781v4.164c0 .202.058.361.173.477a.611.611 0 00.448.173h.6c.217 0 .441-.007.68-.021.231-.007.47-.015.708-.03.239-.006.55-.028.926-.05.375-.029.845-.058 1.409-.094v1.757zm8.102 0c-1.938.174-3.542.261-4.815.261-.853 0-1.474-.202-1.872-.6-.397-.397-.6-1.026-.6-1.872v-4.164c0-.91.203-1.569.615-1.988.412-.412 1.077-.614 1.987-.614h4.685v1.821h-4.164c-.521 0-.781.26-.781.781v4.164c0 .202.058.361.174.477a.608.608 0 00.448.173h.6c.217 0 .441-.007.679-.021.232-.007.47-.015.709-.03.238-.006.549-.028.925-.05.376-.029.846-.058 1.41-.094v1.757zm9.021.131h-2.342v-5.595l-3.123 5.595h-2.472v-9.108h2.342v5.595l3.123-5.595h2.472v9.108zm7.19 0v-5.595l-3.123 5.595h-2.473v-9.108h2.343v5.595l3.122-5.595h2.473v9.108h-2.342zm-2.343-9.759c-1.127 0-1.691-.564-1.691-1.691v-.39h1.691v.325c0 .13.044.238.131.325a.44.44 0 00.325.13h.39a.44.44 0 00.325-.13.441.441 0 00.131-.325v-.326h1.691v.39c0 1.128-.564 1.692-1.691 1.692h-1.302zm13.319 9.628c-1.937.174-3.542.261-4.814.261-.853 0-1.475-.202-1.872-.6-.398-.397-.6-1.026-.6-1.872v-4.164c0-.91.209-1.569.621-1.988.412-.42 1.07-.614 1.981-.614h4.684v1.821h-4.164c-.52 0-.78.26-.78.781v4.164c0 .202.058.361.173.477a.611.611 0 00.448.173h.6c.217 0 .441-.007.68-.021.231-.007.47-.015.708-.03.239-.006.55-.028.926-.05.376-.029.845-.058 1.409-.094v1.757zm7.713-9.107c.217 0 .607.043 1.171.13v1.757h-.52a.586.586 0 00-.355.123.887.887 0 00-.231.267l-1.236 2.342 2.537 4.62h-2.472l-2.017-3.71h-1.171v3.71h-2.342v-9.109h2.342v3.578h1.171l1.301-2.472c.188-.362.427-.665.709-.89.282-.23.65-.346 1.113-.346zm10.121 9.238h-2.342v-5.595l-3.123 5.595h-2.472v-9.108h2.342v5.595l3.123-5.595h2.472v9.108zm7.201 0v-5.595l-3.123 5.595h-2.472v-9.108h2.342v5.595l3.123-5.595h2.472v9.108h-2.342zm-2.342-9.759c-1.128 0-1.691-.564-1.691-1.691v-.39h1.691v.325a.444.444 0 00.456.455h.39a.441.441 0 00.455-.455v-.326h1.692v.39c0 1.128-.564 1.692-1.692 1.692h-1.301zm9.696 7.872c2.118.13 3.55.195 4.294.195a.653.653 0 00.477-.173c.123-.116.174-.275.174-.477v-1.236h-3.463V82.01h3.463v-1.106c0-.52-.26-.78-.781-.78h-4.033v-1.822h4.554c.91 0 1.576.21 1.988.614.412.412.621 1.077.621 1.988v4.164c0 .853-.202 1.475-.6 1.872-.397.398-1.026.6-1.872.6-1.301 0-2.906-.087-4.814-.26v-1.757h-.008zm15.269-7.351c.217 0 .607.043 1.171.13v1.757h-.52a.583.583 0 00-.354.123.877.877 0 00-.232.267l-1.236 2.342 2.537 4.62h-2.472l-2.017-3.71h-1.171v3.71h-2.342v-9.109h2.342v3.578h1.171l1.302-2.472c.188-.362.426-.665.708-.89.282-.23.651-.346 1.113-.346zm10.381 6.766c0 .91-.21 1.576-.615 1.988-.412.412-1.077.622-1.988.622h-3.253c-.911 0-1.576-.21-1.981-.622-.412-.412-.621-1.077-.621-1.988v-4.164c0-.91.209-1.568.621-1.988.413-.412 1.07-.614 1.981-.614h3.253c.911 0 1.576.21 1.988.614.412.412.615 1.077.615 1.988v4.164zm-2.343-4.164c0-.52-.26-.78-.78-.78h-2.212c-.521 0-.781.26-.781.78v4.164c0 .52.26.78.781.78h2.212c.52 0 .78-.26.78-.78v-4.164zm11.623 6.636h-2.342v-3.708h-3.253v3.708h-2.342v-9.108h2.342v3.578h3.253v-3.578h2.342v9.108zm9.798-2.472c0 .91-.21 1.576-.615 1.988-.412.412-1.077.622-1.988.622h-3.253c-.911 0-1.576-.21-1.98-.622-.412-.412-.622-1.077-.622-1.988v-4.164c0-.91.21-1.568.622-1.988.412-.412 1.069-.614 1.98-.614h3.253c.911 0 1.576.21 1.988.614.412.412.615 1.077.615 1.988v4.164zm-2.343-4.164c0-.52-.26-.78-.78-.78h-2.212c-.521 0-.781.26-.781.78v4.164c0 .52.26.78.781.78h2.212c.52 0 .78-.26.78-.78v-4.164zm11.489 1.561l-1.822 3.253h-1.821l-1.822-3.253v5.075h-2.342v-9.108h2.472l2.602 4.814 2.603-4.814h2.472v9.108h-2.342v-5.075zm11.88 5.075h-2.342v-5.595l-3.123 5.595h-2.472v-9.108h2.342v5.595l3.123-5.595h2.472v9.108zm6.87-2.993c-1.041.087-2.024.13-2.95.13-.925 0-1.583-.202-1.988-.6-.397-.397-.6-1.026-.6-1.872v-3.773h2.342v3.773c0 .203.058.362.174.477.116.116.275.174.477.174.708 0 1.554-.044 2.537-.13v-4.294h2.342v9.108h-2.342v-2.993h.008zm11.168 2.993h-7.221v-9.108h7.221v1.821h-4.879v1.757h3.838v1.822h-3.838v1.886h4.879v1.822zm8.104-.131c-1.937.174-3.542.261-4.814.261-.853 0-1.475-.202-1.872-.6-.398-.397-.6-1.026-.6-1.872v-4.164c0-.91.209-1.569.621-1.988.413-.412 1.07-.614 1.981-.614h4.684v1.821h-4.163c-.521 0-.781.26-.781.781v4.164c0 .202.058.361.173.477a.612.612 0 00.449.173h.6c.216 0 .441-.007.679-.021.231-.007.47-.015.709-.03.238-.006.549-.028.925-.05.376-.029.846-.058 1.409-.094v1.757zm7.713-9.107c.217 0 .607.043 1.171.13v1.757h-.52a.588.588 0 00-.355.123.887.887 0 00-.231.267l-1.236 2.342 2.537 4.62h-2.472l-2.017-3.71h-1.171v3.71h-2.342v-9.109h2.342v3.578h1.171l1.301-2.472c.188-.362.427-.665.709-.89.282-.23.65-.346 1.113-.346zm10.126 9.238h-2.343v-5.595l-3.122 5.595h-2.473v-9.108h2.342v5.595l3.123-5.595h2.473v9.108zm7.193 0v-5.595l-3.123 5.595h-2.473v-9.108h2.343v5.595l3.122-5.595h2.473v9.108h-2.342zm-2.343-9.759c-1.127 0-1.691-.564-1.691-1.691v-.39h1.691v.325c0 .13.044.238.131.325a.44.44 0 00.325.13h.39a.44.44 0 00.325-.13.441.441 0 00.131-.325v-.326h1.691v.39c0 1.128-.564 1.692-1.691 1.692h-1.302zm12.413 9.889c-.434 0-.882-.043-1.337-.13v-1.757h1.171c.253 0 .426-.1.52-.296a.626.626 0 00.065-.282.546.546 0 00-.065-.267l-3.578-6.506h2.602l2.342 4.619 1.952-4.62h2.602l-3.318 7.157c-.303.687-.672 1.2-1.091 1.533-.47.361-1.092.55-1.858.55h-.007zm14.772-.13h-2.342v-3.708h-3.253v3.708h-2.343v-9.108h2.343v3.578h3.253v-3.578h2.342v9.108zm9.531 0h-2.342v-5.595l-3.123 5.595h-2.472v-9.108h2.342v5.595l3.123-5.595h2.472v9.108zm1.606-9.108h5.204c.853 0 1.475.195 1.873.578.397.383.6.976.6 1.764 0 .52-.116.94-.34 1.265-.224.325-.506.55-.831.68.701.187 1.178.657 1.431 1.402.087.267.13.578.13.94 0 .852-.202 1.474-.6 1.872-.398.397-1.026.6-1.872.6h-5.595v-9.109.008zm5.335 2.602c0-.52-.261-.78-.781-.78h-2.212v1.82h2.212c.52 0 .781-.26.781-.78v-.26zm.39 3.643c0-.52-.26-.78-.781-.78h-2.602v1.821h2.602c.521 0 .781-.26.781-.78v-.26zm10.77 2.863h-7.222v-9.108h7.222v1.821h-4.88v1.757h3.839v1.822h-3.839v1.886h4.88v1.822zm1.079-9.108h5.465c.911 0 1.568.21 1.981.614.412.412.621 1.077.621 1.988v1.301c0 .911-.209 1.576-.621 1.988-.413.412-1.07.622-1.981.622h-3.123v2.602h-2.342v-9.115zm5.725 2.602c0-.52-.26-.78-.781-.78h-2.602v2.862h2.602c.521 0 .781-.26.781-.78v-1.302zm10.585 6.375c-1.937.174-3.542.261-4.814.261-.853 0-1.475-.202-1.873-.6-.397-.397-.6-1.026-.6-1.872v-4.164c0-.91.21-1.569.622-1.988.412-.412 1.07-.614 1.981-.614h4.684v1.821h-4.164c-.52 0-.781.26-.781.781v4.164c0 .202.058.361.174.477a.61.61 0 00.448.173h.6c.217 0 .441-.007.68-.021.231-.007.469-.015.708-.03.239-.006.549-.028.925-.05.376-.029.846-.058 1.41-.094v1.757zm9.014.131h-2.342v-5.595l-3.123 5.595h-2.472v-9.108h2.342v5.595l3.123-5.595h2.472v9.108zm6.024 0h-2.342v-7.287h-2.733v-1.821h7.807v1.821h-2.732v7.287zm10.905 0h-7.222v-9.108h7.222v1.821h-4.88v1.757h3.839v1.822h-3.839v1.886h4.88v1.822zm5.509 0h-2.342v-7.287h-2.733v-1.821h7.807v1.821h-2.732v7.287zM201.433 110.47h-4.554V99.591l-6.072 10.879H186V92.76h4.554v10.879l6.072-10.88h4.807v17.711zm18.267-9.867l-3.542 6.325h-3.542l-3.542-6.325v9.867h-4.554V92.76h4.807l5.06 9.361 5.06-9.361h4.807v17.71H219.7v-9.867zm21.686 9.867h-14.038V92.76h14.038v3.542h-9.484v3.42h7.467v3.541h-7.467v3.672h9.484v3.543-.008zm17.508 0h-4.554v-7.214h-6.325v7.214h-4.554V92.76h4.554v6.954h6.325V92.76h4.554v17.71zm18.52 0h-4.554V99.591l-6.072 10.879h-4.808V92.76h4.555v10.879l6.072-10.88h4.807v17.711zm15.285 0h-4.554V92.76h13.785v3.542h-9.231v14.168zm10.293-3.795h4.554v3.795h-4.554v-3.795zm6.879-13.915h10.12c1.656 0 2.87.376 3.644 1.127.773.752 1.164 1.894 1.164 3.427 0 1.012-.217 1.836-.658 2.465-.441.636-.976 1.077-1.62 1.33 1.367.369 2.292 1.28 2.784 2.733.166.52.253 1.127.253 1.821 0 1.656-.391 2.87-1.164 3.643-.774.774-1.988 1.164-3.644 1.164h-10.879V92.76zm10.373 5.06c0-1.012-.506-1.518-1.518-1.518h-4.301v3.542h4.301c1.012 0 1.518-.506 1.518-1.518v-.506zm.759 7.084c0-1.012-.506-1.518-1.518-1.518h-5.06v3.542h5.06c1.012 0 1.518-.506 1.518-1.518v-.506zm6.126 1.771h4.554v3.795h-4.554v-3.795zm29.957 3.795h-4.554V96.302h-6.326v14.168h-4.554V92.76h15.434v17.71zm7.234-.795c-.694.701-1.54 1.048-2.559 1.048-1.019 0-1.966-.087-2.863-.253v-3.419h1.135c.318 0 .586-.108.796-.333a1.21 1.21 0 00.339-.809l.759-13.157h14.046v17.711h-4.554V96.295h-5.313l-.637 10.503c-.086 1.214-.469 2.169-1.163 2.87l.014.007zm28.792.795h-14.046V92.76h14.046v3.542h-9.484v3.42h7.46v3.541h-7.46v3.672h9.484v3.543-.008zm12.32-17.71h5.06l-5.696 8.855 5.819 8.855h-5.06l-3.543-5.566-3.542 5.566h-5.06l5.819-8.855-5.696-8.855h5.031l3.441 5.566 3.412-5.566h.015z" fill="#fff"/><path d="M415.098 110.47h-4.93l6.701-17.71h5.06l6.709 17.71h-4.93l-1.143-3.166h-6.325l-1.135 3.166h-.007zm2.277-6.448h4.048l-2.024-5.95-2.024 5.95zm28.008 6.448h-4.554v-7.214h-6.326v7.214h-4.554V92.76h4.554v6.954h6.326V92.76h4.554v17.71zm19.027-4.807c0 1.771-.397 3.058-1.2 3.86-.802.803-2.089 1.2-3.86 1.2h-6.325c-1.771 0-3.058-.397-3.86-1.2-.803-.802-1.2-2.089-1.2-3.86v-8.096c0-1.771.397-3.058 1.2-3.86.802-.803 2.089-1.2 3.86-1.2h6.325c1.771 0 3.058.397 3.86 1.2.803.802 1.2 2.089 1.2 3.86v8.096zm-4.554-8.096c0-1.012-.506-1.518-1.518-1.518h-4.301c-1.012 0-1.518.506-1.518 1.518v8.096c0 1.012.506 1.518 1.518 1.518h4.301c1.012 0 1.518-.506 1.518-1.518v-8.096zm7.136-4.807h10.121c1.655 0 2.869.376 3.643 1.127.773.752 1.164 1.894 1.164 3.427 0 1.012-.217 1.836-.658 2.465-.441.636-.976 1.077-1.619 1.33 1.366.369 2.291 1.28 2.783 2.733.166.52.253 1.127.253 1.821 0 1.656-.391 2.87-1.164 3.643-.774.774-1.988 1.164-3.643 1.164h-10.88V92.76zm10.374 5.06c0-1.012-.507-1.518-1.519-1.518h-4.301v3.542h4.301c1.012 0 1.519-.506 1.519-1.518v-.506zm.759 7.084c0-1.012-.506-1.518-1.519-1.518h-5.06v3.542h5.06c1.013 0 1.519-.506 1.519-1.518v-.506zm10.039 5.566h-4.93l6.709-17.71h5.06l6.708 17.71h-4.937l-1.135-3.166h-6.325l-1.142 3.166h-.008zm2.277-6.448h4.049l-2.024-5.95-2.025 5.95zM502 68.182H186.102v2.892H502v-2.892z" fill="#fff"/></svg>