<svg width="485" height="185" fill="none" xmlns="http://www.w3.org/2000/svg"><g clip-path="url(#clip0_885_946)"><path d="M32.605 16.343h47.19c7.864 0 13.557 1.797 17.077 5.393 3.596 3.52 5.393 9.213 5.393 17.078v11.235c0 7.865-1.797 13.595-5.393 17.19-3.52 3.521-9.213 5.281-17.078 5.281H52.83v22.472H32.605v-78.65zm49.436 22.47c0-4.494-2.247-6.74-6.741-6.74H52.829V56.79h22.47c4.495 0 6.742-2.247 6.742-6.742V38.814zM107.88 78.7c18.276 1.124 30.636 1.685 37.077 1.685 1.723 0 3.071-.487 4.045-1.46 1.049-1.049 1.573-2.435 1.573-4.157V64.094h-29.887v-15.73h29.887v-9.55c0-4.495-2.247-6.742-6.741-6.742h-34.831v-15.73h39.325c7.865 0 13.558 1.798 17.078 5.394 3.595 3.52 5.393 9.213 5.393 17.078v35.954c0 7.34-1.723 12.733-5.168 16.179-3.446 3.445-8.839 5.168-16.179 5.168-11.236 0-25.093-.749-41.572-2.247V78.7zm93.044 17.415c-3.745 0-7.603-.374-11.573-1.123V79.824h10.112c2.172 0 3.67-.862 4.494-2.585a5.203 5.203 0 00.562-2.359c0-.899-.187-1.685-.562-2.36l-30.898-56.177h22.472l20.224 39.886 16.853-39.886h22.471l-28.65 61.795c-2.622 5.918-5.768 10.337-9.438 13.258-4.045 3.146-9.401 4.72-16.067 4.72zm44.135-17.977h20.225v16.854h-20.225V78.138zm30.363-61.796h47.189c7.865 0 13.558 1.798 17.079 5.394 3.595 3.52 5.393 9.213 5.393 17.078v11.235c0 7.865-1.798 13.595-5.393 17.19-3.521 3.521-9.214 5.281-17.079 5.281h-26.965v22.472h-20.224v-78.65zm49.437 22.472c0-4.495-2.248-6.742-6.742-6.742h-22.471v24.719h22.471c4.494 0 6.742-2.247 6.742-6.742V38.814zm119.093 28.089c0 7.865-1.798 13.595-5.394 17.19-3.52 3.52-9.213 5.28-17.078 5.28h-13.482v7.866h-20.224v-7.865H374.29c-7.865 0-13.595-1.76-17.191-5.28-3.52-3.596-5.28-9.326-5.28-17.191V44.43c0-7.864 1.76-13.557 5.28-17.078 3.596-3.595 9.326-5.393 17.191-5.393h13.483v-7.865h20.224v7.865h13.482c7.865 0 13.558 1.798 17.078 5.393 3.596 3.52 5.394 9.214 5.394 17.078v22.472zM423.726 44.43c0-4.494-2.247-6.74-6.741-6.74h-10.112v35.953h10.112c4.494 0 6.741-2.247 6.741-6.741V44.43zm-51.683 22.472c0 4.494 2.247 6.741 6.741 6.741h10.112V37.69h-10.112c-4.494 0-6.741 2.247-6.741 6.742v22.47z" fill="#fff"/><path d="M27.117 119.62h433.927" stroke="#fff" stroke-width="6.78" stroke-miterlimit="10"/><path d="M53.155 156.916h-6.102v-14.577l-8.136 14.577h-6.442v-23.73h6.102v14.577l8.137-14.577h6.44v23.73zm24.424-13.221l-4.746 8.475h-4.746l-4.746-8.475v13.221h-6.102v-23.73h6.44l6.78 12.543 6.781-12.543h6.441v23.73H77.58v-13.221zm28.998 13.221H87.762v-23.73h18.815v4.746H93.865v4.576h10v4.746h-10v4.916h12.712v4.746zm23.384 0h-6.102v-9.662h-8.476v9.662h-6.102v-23.73h6.102v9.322h8.476v-9.322h6.102v23.73zm24.763 0h-6.102v-14.577l-8.136 14.577h-6.441v-23.73h6.102v14.577l8.136-14.577h6.441v23.73zm20.349 0h-6.102v-23.73h18.476v4.746h-12.374v18.984zm10.361-5.085h6.102v5.085h-6.102v-5.085zm9.161-18.645h13.561c2.214 0 3.842.508 4.881 1.525 1.04.995 1.56 2.52 1.56 4.577 0 1.356-.294 2.463-.882 3.322-.587.836-1.311 1.424-2.169 1.763 1.83.497 3.073 1.717 3.729 3.661.226.701.339 1.514.339 2.441 0 2.215-.52 3.842-1.56 4.882-1.039 1.039-2.667 1.559-4.881 1.559h-14.578v-23.73zm14.917 16.272c0-1.356-.678-2.034-2.034-2.034h-6.78v4.746h6.78c1.356 0 2.034-.678 2.034-2.034v-.678zm-1.017-9.492c0-1.356-.678-2.034-2.034-2.034h-5.763v4.746h5.763c1.356 0 2.034-.678 2.034-2.034v-.678zm9.151 11.865h6.103v5.085h-6.103v-5.085zm40.004 5.085h-6.102v-18.984h-8.475v18.984h-6.102v-23.73h20.679v23.73zM268.853 152c-.113 1.628-.632 2.916-1.559 3.865-.927.927-2.068 1.39-3.424 1.39-1.356 0-2.633-.113-3.831-.339v-4.577h1.526c.429 0 .78-.146 1.051-.44.294-.294.452-.656.474-1.085l1.017-17.628h18.815v23.73h-6.102v-18.984h-7.119L268.853 152zm36.956 4.916h-18.815v-23.73h18.815v4.746h-12.713v4.576h10.001v4.746h-10.001v4.916h12.713v4.746zm16.434-23.73h6.78l-7.628 11.865 7.797 11.865h-6.78l-4.746-7.458-4.746 7.458h-6.78l7.797-11.865-7.627-11.865h6.746l4.61 7.458 4.577-7.458zm12.887 23.73h-6.61l8.983-23.73h6.78l8.984 23.73h-6.611l-1.525-4.238h-8.475l-1.526 4.238zm3.051-8.645h5.424l-2.712-7.966-2.712 7.966zm37.459 8.645h-6.102v-9.662h-8.475v9.662h-6.102v-23.73h6.102v9.322h8.475v-9.322h6.102v23.73zm19.339-17.289c0-1.356-.678-2.034-2.034-2.034h-5.763c-1.356 0-2.034.678-2.034 2.034v10.848c0 1.356.678 2.034 2.034 2.034h5.763c1.356 0 2.034-.678 2.034-2.034v-10.848zm6.102 10.848c0 2.373-.542 4.102-1.627 5.187-1.062 1.062-2.78 1.593-5.153 1.593h-8.475c-2.373 0-4.102-.531-5.187-1.593-1.062-1.085-1.593-2.814-1.593-5.187v-10.848c0-2.373.531-4.091 1.593-5.153 1.085-1.085 2.814-1.627 5.187-1.627h8.475c2.373 0 4.091.542 5.153 1.627 1.085 1.062 1.627 2.78 1.627 5.153v10.848zm3.406-17.289h13.561c2.214 0 3.842.508 4.881 1.525 1.04.995 1.56 2.52 1.56 4.577 0 1.356-.294 2.463-.882 3.322-.587.836-1.311 1.424-2.169 1.763 1.83.497 3.073 1.717 3.729 3.661.226.701.339 1.514.339 2.441 0 2.215-.52 3.842-1.56 4.882-1.039 1.039-2.667 1.559-4.881 1.559h-14.578v-23.73zm14.917 16.272c0-1.356-.678-2.034-2.034-2.034h-6.781v4.746h6.781c1.356 0 2.034-.678 2.034-2.034v-.678zm-1.017-9.492c0-1.356-.678-2.034-2.034-2.034h-5.764v4.746h5.764c1.356 0 2.034-.678 2.034-2.034v-.678zm14.406 16.95h-6.611l8.984-23.73h6.78l8.984 23.73h-6.611l-1.525-4.238h-8.476l-1.525 4.238zm3.051-8.645h5.424l-2.712-7.966-2.712 7.966z" fill="#fff"/></g><defs><clipPath id="clip0_885_946"><path fill="#fff" d="M0 0h484.293v185H0z"/></clipPath></defs></svg>