<svg width="163" height="62" viewBox="0 0 163 62" fill="none" xmlns="http://www.w3.org/2000/svg">
<g clip-path="url(#clip0_926_575)">
<path d="M12.978 5.62236H28.7929C31.4287 5.62236 33.3365 6.22483 34.5164 7.42977C35.7213 8.60961 36.3238 10.5174 36.3238 13.1532V16.9187C36.3238 19.5545 35.7213 21.4749 34.5164 22.6798C33.3365 23.8597 31.4287 24.4496 28.7929 24.4496H19.7558V31.9805H12.978V5.62236ZM29.546 13.1532C29.546 11.6471 28.7929 10.894 27.2867 10.894H19.7558V19.178H27.2867C28.7929 19.178 29.546 18.4249 29.546 16.9187V13.1532ZM38.205 26.5206C44.3301 26.8971 48.4721 27.0854 50.631 27.0854C51.2084 27.0854 51.6602 26.9222 51.9866 26.5959C52.338 26.2444 52.5137 25.78 52.5137 25.2027V21.6255H42.4976V16.3539H52.5137V13.1532C52.5137 11.6471 51.7606 10.894 50.2544 10.894H38.5816V5.62236H51.7606C54.3964 5.62236 56.3043 6.22483 57.4841 7.42977C58.689 8.60961 59.2915 10.5174 59.2915 13.1532V25.2027C59.2915 27.6628 58.7141 29.4702 57.5594 30.6249C56.4047 31.7796 54.5973 32.357 52.1372 32.357C48.3717 32.357 43.7277 32.106 38.205 31.6039V26.5206ZM69.3873 32.357C68.1322 32.357 66.8394 32.2315 65.5089 31.9805V26.8971H68.8978C69.6258 26.8971 70.1279 26.6084 70.404 26.0311C70.5295 25.78 70.5923 25.5165 70.5923 25.2403C70.5923 24.9391 70.5295 24.6755 70.404 24.4496L60.049 5.62236H67.5799L74.3577 18.9897L80.0059 5.62236H87.5368L77.9349 26.3323C77.0563 28.3154 76.0019 29.7965 74.7719 30.7755C73.4163 31.8299 71.6215 32.357 69.3873 32.357ZM84.1788 26.3323H90.9566V31.9805H84.1788V26.3323ZM94.3543 5.62236H110.169C112.805 5.62236 114.713 6.22483 115.893 7.42977C117.098 8.60961 117.7 10.5174 117.7 13.1532V16.9187C117.7 19.5545 117.098 21.4749 115.893 22.6798C114.713 23.8597 112.805 24.4496 110.169 24.4496H101.132V31.9805H94.3543V5.62236ZM110.922 13.1532C110.922 11.6471 110.169 10.894 108.663 10.894H101.132V19.178H108.663C110.169 19.178 110.922 18.4249 110.922 16.9187V13.1532ZM150.834 22.5669C150.834 25.2027 150.232 27.123 149.027 28.328C147.847 29.5078 145.939 30.0977 143.304 30.0977H138.785V32.7336H132.007V30.0977H127.489C124.853 30.0977 122.933 29.5078 121.728 28.328C120.548 27.123 119.958 25.2027 119.958 22.5669V15.036C119.958 12.4002 120.548 10.4923 121.728 9.31249C122.933 8.10755 124.853 7.50508 127.489 7.50508H132.007V4.86927H138.785V7.50508H143.304C145.939 7.50508 147.847 8.10755 149.027 9.31249C150.232 10.4923 150.834 12.4002 150.834 15.036V22.5669ZM144.057 15.036C144.057 13.5298 143.304 12.7767 141.797 12.7767H138.409V24.8261H141.797C143.304 24.8261 144.057 24.073 144.057 22.5669V15.036ZM126.736 22.5669C126.736 24.073 127.489 24.8261 128.995 24.8261H132.384V12.7767H128.995C127.489 12.7767 126.736 13.5298 126.736 15.036V22.5669Z" fill="#217AFF"/>
<path d="M8.71484 40.0884H154.139" stroke="#217AFF" stroke-width="2.27225" stroke-miterlimit="10"/>
<path d="M18.6667 53.1982H16.6217V48.3129L13.895 53.1982H11.7364V45.2454H13.7814V50.1307L16.5081 45.2454H18.6667V53.1982ZM26.8522 48.7674L25.2616 51.6077H23.671L22.0804 48.7674V53.1982H20.0354V45.2454H22.194L24.4663 49.449L26.7385 45.2454H28.8972V53.1982H26.8522V48.7674ZM36.5705 53.1982H30.265V45.2454H36.5705V46.8359H32.31V48.3697H35.6616V49.9603H32.31V51.6077H36.5705V53.1982ZM44.4071 53.1982H42.362V49.9603H39.5217V53.1982H37.4767V45.2454H39.5217V48.3697H42.362V45.2454H44.4071V53.1982ZM52.7061 53.1982H50.6611V48.3129L47.9344 53.1982H45.7757V45.2454H47.8208V50.1307L50.5475 45.2454H52.7061V53.1982ZM59.526 53.1982H57.4809V45.2454H63.6728V46.8359H59.526V53.1982ZM62.9983 51.4941H65.0433V53.1982H62.9983V51.4941ZM66.0685 45.2454H70.613C71.3552 45.2454 71.9006 45.4158 72.249 45.7566C72.5974 46.0899 72.7716 46.6011 72.7716 47.2904C72.7716 47.7448 72.6731 48.116 72.4762 48.4038C72.2793 48.684 72.0369 48.881 71.7491 48.9946C72.3626 49.1612 72.7792 49.5702 72.9988 50.2216C73.0746 50.4564 73.1124 50.7291 73.1124 51.0396C73.1124 51.7819 72.9382 52.3272 72.5898 52.6756C72.2414 53.024 71.6961 53.1982 70.9538 53.1982H66.0685V45.2454ZM71.0674 50.6988C71.0674 50.2443 70.8402 50.0171 70.3857 50.0171H68.1135V51.6077H70.3857C70.8402 51.6077 71.0674 51.3804 71.0674 50.926V50.6988ZM70.7266 47.5176C70.7266 47.0632 70.4993 46.8359 70.0449 46.8359H68.1135V48.4265H70.0449C70.4993 48.4265 70.7266 48.1993 70.7266 47.7448V47.5176ZM73.7937 51.4941H75.8387V53.1982H73.7937V51.4941ZM87.2004 53.1982H85.1554V46.8359H82.315V53.1982H80.27V45.2454H87.2004V53.1982ZM90.9549 51.5509C90.9171 52.0962 90.7428 52.5279 90.4323 52.846C90.1218 53.1566 89.7393 53.3119 89.2848 53.3119C88.8304 53.3119 88.4024 53.274 88.001 53.1982V51.6645H88.5123C88.6562 51.6645 88.7736 51.6152 88.8645 51.5168C88.9629 51.4183 89.0159 51.2971 89.0235 51.1532L89.3643 45.2454H95.6698V53.1982H93.6248V46.8359H91.239L90.9549 51.5509ZM103.34 53.1982H97.0345V45.2454H103.34V46.8359H99.0796V48.3697H102.431V49.9603H99.0796V51.6077H103.34V53.1982ZM108.848 45.2454H111.12L108.564 49.2218L111.177 53.1982H108.904L107.314 50.6988L105.723 53.1982H103.451L106.064 49.2218L103.508 45.2454H105.769L107.314 47.7448L108.848 45.2454ZM113.167 53.1982H110.951L113.962 45.2454H116.234L119.245 53.1982H117.029L116.518 51.7781H113.678L113.167 53.1982ZM114.189 50.3011H116.007L115.098 47.6312L114.189 50.3011ZM126.743 53.1982H124.698V49.9603H121.858V53.1982H119.813V45.2454H121.858V48.3697H124.698V45.2454H126.743V53.1982ZM133.224 47.404C133.224 46.9496 132.997 46.7223 132.542 46.7223H130.611C130.157 46.7223 129.929 46.9496 129.929 47.404V51.0396C129.929 51.4941 130.157 51.7213 130.611 51.7213H132.542C132.997 51.7213 133.224 51.4941 133.224 51.0396V47.404ZM135.269 51.0396C135.269 51.8349 135.087 52.4143 134.724 52.7779C134.368 53.1339 133.792 53.3119 132.997 53.3119H130.157C129.361 53.3119 128.782 53.1339 128.418 52.7779C128.062 52.4143 127.884 51.8349 127.884 51.0396V47.404C127.884 46.6087 128.062 46.0331 128.418 45.6771C128.782 45.3135 129.361 45.1318 130.157 45.1318H132.997C133.792 45.1318 134.368 45.3135 134.724 45.6771C135.087 46.0331 135.269 46.6087 135.269 47.404V51.0396ZM136.411 45.2454H140.955C141.697 45.2454 142.243 45.4158 142.591 45.7566C142.94 46.0899 143.114 46.6011 143.114 47.2904C143.114 47.7448 143.015 48.116 142.818 48.4038C142.621 48.684 142.379 48.881 142.091 48.9946C142.705 49.1612 143.121 49.5702 143.341 50.2216C143.417 50.4564 143.455 50.7291 143.455 51.0396C143.455 51.7819 143.28 52.3272 142.932 52.6756C142.584 53.024 142.038 53.1982 141.296 53.1982H136.411V45.2454ZM141.41 50.6988C141.41 50.2443 141.182 50.0171 140.728 50.0171H138.456V51.6077H140.728C141.182 51.6077 141.41 51.3804 141.41 50.926V50.6988ZM141.069 47.5176C141.069 47.0632 140.841 46.8359 140.387 46.8359H138.456V48.4265H140.387C140.841 48.4265 141.069 48.1993 141.069 47.7448V47.5176ZM145.897 53.1982H143.681L146.692 45.2454H148.964L151.975 53.1982H149.76L149.248 51.7781H146.408L145.897 53.1982ZM146.919 50.3011H148.737L147.828 47.6312L146.919 50.3011Z" fill="#217AFF"/>
</g>
<defs>
<clipPath id="clip0_926_575">
<rect width="162.304" height="62" fill="white"/>
</clipPath>
</defs>
</svg>