<svg width="1920" height="151" viewBox="0 0 1920 151" fill="none" xmlns="http://www.w3.org/2000/svg">
<rect opacity="0.3" x="540" y="57" width="1380" height="36" fill="#217AFF"/>
<rect opacity="0.3" y="57" width="146" height="36" fill="#217AFF"/>
<g clip-path="url(#clip0_1001_612)">
<path d="M176.616 13.4517H215.133C221.552 13.4517 226.198 14.919 229.072 17.8537C232.007 20.7271 233.474 25.3736 233.474 31.7931V40.9638C233.474 47.3832 232.007 52.0603 229.072 54.9949C226.198 57.8684 221.552 59.3051 215.133 59.3051H193.123V77.6465H176.616V13.4517ZM216.967 31.7931C216.967 28.1248 215.133 26.2907 211.464 26.2907H193.123V46.4662H211.464C215.133 46.4662 216.967 44.632 216.967 40.9638V31.7931ZM238.056 64.349C252.973 65.2661 263.061 65.7246 268.319 65.7246C269.725 65.7246 270.826 65.3272 271.62 64.5324C272.476 63.6765 272.904 62.5454 272.904 61.1393V52.4271H248.51V39.5882H272.904V31.7931C272.904 28.1248 271.07 26.2907 267.402 26.2907H238.973V13.4517H271.07C277.49 13.4517 282.136 14.919 285.01 17.8537C287.944 20.7271 289.411 25.3736 289.411 31.7931V61.1393C289.411 67.1308 288.005 71.5327 285.193 74.345C282.381 77.1574 277.979 78.5636 271.987 78.5636C262.816 78.5636 251.506 77.9522 238.056 76.7294V64.349ZM314 78.5636C310.943 78.5636 307.794 78.2579 304.554 77.6465V65.2661H312.807C314.58 65.2661 315.803 64.563 316.476 63.1568C316.781 62.5454 316.934 61.9035 316.934 61.231C316.934 60.4973 316.781 59.8554 316.476 59.3051L291.256 13.4517H309.598L326.105 46.0076L339.861 13.4517H358.202L334.817 63.8905C332.677 68.7204 330.109 72.3275 327.114 74.7119C323.812 77.2797 319.441 78.5636 314 78.5636ZM350.024 63.8905H366.531V77.6465H350.024V63.8905ZM374.806 13.4517H413.323C419.743 13.4517 424.389 14.919 427.263 17.8537C430.197 20.7271 431.664 25.3736 431.664 31.7931V40.9638C431.664 47.3832 430.197 52.0603 427.263 54.9949C424.389 57.8684 419.743 59.3051 413.323 59.3051H391.313V77.6465H374.806V13.4517ZM415.157 31.7931C415.157 28.1248 413.323 26.2907 409.655 26.2907H391.313V46.4662H409.655C413.323 46.4662 415.157 44.632 415.157 40.9638V31.7931ZM512.363 54.7198C512.363 61.1393 510.896 65.8163 507.961 68.7509C505.087 71.6244 500.441 73.0611 494.021 73.0611H483.017V79.4806H466.509V73.0611H455.505C449.085 73.0611 444.408 71.6244 441.474 68.7509C438.6 65.8163 437.163 61.1393 437.163 54.7198V36.3784C437.163 29.959 438.6 25.3125 441.474 22.439C444.408 19.5044 449.085 18.0371 455.505 18.0371H466.509V11.6176H483.017V18.0371H494.021C500.441 18.0371 505.087 19.5044 507.961 22.439C510.896 25.3125 512.363 29.959 512.363 36.3784V54.7198ZM495.856 36.3784C495.856 32.7102 494.021 30.876 490.353 30.876H482.1V60.2222H490.353C494.021 60.2222 495.856 58.3881 495.856 54.7198V36.3784ZM453.671 54.7198C453.671 58.3881 455.505 60.2222 459.173 60.2222H467.427V30.876H459.173C455.505 30.876 453.671 32.7102 453.671 36.3784V54.7198Z" fill="white"/>
<path d="M166.227 97.6348H520.405" stroke="white" stroke-width="5.53403" stroke-miterlimit="10"/>
<path d="M190.469 127.774H185.488V115.876L178.847 127.774H173.59V108.405H178.571V120.303L185.211 108.405H190.469V127.774ZM210.404 116.983L206.53 123.9H202.657L198.783 116.983V127.774H193.802V108.405H199.059L204.593 118.643L210.127 108.405H215.385V127.774H210.404V116.983ZM234.073 127.774H218.716V108.405H234.073V112.279H223.697V116.014H231.859V119.888H223.697V123.9H234.073V127.774ZM253.159 127.774H248.178V119.888H241.261V127.774H236.28V108.405H241.261V116.014H248.178V108.405H253.159V127.774ZM273.371 127.774H268.39V115.876L261.75 127.774H256.492V108.405H261.473V120.303L268.114 108.405H273.371V127.774ZM289.981 127.774H285V108.405H300.08V112.279H289.981V127.774ZM298.437 123.623H303.418V127.774H298.437V123.623ZM305.915 108.405H316.983C318.791 108.405 320.119 108.82 320.967 109.65C321.816 110.462 322.24 111.707 322.24 113.385C322.24 114.492 322 115.396 321.521 116.097C321.041 116.78 320.451 117.259 319.75 117.536C321.244 117.942 322.259 118.938 322.794 120.524C322.978 121.096 323.07 121.76 323.07 122.517C323.07 124.324 322.646 125.653 321.798 126.501C320.949 127.35 319.621 127.774 317.813 127.774H305.915V108.405ZM318.09 121.686C318.09 120.58 317.536 120.026 316.429 120.026H310.895V123.9H316.429C317.536 123.9 318.09 123.347 318.09 122.24V121.686ZM317.26 113.939C317.26 112.832 316.706 112.279 315.599 112.279H310.895V116.152H315.599C316.706 116.152 317.26 115.599 317.26 114.492V113.939ZM324.729 123.623H329.71V127.774H324.729V123.623ZM357.381 127.774H352.401V112.279H345.483V127.774H340.503V108.405H357.381V127.774ZM366.525 123.762C366.433 125.09 366.009 126.141 365.253 126.916C364.496 127.672 363.565 128.051 362.458 128.051C361.351 128.051 360.309 127.958 359.331 127.774V124.038H360.576C360.927 124.038 361.213 123.919 361.434 123.679C361.674 123.439 361.803 123.144 361.822 122.793L362.652 108.405H378.009V127.774H373.028V112.279H367.217L366.525 123.762ZM396.689 127.774H381.332V108.405H396.689V112.279H386.313V116.014H394.476V119.888H386.313V123.9H396.689V127.774ZM410.103 108.405H415.637L409.411 118.089L415.775 127.774H410.241L406.367 121.686L402.493 127.774H396.959L403.324 118.089L397.098 108.405H402.604L406.367 114.492L410.103 108.405ZM420.622 127.774H415.226L422.559 108.405H428.093L435.425 127.774H430.03L428.784 124.315H421.867L420.622 127.774ZM423.112 120.718H427.539L425.326 114.216L423.112 120.718ZM453.686 127.774H448.706V119.888H441.788V127.774H436.808V108.405H441.788V116.014H448.706V108.405H453.686V127.774ZM469.471 113.662C469.471 112.555 468.918 112.002 467.811 112.002H463.107C462 112.002 461.447 112.555 461.447 113.662V122.517C461.447 123.623 462 124.177 463.107 124.177H467.811C468.918 124.177 469.471 123.623 469.471 122.517V113.662ZM474.452 122.517C474.452 124.454 474.009 125.865 473.124 126.75C472.257 127.617 470.855 128.051 468.918 128.051H462C460.064 128.051 458.652 127.617 457.767 126.75C456.9 125.865 456.466 124.454 456.466 122.517V113.662C456.466 111.725 456.9 110.323 457.767 109.456C458.652 108.571 460.064 108.128 462 108.128H468.918C470.855 108.128 472.257 108.571 473.124 109.456C474.009 110.323 474.452 111.725 474.452 113.662V122.517ZM477.232 108.405H488.3C490.108 108.405 491.436 108.82 492.285 109.65C493.133 110.462 493.557 111.707 493.557 113.385C493.557 114.492 493.318 115.396 492.838 116.097C492.358 116.78 491.768 117.259 491.067 117.536C492.561 117.942 493.576 118.938 494.111 120.524C494.295 121.096 494.387 121.76 494.387 122.517C494.387 124.324 493.963 125.653 493.115 126.501C492.266 127.35 490.938 127.774 489.13 127.774H477.232V108.405ZM489.407 121.686C489.407 120.58 488.853 120.026 487.747 120.026H482.213V123.9H487.747C488.853 123.9 489.407 123.347 489.407 122.24V121.686ZM488.577 113.939C488.577 112.832 488.023 112.279 486.917 112.279H482.213V116.152H486.917C488.023 116.152 488.577 115.599 488.577 114.492V113.939ZM500.336 127.774H494.94L502.272 108.405H507.806L515.139 127.774H509.743L508.498 124.315H501.581L500.336 127.774ZM502.826 120.718H507.253L505.039 114.216L502.826 120.718Z" fill="white"/>
</g>
<defs>
<clipPath id="clip0_1001_612">
<rect width="395.288" height="151" fill="white" transform="translate(145)"/>
</clipPath>
</defs>
</svg>

