<svg width="1920" height="117" viewBox="0 0 1920 117" fill="none" xmlns="http://www.w3.org/2000/svg">
<rect opacity="0.3" x="540" y="40" width="1380" height="36" fill="#217AFF"/>
<rect opacity="0.3" y="40" width="146" height="36" fill="#217AFF"/>
<path d="M186.582 1.67676H221.8C227.67 1.67676 231.933 3.00443 234.588 5.65979C237.243 8.31515 238.571 12.5777 238.571 18.4474V26.8328C238.571 32.7025 237.243 36.965 234.588 39.6204C231.933 42.2758 227.67 43.6034 221.8 43.6034H201.676V60.3741H186.582V1.67676ZM223.449 18.4474C223.449 15.074 221.762 13.3873 218.388 13.3873H201.676V31.864H218.446C221.82 31.864 223.506 30.1773 223.506 26.8039L223.449 18.4474Z" fill="white"/>
<path d="M242.765 48.2154C256.408 49.0539 265.632 49.4732 270.436 49.4732C270.998 49.5166 271.563 49.4379 272.091 49.2425C272.619 49.0472 273.099 48.7398 273.497 48.3415C273.896 47.9431 274.203 47.4633 274.399 46.9349C274.594 46.4066 274.673 45.8422 274.629 45.2805V37.3289H252.328V25.575H274.629V18.4474C274.629 15.074 272.942 13.3873 269.569 13.3873H243.546V1.67676H272.894C278.764 1.67676 283.027 3.00443 285.682 5.65979C288.337 8.31515 289.665 12.5777 289.665 18.4474V45.2805C289.665 50.7599 288.381 54.7839 285.812 57.3525C283.243 59.9211 279.217 61.2078 273.733 61.2126C265.347 61.2126 255.006 60.6536 242.707 59.5356L242.765 48.2154Z" fill="white"/>
<path d="M312.193 61.2127C309.281 61.2038 306.377 60.9231 303.518 60.3741V49.0539H311.065C311.754 49.1138 312.445 48.9609 313.045 48.6158C313.645 48.2707 314.124 47.75 314.419 47.1238C314.7 46.5658 314.844 45.9487 314.838 45.3239C314.85 44.7238 314.706 44.1309 314.419 43.6034L291.359 1.67676H308.13L323.224 31.4447L335.838 1.67676H352.608L331.226 47.7961C329.269 52.2297 326.918 55.5285 324.171 57.6923C321.159 60.044 317.166 61.2175 312.193 61.2127Z" fill="white"/>
<path d="M353.453 47.7964H368.547V60.3744H353.453V47.7964Z" fill="white"/>
<path d="M376.086 1.67676H411.304C417.174 1.67676 421.437 3.00443 424.092 5.65979C426.747 8.31515 428.075 12.5777 428.075 18.4474V26.8328C428.075 32.7025 426.747 36.965 424.092 39.6204C421.437 42.2758 417.174 43.6034 411.304 43.6034H391.18V60.3741H376.086V1.67676ZM412.953 18.4474C412.953 15.074 411.266 13.3873 407.892 13.3873H391.18V31.864H407.95C411.324 31.864 413.01 30.1773 413.01 26.8039L412.953 18.4474Z" fill="white"/>
<path d="M501.865 39.4111C501.865 45.2808 500.538 49.5434 497.882 52.1987C495.227 54.8541 490.964 56.1818 485.095 56.1818H475.032V62.0515H459.939V56.1818H449.876C444.006 56.1818 439.744 54.8541 437.088 52.1987C434.433 49.5434 433.105 45.2808 433.105 39.4111V22.6404C433.105 16.7707 434.433 12.5081 437.088 9.85277C439.744 7.19741 444.006 5.86973 449.876 5.86973H459.939V0H475.032V5.86973H485.095C490.964 5.86973 495.227 7.19741 497.882 9.85277C500.538 12.5081 501.865 16.7707 501.865 22.6404V39.4111ZM448.199 39.4111C448.199 42.7845 449.886 44.4712 453.259 44.4712H460.792V17.5803H453.23C449.857 17.5803 448.17 19.267 448.17 22.6404L448.199 39.4111ZM486.772 22.6404C486.772 19.267 485.085 17.5803 481.711 17.5803H474.194V44.4423H481.755C485.128 44.4423 486.815 42.7556 486.815 39.3822L486.772 22.6404Z" fill="white"/>
<path d="M501.997 68.1816H186.102V71.0731H501.997V68.1816Z" fill="white"/>
<path d="M186.043 84.0855H191.508C192.225 84.0233 192.939 84.2438 193.496 84.7C193.955 85.2553 194.176 85.9701 194.11 86.6879V87.989C194.144 88.3434 194.107 88.7009 194.001 89.0408C193.896 89.3808 193.724 89.6965 193.496 89.9697C192.941 90.4313 192.227 90.6548 191.508 90.5914H188.385V93.1937H186.043V84.0855ZM191.768 86.6879C191.777 86.5831 191.763 86.4777 191.727 86.379C191.69 86.2803 191.633 86.1907 191.559 86.1164C191.485 86.042 191.395 85.9848 191.296 85.9487C191.198 85.9126 191.092 85.8984 190.987 85.9072H188.385V88.7987H190.987C191.092 88.8074 191.198 88.7933 191.296 88.7571C191.395 88.721 191.485 88.6638 191.559 88.5895C191.633 88.5151 191.69 88.4255 191.727 88.3268C191.763 88.2281 191.777 88.1227 191.768 88.018V86.6879Z" fill="white"/>
<path d="M203.518 90.7203C203.582 91.0761 203.559 91.4422 203.451 91.7872C203.343 92.1323 203.153 92.446 202.897 92.7017C202.642 92.9574 202.328 93.1474 201.983 93.2555C201.638 93.3636 201.272 93.3866 200.916 93.3226H197.663C197.307 93.3884 196.94 93.3666 196.594 93.2591C196.248 93.1516 195.934 92.9617 195.678 92.7056C195.422 92.4495 195.232 92.1349 195.124 91.7891C195.017 91.4432 194.995 91.0764 195.061 90.7203V86.5565C194.996 85.8389 195.217 85.1247 195.675 84.5686C196.232 84.1124 196.946 83.892 197.663 83.9542H200.916C201.272 83.8884 201.639 83.9101 201.985 84.0176C202.331 84.1251 202.645 84.3151 202.901 84.5712C203.157 84.8273 203.347 85.1418 203.455 85.4877C203.562 85.8336 203.584 86.2004 203.518 86.5565V90.7203ZM201.176 86.5565C201.185 86.4518 201.171 86.3464 201.135 86.2477C201.098 86.149 201.041 86.0593 200.967 85.985C200.893 85.9107 200.803 85.8535 200.704 85.8173C200.606 85.7812 200.5 85.767 200.395 85.7758H198.183C198.079 85.767 197.973 85.7812 197.875 85.8173C197.776 85.8535 197.686 85.9107 197.612 85.985C197.538 86.0593 197.48 86.149 197.444 86.2477C197.408 86.3464 197.394 86.4518 197.403 86.5565V90.7203C197.394 90.825 197.408 90.9304 197.444 91.0291C197.48 91.1278 197.538 91.2174 197.612 91.2918C197.686 91.3661 197.776 91.4233 197.875 91.4594C197.973 91.4956 198.079 91.5097 198.183 91.501H200.395C200.5 91.5097 200.606 91.4956 200.704 91.4594C200.803 91.4233 200.893 91.3661 200.967 91.2918C201.041 91.2174 201.098 91.1278 201.135 91.0291C201.171 90.9304 201.185 90.825 201.176 90.7203V86.5565Z" fill="white"/>
<path d="M211.89 93.0636C209.962 93.2371 208.358 93.3238 207.076 93.3238C206.739 93.3754 206.395 93.3471 206.072 93.2411C205.748 93.1351 205.454 92.9544 205.214 92.7137C204.973 92.473 204.792 92.179 204.686 91.8555C204.58 91.532 204.552 91.1881 204.604 90.8516V86.6879C204.538 86.3317 204.56 85.9649 204.667 85.6191C204.775 85.2732 204.965 84.9587 205.221 84.7026C205.477 84.4465 205.791 84.2565 206.137 84.149C206.483 84.0415 206.85 84.0197 207.206 84.0855H211.89V85.9072H207.726C207.622 85.8984 207.516 85.9126 207.418 85.9487C207.319 85.9848 207.229 86.042 207.155 86.1164C207.081 86.1907 207.023 86.2803 206.987 86.379C206.951 86.4777 206.937 86.5831 206.946 86.6879V90.8516C206.942 90.9387 206.955 91.0257 206.985 91.1076C207.014 91.1895 207.06 91.2646 207.119 91.3287C207.178 91.3866 207.248 91.4319 207.325 91.4617C207.402 91.4915 207.485 91.5053 207.567 91.5022H208.167H208.847H209.57L210.495 91.4516L211.941 91.3576L211.89 93.0636Z" fill="white"/>
<path d="M219.988 93.0636C218.06 93.2371 216.455 93.3238 215.173 93.3238C214.837 93.3754 214.493 93.3471 214.17 93.2411C213.846 93.1351 213.552 92.9544 213.311 92.7137C213.071 92.473 212.89 92.179 212.784 91.8555C212.678 91.532 212.65 91.1881 212.701 90.8516V86.6879C212.635 86.3317 212.657 85.9649 212.765 85.6191C212.872 85.2732 213.062 84.9587 213.318 84.7026C213.574 84.4465 213.889 84.2565 214.235 84.149C214.581 84.0415 214.947 84.0197 215.304 84.0855H219.988V85.9072H215.824C215.717 85.8938 215.608 85.9046 215.506 85.9386C215.404 85.9727 215.31 86.0293 215.233 86.1041C215.155 86.179 215.095 86.2702 215.057 86.3712C215.02 86.4723 215.005 86.5804 215.014 86.6879V90.8516C215.01 90.9394 215.023 91.0271 215.054 91.1093C215.085 91.1915 215.133 91.2662 215.195 91.3287C215.254 91.3866 215.324 91.4319 215.401 91.4617C215.478 91.4915 215.561 91.5053 215.643 91.5022H216.243H216.916H217.638L218.564 91.4516L219.973 91.3576L219.988 93.0636Z" fill="white"/>
<path d="M229.007 93.1927H226.665V87.5976L223.543 93.1927H221.07V84.0845H223.412V89.6795L226.535 84.0845H229.007V93.1927Z" fill="white"/>
<path d="M236.204 93.1937V87.5987L233.089 93.1937H230.609V84.0855H232.951V89.6805L236.074 84.0855H238.547V93.1937H236.204ZM233.862 83.4349C233.633 83.4675 233.398 83.4462 233.178 83.3727C232.958 83.2992 232.758 83.1755 232.594 83.0114C232.43 82.8474 232.307 82.6474 232.233 82.4273C232.16 82.2073 232.138 81.9731 232.171 81.7434V81.353H233.862V81.6783C233.861 81.7384 233.872 81.798 233.895 81.8537C233.918 81.9094 233.951 81.96 233.994 82.0025C234.036 82.045 234.087 82.0785 234.142 82.101C234.198 82.1236 234.258 82.1347 234.318 82.1337H234.708C234.768 82.1347 234.828 82.1236 234.883 82.101C234.939 82.0785 234.99 82.045 235.032 82.0025C235.075 81.96 235.108 81.9094 235.131 81.8537C235.153 81.798 235.164 81.7384 235.163 81.6783V81.353H236.855V81.7434C236.888 81.9731 236.866 82.2073 236.793 82.4273C236.719 82.6474 236.596 82.8474 236.432 83.0114C236.267 83.1755 236.068 83.2992 235.847 83.3727C235.627 83.4462 235.393 83.4675 235.163 83.4349H233.862Z" fill="white"/>
<path d="M247.181 93.0631C245.253 93.2365 243.648 93.3233 242.367 93.3233C241.685 93.3801 241.009 93.1643 240.487 92.7233C240.27 92.4659 240.105 92.1678 240.003 91.8465C239.902 91.5251 239.865 91.1868 239.894 90.8511V86.6873C239.828 85.9695 240.049 85.2547 240.509 84.6994C241.064 84.2451 241.774 84.0247 242.489 84.085H247.174V85.9066H243.01C242.905 85.8978 242.8 85.912 242.701 85.9481C242.602 85.9843 242.513 86.0415 242.438 86.1158C242.364 86.1901 242.307 86.2798 242.271 86.3785C242.235 86.4772 242.22 86.5826 242.229 86.6873V90.8511C242.225 90.9381 242.238 91.0251 242.268 91.107C242.298 91.1889 242.344 91.2641 242.403 91.3282C242.462 91.3861 242.532 91.4313 242.609 91.4611C242.686 91.491 242.768 91.5047 242.851 91.5016H243.451H244.123H244.846L245.764 91.4511L247.21 91.3571L247.181 93.0631Z" fill="white"/>
<path d="M254.895 83.9546C255.288 83.9729 255.679 84.0163 256.066 84.0847V85.8413H255.546C255.417 85.8424 255.293 85.8855 255.191 85.9642C255.097 86.0368 255.018 86.1278 254.96 86.2317L253.724 88.5738L256.261 93.193H253.789L251.772 89.4846H250.601V93.193H248.273V84.0847H250.616V87.6991H251.787L253.088 85.2269C253.265 84.884 253.511 84.5814 253.811 84.3378C254.116 84.0873 254.5 83.9518 254.895 83.9546Z" fill="white"/>
<path d="M265.011 93.1927H262.669V87.5976L259.546 93.1927H257.074V84.0845H259.416V89.6795L262.539 84.0845H265.011V93.1927Z" fill="white"/>
<path d="M272.216 93.1937V87.5987L269.093 93.1937H266.621V84.0855H268.963V89.6805L272.086 84.0855H274.558V93.1937H272.216ZM269.874 83.4349C269.644 83.4675 269.41 83.4462 269.19 83.3727C268.97 83.2992 268.77 83.1755 268.606 83.0114C268.442 82.8474 268.318 82.6474 268.245 82.4273C268.171 82.2073 268.15 81.9731 268.182 81.7434V81.353H269.874V81.6783C269.873 81.7384 269.884 81.798 269.907 81.8537C269.929 81.9094 269.963 81.96 270.005 82.0025C270.048 82.045 270.098 82.0785 270.154 82.101C270.21 82.1236 270.269 82.1347 270.329 82.1337H270.72C270.78 82.1347 270.84 82.1236 270.895 82.101C270.951 82.0785 271.002 82.045 271.044 82.0025C271.086 81.96 271.12 81.9094 271.143 81.8537C271.165 81.798 271.176 81.7384 271.175 81.6783V81.353H272.852V81.7434C272.885 81.9731 272.864 82.2073 272.79 82.4273C272.717 82.6474 272.593 82.8474 272.429 83.0114C272.265 83.1755 272.065 83.2992 271.845 83.3727C271.625 83.4462 271.39 83.4675 271.161 83.4349H269.874Z" fill="white"/>
<path d="M279.57 91.3143C281.686 91.4444 283.117 91.5094 283.864 91.5094C283.951 91.5144 284.039 91.5016 284.121 91.4717C284.203 91.4419 284.278 91.3957 284.341 91.336C284.4 91.2719 284.446 91.1967 284.476 91.1148C284.506 91.0329 284.519 90.9459 284.515 90.8589V89.6227H281.059V87.8011H284.515V86.6879C284.524 86.5831 284.509 86.4777 284.473 86.379C284.437 86.2803 284.38 86.1907 284.306 86.1164C284.231 86.042 284.142 85.9848 284.043 85.9487C283.944 85.9126 283.839 85.8984 283.734 85.9072H279.7V84.0855H284.255C284.972 84.0233 285.685 84.2438 286.242 84.7C286.702 85.2553 286.923 85.9701 286.857 86.6879V90.8516C286.887 91.1874 286.85 91.5257 286.748 91.8471C286.646 92.1684 286.482 92.4664 286.264 92.7239C285.742 93.1649 285.066 93.3807 284.385 93.3239C283.083 93.3239 281.479 93.2371 279.57 93.0636V91.3143Z" fill="white"/>
<path d="M294.841 83.9545C295.224 83.974 295.605 84.0174 295.983 84.0846V85.8412H295.462C295.334 85.8422 295.21 85.8854 295.108 85.9641C295.014 86.0367 294.935 86.1277 294.877 86.2315L293.641 88.5737L296.178 93.1928H293.706L291.689 89.4845H290.518V93.1928H288.176V84.0846H290.518V87.699H291.689L292.99 85.2267C293.167 84.8839 293.414 84.5812 293.713 84.3376C294.03 84.0774 294.431 83.9413 294.841 83.9545Z" fill="white"/>
<path d="M305.214 90.7211C305.279 91.0773 305.258 91.4441 305.15 91.7899C305.043 92.1358 304.853 92.4503 304.597 92.7064C304.34 92.9625 304.026 93.1525 303.68 93.26C303.334 93.3675 302.967 93.3893 302.611 93.3235H299.358C299.002 93.3875 298.636 93.3645 298.291 93.2563C297.946 93.1482 297.633 92.9582 297.377 92.7025C297.121 92.4469 296.931 92.1331 296.823 91.7881C296.715 91.443 296.692 91.077 296.756 90.7211V86.5574C296.69 86.2012 296.712 85.8344 296.819 85.4885C296.927 85.1427 297.117 84.8282 297.373 84.5721C297.629 84.316 297.944 84.126 298.289 84.0185C298.635 83.911 299.002 83.8892 299.358 83.955H302.611C302.968 83.8874 303.335 83.9079 303.682 84.0148C304.029 84.1216 304.344 84.3116 304.6 84.5681C304.857 84.8247 305.047 85.14 305.154 85.4867C305.261 85.8334 305.281 86.2009 305.214 86.5574V90.7211ZM302.871 86.5574C302.88 86.4526 302.866 86.3472 302.83 86.2485C302.794 86.1498 302.737 86.0602 302.662 85.9858C302.588 85.9115 302.498 85.8543 302.4 85.8182C302.301 85.782 302.195 85.7679 302.091 85.7767H299.879C299.774 85.7679 299.669 85.782 299.57 85.8182C299.471 85.8543 299.382 85.9115 299.307 85.9858C299.233 86.0602 299.176 86.1498 299.14 86.2485C299.103 86.3472 299.089 86.4526 299.098 86.5574V90.7211C299.089 90.8258 299.103 90.9312 299.14 91.03C299.176 91.1287 299.233 91.2183 299.307 91.2926C299.382 91.3669 299.471 91.4242 299.57 91.4603C299.669 91.4964 299.774 91.5106 299.879 91.5018H302.091C302.195 91.5106 302.301 91.4964 302.4 91.4603C302.498 91.4242 302.588 91.3669 302.662 91.2926C302.737 91.2183 302.794 91.1287 302.83 91.03C302.866 90.9312 302.88 90.8258 302.871 90.7211V86.5574Z" fill="white"/>
<path d="M314.495 93.1927H312.153V89.4843H308.9V93.1927H306.551V84.0845H308.9V87.6988H312.153V84.0845H314.495V93.1927Z" fill="white"/>
<path d="M324.297 90.7211C324.361 91.077 324.338 91.443 324.23 91.7881C324.122 92.1331 323.932 92.4469 323.676 92.7025C323.421 92.9582 323.107 93.1482 322.762 93.2563C322.417 93.3645 322.051 93.3875 321.695 93.3235H318.442C318.086 93.3893 317.719 93.3675 317.373 93.26C317.027 93.1525 316.713 92.9625 316.457 92.7064C316.201 92.4503 316.011 92.1358 315.903 91.7899C315.796 91.4441 315.774 91.0773 315.84 90.7211V86.5574C315.772 86.2009 315.793 85.8334 315.9 85.4867C316.006 85.14 316.196 84.8247 316.453 84.5681C316.709 84.3116 317.025 84.1216 317.371 84.0148C317.718 83.9079 318.086 83.8874 318.442 83.955H321.695C322.051 83.8892 322.418 83.911 322.764 84.0185C323.11 84.126 323.424 84.316 323.68 84.5721C323.936 84.8282 324.126 85.1427 324.234 85.4885C324.341 85.8344 324.363 86.2012 324.297 86.5574V90.7211ZM321.955 86.5574C321.964 86.4526 321.95 86.3472 321.914 86.2485C321.878 86.1498 321.82 86.0602 321.746 85.9858C321.672 85.9115 321.582 85.8543 321.483 85.8182C321.385 85.782 321.279 85.7679 321.175 85.7767H318.963C318.858 85.7679 318.752 85.782 318.654 85.8182C318.555 85.8543 318.465 85.9115 318.391 85.9858C318.317 86.0602 318.26 86.1498 318.223 86.2485C318.187 86.3472 318.173 86.4526 318.182 86.5574V90.7211C318.173 90.8258 318.187 90.9312 318.223 91.03C318.26 91.1287 318.317 91.2183 318.391 91.2926C318.465 91.3669 318.555 91.4242 318.654 91.4603C318.752 91.4964 318.858 91.5106 318.963 91.5018H321.175C321.279 91.5106 321.385 91.4964 321.483 91.4603C321.582 91.4242 321.672 91.3669 321.746 91.2926C321.82 91.2183 321.878 91.1287 321.914 91.03C321.95 90.9312 321.964 90.8258 321.955 90.7211V86.5574Z" fill="white"/>
<path d="M333.435 88.1181L331.613 91.371H329.791L327.97 88.1181V93.1782H325.613V84.0845H328.086L330.688 88.8988L333.29 84.0845H335.762V93.1927H333.42L333.435 88.1181Z" fill="white"/>
<path d="M345.319 93.1927H342.962V87.5976L339.839 93.1927H337.367V84.0845H339.709V89.6795L342.832 84.0845H345.304L345.319 93.1927Z" fill="white"/>
<path d="M352.192 90.2C351.151 90.2867 350.168 90.3301 349.242 90.3301C348.529 90.3983 347.817 90.1828 347.262 89.7301C347.043 89.4732 346.877 89.1755 346.774 88.8541C346.671 88.5327 346.633 88.1941 346.662 87.8579V84.0845H349.004V87.8579C348.996 87.9453 349.008 88.0333 349.037 88.1157C349.067 88.1982 349.115 88.273 349.177 88.3351C349.239 88.3971 349.314 88.4448 349.396 88.4747C349.479 88.5047 349.567 88.5162 349.654 88.5085C350.363 88.5085 351.209 88.4651 352.192 88.3783V84.0845H354.534V93.1927H352.192V90.2Z" fill="white"/>
<path d="M363.35 93.1927H356.121V84.0845H363.35V85.9061H358.47V87.6988H362.302V89.5205H358.47V91.4072H363.35V93.1927Z" fill="white"/>
<path d="M371.458 93.0636C369.531 93.2371 367.926 93.3239 366.644 93.3239C366.308 93.3526 365.969 93.3144 365.648 93.2114C365.326 93.1084 365.029 92.9427 364.772 92.7239C364.551 92.4678 364.385 92.1702 364.282 91.8486C364.179 91.527 364.141 91.188 364.172 90.8516V86.6879C364.106 85.9701 364.326 85.2553 364.786 84.7C365.343 84.2438 366.057 84.0233 366.774 84.0855H371.458V85.9072H367.294C367.19 85.8984 367.084 85.9126 366.986 85.9487C366.887 85.9848 366.797 86.042 366.723 86.1164C366.649 86.1907 366.591 86.2803 366.555 86.379C366.519 86.4777 366.505 86.5831 366.514 86.6879V90.8516C366.51 90.9387 366.523 91.0257 366.553 91.1076C366.582 91.1895 366.628 91.2647 366.687 91.3287C366.746 91.3866 366.816 91.4319 366.893 91.4617C366.971 91.4915 367.053 91.5053 367.135 91.5022H367.735H368.415H369.138L370.056 91.4516L371.502 91.3576L371.458 93.0636Z" fill="white"/>
<path d="M379.172 83.9546C379.565 83.9729 379.956 84.0163 380.343 84.0847V85.8413H379.83C379.704 85.8411 379.581 85.8845 379.483 85.9642C379.385 86.0346 379.303 86.1259 379.245 86.2317L378.008 88.5738L380.553 93.1929H378.081L376.064 89.4846H374.893V93.1929H372.551V84.0847H374.893V87.6991H376.064L377.365 85.2269C377.544 84.8852 377.79 84.5829 378.088 84.3377C378.394 84.0884 378.777 83.953 379.172 83.9546Z" fill="white"/>
<path d="M389.297 93.1927H386.954V87.5976L383.832 93.1927H381.359V84.0845H383.701V89.6795L386.824 84.0845H389.297V93.1927Z" fill="white"/>
<path d="M396.493 93.1937V87.5987L393.371 93.1937H390.898V84.0855H393.241V89.6805L396.363 84.0855H398.836V93.1937H396.493ZM394.151 83.4349C393.922 83.4675 393.687 83.4462 393.467 83.3727C393.247 83.2992 393.047 83.1755 392.883 83.0114C392.719 82.8474 392.596 82.6474 392.522 82.4273C392.449 82.2073 392.427 81.9731 392.46 81.7434V81.353H394.151V81.6783C394.15 81.7384 394.162 81.798 394.184 81.8537C394.207 81.9094 394.24 81.96 394.283 82.0025C394.325 82.045 394.376 82.0785 394.431 82.101C394.487 82.1236 394.547 82.1347 394.607 82.1337H395.012C395.072 82.1347 395.131 82.1236 395.187 82.101C395.243 82.0785 395.293 82.045 395.336 82.0025C395.378 81.96 395.412 81.9094 395.434 81.8537C395.457 81.798 395.468 81.7384 395.467 81.6783V81.353H397.18V81.7434C397.213 81.9731 397.191 82.2073 397.118 82.4273C397.044 82.6474 396.921 82.8474 396.757 83.0114C396.593 83.1755 396.393 83.2992 396.173 83.3727C395.953 83.4462 395.718 83.4675 395.489 83.4349H394.151Z" fill="white"/>
<path d="M406.576 93.3228C406.124 93.3211 405.674 93.2776 405.231 93.1927V91.4361H406.409C406.515 91.4448 406.621 91.4211 406.712 91.3681C406.804 91.3151 406.877 91.2355 406.923 91.1397C406.969 91.0534 406.992 90.9559 406.988 90.8578C406.993 90.7642 406.97 90.6712 406.923 90.5903L403.352 84.0845H405.954L408.296 88.7036L410.241 84.0845H412.85L409.532 91.2409C409.294 91.8325 408.917 92.3581 408.433 92.7734C407.896 93.1647 407.24 93.3587 406.576 93.3228Z" fill="white"/>
<path d="M421.336 93.1927H418.993V89.4843H415.741V93.1927H413.398V84.0845H415.741V87.6988H418.993V84.0845H421.336V93.1927Z" fill="white"/>
<path d="M430.868 93.1927H428.526V87.5976L425.375 93.1927H422.902V84.0845H425.244V89.6795L428.367 84.0845H430.84L430.868 93.1927Z" fill="white"/>
<path d="M432.477 84.0852H437.667C438.342 84.029 439.013 84.2362 439.539 84.6635C439.754 84.9013 439.918 85.1804 440.021 85.4836C440.124 85.7869 440.164 86.108 440.139 86.4273C440.168 86.8723 440.062 87.3156 439.835 87.6996C439.633 88.0045 439.343 88.2413 439.004 88.3791C439.347 88.4656 439.661 88.6408 439.915 88.8869C440.168 89.133 440.353 89.4415 440.45 89.7815C440.541 90.0862 440.585 90.4031 440.58 90.7212C440.632 91.0577 440.603 91.4016 440.497 91.7251C440.391 92.0486 440.211 92.3426 439.97 92.5833C439.729 92.824 439.435 93.0047 439.112 93.1107C438.788 93.2167 438.444 93.245 438.108 93.1934H432.513L432.477 84.0852ZM437.811 86.6876C437.82 86.5828 437.806 86.4774 437.77 86.3787C437.734 86.28 437.676 86.1904 437.602 86.1161C437.528 86.0417 437.438 85.9845 437.34 85.9484C437.241 85.9123 437.135 85.8981 437.031 85.9069H434.819V87.6996H437.031C437.13 87.7076 437.231 87.6948 437.325 87.6621C437.42 87.6294 437.506 87.5774 437.58 87.5095C437.653 87.4415 437.711 87.3591 437.751 87.2674C437.791 87.1757 437.812 87.0767 437.811 86.9767V86.6876ZM438.202 90.3019C438.21 90.1972 438.196 90.0918 438.16 89.9931C438.124 89.8944 438.067 89.8048 437.993 89.7304C437.918 89.6561 437.829 89.5989 437.73 89.5628C437.631 89.5266 437.526 89.5125 437.421 89.5212H434.819V91.3429H437.421C437.526 91.3516 437.631 91.3375 437.73 91.3014C437.829 91.2652 437.918 91.208 437.993 91.1337C438.067 91.0594 438.124 90.9697 438.16 90.871C438.196 90.7723 438.21 90.6669 438.202 90.5622V90.3019Z" fill="white"/>
<path d="M448.963 93.1927H441.734V84.0845H448.963V85.9061H444.084V87.6988H447.922V89.5205H444.084V91.4072H448.963V93.1927Z" fill="white"/>
<path d="M450.047 84.0845H455.519C455.875 84.0182 456.242 84.0398 456.587 84.1472C456.933 84.2547 457.247 84.4448 457.503 84.7012C457.759 84.9575 457.948 85.2723 458.054 85.6183C458.161 85.9643 458.181 86.3311 458.114 86.6868V87.988C458.18 88.3434 458.158 88.7094 458.051 89.0546C457.944 89.3998 457.754 89.7138 457.499 89.9697C457.244 90.2256 456.93 90.4158 456.585 90.5239C456.241 90.632 455.875 90.6548 455.519 90.5903H452.396V93.1927H450.047V84.0845ZM455.772 86.6868C455.781 86.5821 455.767 86.4767 455.731 86.378C455.694 86.2793 455.637 86.1896 455.563 86.1153C455.489 86.041 455.399 85.9838 455.3 85.9476C455.201 85.9115 455.096 85.8973 454.991 85.9061H452.396V88.7976H455.013C455.118 88.8064 455.223 88.7922 455.322 88.7561C455.421 88.7199 455.51 88.6627 455.585 88.5884C455.659 88.5141 455.716 88.4244 455.752 88.3257C455.788 88.227 455.802 88.1216 455.794 88.0169L455.772 86.6868Z" fill="white"/>
<path d="M466.353 93.0636C464.425 93.2371 462.82 93.3239 461.538 93.3239C461.202 93.3526 460.864 93.3144 460.542 93.2114C460.221 93.1084 459.923 92.9427 459.666 92.7239C459.446 92.4678 459.279 92.1702 459.176 91.8486C459.073 91.527 459.036 91.188 459.066 90.8516V86.6879C459 85.9701 459.221 85.2553 459.681 84.7C460.238 84.2438 460.951 84.0233 461.669 84.0855H466.353V85.9072H462.189C462.084 85.8984 461.979 85.9126 461.88 85.9487C461.781 85.9848 461.692 86.042 461.618 86.1164C461.543 86.1907 461.486 86.2803 461.45 86.379C461.414 86.4777 461.4 86.5831 461.408 86.6879V90.8516C461.404 90.9387 461.417 91.0257 461.447 91.1076C461.477 91.1895 461.523 91.2647 461.582 91.3287C461.641 91.3866 461.711 91.4319 461.788 91.4617C461.865 91.4915 461.947 91.5053 462.03 91.5022H462.63H463.309H464.032L464.958 91.4516L466.367 91.3576L466.353 93.0636Z" fill="white"/>
<path d="M475.363 93.1927H473.021V87.5976L469.898 93.1927H467.426V84.0845H469.768V89.6795L472.891 84.0845H475.363V93.1927Z" fill="white"/>
<path d="M481.395 93.1927H479.053V85.9061H476.32V84.0845H484.127V85.9061H481.395V93.1927Z" fill="white"/>
<path d="M492.291 93.1927H485.062V84.0845H492.291V85.9061H487.412V87.6988H491.25V89.5205H487.412V91.4072H492.291V93.1927Z" fill="white"/>
<path d="M497.803 93.1927H495.49V85.9061H492.75V84.0845H500.55V85.9061H497.803V93.1927Z" fill="white"/>
<path d="M201.433 116.253H196.879V105.374L190.807 116.253H186V98.543H190.554V109.422L196.626 98.543H201.433V116.253Z" fill="white"/>
<path d="M219.704 106.386L216.162 112.711H212.62L209.078 106.386V116.253H204.523V98.543H209.331L214.391 107.904L219.451 98.543H224.258V116.253H219.704V106.386Z" fill="white"/>
<path d="M241.393 116.253H227.348V98.543H241.393V102.085H231.902V105.504H239.369V109.039H231.902V112.711H241.393V116.253Z" fill="white"/>
<path d="M258.886 116.253H254.332V109.025H248.007V116.253H243.453V98.543H248.007V105.504H254.332V98.543H258.886V116.253Z" fill="white"/>
<path d="M277.416 116.253H272.847V105.374L266.775 116.253H262.004V98.543H266.558V109.422L272.63 98.543H277.437L277.416 116.253Z" fill="white"/>
<path d="M292.695 116.253H288.141V98.543H301.926V102.085H292.695V116.253Z" fill="white"/>
<path d="M302.988 112.458H307.542V116.253H302.988V112.458Z" fill="white"/>
<path d="M309.875 98.543H319.995C321.648 98.543 322.853 98.9189 323.61 99.6707C324.026 100.133 324.344 100.675 324.544 101.264C324.744 101.853 324.822 102.477 324.773 103.097C324.815 103.967 324.585 104.828 324.116 105.562C323.723 106.159 323.158 106.623 322.496 106.892C323.158 107.065 323.764 107.408 324.252 107.887C324.74 108.367 325.095 108.966 325.279 109.625C325.457 110.215 325.542 110.83 325.532 111.446C325.532 113.099 325.145 114.304 324.369 115.061C323.593 115.817 322.388 116.205 320.754 116.224H309.875V98.543ZM320.248 103.603C320.277 103.397 320.258 103.187 320.192 102.99C320.126 102.792 320.015 102.613 319.867 102.466C319.72 102.319 319.541 102.208 319.344 102.142C319.146 102.076 318.936 102.056 318.73 102.085H314.429V105.627H318.73C318.936 105.656 319.146 105.637 319.344 105.571C319.541 105.504 319.72 105.393 319.867 105.246C320.015 105.099 320.126 104.92 320.192 104.723C320.258 104.525 320.277 104.315 320.248 104.109V103.603ZM321.007 110.687C321.036 110.481 321.017 110.271 320.951 110.074C320.885 109.876 320.774 109.697 320.626 109.55C320.479 109.403 320.3 109.292 320.103 109.226C319.905 109.16 319.695 109.14 319.489 109.169H314.429V112.711H319.489C319.695 112.74 319.905 112.721 320.103 112.655C320.3 112.589 320.479 112.478 320.626 112.33C320.774 112.183 320.885 112.004 320.951 111.807C321.017 111.609 321.036 111.399 321.007 111.193V110.687Z" fill="white"/>
<path d="M327.125 112.458H331.679V116.253H327.125V112.458Z" fill="white"/>
<path d="M357.078 116.253H352.524V102.085H346.199V116.253H341.645V98.543H357.078V116.253Z" fill="white"/>
<path d="M364.321 115.458C363.989 115.8 363.591 116.069 363.151 116.249C362.71 116.43 362.237 116.517 361.762 116.506C360.804 116.51 359.848 116.425 358.906 116.253V112.834H360.041C360.19 112.838 360.338 112.812 360.476 112.756C360.615 112.7 360.74 112.616 360.844 112.509C361.054 112.291 361.175 112.002 361.183 111.699L361.942 98.543H375.981V116.253H371.426V102.085H366.099L365.47 112.581C365.45 113.648 365.041 114.671 364.321 115.458Z" fill="white"/>
<path d="M393.112 116.253H379.066V98.543H393.112V102.085H383.621V105.504H391.088V109.039H383.621V112.711H393.112V116.253Z" fill="white"/>
<path d="M405.433 98.543H410.493L404.804 107.398L410.587 116.253H405.527L401.985 110.687L398.443 116.253H393.383L399.166 107.398L393.571 98.543H398.631L402.072 104.109L405.433 98.543Z" fill="white"/>
<path d="M415.096 116.253H410.195L416.896 98.543H421.956L428.665 116.253H423.728L422.593 113.094H416.267L415.096 116.253ZM417.373 109.805H421.422L419.398 103.856L417.373 109.805Z" fill="white"/>
<path d="M445.379 116.253H440.825V109.025H434.499V116.253H429.945V98.543H434.499V105.504H440.825V98.543H445.379V116.253Z" fill="white"/>
<path d="M464.414 111.446C464.414 113.217 464.009 114.504 463.214 115.306C462.419 116.108 461.125 116.506 459.354 116.506H453.029C451.26 116.506 449.974 116.106 449.169 115.306C448.364 114.506 447.964 113.219 447.969 111.446V103.35C447.969 101.576 448.369 100.29 449.169 99.4895C449.969 98.6895 451.255 98.2896 453.029 98.2896H459.354C461.123 98.2896 462.409 98.6895 463.214 99.4895C464.009 100.292 464.414 101.579 464.414 103.35V111.446ZM459.86 103.35C459.889 103.144 459.87 102.934 459.803 102.736C459.737 102.539 459.626 102.36 459.479 102.212C459.332 102.065 459.153 101.954 458.955 101.888C458.758 101.822 458.548 101.803 458.342 101.832H454.005C453.799 101.803 453.589 101.822 453.391 101.888C453.194 101.954 453.015 102.065 452.868 102.212C452.72 102.36 452.609 102.539 452.543 102.736C452.477 102.934 452.458 103.144 452.487 103.35V111.446C452.458 111.652 452.477 111.862 452.543 112.059C452.609 112.257 452.72 112.436 452.868 112.583C453.015 112.73 453.194 112.841 453.391 112.907C453.589 112.973 453.799 112.993 454.005 112.964H458.342C458.548 112.993 458.758 112.973 458.955 112.907C459.153 112.841 459.332 112.73 459.479 112.583C459.626 112.436 459.737 112.257 459.803 112.059C459.87 111.862 459.889 111.652 459.86 111.446V103.35Z" fill="white"/>
<path d="M466.988 98.543H477.109C478.757 98.543 479.961 98.9189 480.723 99.6707C481.139 100.133 481.457 100.675 481.657 101.264C481.857 101.853 481.935 102.477 481.887 103.097C481.924 103.967 481.695 104.827 481.229 105.562C480.835 106.158 480.27 106.621 479.61 106.892C480.272 107.065 480.877 107.408 481.365 107.887C481.854 108.367 482.208 108.966 482.393 109.625C482.57 110.215 482.656 110.83 482.646 111.446C482.646 113.099 482.258 114.304 481.482 115.061C480.706 115.817 479.501 116.205 477.868 116.224H466.988V98.543ZM477.362 103.603C477.39 103.397 477.371 103.187 477.305 102.99C477.239 102.792 477.128 102.613 476.981 102.466C476.834 102.319 476.654 102.208 476.457 102.142C476.26 102.076 476.05 102.056 475.843 102.085H471.542V105.627H475.843C476.05 105.656 476.26 105.637 476.457 105.571C476.654 105.504 476.834 105.393 476.981 105.246C477.128 105.099 477.239 104.92 477.305 104.723C477.371 104.525 477.39 104.315 477.362 104.109V103.603ZM478.121 110.687C478.149 110.481 478.13 110.271 478.064 110.074C477.998 109.876 477.887 109.697 477.74 109.55C477.593 109.403 477.413 109.292 477.216 109.226C477.019 109.16 476.809 109.14 476.602 109.169H471.542V112.711H476.602C476.809 112.74 477.019 112.721 477.216 112.655C477.413 112.589 477.593 112.478 477.74 112.33C477.887 112.183 477.998 112.004 478.064 111.807C478.13 111.609 478.149 111.399 478.121 111.193V110.687Z" fill="white"/>
<path d="M488.166 116.253H483.207L489.908 98.543H494.968L501.676 116.253H496.739L495.604 113.094H489.279L488.166 116.253ZM490.443 109.805H494.491L492.467 103.856L490.443 109.805Z" fill="white"/>
<path d="M501.997 73.9639H186.102V76.8554H501.997V73.9639Z" fill="white"/>
</svg>
