<svg width="1920" height="151" viewBox="0 0 1920 151" fill="none" xmlns="http://www.w3.org/2000/svg">
<rect opacity="0.3" x="540" y="57" width="1380" height="36" fill="#217AFF"/>
<rect opacity="0.3" y="57" width="146" height="36" fill="#217AFF"/>
<path d="M185.629 12.6816H220.938C226.823 12.6816 231.099 14.0151 233.758 16.6749C236.418 19.3347 237.752 23.6106 237.752 29.4954V37.9023C237.752 43.7871 236.418 48.063 233.758 50.7228C231.099 53.3825 226.823 54.716 220.938 54.716H200.761V71.5298H185.629V12.6816ZM222.619 29.4954C222.619 26.1326 220.938 24.4513 217.575 24.4513H200.761V42.9464H217.575C220.938 42.9464 222.619 41.265 222.619 37.9023V29.4954Z" fill="white"/>
<path d="M241.957 59.3398C255.633 60.1805 264.88 60.6008 269.7 60.6008C270.99 60.6008 272.012 60.224 272.765 59.463C273.519 58.702 273.903 57.6874 273.903 56.3974V48.4109H251.538V36.6412H273.903V29.4954C273.903 26.1326 272.222 24.4513 268.859 24.4513H242.798V12.6816H272.222C278.107 12.6816 282.383 14.0151 285.042 16.6749C287.702 19.3347 289.036 23.6106 289.036 29.4954V56.3974C289.036 61.8909 287.746 65.9276 285.165 68.5004C282.585 71.0804 278.549 72.3705 273.062 72.3705C264.656 72.3705 254.285 71.8124 241.957 70.6891V59.3398Z" fill="white"/>
<path d="M311.573 72.3705C308.768 72.3705 305.884 72.0878 302.913 71.5298V60.1805H310.479C312.102 60.1805 313.226 59.5355 313.842 58.2455C314.124 57.6874 314.262 57.0859 314.262 56.4409C314.262 55.7959 314.124 55.2233 313.842 54.716L290.723 12.6816H307.536L322.669 42.5261L335.279 12.6816H352.093L330.655 58.9195C328.691 63.3476 326.336 66.6523 323.596 68.841C320.567 71.1964 316.559 72.3705 311.573 72.3705Z" fill="white"/>
<path d="M352.926 58.9189H368.058V71.5293H352.926V58.9189Z" fill="white"/>
<path d="M375.633 12.6816H410.942C416.827 12.6816 421.102 14.0151 423.762 16.6749C426.422 19.3347 427.755 23.6106 427.755 29.4954V37.9023C427.755 43.7871 426.422 48.063 423.762 50.7228C421.102 53.3825 416.827 54.716 410.942 54.716H390.765V71.5298H375.633V12.6816ZM412.623 29.4954C412.623 26.1326 410.942 24.4513 407.579 24.4513H390.765V42.9464H407.579C410.942 42.9464 412.623 41.265 412.623 37.9023V29.4954Z" fill="white"/>
<path d="M501.737 50.5123C501.737 56.3971 500.404 60.673 497.744 63.3328C495.084 65.9926 490.808 67.3261 484.923 67.3261H474.835V73.2109H459.703V67.3261H449.615C443.73 67.3261 439.454 65.9926 436.794 63.3328C434.134 60.673 432.801 56.3971 432.801 50.5123V33.6986C432.801 27.8138 434.134 23.5378 436.794 20.8781C439.454 18.2183 443.73 16.8848 449.615 16.8848H459.703V11H474.835V16.8848H484.923C490.808 16.8848 495.084 18.2183 497.744 20.8781C500.404 23.5378 501.737 27.8138 501.737 33.6986V50.5123ZM447.933 50.5123C447.933 53.8751 449.615 55.5564 452.977 55.5564H460.543V28.6544H452.977C449.615 28.6544 447.933 30.3358 447.933 33.6986V50.5123ZM486.605 33.6986C486.605 30.3358 484.923 28.6544 481.561 28.6544H473.994V55.5564H481.561C484.923 55.5564 486.605 53.8751 486.605 50.5123V33.6986Z" fill="white"/>
<path d="M181.531 83.7041H506.211" stroke="white" stroke-width="5.07311" stroke-miterlimit="10"/>
<path d="M185.789 96.0244H191.268C192.181 96.0244 192.841 96.2346 193.254 96.6404C193.667 97.0535 193.877 97.7203 193.877 98.6334V99.938C193.877 100.851 193.667 101.518 193.254 101.931C192.841 102.344 192.181 102.554 191.268 102.554H188.137V105.163H185.789V96.0244ZM191.529 98.6334C191.529 98.1116 191.268 97.8507 190.746 97.8507H188.137V100.721H190.746C191.268 100.721 191.529 100.46 191.529 99.938V98.6334Z" fill="white"/>
<path d="M203.277 102.678C203.277 103.591 203.067 104.257 202.661 104.671C202.248 105.084 201.588 105.294 200.668 105.294H197.406C196.493 105.294 195.834 105.084 195.421 104.671C195.008 104.257 194.805 103.591 194.805 102.678V98.5031C194.805 97.5899 195.008 96.9304 195.421 96.5101C195.834 96.097 196.493 95.894 197.406 95.894H200.668C201.581 95.894 202.248 96.1042 202.661 96.5101C203.074 96.9232 203.277 97.5899 203.277 98.5031V102.678ZM200.929 98.5031C200.929 97.9813 200.668 97.7204 200.146 97.7204H197.928C197.406 97.7204 197.146 97.9813 197.146 98.5031V102.678C197.146 103.199 197.406 103.46 197.928 103.46H200.146C200.668 103.46 200.929 103.199 200.929 102.678V98.5031Z" fill="white"/>
<path d="M211.618 105.026C209.676 105.2 208.067 105.286 206.791 105.286C205.936 105.286 205.313 105.084 204.914 104.685C204.515 104.286 204.312 103.656 204.312 102.808V98.6334C204.312 97.7203 204.515 97.0608 204.929 96.6404C205.342 96.2273 206.001 96.0244 206.914 96.0244H211.611V97.8507H207.436C206.914 97.8507 206.653 98.1116 206.653 98.6334V102.808C206.653 103.011 206.711 103.17 206.827 103.286C206.943 103.402 207.095 103.46 207.277 103.46C207.458 103.46 207.661 103.46 207.878 103.453C208.096 103.446 208.32 103.446 208.559 103.431C208.791 103.424 209.03 103.417 209.27 103.402C209.509 103.395 209.82 103.373 210.197 103.351C210.574 103.322 211.045 103.293 211.611 103.257V105.026H211.618Z" fill="white"/>
<path d="M219.696 105.026C217.754 105.2 216.145 105.286 214.869 105.286C214.014 105.286 213.391 105.084 212.992 104.685C212.594 104.286 212.391 103.656 212.391 102.808V98.6334C212.391 97.7203 212.594 97.0608 213.007 96.6404C213.42 96.2273 214.079 96.0244 214.992 96.0244H219.689V97.8507H215.514C214.992 97.8507 214.732 98.1116 214.732 98.6334V102.808C214.732 103.011 214.789 103.17 214.905 103.286C215.021 103.402 215.174 103.46 215.355 103.46C215.536 103.46 215.739 103.46 215.956 103.453C216.174 103.446 216.398 103.446 216.638 103.431C216.869 103.424 217.109 103.417 217.348 103.402C217.587 103.395 217.899 103.373 218.275 103.351C218.652 103.322 219.123 103.293 219.689 103.257V105.026H219.696Z" fill="white"/>
<path d="M228.711 105.156H226.363V99.5466L223.232 105.156H220.754V96.0244H223.102V101.634L226.233 96.0244H228.711V105.156Z" fill="white"/>
<path d="M235.883 105.157V99.5473L232.752 105.157H230.273V96.0251H232.622V101.635L235.752 96.0251H238.231V105.157H235.883ZM233.535 95.3729C232.404 95.3729 231.839 94.8076 231.839 93.677V93.2856H233.535V93.6118C233.535 93.7422 233.578 93.8509 233.665 93.9379C233.752 94.0249 233.861 94.0684 233.991 94.0684H234.383C234.513 94.0684 234.622 94.0249 234.709 93.9379C234.796 93.8509 234.839 93.7422 234.839 93.6118V93.2856H236.535V93.677C236.535 94.8076 235.97 95.3729 234.839 95.3729H233.535Z" fill="white"/>
<path d="M246.829 105.026C244.886 105.2 243.278 105.286 242.002 105.286C241.147 105.286 240.524 105.084 240.125 104.685C239.726 104.286 239.523 103.656 239.523 102.808V98.6334C239.523 97.7203 239.726 97.0608 240.139 96.6404C240.553 96.2273 241.212 96.0244 242.125 96.0244H246.821V97.8507H242.647C242.125 97.8507 241.864 98.1116 241.864 98.6334V102.808C241.864 103.011 241.922 103.17 242.038 103.286C242.154 103.402 242.306 103.46 242.488 103.46C242.669 103.46 242.872 103.46 243.089 103.453C243.307 103.446 243.531 103.446 243.77 103.431C244.002 103.424 244.241 103.417 244.481 103.402C244.72 103.395 245.031 103.373 245.408 103.351C245.785 103.322 246.256 103.293 246.821 103.257V105.026H246.829Z" fill="white"/>
<path d="M254.54 95.894C254.757 95.894 255.149 95.9375 255.714 96.0245V97.7856H255.192C255.062 97.7856 254.946 97.8291 254.837 97.9088C254.735 97.9885 254.656 98.0827 254.605 98.1769L253.366 100.525L255.909 105.156H253.431L251.409 101.438H250.235V105.156H247.887V96.0245H250.235V99.6119H251.409L252.713 97.1333C252.902 96.771 253.141 96.4666 253.424 96.2419C253.706 96.01 254.076 95.894 254.54 95.894Z" fill="white"/>
<path d="M264.641 105.156H262.293V99.5466L259.162 105.156H256.684V96.0244H259.032V101.634L262.163 96.0244H264.641V105.156Z" fill="white"/>
<path d="M271.813 105.157V99.5473L268.682 105.157H266.203V96.0251H268.551V101.635L271.682 96.0251H274.161V105.157H271.813ZM269.464 95.3729C268.334 95.3729 267.769 94.8076 267.769 93.677V93.2856H269.464V93.6118C269.464 93.7422 269.508 93.8509 269.595 93.9379C269.682 94.0249 269.791 94.0684 269.921 94.0684H270.312C270.443 94.0684 270.552 94.0249 270.638 93.9379C270.725 93.8509 270.769 93.7422 270.769 93.6118V93.2856H272.465V93.677C272.465 94.8076 271.9 95.3729 270.769 95.3729H269.464Z" fill="white"/>
<path d="M279.121 103.264C281.245 103.395 282.68 103.46 283.426 103.46C283.629 103.46 283.788 103.402 283.904 103.286C284.02 103.17 284.078 103.011 284.078 102.808V101.569H280.607V99.7423H284.078V98.6334C284.078 98.1116 283.817 97.8507 283.296 97.8507H279.252V96.0244H283.817C284.731 96.0244 285.39 96.2346 285.81 96.6404C286.223 97.0535 286.434 97.7203 286.434 98.6334V102.808C286.434 103.663 286.231 104.286 285.832 104.685C285.433 105.084 284.803 105.286 283.955 105.286C282.651 105.286 281.042 105.2 279.128 105.026V103.264H279.121Z" fill="white"/>
<path d="M294.384 95.894C294.601 95.894 294.992 95.9375 295.558 96.0245V97.7856H295.036C294.905 97.7856 294.789 97.8291 294.681 97.9088C294.579 97.9885 294.499 98.0827 294.449 98.1769L293.209 100.525L295.753 105.156H293.275L291.253 101.438H290.079V105.156H287.73V96.0245H290.079V99.6119H291.253L292.557 97.1333C292.746 96.771 292.985 96.4666 293.267 96.2419C293.55 96.01 293.92 95.894 294.384 95.894Z" fill="white"/>
<path d="M304.748 102.678C304.748 103.591 304.538 104.257 304.132 104.671C303.719 105.084 303.052 105.294 302.139 105.294H298.878C297.965 105.294 297.298 105.084 296.885 104.671C296.472 104.257 296.262 103.591 296.262 102.678V98.5031C296.262 97.5899 296.472 96.9304 296.885 96.5101C297.298 96.097 297.958 95.894 298.878 95.894H302.139C303.052 95.894 303.712 96.1042 304.132 96.5101C304.545 96.9232 304.748 97.5899 304.748 98.5031V102.678ZM302.4 98.5031C302.4 97.9813 302.139 97.7204 301.617 97.7204H299.4C298.878 97.7204 298.617 97.9813 298.617 98.5031V102.678C298.617 103.199 298.878 103.46 299.4 103.46H301.617C302.139 103.46 302.4 103.199 302.4 102.678V98.5031Z" fill="white"/>
<path d="M314.016 105.156H311.668V101.438H308.407V105.156H306.059V96.0244H308.407V99.6118H311.668V96.0244H314.016V105.156Z" fill="white"/>
<path d="M323.799 102.678C323.799 103.591 323.589 104.257 323.183 104.671C322.77 105.084 322.103 105.294 321.19 105.294H317.929C317.016 105.294 316.349 105.084 315.936 104.671C315.523 104.257 315.312 103.591 315.312 102.678V98.5031C315.312 97.5899 315.523 96.9304 315.936 96.5101C316.349 96.097 317.008 95.894 317.929 95.894H321.19C322.103 95.894 322.763 96.1042 323.183 96.5101C323.596 96.9232 323.799 97.5899 323.799 98.5031V102.678ZM321.451 98.5031C321.451 97.9813 321.19 97.7204 320.668 97.7204H318.451C317.929 97.7204 317.668 97.9813 317.668 98.5031V102.678C317.668 103.199 317.929 103.46 318.451 103.46H320.668C321.19 103.46 321.451 103.199 321.451 102.678V98.5031Z" fill="white"/>
<path d="M332.936 100.068L331.11 103.33H329.284L327.457 100.068V105.156H325.109V96.0244H327.588L330.197 100.851L332.806 96.0244H335.285V105.156H332.936V100.068Z" fill="white"/>
<path d="M344.805 105.156H342.457V99.5466L339.326 105.156H336.848V96.0244H339.196V101.634L342.327 96.0244H344.805V105.156Z" fill="white"/>
<path d="M351.649 102.156C350.605 102.243 349.62 102.286 348.692 102.286C347.765 102.286 347.105 102.083 346.699 101.685C346.301 101.286 346.098 100.655 346.098 99.8075V96.0244H348.446V99.8075C348.446 100.01 348.504 100.17 348.62 100.286C348.736 100.402 348.895 100.46 349.098 100.46C349.808 100.46 350.656 100.416 351.642 100.329V96.0244H353.99V105.156H351.642V102.156H351.649Z" fill="white"/>
<path d="M362.806 105.156H355.566V96.0244H362.806V97.8507H357.915V99.6118H361.763V101.438H357.915V103.33H362.806V105.156Z" fill="white"/>
<path d="M370.887 105.026C368.945 105.2 367.336 105.286 366.061 105.286C365.205 105.286 364.582 105.084 364.184 104.685C363.785 104.286 363.582 103.656 363.582 102.808V98.6334C363.582 97.7203 363.792 97.0608 364.205 96.6404C364.618 96.2273 365.278 96.0244 366.198 96.0244H370.895V97.8507H366.72C366.198 97.8507 365.937 98.1116 365.937 98.6334V102.808C365.937 103.011 365.995 103.17 366.111 103.286C366.227 103.402 366.379 103.46 366.561 103.46C366.742 103.46 366.945 103.46 367.162 103.453C367.38 103.446 367.604 103.446 367.843 103.431C368.075 103.424 368.315 103.417 368.554 103.402C368.793 103.395 369.104 103.373 369.481 103.351C369.858 103.322 370.329 103.293 370.895 103.257V105.026H370.887Z" fill="white"/>
<path d="M378.598 95.894C378.816 95.894 379.207 95.9375 379.772 96.0245V97.7856H379.251C379.12 97.7856 379.004 97.8291 378.895 97.9088C378.794 97.9885 378.714 98.0827 378.664 98.1769L377.424 100.525L379.968 105.156H377.489L375.467 101.438H374.293V105.156H371.945V96.0245H374.293V99.6119H375.467L376.772 97.1333C376.96 96.771 377.2 96.4666 377.482 96.2419C377.765 96.01 378.142 95.894 378.598 95.894Z" fill="white"/>
<path d="M388.7 105.156H386.352V99.5466L383.221 105.156H380.742V96.0244H383.09V101.634L386.221 96.0244H388.7V105.156Z" fill="white"/>
<path d="M395.871 105.157V99.5473L392.74 105.157H390.262V96.0251H392.61V101.635L395.741 96.0251H398.219V105.157H395.871ZM393.523 95.3729C392.392 95.3729 391.827 94.8076 391.827 93.677V93.2856H393.523V93.6118C393.523 93.7422 393.566 93.8509 393.653 93.9379C393.74 94.0249 393.849 94.0684 393.98 94.0684H394.371C394.501 94.0684 394.61 94.0249 394.697 93.9379C394.784 93.8509 394.828 93.7422 394.828 93.6118V93.2856H396.523V93.677C396.523 94.8076 395.958 95.3729 394.828 95.3729H393.523Z" fill="white"/>
<path d="M405.896 105.286C405.462 105.286 405.012 105.243 404.556 105.156V103.395H405.73C405.983 103.395 406.157 103.293 406.251 103.098C406.295 103.011 406.317 102.917 406.317 102.815C406.317 102.714 406.295 102.627 406.251 102.547L402.664 96.0244H405.273L407.621 100.655L409.578 96.0244H412.187L408.861 103.199C408.556 103.888 408.194 104.402 407.766 104.736C407.288 105.105 406.665 105.286 405.896 105.286Z" fill="white"/>
<path d="M420.657 105.156H418.309V101.438H415.047V105.156H412.699V96.0244H415.047V99.6118H418.309V96.0244H420.657V105.156Z" fill="white"/>
<path d="M430.176 105.156H427.828V99.5466L424.697 105.156H422.219V96.0244H424.567V101.634L427.698 96.0244H430.176V105.156Z" fill="white"/>
<path d="M431.734 96.0244H436.952C437.808 96.0244 438.431 96.2201 438.829 96.6042C439.228 96.9883 439.431 97.5826 439.431 98.3725C439.431 98.8944 439.315 99.3147 439.09 99.6408C438.866 99.967 438.583 100.192 438.257 100.322C438.96 100.51 439.438 100.982 439.692 101.728C439.779 101.996 439.822 102.308 439.822 102.67C439.822 103.525 439.619 104.149 439.221 104.547C438.822 104.946 438.192 105.149 437.344 105.149H431.734V96.0244ZM437.083 98.6334C437.083 98.1116 436.822 97.8507 436.3 97.8507H434.082V99.6771H436.3C436.822 99.6771 437.083 99.4162 437.083 98.8944V98.6334ZM437.474 102.286C437.474 101.764 437.213 101.503 436.692 101.503H434.082V103.33H436.692C437.213 103.33 437.474 103.069 437.474 102.547V102.286Z" fill="white"/>
<path d="M448.248 105.156H441.008V96.0244H448.248V97.8507H443.356V99.6118H447.204V101.438H443.356V103.33H448.248V105.156Z" fill="white"/>
<path d="M449.285 96.0244H454.764C455.677 96.0244 456.337 96.2346 456.757 96.6404C457.17 97.0535 457.38 97.7203 457.38 98.6334V99.938C457.38 100.851 457.17 101.518 456.757 101.931C456.344 102.344 455.685 102.554 454.764 102.554H451.633V105.163H449.285V96.0244ZM455.025 98.6334C455.025 98.1116 454.764 97.8507 454.242 97.8507H451.633V100.721H454.242C454.764 100.721 455.025 100.46 455.025 99.938V98.6334Z" fill="white"/>
<path d="M465.594 105.026C463.652 105.2 462.043 105.286 460.768 105.286C459.912 105.286 459.289 105.084 458.891 104.685C458.492 104.286 458.289 103.656 458.289 102.808V98.6334C458.289 97.7203 458.499 97.0608 458.912 96.6404C459.325 96.2273 459.985 96.0244 460.905 96.0244H465.602V97.8507H461.427C460.905 97.8507 460.644 98.1116 460.644 98.6334V102.808C460.644 103.011 460.702 103.17 460.818 103.286C460.934 103.402 461.087 103.46 461.268 103.46C461.449 103.46 461.652 103.46 461.869 103.453C462.087 103.446 462.311 103.446 462.55 103.431C462.782 103.424 463.022 103.417 463.261 103.402C463.5 103.395 463.811 103.373 464.188 103.351C464.565 103.322 465.036 103.293 465.602 103.257V105.026H465.594Z" fill="white"/>
<path d="M474.598 105.156H472.25V99.5466L469.119 105.156H466.641V96.0244H468.989V101.634L472.12 96.0244H474.598V105.156Z" fill="white"/>
<path d="M480.603 105.156H478.255V97.8507H475.516V96.0244H483.343V97.8507H480.603V105.156Z" fill="white"/>
<path d="M491.49 105.156H484.25V96.0244H491.49V97.8507H486.598V99.6118H490.446V101.438H486.598V103.33H491.49V105.156Z" fill="white"/>
<path d="M496.97 105.156H494.622V97.8507H491.883V96.0244H499.71V97.8507H496.97V105.156Z" fill="white"/>
<path d="M201.012 128.275H196.446V117.368L190.359 128.275H185.539V110.519H190.105V121.426L196.193 110.519H201.012V128.275Z" fill="white"/>
<path d="M219.274 118.382L215.723 124.724H212.172L208.62 118.382V128.275H204.055V110.519H208.874L213.947 119.904L219.02 110.519H223.84V128.275H219.274V118.382Z" fill="white"/>
<path d="M240.961 128.275H226.887V110.519H240.961V114.07H231.453V117.498H238.939V121.049H231.453V124.731H240.961V128.275Z" fill="white"/>
<path d="M258.473 128.275H253.907V121.042H247.566V128.275H243V110.519H247.566V117.491H253.907V110.519H258.473V128.275Z" fill="white"/>
<path d="M276.981 128.275H272.415V117.368L266.327 128.275H261.508V110.519H266.074V121.426L272.161 110.519H276.981V128.275Z" fill="white"/>
<path d="M292.199 128.275H287.633V110.519H301.461V114.07H292.199V128.275Z" fill="white"/>
<path d="M302.469 124.471H307.035V128.276H302.469V124.471Z" fill="white"/>
<path d="M309.32 110.519H319.467C321.126 110.519 322.344 110.896 323.119 111.65C323.895 112.403 324.286 113.548 324.286 115.085C324.286 116.099 324.069 116.926 323.626 117.556C323.184 118.187 322.648 118.636 322.003 118.89C323.373 119.259 324.3 120.172 324.793 121.629C324.96 122.151 325.047 122.76 325.047 123.455C325.047 125.115 324.656 126.333 323.88 127.108C323.105 127.884 321.887 128.275 320.228 128.275H309.32V110.519ZM319.727 115.592C319.727 114.578 319.22 114.07 318.206 114.07H313.893V117.621H318.206C319.22 117.621 319.727 117.114 319.727 116.099V115.592ZM320.488 122.695C320.488 121.68 319.981 121.173 318.966 121.173H313.893V124.724H318.966C319.981 124.724 320.488 124.216 320.488 123.202V122.695Z" fill="white"/>
<path d="M326.566 124.471H331.132V128.276H326.566V124.471Z" fill="white"/>
<path d="M356.493 128.275H351.927V114.07H345.585V128.275H341.02V110.519H356.493V128.275Z" fill="white"/>
<path d="M363.701 127.478C363.005 128.181 362.157 128.529 361.136 128.529C360.121 128.529 359.164 128.442 358.266 128.275V124.847H359.411C359.73 124.847 359.998 124.739 360.208 124.514C360.418 124.297 360.534 124.021 360.549 123.702L361.31 110.512H375.384V128.275H370.818V114.071H365.491L364.853 124.601C364.788 125.811 364.397 126.775 363.701 127.478Z" fill="white"/>
<path d="M392.512 128.275H378.438V110.519H392.519V114.07H383.003V117.498H390.483V121.049H383.003V124.731H392.512V128.275Z" fill="white"/>
<path d="M404.822 110.519H409.895L404.184 119.397L410.018 128.275H404.945L401.394 122.695L397.843 128.275H392.77L398.604 119.397L392.893 110.519H397.937L401.387 116.099L404.822 110.519Z" fill="white"/>
<path d="M414.47 128.275H409.527L416.246 110.519H421.319L428.044 128.275H423.094L421.949 125.101H415.608L414.47 128.275ZM416.753 121.81H420.811L418.782 115.846L416.753 121.81Z" fill="white"/>
<path d="M444.766 128.275H440.2V121.042H433.859V128.275H429.293V110.519H433.859V117.491H440.2V110.519H444.766V128.275Z" fill="white"/>
<path d="M463.8 123.456C463.8 125.232 463.402 126.522 462.597 127.326C461.793 128.131 460.503 128.529 458.727 128.529H452.386C450.61 128.529 449.32 128.131 448.516 127.326C447.711 126.522 447.312 125.232 447.312 123.456V115.339C447.312 113.564 447.711 112.274 448.516 111.469C449.32 110.665 450.61 110.266 452.386 110.266H458.727C460.503 110.266 461.793 110.665 462.597 111.469C463.402 112.274 463.8 113.564 463.8 115.339V123.456ZM459.234 115.339C459.234 114.325 458.727 113.817 457.712 113.817H453.4C452.386 113.817 451.878 114.325 451.878 115.339V123.456C451.878 124.471 452.386 124.978 453.4 124.978H457.712C458.727 124.978 459.234 124.471 459.234 123.456V115.339Z" fill="white"/>
<path d="M466.328 110.519H476.474C478.134 110.519 479.352 110.896 480.127 111.65C480.902 112.403 481.294 113.548 481.294 115.085C481.294 116.099 481.076 116.926 480.634 117.556C480.192 118.187 479.656 118.636 479.011 118.89C480.381 119.259 481.308 120.172 481.801 121.629C481.968 122.151 482.055 122.76 482.055 123.455C482.055 125.115 481.663 126.333 480.888 127.108C480.113 127.884 478.895 128.275 477.235 128.275H466.328V110.519ZM476.728 115.592C476.728 114.578 476.221 114.07 475.206 114.07H470.894V117.621H475.206C476.221 117.621 476.728 117.114 476.728 116.099V115.592ZM477.489 122.695C477.489 121.68 476.982 121.173 475.967 121.173H470.894V124.724H475.967C476.982 124.724 477.489 124.216 477.489 123.202V122.695Z" fill="white"/>
<path d="M487.513 128.275H482.57L489.289 110.519H494.362L501.087 128.275H496.137L494.992 125.101H488.651L487.513 128.275ZM489.796 121.81H493.854L491.825 115.846L489.796 121.81Z" fill="white"/>
</svg>
