<svg width="1920" height="111" viewBox="0 0 1920 111" fill="none" xmlns="http://www.w3.org/2000/svg">
<rect opacity="0.3" x="540" y="37" width="1380" height="36" fill="#217AFF"/>
<rect opacity="0.3" y="37" width="146" height="36" fill="#217AFF"/>
<path d="M186.578 1.67676H221.797C227.667 1.67676 231.932 3.00685 234.585 5.65982C237.238 8.31279 238.568 12.5778 238.568 18.4476V26.833C238.568 32.7027 237.238 36.9677 234.585 39.6207C231.932 42.2737 227.667 43.6038 221.797 43.6038H201.672V60.3746H186.578V1.67676ZM223.474 18.4476C223.474 15.0934 221.797 13.4163 218.443 13.4163H201.672V31.8642H218.443C221.797 31.8642 223.474 30.1871 223.474 26.833V18.4476Z" fill="white"/>
<path d="M242.758 48.2157C256.399 49.0543 265.622 49.4736 270.43 49.4736C271.716 49.4736 272.736 49.0977 273.487 48.3386C274.239 47.5868 274.622 46.5676 274.622 45.2808V37.3147H252.314V25.5752H274.622V18.4476C274.622 15.0934 272.945 13.4163 269.591 13.4163H243.596V1.67676H272.945C278.815 1.67676 283.08 3.00685 285.733 5.65982C288.386 8.31279 289.716 12.5778 289.716 18.4476V45.2808C289.716 50.7603 288.429 54.7867 285.856 57.3529C283.282 59.9264 279.263 61.2131 273.784 61.2131C265.398 61.2131 255.054 60.6565 242.758 59.536V48.2157Z" fill="white"/>
<path d="M312.192 61.2131C309.394 61.2131 306.517 60.9312 303.553 60.3746V49.0543H311.1C312.719 49.0543 313.84 48.4109 314.454 47.1242C314.736 46.5676 314.874 45.9676 314.874 45.3242C314.874 44.6809 314.736 44.1098 314.454 43.6038L291.395 1.67676H308.165L323.259 31.4449L335.837 1.67676H352.608L331.225 47.7965C329.266 52.2133 326.917 55.5096 324.184 57.6927C321.163 60.042 317.165 61.2131 312.192 61.2131Z" fill="white"/>
<path d="M353.449 47.7969H368.543V60.375H353.449V47.7969Z" fill="white"/>
<path d="M376.09 1.67676H411.309C417.178 1.67676 421.443 3.00685 424.096 5.65982C426.749 8.31279 428.079 12.5778 428.079 18.4476V26.833C428.079 32.7027 426.749 36.9677 424.096 39.6207C421.443 42.2737 417.178 43.6038 411.309 43.6038H391.184V60.3746H376.09V1.67676ZM412.986 18.4476C412.986 15.0934 411.309 13.4163 407.954 13.4163H391.184V31.8642H407.954C411.309 31.8642 412.986 30.1871 412.986 26.833V18.4476Z" fill="white"/>
<path d="M501.87 39.4114C501.87 45.2812 500.54 49.5462 497.887 52.1991C495.234 54.8521 490.969 56.1822 485.099 56.1822H475.036V62.052H459.943V56.1822H449.88C444.01 56.1822 439.745 54.8521 437.092 52.1991C434.439 49.5462 433.109 45.2812 433.109 39.4114V22.6406C433.109 16.7708 434.439 12.5058 437.092 9.85285C439.745 7.19988 444.01 5.86978 449.88 5.86978H459.943V0H475.036V5.86978H485.099C490.969 5.86978 495.234 7.19988 497.887 9.85285C500.54 12.5058 501.87 16.7708 501.87 22.6406V39.4114ZM448.203 39.4114C448.203 42.7655 449.88 44.4426 453.234 44.4426H460.781V17.6093H453.234C449.88 17.6093 448.203 19.2864 448.203 22.6406V39.4114ZM486.776 22.6406C486.776 19.2864 485.099 17.6093 481.745 17.6093H474.198V44.4426H481.745C485.099 44.4426 486.776 42.7655 486.776 39.4114V22.6406Z" fill="white"/>
<path d="M186.043 78.3027H191.508C192.419 78.3027 193.077 78.5124 193.489 78.9172C193.901 79.3292 194.11 79.9943 194.11 80.9051V82.2063C194.11 83.1171 193.901 83.7822 193.489 84.1942C193.077 84.6062 192.419 84.8159 191.508 84.8159H188.385V87.4182H186.043V78.31V78.3027ZM191.768 80.9051C191.768 80.3846 191.508 80.1244 190.987 80.1244H188.385V82.987H190.987C191.508 82.987 191.768 82.7268 191.768 82.2063V80.9051Z" fill="white"/>
<path d="M203.524 84.939C203.524 85.8498 203.314 86.5149 202.902 86.9269C202.49 87.339 201.833 87.5486 200.922 87.5486H197.669C196.758 87.5486 196.093 87.339 195.681 86.9269C195.269 86.5149 195.066 85.8498 195.066 84.939V80.7752C195.066 79.8644 195.269 79.2066 195.681 78.7873C196.093 78.368 196.758 78.1729 197.669 78.1729H200.922C201.833 78.1729 202.49 78.3825 202.902 78.7873C203.314 79.1921 203.524 79.8644 203.524 80.7752V84.939ZM201.182 80.7752C201.182 80.2547 200.922 79.9945 200.401 79.9945H198.189C197.669 79.9945 197.409 80.2547 197.409 80.7752V84.939C197.409 85.4595 197.669 85.7197 198.189 85.7197H200.401C200.922 85.7197 201.182 85.4595 201.182 84.939V80.7752Z" fill="white"/>
<path d="M211.888 87.2809C209.951 87.4544 208.346 87.5411 207.074 87.5411C206.221 87.5411 205.599 87.3387 205.202 86.9411C204.804 86.5436 204.602 85.9147 204.602 85.0689V80.9051C204.602 79.9943 204.811 79.3365 205.223 78.9172C205.635 78.4979 206.293 78.3027 207.204 78.3027H211.888V80.1244H207.724C207.204 80.1244 206.944 80.3846 206.944 80.9051V85.0689C206.944 85.2713 207.002 85.4303 207.117 85.546C207.233 85.6617 207.385 85.7195 207.565 85.7195C207.746 85.7195 207.948 85.7195 208.165 85.7195C208.382 85.7195 208.606 85.7122 208.845 85.6978C209.076 85.6906 209.315 85.6833 209.553 85.6689C209.792 85.6616 210.103 85.64 210.479 85.6183C210.854 85.5894 211.324 85.5604 211.888 85.5243V87.2809Z" fill="white"/>
<path d="M219.99 87.2809C218.052 87.4544 216.448 87.5411 215.175 87.5411C214.322 87.5411 213.701 87.3387 213.303 86.9411C212.906 86.5436 212.703 85.9147 212.703 85.0689V80.9051C212.703 79.9943 212.906 79.3365 213.318 78.9172C213.73 78.5051 214.395 78.3027 215.305 78.3027H219.99V80.1244H215.826C215.305 80.1244 215.045 80.3846 215.045 80.9051V85.0689C215.045 85.2713 215.103 85.4303 215.219 85.546C215.334 85.6617 215.486 85.7195 215.667 85.7195C215.848 85.7195 216.05 85.7195 216.267 85.7195C216.484 85.7195 216.708 85.7122 216.946 85.6978C217.178 85.6906 217.416 85.6833 217.655 85.6689C217.893 85.6616 218.204 85.64 218.58 85.6183C218.956 85.5894 219.426 85.5604 219.99 85.5243V87.2809Z" fill="white"/>
<path d="M229.011 87.411H226.669V81.8159L223.546 87.411H221.074V78.3027H223.416V83.8978L226.539 78.3027H229.011V87.411Z" fill="white"/>
<path d="M236.201 87.4111V81.816L233.078 87.4111H230.605V78.3028H232.948V83.8979L236.07 78.3028H238.543V87.4111H236.201ZM233.858 77.6522C232.731 77.6522 232.167 77.0884 232.167 75.9607V75.5703H233.858V75.8956C233.858 76.0257 233.902 76.1342 233.989 76.2209C234.075 76.3076 234.184 76.351 234.314 76.351H234.704C234.834 76.351 234.943 76.3076 235.029 76.2209C235.116 76.1342 235.16 76.0257 235.16 75.8956V75.5703H236.851V75.9607C236.851 77.0884 236.287 77.6522 235.16 77.6522H233.858Z" fill="white"/>
<path d="M247.177 87.2809C245.24 87.4544 243.635 87.5411 242.363 87.5411C241.51 87.5411 240.888 87.3387 240.491 86.9411C240.093 86.5436 239.891 85.9147 239.891 85.0689V80.9051C239.891 79.9943 240.1 79.3365 240.512 78.9172C240.924 78.4979 241.582 78.3027 242.493 78.3027H247.177V80.1244H243.013C242.493 80.1244 242.233 80.3846 242.233 80.9051V85.0689C242.233 85.2713 242.291 85.4303 242.406 85.546C242.522 85.6617 242.674 85.7195 242.854 85.7195C243.035 85.7195 243.238 85.7195 243.454 85.7195C243.671 85.7195 243.895 85.7122 244.134 85.6978C244.365 85.6906 244.604 85.6833 244.842 85.6689C245.081 85.6616 245.392 85.64 245.768 85.6183C246.144 85.5894 246.613 85.5604 247.177 85.5243V87.2809Z" fill="white"/>
<path d="M254.89 78.1729C255.107 78.1729 255.497 78.2162 256.061 78.303V80.0596H255.541C255.41 80.0596 255.295 80.1029 255.186 80.1825C255.085 80.262 255.006 80.3559 254.955 80.4499L253.719 82.7921L256.256 87.4113H253.784L251.767 83.7029H250.596V87.4113H248.254V78.303H250.596V81.8812H251.767L253.068 79.409C253.256 79.0475 253.495 78.7439 253.777 78.5198C254.059 78.2885 254.427 78.1729 254.89 78.1729Z" fill="white"/>
<path d="M265.011 87.411H262.669V81.8159L259.546 87.411H257.074V78.3027H259.416V83.8978L262.539 78.3027H265.011V87.411Z" fill="white"/>
<path d="M272.212 87.4111V81.816L269.089 87.4111H266.617V78.3028H268.959V83.8979L272.082 78.3028H274.554V87.4111H272.212ZM269.87 77.6522C268.742 77.6522 268.179 77.0884 268.179 75.9607V75.5703H269.87V75.8956C269.87 76.0257 269.914 76.1342 270 76.2209C270.087 76.3076 270.195 76.351 270.326 76.351H270.716C270.846 76.351 270.954 76.3076 271.041 76.2209C271.128 76.1342 271.171 76.0257 271.171 75.8956V75.5703H272.863V75.9607C272.863 77.0884 272.299 77.6522 271.171 77.6522H269.87Z" fill="white"/>
<path d="M279.566 85.5243C281.684 85.6544 283.116 85.7195 283.86 85.7195C284.063 85.7195 284.215 85.6617 284.337 85.546C284.46 85.4303 284.511 85.2713 284.511 85.0689V83.8328H281.048V82.0111H284.511V80.9051C284.511 80.3846 284.251 80.1244 283.73 80.1244H279.697V78.3027H284.251C285.161 78.3027 285.827 78.5124 286.239 78.9172C286.651 79.3292 286.86 79.9943 286.86 80.9051V85.0689C286.86 85.9219 286.658 86.5436 286.26 86.9411C285.863 87.3387 285.234 87.5411 284.388 87.5411C283.087 87.5411 281.482 87.4544 279.574 87.2809V85.5243H279.566Z" fill="white"/>
<path d="M294.835 78.1729C295.052 78.1729 295.442 78.2162 296.006 78.303V80.0596H295.486C295.356 80.0596 295.24 80.1029 295.132 80.1825C295.03 80.262 294.951 80.3559 294.9 80.4499L293.664 82.7921L296.201 87.4113H293.729L291.712 83.7029H290.541V87.4113H288.199V78.303H290.541V81.8812H291.712L293.014 79.409C293.202 79.0475 293.44 78.7439 293.722 78.5198C294.004 78.2885 294.373 78.1729 294.835 78.1729Z" fill="white"/>
<path d="M305.216 84.939C305.216 85.8498 305.006 86.5149 304.601 86.9269C304.189 87.339 303.524 87.5486 302.613 87.5486H299.36C298.449 87.5486 297.784 87.339 297.379 86.9269C296.967 86.5149 296.758 85.8498 296.758 84.939V80.7752C296.758 79.8644 296.967 79.2066 297.379 78.7873C297.792 78.3753 298.449 78.1729 299.36 78.1729H302.613C303.524 78.1729 304.189 78.3825 304.601 78.7873C305.013 79.1993 305.216 79.8644 305.216 80.7752V84.939ZM302.873 80.7752C302.873 80.2547 302.613 79.9945 302.093 79.9945H299.881C299.36 79.9945 299.1 80.2547 299.1 80.7752V84.939C299.1 85.4595 299.36 85.7197 299.881 85.7197H302.093C302.613 85.7197 302.873 85.4595 302.873 84.939V80.7752Z" fill="white"/>
<path d="M314.496 87.411H312.154V83.7026H308.901V87.411H306.559V78.3027H308.901V81.881H312.154V78.3027H314.496V87.411Z" fill="white"/>
<path d="M324.294 84.939C324.294 85.8498 324.084 86.5149 323.679 86.9269C323.267 87.339 322.602 87.5486 321.691 87.5486H318.438C317.527 87.5486 316.862 87.339 316.458 86.9269C316.046 86.5149 315.836 85.8498 315.836 84.939V80.7752C315.836 79.8644 316.046 79.2066 316.458 78.7873C316.87 78.3753 317.527 78.1729 318.438 78.1729H321.691C322.602 78.1729 323.267 78.3825 323.679 78.7873C324.091 79.1993 324.294 79.8644 324.294 80.7752V84.939ZM321.951 80.7752C321.951 80.2547 321.691 79.9945 321.171 79.9945H318.959C318.438 79.9945 318.178 80.2547 318.178 80.7752V84.939C318.178 85.4595 318.438 85.7197 318.959 85.7197H321.171C321.691 85.7197 321.951 85.4595 321.951 84.939V80.7752Z" fill="white"/>
<path d="M333.44 82.3364L331.618 85.5894H329.797L327.975 82.3364V87.411H325.633V78.3027H328.105L330.707 83.1171L333.31 78.3027H335.782V87.411H333.44V82.3364Z" fill="white"/>
<path d="M345.32 87.411H342.978V81.8159L339.855 87.411H337.383V78.3027H339.725V83.8978L342.848 78.3027H345.32V87.411Z" fill="white"/>
<path d="M352.19 84.4183C351.149 84.505 350.166 84.5484 349.24 84.5484C348.315 84.5484 347.657 84.346 347.252 83.9484C346.855 83.5508 346.652 82.9219 346.652 82.0762V78.3027H348.994V82.0762C348.994 82.2786 349.052 82.4376 349.168 82.5533C349.284 82.6689 349.443 82.7268 349.645 82.7268C350.353 82.7268 351.199 82.6834 352.182 82.5966V78.3027H354.524V87.411H352.182V84.4183H352.19Z" fill="white"/>
<path d="M363.358 87.411H356.137V78.3027H363.358V80.1244H358.479V81.881H362.317V83.7026H358.479V85.5894H363.358V87.411Z" fill="white"/>
<path d="M371.462 87.2809C369.525 87.4544 367.92 87.5411 366.648 87.5411C365.795 87.5411 365.173 87.3387 364.776 86.9411C364.378 86.5436 364.176 85.9147 364.176 85.0689V80.9051C364.176 79.9943 364.385 79.3365 364.797 78.9172C365.21 78.5051 365.867 78.3027 366.778 78.3027H371.462V80.1244H367.299C366.778 80.1244 366.518 80.3846 366.518 80.9051V85.0689C366.518 85.2713 366.576 85.4303 366.691 85.546C366.807 85.6617 366.959 85.7195 367.14 85.7195C367.32 85.7195 367.523 85.7195 367.74 85.7195C367.956 85.7195 368.181 85.7122 368.419 85.6978C368.65 85.6906 368.889 85.6833 369.128 85.6689C369.366 85.6616 369.677 85.64 370.053 85.6183C370.429 85.5894 370.899 85.5604 371.462 85.5243V87.2809Z" fill="white"/>
<path d="M379.175 78.1729C379.392 78.1729 379.782 78.2162 380.346 78.303V80.0596H379.826C379.696 80.0596 379.58 80.1029 379.471 80.1825C379.37 80.262 379.291 80.3559 379.24 80.4499L378.004 82.7921L380.541 87.4113H378.069L376.052 83.7029H374.881V87.4113H372.539V78.303H374.881V81.8812H376.052L377.353 79.409C377.541 79.0475 377.78 78.7439 378.062 78.5198C378.344 78.2885 378.712 78.1729 379.175 78.1729Z" fill="white"/>
<path d="M389.301 87.411H386.958V81.8159L383.836 87.411H381.363V78.3027H383.705V83.8978L386.828 78.3027H389.301V87.411Z" fill="white"/>
<path d="M396.494 87.4111V81.816L393.371 87.4111H390.898V78.3028H393.241V83.8979L396.363 78.3028H398.836V87.4111H396.494ZM394.151 77.6522C393.024 77.6522 392.46 77.0884 392.46 75.9607V75.5703H394.151V75.8956C394.151 76.0257 394.195 76.1342 394.282 76.2209C394.368 76.3076 394.477 76.351 394.607 76.351H394.997C395.127 76.351 395.236 76.3076 395.322 76.2209C395.409 76.1342 395.453 76.0257 395.453 75.8956V75.5703H397.144V75.9607C397.144 77.0884 396.58 77.6522 395.453 77.6522H394.151Z" fill="white"/>
<path d="M406.564 87.5411C406.13 87.5411 405.682 87.4978 405.227 87.411V85.6544H406.398C406.651 85.6544 406.824 85.5532 406.918 85.358C406.961 85.2713 406.983 85.1773 406.983 85.0761C406.983 84.9749 406.961 84.8882 406.918 84.8087L403.34 78.3027H405.942L408.284 82.9219L410.236 78.3027H412.838L409.52 85.4592C409.217 86.146 408.848 86.6592 408.429 86.9917C407.959 87.3532 407.337 87.5411 406.571 87.5411H406.564Z" fill="white"/>
<path d="M421.336 87.411H418.994V83.7026H415.741V87.411H413.398V78.3027H415.741V81.881H418.994V78.3027H421.336V87.411Z" fill="white"/>
<path d="M430.867 87.411H428.525V81.8159L425.402 87.411H422.93V78.3027H425.272V83.8978L428.395 78.3027H430.867V87.411Z" fill="white"/>
<path d="M432.473 78.3026H437.677C438.53 78.3026 439.152 78.4978 439.55 78.8809C439.947 79.2641 440.15 79.8568 440.15 80.6448C440.15 81.1652 440.034 81.5845 439.81 81.9098C439.586 82.2351 439.304 82.4592 438.979 82.5893C439.68 82.7773 440.157 83.2471 440.41 83.9917C440.497 84.2592 440.54 84.57 440.54 84.9314C440.54 85.7844 440.338 86.4061 439.94 86.8037C439.542 87.2013 438.914 87.4037 438.068 87.4037H432.473V78.2954V78.3026ZM437.808 80.905C437.808 80.3845 437.547 80.1243 437.027 80.1243H434.815V81.9459H437.027C437.547 81.9459 437.808 81.6857 437.808 81.1652V80.905ZM438.198 84.5483C438.198 84.0278 437.938 83.7676 437.417 83.7676H434.815V85.5893H437.417C437.938 85.5893 438.198 85.329 438.198 84.8086V84.5483Z" fill="white"/>
<path d="M448.968 87.411H441.746V78.3027H448.968V80.1244H444.088V81.881H447.927V83.7026H444.088V85.5894H448.968V87.411Z" fill="white"/>
<path d="M450.047 78.3027H455.512C456.423 78.3027 457.08 78.5124 457.493 78.9172C457.905 79.3292 458.114 79.9943 458.114 80.9051V82.2063C458.114 83.1171 457.905 83.7822 457.493 84.1942C457.08 84.6062 456.423 84.8159 455.512 84.8159H452.389V87.4182H450.047V78.31V78.3027ZM455.772 80.9051C455.772 80.3846 455.512 80.1244 454.991 80.1244H452.389V82.987H454.991C455.512 82.987 455.772 82.7268 455.772 82.2063V80.9051Z" fill="white"/>
<path d="M466.357 87.2809C464.42 87.4544 462.815 87.5411 461.543 87.5411C460.69 87.5411 460.068 87.3387 459.67 86.9411C459.273 86.5436 459.07 85.9147 459.07 85.0689V80.9051C459.07 79.9943 459.28 79.3365 459.692 78.9172C460.104 78.5051 460.762 78.3027 461.673 78.3027H466.357V80.1244H462.193C461.673 80.1244 461.412 80.3846 461.412 80.9051V85.0689C461.412 85.2713 461.47 85.4303 461.586 85.546C461.702 85.6617 461.853 85.7195 462.034 85.7195C462.215 85.7195 462.417 85.7195 462.634 85.7195C462.851 85.7195 463.075 85.7122 463.314 85.6978C463.545 85.6906 463.783 85.6833 464.022 85.6689C464.261 85.6616 464.571 85.64 464.947 85.6183C465.323 85.5894 465.793 85.5604 466.357 85.5243V87.2809Z" fill="white"/>
<path d="M475.371 87.411H473.029V81.8159L469.906 87.411H467.434V78.3027H469.776V83.8978L472.899 78.3027H475.371V87.411Z" fill="white"/>
<path d="M481.395 87.411H479.053V80.1244H476.32V78.3027H484.127V80.1244H481.395V87.411Z" fill="white"/>
<path d="M492.3 87.411H485.078V78.3027H492.3V80.1244H487.42V81.881H491.259V83.7026H487.42V85.5894H492.3V87.411Z" fill="white"/>
<path d="M497.809 87.411H495.467V80.1244H492.734V78.3027H500.541V80.1244H497.809V87.411Z" fill="white"/>
<path d="M201.433 110.47H196.879V99.591L190.807 110.47H186V92.7598H190.554V103.639L196.626 92.7598H201.433V110.47Z" fill="white"/>
<path d="M219.7 100.603L216.158 106.928H212.616L209.074 100.603V110.47H204.52V92.7598H209.327L214.387 102.121L219.447 92.7598H224.254V110.47H219.7V100.603Z" fill="white"/>
<path d="M241.386 110.47H227.348V92.7598H241.386V96.3019H231.902V99.7211H239.369V103.263H231.902V106.935H241.386V110.478V110.47Z" fill="white"/>
<path d="M258.894 110.47H254.34V103.256H248.015V110.47H243.461V92.7598H248.015V99.7139H254.34V92.7598H258.894V110.47Z" fill="white"/>
<path d="M277.414 110.47H272.86V99.591L266.788 110.47H261.98V92.7598H266.535V103.639L272.607 92.7598H277.414V110.47Z" fill="white"/>
<path d="M292.699 110.47H288.145V92.7598H301.93V96.3019H292.699V110.47Z" fill="white"/>
<path d="M302.992 106.675H307.546V110.47H302.992V106.675Z" fill="white"/>
<path d="M309.871 92.7598H319.991C321.647 92.7598 322.861 93.1357 323.635 93.8875C324.408 94.6393 324.799 95.7814 324.799 97.3139C324.799 98.3259 324.582 99.15 324.141 99.7789C323.7 100.415 323.165 100.856 322.521 101.109C323.888 101.478 324.813 102.389 325.305 103.842C325.471 104.362 325.558 104.969 325.558 105.663C325.558 107.319 325.167 108.533 324.394 109.306C323.62 110.08 322.406 110.47 320.75 110.47H309.871V92.7598ZM320.244 97.8199C320.244 96.8079 319.738 96.3019 318.726 96.3019H314.425V99.844H318.726C319.738 99.844 320.244 99.338 320.244 98.3259V97.8199ZM321.003 104.904C321.003 103.892 320.497 103.386 319.485 103.386H314.425V106.928H319.485C320.497 106.928 321.003 106.422 321.003 105.41V104.904Z" fill="white"/>
<path d="M327.129 106.675H331.683V110.47H327.129V106.675Z" fill="white"/>
<path d="M357.086 110.47H352.532V96.3019H346.206V110.47H341.652V92.7598H357.086V110.47Z" fill="white"/>
<path d="M364.32 109.675C363.626 110.376 362.78 110.723 361.761 110.723C360.742 110.723 359.795 110.636 358.898 110.47V107.051H360.033C360.351 107.051 360.619 106.943 360.829 106.718C361.038 106.502 361.154 106.227 361.168 105.909L361.927 92.7524H375.973V110.463H371.419V96.2945H366.106L365.469 106.798C365.383 108.012 365 108.967 364.306 109.668L364.32 109.675Z" fill="white"/>
<path d="M393.112 110.47H379.066V92.7598H393.112V96.3019H383.628V99.7211H391.088V103.263H383.628V106.935H393.112V110.478V110.47Z" fill="white"/>
<path d="M405.432 92.7598H410.492L404.796 101.615L410.615 110.47H405.555L402.012 104.904L398.47 110.47H393.41L399.229 101.615L393.533 92.7598H398.564L402.005 98.3259L405.417 92.7598H405.432Z" fill="white"/>
<path d="M415.098 110.47H410.168L416.869 92.7598H421.929L428.638 110.47H423.708L422.565 107.304H416.24L415.105 110.47H415.098ZM417.375 104.022H421.423L419.399 98.0729L417.375 104.022Z" fill="white"/>
<path d="M445.383 110.47H440.829V103.256H434.503V110.47H429.949V92.7598H434.503V99.7139H440.829V92.7598H445.383V110.47Z" fill="white"/>
<path d="M464.41 105.663C464.41 107.434 464.013 108.721 463.21 109.523C462.408 110.326 461.121 110.723 459.35 110.723H453.025C451.254 110.723 449.967 110.326 449.165 109.523C448.362 108.721 447.965 107.434 447.965 105.663V97.567C447.965 95.7959 448.362 94.5092 449.165 93.7068C449.967 92.9044 451.254 92.5068 453.025 92.5068H459.35C461.121 92.5068 462.408 92.9044 463.21 93.7068C464.013 94.5092 464.41 95.7959 464.41 97.567V105.663ZM459.856 97.567C459.856 96.555 459.35 96.049 458.338 96.049H454.037C453.025 96.049 452.519 96.555 452.519 97.567V105.663C452.519 106.675 453.025 107.181 454.037 107.181H458.338C459.35 107.181 459.856 106.675 459.856 105.663V97.567Z" fill="white"/>
<path d="M466.992 92.7598H477.113C478.768 92.7598 479.982 93.1357 480.756 93.8875C481.529 94.6393 481.92 95.7814 481.92 97.3139C481.92 98.3259 481.703 99.15 481.262 99.7789C480.821 100.415 480.286 100.856 479.643 101.109C481.009 101.478 481.934 102.389 482.426 103.842C482.592 104.362 482.679 104.969 482.679 105.663C482.679 107.319 482.288 108.533 481.515 109.306C480.741 110.08 479.527 110.47 477.872 110.47H466.992V92.7598ZM477.366 97.8199C477.366 96.8079 476.859 96.3019 475.847 96.3019H471.546V99.844H475.847C476.859 99.844 477.366 99.338 477.366 98.3259V97.8199ZM478.125 104.904C478.125 103.892 477.619 103.386 476.606 103.386H471.546V106.928H476.606C477.619 106.928 478.125 106.422 478.125 105.41V104.904Z" fill="white"/>
<path d="M488.164 110.47H483.234L489.943 92.7598H495.003L501.711 110.47H496.774L495.639 107.304H489.314L488.172 110.47H488.164ZM490.441 104.022H494.49L492.466 98.0729L490.441 104.022Z" fill="white"/>
<path d="M502 68.1821H186.102V71.0736H502V68.1821Z" fill="white"/>
</svg>
