<svg width="485" height="185" viewBox="0 0 485 185" fill="none" xmlns="http://www.w3.org/2000/svg">
<g clip-path="url(#clip0_885_946)">
<path d="M32.6046 16.3425H79.7942C87.6591 16.3425 93.3518 18.1402 96.8723 21.7356C100.468 25.2561 102.265 30.9488 102.265 38.8137V50.0493C102.265 57.9142 100.468 63.6444 96.8723 67.2398C93.3518 70.7603 87.6591 72.5205 79.7942 72.5205H52.8287V94.9917H32.6046V16.3425ZM82.0413 38.8137C82.0413 34.3194 79.7942 32.0723 75.2999 32.0723H52.8287V56.7907H75.2999C79.7942 56.7907 82.0413 54.5435 82.0413 50.0493V38.8137ZM107.879 78.7001C126.155 79.8236 138.515 80.3854 144.956 80.3854C146.679 80.3854 148.027 79.8985 149.001 78.9248C150.05 77.8761 150.574 76.4904 150.574 74.7676V64.0938H120.687V48.3639H150.574V38.8137C150.574 34.3194 148.327 32.0723 143.833 32.0723H109.002V16.3425H148.327C156.192 16.3425 161.885 18.1402 165.405 21.7356C169 25.2561 170.798 30.9488 170.798 38.8137V74.7676C170.798 82.1082 169.075 87.5013 165.63 90.9469C162.184 94.3925 156.791 96.1153 149.451 96.1153C138.215 96.1153 124.358 95.3662 107.879 93.8681V78.7001ZM200.923 96.1153C197.178 96.1153 193.32 95.7407 189.35 94.9917V79.8236H199.462C201.634 79.8236 203.132 78.9622 203.956 77.2394C204.331 76.4904 204.518 75.7039 204.518 74.88C204.518 73.9811 204.331 73.1946 203.956 72.5205L173.058 16.3425H195.53L215.754 56.2289L232.607 16.3425H255.078L226.428 78.1383C223.806 84.0557 220.66 88.475 216.99 91.3963C212.945 94.5423 207.589 96.1153 200.923 96.1153ZM245.058 78.1383H265.283V94.9917H245.058V78.1383ZM275.421 16.3425H322.61C330.475 16.3425 336.168 18.1402 339.689 21.7356C343.284 25.2561 345.082 30.9488 345.082 38.8137V50.0493C345.082 57.9142 343.284 63.6444 339.689 67.2398C336.168 70.7603 330.475 72.5205 322.61 72.5205H295.645V94.9917H275.421V16.3425ZM324.858 38.8137C324.858 34.3194 322.61 32.0723 318.116 32.0723H295.645V56.7907H318.116C322.61 56.7907 324.858 54.5435 324.858 50.0493V38.8137ZM443.951 66.9027C443.951 74.7676 442.153 80.4978 438.557 84.0932C435.037 87.6137 429.344 89.3739 421.479 89.3739H407.997V97.2388H387.773V89.3739H374.29C366.425 89.3739 360.695 87.6137 357.099 84.0932C353.579 80.4978 351.819 74.7676 351.819 66.9027V44.4315C351.819 36.5666 353.579 30.8739 357.099 27.3534C360.695 23.758 366.425 21.9603 374.29 21.9603H387.773V14.0954H407.997V21.9603H421.479C429.344 21.9603 435.037 23.758 438.557 27.3534C442.153 30.8739 443.951 36.5666 443.951 44.4315V66.9027ZM423.726 44.4315C423.726 39.9372 421.479 37.6901 416.985 37.6901H406.873V73.6441H416.985C421.479 73.6441 423.726 71.3969 423.726 66.9027V44.4315ZM372.043 66.9027C372.043 71.3969 374.29 73.6441 378.784 73.6441H388.896V37.6901H378.784C374.29 37.6901 372.043 39.9372 372.043 44.4315V66.9027Z" fill="white"/>
<path d="M27.1172 119.62H461.044" stroke="white" stroke-width="6.7801" stroke-miterlimit="10"/>
<path d="M53.1548 156.916H47.0527V142.339L38.9165 156.916H32.4754V133.186H38.5775V147.763L46.7137 133.186H53.1548V156.916ZM77.579 143.695L72.833 152.17H68.0869L63.3408 143.695V156.916H57.2387V133.186H63.6798L70.4599 145.729L77.24 133.186H83.6811V156.916H77.579V143.695ZM106.577 156.916H87.7624V133.186H106.577V137.932H93.8645V142.508H103.865V147.254H93.8645V152.17H106.577V156.916ZM129.961 156.916H123.859V147.254H115.383V156.916H109.281V133.186H115.383V142.508H123.859V133.186H129.961V156.916ZM154.724 156.916H148.622V142.339L140.486 156.916H134.045V133.186H140.147V147.763L148.283 133.186H154.724V156.916ZM175.073 156.916H168.971V133.186H187.447V137.932H175.073V156.916ZM185.434 151.831H191.536V156.916H185.434V151.831ZM194.595 133.186H208.156C210.37 133.186 211.998 133.694 213.037 134.711C214.077 135.706 214.597 137.231 214.597 139.288C214.597 140.644 214.303 141.751 213.715 142.61C213.128 143.446 212.404 144.034 211.546 144.373C213.376 144.87 214.619 146.09 215.275 148.034C215.501 148.735 215.614 149.548 215.614 150.475C215.614 152.69 215.094 154.317 214.054 155.357C213.015 156.396 211.387 156.916 209.173 156.916H194.595V133.186ZM209.512 149.458C209.512 148.102 208.834 147.424 207.478 147.424H200.698V152.17H207.478C208.834 152.17 209.512 151.492 209.512 150.136V149.458ZM208.495 139.966C208.495 138.61 207.817 137.932 206.461 137.932H200.698V142.678H206.461C207.817 142.678 208.495 142 208.495 140.644V139.966ZM217.646 151.831H223.749V156.916H217.646V151.831ZM257.65 156.916H251.548V137.932H243.073V156.916H236.971V133.186H257.65V156.916ZM268.853 152C268.74 153.628 268.221 154.916 267.294 155.865C266.367 156.792 265.226 157.255 263.87 157.255C262.514 157.255 261.237 157.142 260.039 156.916V152.339H261.565C261.994 152.339 262.345 152.193 262.616 151.899C262.91 151.605 263.068 151.243 263.09 150.814L264.107 133.186H282.922V156.916H276.82V137.932H269.701L268.853 152ZM305.809 156.916H286.994V133.186H305.809V137.932H293.096V142.508H303.097V147.254H293.096V152.17H305.809V156.916ZM322.243 133.186H329.023L321.395 145.051L329.192 156.916H322.412L317.666 149.458L312.92 156.916H306.14L313.937 145.051L306.31 133.186H313.056L317.666 140.644L322.243 133.186ZM335.13 156.916H328.52L337.503 133.186H344.283L353.267 156.916H346.656L345.131 152.678H336.656L335.13 156.916ZM338.181 148.271H343.605L340.893 140.305L338.181 148.271ZM375.64 156.916H369.538V147.254H361.063V156.916H354.961V133.186H361.063V142.508H369.538V133.186H375.64V156.916ZM394.979 139.627C394.979 138.271 394.301 137.593 392.945 137.593H387.182C385.826 137.593 385.148 138.271 385.148 139.627V150.475C385.148 151.831 385.826 152.509 387.182 152.509H392.945C394.301 152.509 394.979 151.831 394.979 150.475V139.627ZM401.081 150.475C401.081 152.848 400.539 154.577 399.454 155.662C398.392 156.724 396.674 157.255 394.301 157.255H385.826C383.453 157.255 381.724 156.724 380.639 155.662C379.577 154.577 379.046 152.848 379.046 150.475V139.627C379.046 137.254 379.577 135.536 380.639 134.474C381.724 133.389 383.453 132.847 385.826 132.847H394.301C396.674 132.847 398.392 133.389 399.454 134.474C400.539 135.536 401.081 137.254 401.081 139.627V150.475ZM404.487 133.186H418.048C420.262 133.186 421.89 133.694 422.929 134.711C423.969 135.706 424.489 137.231 424.489 139.288C424.489 140.644 424.195 141.751 423.607 142.61C423.02 143.446 422.296 144.034 421.438 144.373C423.268 144.87 424.511 146.09 425.167 148.034C425.393 148.735 425.506 149.548 425.506 150.475C425.506 152.69 424.986 154.317 423.946 155.357C422.907 156.396 421.279 156.916 419.065 156.916H404.487V133.186ZM419.404 149.458C419.404 148.102 418.726 147.424 417.37 147.424H410.589V152.17H417.37C418.726 152.17 419.404 151.492 419.404 150.136V149.458ZM418.387 139.966C418.387 138.61 417.709 137.932 416.353 137.932H410.589V142.678H416.353C417.709 142.678 418.387 142 418.387 140.644V139.966ZM432.793 156.916H426.182L435.166 133.186H441.946L450.93 156.916H444.319L442.794 152.678H434.318L432.793 156.916ZM435.844 148.271H441.268L438.556 140.305L435.844 148.271Z" fill="white"/>
</g>
<defs>
<clipPath id="clip0_885_946">
<rect width="484.293" height="185" fill="white"/>
</clipPath>
</defs>
</svg>
