<svg width="269" height="269" fill="none" xmlns="http://www.w3.org/2000/svg"><path d="M175.102 19.425a122.039 122.039 0 00-62.964-4.82l7.357 39.245a82.11 82.11 0 0142.364 3.242l13.243-37.667z" fill="#6C38FF"/><path d="M110.236 2.88a133.869 133.869 0 0048.707 263.267l-7.849-42.424a90.725 90.725 0 01-91.256-140.62 90.724 90.724 0 0158.247-37.8L110.236 2.88z" fill="#4CD382"/><path d="M155.482 246.466a113.803 113.803 0 0074.541-173.964 113.806 113.806 0 00-57.51-45.236l-12.192 34.55a77.164 77.164 0 0131.716 124.349 77.171 77.171 0 01-43.264 24.281l6.709 36.02z" fill="#EF8E8E"/></svg>