<svg class="header-logo__desktop" width="215" height="130" fill="none" xmlns="http://www.w3.org/2000/svg"><path d="m59.58 63.23-.734-2.285h-.077l-.7 2.209-1.062 3.32h3.615L59.58 63.23Zm2.573 7.02c-.187 0-.296 0-.38-.232l-.772-2.286h-4.387l-.778 2.286a.301.301 0 0 1-.328.231h-1.036c-.2 0-.244-.14-.2-.295l3.52-9.985c.167-.5.308-.642.79-.642h.457c.56 0 .689.154.843.642l3.5 9.985c.064.141 0 .296-.187.296h-1.042ZM65.91 69.954c0 .25-.078.296-.31.296h-.771c-.219 0-.328-.045-.328-.296V62.03c0-1.425.643-2.671 2.63-2.671h4.17c.25 0 .295.11.295.328v.642c0 .25-.045.327-.296.327h-4.155c-.856 0-1.23.36-1.23 1.169l-.006 8.13ZM79.888 70.25h-4.33c-2.02 0-2.63-1.227-2.63-2.652v-5.561c0-1.432.733-2.678 2.63-2.678h4.253c.231 0 .276.11.276.328v.642c0 .23-.045.308-.276.308h-4.233c-.856 0-1.229.372-1.229 1.181v2.023h4.947c.231 0 .277.09.277.321v.59c0 .206-.045.316-.277.316h-4.947v2.703c0 .694.341 1.162 1.229 1.162h4.31c.244 0 .296.097.296.328v.642c0 .218-.052.327-.296.327M88.88 59.641c0-.218.09-.263.297-.263h.842c.212 0 .296.045.296.263v10.345c0 .218-.084.263-.296.263h-.843c-.205 0-.295-.045-.295-.263v-4.848h-5.494v4.848c0 .218-.077.263-.296.263h-.855c-.187 0-.296-.045-.296-.263V59.641c0-.218.11-.263.296-.263h.855c.219 0 .296.045.296.263V63.9h5.494V59.64ZM94.966 60.637H91.93c-.187 0-.219-.065-.219-.25v-.758c0-.174 0-.25.219-.25h7.635c.18 0 .213.076.213.25v.757c0 .186-.032.25-.213.25h-3.132v9.35c0 .218-.078.263-.277.263h-.888c-.206 0-.296-.045-.296-.263l-.006-9.35ZM107.433 68.528c.231-.096.308.033.353.122l.296.643c.129.244.065.308-.077.404a6.783 6.783 0 0 1-3.293.726c-2.908 0-4.638-1.695-4.638-5.452 0-3.5 1.929-5.747 4.747-5.747a6.148 6.148 0 0 1 2.895.642c.128.064.186.154.077.353l-.354.72c-.064.121-.109.186-.283.109a5.557 5.557 0 0 0-2.271-.482c-2.367 0-3.345 2.158-3.345 4.412 0 2.253.804 4.116 3.422 4.116.856-.01 1.7-.201 2.477-.559M112.315 60.637h-3.03c-.193 0-.219-.065-.219-.25v-.758c0-.174 0-.25.219-.25h7.649c.186 0 .218.076.218.25v.757c0 .186-.032.25-.218.25h-3.152v9.35c0 .218-.078.263-.283.263h-.888c-.2 0-.296-.045-.296-.263v-9.35ZM122.839 64.965h-2.895v4.007h2.895c1.788 0 2.219-1.214 2.219-2.036 0-1.162-.772-1.971-2.219-1.971Zm-2.895-1.195h2.863a1.596 1.596 0 0 0 1.769-1.63 1.467 1.467 0 0 0-1.647-1.464h-2.985v3.094Zm4.793.54a2.734 2.734 0 0 1 1.788 2.735c0 1.927-1.544 3.211-3.532 3.211h-3.692c-.56 0-.791-.231-.791-.777v-9.324c0-.546.206-.796.791-.796h3.474c1.897 0 3.28.777 3.28 2.671a2.373 2.373 0 0 1-1.318 2.158v.122ZM132.282 60.47c-2.226 0-3.216 1.971-3.216 4.283 0 2.568.746 4.385 3.171 4.385s3.216-2.086 3.216-4.321-.591-4.347-3.126-4.347h-.045Zm-.032 9.94c-3.049 0-4.593-2.004-4.593-5.593 0-3.59 1.93-5.625 4.625-5.625 3.049 0 4.638 2.1 4.638 5.56 0 3.622-1.608 5.658-4.67 5.658ZM61.748 83.362c.295-.122.386-.045.476.186l.527 1.104c.135.29.09.398-.096.508a6.732 6.732 0 0 1-3.551.86c-3.358 0-4.85-2.074-4.85-5.484s2-5.593 4.953-5.593a6.109 6.109 0 0 1 3.017.642c.231.129.263.206.128.54l-.482 1.06c-.103.275-.167.34-.457.23a5.798 5.798 0 0 0-2.097-.398c-1.692 0-2.573 1.503-2.573 3.507 0 2.003.643 3.358 2.663 3.358a6.444 6.444 0 0 0 2.367-.533M71.66 77.095h-2.785v8.418c0 .263-.064.321-.373.321h-1.647c-.244 0-.354-.077-.354-.321v-8.418h-2.72c-.22 0-.297-.097-.297-.309V75.42c0-.264.065-.328.296-.328h7.88c.245 0 .31.064.31.328v1.367c0 .212-.09.309-.31.309ZM77.63 77.165h-2v2.915h2.02a1.462 1.462 0 0 0 1.46-1.457 1.457 1.457 0 0 0-1.46-1.458h-.02Zm-2 8.348c0 .276-.058.321-.367.321h-1.621c-.245 0-.354-.077-.354-.321v-9.497c0-.565.186-.938.926-.938h3.77c2.232 0 3.602 1.413 3.602 3.365 0 1.047-.444 3.506-3.911 3.506h-2.046v3.564ZM84.48 81.698h2.42l-.592-1.926-.566-2.196h-.09l-.586 2.196-.585 1.926Zm2.973 1.927h-3.525l-.605 1.926c-.058.2-.135.29-.431.29H81.09c-.212 0-.257-.155-.212-.302l3.216-9.633c.212-.706.489-.828 1.12-.84h.925c.695 0 .953.09 1.197.84l3.216 9.632c.045.123 0 .302-.2.302h-1.832c-.232 0-.38 0-.444-.244l-.624-1.971ZM98.33 77.095h-2.785v8.418c0 .263-.058.321-.367.321h-1.646c-.251 0-.354-.077-.354-.321v-8.418H90.45c-.212 0-.29-.097-.29-.309V75.42c0-.264.059-.328.29-.328h7.88c.245 0 .31.064.31.328v1.367c0 .212-.09.309-.31.309ZM107.368 85.847h-4.586c-2.277 0-2.843-1.426-2.843-2.826v-5.098c0-1.458.752-2.845 2.83-2.845h4.419c.245 0 .29.077.29.373v1.284c0 .263-.058.34-.29.34h-3.911c-.804 0-1.003.411-1.003.95v1.182h4.419c.244 0 .289.077.289.373v1.194c0 .25-.045.353-.289.353h-4.419v1.753c0 .707.353.925 1.003.925h4.065c.258 0 .303.058.303.366v1.284c0 .25-.058.353-.303.353M111.736 85.513c0 .276-.045.321-.354.321h-1.634c-.244 0-.353-.077-.353-.321v-7.59c0-1.464.707-2.845 2.83-2.845h4.439c.257 0 .302.077.302.373v1.284c0 .263-.058.34-.302.34h-3.931c-.798 0-.997.398-.997.95v7.488ZM125 78.661l-1.37 2.306-2.573 4.206c-.354.571-.521.642-1.151.642h-.644c-.797 0-1.003-.411-1.003-1.06v-9.381c0-.219.096-.296.328-.296h1.647c.276 0 .321.064.321.296v6.928h.09l1.287-2.15 2.663-4.361c.354-.584.521-.694 1.132-.694h.643c.753 0 .998.277.998 1.08v9.4c0 .212-.091.29-.322.29h-1.647c-.276 0-.341-.059-.341-.29v-6.916H125ZM137.345 85.847h-1.679c-.245 0-.322-.077-.322-.29v-3.486c-.607.09-1.22.134-1.833.135-3.217 0-4.336-1.47-4.336-3.853v-2.992c0-.219.09-.296.322-.296h1.692c.263 0 .321.064.321.296v2.76c0 1.446.74 2.017 2.31 2.017a8.116 8.116 0 0 0 1.524-.141V75.36c0-.219.077-.296.322-.296h1.679c.276 0 .341.064.341.296v10.184c0 .231-.065.289-.341.289M147.393 85.847h-4.555c-2.277 0-2.843-1.426-2.843-2.826v-5.098c0-1.458.753-2.845 2.83-2.845h4.42c.244 0 .289.077.289.373v1.284c0 .263-.064.34-.289.34h-3.937c-.804 0-1.004.411-1.004.95v1.182h4.42c.244 0 .289.077.289.373v1.194c0 .25-.045.353-.289.353h-4.42v1.753c0 .707.354.925 1.004.925h4.059c.264 0 .309.058.309.366v1.284c0 .25-.058.353-.309.353M156.308 83.362c.29-.122.38-.045.476.186l.521 1.105c.142.288.097.398-.09.507a6.748 6.748 0 0 1-3.557.86c-3.351 0-4.85-2.074-4.85-5.484s2.007-5.593 4.959-5.593a6.119 6.119 0 0 1 3.017.643c.232.128.264.205.122.539l-.476 1.06c-.109.276-.167.34-.463.23a5.795 5.795 0 0 0-2.09-.398c-1.699 0-2.606 1.503-2.606 3.507 0 2.003.644 3.358 2.664 3.358a6.44 6.44 0 0 0 2.373-.533M165.263 80.12c1.061.352 1.325.95 1.556 1.855l.952 3.57c.033.103.045.302-.212.302h-1.788a.277.277 0 0 1-.309-.212l-.926-3.333c-.309-1.06-.843-1.284-1.93-1.284h-1.287v4.56c0 .218-.077.243-.276.243h-1.782c-.187 0-.277 0-.277-.244V75.303c0-.218.09-.25.277-.25h1.801c.199 0 .277.032.245.25v3.917h1.228a1.636 1.636 0 0 0 1.776-1.38l.688-2.601a.27.27 0 0 1 .309-.212h1.724c.263 0 .244.2.218.308l-.707 2.749a2.963 2.963 0 0 1-1.287 1.926l.007.11ZM176.114 78.661l-1.37 2.306-2.573 4.206c-.354.571-.521.642-1.158.642h-.611c-.804 0-1.003-.411-1.003-1.06v-9.381c0-.219.096-.296.321-.296h1.647c.283 0 .328.064.328.296v6.928h.09l1.287-2.15 2.663-4.361c.354-.584.527-.694 1.139-.694h.643c.752 0 .997.277.997 1.08v9.4c0 .212-.09.29-.322.29h-1.647c-.276 0-.34-.059-.34-.29v-6.916h-.091ZM184.406 82.161l-1.859 3.352a.643.643 0 0 1-.675.353h-1.898c-.18 0-.231-.167-.154-.302l3.28-5.29-3.004-4.881c-.09-.129-.045-.296.187-.296h1.801c.399 0 .508.065.643.34l1.692 2.993 1.679-2.992c.154-.276.264-.34.643-.34h1.769c.232 0 .264.166.168.308l-2.914 4.835 3.274 5.304a.183.183 0 0 1 .039.097.184.184 0 0 1-.091.18.19.19 0 0 1-.103.025h-1.929a.643.643 0 0 1-.644-.353l-1.904-3.333ZM61.921 95.188l-1.37 2.305-2.573 4.206c-.354.571-.521.68-1.151.68h-.644c-.797 0-.997-.417-.997-1.059V91.9c0-.219.09-.296.322-.296h1.647c.276 0 .321.065.321.296v6.91h.09l1.287-2.146 2.663-4.366c.354-.585.521-.694 1.139-.694h.643c.752 0 .997.276.997 1.08v9.4c0 .218-.09.295-.322.295h-1.646c-.277 0-.335-.064-.335-.295v-6.897h-.07ZM75.121 101.451h-1.614c-.264 0-.354-.077-.354-.328v-4.302h-4.175v4.302c0 .264-.058.328-.367.328h-1.634c-.244 0-.353-.077-.353-.328V91.016c0-.244.109-.32.353-.32h1.634c.309 0 .367.057.367.32v3.853h4.175v-3.853c0-.244.09-.32.353-.32h1.615c.309 0 .367.057.367.32v10.107c0 .264-.058.328-.367.328ZM84.526 94.259l-1.37 2.305-2.574 4.206c-.353.572-.527.681-1.157.681h-.611c-.805 0-1.004-.418-1.004-1.06v-9.42c0-.218.096-.295.322-.295h1.646c.277 0 .328.064.328.295v6.91h.09l1.287-2.145 2.663-4.367c.354-.584.528-.693 1.139-.693h.643c.76 0 1.004.276 1.004 1.079v9.4c0 .219-.09.296-.322.296h-1.647c-.276 0-.34-.064-.34-.296v-6.896h-.097ZM98.073 99.39l.766.077c.553.044.598.308.585.642l-.167 3.551c0 .199-.097.308-.296.308h-1.287c-.212 0-.29-.096-.302-.321l-.097-2.228H90.2c-.707 0-.984-.341-.984-1.034v-9.414c0-.218.09-.295.322-.295h1.692c.276 0 .34.064.34.295v8.463h4.137v-8.463c0-.218.09-.295.309-.295h1.691c.29 0 .341.064.341.295l.026 8.418ZM107.413 94.259l-1.37 2.305-2.618 4.206c-.354.572-.521.681-1.151.681h-.644c-.797 0-.997-.418-.997-1.06v-9.42c0-.218.09-.295.322-.295h1.647c.276 0 .321.064.321.295v6.91h.097l1.286-2.145 2.664-4.367c.353-.584.521-.693 1.138-.693h.643c.753 0 1.004.276 1.004 1.079v9.4c0 .219-.097.296-.328.296h-1.647c-.277 0-.334-.064-.334-.296v-6.896h-.033ZM114.457 97.303h2.419l-.586-1.927-.566-2.196h-.077l-.585 2.196-.605 1.927Zm2.972 1.926h-3.525l-.598 1.926c-.065.199-.135.296-.431.296h-1.801c-.213 0-.264-.154-.213-.308l3.217-9.633c.218-.712.495-.834 1.125-.847h.92c.695 0 .959.09 1.203.847l3.216 9.633a.22.22 0 0 1 .024.107.214.214 0 0 1-.223.201h-1.865c-.232 0-.386-.032-.444-.251l-.605-1.971ZM128.313 92.692h-2.785v8.431c0 .264-.065.328-.373.328h-1.647c-.245 0-.354-.077-.354-.328v-8.43h-2.721c-.219 0-.296-.097-.296-.31v-1.367c0-.263.065-.32.296-.32h7.88c.245 0 .309.057.309.32v1.368a.266.266 0 0 1-.076.232.272.272 0 0 1-.233.076ZM136.682 94.259l-1.37 2.305-2.573 4.206c-.354.572-.521.681-1.152.681h-.643c-.804 0-1.003-.418-1.003-1.06v-9.42c0-.218.096-.295.328-.295h1.646c.277 0 .322.064.322.295v6.91h.09l1.287-2.145 2.669-4.367c.354-.584.521-.693 1.139-.693h.643c.753 0 .997.276.997 1.079v9.4c0 .219-.09.296-.321.296h-1.647c-.277 0-.341-.064-.341-.296v-6.896h-.071ZM145.932 96.641h-2.213v2.748h2.213a1.386 1.386 0 0 0 1.517-1.374 1.38 1.38 0 0 0-1.517-1.374Zm-2.213-1.875h2.091a1.019 1.019 0 0 0 1.084-.621c.057-.139.082-.289.074-.438a.954.954 0 0 0-.313-.741.948.948 0 0 0-.768-.242h-2.168v2.042Zm4.503.796a2.688 2.688 0 0 1 1.647 2.614c0 1.926-1.615 3.275-3.679 3.275h-3.86c-.74 0-.926-.276-.926-.938v-8.88c0-.643.186-.957.926-.957h3.77c1.859 0 3.306.783 3.306 2.722a2.41 2.41 0 0 1-1.184 2.055v.11Z" fill="#00325F"/><path d="m29.86 31.516 19.267 11.077 9.623-5.568-28.89-5.51Z" fill="#A0CDEB"/><path d="m.971 26 19.266 11.077 9.624-5.561L.97 26Z" fill="#F7403A"/><path d="m20.25 48.186 19.266 11.077 9.623-5.561-28.889-5.516Z" fill="#E1E6E6"/><path d="m58.75 37.025-9.61 16.677-.013-11.11 9.623-5.567Z" fill="#0055A0"/><path d="m49.14 53.702-9.61 16.676-.014-11.115 9.623-5.561Z" fill="#AFAFAF"/><path d="m29.86 31.516-9.61 16.67-.013-11.11 9.624-5.56Z" fill="#AA272F"/></svg>