<svg width="346" height="70" viewBox="0 0 346 70" fill="none" xmlns="http://www.w3.org/2000/svg">
<g clip-path="url(#clip0_1945_1444)">
<path d="M333.667 14.0332L321.895 27.2252V14.0332H313.377V47.3352H321.895V33.3146L334.496 47.3352H345.5L330.002 29.8863L344.378 14.0332H333.667Z" fill="#EF3124"/>
<path d="M298.357 26.4534H286.586V14.0332H278.062V47.3352H286.586V34.2048H298.357V47.3352H306.876V14.0332H298.357V26.4534Z" fill="#EF3124"/>
<mask id="mask0_1945_1444" style="mask-type:luminance" maskUnits="userSpaceOnUse" x="0" y="0" width="346" height="70">
<path d="M345.5 0.338867H0.5V69.6609H345.5V0.338867Z" fill="white"/>
</mask>
<g mask="url(#mask0_1945_1444)">
<path d="M51.0804 32.074C50.8768 38.2864 50.0765 39.527 46.582 39.527V47.3352H47.8842C56.5921 47.3352 58.685 42.8369 59.007 32.8411L59.3621 21.7798H67.5254V47.3352H76.0439V14.0332H51.6723L51.0804 32.074Z" fill="#EF3124"/>
<path d="M97.2201 24.1474H91.0692V14.0332H82.5508V47.3352H97.3385C106.629 47.3352 109.939 41.3027 109.939 35.6206C109.939 28.2859 105.322 24.1427 97.2201 24.1427M96.5714 39.9958H91.0692V31.5342H96.5714C99.5309 31.5342 101.302 32.8363 101.302 35.6158C101.302 38.6321 99.5877 39.9958 96.5714 39.9958Z" fill="#EF3124"/>
<path d="M137.681 13.2608V0.897461H129.163V13.2608C119.404 14.0895 112.836 21.0122 112.836 30.6529C112.836 40.2936 119.404 47.2778 129.163 48.1065V60.6498H137.681V48.1065C147.44 47.3394 154.008 40.3551 154.008 30.6529C154.008 20.9506 147.44 14.0279 137.681 13.2608ZM129.163 40.0615C124.432 39.4081 121.473 35.8615 121.473 30.6576C121.473 25.4537 124.432 21.9024 129.163 21.2537V40.0663V40.0615ZM137.681 40.0615V21.249C142.411 21.8977 145.371 25.449 145.371 30.6529C145.371 35.8568 142.411 39.4081 137.681 40.0568" fill="#EF3124"/>
<path d="M185.956 37.1023V25.9227C185.956 17.7594 180.752 12.6123 171.997 12.6123C163.242 12.6123 158.156 18.0577 157.74 23.7351H166.376C166.67 22.4945 167.972 20.3637 171.997 20.3637C175.312 20.3637 177.438 21.9026 177.438 25.9227H168.976C161.405 25.9227 156.906 29.886 156.906 36.5104C156.906 43.1348 161.826 48.1635 168.914 48.1635C174.114 48.1635 177.002 45.706 178.262 43.8451C179.384 46.0943 181.87 47.3349 185.123 47.3349H188.082V39.645C186.543 39.645 185.951 38.9348 185.951 37.1023M177.433 34.9147C177.433 38.7596 174.71 40.9472 171.164 40.9472C168.086 40.9472 165.661 39.825 165.661 36.5104C165.661 33.1958 168.323 32.727 170.629 32.727H177.433V34.9147Z" fill="#EF3124"/>
<path d="M222.459 18.763H212.936V9.3591H235.002V0.897461H204.006V47.3347H222.463C232.696 47.3347 238.553 42.2492 238.553 32.9021C238.553 24.09 232.696 18.763 222.463 18.763M222.051 38.9346H212.941V26.8648H222.051C226.782 26.8648 229.448 29.0524 229.448 32.8973C229.448 36.7422 226.786 38.9299 222.051 38.9299" fill="#EF3124"/>
<path d="M271.144 37.1023V25.9227C271.144 17.7594 265.94 12.6123 257.185 12.6123C248.429 12.6123 243.344 18.0577 242.927 23.7351H251.564C251.858 22.4945 253.16 20.3637 257.185 20.3637C260.499 20.3637 262.625 21.9026 262.625 25.9227H254.164C246.592 25.9227 242.094 29.886 242.094 36.5104C242.094 43.1348 247.014 48.1635 254.102 48.1635C259.301 48.1635 262.19 45.706 263.449 43.8451C264.571 46.0943 267.057 47.3349 270.31 47.3349H273.27V39.645C271.731 39.645 271.139 38.9348 271.139 37.1023M262.62 34.9147C262.62 38.7596 259.898 40.9472 256.351 40.9472C253.273 40.9472 250.849 39.825 250.849 36.5104C250.849 33.1958 253.51 32.727 255.816 32.727H262.62V34.9147Z" fill="#EF3124"/>
<path d="M46.0517 60.1953H0.5V69.6608H46.0517V60.1953Z" fill="#EF3124"/>
<path d="M31.5578 7.27107C30.2557 3.39775 28.7594 0.338867 23.6312 0.338867C18.5031 0.338867 16.9074 3.38354 15.5437 7.27107L1.44727 47.3348H10.7944L14.0474 37.8125H32.0313L35.0476 47.3348H44.9866L31.5578 7.27107ZM16.7701 29.7676L23.1577 10.7798H23.3945L29.427 29.7676H16.7653H16.7701Z" fill="#EF3124"/>
</g>
</g>
<defs>
<clipPath id="clip0_1945_1444">
<rect width="345" height="69.322" fill="white" transform="translate(0.5 0.338867)"/>
</clipPath>
</defs>
</svg>
