<svg xmlns="http://www.w3.org/2000/svg" width="218" height="88" fill="none">
  <g clip-path="url(#a)">
    <mask id="b" width="218" height="88" x="0" y="0" maskUnits="userSpaceOnUse" style="mask-type:luminance">
      <path fill="#fff" d="M217.292.5H.662109v87H217.292V.5Z"/>
    </mask>
    <g fill="#95192F" mask="url(#b)">
      <path d="m40.5137 29.5 5.4337 5.789 5.4339-5.789v30.6477L46.3097 74.45l-5.796-14.3023V29.5Z"/>
      <path fill-rule="evenodd" d="m38.0108 9.20117-6.919 6.92363 6.919 6.9236 6.9189-6.9236-6.9189-6.92363Zm-.0361 8.69923c1.0003 0 1.8113-.8115 1.8113-1.8125s-.811-1.8125-1.8113-1.8125c-1.0004 0-1.8114.8115-1.8114 1.8125s.811 1.8125 1.8114 1.8125Zm8.0089-16.67384-6.9191 6.9236 6.9191 6.92364 6.919-6.92364-6.919-6.9236Zm-.0361 8.69928c1.0003 0 1.8112-.81149 1.8112-1.8125 0-1.001-.8109-1.81249-1.8112-1.81249s-1.8113.81149-1.8113 1.81249c0 1.00101.811 1.8125 1.8113 1.8125Zm8.0008-.72467-6.919 6.92363 6.919 6.9236 6.9189-6.9236-6.9189-6.92363Zm-.0361 8.69923c1.0003 0 1.8113-.8115 1.8113-1.8125s-.811-1.8125-1.8113-1.8125c-1.0004 0-1.8112.8115-1.8112 1.8125s.8108 1.8125 1.8112 1.8125Zm-7.9286-.7266-6.9191 6.9236 6.9191 6.9238 6.919-6.9238-6.919-6.9236Zm-.0361 8.6994c1.0003 0 1.8112-.8115 1.8112-1.8125s-.8109-1.8125-1.8112-1.8125-1.8113.8115-1.8113 1.8125.811 1.8125 1.8113 1.8125Z" clip-rule="evenodd"/>
      <path d="M29.6427 67.1995V18.625l7.9697 7.975v44.9495c0 8.4084-6.8119 15.2248-15.2148 15.2248H.662109l11.592191-8.7h6.5206c6.0022 0 10.8678-4.8683 10.8678-10.8748Zm32.6023 0V18.625L54.2754 26.6v44.9495c0 8.4084 6.8119 15.2248 15.2148 15.2248h21.7355l-11.5923-8.7h-6.5207c-6.002 0-10.8677-4.8683-10.8677-10.8748Z"/>
      <path fill-rule="evenodd" d="M96.0098 86.7765V1.22656h3.48V86.7765h-3.48Z" clip-rule="evenodd"/>
      <path d="M117.609 4.35144c1.109.9918 1.663 2.25767 1.663 3.79757 0 1.5399-.554 2.81229-1.663 3.81709-1.108.9918-2.601 1.5986-4.479 1.8205v1.6052h-3.052v-1.6052c-1.878-.2219-3.371-.8287-4.48-1.8205-1.108-1.0048-1.662-2.27719-1.662-3.81709 0-1.5399.554-2.80577 1.662-3.79757 1.109-1.00485 2.602-1.6182 4.48-1.84005V.90625h3.052v1.60514c1.878.22185 3.371.8352 4.479 1.84005Zm-7.531 1.03748c-2.008.27405-3.012 1.19409-3.012 2.76009 0 1.566 1.004 2.48599 3.012 2.76009V5.38892Zm3.052 5.52018c2.008-.2741 3.012-1.19409 3.012-2.76009 0-1.566-1.004-2.48604-3.012-2.76009v5.52018Zm10.841 1.0766h5.478v3.0145h-8.608V1.29775h8.51v3.01454h-5.38v2.27072h4.891v2.9754h-4.891v2.42729Zm18.002 0h1.468v5.6376h-3.13v-2.6231h-6.847v2.6231h-3.13v-5.6376h1.389c.717-1.0309 1.076-2.54474 1.076-4.54139V1.29775h9.174V11.9857Zm-6.925 0h3.796V4.23399h-2.915v3.24945c0 1.94445-.294 3.44526-.881 4.50226Zm13.185 0h5.477v3.0145h-8.607V1.29775h8.509v3.01454h-5.379v2.27072h4.89v2.9754h-4.89v2.42729ZM160.66 1.29775c1.343 0 2.478.45675 3.404 1.37024.926.9135 1.389 2.02275 1.389 3.32775 0 1.30502-.463 2.41425-1.389 3.32775-.926.91351-2.061 1.37031-3.404 1.37031h-2.054v4.3064h-3.13V1.29775h5.184Zm0 6.45974c.483 0 .88-.16963 1.193-.50893.313-.3393.47-.75692.47-1.25282s-.157-.9135-.47-1.2528c-.313-.33928-.71-.50895-1.193-.50895h-2.054v3.5235h2.054Zm13.684 7.24271-.684-2.1532h-5.087l-.685 2.1532h-3.423l4.656-13.70245h3.99l4.657 13.70245h-3.424Zm-4.831-5.08946h3.208l-1.605-5.03077-1.603 5.03077Zm19.791 2.07496h1.466v5.6376h-3.129v-2.6231h-8.705V1.29775h3.129V11.9857h4.108V1.29775h3.131V11.9857Zm10.766 3.0145V7.56174l-5.281 7.43846h-2.348V1.29775h3.13v7.43849l5.281-7.43849h2.348V15.0002h-3.13Zm15.355-13.70245V15.0002h-3.131V10.498h-.997l-2.914 4.5022h-3.522l3.208-4.8937c-.835-.35236-1.512-.90046-2.034-1.64431-.521-.75688-.783-1.57905-.783-2.46645 0-1.305.456-2.41425 1.369-3.32775.915-.91349 2.022-1.37024 3.327-1.37024h5.477Zm-5.477 6.45974h2.346v-3.5235h-2.346c-.43 0-.803.16967-1.116.50895-.299.3393-.449.7569-.449 1.2528 0 .4959.15.91352.449 1.25282.313.3393.686.50893 1.116.50893ZM112.543 25.2228v3.0145h-4.695v10.688h-3.13V25.2228h7.825Zm12.162 11.9211c-1.383 1.3703-3.065 2.0554-5.047 2.0554-1.983 0-3.665-.6851-5.047-2.0554-1.383-1.3702-2.074-3.0601-2.074-5.0699 0-2.0097.691-3.6996 2.074-5.0699 1.382-1.3702 3.064-2.0553 5.047-2.0553 1.982 0 3.664.6851 5.047 2.0553 1.382 1.3703 2.073 3.0602 2.073 5.0699 0 2.0098-.691 3.6997-2.073 5.0699Zm-7.903-2.1336c.769.7568 1.721 1.1353 2.856 1.1353 1.134 0 2.08-.3785 2.836-1.1353.77-.757 1.154-1.7357 1.154-2.9363 0-1.2007-.384-2.1794-1.154-2.9362-.756-.757-1.702-1.1355-2.836-1.1355-1.135 0-2.087.3785-2.856 1.1355-.757.7568-1.135 1.7355-1.135 2.9362 0 1.2006.378 2.1793 1.135 2.9363Zm19.172-9.7875h3.13v13.7025h-3.13v-5.442h-4.304v5.442h-3.13V25.2228h3.13v5.246h4.304v-5.246Zm17.061 11.9211c-1.383 1.3703-3.065 2.0554-5.047 2.0554-1.983 0-3.665-.6851-5.047-2.0554-1.383-1.3702-2.074-3.0601-2.074-5.0699 0-2.0097.691-3.6996 2.074-5.0699 1.382-1.3702 3.064-2.0553 5.047-2.0553 1.982 0 3.664.6851 5.047 2.0553 1.382 1.3703 2.073 3.0602 2.073 5.0699 0 2.0098-.691 3.6997-2.073 5.0699Zm-7.903-2.1336c.769.7568 1.721 1.1353 2.856 1.1353 1.134 0 2.08-.3785 2.836-1.1353.769-.757 1.154-1.7357 1.154-2.9363 0-1.2007-.385-2.1794-1.154-2.9362-.756-.757-1.702-1.1355-2.836-1.1355-1.135 0-2.087.3785-2.856 1.1355-.757.7568-1.135 1.7355-1.135 2.9362 0 1.2006.378 2.1793 1.135 2.9363Zm22.81 3.915h-3.56L160 32.583v6.3423h-3.13V25.2228H160v5.9507l4.186-5.9507h3.56l-4.616 6.6751 4.812 7.0274Zm-52.465 20.9105h1.467v5.6375h-3.13v-2.623h-6.846v2.623h-3.13v-5.6375h1.389c.717-1.031 1.076-2.5448 1.076-4.5415v-6.1465h9.174v10.688Zm-6.925 0h3.795V52.084h-2.914v3.2495c0 1.9443-.294 3.4451-.881 4.5023Zm15.238-10.688c1.344 0 2.478.4567 3.404 1.3702.926.9135 1.389 2.0228 1.389 3.3278 0 1.305-.463 2.4142-1.389 3.3277-.926.9135-2.06 1.3703-3.404 1.3703h-2.054v4.3065h-3.13V49.1478h5.184Zm0 6.4597c.483 0 .881-.1697 1.194-.509.313-.3392.469-.7569.469-1.2527 0-.496-.156-.9135-.469-1.2528-.313-.3394-.711-.509-1.194-.509h-2.054v3.5235h2.054Zm17.84 5.4614c-1.382 1.3703-3.065 2.0554-5.047 2.0554-1.982 0-3.665-.6851-5.047-2.0554-1.382-1.3702-2.073-3.0601-2.073-5.0699 0-2.0097.691-3.6996 2.073-5.0699 1.382-1.3702 3.065-2.0553 5.047-2.0553 1.982 0 3.665.6851 5.047 2.0553 1.382 1.3703 2.074 3.0602 2.074 5.0699 0 2.0098-.692 3.6997-2.074 5.0699Zm-7.903-2.1336c.769.7568 1.721 1.1353 2.856 1.1353 1.135 0 2.08-.3785 2.837-1.1353.769-.757 1.154-1.7357 1.154-2.9363 0-1.2007-.385-2.1794-1.154-2.9362-.757-.757-1.702-1.1355-2.837-1.1355-1.135 0-2.087.3785-2.856 1.1355-.756.7568-1.135 1.7355-1.135 2.9362 0 1.2006.379 2.1793 1.135 2.9363Zm19.172-9.7875h3.13v13.7025h-3.13v-5.442h-4.304v5.442h-3.129V49.1478h3.129v5.246h4.304v-5.246Zm17.06 11.9211c-1.381 1.3703-3.063 2.0554-5.046 2.0554-1.982 0-3.664-.6851-5.047-2.0554-1.382-1.3702-2.073-3.0601-2.073-5.0699 0-2.0097.691-3.6996 2.073-5.0699 1.383-1.3702 3.065-2.0553 5.047-2.0553 1.983 0 3.665.6851 5.046 2.0553 1.383 1.3703 2.075 3.0602 2.075 5.0699 0 2.0098-.692 3.6997-2.075 5.0699Zm-7.902-2.1336c.769.7568 1.721 1.1353 2.856 1.1353 1.135 0 2.08-.3785 2.837-1.1353.769-.757 1.153-1.7357 1.153-2.9363 0-1.2007-.384-2.1794-1.153-2.9362-.757-.757-1.702-1.1355-2.837-1.1355-1.135 0-2.087.3785-2.856 1.1355-.756.7568-1.135 1.7355-1.135 2.9362 0 1.2006.379 2.1793 1.135 2.9363Zm20.229-3.1908c1.122.7177 1.682 1.7487 1.682 3.0929 0 1.1875-.423 2.1533-1.27 2.897-.849.744-1.898 1.1159-3.151 1.1159h-5.75V49.1478h5.36c1.226 0 2.249.3653 3.071 1.0962.834.7178 1.251 1.6573 1.251 2.8188 0 1.0962-.397 1.9901-1.193 2.6817Zm-3.129-3.6605h-2.231v2.4273h2.231c.351 0 .637-.1109.86-.3328.222-.2348.333-.5285.333-.8809 0-.3523-.111-.6393-.333-.8613-.223-.2348-.509-.3523-.86-.3523Zm.39 7.83c.392 0 .706-.1175.94-.3524.234-.2478.352-.5677.352-.9592 0-.3915-.118-.7047-.352-.9395-.234-.248-.548-.3719-.94-.3719h-2.621v2.623h2.621Zm-61.135 13.1588v13.7025h-3.13v-7.9671l-3.541 5.8138h-.352l-3.541-5.8138v7.9671h-3.13V73.0728h3.13l3.717 6.0878 3.717-6.0878h3.13Zm13.933 11.9211c-1.382 1.3703-3.064 2.0554-5.047 2.0554-1.982 0-3.664-.6851-5.047-2.0554-1.382-1.3702-2.073-3.0601-2.073-5.0699 0-2.0097.691-3.6996 2.073-5.0699 1.383-1.3702 3.065-2.0553 5.047-2.0553 1.983 0 3.665.6851 5.047 2.0553 1.383 1.3703 2.074 3.0602 2.074 5.0699 0 2.0098-.691 3.6997-2.074 5.0699Zm-7.903-2.1336c.77.7568 1.722 1.1353 2.856 1.1353 1.135 0 2.08-.3785 2.837-1.1353.769-.757 1.154-1.7357 1.154-2.9363 0-1.2007-.385-2.1794-1.154-2.9362-.757-.757-1.702-1.1355-2.837-1.1355-1.134 0-2.086.3785-2.856 1.1355-.756.7568-1.134 1.7355-1.134 2.9362 0 1.2006.378 2.1793 1.134 2.9363Zm18.273 4.189c-2.047 0-3.749-.6785-5.105-2.0358-1.344-1.3702-2.015-3.0667-2.015-5.0895 0-2.0227.671-3.7128 2.015-5.0699 1.356-1.3702 3.058-2.0553 5.105-2.0553 1.226 0 2.361.287 3.404.8612 1.043.5611 1.865 1.3311 2.465 2.3098l-2.7 1.566c-.3-.535-.73-.9461-1.291-1.2331-.56-.3003-1.186-.4504-1.878-.4504-1.213 0-2.184.3721-2.914 1.1159-.718.7438-1.076 1.7291-1.076 2.9558 0 1.2268.358 2.2119 1.076 2.9559.73.7438 1.701 1.1157 2.914 1.1157.692 0 1.318-.1501 1.878-.4502.574-.3002 1.004-.7113 1.291-1.2333l2.7 1.566c-.587.9787-1.402 1.7553-2.445 2.3295-1.044.5611-2.185.8417-3.424.8417Zm18.407-.274h-3.56l-4.382-6.3423v6.3423h-3.13V73.0728h3.13v5.9507l4.186-5.9507h3.561l-4.617 6.6751 4.812 7.0274Zm9.664-7.1058c1.121.7177 1.683 1.7487 1.683 3.0929 0 1.1875-.424 2.1532-1.272 2.897-.847.744-1.899 1.1159-3.149 1.1159h-5.752V73.0728h5.36c1.226 0 2.25.3653 3.071 1.0962.835.7178 1.252 1.6573 1.252 2.8188 0 1.0962-.397 1.9901-1.193 2.6817Zm-3.13-3.6605h-2.23v2.4273h2.23c.352 0 .639-.1109.861-.3328.221-.2348.332-.5285.332-.8809 0-.3523-.111-.6393-.332-.8613-.222-.2348-.509-.3523-.861-.3523Zm.392 7.83c.39 0 .703-.1175.939-.3524.234-.2478.351-.5677.351-.9592 0-.3915-.117-.7047-.351-.9395-.236-.248-.549-.3719-.939-.3719h-2.622v2.623h2.622Zm5.978 2.9363V73.0728h3.129v4.3065h2.055c1.342 0 2.478.4567 3.404 1.3702.924.9135 1.387 2.0228 1.387 3.3278 0 1.305-.463 2.4142-1.387 3.3277-.926.9135-2.062 1.3703-3.404 1.3703h-5.184Zm11.15 0V73.0728h3.129v13.7025h-3.129Zm-8.021-2.9363h2.055c.482 0 .879-.1697 1.192-.509.314-.3392.47-.7569.47-1.2527 0-.496-.156-.9135-.47-1.2528-.313-.3394-.71-.509-1.192-.509h-2.055v3.5235Z"/>
    </g>
  </g>
  <defs>
    <clipPath id="a">
      <path fill="#fff" d="M0 0h216.676v87H0z" transform="translate(.662109 .5)"/>
    </clipPath>
  </defs>
</svg>