<svg width="118" height="118" viewBox="0 0 118 118" fill="none" xmlns="http://www.w3.org/2000/svg">
<g clip-path="url(#clip0_1953_1521)">
<mask id="mask0_1953_1521" style="mask-type:luminance" maskUnits="userSpaceOnUse" x="0" y="0" width="118" height="118">
<path d="M117.205 0.5H0.5V117.5H117.205V0.5Z" fill="white"/>
</mask>
<g mask="url(#mask0_1953_1521)">
<path fill-rule="evenodd" clip-rule="evenodd" d="M108.414 72.0228V98.9393H60.3711C61.8671 97.2317 63.6013 95.2935 65.4879 93.2629H103.735V71.1113L104.583 72.0228H108.414Z" fill="#1D1D1B"/>
<path fill-rule="evenodd" clip-rule="evenodd" d="M103.789 0.5H108.467V24.44C107.485 26.962 105.839 29.0189 103.789 30.2894V0.5Z" fill="#1D1D1B"/>
<path d="M54.0821 15.1294C54.0821 18.2444 52.4147 20.0443 48.8796 20.0443C45.3445 20.0443 43.6485 18.2444 43.6485 15.1294V0.903807H39.0653V15.5332C39.0653 22.8593 43.8295 25.2475 48.8796 25.2475C53.9298 25.2475 58.7416 22.8593 58.7416 15.5332V0.903807H54.0821V15.1294ZM76.9505 3.22281C74.7018 1.06533 71.6622 0.5 68.8894 0.5C65.2495 0.5 60.6759 2.28829 60.6759 7.89542C60.6759 16.26 73.0628 14.1371 73.0628 18.0829C73.0628 20.1365 70.6998 20.2404 69.3087 20.2404C67.0027 20.2404 64.6206 19.3405 63.3342 16.9176L59.9612 20.7018C61.9622 24.1631 65.7736 25.2475 69.0609 25.2475C72.8723 25.2475 77.6365 23.8169 77.6365 17.9791C77.6365 8.82995 65.383 11.4835 65.383 7.43393C65.383 5.61104 67.8222 5.47259 68.8418 5.47259C70.8425 5.44518 72.7854 6.28395 74.3205 7.83774L76.9505 3.22281ZM90.0997 24.6823V6.03792H97.1889V0.903807H78.3607V6.03792H85.4308V24.6823H90.0997ZM31.8809 16.5253C31.8809 19.1097 30.5373 20.2404 28.6793 20.2404C27.9416 20.2844 27.2081 20.0817 26.5593 19.6544C25.9104 19.2269 25.3714 18.5914 25.0013 17.8175L21.5234 21.7286C23.1433 24.4168 26.4306 25.2475 28.8985 25.2475C33.3577 25.2475 36.5213 23.3554 36.5213 16.1562V0.903807H31.8809V16.5253Z" fill="#1D1D1B"/>
<path d="M112.259 1.64258C115.832 17.4025 113.298 30.4052 104.332 34.87H22.3296H21.6818C21.7317 40.2348 21.3133 45.591 20.4335 50.8493C18.5279 60.9675 15.0499 72.7701 10.3238 75.0777L10.1428 75.17L0.5 98.81H9.82836L9.97128 98.5445C10.038 98.4291 15.9456 87.8956 22.9872 85.4266C26.6791 84.0722 30.0925 81.7868 33.0026 78.7203C35.9127 75.6541 38.2537 71.8764 39.8716 67.636L56.6989 76.416L49.1999 98.81H55.2029L55.3458 98.6368C55.5745 98.36 78.3379 71.1319 90.5058 67.4861C93.6149 66.4684 96.8144 65.9106 100.034 65.8247C104.427 65.8247 105.932 67.3361 105.942 67.3476L106.085 67.5091H113.955L110.144 40.8925C119.815 27.89 118.519 11.034 112.24 1.66565" fill="#1D1D1B"/>
<path fill-rule="evenodd" clip-rule="evenodd" d="M105.354 40.7188H27.4207C26.8971 45.2623 26.1171 49.757 25.0863 54.1713C23.4855 60.7475 19.474 75.123 13.8999 79.5534L9.64062 89.937C11.5249 87.4424 13.6271 85.2026 15.9103 83.2569C17.7069 81.7489 19.683 80.5818 21.7703 79.7957C24.7854 78.688 27.5732 76.8214 29.951 74.3182C32.3286 71.815 34.2427 68.7316 35.5676 65.2702L37.4732 60.0091L63.0095 73.3233L58.3406 87.3411C62.2472 83.0492 66.2874 78.8843 70.4607 74.9731C75.6442 70.1274 83.0479 63.7126 89.4319 61.7744C92.9241 60.6402 96.5174 60.0242 100.132 59.94C102.679 59.8711 105.211 60.4447 107.565 61.6245H108.336L105.354 40.7188Z" fill="#E30613"/>
<path fill-rule="evenodd" clip-rule="evenodd" d="M102.686 54.2732C100.578 53.5781 98.7765 51.919 97.66 49.646C96.5437 47.373 96.2001 44.6637 96.7019 42.0898C98.8092 42.785 100.611 44.444 101.728 46.717C102.844 48.9901 103.188 51.6993 102.686 54.2732Z" fill="white"/>
<path fill-rule="evenodd" clip-rule="evenodd" d="M101.184 47.0459C101.363 47.4152 101.448 47.8401 101.428 48.2674C101.407 48.6948 101.283 49.1053 101.071 49.4474C100.858 49.7894 100.567 50.0477 100.233 50.1897C99.8999 50.3317 99.5392 50.3512 99.1967 50.2455C98.8541 50.1397 98.5451 49.9138 98.3084 49.5958C98.0717 49.2779 97.918 48.8823 97.8667 48.4587C97.8153 48.0353 97.8685 47.6029 98.0198 47.216C98.1709 46.8291 98.4132 46.505 98.7162 46.2846C98.9192 46.1369 99.1444 46.0393 99.3787 45.9976C99.6131 45.9559 99.8519 45.971 100.081 46.0418C100.311 46.1126 100.527 46.2378 100.716 46.4102C100.905 46.5825 101.064 46.7986 101.184 47.0459Z" fill="#1D1D1B"/>
<path d="M21.0664 53.8378C26.1927 55.7761 30.595 56.8375 36.7979 54.4146C41.5914 52.4309 45.8078 48.8083 48.9371 43.985C50.3057 41.8939 51.3985 39.5587 52.1768 37.0625L47.9367 42.2428C45.7738 44.481 43.868 47.1116 41.0095 47.8961C39.9292 48.2057 38.8227 48.3606 37.7127 48.3575C32.3481 48.3575 25.7735 43.385 22.105 37.674H21.4761L21.0664 53.8378Z" fill="#1D1D1B"/>
<path d="M21.0664 44.7109C24.5403 48.4896 29.0604 50.5486 33.7297 50.4796C35.5731 50.4464 37.4001 50.057 39.1419 49.326C43.7728 47.4569 47.0982 44.8263 49.2802 41.3076L52.1387 36.6926L48.5751 40.4422C46.4281 42.706 43.8519 44.2913 41.0762 45.0571C39.9948 45.3574 38.8888 45.5083 37.7794 45.5071C32.4148 45.5071 25.8593 40.4884 22.1813 34.7773H21.5428L21.0664 44.7109Z" fill="white"/>
<path d="M6.50193 110.773H3.37659L3.38612 117.234H1.87109V109.273H6.51146L6.50193 110.773Z" fill="#1D1D1B"/>
<path d="M12.167 109.632C12.5591 109.846 12.8905 110.195 13.1199 110.636C13.3567 111.095 13.476 111.629 13.4628 112.17C13.4719 112.707 13.3528 113.236 13.1199 113.693C12.8905 114.133 12.5591 114.483 12.167 114.697C11.6876 114.939 11.1714 115.057 10.652 115.043H9.32753V117.235H7.8125V109.274H10.671C11.1912 109.263 11.7074 109.385 12.1861 109.632H12.167ZM11.6239 113.185C11.7441 113.061 11.8393 112.904 11.902 112.728C11.9648 112.552 11.9935 112.361 11.986 112.17C11.995 111.975 11.9671 111.78 11.9043 111.6C11.8416 111.42 11.7457 111.26 11.6239 111.132C11.3213 110.873 10.955 110.747 10.5853 110.774H9.34658V113.543H10.5853C10.955 113.57 11.3213 113.444 11.6239 113.185Z" fill="#1D1D1B"/>
<path d="M20.3952 109.273L17.5939 115.573C17.3749 116.119 17.0476 116.591 16.6411 116.946C16.282 117.255 15.8523 117.42 15.4119 117.419C15.0446 117.413 14.6817 117.319 14.3448 117.142L14.7068 115.746C14.9196 115.83 15.1407 115.881 15.3642 115.896C15.5427 115.897 15.7177 115.837 15.8693 115.723C16.0375 115.596 16.1779 115.422 16.279 115.215L16.3362 115.123L13.7539 109.273H15.3737L17.1175 113.554L18.9184 109.273H20.3952Z" fill="#1D1D1B"/>
<path d="M27.5074 109.273V117.234H25.9923V110.773H23.029V117.234H21.5234V109.273H27.5074Z" fill="#1D1D1B"/>
<path d="M34.8199 109.273V117.234H33.3048V110.773H30.3415V117.234H28.8359V109.273H34.8199Z" fill="#1D1D1B"/>
<path d="M41.3414 115.527H38.2923L37.7111 117.234H36.1484L39.0832 109.273H40.5791L43.514 117.234H41.9226L41.3414 115.527ZM40.865 114.131L39.8169 111.085L38.7783 114.131H40.865Z" fill="#1D1D1B"/>
<path d="M49.6803 114.027H48.6226V117.234H47.1172V109.273H48.6226V112.492H49.7089L51.443 109.273H53.0439L50.8904 113.115L53.1105 117.234H51.3859L49.6803 114.027Z" fill="#1D1D1B"/>
<path d="M54.8121 116.98C54.2867 116.659 53.8424 116.173 53.5257 115.573C53.2142 114.934 53.0527 114.204 53.0588 113.461C53.055 112.72 53.2163 111.99 53.5257 111.35C53.8288 110.701 54.274 110.166 54.8121 109.804C55.3839 109.455 56.0154 109.273 56.6558 109.273C57.2962 109.273 57.9277 109.455 58.4995 109.804C59.029 110.144 59.4733 110.65 59.7859 111.269C60.0953 111.91 60.2566 112.639 60.2528 113.381C60.2589 114.123 60.0975 114.853 59.7859 115.492C59.4758 116.114 59.031 116.621 58.4995 116.957C57.9295 117.313 57.2973 117.499 56.6558 117.499C56.0144 117.499 55.3821 117.313 54.8121 116.957V116.98ZM57.6706 115.607C57.9809 115.393 58.2352 115.077 58.4043 114.696C58.5796 114.29 58.6711 113.839 58.6711 113.381C58.6711 112.923 58.5796 112.471 58.4043 112.065C58.2366 111.686 57.9818 111.373 57.6706 111.165C57.3473 110.953 56.9853 110.842 56.6176 110.842C56.2499 110.842 55.8881 110.953 55.5648 111.165C55.2535 111.373 54.9986 111.686 54.8311 112.065C54.6558 112.471 54.5642 112.923 54.5642 113.381C54.5642 113.839 54.6558 114.29 54.8311 114.696C55.0002 115.077 55.2545 115.393 55.5648 115.607C55.8881 115.819 56.2499 115.93 56.6176 115.93C56.9853 115.93 57.3473 115.819 57.6706 115.607Z" fill="#1D1D1B"/>
<path d="M67.726 117.234L67.7165 112.469L65.7822 116.392H65.1057L63.1714 112.562V117.234H61.7422V109.273H62.9999L65.4583 114.223L67.8881 109.273H69.1362L69.1554 117.234H67.726Z" fill="#1D1D1B"/>
<path d="M76.8666 109.273V117.234H75.3611V110.773H72.3977V117.234H70.8828V109.273H76.8666Z" fill="#1D1D1B"/>
<path d="M82.9313 115.527H79.8727L79.2915 117.234H77.7383L80.6635 109.273H82.15L85.0848 117.234H83.4935L82.9313 115.527ZM82.4453 114.131L81.4067 111.085L80.3681 114.131H82.4453Z" fill="#1D1D1B"/>
<path d="M91.9963 109.273V117.234H90.4718V113.969H87.4894V117.234H85.9648V109.273H87.4894V112.412H90.4718V109.273H91.9963Z" fill="#1D1D1B"/>
<path d="M93.7344 109.273H95.2494V114.454L98.3843 109.273H99.804V117.234H98.3081V112.066L95.1732 117.234H93.7344V109.273Z" fill="#1D1D1B"/>
<path d="M101.504 109.296H103.009V114.488L106.144 109.296H107.574V117.256H106.068V112.088L102.933 117.256H101.504V109.296ZM102.714 106.988H103.753C103.753 107.542 104.029 107.819 104.534 107.819C104.739 107.835 104.942 107.761 105.106 107.611C105.175 107.531 105.23 107.434 105.266 107.327C105.302 107.22 105.319 107.104 105.315 106.988H106.354C106.363 107.233 106.327 107.477 106.248 107.703C106.168 107.929 106.048 108.13 105.897 108.292C105.495 108.618 105.016 108.772 104.534 108.73C103.333 108.73 102.724 108.153 102.714 106.988Z" fill="#1D1D1B"/>
</g>
</g>
<defs>
<clipPath id="clip0_1953_1521">
<rect width="117" height="117" fill="white" transform="translate(0.5 0.5)"/>
</clipPath>
</defs>
</svg>
