<?xml version="1.0" encoding="UTF-8" standalone="no"?>
<svg
   xmlns:dc="http://purl.org/dc/elements/1.1/"
   xmlns:cc="http://creativecommons.org/ns#"
   xmlns:rdf="http://www.w3.org/1999/02/22-rdf-syntax-ns#"
   xmlns:svg="http://www.w3.org/2000/svg"
   xmlns="http://www.w3.org/2000/svg"
   viewBox="0 0 910.66669 270.66666"
   height="270.66666"
   width="910.66669"
   xml:space="preserve"
   id="svg2"
   version="1.1"><metadata
     id="metadata8"><rdf:RDF><cc:Work
         rdf:about=""><dc:format>image/svg+xml</dc:format><dc:type
           rdf:resource="http://purl.org/dc/dcmitype/StillImage" /></cc:Work></rdf:RDF></metadata><defs
     id="defs6" /><g
     transform="matrix(1.3333333,0,0,-1.3333333,0,270.66667)"
     id="g10"><g
       transform="scale(0.1)"
       id="g12"><path
         id="path14"
         style="fill:#ffffff;fill-opacity:1;fill-rule:evenodd;stroke:none"
         d="M 4.28516,2029.93 H 6824.43 V 8.66406 H 4.28516 V 2029.93" /><path
         id="path16"
         style="fill:#000000;fill-opacity:1;fill-rule:evenodd;stroke:none"
         d="M 1318.74,1391.5 V 640.316 H 1127.4 V 1019.45 L 985.668,640.316 H 812.047 L 666.773,1019.45 V 640.316 H 475.434 V 1391.5 H 705.75 L 897.086,895.434 1088.43,1391.5 Z m 705.12,-95.67 c 74.41,-70.87 109.84,-166.54 109.84,-279.92 0,-113.39 -38.98,-205.515 -109.84,-279.926 -74.41,-70.867 -166.54,-109.843 -279.92,-109.843 -113.39,0 -205.51,35.433 -279.92,109.843 -74.41,74.411 -109.85,166.536 -109.85,276.376 0,113.39 38.98,205.52 109.85,276.38 74.41,74.41 166.53,109.84 279.92,109.84 109.84,3.55 205.51,-31.89 279.92,-102.75 z m -77.95,-279.92 c 0,63.77 -17.72,116.93 -56.7,159.45 -38.98,42.52 -85.04,60.23 -148.82,60.23 -60.23,0 -109.84,-21.26 -145.27,-60.23 -35.44,-42.52 -56.69,-95.68 -56.69,-159.45 0,-63.785 17.71,-116.933 56.69,-159.453 38.97,-42.519 85.04,-60.238 145.27,-60.238 60.24,0 109.84,21.261 148.82,60.238 35.43,42.52 56.7,95.668 56.7,159.453 z m 783.07,-109.847 -7.09,-14.172 c -14.18,-28.348 -35.43,-53.149 -63.78,-70.868 -28.34,-17.714 -60.23,-28.347 -92.13,-28.347 -60.23,0 -109.84,21.262 -152.36,63.781 -38.98,42.52 -60.23,95.668 -60.23,159.453 0,63.77 21.25,116.93 60.23,159.45 38.98,42.52 88.58,63.77 152.36,63.77 31.9,0 63.79,-10.63 92.13,-28.34 28.35,-17.72 49.6,-42.52 63.78,-70.87 l 7.09,-14.17 159.45,77.95 -7.09,14.18 c -67.32,120.47 -173.63,184.25 -315.36,184.25 -113.38,0 -209.05,-35.44 -283.46,-109.84 -74.41,-70.87 -113.39,-166.54 -113.39,-279.93 0,-113.383 38.98,-205.508 113.39,-279.919 74.41,-70.867 170.08,-109.843 283.46,-109.843 138.19,0 244.49,63.781 315.36,184.254 l 7.09,14.171 z m 566.93,131.097 297.63,354.34 h -230.31 l -230.32,-294.1 v 294.1 H 2948.66 V 640.316 h 184.25 v 230.313 l 38.98,49.609 212.6,-279.922 h 226.77 z m 992.12,-187.789 c 0,-60.238 -21.26,-109.844 -60.23,-148.82 -38.98,-38.977 -95.67,-60.235 -166.54,-60.235 H 3657.32 V 1391.5 h 393.31 c 70.87,0 124.01,-17.72 162.99,-56.7 38.98,-38.97 60.24,-85.03 60.24,-141.73 0,-46.06 -14.18,-88.58 -38.98,-120.47 -14.17,-17.72 -31.89,-31.89 -53.15,-42.52 24.81,-10.63 42.52,-28.35 63.78,-49.607 28.35,-38.977 42.52,-81.496 42.52,-131.102 z m -201.97,315.359 c 0,17.71 -7.08,35.43 -17.71,46.06 -14.18,10.63 -28.35,17.71 -49.61,17.71 h -177.17 v -127.55 h 177.17 c 21.26,0 38.97,7.08 49.61,17.71 14.17,14.18 17.71,28.35 17.71,46.07 z M 3841.57,803.309 h 180.72 c 24.8,0 42.51,7.086 56.69,17.714 14.17,10.629 21.26,28.348 21.26,49.606 0,21.262 -7.09,35.434 -21.26,49.609 -14.18,14.172 -31.89,21.258 -56.69,21.258 H 3841.57 Z M 5078.19,640.316 h -209.06 l -42.52,120.473 h -287 l -46.07,-120.473 h -209.05 l 290.55,751.184 h 212.6 z m -304.73,287.008 -92.12,248.036 -92.13,-248.036 z m 1583.86,28.344 V 789.133 H 6265.2 V 640.316 h -184.25 v 148.817 h -343.7 V 930.867 L 6031.34,1391.5 H 6265.2 V 955.668 Z m -276.37,0 V 1189.53 L 5928.58,955.668 Z M 5705.36,803.309 V 640.316 h -570.48 v 155.903 l 7.09,3.547 c 3.54,0 205.51,145.273 318.9,226.774 46.06,31.89 70.86,67.32 70.86,102.75 0,60.24 -49.6,109.84 -113.38,109.84 -70.87,0 -113.39,-60.23 -127.56,-92.12 l -152.36,74.41 c 31.89,70.87 124.01,187.79 283.46,187.79 155.91,0 283.47,-127.56 283.47,-283.46 0,-88.59 -56.7,-177.168 -148.82,-237.402 -60.24,-42.52 -102.76,-67.325 -127.56,-85.039 h 276.38" /></g></g></svg>