<svg width="300" height="64" viewBox="0 0 300 64" fill="none" xmlns="http://www.w3.org/2000/svg">
<path d="M20.4964 0H27.5518V35.8877H20.4964V21.0206H7.10319V35.8877H0V0H7.11116V14.2549H20.5044V0H20.4964Z" fill="black"/>
<path d="M55.113 35.8877V13.9925L39.6629 35.8877H34.2578V0H41.369V21.9429L56.811 0H62.2161V35.8877H55.113Z" fill="black"/>
<path d="M89.7692 35.8877V13.9925L74.3192 35.8877H68.9141V0H76.0252V21.9429L91.4673 0H96.8724V35.8877H89.7692Z" fill="black"/>
<path d="M144.943 17.1874C147.239 15.5973 148.474 12.9419 148.299 10.1116C148.474 7.28128 147.239 4.62588 145.118 2.85296C142.997 0.905134 140.175 -0.152257 137.353 0.0226494H123.234V35.9501H138.413C141.411 36.125 144.241 35.0676 146.354 33.1198C148.474 31.172 149.71 28.5166 149.534 25.6863C149.71 22.1404 147.948 18.7774 144.943 17.1874ZM130.473 6.56576H137.536C138.597 6.56576 139.482 7.09843 140.183 7.806C141.594 9.39607 141.594 11.8766 140.183 13.4666C139.474 14.1742 138.597 14.7069 137.536 14.532H130.473V6.56576ZM141.411 28.1588C140.526 28.8664 139.466 29.399 138.413 29.399H130.473V20.9002H138.589C139.649 20.9002 140.709 21.4328 141.586 22.1404C142.296 23.0229 142.822 24.0882 142.822 25.1456C142.647 26.211 142.12 27.2763 141.411 28.1588Z" fill="black"/>
<path d="M153.414 6.76462V-0.00109376C163.084 -0.176001 170.993 7.82996 171.168 17.6247V17.9825C171.343 27.7773 163.786 35.7833 154.116 35.9661C153.94 35.9661 153.94 35.9661 153.765 35.9661H153.414V29.2004C156.404 29.2004 159.218 28.1351 161.322 25.9964C163.435 23.8578 164.663 21.0116 164.487 17.9825C164.663 14.9534 163.435 11.9323 161.147 9.79369C159.042 7.83791 156.404 6.76462 153.414 6.76462Z" fill="black"/>
<path d="M192.613 6.76462H199.397V-0.00109376H192.613C183.038 -0.176001 175.21 7.82996 175.034 17.6247V17.9825C174.859 27.7773 182.345 35.7833 191.919 35.9661C192.095 35.9661 192.095 35.9661 192.27 35.9661H199.405V29.2004H192.621C189.663 29.2004 186.881 28.1351 184.792 25.9964C182.703 23.8578 181.484 21.0116 181.659 17.9825C181.484 14.9534 182.703 11.9323 184.968 9.79369C187.048 7.83791 189.655 6.76462 192.613 6.76462Z" fill="black"/>
<path d="M240.392 6.53516V0H228.434L221.833 10.5978L215.407 0H203.273V6.53516H211.301L217.727 17.3158L210.592 29.1538H203.273V35.8639H214.698L221.833 24.2007L228.792 35.8639H240.392V29.1538H232.898L225.938 17.3158L232.364 6.53516H240.392Z" fill="black"/>
<path d="M244.266 6.76462V-0.00109376C253.936 -0.176001 261.844 7.82996 262.02 17.6247V17.9825C262.195 27.7773 254.637 35.7833 244.967 35.9661C244.792 35.9661 244.792 35.9661 244.616 35.9661H244.266V29.2004C247.255 29.2004 250.069 28.1351 252.174 25.9964C254.287 23.8578 255.514 21.0116 255.339 17.9825C255.514 14.9534 254.287 11.9323 251.999 9.79369C249.886 7.83791 247.247 6.76462 244.266 6.76462Z" fill="black"/>
<path d="M300.003 29.2333L286.57 0H279.324L265.891 29.2333V35.9672H300.003V29.2333ZM273.137 29.2333L283.214 7.44149L293.291 29.2333H273.137Z" fill="black"/>
<path d="M5.58648 60.4805C5.23571 60.6872 4.82116 60.7826 4.41458 60.7429C3.75289 60.727 3.10715 60.4964 2.58896 60.0909C2.16643 59.5821 1.93524 58.9302 1.93524 58.2703C1.95118 57.6104 2.18238 56.9665 2.58896 56.4497C3.06728 55.9727 3.74492 55.7342 4.41458 55.7978C4.82116 55.8216 5.21179 55.9091 5.58648 56.0601C5.90537 56.2509 6.17642 56.5212 6.36775 56.8393L8.06582 55.7978C7.67519 55.1935 7.13308 54.7006 6.49531 54.3667C5.86551 53.993 5.14004 53.8181 4.40661 53.842C3.25064 53.834 2.13454 54.2475 1.27355 55.0107C-0.424517 56.7518 -0.424517 59.5265 1.27355 61.2676C2.05482 62.158 3.2347 62.5953 4.40661 62.4363C5.14004 62.4681 5.86551 62.2852 6.49531 61.9116C7.09322 61.5697 7.59547 61.0768 7.9303 60.4805L6.23223 59.439C6.16845 59.8604 5.92929 60.234 5.58648 60.4805Z" fill="black"/>
<path d="M22.6985 54.0977L19.4299 58.6611V54.0977H17.4688V62.4375H18.9037L22.1723 57.8741V62.4375H24.1335V54.0977H22.6985Z" fill="black"/>
<path d="M39.295 60.4792C38.9442 60.6859 38.5297 60.7813 38.1231 60.7416C37.4614 60.7257 36.8157 60.4951 36.2975 60.0897C35.3807 59.0959 35.3807 57.5694 36.2975 56.5756C37.0548 55.8124 38.2347 55.6534 39.1754 56.1861C39.5501 56.2974 39.8451 56.5915 39.9567 56.9652L41.6548 55.9237C41.2641 55.3195 40.722 54.8266 40.0843 54.4927C39.4545 54.119 38.729 53.9441 37.9956 53.9679C35.6996 53.8805 33.7703 55.6613 33.6906 57.951C33.6906 58.0146 33.6906 58.0782 33.6906 58.1339V58.3963C33.6029 60.6859 35.3887 62.6099 37.6846 62.6894C37.7484 62.6894 37.8122 62.6894 37.868 62.6894H38.1311C38.8565 62.6576 39.5661 62.4748 40.2198 62.1647C40.8894 61.8705 41.4395 61.3697 41.7903 60.7336L40.0763 59.7001C39.9248 60.0499 39.6458 60.3282 39.295 60.4792Z" fill="black"/>
<path d="M51.4453 54.0977V55.9183H53.6695V62.5647H55.6307V55.9183H57.7194V54.0977H51.4453Z" fill="black"/>
<path d="M69.2006 60.4799V59.0489H72.2061V57.2282H69.2006V55.7972H72.5968V53.9766H67.375V62.3164H72.7323V60.4958H69.2006V60.4799Z" fill="black"/>
<path d="M88.6751 54.0977L86.4508 57.8741L84.2266 54.0977H82.2734V62.4375H84.2346V57.4845L86.4588 60.9985H86.7219L88.9461 57.4845V62.4375H90.9073V54.0977H88.6751Z" fill="black"/>
<path d="M104.875 54.0977V57.3573H102.133V54.0977H100.172V62.4375H102.133V59.0507H104.875V62.4375H106.837V54.0977H104.875Z" fill="black"/>
<path d="M123.292 54.0961V62.436H125.253V54.0961H123.292ZM121.722 57.4829C121.164 56.9264 120.422 56.6004 119.633 56.5686H118.461V53.9609H116.5V62.3008H119.769C120.558 62.277 121.307 61.951 121.857 61.3865C122.415 60.8857 122.742 60.1781 122.774 59.4307C122.607 58.7073 122.24 58.0315 121.722 57.4829ZM120.287 60.353C120.111 60.6074 119.816 60.7505 119.505 60.7426H118.334V58.6596H119.505C120.111 58.747 120.598 59.224 120.677 59.8283C120.55 59.8283 120.55 60.0906 120.287 60.353Z" fill="black"/>
<path d="M136.755 60.4799V59.0489H139.761V57.2282H136.755V55.7972H140.151V53.9766H134.93V62.3164H140.151V60.4958H136.755V60.4799Z" fill="black"/>
<path d="M165.433 53.9648L162.164 58.5283V53.9648H160.203V62.3047H161.638L164.907 57.7412V62.3047H166.868V53.9648H165.433Z" fill="black"/>
<path d="M181.368 53.9648V57.2245H178.625V53.9648H176.664V62.3047H178.625V59.0451H181.368V62.4319H183.329V54.1H181.368V53.9648Z" fill="black"/>
<path d="M197.704 53.9648V57.2245H194.961V53.9648H193V62.3047H194.961V59.0451H197.704V62.4319H199.665V54.1H197.704V53.9648Z" fill="black"/>
<path d="M216.775 55.1412C215.029 53.4477 212.247 53.4477 210.501 55.1412C208.843 56.9459 208.954 59.7444 210.764 61.3981C211.617 62.1772 212.741 62.5985 213.897 62.5667C214.981 62.5985 216.018 62.1692 216.775 61.3981C217.652 60.5951 218.13 59.4502 218.082 58.2736C218.146 57.081 217.668 55.9282 216.775 55.1412ZM215.467 60.0942C214.463 61.0403 212.885 60.9926 211.944 59.9908C211.035 59.0289 211.035 57.5342 211.944 56.5722C212.972 55.6738 214.543 55.7772 215.444 56.8028C215.452 56.8107 215.46 56.8187 215.467 56.8346C216.368 57.7171 216.384 59.1561 215.499 60.0624C215.491 60.0704 215.483 60.0783 215.467 60.0942Z" fill="black"/>
<path d="M232.842 58.0019C233.814 57.1274 233.894 55.6248 233.009 54.6548C232.953 54.5992 232.897 54.5435 232.842 54.4879C232.276 54.0585 231.59 53.8359 230.88 53.8359H227.484V62.1758H231.008C231.71 62.1599 232.395 61.9294 232.969 61.5239C233.487 61.0628 233.774 60.3949 233.75 59.7033C233.846 58.9957 233.479 58.3199 232.842 58.0019ZM229.573 55.7917H230.88C231.088 55.7917 231.279 55.8951 231.407 56.0541C231.542 56.1972 231.638 56.38 231.67 56.5788C231.67 56.7855 231.566 56.9763 231.407 57.1035C231.263 57.2387 231.08 57.3341 230.88 57.3659H229.573V55.7917ZM231.797 60.3472C231.654 60.4824 231.47 60.5778 231.271 60.6096H229.573V58.9162H231.144C231.351 58.9162 231.542 59.0195 231.67 59.1785C231.805 59.3217 231.901 59.5045 231.933 59.7033C232.044 59.9179 231.989 60.1962 231.797 60.3472Z" fill="black"/>
<path d="M247.998 53.9648H245.519L242.641 62.3047H244.729L245.12 61.0009H248.253L248.644 62.3047H250.732L247.998 53.9648ZM245.774 59.3075L246.818 56.183L247.862 59.3075H245.774Z" fill="black"/>
<path d="M266.42 60.6113V53.9648H264.459V60.6113H261.844V53.9648H259.891V62.3047H265.248V63.9981H267.209V60.4841H266.428V60.6113H266.42Z" fill="black"/>
<path d="M282.097 53.9631L278.828 58.5266V53.9631H276.867V62.303H278.302L281.571 57.7395V62.303H283.532V53.8359L282.097 53.9631Z" fill="black"/>
<path d="M298.558 53.9648L295.289 58.5283V53.9648H293.328V62.3047H294.763L298.032 57.7412V62.3047H299.993V53.9648H298.558Z" fill="black"/>
</svg>
