<svg width="346" height="68" viewBox="0 0 346 68" fill="none" xmlns="http://www.w3.org/2000/svg">
<path d="M0.326172 18.7675C0.326172 13.3919 4.70077 9.01513 10.0785 9.01513C15.4573 9.01513 19.8298 13.3908 19.8298 18.7675C19.8298 19.3757 19.7672 19.9713 19.661 20.5487C18.0963 19.8906 16.3819 19.5254 14.5826 19.5254C9.84074 19.5254 5.69013 22.0572 3.38128 25.8352C1.50448 24.0582 0.326172 21.5498 0.326172 18.7675ZM16.6951 32.6609C16.6951 29.5103 17.8108 26.6186 19.6642 24.3512C18.1823 23.4414 16.4446 22.9075 14.5816 22.9075C9.20382 22.9075 4.83028 27.281 4.83028 32.6609C4.83028 38.0365 9.20382 42.4133 14.5816 42.4133C16.4446 42.4133 18.1823 41.8782 19.6642 40.9685C17.8108 38.7021 16.6951 35.8084 16.6951 32.6609ZM34.3453 31.8998C29.5992 31.8998 25.4475 29.3638 23.1397 25.5794C21.2576 27.3596 20.0782 29.8712 20.0782 32.6598C20.0782 38.0355 24.4507 42.4122 29.8284 42.4122C35.2062 42.4122 39.5819 38.0355 39.5819 32.6598C39.5819 32.0505 39.5171 31.4582 39.411 30.8818C37.8494 31.5378 36.1393 31.8998 34.3453 31.8998ZM35.2996 9.06503C35.3145 9.31449 35.34 9.55758 35.34 9.80704C35.34 15.9608 31.0768 21.1273 25.3562 22.5444C26.8328 26.0528 30.304 28.5198 34.3453 28.5198C39.723 28.5198 44.0976 24.1421 44.0976 18.7664C44.0966 13.7146 40.2294 9.5459 35.2996 9.06503ZM22.2045 0.0546875C18.1674 0.0546875 14.6941 2.5217 13.2164 6.02903C18.9445 7.44087 23.2119 12.6084 23.2119 18.7675C23.2119 19.0148 23.1991 19.2622 23.1843 19.5106C28.1034 19.0159 31.9568 14.8525 31.9568 9.80704C31.9568 4.43141 27.5833 0.0546875 22.2045 0.0546875Z" fill="#A30C33"/>
<path d="M61.2533 10.369C60.8881 10.369 60.3213 10.611 60.1599 10.7331C60.0378 10.8552 59.8351 11.3 59.7969 12.232C59.7534 13.043 59.7534 18.0683 59.713 22.686C59.713 26.3738 59.7969 29.0064 59.7969 30.0202C59.8362 32.4936 59.9572 33.2229 62.3053 33.8279C63.1163 33.9904 63.4401 34.3152 63.4401 34.6814C63.4401 35.0041 62.7533 35.2472 62.1843 35.2472C61.1312 35.2472 58.8203 35.0041 57.039 35.0041C55.8639 35.0041 53.8788 35.1655 52.6241 35.1655C51.6931 35.1655 51.123 34.9649 51.123 34.5169C51.123 34.2335 51.6931 33.9086 52.0954 33.7876C54.0794 33.3014 54.5667 32.6932 54.6888 30.8291C54.8119 29.2103 54.9329 26.5755 54.9329 24.5076C54.9329 23.2126 54.9329 14.1353 54.8522 12.9613C54.7312 11.5441 54.5263 10.8955 52.2992 10.611C51.7716 10.5304 51.3672 10.248 51.3672 10.0038C51.3672 9.679 51.7324 9.43697 52.2186 9.3563C52.4595 9.31702 53.1909 9.31702 53.5561 9.31702C56.1494 9.31702 59.471 8.99219 61.2936 8.99219C65.1842 8.99219 67.8179 9.72146 69.4781 11.3403C71.3814 13.2054 71.8294 15.3933 71.8294 16.8104C71.8294 20.1341 70.3295 21.9175 69.1543 22.9291C68.0992 23.8208 65.871 24.7518 64.2914 24.7518C63.8466 24.7518 62.7108 24.6732 62.1853 24.4684C61.6164 24.2253 61.334 24.0246 61.334 23.6595C61.334 23.496 61.6164 23.254 61.9422 23.254H62.5505C64.2511 23.254 66.7659 21.2275 66.7659 17.0142C66.7648 13.7723 64.577 10.369 61.2533 10.369Z" fill="black"/>
<path d="M102.681 21.7942C102.681 27.1009 100.413 30.5466 97.5757 32.8141C95.2658 34.5974 91.8211 35.7301 88.7023 35.7301C84.4476 35.7301 80.7195 34.1113 78.1686 31.3969C75.9787 29.0456 74.6836 25.8461 74.6836 22.1159C74.6836 17.1734 76.8704 14.0142 79.9096 11.5822C81.7333 10.164 85.1376 8.66406 88.5388 8.66406C97.4939 8.66512 102.681 15.3093 102.681 21.7942ZM82.988 12.1502C81.6112 13.4877 80.1505 16.4037 80.1505 21.2263C80.1505 27.465 83.9614 34.2323 89.8763 34.2323C92.1056 34.2323 93.4824 33.0975 94.0089 32.5699C95.7106 30.8683 97.1288 27.3854 97.1288 23.049C97.1288 19.8484 95.873 14.9866 92.9155 12.2712C91.5366 11.0568 89.3509 10.0833 87.5675 10.0833C85.7416 10.0844 83.9222 11.2192 82.988 12.1502Z" fill="black"/>
<path d="M126.881 9.31763C127.852 9.55966 128.867 9.80275 129.798 9.92483C130.081 9.92483 130.406 10.411 130.406 11.0193C130.446 12.1519 130.528 13.5702 130.608 14.7463C130.649 15.5966 130.365 16.2856 129.921 16.2856C129.718 16.2856 129.354 15.7994 129.149 15.1911C128.745 13.9364 128.137 12.8419 127.447 12.3144C125.706 10.8569 123.64 9.96411 121.452 9.96411C115.01 9.96411 111.972 15.0701 111.972 21.2281C111.972 23.9435 112.458 26.2927 113.349 28.0761C115.578 32.5335 119.264 34.1141 122.426 34.1141C122.952 34.1141 124.937 34.0334 126.355 33.181C127.853 32.3318 128.947 31.1545 129.88 29.4954C130.366 28.6037 130.65 28.2374 130.975 28.2374C131.419 28.2374 131.419 29.2915 131.296 29.7384C131.095 30.749 130.447 32.5335 130.081 33.2638C129.959 33.6279 129.232 34.2755 128.623 34.5589C128.056 34.7606 125.261 35.7319 121.533 35.7319C115.534 35.7319 111.282 33.0589 109.62 31.1545C108.08 29.3733 106.215 26.5368 106.215 22.0391C106.215 17.1359 108.971 13.6922 110.672 12.3133C114.116 9.47792 118.289 8.66797 121.612 8.66797C123.477 8.66797 125.422 8.9514 126.881 9.31763Z" fill="black"/>
<path d="M135.168 9.11203C136.139 9.11203 138.086 9.31372 139.341 9.31372C140.556 9.31372 142.905 9.15131 143.878 9.15131C144.689 9.15131 145.135 9.35512 145.135 9.71923C145.135 10.0833 144.526 10.2861 144.081 10.4092C142.501 10.854 142.176 11.0568 142.055 12.8794C141.973 14.3794 142.015 18.9164 142.015 20.8208C142.015 20.9832 142.136 21.2252 142.297 21.2252C144.485 21.0628 145.822 20.375 147.28 18.0236C148.416 16.1606 149.226 14.6193 150.239 13.0408C151.86 10.3657 153.806 8.66406 155.993 8.66406C157.37 8.66406 158.1 9.23092 158.1 10.3657C158.1 10.7298 157.815 11.4198 157.573 11.6629C157.25 12.026 156.884 12.1088 156.397 12.026C155.953 11.9453 155.426 11.8243 155.02 11.8243C152.629 11.8243 151.577 13.5259 150.442 15.3082C149.306 17.0927 148.415 18.5109 147.808 19.3612C147.766 19.4419 147.766 19.6043 147.808 19.6839C148.741 21.4662 152.345 27.1805 154.128 29.5297C156.803 33.055 157.855 33.3395 160.005 33.8246C160.248 33.9043 160.653 34.0688 160.653 34.2716C160.653 34.6346 160.41 34.8788 159.842 35.0422C159.273 35.2036 158.342 35.2429 157.412 35.2429C153.847 35.2429 152.105 34.6771 150.522 32.5688C149.023 30.7058 147.321 28.0722 145.459 25.1137C144.12 22.9662 143.594 22.2772 142.297 22.2369C142.094 22.2369 142.054 22.5224 142.015 22.7231C142.015 26.0064 142.136 30.2611 142.176 31.7589C142.219 32.5688 142.419 33.176 144.203 33.624C144.932 33.8257 145.379 34.1102 145.379 34.434C145.379 34.8002 144.689 35.0433 144.042 35.0433C143.151 35.0433 140.353 34.9616 139.098 34.9616C137.842 34.9616 135.815 35.1229 134.518 35.1229C133.912 35.1229 133.426 34.8002 133.426 34.5136C133.426 34.1516 133.75 33.9467 134.64 33.7461C136.586 33.2992 137.032 32.7313 137.155 30.2611C137.235 28.2335 137.235 25.4396 137.235 21.1032C137.235 16.3623 137.155 14.822 137.114 13.3646C137.07 11.4612 136.709 10.9326 135.291 10.5281C134.237 10.2447 133.951 9.96126 133.951 9.67677C133.951 9.31372 134.602 9.11203 135.168 9.11203Z" fill="black"/>
<path d="M188.145 21.7942C188.145 27.1009 185.874 30.5466 183.037 32.8141C180.729 34.5974 177.284 35.7301 174.165 35.7301C169.909 35.7301 166.183 34.1113 163.629 31.3969C161.443 29.0456 160.146 25.8461 160.146 22.1159C160.146 17.1734 162.335 14.0142 165.373 11.5822C167.196 10.164 170.598 8.66406 174.004 8.66406C182.957 8.66512 188.145 15.3093 188.145 21.7942ZM168.452 12.1502C167.074 13.4877 165.616 16.4037 165.616 21.2263C165.616 27.465 169.423 34.2323 175.34 34.2323C177.571 34.2323 178.945 33.0975 179.474 32.5699C181.176 30.8683 182.595 27.3854 182.595 23.049C182.595 19.8484 181.337 14.9866 178.381 12.2712C177.002 11.0568 174.814 10.0833 173.031 10.0833C171.208 10.0844 169.383 11.2192 168.452 12.1502Z" fill="black"/>
<path d="M199.059 20.9041C201.814 20.9041 207.162 20.7406 211.416 20.7406C211.579 20.7406 211.742 20.3372 211.782 19.7279C211.863 19.2024 211.863 14.4616 211.701 12.882C211.539 11.4224 211.335 11.019 209.714 10.57C209.149 10.4108 208.54 10.1666 208.54 9.76005C208.54 9.47768 208.947 9.23353 209.878 9.23353C210.404 9.23353 213.403 9.35667 214.456 9.35667C215.753 9.35667 218.306 9.19531 218.791 9.19531C219.563 9.19531 220.048 9.397 220.048 9.72077C220.048 10.1263 219.683 10.3694 218.751 10.6114C217.293 10.9373 217.049 11.5848 216.968 12.7589C216.767 14.6644 216.644 18.3107 216.644 24.0653C216.644 28.0366 216.766 30.1437 216.805 31.4791C216.846 33.0587 217.252 33.1808 218.874 33.7073C219.602 33.9515 220.007 34.2349 220.007 34.5597C220.007 35.0045 219.438 35.1255 218.709 35.1255C218.02 35.1255 215.833 35.0045 214.616 35.0045C213.725 35.0045 210.483 35.2072 209.673 35.2072C208.702 35.2072 208.297 35.0045 208.297 34.6383C208.297 34.2752 208.823 33.9515 209.39 33.788C211.374 33.2614 211.456 32.9398 211.661 29.9388C211.781 28.3189 211.821 24.5091 211.741 23.4157C211.741 23.0516 211.579 22.8881 211.415 22.8881C208.173 22.8881 199.868 22.7681 199.058 22.8488C198.856 22.8881 198.53 23.2129 198.53 23.456C198.45 24.956 198.53 29.2913 198.572 30.5874C198.611 32.494 198.856 33.1001 200.515 33.5863C201.366 33.8294 201.934 34.1553 201.934 34.6C201.974 35.0045 201.164 35.1266 200.636 35.1266C200.352 35.1266 196.992 35.0056 195.572 35.0056C194.639 35.0056 192.575 35.168 191.197 35.168C190.144 35.168 189.777 34.9663 189.777 34.6404C189.777 34.1967 190.225 33.9536 190.912 33.7508C192.697 33.2646 193.059 32.8177 193.262 31.1161C193.424 29.4972 193.626 23.4581 193.626 17.9074C193.626 16.6919 193.707 14.4637 193.626 12.8428C193.546 11.5063 193.182 11.0604 191.844 10.6549C190.912 10.3715 190.466 10.087 190.466 9.76217C190.466 9.35879 190.993 9.19744 191.724 9.19744C192.817 9.19744 195.044 9.35879 196.098 9.35879C197.8 9.35879 199.624 9.23565 200.595 9.23565C201.445 9.23565 201.933 9.39913 201.933 9.76217C201.933 10.2091 201.408 10.4522 200.555 10.6549C198.853 11.0201 198.73 11.7887 198.69 13.45C198.61 14.9085 198.448 19.6079 198.571 20.3786C198.613 20.7003 198.775 20.9041 199.059 20.9041Z" fill="black"/>
<path d="M242.244 9.07031C242.528 9.07031 242.771 9.27307 242.771 9.51616C242.692 10.6913 242.731 13.2846 242.771 14.6636C242.812 15.189 242.528 15.9586 242.205 15.9586C241.882 15.9586 241.474 15.7569 241.231 14.8249C240.705 13.0415 239.975 11.1775 238.476 11.0172C237.221 10.8548 234.181 10.8951 233.331 10.9354C232.521 10.9354 232.318 11.1785 232.318 11.583C232.155 13.6901 232.155 17.3365 232.155 20.0509C232.155 22.8873 232.196 28.3192 232.196 31.1938C232.238 32.939 232.884 33.3424 234.75 33.7872C235.355 33.9889 235.8 34.2734 235.8 34.5971C235.8 34.9209 235.315 35.2064 234.586 35.2064C233.573 35.2064 231.103 35.0037 229.562 35.0037C228.063 35.0037 225.512 35.2468 224.7 35.2468C224.052 35.2468 223.607 34.8816 223.607 34.681C223.607 34.2341 224.093 33.9507 224.822 33.7882C226.565 33.3849 226.727 32.6938 226.807 31.7628C226.93 30.5049 227.254 28.0761 227.254 20.1337C227.254 16.3663 227.254 13.895 227.172 12.8409C227.091 11.5034 226.807 11.0182 225.227 10.652C224.336 10.4089 224.012 10.1658 224.012 9.76031C224.012 9.47688 224.58 9.23273 225.186 9.23273C226.97 9.23273 228.551 9.3548 230.169 9.3548H235.437C240.785 9.35374 241.758 9.19239 242.244 9.07031Z" fill="black"/>
<path d="M256.104 10.369C255.74 10.369 255.17 10.611 255.01 10.7331C254.887 10.8552 254.686 11.3 254.644 12.232C254.606 13.043 254.606 18.0683 254.564 22.686C254.564 26.3738 254.644 29.0064 254.644 30.0202C254.686 32.4936 254.807 33.2229 257.157 33.8279C257.967 33.9904 258.292 34.3152 258.292 34.6814C258.292 35.0041 257.602 35.2472 257.035 35.2472C255.979 35.2472 253.672 35.0041 251.89 35.0041C250.712 35.0041 248.728 35.1655 247.473 35.1655C246.54 35.1655 245.973 34.9649 245.973 34.5169C245.973 34.2335 246.54 33.9086 246.946 33.7876C248.931 33.3014 249.418 32.6932 249.538 30.8291C249.659 29.2103 249.781 26.5755 249.781 24.5076C249.781 23.2126 249.781 14.1353 249.702 12.9613C249.578 11.5441 249.375 10.8955 247.149 10.611C246.621 10.5304 246.217 10.2469 246.217 10.0038C246.217 9.679 246.582 9.43697 247.068 9.3563C247.311 9.31702 248.041 9.31702 248.406 9.31702C250.997 9.31702 254.32 8.99219 256.143 8.99219C260.033 8.99219 262.667 9.72146 264.329 11.3403C266.233 13.2054 266.679 15.3933 266.679 16.8104C266.679 20.1341 265.18 21.9175 264.003 22.9291C262.951 23.8208 260.723 24.7518 259.142 24.7518C258.696 24.7518 257.561 24.6732 257.036 24.4684C256.468 24.2253 256.184 24.0246 256.184 23.6595C256.184 23.496 256.468 23.254 256.792 23.254H257.398C259.101 23.254 261.612 21.2275 261.612 17.0142C261.612 13.7723 259.424 10.369 256.104 10.369Z" fill="black"/>
<path d="M284.174 9.35455C285.51 9.35455 287.17 9.19319 287.738 9.11145C287.9 9.07005 288.184 9.35455 288.226 9.63798C288.266 10.3683 288.266 13.1644 288.266 13.9733C288.266 14.5402 287.98 15.1081 287.618 15.1081C287.252 15.1081 286.929 14.5009 286.847 14.0954C286.319 11.8258 285.186 11.2186 284.254 11.0562C283.484 10.9341 281.744 10.7717 278.622 10.8131C278.46 10.8131 278.134 10.9755 278.094 11.9479C278.013 12.9606 277.893 18.5931 277.933 20.8213C277.933 20.9423 278.094 21.2247 278.338 21.2247H281.58C284.457 21.2247 284.377 21.0623 285.146 19.2799C285.389 18.6727 285.671 18.2248 286.038 18.2248C286.361 18.2248 286.482 18.9148 286.441 19.3606C286.361 20.4965 286.28 21.2236 286.28 22.1556C286.28 23.2511 286.361 23.9008 286.441 24.9114C286.482 25.6417 286.24 26.1279 285.916 26.1279C285.592 26.1279 285.269 25.6428 285.146 25.2362C284.617 23.4528 284.092 23.1705 282.511 23.0495C281.215 22.9263 279.716 22.9263 278.461 22.9263C278.299 22.9263 277.934 23.3318 277.934 23.4125C277.772 24.5483 277.814 27.7075 277.852 29.044C277.894 30.0174 277.852 31.5184 278.014 32.3676C278.135 32.7328 278.503 33.2593 278.906 33.3411C279.555 33.461 280.812 33.5831 282.188 33.5831C283.405 33.5831 284.905 33.5831 285.918 33.2201C287.133 32.7731 288.228 31.8018 289.118 30.2201C289.685 29.166 290.05 28.803 290.375 28.803C290.782 28.803 290.74 29.6533 290.7 29.9802C290.7 30.3029 289.524 34.0311 289.161 34.6797C289.04 34.962 288.389 35.2051 288.187 35.2051C287.741 35.2051 277.734 35.0024 274.696 35.0024C271.981 35.0024 271.534 35.2051 270.075 35.2051C269.306 35.2051 268.697 35.0831 268.697 34.6797C268.697 34.3134 269.225 34.0311 269.914 33.8665C271.98 33.3825 272.505 32.9748 272.668 30.7902C272.789 29.0864 272.992 26.008 272.992 20.9837C272.992 16.2036 273.032 14.3385 272.953 13.1644C272.871 11.7048 272.546 10.8959 270.805 10.5689C269.953 10.4097 269.507 10.2473 269.507 9.84179C269.507 9.47662 270.197 9.23247 270.765 9.23247C272.67 9.23247 275.992 9.35561 278.097 9.35561L284.174 9.35455Z" fill="black"/>
<path d="M313.232 9.31763C314.203 9.55966 315.217 9.80275 316.149 9.92483C316.432 9.92483 316.756 10.411 316.756 11.0193C316.796 12.1519 316.876 13.5702 316.96 14.7463C316.999 15.5966 316.714 16.2856 316.27 16.2856C316.067 16.2856 315.701 15.7994 315.499 15.1911C315.095 13.9364 314.486 12.8419 313.797 12.3144C312.053 10.8569 309.989 9.96411 307.801 9.96411C301.358 9.96411 298.319 15.0701 298.319 21.2281C298.319 23.9435 298.805 26.2927 299.697 28.0761C301.925 32.5335 305.613 34.1141 308.773 34.1141C309.3 34.1141 311.286 34.0334 312.702 33.181C314.202 32.3318 315.296 31.1545 316.226 29.4954C316.713 28.6037 316.999 28.2374 317.322 28.2374C317.769 28.2374 317.769 29.2915 317.647 29.7384C317.444 30.749 316.795 32.5335 316.43 33.2638C316.308 33.6279 315.579 34.2755 314.971 34.5589C314.403 34.7606 311.608 35.7319 307.879 35.7319C301.884 35.7319 297.631 33.0589 295.969 31.1545C294.429 29.3733 292.564 26.5368 292.564 22.0391C292.564 17.1359 295.319 13.6922 297.022 12.3133C300.464 9.47792 304.638 8.66797 307.961 8.66797C309.828 8.66797 311.772 8.9514 313.232 9.31763Z" fill="black"/>
<path d="M340.848 9.31763C341.819 9.55966 342.831 9.80275 343.763 9.92483C344.047 9.92483 344.371 10.411 344.371 11.0193C344.411 12.1519 344.493 13.5702 344.573 14.7463C344.615 15.5966 344.33 16.2856 343.885 16.2856C343.683 16.2856 343.318 15.7994 343.116 15.1911C342.71 13.9364 342.101 12.8419 341.413 12.3144C339.669 10.8569 337.606 9.96411 335.418 9.96411C328.975 9.96411 325.936 15.0701 325.936 21.2281C325.936 23.9435 326.422 26.2927 327.314 28.0761C329.542 32.5335 333.229 34.1141 336.391 34.1141C336.916 34.1141 338.903 34.0334 340.319 33.181C341.819 32.3318 342.912 31.1545 343.844 29.4954C344.33 28.6037 344.616 28.2374 344.939 28.2374C345.383 28.2374 345.383 29.2915 345.262 29.7384C345.061 30.749 344.411 32.5335 344.046 33.2638C343.926 33.6279 343.196 34.2755 342.589 34.5589C342.021 34.7606 339.225 35.7319 335.496 35.7319C329.499 35.7319 325.246 33.0589 323.584 31.1545C322.046 29.3733 320.182 26.5368 320.182 22.0391C320.182 17.1359 322.937 13.6922 324.638 12.3133C328.082 9.47792 332.256 8.66797 335.578 8.66797C337.443 8.66797 339.387 8.9514 340.848 9.31763Z" fill="black"/>
<path d="M64.4545 48.5141C65.153 48.5141 66.6158 48.4483 66.878 48.4483C67.293 48.4483 67.5542 48.5577 67.5542 48.7339C67.5542 48.9303 67.3365 49.0821 66.8557 49.2126C65.9173 49.4547 65.8514 49.6511 65.7856 50.305C65.6986 51.1988 65.6763 52.6202 65.6763 54.9545C65.6763 57.0733 65.7198 59.7144 65.7421 60.4373C65.7633 61.2866 66.0043 61.4193 66.8557 61.6369C67.1402 61.7229 67.4671 61.897 67.4671 62.0732C67.4671 62.3131 67.1837 62.4214 66.7899 62.4214C66.4183 62.4214 65.0861 62.3354 64.4311 62.3354C63.929 62.3354 62.3579 62.4447 61.9206 62.4447C61.3962 62.4447 61.1563 62.3131 61.1563 62.1178C61.1563 61.9193 61.4609 61.7675 61.7677 61.7016C62.8165 61.4394 62.9036 61.2218 62.9906 59.6051C63.0129 59.1667 63.0341 56.9428 63.0341 54.7146C63.0564 52.3803 62.9906 50.305 62.9694 49.8007C62.9694 49.5173 62.7719 49.409 62.6626 49.409C61.0915 49.409 57.0948 49.3432 56.5057 49.409C56.3963 49.409 56.2212 49.5831 56.1999 49.737C56.1341 50.305 56.0895 52.6839 56.0895 55.0224C56.0895 57.2485 56.1118 59.4098 56.1118 59.9543C56.1118 60.9809 56.2859 61.3099 57.1819 61.57C57.6405 61.7016 57.9451 61.8757 57.9451 62.0519C57.9674 62.2696 57.5311 62.4001 57.2466 62.4001C57.0927 62.4001 55.2807 62.3343 54.5174 62.3343C54.0164 62.3343 52.9463 62.4437 52.2255 62.4437C51.6141 62.4437 51.3965 62.2908 51.3965 62.1167C51.3965 61.8747 51.8328 61.7452 52.0737 61.6804C53.078 61.4617 53.2085 61.1327 53.2743 60.1953C53.3179 59.4087 53.4707 57.0946 53.4707 54.3876C53.4707 52.5745 53.5143 51.2657 53.4707 50.4345C53.4261 49.6935 53.1862 49.408 52.509 49.2339C52.0079 49.1044 51.767 48.9281 51.767 48.7541C51.767 48.5354 52.0514 48.4473 52.4432 48.4473C53.0334 48.4473 54.234 48.5131 54.8242 48.5131L64.4545 48.5141Z" fill="black"/>
<path d="M77.0093 54.7174C77.5995 55.3936 78.0793 56.3989 78.0793 57.5772C78.0793 59.1717 77.3808 60.4604 76.2014 61.3765C74.9785 62.3372 73.6038 62.4911 72.8406 62.4911C72.4457 62.4911 72.0317 62.4688 71.7695 62.4242C71.6825 62.403 71.5954 62.6217 71.5954 62.731C71.5731 63.7129 71.6177 65.5462 71.6825 66.0281C71.7483 66.6162 71.8576 66.9432 72.7302 67.2054C73.1676 67.337 73.3194 67.5111 73.3194 67.665C73.3194 67.8625 72.9712 67.9485 72.709 67.9485C72.0975 67.9485 70.5912 67.8391 69.8046 67.8391C69.259 67.8391 68.9755 67.9049 68.0361 67.9049C67.6656 67.9049 67.4023 67.7744 67.4023 67.5769C67.4023 67.4442 67.6221 67.2701 67.9703 67.1841C68.9957 66.9665 69.1273 66.7043 69.1921 65.4156C69.2144 64.6524 69.2579 62.9051 69.2579 60.7003C69.2579 59.2375 69.2802 56.7906 69.2356 55.9626C69.2144 55.504 69.1475 55.4159 69.0817 55.3522C68.69 55.0455 68.2526 54.6739 68.2526 54.5656C68.2526 54.4552 68.4936 54.1495 68.7112 54.0614C69.1475 53.9308 70.3481 53.5593 70.9383 53.2111C71.1581 53.0795 71.3322 53.0137 71.3757 53.0137C71.4627 53.0137 71.6368 53.2111 71.6368 53.3205C71.5933 53.7122 71.5933 53.9956 71.571 54.3459C71.571 54.434 71.6803 54.52 71.7462 54.4998C72.14 54.2376 72.7281 53.9308 73.0338 53.8013C73.4053 53.6474 73.9074 53.4956 74.5391 53.4956C75.4159 53.4945 76.4212 54.0402 77.0093 54.7174ZM71.8799 55.0444C71.8141 55.1102 71.6612 55.3724 71.6389 55.6134C71.5084 56.5719 71.5084 58.3405 71.5519 59.4986C71.5519 59.8903 71.6389 60.2629 71.7706 60.5028C72.2302 61.3096 73.1028 61.748 73.5614 61.748C73.8024 61.748 74.0412 61.6822 74.3034 61.4858C75.4393 60.6567 75.6144 58.7789 75.6144 58.1897C75.6144 57.5974 75.504 56.487 74.6972 55.59C74.2164 55.0444 73.4085 54.7822 73.0603 54.7822C72.6432 54.7822 72.1633 54.8915 71.8799 55.0444Z" fill="black"/>
<path d="M89.3481 57.9944C89.3481 59.8489 88.2133 61.1811 87.4044 61.7055C86.5095 62.3393 85.397 62.5993 84.3928 62.5993C83.4098 62.5993 82.1869 62.1418 81.3791 61.4646C80.4407 60.7013 79.7422 59.3266 79.7422 58.1037C79.7422 56.5772 80.4173 55.418 81.2474 54.7195C81.9024 54.1537 83.1253 53.4531 84.741 53.4531C86.9256 53.451 89.3481 55.1548 89.3481 57.9944ZM83.258 54.6537C82.7548 55.1113 82.3631 56.0719 82.3631 57.5125C82.3631 58.2322 82.4502 59.0612 82.6243 59.609C83.0829 61.1387 84.0871 61.8796 85.0053 61.8796C85.224 61.8796 85.638 61.7055 85.9649 61.3138C86.4235 60.7448 86.7728 59.5867 86.7728 58.3426C86.7728 57.4254 86.5753 56.0072 85.8991 55.0465C85.5053 54.5423 84.9384 54.1739 84.328 54.1739C83.9554 54.1729 83.6073 54.3268 83.258 54.6537Z" fill="black"/>
<path d="M98.3872 54.0386C98.6717 54.236 98.7587 54.5418 98.7587 54.8252C98.7587 55.2169 98.038 55.8506 97.9074 55.8506C97.711 55.8506 97.3607 55.6978 96.9032 55.305C96.313 54.8252 95.8544 54.3645 95.1782 54.3645C94.9383 54.3645 94.5667 54.4972 94.2398 54.8453C93.6931 55.4133 93.3895 56.5045 93.3895 57.5098C93.3895 58.928 93.9786 59.6711 94.0869 59.8027C94.502 60.3696 95.2886 60.98 96.4669 60.98C97.1006 60.98 97.8214 60.7199 98.5634 60.2603C98.6728 60.1944 98.8479 60.2603 98.8479 60.4365C98.8479 60.6541 98.6728 60.9375 98.4987 61.1116C97.7567 61.8961 96.4892 62.5744 95.1368 62.5744C93.5434 62.5744 92.3205 61.7464 91.7091 60.8271C91.2717 60.1509 90.9883 59.1902 90.9883 58.2943C90.9883 56.5926 91.8619 55.3496 93.1719 54.4972C93.9362 53.9515 95.3767 53.5566 96.2503 53.5566C96.9032 53.5577 97.9934 53.7339 98.3872 54.0386Z" fill="black"/>
<path d="M101.948 62.4036C101.686 62.4036 101.403 62.3378 101.403 62.1414C101.403 61.9673 101.556 61.8378 101.926 61.7253C102.515 61.5746 102.843 61.4196 102.888 61.0056C102.933 60.3496 102.997 58.9536 102.997 57.3592V54.7818C102.997 54.6937 102.953 54.5865 102.821 54.5642C102.538 54.5419 101.993 54.5196 101.818 54.5196C101.163 54.5196 100.879 55.1533 100.661 55.7637C100.486 56.1798 100.312 56.3762 100.136 56.3762C99.94 56.3762 99.853 55.9824 99.8742 55.6565C99.8965 54.9145 100.027 54.302 100.027 53.8211C100.005 53.6916 100.181 53.4941 100.289 53.4941C100.399 53.4941 100.53 53.5822 100.682 53.647C100.835 53.7128 101.533 53.7574 102.058 53.7574H106.336C106.86 53.7574 107.668 53.6916 107.842 53.6268C107.996 53.561 108.149 53.4952 108.258 53.4952C108.368 53.4952 108.456 53.6926 108.456 53.8222C108.39 54.4559 108.411 54.9782 108.433 55.7234C108.456 56.1597 108.238 56.4219 108.04 56.4219C107.887 56.4219 107.777 56.2892 107.669 55.8529C107.494 55.045 107.122 54.5206 106.554 54.5206C106.118 54.5206 105.616 54.5429 105.463 54.5652C105.353 54.5875 105.31 54.7627 105.288 54.8922C105.266 55.5026 105.288 56.6395 105.288 57.6437C105.288 59.2381 105.31 60.1542 105.376 60.7667C105.442 61.3994 105.595 61.531 106.205 61.7051C106.554 61.8145 106.708 61.9673 106.708 62.0554C106.708 62.2274 106.402 62.4036 106.161 62.4036C105.419 62.4036 104.546 62.3378 104.065 62.3378C103.564 62.3378 102.669 62.4036 101.948 62.4036Z" fill="black"/>
<path d="M118.236 54.7174C118.826 55.3936 119.306 56.3989 119.306 57.5772C119.306 59.1717 118.607 60.4604 117.428 61.3765C116.205 62.3372 114.83 62.4911 114.067 62.4911C113.672 62.4911 113.258 62.4688 112.996 62.4242C112.909 62.403 112.822 62.6217 112.822 62.731C112.8 63.7129 112.844 65.5462 112.909 66.0281C112.975 66.6162 113.084 66.9432 113.957 67.2054C114.394 67.337 114.546 67.5111 114.546 67.665C114.546 67.8625 114.197 67.9485 113.934 67.9485C113.324 67.9485 111.817 67.8391 111.031 67.8391C110.486 67.8391 110.202 67.9049 109.263 67.9049C108.892 67.9049 108.629 67.7744 108.629 67.5769C108.629 67.4442 108.849 67.2701 109.197 67.1841C110.222 66.9665 110.354 66.7043 110.419 65.4156C110.441 64.6524 110.484 62.9051 110.484 60.7003C110.484 59.2375 110.507 56.7906 110.462 55.9626C110.441 55.504 110.374 55.4159 110.308 55.3522C109.917 55.0455 109.479 54.6739 109.479 54.5656C109.479 54.4552 109.72 54.1495 109.938 54.0614C110.374 53.9308 111.576 53.5593 112.165 53.2111C112.385 53.0795 112.559 53.0137 112.602 53.0137C112.689 53.0137 112.863 53.2111 112.863 53.3205C112.82 53.7122 112.82 53.9956 112.798 54.3459C112.798 54.434 112.907 54.52 112.973 54.4998C113.367 54.2376 113.955 53.9308 114.26 53.8013C114.632 53.6474 115.134 53.4956 115.766 53.4956C116.641 53.4945 117.648 54.0402 118.236 54.7174ZM113.105 55.0444C113.04 55.1102 112.887 55.3724 112.864 55.6134C112.734 56.5719 112.734 58.3405 112.777 59.4986C112.777 59.8903 112.864 60.2629 112.996 60.5028C113.456 61.3096 114.328 61.748 114.787 61.748C115.028 61.748 115.267 61.6822 115.529 61.4858C116.665 60.6567 116.84 58.7789 116.84 58.1897C116.84 57.5974 116.73 56.487 115.923 55.59C115.442 55.0444 114.634 54.7822 114.286 54.7822C113.869 54.7822 113.389 54.8915 113.105 55.0444Z" fill="black"/>
<path d="M127.057 54.6293C127.319 54.9796 127.537 55.5263 127.537 56.5082C127.537 57.3607 127.45 59.9572 127.45 60.1992C127.45 60.8096 127.887 61.0718 128.258 61.0718C128.367 61.0718 128.803 60.8977 129.023 60.8096C129.088 60.765 129.11 60.7884 129.153 60.8308C129.197 60.9189 129.218 61.0729 129.218 61.1376C129.218 61.5527 128.193 62.6216 126.97 62.6216C126.337 62.6216 125.66 62.4242 125.333 61.5739C125.311 61.4879 125.18 61.4433 125.137 61.4879C124.591 61.8796 123.695 62.2957 123.412 62.404C123.171 62.49 122.736 62.5781 122.451 62.5781C121.643 62.5781 120.771 61.5962 120.771 60.3733C120.771 59.9784 120.945 59.5655 121.162 59.2587C121.382 58.953 121.753 58.8224 121.949 58.7364C122.43 58.539 124.416 57.9944 124.918 57.8405C125.181 57.7545 125.312 57.5984 125.312 57.5125C125.334 57.315 125.378 56.1155 125.356 55.832C125.334 55.3076 124.876 54.4329 123.893 54.4329C123.588 54.4329 123.347 54.4775 123.194 54.5869C123.106 54.6304 123.062 54.8512 123.062 55.5911C123.062 55.6792 123.018 55.745 122.974 55.7896C122.823 55.9424 121.206 56.6622 121.054 56.6622C120.922 56.6622 120.77 56.4859 120.77 56.3554C120.77 55.7238 121.249 55.1346 122.604 54.261C123.412 53.7366 124.482 53.4531 124.786 53.4531C126.119 53.4521 126.73 54.1495 127.057 54.6293ZM125.027 61.006C125.115 60.9402 125.203 60.678 125.203 60.5898C125.246 60.2841 125.29 59.3691 125.29 58.6472C125.29 58.5613 125.203 58.4296 125.137 58.4296C124.764 58.4296 123.76 58.7566 123.368 58.9954C123.105 59.1929 122.973 59.3022 122.973 59.8701C122.973 60.8287 123.76 61.2671 124.176 61.2671C124.371 61.2682 124.809 61.1365 125.027 61.006Z" fill="black"/>
<path d="M139.901 62.4227C139.355 62.4227 138.285 62.3367 137.804 62.3367C137.303 62.3367 136.669 62.3792 136.035 62.3792C135.773 62.3792 135.445 62.2932 135.445 62.0533C135.445 61.8559 135.686 61.7678 136.057 61.6595C136.451 61.5735 136.668 61.3113 136.689 61.1351C136.734 60.7646 136.755 60.0003 136.755 58.5375C136.755 58.3836 136.689 58.2753 136.581 58.2753L133.72 58.2976C133.567 58.2976 133.524 58.3836 133.502 58.7116C133.479 59.0831 133.502 60.2625 133.545 60.8081C133.567 61.3124 133.699 61.5746 134.07 61.6605C134.419 61.7699 134.616 61.9217 134.616 62.0544C134.616 62.1839 134.441 62.4026 133.982 62.4026C133.83 62.4026 132.87 62.3367 132.388 62.3367C131.69 62.3367 130.751 62.4026 130.381 62.4026C130.009 62.4026 129.834 62.2051 129.834 62.031C129.834 61.9005 130.03 61.7476 130.381 61.6595C130.882 61.5289 130.992 61.3729 131.079 61.1553C131.166 60.8294 131.211 59.8687 131.211 58.2095C131.211 56.5503 131.211 55.6767 131.189 55.2627C131.166 54.7383 131.1 54.5865 130.446 54.3901C130.118 54.2797 129.943 54.1279 129.943 53.9739C129.943 53.7563 130.206 53.6905 130.489 53.6905C131.013 53.6905 131.887 53.7563 132.367 53.7563C133.065 53.7563 133.371 53.6905 134.048 53.6905C134.398 53.6905 134.594 53.7786 134.594 53.9739C134.594 54.1035 134.484 54.2361 134.158 54.3657C133.611 54.5642 133.545 54.716 133.524 55.1087C133.502 55.7849 133.502 57.0747 133.502 57.2934C133.524 57.3592 133.589 57.4675 133.677 57.4675H136.558C136.624 57.4675 136.754 57.3581 136.754 57.2721C136.776 56.6819 136.776 55.3709 136.754 55.131C136.733 54.6066 136.558 54.4973 136.209 54.3646C135.946 54.2553 135.685 54.147 135.685 53.9283C135.685 53.7553 135.946 53.6895 136.252 53.6895C136.646 53.6895 137.366 53.7553 137.91 53.7553C138.631 53.7553 139.112 53.6895 139.701 53.6895C140.074 53.6895 140.291 53.7988 140.291 53.9517C140.291 54.1671 140.074 54.2553 139.811 54.3434C139.091 54.562 139.113 54.7595 139.047 55.3041C139.025 55.4994 139.025 56.7456 139.025 57.9229C139.025 59.081 139.047 60.1298 139.091 60.806C139.113 61.3718 139.44 61.4843 139.943 61.6786C140.292 61.789 140.444 61.9408 140.444 62.0937C140.446 62.3145 140.142 62.4227 139.901 62.4227Z" fill="black"/>
<path d="M149.011 54.0386C149.296 54.236 149.384 54.5418 149.384 54.8252C149.384 55.2169 148.662 55.8506 148.531 55.8506C148.335 55.8506 147.986 55.6978 147.527 55.305C146.937 54.8252 146.478 54.3645 145.802 54.3645C145.562 54.3645 145.191 54.4972 144.864 54.8453C144.317 55.4133 144.013 56.5045 144.013 57.5098C144.013 58.928 144.603 59.6711 144.711 59.8027C145.126 60.3696 145.912 60.98 147.09 60.98C147.724 60.98 148.444 60.7199 149.188 60.2603C149.297 60.1944 149.471 60.2603 149.471 60.4365C149.471 60.6541 149.296 60.9375 149.122 61.1116C148.38 61.8961 147.111 62.5744 145.76 62.5744C144.165 62.5744 142.944 61.7464 142.332 60.8271C141.895 60.1509 141.611 59.1902 141.611 58.2943C141.611 56.5926 142.485 55.3496 143.795 54.4972C144.559 53.9515 146 53.5566 146.872 53.5566C147.526 53.5577 148.617 53.7339 149.011 54.0386Z" fill="black"/>
<path d="M152.57 62.4036C152.307 62.4036 152.024 62.3378 152.024 62.1414C152.024 61.9673 152.177 61.8378 152.547 61.7253C153.136 61.5746 153.464 61.4196 153.509 61.0056C153.554 60.3496 153.618 58.9536 153.618 57.3592V54.7818C153.618 54.6937 153.574 54.5865 153.442 54.5642C153.159 54.5419 152.614 54.5196 152.439 54.5196C151.784 54.5196 151.501 55.1533 151.282 55.7637C151.107 56.1798 150.933 56.3762 150.758 56.3762C150.561 56.3762 150.474 55.9824 150.495 55.6565C150.518 54.9145 150.648 54.302 150.648 53.8211C150.626 53.6916 150.802 53.4941 150.91 53.4941C151.021 53.4941 151.151 53.5822 151.303 53.647C151.456 53.7128 152.156 53.7574 152.68 53.7574H156.958C157.482 53.7574 158.29 53.6916 158.464 53.6268C158.618 53.561 158.77 53.4952 158.88 53.4952C158.989 53.4952 159.077 53.6926 159.077 53.8222C159.011 54.4559 159.032 54.9782 159.054 55.7234C159.077 56.1597 158.858 56.4219 158.661 56.4219C158.508 56.4219 158.398 56.2892 158.29 55.8529C158.115 55.045 157.745 54.5206 157.177 54.5206C156.74 54.5206 156.238 54.5429 156.085 54.5652C155.976 54.5875 155.933 54.7627 155.91 54.8922C155.889 55.5026 155.91 56.6395 155.91 57.6437C155.91 59.2381 155.933 60.1542 155.998 60.7667C156.064 61.3994 156.217 61.531 156.827 61.7051C157.177 61.8145 157.331 61.9673 157.331 62.0554C157.331 62.2274 157.024 62.4036 156.783 62.4036C156.041 62.4036 155.167 62.3378 154.687 62.3378C154.185 62.3378 153.289 62.4036 152.57 62.4036Z" fill="black"/>
<path d="M167.024 57.531C166.915 57.5533 166.981 57.6414 167.068 57.6839C167.46 57.7943 167.942 58.0342 168.115 58.1647C168.444 58.4269 168.901 58.8186 168.901 59.7146C168.901 60.8939 168.028 61.6583 167.089 62.0054C166.259 62.3122 165.19 62.3557 164.295 62.3557C163.813 62.3557 163.333 62.3345 162.767 62.3345C162.067 62.3345 161.194 62.379 160.43 62.4003C160.123 62.4215 159.863 62.2262 159.863 62.05C159.863 61.8546 160.124 61.7878 160.409 61.7219C161.172 61.5266 161.194 61.2209 161.238 60.6965C161.304 60.2379 161.326 59.5171 161.326 57.8155C161.326 56.9631 161.347 56.1998 161.304 55.3485C161.283 54.7997 161.217 54.6256 160.475 54.4079C160.213 54.3421 159.994 54.168 159.994 53.9058C159.994 53.7965 160.081 53.6861 160.453 53.6861C160.845 53.6861 161.741 53.753 162.177 53.753C162.593 53.753 164.426 53.6426 165.125 53.6426C166.5 53.6426 168.333 53.9908 168.333 55.7179C168.333 56.7465 167.678 57.2242 167.024 57.531ZM164.273 54.3665C163.967 54.3665 163.771 54.4324 163.683 54.4971C163.617 54.5629 163.574 54.6924 163.552 54.9769C163.53 55.2816 163.509 56.8325 163.552 57.1595C163.574 57.3357 163.661 57.3781 163.792 57.3781C164.164 57.3781 164.841 57.3569 165.19 57.2242C165.758 57.0087 166.064 56.5278 166.064 55.8941C166.064 55.3039 165.539 54.3665 164.273 54.3665ZM165.736 58.4269C165.408 58.2083 164.732 58.0543 164.339 58.0543C164.077 58.0543 163.945 58.0543 163.749 58.0989C163.661 58.1201 163.617 58.2083 163.596 58.3611C163.552 58.5787 163.552 59.4078 163.574 60.1275C163.574 60.5458 163.618 60.8939 163.814 61.1997C163.989 61.4396 164.448 61.7018 164.667 61.7018C165.714 61.7018 166.501 60.8292 166.501 59.8239C166.5 59.1689 166.13 58.7093 165.736 58.4269Z" fill="black"/>
<path d="M179.903 57.9944C179.903 59.8489 178.769 61.1811 177.96 61.7055C177.065 62.3393 175.952 62.5993 174.947 62.5993C173.963 62.5993 172.742 62.1418 171.934 61.4646C170.995 60.7013 170.297 59.3266 170.297 58.1037C170.297 56.5772 170.973 55.418 171.802 54.7195C172.458 54.1537 173.68 53.4531 175.296 53.4531C177.479 53.451 179.903 55.1548 179.903 57.9944ZM173.812 54.6537C173.308 55.1113 172.916 56.0719 172.916 57.5125C172.916 58.2322 173.003 59.0612 173.178 59.609C173.636 61.1387 174.641 61.8796 175.557 61.8796C175.775 61.8796 176.191 61.7055 176.517 61.3138C176.977 60.7448 177.326 59.5867 177.326 58.3426C177.326 57.4254 177.128 56.0072 176.453 55.0465C176.059 54.5423 175.493 54.1739 174.882 54.1739C174.51 54.1729 174.161 54.3268 173.812 54.6537Z" fill="black"/>
<path d="M187.679 62.3372C187.506 62.3372 187.287 62.403 187.112 62.5538C186.609 63.0134 186.502 64.0824 186.415 64.9146C186.349 65.4157 186.173 65.5898 185.999 65.5898C185.781 65.5898 185.649 65.2628 185.627 65.0006C185.54 64.128 185.496 62.3818 185.452 61.8574C185.431 61.7035 185.54 61.5719 185.627 61.5719C185.889 61.5719 186.151 61.5496 186.414 61.506C186.501 61.4848 186.632 61.4402 186.697 61.3107C187.112 60.35 188.355 57.2249 189.034 55.3481C189.076 55.2175 189.163 54.9776 189.23 54.76C189.296 54.5179 189.579 54.2356 190.169 53.6878C190.322 53.5137 190.474 53.4277 190.606 53.4277C190.736 53.4277 190.868 53.6018 191.152 54.3438C191.785 56.1548 193.227 60.3256 193.597 61.1356C193.663 61.3097 193.795 61.4838 193.99 61.4838C194.275 61.5485 194.667 61.5485 194.974 61.5485C195.061 61.5485 195.126 61.6589 195.104 61.8107C195.039 62.3797 194.601 63.5357 194.471 64.8021C194.405 65.3042 194.165 65.5866 193.946 65.5866C193.728 65.5866 193.619 65.369 193.619 64.8669V64.1684C193.619 62.8797 193.182 62.334 192.593 62.334H187.679V62.3372ZM189.537 56.4871C189.492 56.3332 189.383 56.399 189.338 56.4871C188.88 57.796 187.832 60.6143 187.635 61.333C187.613 61.4211 187.658 61.5283 187.744 61.5283C188.094 61.5283 190.759 61.5729 191.064 61.5071C191.151 61.4859 191.196 61.4211 191.173 61.3553C190.998 60.6993 189.798 57.141 189.537 56.4871Z" fill="black"/>
<path d="M205.28 57.9944C205.28 59.8489 204.144 61.1811 203.336 61.7055C202.441 62.3393 201.328 62.5993 200.323 62.5993C199.34 62.5993 198.119 62.1418 197.31 61.4646C196.371 60.7013 195.674 59.3266 195.674 58.1037C195.674 56.5772 196.349 55.418 197.18 54.7195C197.834 54.1537 199.058 53.4531 200.673 53.4531C202.856 53.451 205.28 55.1548 205.28 57.9944ZM199.189 54.6537C198.685 55.1113 198.293 56.0719 198.293 57.5125C198.293 58.2322 198.38 59.0612 198.554 59.609C199.014 61.1387 200.018 61.8796 200.934 61.8796C201.152 61.8796 201.569 61.7055 201.894 61.3138C202.354 60.7448 202.703 59.5867 202.703 58.3426C202.703 57.4254 202.506 56.0072 201.83 55.0465C201.437 54.5423 200.87 54.1739 200.259 54.1739C199.887 54.1729 199.538 54.3268 199.189 54.6537Z" fill="black"/>
<path d="M213.427 57.531C213.316 57.5533 213.383 57.6414 213.47 57.6839C213.862 57.7943 214.343 58.0342 214.517 58.1647C214.845 58.4269 215.304 58.8186 215.304 59.7146C215.304 60.8939 214.43 61.6583 213.49 62.0054C212.662 62.3122 211.592 62.3557 210.698 62.3557C210.216 62.3557 209.736 62.3345 209.169 62.3345C208.469 62.3345 207.596 62.379 206.832 62.4003C206.527 62.4215 206.266 62.2262 206.266 62.05C206.266 61.8546 206.527 61.7878 206.811 61.7219C207.576 61.5266 207.596 61.2209 207.64 60.6965C207.706 60.2379 207.728 59.5171 207.728 57.8155C207.728 56.9631 207.751 56.1998 207.706 55.3485C207.684 54.7997 207.619 54.6256 206.876 54.4079C206.615 54.3421 206.397 54.168 206.397 53.9058C206.397 53.7965 206.484 53.6861 206.856 53.6861C207.248 53.6861 208.145 53.753 208.579 53.753C208.995 53.753 210.829 53.6426 211.527 53.6426C212.902 53.6426 214.736 53.9908 214.736 55.7179C214.736 56.7465 214.081 57.2242 213.427 57.531ZM210.674 54.3665C210.37 54.3665 210.173 54.4324 210.085 54.4971C210.019 54.5629 209.976 54.6924 209.953 54.9769C209.932 55.2816 209.911 56.8325 209.953 57.1595C209.976 57.3357 210.064 57.3781 210.195 57.3781C210.567 57.3781 211.243 57.3569 211.592 57.2242C212.159 57.0087 212.465 56.5278 212.465 55.8941C212.465 55.3039 211.942 54.3665 210.674 54.3665ZM212.138 58.4269C211.81 58.2083 211.135 58.0543 210.741 58.0543C210.48 58.0543 210.348 58.0543 210.151 58.0989C210.064 58.1201 210.02 58.2083 209.998 58.3611C209.953 58.5787 209.953 59.4078 209.976 60.1275C209.976 60.5458 210.019 60.8939 210.216 61.1997C210.391 61.4396 210.849 61.7018 211.068 61.7018C212.115 61.7018 212.902 60.8292 212.902 59.8239C212.901 59.1689 212.531 58.7093 212.138 58.4269Z" fill="black"/>
<path d="M223.606 54.3671C224.107 54.848 224.433 55.5263 224.433 56.2896C224.433 56.4435 224.216 56.814 223.955 56.814H219.194C219.085 56.814 218.977 56.8798 218.954 56.9679C218.888 57.142 218.867 57.47 218.867 57.7545C218.867 58.2322 219.129 59.2375 219.543 59.7831C220.09 60.4816 221.007 60.8765 221.967 60.8765C222.884 60.8765 223.518 60.6578 223.932 60.11C224.019 59.9795 224.13 59.85 224.217 59.85C224.306 59.85 224.414 60.0018 224.414 60.1334C224.414 60.264 224.348 60.5049 224.24 60.679C223.562 61.7257 222.536 62.5781 220.746 62.5781C218.236 62.5781 216.707 60.679 216.707 58.1908C216.707 56.4435 217.667 54.6972 219.48 53.8671C220.025 53.6049 220.68 53.4531 221.271 53.4531C222.142 53.4521 223.036 53.8003 223.606 54.3671ZM219.085 55.918C219.064 56.0274 219.151 56.1367 219.238 56.1367C219.806 56.159 220.483 56.1367 221.574 56.1367C221.947 56.1367 222.338 55.918 222.338 55.3936C222.338 54.7832 221.727 54.0614 221.116 54.0614C220.199 54.0614 219.347 54.9127 219.085 55.918Z" fill="black"/>
<path d="M234.474 54.7174C235.064 55.3936 235.545 56.3989 235.545 57.5772C235.545 59.1717 234.847 60.4604 233.666 61.3765C232.444 62.3372 231.069 62.4911 230.305 62.4911C229.911 62.4911 229.498 62.4688 229.234 62.4242C229.147 62.403 229.06 62.6217 229.06 62.731C229.038 63.7129 229.083 65.5462 229.147 66.0281C229.213 66.6162 229.321 66.9432 230.196 67.2054C230.631 67.337 230.784 67.5111 230.784 67.665C230.784 67.8625 230.435 67.9485 230.173 67.9485C229.561 67.9485 228.056 67.8391 227.269 67.8391C226.724 67.8391 226.441 67.9049 225.502 67.9049C225.129 67.9049 224.867 67.7744 224.867 67.5769C224.867 67.4442 225.086 67.2701 225.435 67.1841C226.462 66.9665 226.593 66.7043 226.658 65.4156C226.68 64.6524 226.724 62.9051 226.724 60.7003C226.724 59.2375 226.746 56.7906 226.702 55.9626C226.68 55.504 226.614 55.4159 226.548 55.3522C226.156 55.0455 225.72 54.6739 225.72 54.5656C225.72 54.4552 225.96 54.1495 226.178 54.0614C226.614 53.9308 227.815 53.5593 228.405 53.2111C228.623 53.0795 228.798 53.0137 228.842 53.0137C228.929 53.0137 229.103 53.2111 229.103 53.3205C229.06 53.7122 229.06 53.9956 229.038 54.3459C229.038 54.434 229.147 54.52 229.212 54.4998C229.605 54.2376 230.196 53.9308 230.5 53.8013C230.872 53.6474 231.373 53.4956 232.006 53.4956C232.881 53.4945 233.886 54.0402 234.474 54.7174ZM229.345 55.0444C229.279 55.1102 229.126 55.3724 229.103 55.6134C228.972 56.5719 228.972 58.3405 229.016 59.4986C229.016 59.8903 229.103 60.2629 229.234 60.5028C229.693 61.3096 230.567 61.748 231.025 61.748C231.266 61.748 231.506 61.6822 231.768 61.4858C232.903 60.6567 233.077 58.7789 233.077 58.1897C233.077 57.5974 232.967 56.487 232.16 55.59C231.681 55.0444 230.872 54.7822 230.523 54.7822C230.108 54.7822 229.627 54.8915 229.345 55.0444Z" fill="black"/>
<path d="M237.338 53.6892C237.754 53.6892 238.517 53.755 239.173 53.755C239.697 53.755 240.396 53.6892 241.051 53.6892C241.27 53.6892 241.554 53.7773 241.554 53.928C241.554 54.1021 241.4 54.2784 241.051 54.3643C240.309 54.5628 240.397 54.8686 240.353 55.1509C240.287 56.3738 240.287 58.0988 240.309 59.1253C240.331 59.2548 240.397 59.2782 240.484 59.1901C241.337 58.2294 242.601 56.8112 243.453 55.8505C243.693 55.5883 243.78 55.3494 243.78 55.2401V54.9779C243.78 54.6722 243.693 54.4981 243.148 54.324C243.017 54.2794 242.776 54.1266 242.776 53.9737C242.776 53.7996 242.972 53.6903 243.322 53.6903C243.78 53.6903 244.37 53.7561 245.024 53.7561C245.658 53.7338 246.159 53.668 246.727 53.668C247.119 53.668 247.273 53.7996 247.273 53.9535C247.273 54.1276 247.119 54.2592 246.749 54.3665C246.138 54.565 246.051 54.8495 246.029 55.1329C246.029 55.307 246.006 56.1148 246.006 57.0532C246.006 58.344 246.05 59.9799 246.072 60.7442C246.094 61.4427 246.532 61.5732 246.925 61.6614C247.273 61.7495 247.448 61.9448 247.448 62.0764C247.448 62.207 247.186 62.4044 246.945 62.4044C246.399 62.4044 245.723 62.3386 245.047 62.3386C244.478 62.3386 243.714 62.4044 242.928 62.4044C242.666 62.4044 242.381 62.2951 242.381 62.0764C242.381 61.9023 242.535 61.793 242.906 61.7049C243.408 61.551 243.648 61.2474 243.671 60.9629C243.714 60.3726 243.779 59.5436 243.779 56.7496C243.779 56.6392 243.692 56.6169 243.627 56.705C242.623 57.8196 241.311 59.258 240.527 60.1986C240.439 60.3079 240.308 60.482 240.308 60.6561V60.9862C240.308 61.2696 240.462 61.4883 240.876 61.638C241.137 61.7049 241.378 61.8588 241.378 61.9883C241.378 62.207 241.094 62.3811 240.811 62.3811C240.591 62.3811 239.371 62.3386 238.867 62.3386C238.147 62.3386 237.623 62.4044 237.23 62.4044C237.034 62.4044 236.619 62.3598 236.619 62.0976C236.619 61.9236 236.837 61.7707 237.186 61.6826C237.732 61.5308 237.907 61.3344 237.973 61.0722C238.016 60.7654 238.037 60.3525 238.037 59.2814C238.037 57.3154 238.037 55.7008 238.016 55.2645C237.994 54.7624 237.862 54.6297 237.293 54.4121C236.903 54.2603 236.792 54.1053 236.792 53.9758C236.792 53.7773 236.99 53.6892 237.338 53.6892Z" fill="black"/>
<path d="M258.08 53.9055C258.08 54.104 257.905 54.3216 257.556 54.3863C256.815 54.5817 256.815 54.8439 256.791 55.1283C256.791 55.3024 256.748 56.2196 256.748 57.4637C256.748 58.7726 256.77 59.9743 256.791 60.7386C256.813 61.4371 257.184 61.5029 257.577 61.6345C257.926 61.7417 258.123 61.9179 258.123 62.092C258.123 62.246 257.839 62.3988 257.556 62.3988C257.404 62.3988 255.657 62.333 255.197 62.333C254.476 62.333 254.149 62.3988 253.756 62.3988C253.428 62.3988 253.124 62.2895 253.124 62.0708C253.124 61.8734 253.321 61.7853 253.648 61.6993C254.149 61.5698 254.411 61.2831 254.455 61.0454C254.498 60.7832 254.498 59.0996 254.498 58.4478C254.498 58.3151 254.432 58.2716 254.388 58.2716C254.061 58.2716 253.69 58.5773 253.211 59.2323C252.642 59.9743 252.251 60.5847 251.747 61.263C251.136 62.0708 250.504 62.5071 249.083 62.5071C248.931 62.5071 248.428 62.5283 248.188 62.4413C248.036 62.3978 247.773 62.3097 247.773 62.1356C247.773 61.9593 247.97 61.9169 248.165 61.8521C248.69 61.6982 249.149 61.4572 250.437 59.7556C251.005 59.0337 251.594 58.4467 251.901 58.2705C251.943 58.2482 251.943 58.2047 251.901 58.2047C250.393 57.8777 249.629 57.0264 249.629 56.0445C249.629 54.8651 250.35 53.6836 253.427 53.6836C254.431 53.6836 255.632 53.7505 256.375 53.7271C256.812 53.7271 257.204 53.7059 257.51 53.7059C257.753 53.7292 258.08 53.7526 258.08 53.9055ZM254.476 54.8439C254.476 54.6485 254.41 54.4076 254.322 54.4076C254.17 54.3651 254.148 54.3417 253.821 54.3417C252.882 54.3417 252.052 54.8661 252.052 55.8927C252.052 57.0933 253.1 57.6824 254.387 57.7058C254.475 57.7058 254.497 57.6399 254.497 57.5518C254.521 56.8746 254.498 55.6071 254.476 54.8439Z" fill="black"/>
</svg>
