<svg width="215" height="62" fill="none" xmlns="http://www.w3.org/2000/svg"><g clip-path="url(#a)" fill="#005B9C"><path d="M88.949 20.123a8.871 8.871 0 0 0-2.58-1.454c-.983-.364-2.089-.485-3.318-.485h-8.108v25.335h5.406v-9.213h3.071a9.491 9.491 0 0 0 3.317-.606 7.109 7.109 0 0 0 2.457-1.576c.737-.727 1.229-1.576 1.597-2.545.369-.97.615-2.061.615-3.273a11.29 11.29 0 0 0-.615-3.637c-.491-1.091-1.105-1.819-1.842-2.546ZM85.14 28.61a3.365 3.365 0 0 1-2.089.727h-2.825v-6.303h2.825c.983 0 1.72.242 2.212.727.491.485.86 1.212.86 2.303-.123 1.212-.369 2.06-.983 2.546ZM109.589 20.608c-.615-.727-1.475-1.333-2.58-1.818-.983-.485-2.212-.728-3.686-.728-1.474 0-2.826.243-3.808.728-1.106.485-1.843 1.09-2.58 1.94-.615.727-1.106 1.696-1.475 2.545-.245.97-.491 1.94-.491 2.91v8.97c0 1.09.123 2.182.491 3.273.246 1.091.737 1.94 1.475 2.788.614.849 1.474 1.455 2.58 1.818.982.485 2.334.728 3.808.728a9.491 9.491 0 0 0 3.317-.606c.983-.364 1.843-.97 2.58-1.576.737-.728 1.229-1.576 1.72-2.546.369-.97.614-2.182.614-3.394v-9.456c0-.97-.122-1.94-.491-2.909a5.222 5.222 0 0 0-1.474-2.667Zm-3.317 15.274c0 .849-.246 1.455-.86 2.061-.615.485-1.229.727-1.966.727-1.106 0-1.843-.363-2.212-.97-.491-.606-.737-1.454-.737-2.424v-9.334c0-.242 0-.606.123-.97a3.61 3.61 0 0 1 .492-.97c.245-.242.491-.485.86-.727.368-.121.86-.242 1.351-.242s.983.12 1.351.363c.369.243.615.485.86.728.246.242.369.606.492.97.123.363.123.605.123.848v9.94h.123ZM122.243 24.972c.123-.364.246-.606.491-.97.246-.242.492-.485.86-.727.369-.121.86-.243 1.352-.243.491 0 .983.122 1.351.243.369.242.614.485.983.727.246.243.369.606.491.849.123.364.246.606.246.848l5.037-1.454c-.122-.849-.491-1.576-.86-2.425-.368-.727-.982-1.454-1.597-2.06-.614-.607-1.474-1.092-2.334-1.455-.983-.364-1.966-.485-3.194-.485-1.475 0-2.826.242-3.809.727-1.106.485-1.843 1.091-2.58 1.94-.614.727-1.106 1.697-1.474 2.545-.246.97-.492 1.94-.492 2.91v9.213c0 1.09.123 2.182.492 3.273.246 1.09.737 1.94 1.474 2.788.614.849 1.474 1.455 2.58 1.818 1.106.485 2.334.728 3.809.728 2.088 0 3.808-.606 5.282-1.697 1.475-1.091 2.335-2.667 2.703-4.607l-5.037-1.455a3.277 3.277 0 0 1-.983 1.94c-.614.485-1.228.727-1.965.727-1.106 0-1.843-.363-2.212-.97-.368-.606-.614-1.454-.614-2.424v-9.334c-.123-.364 0-.606 0-.97ZM143.129 24.972c.123-.364.245-.606.491-.97.246-.242.492-.485.86-.727.369-.121.86-.243 1.352-.243.491 0 .982.122 1.351.243.369.242.614.485.983.727.246.243.368.606.491.849.123.364.246.606.246.848l5.037-1.454c-.123-.849-.491-1.576-.86-2.425-.368-.727-.983-1.454-1.597-2.06-.614-.607-1.474-1.092-2.334-1.455-.983-.364-1.966-.485-3.195-.485-1.474 0-2.825.242-3.808.727-1.106.485-1.843 1.091-2.58 1.94-.614.727-1.106 1.697-1.474 2.545-.246.97-.492 1.94-.492 2.91v9.213c0 1.09.123 2.182.492 3.273.245 1.09.737 1.94 1.474 2.788.614.849 1.474 1.455 2.58 1.818.983.485 2.334.728 3.808.728 2.089 0 3.809-.606 5.283-1.697 1.475-1.091 2.335-2.667 2.703-4.607l-5.037-1.455c-.123.849-.369 1.455-.983 1.94-.614.485-1.228.727-1.966.727-1.105 0-1.842-.363-2.211-.97-.369-.606-.614-1.454-.614-2.424v-9.334c-.246-.364-.123-.606 0-.97ZM158.977 43.52h14.866v-4.97h-9.583v-5.335h8.354v-4.849h-8.354v-5.334h9.583v-4.848h-14.866v25.335ZM176.792 23.032h5.528V43.52h5.283V23.033h5.529v-4.85h-16.34v4.85ZM210.209 18.184l-7.372 14.668V18.184h-5.406v25.335h5.038l7.125-13.82h.123v13.82H215V18.184h-4.791ZM34.523 15.032 5.406 13.456C1.966 18.426 0 24.487 0 30.912c0 1.697.123 3.394.491 5.091l34.4-19.88c-.245-.364-.245-.728-.368-1.091ZM42.263 16.85 62.41 35.64c.246-1.576.37-3.152.37-4.85 0-6.666-2.09-12.728-5.775-17.82L43 14.79c0 .727-.368 1.454-.737 2.06ZM35.629 17.335 1.229 39.64c2.334 7.758 7.74 14.304 14.865 18.184L36.243 17.82c-.246 0-.369-.243-.614-.485ZM37.717 18.547 19.411 59.521c3.686 1.454 7.74 2.303 11.917 2.303 4.178 0 8.11-.849 11.672-2.182L38.454 18.79c-.245-.121-.491-.121-.737-.243ZM40.051 18.547l6.39 39.519c7.125-3.88 12.53-10.425 14.988-18.305L41.157 18.062c-.368.243-.737.364-1.105.485ZM36.12 11.274 29.486 0c-8.6.485-16.218 4.364-21.5 10.304l26.66 3.152c.245-.849.737-1.576 1.474-2.182ZM38.823 10.425c1.72 0 3.194 1.091 3.809 2.546l11.917-2.788C49.266 4.364 41.772.485 33.417 0l4.423 10.546c.246-.12.614-.12.983-.12Z"/></g><defs><clipPath id="a"><path fill="#fff" d="M0 0h215v61.824H0z"/></clipPath></defs></svg>