<svg xmlns="http://www.w3.org/2000/svg" width="98" height="136" fill="none">
  <g fill="#000" fill-rule="evenodd" clip-path="url(#a)" clip-rule="evenodd">
    <path d="M26.3963 123.208c2.1845 0 3.9571 1.994 3.9571 4.451s-1.7726 4.451-3.9571 4.451-3.957-1.994-3.957-4.451 1.7725-4.451 3.957-4.451Zm0-3.391c4.3523 0 7.8819 3.512 7.8819 7.842s-3.5296 7.842-7.8819 7.842-7.8819-3.512-7.8819-7.842 3.5296-7.842 7.8819-7.842Zm18.433 3.391c1.3507 0 2.6213.606 3.3354 1.769l2.5891-2.489c-1.4448-1.637-3.5633-2.671-5.9245-2.671-4.3522 0-7.8818 3.512-7.8818 7.842s3.5296 7.842 7.8818 7.842c2.4159 0 4.5778-1.083 6.0237-2.786l-2.6904-2.309c-.7182 1.126-2.0082 1.704-3.3333 1.704-2.1844 0-3.9569-1.994-3.9569-4.451s1.7725-4.451 3.9569-4.451Zm26.0536 5.48h11.3212c.0428-.337.0651-.68.0651-1.029 0-4.33-3.4045-7.842-7.6024-7.842-4.1979 0-7.6023 3.512-7.6023 7.842s3.4044 7.842 7.6023 7.842c2.394 0 5.1467-.407 6.5402-2.192l-1.7308-2.511c-.8683 1.251-3.1655 1.6-4.6313 1.6-1.9375 0-3.5591-1.589-3.962-3.71Zm.0862-2.438c.5141-1.928 2.0555-3.33 3.8757-3.33 1.8204 0 3.3619 1.402 3.8759 3.33h-7.7516Zm-17.8301-6.075h12.1838v3.365H61.112v11.602h-3.7622V123.54H53.139v-3.365Zm35.3574 7.251-5.1286-7.251h4.5307l3.0695 4.633 3.0696-4.633h4.5306l-5.1286 7.251 5.3609 7.716h-4.3782l-3.4543-5.009-3.4543 5.009h-4.3781l5.3608-7.716Zm2.4716-1.916-.0176.029h.0353l-.0177-.029Zm-81.60568-7.301c1.63398 0 2.95908 1.329 2.95908 2.966 0 1.638-1.3251 2.966-2.95908 2.966H4.37475v-5.932h4.98757Zm-9.120132-3.521H10.213c3.5744 0 6.4732 2.905 6.4732 6.487 0 3.583-2.8988 6.488-6.4732 6.488H4.37475v7.479H.242188v-20.454ZM12.6175 13.1462h32.9908L32.9908.5H0v33.0658l12.6175 12.6463V13.1462Zm39.8028 0h32.9908v33.0659l12.6175-12.6463V.5H65.0378L52.4203 13.1462Zm32.9908 39.8931v33.0659H52.4203l12.6175 12.6462h32.9908V65.6856L85.4111 53.0393ZM45.6083 86.1052H12.6175V53.0393L0 65.6856v33.0658h32.9908l12.6175-12.6462Z"/>
  </g>
  <defs>
    <clipPath id="a">
      <path fill="#fff" d="M0 0h98v135H0z" transform="translate(0 .5)"/>
    </clipPath>
  </defs>
</svg>