<svg width="195" height="49" viewBox="0 0 195 49" fill="none" xmlns="http://www.w3.org/2000/svg">
<path d="M53.0076 20.5254C54.1544 20.5254 55.431 20.5652 56.538 21.3132C57.276 21.8019 58.1436 22.7693 58.1436 24.4946C58.1436 26.3895 56.9469 28.6234 53.6259 28.6234H50.8334V33.8194H48.3901V20.5254H53.0076V20.5254ZM53.1073 26.6787C53.6458 26.6787 54.4237 26.6986 55.042 26.1202C55.4709 25.7313 55.7003 25.073 55.7003 24.5146C55.7003 23.996 55.4908 23.3677 55.062 22.9987C54.6331 22.6297 53.955 22.4501 53.197 22.4501H50.8334V26.6787H53.1073V26.6787ZM60.3976 24.9434C61.0758 24.3051 62.0831 23.7466 63.589 23.7466C65.1049 23.7466 66.1122 24.3051 66.7903 24.9434C67.7976 25.8908 68.3162 27.3668 68.3162 28.8728C68.3162 30.3787 67.7976 31.8547 66.7903 32.8021C66.1122 33.4404 65.1049 34.0088 63.589 34.0088C62.0831 34.0088 61.0758 33.4404 60.3976 32.8021C59.3904 31.8547 58.8718 30.3787 58.8718 28.8728C58.8618 27.3569 59.3904 25.8908 60.3976 24.9434V24.9434ZM62.0432 31.6652C62.2526 31.9145 62.7413 32.3832 63.589 32.3832C64.4467 32.3832 64.9254 31.9245 65.1348 31.6652C65.2944 31.4957 65.8728 30.7178 65.8728 28.8728C65.8728 27.0278 65.2944 26.2598 65.1348 26.0803C64.9254 25.831 64.4367 25.3623 63.589 25.3623C62.7413 25.3623 62.2526 25.821 62.0432 26.0803C61.8936 26.2598 61.3052 27.0278 61.3052 28.8728C61.3052 30.7078 61.8936 31.4857 62.0432 31.6652ZM76.0452 27.5563C76.0053 27.0577 75.8158 26.4693 75.5565 26.1003C75.3171 25.7512 74.8584 25.3623 74.0805 25.3623C73.3225 25.3623 72.8239 25.7512 72.5147 26.2698C72.026 27.0676 71.9961 28.3043 71.9961 28.8728C71.9961 29.7803 72.1258 30.8674 72.5147 31.4857C72.764 31.8746 73.2727 32.3733 74.0805 32.3733C74.6589 32.3733 75.1476 32.1439 75.5166 31.6353C75.8058 31.2264 76.0053 30.6479 76.0352 30.1393L78.0896 30.3887C77.9699 31.2962 77.571 32.3134 76.853 32.9617C76.2546 33.5002 75.3171 33.9889 74.0007 33.9889C72.5347 33.9889 71.5773 33.4105 71.0188 32.8819C70.2608 32.1638 69.5428 30.8873 69.5428 28.8728C69.5428 26.9978 70.181 25.8709 70.6897 25.2725C71.4077 24.4148 72.6244 23.7267 74.0605 23.7267C75.2872 23.7267 76.2945 24.1555 76.9228 24.8138C77.561 25.452 77.95 26.4194 78.0896 27.2871L76.0452 27.5563V27.5563ZM85.6592 27.5563C85.6193 27.0577 85.4298 26.4693 85.1705 26.1003C84.9412 25.7512 84.4724 25.3623 83.6945 25.3623C82.9366 25.3623 82.4379 25.7512 82.1288 26.2698C81.6501 27.0676 81.6102 28.3043 81.6102 28.8728C81.6102 29.7803 81.7498 30.8674 82.1288 31.4857C82.3781 31.8746 82.8867 32.3733 83.6945 32.3733C84.273 32.3733 84.7616 32.1439 85.1306 31.6353C85.4199 31.2264 85.6193 30.6479 85.6492 30.1393L87.7037 30.3887C87.594 31.2962 87.1851 32.3134 86.467 32.9617C85.8686 33.5002 84.9412 33.9889 83.6247 33.9889C82.1487 33.9889 81.2013 33.4105 80.6428 32.8819C79.8849 32.1638 79.1668 30.8873 79.1668 28.8728C79.1668 26.9978 79.8051 25.8709 80.3137 25.2725C81.0317 24.4148 82.2485 23.7267 83.6846 23.7267C84.9013 23.7267 85.9085 24.1555 86.5468 24.8138C87.1851 25.452 87.574 26.4194 87.7136 27.2871L85.6592 27.5563V27.5563ZM98.0758 30.9471C97.7268 32.104 97.0284 32.7822 96.45 33.1911C95.6721 33.7096 94.6648 34.0088 93.5977 34.0088C92.2613 34.0088 90.905 33.4404 90.0872 32.6126C89.3293 31.8447 88.7708 30.4983 88.7708 28.9126C88.7708 26.8981 89.6085 25.5617 90.5161 24.8038C91.0446 24.355 92.032 23.7367 93.5179 23.7367C95.4028 23.7367 96.5996 24.6043 97.2379 25.5019C97.9158 26.4294 98.2348 27.7259 98.2348 28.8528V29.3016H91.2242C91.2242 29.4113 91.2042 30.3089 91.5533 31.0269C92.0719 32.114 93.0293 32.3832 93.6875 32.3832C94.2061 32.3832 94.8643 32.2237 95.4128 31.6652C95.7419 31.3161 95.8815 30.987 95.9314 30.6779L98.0758 30.9471V30.9471ZM95.7918 27.8256C95.7918 27.2671 95.6522 26.6288 95.3629 26.2C94.9939 25.6614 94.3357 25.2924 93.6177 25.2924C92.8797 25.2924 92.2414 25.6614 91.8524 26.1202C91.5433 26.5092 91.274 27.1075 91.274 27.8256H95.7918V27.8256ZM107.799 23.9361V33.8194H105.546V25.6116H102.992C102.933 26.948 102.893 27.4865 102.853 28.404C102.793 29.4312 102.723 31.5954 101.846 32.7822C101.357 33.4204 100.758 33.6698 100.33 33.7894C100.08 33.8692 99.8108 33.8991 99.5318 33.8991C99.3418 33.8991 99.1428 33.8792 98.9528 33.8194V32.114H99.1428C99.4318 32.094 99.8208 31.9444 100.07 31.745C100.848 31.1266 100.918 29.7304 100.998 28.6234C101.098 27.1674 101.118 26.2997 101.127 24.9833L101.147 23.9361H107.799V23.9361ZM112.417 27.4566H114.9C115.538 27.4566 116.775 27.5364 117.593 28.3442C118.331 29.0622 118.401 30.0695 118.401 30.6081C118.401 32.0242 117.822 32.7423 117.373 33.1113C117.214 33.231 116.486 33.8094 115.09 33.8094H110.173V23.9361H112.417V27.4566V27.4566ZM112.417 32.1838H114.182C114.611 32.1838 115.07 32.1638 115.459 31.8347C115.688 31.6153 115.967 31.2563 115.967 30.628C115.967 30.0895 115.808 29.6606 115.369 29.3714C114.98 29.1221 114.491 29.0822 114.192 29.0822H112.427V32.1838H112.417V32.1838ZM121.672 23.9361L123.497 27.0078L125.392 23.9361H127.446L124.554 28.404L127.985 33.8094H125.352L123.108 30.0895L120.744 33.8094H118.69L122.061 28.6833L119.039 23.9361H121.672V23.9361ZM129.72 24.9434C130.398 24.3051 131.406 23.7466 132.911 23.7466C134.427 23.7466 135.435 24.3051 136.113 24.9434C137.12 25.8908 137.639 27.3668 137.639 28.8728C137.639 30.3787 137.11 31.8547 136.113 32.8021C135.435 33.4404 134.427 34.0088 132.911 34.0088C131.406 34.0088 130.398 33.4404 129.72 32.8021C128.713 31.8547 128.194 30.3787 128.194 28.8728C128.194 27.3569 128.713 25.8908 129.72 24.9434ZM131.366 31.6652C131.575 31.9145 132.064 32.3832 132.911 32.3832C133.769 32.3832 134.248 31.9245 134.467 31.6652C134.617 31.4957 135.205 30.7178 135.205 28.8728C135.205 27.0278 134.627 26.2598 134.467 26.0803C134.258 25.831 133.769 25.3623 132.911 25.3623C132.064 25.3623 131.575 25.821 131.366 26.0803C131.206 26.2598 130.628 27.0278 130.628 28.8728C130.628 30.7078 131.216 31.4857 131.366 31.6652ZM138.845 26.6089C139.135 25.4121 139.892 24.7539 140.431 24.4248C140.76 24.2154 141.668 23.7466 143.223 23.7466C144.191 23.7466 145.178 23.9162 145.916 24.3251C147.003 24.9235 147.272 25.7911 147.272 26.4194C147.272 27.0976 146.943 28.3941 145.258 28.5835V28.6234C145.836 28.7032 146.475 28.9525 146.864 29.3614C147.213 29.7304 147.482 30.3488 147.482 31.007C147.482 31.9943 146.903 32.862 146.165 33.3506C145.278 33.9291 144.051 34.0088 143.144 34.0088C142.226 34.0088 140.84 33.9091 139.863 33.1412C139.324 32.7124 138.815 31.9744 138.666 31.0469L140.7 30.6978C140.78 31.007 140.95 31.4757 141.179 31.745C141.688 32.3334 142.475 32.3832 142.984 32.3832C143.493 32.3832 144.031 32.3234 144.46 32.0342C144.849 31.7649 145.039 31.3959 145.039 30.9072C145.039 30.4984 144.959 30.1692 144.61 29.88C144.161 29.511 143.563 29.4512 143.004 29.4512H141.977V27.9353H143.004C143.393 27.9353 143.951 27.8555 144.261 27.7059C144.67 27.4965 144.899 27.1474 144.899 26.579C144.899 26.2698 144.779 25.9706 144.49 25.7412C144.041 25.3722 143.403 25.3523 143.074 25.3523C142.625 25.3523 141.967 25.4121 141.428 25.8709C141.199 26.0604 140.89 26.4294 140.79 27.0078L138.845 26.6089V26.6089ZM158.981 22.8491H152.568V25.7911H155.42C156.448 25.7911 157.435 25.8709 158.442 26.569C159.43 27.2472 160.048 28.2544 160.048 29.7105C160.048 31.0668 159.539 32.0741 158.901 32.7123C157.934 33.6797 156.827 33.8194 155.67 33.8194H149.467V20.5254H158.981V22.8491ZM152.568 31.4857H155.071C155.54 31.4857 155.969 31.4657 156.408 31.0169C156.837 30.5881 156.896 30.1094 156.896 29.7404C156.896 29.3215 156.777 28.8927 156.408 28.5237C155.969 28.0849 155.4 28.035 154.992 28.035H152.568V31.4857V31.4857ZM161.644 26.6787C161.953 25.3423 162.82 24.6641 163.349 24.355C164.117 23.9062 165.144 23.7367 166.431 23.7367C168.056 23.7367 169.702 23.9461 170.44 25.4819C170.829 26.2798 170.789 27.1275 170.789 27.8655V31.6851C170.789 32.483 170.898 33.221 171.078 33.8194H168.266C168.186 33.4304 168.126 32.9118 168.116 32.2536C167.747 32.9118 166.849 34.0188 164.805 34.0188C163.897 34.0188 162.96 33.7894 162.322 33.2609C161.703 32.7522 161.314 31.9444 161.314 31.0568C161.314 30.0695 161.743 28.8827 163.429 28.1846C164.516 27.7358 166.281 27.5862 167.069 27.5463L167.996 27.5065V27.297C167.996 27.0277 167.976 26.4493 167.707 26.1302C167.338 25.7013 166.6 25.6814 166.311 25.6814C165.912 25.6814 165.423 25.7213 165.014 25.9706C164.765 26.1202 164.436 26.4393 164.316 26.9779L161.644 26.6787V26.6787ZM167.129 29.142C166.161 29.2218 165.194 29.3215 164.645 29.9897C164.496 30.1792 164.336 30.4784 164.336 30.8773C164.336 31.3062 164.546 31.5954 164.765 31.745C165.034 31.9544 165.443 32.0541 165.832 32.0541C166.411 32.0541 167.089 31.8048 167.478 31.3361C167.538 31.2762 167.996 30.6978 167.996 29.5709V29.0523L167.129 29.142ZM175.915 23.9361V27.6361H179.036V23.9361H181.919V33.8094H179.036V29.6606H175.915V33.8094H173.033V23.9361H175.915V23.9361ZM187.055 23.9361V27.7358H187.833C188.67 27.7358 189.019 27.3269 189.229 26.8782C189.638 26.0105 189.618 25.3323 189.987 24.6542C190.276 24.1156 190.665 23.976 190.914 23.9361H193.298C192.989 24.2652 192.719 24.6542 192.54 25.0032C192.231 25.6415 191.942 26.6887 191.762 27.1375C191.533 27.7558 191.144 28.3741 190.156 28.4539V28.4938C190.685 28.5736 191.224 28.8428 191.632 29.4412C191.882 29.8102 192.051 30.2889 192.331 31.0469C192.6 31.8248 192.719 32.094 192.969 32.6924C193.168 33.1412 193.278 33.4105 193.607 33.8194H190.894C190.466 33.6797 190.176 33.3905 189.827 32.3832C189.558 31.6153 189.518 31.3361 189.339 30.9072L189.199 30.5582C188.91 29.8202 188.521 29.6706 187.922 29.6706H187.055V33.8194H184.173V23.9361H187.055V23.9361Z" fill="#19502E"/>
<path d="M21.8223 48.5C10.0641 48.5 0.5 38.9459 0.5 27.1877C0.5 20.436 3.6016 14.2228 9.007 10.1539L9.2264 9.9743V0.5H21.4632V5.87544H21.8223C33.5704 5.87544 43.1345 15.4395 43.1345 27.1977C43.1345 38.9459 33.5704 48.5 21.8223 48.5Z" fill="#19502E"/>
<path d="M15.6487 27.5265L20.0867 23.1683V20.2063L15.6487 24.5446V27.5265ZM15.6487 16.4864L20.0867 12.1182V9.3258L15.6487 13.664V16.4864ZM15.6487 20.1365L20.0867 15.7783V12.9859L15.6487 17.3241V20.1365ZM14.3822 9.35572L13.7938 8.78726V1.87598H13.1157V8.12905L12.5372 7.55061V1.87598H11.8591V6.90237L11.2707 6.32393V1.87598H10.6025V8.46813L15.0504 12.8263V1.87598H14.3822V9.35572ZM15.6487 23.7866L20.0867 19.4284V16.636L15.6487 20.9742V23.7866ZM10.6025 23.1683L15.0504 27.5265V24.5446L10.6025 20.2063V23.1683V23.1683ZM19.4185 6.32393L18.8301 6.90237V1.87598H18.1619V7.56059L17.5735 8.12905V1.87598H16.9053V8.77729L16.3169 9.35572V1.87598H15.6487V12.8263L20.0867 8.46813V1.87598H19.4185V6.32393V6.32393ZM10.6025 12.1182L15.0504 16.4864V13.664L10.6025 9.3258V12.1182V12.1182ZM10.6025 15.7783L15.0504 20.1365V17.3241L10.6025 12.9859V15.7783V15.7783ZM10.6025 19.4284L15.0504 23.7866V20.9742L10.6025 16.636V19.4284V19.4284ZM37.0608 21.7322H26.2601C26.4895 21.3732 26.6191 20.9543 26.6191 20.5055C26.6191 19.219 25.5719 18.1818 24.2854 18.1818C22.9989 18.1818 21.9617 19.229 21.9617 20.5055C21.9617 21.0142 22.1213 21.4729 22.4005 21.8519C22.2011 21.9815 22.0614 22.2109 22.0614 22.4802C22.0614 22.7395 22.2011 22.9689 22.4005 23.0985C22.1313 23.4775 21.9617 23.9462 21.9617 24.4449C21.9617 25.7314 22.9989 26.7686 24.2854 26.7686C25.5719 26.7686 26.6191 25.7314 26.6191 24.4449C26.6191 23.9961 26.4895 23.5672 26.2601 23.2182H34.2983V23.7069H33.5005V24.395H34.2983V25.1031H33.5005V26.4095H34.2983V25.8211H35.4751V26.4095H36.263V25.1031H35.4751V24.395H36.263V23.7069H35.4751V23.2182H37.0608C37.37 23.2182 37.6193 22.9589 37.6193 22.6497V22.3007C37.6193 21.9915 37.36 21.7322 37.0608 21.7322V21.7322ZM25.4922 24.4449C25.4922 25.1031 24.9536 25.6416 24.2854 25.6416C23.6272 25.6416 23.0887 25.1031 23.0887 24.4449C23.0887 24.2055 23.1585 23.9761 23.2881 23.7866L23.6172 23.2182C23.4078 23.0387 23.2781 22.7694 23.2781 22.4702C23.2781 22.171 23.4078 21.9018 23.6172 21.7222L23.2881 21.1538C23.1585 20.9643 23.0887 20.7449 23.0887 20.4956C23.0887 19.8373 23.6272 19.2988 24.2854 19.2988C24.9436 19.2988 25.4922 19.8373 25.4922 20.4956C25.4922 20.9842 24.9237 22.1511 24.9237 22.1511V22.7794C24.9237 22.7894 25.4922 23.9562 25.4922 24.4449V24.4449Z" fill="#FFCB05"/>
<path d="M6.56348 20.3164V23.2186C6.56348 25.9911 7.7702 27.7762 8.4683 28.4644C8.8772 28.8633 13.006 32.9323 13.0659 32.9821C14.3524 34.2387 14.5718 34.6476 14.861 35.3657V32.1544C14.861 29.2921 13.4149 28.1851 12.6669 27.4571C10.9217 25.7617 9.7648 24.6447 8.8174 23.7072C7.04218 21.9221 6.56348 20.3164 6.56348 20.3164V20.3164ZM12.667 34.6277C10.9317 32.9223 9.7648 31.8153 8.8274 30.8778C7.04222 29.0927 6.57349 27.8859 6.57349 27.8859V30.3891C6.57349 33.1616 7.8301 34.9269 8.4684 35.6549C8.8772 36.0538 13.016 40.1028 13.0659 40.1527C14.3524 41.4093 14.5718 42.0077 14.861 42.7158V39.3249C14.861 36.4627 13.405 35.3557 12.667 34.6277V34.6277Z" fill="white"/>
<path d="M21.822 7.24219C21.5029 7.24219 21.1837 7.25216 20.8646 7.26214V8.61846C21.1837 8.59852 21.4929 8.59852 21.822 8.59852C32.0842 8.59852 40.4017 16.916 40.4017 27.1882C40.4017 37.4504 32.0842 45.7679 21.822 45.7679C11.5598 45.7679 3.23231 37.4504 3.23231 27.1882C3.23231 21.4936 5.79537 16.3974 9.83446 12.9867V11.2514C4.99753 14.8915 1.87598 20.6758 1.87598 27.1882C1.87598 38.1984 10.8018 47.1242 21.822 47.1242C32.8322 47.1242 41.758 38.1984 41.758 27.1882C41.758 16.178 32.8322 7.24219 21.822 7.24219Z" fill="white"/>
<path d="M35.9243 37.6C36.2334 37.1811 36.5227 36.7423 36.8019 36.2935V33.6208H35.9243V37.6ZM38.4774 32.6434C38.607 32.2545 38.7167 31.8656 38.8164 31.4766H35.9243V32.1847H36.3631C37.131 32.1647 37.9987 32.1548 38.4774 32.6434Z" fill="white"/>
<path d="M19.2195 31.376H18.4316V39.3244H19.2195V31.376V31.376Z" fill="white"/>
<path d="M16.6263 29.8503H19.2192C19.8874 29.8503 20.3562 29.9899 20.6254 30.2492C20.8947 30.5085 21.0244 30.9773 21.0244 31.6455V39.0753C21.0244 39.7435 20.8947 40.2123 20.6254 40.4716C20.2165 40.8804 19.4586 40.8804 18.8303 40.8804C18.6907 40.8705 18.5511 40.8705 18.4314 40.8705V44.3909C18.6907 44.4408 18.95 44.4907 19.2192 44.5306V41.6384C20.416 41.6384 21.1939 41.2295 21.5629 40.4117V44.72H21.8222C21.9818 44.72 22.1513 44.72 22.3109 44.7101V31.7751C22.3109 31.087 22.4505 30.6083 22.7098 30.339C22.9691 30.0697 23.4378 29.9301 24.096 29.9301C24.7642 29.9301 25.7516 29.8304 26.2602 30.339C26.5195 30.6083 26.6391 31.0969 26.6391 31.7751V35.5848H24.864V31.5158H24.096V44.5705C24.3553 44.5405 24.6047 44.5006 24.864 44.4508V36.3527H26.6391V44.0419C27.0081 43.9422 27.3672 43.8225 27.7262 43.6928V36.6519C27.7262 35.8541 27.9157 35.2557 28.7235 34.9864L27.8259 30.0897H29.6211L29.9203 35.4352H30.1397L30.4389 30.0897H32.3337L31.3165 34.9864C32.1642 35.2856 32.3337 35.8042 32.3337 36.6519V41.1996C32.8623 40.8007 33.3609 40.3818 33.8396 39.923V30.0398H39.1054C39.1453 29.8005 39.1752 29.5711 39.2051 29.3218H26.8984L27.068 30.2093C26.679 29.4913 25.941 29.1323 24.854 29.1323H24.0861C22.7796 29.1323 21.9917 29.6509 21.6826 30.6881C21.4033 29.601 20.5756 29.0625 19.2093 29.0625H15.8384V43.6529C16.0977 43.7427 16.357 43.8324 16.6163 43.9122V29.8503H16.6263V29.8503ZM32.972 35.4651L32.1243 34.6573L32.972 30.2692V35.4651Z" fill="white"/>
<path d="M29.6309 42.8849C29.9002 42.7453 30.1694 42.6057 30.4387 42.4561V36.4424H29.6309V42.8849Z" fill="white"/>
</svg>
