<?xml version="1.0" encoding="UTF-8" standalone="no"?>
<svg
   xmlns:dc="http://purl.org/dc/elements/1.1/"
   xmlns:cc="http://creativecommons.org/ns#"
   xmlns:rdf="http://www.w3.org/1999/02/22-rdf-syntax-ns#"
   xmlns:svg="http://www.w3.org/2000/svg"
   xmlns="http://www.w3.org/2000/svg"
   viewBox="0 0 594.66669 490.66666"
   height="490.66666"
   width="594.66669"
   xml:space="preserve"
   id="svg2"
   version="1.1"><metadata
     id="metadata8"><rdf:RDF><cc:Work
         rdf:about=""><dc:format>image/svg+xml</dc:format><dc:type
           rdf:resource="http://purl.org/dc/dcmitype/StillImage" /></cc:Work></rdf:RDF></metadata><defs
     id="defs6" /><g
     transform="matrix(1.3333333,0,0,-1.3333333,0,490.66667)"
     id="g10"><g
       transform="scale(0.1)"
       id="g12"><path
         id="path14"
         style="fill:#f15a22;fill-opacity:1;fill-rule:nonzero;stroke:none"
         d="m 796.555,3672.77 h 528.205 c 0.1,-243.31 -0.1,-486.61 0,-729.91 -3,-27 14.2,-56.9 43.2,-59.2 63.4,-8 127.3,5 191,-2.2 185.4,2.4 370.8,0.6 556.3,-0.19 0,-175.31 0,-350.61 0,-525.91 -249.01,0 -497.9,0.1 -746.9,-0.09 -154,-4.11 -306.31,65 -411.204,176.69 -104.203,105.5 -159.898,253.81 -160.699,401.31 0.098,246.49 0.098,493 0.098,739.5 z m 2343.805,0 h 529.89 c -0.09,-243.41 0.21,-486.81 -0.19,-730.11 -1.31,-20.3 3.2,-45.39 24.2,-54.2 40.2,-13.1 83.1,-5.3 124.6,-5.59 120,-3.41 240.1,0 360.1,-1.21 92.2,1.4 184.59,-4.5 276.6,3.3 7.7,-97.3 0.8,-195.3 2.1,-292.89 6.8,-78.71 -4.6,-157.51 2.39,-236.31 -226.8,-0.7 -453.69,-0.6 -680.59,-0.1 -10.7,170.9 -90.4,335.6 -215.41,452.2 -113.99,109.3 -266.69,174.1 -423.59,187.2 -0.2,225.9 0,451.8 -0.1,677.71" /><path
         id="path16"
         style="fill:#65737f;fill-opacity:1;fill-rule:nonzero;stroke:none"
         d="m 2351.55,2880.56 c 132.31,4.7 264.91,-2.2 397.31,2.4 50,4.2 100,-5.3 150.1,-1.19 43.2,4.5 86.4,-0.31 129.7,-0.31 101.8,5.9 206.3,-4.9 299.5,-48.4 167.09,-73.9 294.3,-231.6 329.7,-410.99 16.3,-88.91 11.8,-179.71 12.3,-269.61 0.09,-183.4 -0.2,-366.69 0.2,-550 -0.11,-14.4 -2.4,-28.7 -4.81,-42.89 -174.69,1.99 -349.5,0.59 -524.19,0.79 -2.41,247.6 -0.1,495.41 -1.1,743.1 2.1,32.91 -31.71,55 -61.9,51.9 -242.31,0.1 -484.5,-0.09 -726.81,0.1 0.11,175 0.11,350 0,525.1" /><path
         id="path18"
         style="fill:#65737f;fill-opacity:1;fill-rule:nonzero;stroke:none"
         d="m 8.65625,2884.26 c 225.59775,-2.2 450.99975,-3.4 676.60175,-0.6 13,-150.89 71.793,-298.3 173.793,-411.1 117.406,-131.6 286.809,-220.9 464.209,-228.4 3.6,-550.5 0.3,-1101.1 1.7,-1651.594 -3.1,-29.703 21.9,-59.902 53,-56.003 245.7,-0.301 491.5,0 737.2,0 0.2,-176.903 0,-353.801 0.1,-530.60206 -252.4,0.30469 -504.8,-0.69922 -757.2,0.40625 C 1149.66,9.5625 949.656,137.367 858.457,324.563 c -47.5,91.398 -64.402,195.8 -62.102,298 0.2,560.197 0.497,1120.497 -0.101,1680.707 3.699,31.69 -27.301,54 -56.602,51.79 -243.695,0.8 -487.3,0.1 -730.99575,0.3 v 528.9" /></g></g></svg>