<?xml version="1.0" encoding="UTF-8" standalone="no"?>
<svg
   xmlns:dc="http://purl.org/dc/elements/1.1/"
   xmlns:cc="http://creativecommons.org/ns#"
   xmlns:rdf="http://www.w3.org/1999/02/22-rdf-syntax-ns#"
   xmlns:svg="http://www.w3.org/2000/svg"
   xmlns="http://www.w3.org/2000/svg"
   viewBox="0 0 1089.3333 2025.3333"
   height="2025.3333"
   width="1089.3333"
   xml:space="preserve"
   id="svg2"
   version="1.1"><metadata
     id="metadata8"><rdf:RDF><cc:Work
         rdf:about=""><dc:format>image/svg+xml</dc:format><dc:type
           rdf:resource="http://purl.org/dc/dcmitype/StillImage" /></cc:Work></rdf:RDF></metadata><defs
     id="defs6" /><g
     transform="matrix(1.3333333,0,0,-1.3333333,0,2025.3333)"
     id="g10"><g
       transform="scale(0.1)"
       id="g12"><path
         id="path14"
         style="fill:#214b93;fill-opacity:1;fill-rule:nonzero;stroke:none"
         d="m 6.88672,15187.5 c 149.60928,-20 296.31228,-61.6 433.20728,-125.1 134.398,-61.3 261.894,-137.9 401.301,-187.9 150.398,-55 310.805,-78.8 470.495,-82.5 210.71,-0.3 422.51,-9.3 630.01,-48.6 166.4,-31.8 332.1,-81.2 477.3,-170.5 155,-98.3 279.9,-250.1 330.2,-428.1 68.7,-245.2 16.7,-503.8 -54,-742.3 -36.5,-110.4 -111.7,-202.6 -151.7,-311.5 -48.59,-126.9 -49.2,-265.9 -32.8,-399 113.9,-0.3 227.8,0.5 341.7,-0.4 52.5,44.9 94.5,100.1 140.3,151.4 145.2,167.2 296.49,333 480.01,459.2 100.69,67.3 214.99,124.7 338.6,127.2 143.29,0.3 286.69,0 430.1,0.1 76.29,-0.9 154.79,6.2 228.5,-18.6 132.9,-42 246.3,-127.5 351.39,-216.5 137.51,-119.1 260.21,-253.9 381.21,-389.5 31.9,-34.6 62.2,-70.9 97.7,-102.1 8.09,-8.3 18.11,-11.8 30,-10.7 108.4,-0.4 216.8,0.2 325.3,-0.2 12.5,160.2 -2.4,326.7 -73.59,472.9 -43.1,91.8 -97.62,179.6 -120.11,279.6 -55.8,201.1 -97.6,412.9 -61.1,621.4 24,141.4 91.89,274.5 192.2,377 104.5,117.7 247.6,193.6 395.3,242.8 195,64.7 400.71,89.9 605.1,100.6 158.76,8.9 318.66,-2.1 476.11,23.9 151.36,21.5 296.95,74.4 431.75,145.7 139.72,72.1 280.08,146.3 433.04,186.5 74.45,20.9 150.61,34.8 227.2,45.3 -67.94,-168.7 -136.19,-345.2 -267.15,-476.6 -88.55,-89.2 -196.87,-156.1 -309.13,-210.9 -65.69,-34.1 -133.84,-63.7 -205.41,-82.7 -323.55,-96.3 -663.6,-97.9 -996.3,-135.7 -130.71,-17.7 -267.11,-37.5 -380.61,-109.5 -75.9,-47 -128.1,-128.2 -140.1,-216.7 -22.6,-156.7 16.4,-314.2 64.41,-462.5 55.29,-156.7 124.2,-312.6 231.59,-441.1 61.5,-76.8 165.5,-115.6 262.5,-99.4 112.9,17.8 215.2,71.7 321.77,109.9 97.74,37.6 201.89,62 307.11,54.3 -14.43,-120.9 -77.56,-232.5 -165.47,-315.3 -115.14,-110.8 -263.11,-182 -415.61,-225.1 -133,-36.2 -272.8,-52.6 -409.9,-33.7 15.1,-61.7 33.31,-130.8 5.3,-191.7 -24,-42.8 -75.9,-53.3 -117.3,-71.8 -35.99,-13.4 -65.9,-38.4 -89.6,-68.1 133.1,-181.2 282.8,-349.5 440.1,-509.9 45.41,-47 89.21,-95.5 133.5,-143.5 -383.1,-9.3 -766.4,-12.1 -1149.5,-19.8 -308.5,-3.5 -616.9,-10.9 -925.41,-13.3 0,-906.9 -0.1,-1813.71 0.11,-2720.62 308.1,22.4 610.1,115.9 879.5,266.8 200.4,113.6 385.11,260.11 525.6,443.91 112.8,146.39 195.6,317.5 229.5,499.71 41.19,215.2 10.3,439.5 -68.7,642.6 -42.89,125.9 -117.9,245.8 -231.09,319.4 -58.61,37.3 -132.7,61 -201.2,38.4 -73.21,-23.5 -130.11,-86.3 -148.21,-160.9 -34.3,-109.8 -43,-226.3 -83.3,-334.4 -16.9,-42.5 -41.9,-89.3 -88.61,-103.9 -101.4,-32.2 -213.59,-53.6 -317.09,-18.4 -72.01,24.1 -128.41,83.3 -155.8,153.3 -40.61,102.3 -38.8,216.8 -16.2,323.1 17.2,73.5 42.6,149.6 98.59,203.1 118.21,125.5 283.91,196.7 451.51,226.7 311.9,56 648.51,-31.9 887.5,-241.7 214.31,-183.9 341.5,-452.1 393.2,-726.3 43.4,-277 26.11,-566.32 -70.29,-830.91 -106.1,-296.51 -308.81,-550.71 -551.61,-747.91 -262.3,-214.3 -567.1,-370 -880.7,-494.4 -0.4,-36.4 -0.31,-72.8 -0.21,-109.3 224.51,-5.3 422.71,-140.9 567.71,-303.3 248.5,-280.71 374.71,-654.3 395.1,-1025.11 26.3,-378.29 -106.29,-757.1 -329.89,-1059.4 -226.41,-308.2 -557.41,-530.1 -917.71,-652 -0.41,-45.81 -0.1,-91.6 -0.41,-137.4 153.6,-20.91 289.71,-105.9 407.12,-203 156.49,-132.91 284.79,-299.91 370.09,-487.01 81.5,-177.79 119.91,-376.99 97.4,-572.2 -18.9,-176.5 -70.4,-354.4 -178.1,-498.1 -97.89,-132.5 -238.7,-227.9 -390.3,-289.1 -206.7,-84.4 -428.41,-120.5 -646.1,-164.5 -9.4,-1.6 -18.31,-4.3 -26.91,-8 -1.4,-103.8 0,-207.8 -0.6,-311.7 -180.8,0 -361.59,0 -542.39,0.1 0,104.5 0,209 0,313.5 -228.3,48.1 -462,82.1 -679.02,171.6 -144.69,59.59 -281.09,148.3 -376.79,273.9 -127.7,162.71 -179.2,371.5 -192.6,574.4 -16.9,172.61 17.7,347.9 88.1,505.61 81.8,184.89 209.6,347.6 362.6,479 122.91,102.5 265.4,192.8 426.81,215.5 -7.71,45.49 -16.61,90.79 -24.3,136.19 -317,108.91 -612.71,292.71 -828.31,551.81 -155.7,184.9 -269.6,404.2 -335.01,636.7 -87,310.1 -83.69,644.2 4.11,953.8 81,279.61 235.61,544.71 466.09,726.7 123.61,97.2 273.71,168.61 433.21,171.91 0.1,36.69 0.1,73.3 0,109.8 -323.69,127.5 -637.6,289.9 -905.6,513.9 -232.4,193.7 -425.7,440.4 -532.4,725.3 -99.3,260.61 -124.21,545.52 -94.3,821.62 54.11,309.2 212.3,610 472.5,793.7 196.4,140.7 440.8,210.4 681.8,202.1 173.9,-6.6 349.6,-51.3 495.8,-147.9 62.51,-42.8 124.1,-92.4 162.91,-158.7 55.89,-106 72.69,-229.6 61.9,-347.9 -10.41,-94.4 -51.61,-193.3 -136,-244.1 -87.51,-53.2 -197.11,-47.7 -293.31,-25.5 -44.3,12.3 -94.19,18.5 -128.6,51.8 -41.8,42.5 -59.4,101.5 -72.7,158 -23.3,95.5 -28.3,195.3 -61.3,288.4 -19.4,58.5 -72.11,100.2 -128.3,121 -86.2,28.1 -177,-12.2 -244.9,-64.7 -113.5,-90 -196.5,-217.3 -236.6,-356.3 -68.91,-214.7 -79.41,-450 -14.5,-667.11 82.4,-285.91 279.1,-526.8 513.59,-704.21 321.21,-242.2 714.12,-387.99 1115.12,-417.8 0.1,906.81 0,1813.62 0,2720.32 -691.11,9.3 -1382.21,20.5 -2073.21,32.6 90.4,127.3 206.91,232.2 312.3,346.2 91,96.7 174.7,200 254.39,306.1 -28.39,45.8 -79.49,67.4 -128.48,83.6 -38.71,13 -82.41,33 -94.21,76 -14.71,58.7 6,118.6 24,174.2 -162.6,-23 -328.91,3.7 -483.2,56.4 -154.8,55.4 -304.6,141.5 -406.1,273.5 -54.51,70.7 -91.01,155.3 -102.8,243.9 160.19,12.9 309.9,-53.8 454.79,-112.5 99.41,-38.3 212.11,-79.5 317.21,-37.6 74.6,24.6 127.3,86.8 170.5,149.3 88.29,128.9 150.7,274.1 196.7,422.9 41,137.6 69.1,283.6 44.6,426.9 -13.8,82.7 -64.1,157.7 -135.01,202.5 -114.09,72.5 -250.89,94.3 -382.49,111.6 -355.3,41.5 -720.01,38.9 -1063.509,150.4 -61.098,17.1 -115.899,49.7 -170.805,80.4 -113.992,64.8 -221.289,144.9 -302.992,248.4 C 143.691,14888.3 77.0859,15040 6.88672,15187.5 Z M 3228.5,7517.28 c -135.89,-101.51 -235.7,-247 -290.59,-406.91 -90.91,-266.7 -77.71,-566.99 33.89,-825.6 82.7,-194.8 209.51,-372.3 372.9,-507.4 131.1,-107.8 295.51,-189.9 469.1,-180.5 0.21,699.3 0.11,1398.6 0.11,2097.91 -206.4,-0.41 -418.61,-51.4 -585.41,-177.5 z m 1127.9,177.6 c -0.6,-699 1.11,-1397.91 -0.8,-2096.91 119.21,-9.8 235.01,35.4 336.01,95.2 150.7,91.9 275.4,222.21 374.7,367.29 103.1,151.81 178.8,323.91 208.69,505.51 31.71,209.91 9.61,430.11 -76.59,625.01 -72.9,165 -199.1,307.19 -359,391.8 -147.51,79.6 -316.6,110.99 -483.01,112.1 z m -1092,-3312.82 c -130.4,-73.39 -237.79,-190.2 -291.3,-330.8 -68.2,-172.5 -58.3,-368.6 3.9,-541.3 65.7,-183.9 190.6,-347.2 354.39,-454.3 141.31,-93.79 312.81,-136.8 481.72,-129.2 1.89,529.5 0.3,1059 0.8,1588.41 -189.3,-5.41 -383.2,-37.71 -549.51,-132.81 z m 1092,132.9 c -0.39,-529.09 0.71,-1058.2 -0.49,-1587.2 131.39,-7.8 265.1,18.1 382.69,77.6 187.01,91.71 333.01,256.3 417.21,445.4 77.7,175.3 104.7,378.7 47.2,564 -46.6,156.81 -159.7,289.6 -301.6,369.11 -164.9,94.3 -357.41,125.5 -545.01,131.09 z M 407.293,14395.7 c 231,-88.4 451.105,-208.2 693.307,-264.8 128.5,-29.6 261.6,-38.2 392.7,-25.1 50.1,2 97,22.8 147.1,24.8 66,4.8 137.8,-13.2 183.2,-64.1 81,-83.1 73.8,-242.1 -28.2,-305.3 -39,-28.4 -89,-21.3 -134.2,-24.1 -230.4,-1.9 -466,10.9 -684.403,90.7 -122.004,44 -235.106,113.5 -327.402,204.7 -104.403,103.1 -182.403,230 -242.102,363.2 z m 6692.977,-257.2 c 230.73,60.2 442.55,172.9 664.41,257.7 -80.12,-169.9 -188.11,-332.2 -341.71,-444.2 -179.99,-133.5 -405.37,-187.5 -625.31,-205.7 -125.84,-9.3 -252.84,-14.4 -378.85,-4.3 -124.49,32.2 -163.6,199.4 -94.29,298.6 48.79,77.7 150.19,102.6 236.19,86.3 176.8,-43 363.96,-32.5 539.56,11.6 z M 746.789,13716.2 c 210.406,-100.6 440.911,-156.9 673.811,-168.4 70,-4.5 140.2,-4.8 210.2,-6.9 54.49,-16.8 105.9,-51.9 135.4,-101.4 24.39,-41.1 24.39,-96 -4.2,-135 -26.7,-36.2 -65.8,-65.7 -109.4,-77.1 -196.91,-2.9 -403.01,20.8 -575.5,122.9 -145.303,83.6 -254.205,218.6 -330.311,365.9 z m 6353.271,-116.5 c 111.3,27.1 218.76,68.3 323.12,115.3 -78.08,-150.8 -192.38,-286.7 -341.6,-370.8 -172.08,-97.2 -374.87,-120.1 -569.37,-116.6 -55.7,17.3 -110.39,59.3 -126.7,117.7 -16.4,61.1 22.8,121.4 70.7,156.1 31.11,21 65.91,44 105.2,40.7 180.71,1 362.94,12.7 538.65,57.6 z M 6723.91,1536.85 c 94.05,0.3 188.05,-0.19 282.04,0.3 1.07,-65.8 0.11,-131.8 0.43,-197.7 121.67,4.61 248.46,-11.9 354.64,-75.1 138.32,-79.99 218.65,-233.7 238.94,-388.694 25.75,-189.504 -17.73,-403.304 -163.11,-537 C 7322.67,231.254 7158.28,200.25 7006.38,206.949 7006.27,140.445 7006.27,73.75 7006.49,7.14844 6912.28,6.84766 6818.17,7.05078 6723.91,6.94531 c -0.1,66.80469 0.1,133.40269 0,200.00369 -121.89,-4.5 -249.29,10.801 -355.7,74.504 -126.2,72.297 -203.79,208.199 -230.4,348.297 -31.9,165.004 -11.29,345.801 79.8,489.5 56.91,90.7 147.7,157.9 249.51,190.1 82.49,27.7 170.39,32.51 256.79,30.1 0,65.9 -0.1,131.71 0,197.4 z m -206.19,-519.19 c -73.3,-52.203 -102.61,-146.609 -101.61,-233.308 -3.19,-84.098 14.6,-177 79.71,-235.899 67.4,-62.504 164.79,-74.801 253.13,-71.504 0,198.403 0,396.699 0,595.101 -79.63,2.2 -165.24,-5.6 -231.23,-54.39 z m 461.32,54.39 c -0.22,-198.296 -0.22,-396.698 0,-595.198 87.37,-3.2 183.51,8.199 251.34,68.8 63.23,57.102 83.1,146.797 81.39,228.801 1.28,84.496 -21.04,176.402 -87.8,233.097 -67.19,57.5 -160.01,67.2 -244.93,64.5 z m -6437.544,389.9 c 331.602,0 663.194,-0.09 994.794,0.11 0.21,-91.7 0.21,-183.41 0,-275.2 -119.19,0.2 -238.29,0.2 -357.4,0.09 -0.09,-374.2 0,-748.298 0,-1122.3992 -94.29,0.3008 -188.589,-0.9024 -282.898,0.6015 0.906,373.8987 0.199,747.9027 0.403,1121.7977 -118.395,0.11 -236.696,0 -354.899,0 -0.105,91.7 -0.203,183.41 0,275 z m 1184.004,-1.1 c 335.3,2.61 670.6,0.3 1005.8,1.1 0.2,-465.794 0.1,-931.598 0.1,-1397.5008 -94.2,0 -188.3,0 -282.49,0 0,374.2028 0,748.3008 0,1122.5008 -147.51,0.11 -295.01,0 -442.52,0 0.21,-373.997 -0.5,-747.899 0.41,-1121.8992 -93.51,-1.3047 -186.9,-0.1992 -280.4,-0.6016 -0.6,465.4998 1.2,930.9998 -0.9,1396.4008 z m 1303.5,1.1 c 334.6,0.41 669.3,-0.8 1004,0.6 2.11,-465.999 0.3,-931.999 0.91,-1398.1008 -93.4,0 -186.7,0 -280.01,0.1016 0,374.1012 0,748.1992 0,1122.3992 -147.49,0.11 -294.99,0 -442.5,0 -0.1,-374.2 0,-748.298 0,-1122.5008 -94.2,0 -188.29,0 -282.5,0 0,465.9028 -0.1,931.7068 0.1,1397.5008 z m 1960.02,0 c 167.59,0 335.19,0 502.7,0 90.09,1.7 182.69,-4.1 266.7,-39.5 73.8,-30.1 136.69,-86.5 172.89,-157.7 50.69,-97.8 58.99,-211.6 51.81,-319.801 -6.91,-104.394 -38.1,-213.097 -113.61,-288.898 -77.4,-78.5 -190.71,-108.598 -298,-111.5 -101.7,-0.301 -203.4,0.101 -305.1,-0.102 0.09,-159.898 -0.3,-319.699 0.3,-479.5974 -92.6,-0.9024 -185.2,-0.2032 -277.8,-0.4024 0.11,465.9028 -0.1,931.7068 0.11,1397.5008 z m 277.48,-275 c -0.19,-124.1 -0.09,-248.294 -0.09,-372.497 71.7,0.199 143.4,-0.203 215.2,0.098 51.1,0.601 106.3,8.097 146.39,42.902 39.21,33.199 53.41,86.703 53.71,136.203 1.9,51.794 -5.3,108.894 -42.89,147.694 -34.61,37.6 -88.82,44.91 -137.11,45.6 -78.4,0.21 -156.9,0 -235.21,0" /></g></g></svg>