<svg width="1549" height="1549" fill="none" xmlns="http://www.w3.org/2000/svg"><path d="M183.831 509.656a647.495 647.495 0 00-50.709 349.771l209.983-27.976a435.65 435.65 0 0134.119-235.338l-193.393-86.457z" fill="#6C38FF"/><path d="M71.91 867.939a708.997 708.997 0 0011.614 64.243l229.546-52.516a473.423 473.423 0 01-7.757-42.907L71.91 867.939z" fill="#4CD382"/><path d="M218.638 1087.71a638.023 638.023 0 00339.373 286.99 637.98 637.98 0 00444.429-4.27l-71.827-187.76a437.004 437.004 0 01-304.389 2.92 436.974 436.974 0 01-232.437-196.558l-175.149 98.678z" fill="#2BD6FB"/><path d="M994.501 1349.81a615.966 615.966 0 00245.179-171.75 615.8 615.8 0 00135.27-267.041 615.96 615.96 0 00-153.47-560.115 615.952 615.952 0 00-252.5-160.795 616.008 616.008 0 00-757.231 333.359l183.036 81.691a415.564 415.564 0 01681.175-116.414 415.421 415.421 0 0199.09 175.963 415.591 415.591 0 014.45 201.898 415.547 415.547 0 01-91.26 180.154 415.56 415.56 0 01-165.401 115.86l71.662 187.19z" fill="#217AFF"/><path d="M117.69 922.34a674.109 674.109 0 0071.668 184.9l188.587-107.337a456.975 456.975 0 01-48.594-125.37L117.69 922.34z" fill="#EF8E8E"/></svg>