<svg width="127" height="138" viewBox="0 0 127 138" fill="none" xmlns="http://www.w3.org/2000/svg">
<path d="M13 20.2198L18.4284 15.354L19.5457 16.6005C19.766 16.8462 19.9294 17.0825 20.036 17.3093C20.1466 17.5405 20.2001 17.7665 20.1965 17.9872C20.1929 18.208 20.1301 18.4255 20.0079 18.6398C19.8902 18.85 19.7152 19.0593 19.4828 19.2675C19.2594 19.4678 19.039 19.6129 18.8217 19.703C18.6128 19.7936 18.4094 19.8229 18.2114 19.7908C18.0175 19.7632 17.827 19.672 17.64 19.5174C17.7871 19.7803 17.8604 20.0329 17.8599 20.2751C17.8639 20.5132 17.8001 20.7477 17.6685 20.9784C17.5454 21.2096 17.3543 21.4414 17.0951 21.6737C16.8628 21.8819 16.6265 22.0453 16.3864 22.1639C16.1462 22.2825 15.907 22.3438 15.6689 22.3478C15.4347 22.3563 15.1996 22.3051 14.9634 22.1945C14.7357 22.0843 14.5138 21.9086 14.2975 21.6674L13 20.2198ZM14.2216 20.4905L14.6782 20.9998C14.9825 21.3394 15.263 21.4949 15.5195 21.4665C15.7844 21.4385 16.0934 21.2663 16.4464 20.9499C16.6742 20.7456 16.836 20.5442 16.9319 20.3455C17.0362 20.1472 17.0663 19.947 17.0221 19.7449C16.9864 19.5433 16.8684 19.3307 16.6681 19.1073L16.2657 18.6583L14.2216 20.4905ZM16.842 18.1417L17.2445 18.5907C17.4367 18.8052 17.6159 18.9467 17.7821 19.0153C17.9528 19.0798 18.1272 19.0766 18.3053 19.0056C18.4834 18.9346 18.6797 18.803 18.8941 18.6108C19.1443 18.3865 19.2912 18.1863 19.3348 18.0103C19.3784 17.8342 19.3416 17.6537 19.2242 17.4688C19.1113 17.28 18.9387 17.056 18.7064 16.7968L18.5443 16.6159L16.842 18.1417Z" fill="#627DAE"/>
<path d="M16.97 24.5418L22.3226 19.5928L23.0131 20.3395L20.7861 22.3986L20.9816 22.61C21.3401 22.9977 21.5891 23.3599 21.7288 23.6965C21.8729 24.0291 21.8896 24.361 21.779 24.692C21.6724 25.0275 21.4143 25.3847 21.0046 25.7635C20.727 26.0201 20.4586 26.207 20.1992 26.3242C19.9443 26.4374 19.6877 26.4825 19.4296 26.4597C19.1756 26.4412 18.92 26.3548 18.6628 26.2004C18.4141 26.0463 18.1553 25.8238 17.8865 25.5331L16.97 24.5418ZM18.1957 24.7937L18.4217 25.0382C18.6295 25.2629 18.8228 25.4233 19.0016 25.5194C19.1888 25.6159 19.3899 25.6302 19.6049 25.5622C19.8199 25.4942 20.0727 25.3258 20.3635 25.0569C20.7292 24.7188 20.9239 24.408 20.9478 24.1245C20.9716 23.8409 20.8084 23.5097 20.4581 23.1309L20.2442 22.8996L18.1957 24.7937ZM19.9516 27.7667L25.3043 22.8176L25.9947 23.5643L20.6421 28.5134L19.9516 27.7667Z" fill="#627DAE"/>
<path d="M22.1281 30.0134L27.3843 24.962L30.1657 27.8561L24.9095 32.9075L24.2048 32.1743L28.9353 27.628L27.5633 26.2004L22.8328 30.7467L22.1281 30.0134Z" fill="#627DAE"/>
<path d="M28.0585 36.0649C27.7108 35.7168 27.501 35.3709 27.4291 35.0272C27.3572 34.6835 27.4019 34.342 27.5633 34.0027C27.729 33.6591 27.9816 33.3177 28.3212 32.9785L30.2761 31.0259C30.6157 30.6867 30.951 30.4408 31.282 30.2883C31.6215 30.1358 31.9567 30.0978 32.2876 30.1743C32.627 30.2509 32.9705 30.4632 33.3182 30.8113C33.6659 31.1594 33.8757 31.5011 33.9476 31.8363C34.0196 32.1715 33.9791 32.5045 33.8262 32.8353C33.6775 33.1704 33.4333 33.5076 33.0937 33.8468L31.1325 35.8058C30.7971 36.1407 30.4576 36.3866 30.1138 36.5434C29.7743 36.7044 29.4328 36.753 29.0891 36.6892C28.7498 36.6211 28.4062 36.413 28.0585 36.0649ZM28.6253 35.4988C28.8161 35.6899 28.9984 35.796 29.1724 35.8173C29.3506 35.8344 29.5266 35.79 29.7006 35.684C29.8789 35.5738 30.0636 35.4233 30.2546 35.2325L32.5151 32.9746C32.7061 32.7838 32.8526 32.6036 32.9545 32.4339C33.0607 32.26 33.1011 32.0882 33.0757 31.9185C33.0546 31.7445 32.9486 31.562 32.7578 31.371C32.567 31.18 32.3825 31.0717 32.2044 31.0461C32.0347 31.0206 31.8628 31.0608 31.6888 31.1667C31.5191 31.2685 31.3386 31.4147 31.1476 31.6055L28.8871 33.8635C28.6961 34.0543 28.5454 34.2387 28.4349 34.4169C28.3288 34.5908 28.2841 34.7668 28.301 34.945C28.3264 35.1232 28.4344 35.3078 28.6253 35.4988Z" fill="#627DAE"/>
<path d="M30.5149 38.3644L31.0415 37.822C31.1321 37.9182 31.2244 37.9953 31.3186 38.0533C31.4172 38.1155 31.5279 38.1436 31.6509 38.1375C31.7781 38.1356 31.9323 38.0888 32.1134 37.997C32.2945 37.9052 32.5172 37.7576 32.7815 37.5543C33.0457 37.3509 33.3664 37.081 33.7432 36.7444L36.6195 34.1304L38.9184 36.3621L33.8407 41.5928L33.1109 40.8845L37.6621 36.1962L36.7193 35.2809L34.4213 37.4027C34.0738 37.7176 33.7512 37.9939 33.4535 38.2317C33.1599 38.4652 32.8805 38.6497 32.6152 38.7851C32.3583 38.9205 32.1092 39.0006 31.8677 39.0254C31.6347 39.05 31.4071 39.0089 31.1848 38.9018C30.9626 38.7948 30.7393 38.6157 30.5149 38.3644Z" fill="#627DAE"/>
<path d="M35.2412 42.8819L40.2172 37.5543L40.9605 38.2485L38.8103 40.5505L40.1784 41.8283L42.3285 39.5263L43.0718 40.2205L38.0957 45.548L37.3525 44.8538L39.6808 42.3611L38.3127 41.0833L35.9844 43.5761L35.2412 42.8819Z" fill="#627DAE"/>
<path d="M39.7206 46.9445L44.6141 41.541L46.7088 43.438L46.2013 43.9983L44.8604 42.784L43.2413 44.5718L44.3287 45.5566L43.8454 46.0903L42.758 45.1055L40.9638 47.0868L42.318 48.3132L41.8287 48.8536L39.7206 46.9445Z" fill="#627DAE"/>
<path d="M42.6759 49.5907L47.5066 44.1311L48.2683 44.805L46.1809 47.1642L47.5829 48.4047L49.6703 46.0455L50.4319 46.7195L45.6011 52.1791L44.8395 51.5052L47.0998 48.9506L45.6978 47.7101L43.4375 50.2647L42.6759 49.5907Z" fill="#627DAE"/>
<path d="M47.2619 53.5856L52.0082 48.0524L52.6913 48.6384L49.404 52.4707L54.3103 50.0271L54.8636 50.5017L50.1173 56.0349L49.441 55.4548L52.781 51.5611L47.8357 54.0778L47.2619 53.5856Z" fill="#627DAE"/>
<path d="M52.0082 57.5777L56.6474 51.9544L58.8273 53.7528L58.3462 54.336L56.9508 53.1847L55.4158 55.0453L56.5474 55.9789L56.0892 56.5343L54.9577 55.6007L53.2566 57.6625L54.6659 58.8252L54.2019 59.3876L52.0082 57.5777Z" fill="#627DAE"/>
<path d="M59.5251 63.6455L64.0339 57.9171L67.1881 60.3997L62.6793 66.1281L61.8802 65.4991L65.9381 60.3436L64.3822 59.119L60.3243 64.2745L59.5251 63.6455Z" fill="#627DAE"/>
<path d="M64.794 67.7074L65.2501 67.1046C65.3518 67.189 65.4529 67.2542 65.5535 67.3002C65.6589 67.3499 65.7722 67.3641 65.8935 67.3431C66.0196 67.3256 66.1669 67.2602 66.3354 67.1469C66.5038 67.0336 66.7068 66.8599 66.9442 66.6257C67.1815 66.3915 67.4666 66.0843 67.7994 65.704L70.3336 62.7573L72.8887 64.6904L68.4903 70.504L67.6792 69.8904L71.6216 64.6797L70.5737 63.8869L68.553 66.2742C68.2467 66.6293 67.9604 66.9431 67.6941 67.2156C67.4313 67.4833 67.1766 67.7006 66.9299 67.8676C66.6916 68.0334 66.4542 68.1434 66.2175 68.1976C65.9893 68.2507 65.7584 68.2377 65.5247 68.1587C65.291 68.0797 65.0475 67.9293 64.794 67.7074Z" fill="#627DAE"/>
<path d="M70.0562 71.7305L75.595 66.7443L76.3884 67.3211L73.3611 74.1331L72.5822 73.5669L73.3925 71.886L72.1913 71.0128L70.8278 72.2914L70.0562 71.7305ZM72.7292 70.5025L73.712 71.217L75.1486 68.2L72.7292 70.5025Z" fill="#627DAE"/>
<path d="M74.8811 75.1761L79.0775 69.215L79.9091 69.8004L78.0959 72.3762L79.6266 73.4538L81.4398 70.878L82.2715 71.4634L78.0751 77.4245L77.2435 76.8391L79.207 74.0499L77.6762 72.9723L75.7128 75.7616L74.8811 75.1761Z" fill="#627DAE"/>
<path d="M80.1591 78.7333L85.5435 73.5807L86.3542 74.1331L83.5358 81.0342L82.7399 80.4919L83.4986 78.7872L82.2715 77.9509L80.9475 79.2705L80.1591 78.7333ZM82.7935 77.4245L83.7976 78.1087L85.1416 75.0494L82.7935 77.4245Z" fill="#627DAE"/>
<path d="M87.8995 83.8523L91.843 77.721L95.219 79.8924L91.2755 86.0236L90.4201 85.4735L93.9693 79.9554L92.304 78.8843L88.7548 84.4024L87.8995 83.8523Z" fill="#627DAE"/>
<path d="M95.9679 89.0031C95.5492 88.7448 95.2651 88.4568 95.1156 88.139C94.9662 87.8213 94.9307 87.4787 95.0093 87.1113C95.091 86.7387 95.2579 86.3482 95.5098 85.9396L96.9602 83.5879C97.2122 83.1793 97.4815 82.8626 97.7683 82.6376C98.0633 82.4107 98.3807 82.2963 98.7203 82.2942C99.0681 82.2902 99.4515 82.4174 99.8702 82.6757C100.289 82.9339 100.572 83.2178 100.72 83.5273C100.867 83.8368 100.905 84.1701 100.832 84.5273C100.765 84.8877 100.606 85.2722 100.354 85.6808L98.8987 88.0401C98.6499 88.4436 98.3764 88.7613 98.0782 88.9933C97.7851 89.2285 97.464 89.3548 97.115 89.3721C96.769 89.3843 96.3867 89.2613 95.9679 89.0031ZM96.3884 88.3213C96.6182 88.463 96.8202 88.5241 96.9943 88.5047C97.1716 88.4801 97.3327 88.3961 97.4775 88.2528C97.6254 88.1043 97.7702 87.9152 97.912 87.6854L99.5891 84.966C99.7309 84.7362 99.8317 84.527 99.8916 84.3384C99.9547 84.1446 99.9543 83.9681 99.8904 83.8089C99.8296 83.6445 99.6843 83.4915 99.4545 83.3497C99.2247 83.208 99.0201 83.1453 98.8409 83.1617C98.6699 83.176 98.512 83.2549 98.3672 83.3982C98.2256 83.5364 98.0839 83.7205 97.9421 83.9503L96.265 86.6697C96.1233 86.8995 96.0193 87.1138 95.9531 87.3126C95.89 87.5064 95.8872 87.688 95.9449 87.8574C96.0107 88.025 96.1586 88.1796 96.3884 88.3213Z" fill="#627DAE"/>
<path d="M102.188 92.5961L105.85 86.2922L106.729 86.803L105.147 89.5269L106.766 90.4671L108.348 87.7432L109.227 88.254L105.566 94.5579L104.686 94.0471L106.4 91.0975L104.781 90.1573L103.068 93.1069L102.188 92.5961Z" fill="#627DAE"/>
<path d="M108.072 95.8987L111.614 89.5269L112.4 89.9642L109.947 94.3772L114.265 91.0005L114.902 91.3547L111.36 97.7265L110.581 97.2936L113.074 92.8098L108.733 96.266L108.072 95.8987Z" fill="#627DAE"/>
<path d="M114.41 99.3957L117.856 92.9714L119.45 93.8264C119.836 94.0334 120.104 94.2693 120.255 94.534C120.414 94.7962 120.475 95.0879 120.439 95.409C120.403 95.7301 120.285 96.0783 120.083 96.4538C119.902 96.7922 119.684 97.053 119.429 97.2363C119.179 97.4224 118.901 97.5218 118.595 97.5345C118.291 97.5419 117.965 97.452 117.616 97.2649L116.91 96.8863L115.306 99.8764L114.41 99.3957ZM117.255 96.2439L117.667 96.465C117.926 96.604 118.145 96.6841 118.324 96.7053C118.504 96.7266 118.663 96.6828 118.803 96.5741C118.946 96.4601 119.089 96.2709 119.23 96.0065C119.395 95.6999 119.497 95.4518 119.538 95.2624C119.583 95.0758 119.552 94.9125 119.443 94.7724C119.334 94.6324 119.129 94.4816 118.828 94.3199L118.407 94.0945L117.255 96.2439Z" fill="#627DAE"/>
<path d="M0.471549 25.8366L5.96031 21.0389L6.55263 21.7166L2.75115 25.0394L7.95639 23.3225L8.43616 23.8714L2.9474 28.6691L2.361 27.9982L6.22346 24.6221L0.969093 26.4058L0.471549 25.8366Z" fill="#627DAE"/>
<path d="M5.2094 31.1091L10.5856 26.1856L11.2725 26.9357L8.94941 29.0631L10.2137 30.4436L12.5368 28.3162L13.2236 29.0662L7.84743 33.9897L7.16057 33.2397L9.67608 30.936L8.4118 29.5554L5.89626 31.8591L5.2094 31.1091Z" fill="#627DAE"/>
<path d="M9.387 35.6002L15.7495 31.7196L16.4231 32.4328L12.1928 38.5705L11.5315 37.8704L12.6375 36.3676L11.6178 35.2881L10.0421 36.2937L9.387 35.6002ZM12.2405 34.8856L13.0748 35.7689L15.0426 33.0683L12.2405 34.8856Z" fill="#627DAE"/>
<path d="M12.6375 40.7068L13.1984 40.1604C13.3946 40.4048 13.5621 40.5767 13.7008 40.6761C13.8437 40.7798 13.9726 40.8218 14.0874 40.8021C14.2021 40.7909 14.3153 40.7308 14.4271 40.622C14.5431 40.5089 14.6681 40.3621 14.802 40.1814L18.4386 34.6281L19.1106 35.3179L17.3136 37.923L15.9143 39.8013L17.7843 38.4319L20.4044 36.6459L21.0826 37.3421L15.5176 40.9417C15.2651 41.1039 15.0447 41.2474 14.8564 41.3722C14.6723 41.5014 14.4992 41.5946 14.3372 41.6519C14.1794 41.7135 14.0202 41.7262 13.8594 41.6902C13.6986 41.6541 13.5196 41.5563 13.3222 41.3968C13.1291 41.2415 12.9009 41.0115 12.6375 40.7068Z" fill="#627DAE"/>
<path d="M19.1835 45.7945L21.558 43.4088C21.2138 43.1932 20.9291 42.9733 20.7037 42.749C20.4102 42.4569 20.208 42.171 20.0971 41.8912C19.9946 41.6115 19.9833 41.3336 20.0633 41.0576C20.1475 40.7859 20.3229 40.5161 20.5896 40.2482L22.2594 38.5705L22.9866 39.2943L21.3168 40.9719C21.1559 41.1335 21.0439 41.2929 20.9806 41.45C20.9216 41.6029 20.9177 41.7599 20.969 41.921C21.0245 42.0779 21.1395 42.2431 21.3138 42.4166C21.4031 42.5055 21.5052 42.5943 21.6199 42.6831C21.7389 42.7762 21.8686 42.8671 22.0088 42.9559L24.3261 40.6276L25.0533 41.3513L19.9107 46.5183L19.1835 45.7945Z" fill="#627DAE"/>
<path d="M21.72 48.0499L26.7824 42.8043L27.5142 43.5105L25.3268 45.7772L26.6738 47.0771L28.8612 44.8105L29.593 45.5167L24.5306 50.7623L23.7988 50.0561L26.1675 47.6017L24.8205 46.3017L22.4518 48.7561L21.72 48.0499Z" fill="#627DAE"/>
<path d="M27.504 53.6286C27.1448 53.2925 26.9234 52.9538 26.8399 52.6128C26.7565 52.2717 26.7897 51.9289 26.9396 51.5843C27.0935 51.2353 27.3345 50.8856 27.6625 50.5352L29.5504 48.5177C29.8783 48.1672 30.2052 47.9102 30.5308 47.7466C30.865 47.5826 31.1987 47.5334 31.532 47.5987C31.8738 47.6638 32.2242 47.8644 32.5835 48.2006C32.9427 48.5368 33.1639 48.8711 33.2471 49.2037C33.3303 49.5363 33.3011 49.8705 33.1594 50.2063C33.0221 50.5462 32.7895 50.8914 32.4615 51.2419L30.5675 53.2659C30.2436 53.612 29.9125 53.8692 29.5743 54.0375C29.2404 54.2099 28.9007 54.27 28.5551 54.2178C28.2136 54.1612 27.8633 53.9648 27.504 53.6286ZM28.0513 53.0438C28.2485 53.2282 28.4343 53.3282 28.6089 53.3436C28.7875 53.3547 28.962 53.3043 29.1324 53.1925C29.3068 53.0764 29.4863 52.9197 29.6708 52.7226L31.8538 50.3897C32.0383 50.1926 32.1786 50.0075 32.2747 49.8345C32.375 49.6572 32.4096 49.4841 32.3785 49.3153C32.3515 49.1422 32.2395 48.9634 32.0423 48.7789C31.8452 48.5944 31.6571 48.4924 31.4782 48.4729C31.3077 48.453 31.1374 48.499 30.967 48.6108C30.8008 48.7182 30.6254 48.8705 30.4409 49.0676L28.2579 51.4005C28.0734 51.5976 27.929 51.7871 27.8246 51.9688C27.7244 52.1462 27.6857 52.3236 27.7086 52.5012C27.7399 52.6784 27.8542 52.8593 28.0513 53.0438Z" fill="#627DAE"/>
<path d="M31.7513 54.2085L32.2412 53.6686L33.7276 55.0172L33.2377 55.5571L31.7513 54.2085Z" fill="#627DAE"/>
<path d="M33.6363 59.0457L37.9708 54.1564L37.0482 53.3385L37.5497 52.7728L40.129 55.0594L39.6275 55.6251L38.7318 54.8311L34.3973 59.7204L33.6363 59.0457Z" fill="#627DAE"/>
<path d="M37.079 61.9663L41.8307 56.4376L43.9739 58.2797L43.4811 58.853L42.1092 57.6739L40.537 59.5031L41.6496 60.4593L41.1803 61.0053L40.0677 60.0492L38.3255 62.0763L39.711 63.2671L39.2359 63.82L37.079 61.9663Z" fill="#627DAE"/>
<path d="M40.3702 64.7538L43.9889 62.8094L45.0786 59.1882L45.8023 59.7959L44.9949 62.479L47.4221 61.1559L48.1458 61.7636L44.6881 63.5023L43.5132 67.3928L42.7895 66.7852L43.6448 63.919L41.0939 65.3615L40.3702 64.7538Z" fill="#627DAE"/>
<path d="M45.1163 68.7802L49.7179 63.1261L50.5067 63.768L48.5184 66.2112L49.9703 67.3928L51.9586 64.9497L52.7474 65.5916L48.1458 71.2458L47.357 70.6038L49.5101 67.9582L48.0582 66.7766L45.9051 69.4221L45.1163 68.7802Z" fill="#627DAE"/>
<path d="M49.7856 72.5188L54.3001 66.7949L55.0068 67.3523L51.88 71.3166L56.6816 68.6732L57.254 69.1247L52.7394 74.8485L52.0398 74.2968L55.2167 70.2688L50.3792 72.987L49.7856 72.5188Z" fill="#627DAE"/>
<path d="M56.9555 78.1455L58.9891 75.4633C58.6192 75.2958 58.3075 75.116 58.0541 74.9238C57.7242 74.6737 57.4856 74.4175 57.3382 74.1551C57.1991 73.8916 57.1507 73.6177 57.193 73.3335C57.2401 73.053 57.3778 72.762 57.6062 72.4608L59.0363 70.5747L59.8539 71.1946L58.4238 73.0807C58.286 73.2624 58.1963 73.4354 58.1547 73.5995C58.1166 73.7589 58.1338 73.915 58.2062 74.0678C58.2822 74.2158 58.4183 74.3641 58.6143 74.5127C58.7147 74.5889 58.8277 74.6633 58.9533 74.7359C59.0837 74.8122 59.2244 74.8849 59.3752 74.9541L61.3599 72.3365L62.1775 72.9564L57.773 78.7654L56.9555 78.1455Z" fill="#627DAE"/>
<path d="M59.8734 80.1844L64.1887 74.3089L66.4664 75.9817L66.0189 76.591L64.5609 75.5202L63.1331 77.4642L64.3155 78.3326L63.8893 78.9129L62.7069 78.0445L61.1246 80.1989L62.5972 81.2804L62.1656 81.8679L59.8734 80.1844Z" fill="#627DAE"/>
<path d="M65.3522 84.3141C64.9329 84.0134 64.6691 83.6914 64.5609 83.348C64.4576 83.0082 64.4663 82.6563 64.5869 82.2924C64.7124 81.9321 64.9062 81.569 65.1684 81.2033L66.6683 79.1115C66.955 78.7116 67.2488 78.3944 67.5499 78.1599C67.8558 77.9289 68.181 77.8151 68.5256 77.8185C68.8785 77.8205 69.2647 77.9719 69.684 78.2726C70.0546 78.5383 70.2982 78.8163 70.4149 79.1067C70.5364 79.4005 70.5526 79.7075 70.4634 80.0275C70.3791 80.3509 70.2094 80.6907 69.9542 81.0466L69.6185 81.5147L68.8359 80.9536L69.1348 80.5367C69.2922 80.3172 69.4181 80.1159 69.5126 79.9326C69.6154 79.748 69.6513 79.5744 69.6202 79.4118C69.5891 79.2492 69.459 79.0858 69.2298 78.9215C68.9957 78.7536 68.7884 78.6825 68.6077 78.708C68.4305 78.7286 68.2584 78.8193 68.0914 78.9801C67.9328 79.1395 67.7661 79.3412 67.5913 79.585L65.9079 81.9328C65.6946 82.2303 65.5494 82.4843 65.4723 82.6948C65.3987 82.9004 65.3917 83.08 65.4514 83.2335C65.5112 83.3871 65.6361 83.532 65.8263 83.6684C66.0506 83.8292 66.2464 83.8958 66.4139 83.8682C66.5848 83.8358 66.7454 83.7405 66.8957 83.5824C67.0459 83.4244 67.205 83.2283 67.3728 82.9943L67.6874 82.5554L68.47 83.1165L68.1554 83.5554C67.8967 83.9162 67.6238 84.2041 67.3367 84.4192C67.0532 84.6293 66.7482 84.7354 66.4217 84.7376C66.0988 84.735 65.7423 84.5938 65.3522 84.3141Z" fill="#627DAE"/>
<path d="M68.8359 86.5409L72.9704 80.5367L73.808 81.1134L71.9704 83.782L72.2818 83.9963L75.1941 82.0679L76.0318 82.6447L72.8806 84.6819L72.0456 88.751L71.2079 88.1742L72.0085 84.4091L71.6897 84.1897L69.6735 87.1176L68.8359 86.5409Z" fill="#627DAE"/>
<path d="M73.0857 89.3958L77.1285 83.3295L77.8774 83.8286L75.0773 88.0301L79.6523 85.0115L80.2589 85.4158L76.2162 91.4821L75.4747 90.9879L78.3197 86.719L73.7147 89.815L73.0857 89.3958Z" fill="#627DAE"/>
<path d="M77.9953 92.6666L82.0591 86.6129L82.8987 87.1542L80.7762 92.8212L85.0696 88.5539L85.9017 89.0904L82.0647 95.2904L81.3764 94.8466L84.176 90.3551L80.2721 94.1346L79.788 93.8224L81.6269 88.7115L78.6912 93.1153L77.9953 92.6666Z" fill="#627DAE"/>
<path d="M87.4397 99.8582L87.8439 99.1876C88.0956 99.3744 88.3012 99.4983 88.4606 99.5593C88.6251 99.6234 88.7603 99.6314 88.8664 99.5833C88.9746 99.5434 89.0689 99.4566 89.1494 99.323C89.233 99.1842 89.3168 99.0105 89.4005 98.8018L91.5124 92.5086L92.3371 93.0058L91.2584 95.981L90.3804 98.1524L91.8426 96.3541L93.925 93.9628L94.7575 94.4646L90.2854 99.3561C90.0822 99.577 89.9054 99.7716 89.7548 99.9401C89.6093 100.112 89.4655 100.246 89.3233 100.342C89.1863 100.442 89.0354 100.494 88.8708 100.5C88.7061 100.506 88.5082 100.457 88.2768 100.352C88.0507 100.251 87.7716 100.086 87.4397 99.8582Z" fill="#627DAE"/>
<path d="M94.1347 102.747C93.6888 102.488 93.3957 102.192 93.2556 101.861C93.1206 101.532 93.0959 101.181 93.1816 100.807C93.2725 100.437 93.4311 100.057 93.6576 99.668L94.9529 97.4437C95.2005 97.0186 95.4631 96.675 95.7406 96.4131C96.0233 96.1542 96.3363 96.0101 96.6797 95.981C97.0312 95.9496 97.4299 96.0638 97.8758 96.3235C98.2699 96.5529 98.5387 96.8067 98.6823 97.0847C98.831 97.3658 98.8762 97.6698 98.8177 97.9968C98.7644 98.3268 98.6275 98.681 98.4071 99.0595L98.1172 99.5573L97.285 99.0726L97.5432 98.6293C97.6791 98.396 97.7854 98.1837 97.8621 97.9923C97.9471 97.7987 97.9664 97.6225 97.92 97.4636C97.8737 97.3047 97.7287 97.1543 97.485 97.0124C97.2361 96.8675 97.023 96.8162 96.8455 96.8587C96.671 96.8959 96.5083 97.0025 96.3573 97.1784C96.2144 97.3521 96.0675 97.5686 95.9166 97.8279L94.4627 100.324C94.2785 100.641 94.1579 100.907 94.1011 101.124C94.0473 101.336 94.0573 101.515 94.1313 101.662C94.2053 101.81 94.3433 101.942 94.5455 102.06C94.7841 102.199 94.9853 102.247 95.1494 102.203C95.3165 102.155 95.4674 102.045 95.602 101.873C95.7367 101.702 95.8764 101.491 96.0214 101.242L96.2931 100.776L97.1253 101.26L96.8535 101.727C96.6301 102.111 96.3857 102.423 96.1202 102.664C95.8578 102.9 95.5642 103.035 95.2395 103.068C94.9177 103.096 94.5495 102.989 94.1347 102.747Z" fill="#627DAE"/>
<path d="M97.3661 104.352L97.7367 103.693C97.8488 103.763 97.9578 103.814 98.0637 103.846C98.1748 103.881 98.289 103.88 98.4064 103.842C98.5289 103.808 98.666 103.723 98.8177 103.588C98.9693 103.453 99.147 103.254 99.3506 102.99C99.5542 102.725 99.7952 102.383 100.074 101.961L102.187 98.699L104.979 100.27L101.406 106.624L100.52 106.125L103.722 100.43L102.577 99.7859L100.897 102.424C100.642 102.817 100.4 103.167 100.173 103.473C99.9491 103.774 99.726 104.023 99.5041 104.222C99.2904 104.419 99.0699 104.56 98.8428 104.645C98.6238 104.729 98.3932 104.747 98.151 104.7C97.9088 104.653 97.6472 104.537 97.3661 104.352Z" fill="#627DAE"/>
<path d="M103.109 108.8L103.48 108.111C103.74 108.285 103.952 108.399 104.114 108.452C104.281 108.508 104.417 108.509 104.52 108.456C104.627 108.411 104.716 108.32 104.79 108.182C104.867 108.04 104.942 107.862 105.016 107.649L106.817 101.26L107.665 101.717L106.733 104.741L105.963 106.953L107.335 105.085L109.298 102.595L110.154 103.055L105.927 108.16C105.734 108.39 105.567 108.593 105.425 108.769C105.288 108.947 105.151 109.088 105.014 109.192C104.882 109.298 104.734 109.358 104.57 109.372C104.405 109.386 104.205 109.346 103.969 109.253C103.738 109.163 103.452 109.012 103.109 108.8Z" fill="#627DAE"/>
<path d="M108.728 110.681L112.109 104.222L114.565 105.508L114.214 106.177L112.659 105.364L109.629 111.152L108.728 110.681Z" fill="#627DAE"/>
<path d="M111.851 112.238L116.517 106.427L117.392 106.869L115.499 114.078L114.639 113.645L115.169 111.856L113.843 111.187L112.702 112.668L111.851 112.238ZM114.292 110.597L115.376 111.144L116.31 107.935L114.292 110.597Z" fill="#627DAE"/>
<path d="M117.013 114.81L120.321 108.312L121.219 108.749L119.793 114.63L123.543 109.878L124.433 110.311L121.368 116.926L120.632 116.568L122.872 111.773L119.45 115.994L118.932 115.742L120.144 110.448L117.758 115.172L117.013 114.81Z" fill="#627DAE"/>
</svg>
