<svg width="50" height="125" viewBox="0 0 50 125" fill="none" xmlns="http://www.w3.org/2000/svg">
<g id="Vector">
<path d="M-9.03258e-05 1.71669L7.20101 0.581636L7.46166 2.23523C7.51304 2.56121 7.52185 2.84835 7.4881 3.09663C7.45528 3.35084 7.37739 3.56964 7.25444 3.75302C7.13149 3.9364 6.96053 4.08481 6.74152 4.19829C6.52845 4.31084 6.26782 4.39141 5.95962 4.43999C5.66328 4.4867 5.39937 4.48881 5.16794 4.44633C4.94336 4.40884 4.7567 4.32287 4.60794 4.18839C4.46013 4.05984 4.34977 3.87981 4.27684 3.64834C4.25742 3.94903 4.1817 4.20089 4.0497 4.40392C3.92363 4.60601 3.74267 4.76816 3.50682 4.89037C3.27784 5.01758 2.99147 5.10828 2.64772 5.16246C2.33952 5.21104 2.05238 5.21985 1.78632 5.1889C1.52026 5.15795 1.28617 5.07946 1.08407 4.95339C0.882913 4.83325 0.713293 4.66255 0.57517 4.44136C0.443906 4.22516 0.353039 3.95703 0.302592 3.63699L-9.03258e-05 1.71669ZM0.878375 2.60781L0.984872 3.28346C1.05587 3.7339 1.20677 4.01685 1.43756 4.13233C1.67522 4.25279 2.02816 4.27613 2.49638 4.20233C2.79865 4.15469 3.04398 4.07349 3.23242 3.95875C3.42771 3.84901 3.56174 3.69729 3.63447 3.50361C3.71406 3.31491 3.73049 3.0724 3.68378 2.77606L3.58989 2.18042L0.878375 2.60781ZM4.35444 2.05991L4.44833 2.65555C4.49317 2.94004 4.56673 3.15621 4.669 3.30409C4.7772 3.45103 4.92534 3.5431 5.11342 3.58027C5.3015 3.61744 5.53781 3.6136 5.8223 3.56876C6.1542 3.51644 6.38627 3.42822 6.51856 3.30411C6.65084 3.17999 6.71798 3.00846 6.71991 2.78949C6.72776 2.56958 6.70459 2.28775 6.6504 1.94399L6.61257 1.70397L4.35444 2.05991Z" fill="#627DAE"/>
<path d="M0.984136 7.50223L8.16684 6.25614L8.34069 7.25816L5.35232 7.77662L5.40155 8.06038C5.49181 8.58061 5.5041 9.01998 5.43841 9.37849C5.37864 9.73597 5.21237 10.0236 4.93959 10.2415C4.66783 10.4652 4.25707 10.6248 3.70728 10.7201C3.33484 10.7848 3.00792 10.7958 2.72651 10.7533C2.45101 10.7097 2.21113 10.6082 2.00687 10.4488C1.80364 10.2953 1.63601 10.0838 1.50402 9.81442C1.37896 9.5499 1.28259 9.22255 1.2149 8.83238L0.984136 7.50223ZM1.87626 8.37968L1.93317 8.70776C1.98547 9.00926 2.06056 9.24896 2.15841 9.42685C2.2632 9.60963 2.42428 9.73087 2.64168 9.79058C2.85909 9.8503 3.1629 9.84632 3.55307 9.77863C4.04374 9.69351 4.37613 9.53842 4.55022 9.31335C4.72431 9.08828 4.76724 8.72154 4.67904 8.21313L4.6252 7.90276L1.87626 8.37968ZM1.73487 11.8296L8.91758 10.5835L9.09143 11.5855L1.90873 12.8317L1.73487 11.8296Z" fill="#627DAE"/>
<path d="M2.34113 14.8984L9.49847 13.5139L10.2608 17.4548L3.10344 18.8393L2.91031 17.8408L9.3519 16.5948L8.97588 14.6508L2.53426 15.8969L2.34113 14.8984Z" fill="#627DAE"/>
<path d="M4.03134 23.201C3.92861 22.7199 3.94045 22.3155 4.06682 21.9879C4.1932 21.6602 4.41633 21.3979 4.73622 21.2008C5.06197 21.0024 5.45956 20.853 5.92897 20.7528L8.63107 20.1759C9.10049 20.0757 9.51557 20.0514 9.87634 20.1032C10.2442 20.1597 10.5463 20.3099 10.7824 20.554C11.0257 20.8027 11.1987 21.1676 11.3015 21.6487C11.4042 22.1299 11.3947 22.5307 11.2729 22.8512C11.1512 23.1717 10.9362 23.4292 10.6281 23.6239C10.3212 23.8244 9.93301 23.9748 9.46359 24.075L6.75271 24.6538C6.28916 24.7528 5.87049 24.7747 5.49673 24.7195C5.12423 24.6702 4.81109 24.5254 4.55732 24.2851C4.30941 24.0435 4.13408 23.6822 4.03134 23.201ZM4.81469 23.0338C4.87107 23.2978 4.96649 23.486 5.10093 23.5984C5.24123 23.7096 5.41319 23.768 5.61685 23.7736C5.82637 23.7779 6.06318 23.7519 6.32723 23.6955L9.45179 23.0284C9.71584 22.972 9.93672 22.9003 10.1145 22.8133C10.2981 22.725 10.4254 22.6027 10.4963 22.4464C10.5731 22.2889 10.5833 22.0781 10.5269 21.8141C10.4706 21.55 10.3745 21.3589 10.2388 21.2406C10.1103 21.127 9.94417 21.0673 9.74051 21.0617C9.54272 21.0549 9.31178 21.0796 9.04773 21.136L5.92316 21.8032C5.65912 21.8595 5.43234 21.9325 5.24286 22.0221C5.05925 22.1103 4.92612 22.2339 4.84345 22.3926C4.7679 22.556 4.75831 22.7697 4.81469 23.0338Z" fill="#627DAE"/>
<path d="M4.84396 26.4662L5.58075 26.297C5.60445 26.427 5.64011 26.5419 5.68768 26.6418C5.73659 26.7475 5.8143 26.8312 5.92082 26.893C6.02869 26.9605 6.18356 27.005 6.38546 27.0263C6.58736 27.0477 6.85449 27.0448 7.18686 27.0177C7.51923 26.9906 7.93506 26.9382 8.43433 26.8605L12.2693 26.2289L12.9865 29.3516L5.88156 30.9836L5.65387 29.9924L12.022 28.5297L11.7279 27.249L8.64587 27.7815C8.18303 27.857 7.76205 27.9137 7.38289 27.9515C7.00959 27.988 6.67477 27.991 6.37844 27.9606C6.08929 27.9347 5.8366 27.8665 5.6204 27.7561C5.41139 27.6502 5.24269 27.492 5.11428 27.2814C4.98588 27.0708 4.89578 26.799 4.84396 26.4662Z" fill="#627DAE"/>
<path d="M6.35684 32.8267L13.4291 31.0582L13.6758 32.0448L10.6199 32.809L11.074 34.6251L14.1299 33.8609L14.3767 34.8475L7.3044 36.616L7.05769 35.6294L10.3668 34.8019L9.91266 32.9858L6.60355 33.8133L6.35684 32.8267Z" fill="#627DAE"/>
<path d="M7.90967 38.6713L14.9539 36.7941L15.6815 39.5248L14.951 39.7195L14.4852 37.9715L12.1545 38.5926L12.5323 40.0101L11.8366 40.1955L11.4588 38.778L8.87595 39.4662L9.34642 41.2317L8.64199 41.4194L7.90967 38.6713Z" fill="#627DAE"/>
<path d="M8.95263 42.4986L15.9747 40.5403L16.2479 41.5199L13.2136 42.3661L13.7165 44.1693L16.7507 43.3231L17.0239 44.3027L10.0019 46.261L9.72869 45.2814L13.0143 44.3651L12.5114 42.5619L9.22583 43.4782L8.95263 42.4986Z" fill="#627DAE"/>
<path d="M10.6317 48.3442L17.6229 46.2782L17.8779 47.1413L13.0359 48.5722L18.4824 49.1869L18.689 49.886L11.6979 51.9519L11.4454 51.0975L16.3651 49.6436L10.846 49.0692L10.6317 48.3442Z" fill="#627DAE"/>
<path d="M12.447 54.2745L19.3972 52.0748L20.2499 54.769L19.5292 54.9971L18.9833 53.2725L16.6837 54.0003L17.1264 55.3989L16.4399 55.6162L15.9973 54.2175L13.4489 55.0241L14.0002 56.766L13.3051 56.9859L12.447 54.2745Z" fill="#627DAE"/>
<path d="M15.4602 63.453L22.358 61.0941L23.6568 64.8921L16.759 67.251L16.4299 66.2887L22.638 64.1657L21.9973 62.2923L15.7892 64.4152L15.4602 63.453Z" fill="#627DAE"/>
<path d="M17.6761 69.7259L18.3866 69.4676C18.4261 69.5938 18.4755 69.7035 18.535 69.7968C18.5965 69.8957 18.6839 69.9693 18.7972 70.0175C18.9125 70.0713 19.0717 70.0965 19.2747 70.0929C19.4777 70.0893 19.7424 70.0538 20.069 69.9861C20.3955 69.9185 20.8018 69.8155 21.2877 69.6772L25.0164 68.5805L26.1109 71.5917L19.2595 74.082L18.9121 73.1263L25.053 70.8941L24.6041 69.6592L21.6106 70.5653C21.1605 70.697 20.7496 70.8049 20.3779 70.8889C20.0119 70.9709 19.68 71.0149 19.3822 71.021C19.092 71.0307 18.8329 70.994 18.6048 70.9109C18.3844 70.8314 18.1976 70.6951 18.0443 70.5018C17.8911 70.3085 17.7683 70.0499 17.6761 69.7259Z" fill="#627DAE"/>
<path d="M19.9076 75.9626L27.2667 74.7864L27.6194 75.7018L21.3765 79.7754L21.0303 78.8768L22.6238 77.906L22.09 76.5203L20.2505 76.8528L19.9076 75.9626ZM22.8188 76.3842L23.2556 77.518L26.1009 75.766L22.8188 76.3842Z" fill="#627DAE"/>
<path d="M22.0857 81.477L28.8477 78.7529L29.2277 79.6962L26.3059 80.8733L27.0054 82.6097L29.9272 81.4326L30.3072 82.3759L23.5453 85.1L23.1653 84.1567L26.3292 82.8821L25.6297 81.1457L22.4658 82.4203L22.0857 81.477Z" fill="#627DAE"/>
<path d="M24.5836 87.3311L31.9035 85.9314L32.2839 86.8356L26.168 91.0975L25.7946 90.2098L27.3578 89.191L26.782 87.8221L24.9535 88.2105L24.5836 87.3311ZM27.5063 87.6639L27.9774 88.7839L30.7681 86.946L27.5063 87.6639Z" fill="#627DAE"/>
<path d="M28.2999 95.8344L34.9421 92.8301L36.5963 96.4874L29.9541 99.4917L29.535 98.5651L35.513 95.8612L34.697 94.0572L28.7191 96.761L28.2999 95.8344Z" fill="#627DAE"/>
<path d="M32.2744 104.543C32.0632 104.098 31.9812 103.702 32.0284 103.354C32.0756 103.006 32.232 102.699 32.4976 102.434C32.7687 102.165 33.121 101.928 33.5545 101.722L36.05 100.536C36.4835 100.33 36.8817 100.21 37.2447 100.177C37.6156 100.147 37.9442 100.223 38.2304 100.406C38.5246 100.592 38.7773 100.907 38.9885 101.351C39.1998 101.796 39.2832 102.188 39.2388 102.528C39.1945 102.868 39.0449 103.168 38.7901 103.429C38.5379 103.695 38.195 103.931 37.7615 104.137L35.258 105.327C34.8299 105.53 34.4276 105.648 34.0512 105.681C33.6774 105.719 33.3393 105.651 33.0368 105.476C32.7398 105.298 32.4856 104.987 32.2744 104.543ZM32.9978 104.199C33.1138 104.443 33.2501 104.604 33.4069 104.682C33.5691 104.758 33.7499 104.775 33.9494 104.733C34.1542 104.689 34.3785 104.609 34.6224 104.493L37.508 103.121C37.7519 103.005 37.9502 102.885 38.103 102.759C38.2612 102.63 38.3568 102.482 38.3897 102.314C38.428 102.143 38.3891 101.935 38.2732 101.691C38.1573 101.447 38.0197 101.284 37.8603 101.2C37.709 101.119 37.5336 101.1 37.3341 101.141C37.1401 101.18 36.9212 101.258 36.6773 101.374L33.7917 102.745C33.5479 102.861 33.3441 102.985 33.1805 103.116C33.0223 103.244 32.9213 103.395 32.8776 103.568C32.8418 103.745 32.8819 103.955 32.9978 104.199Z" fill="#627DAE"/>
<path d="M35.5438 110.939L42.0429 107.636L42.5036 108.543L39.6954 109.97L40.5434 111.639L43.3516 110.212L43.8124 111.119L37.3133 114.421L36.8526 113.515L39.8935 111.969L39.0455 110.3L36.0045 111.846L35.5438 110.939Z" fill="#627DAE"/>
<path d="M38.6884 116.908L45.1241 113.484L45.5468 114.279L41.0896 116.65L46.5488 116.162L46.8912 116.805L40.4556 120.23L40.037 119.443L44.5658 117.033L39.0435 117.576L38.6884 116.908Z" fill="#627DAE"/>
<path d="M42.1091 123.288L48.4925 119.767L49.3662 121.351C49.5777 121.735 49.6748 122.079 49.6576 122.383C49.6485 122.689 49.5416 122.968 49.3369 123.218C49.1321 123.468 48.8432 123.696 48.4702 123.901C48.1339 124.087 47.8091 124.187 47.4955 124.202C47.1848 124.223 46.8974 124.156 46.6333 124C46.3744 123.841 46.1494 123.588 45.9581 123.241L45.5713 122.54L42.6002 124.179L42.1091 123.288ZM46.2096 122.188L46.4356 122.598C46.5776 122.855 46.7181 123.042 46.857 123.157C46.996 123.272 47.1537 123.322 47.3304 123.307C47.5122 123.289 47.7345 123.207 47.9972 123.062C48.302 122.894 48.5227 122.742 48.6595 122.605C48.7992 122.473 48.8614 122.319 48.8462 122.142C48.831 121.965 48.7409 121.727 48.5757 121.428L48.3453 121.01L46.2096 122.188Z" fill="#627DAE"/>
</g>
</svg>
